<svg width="122" height="127" viewBox="0 0 122 127" fill="none" xmlns="http://www.w3.org/2000/svg">
<path d="M35.2375 85.4388H18.085C15.7167 85.4388 13.7969 87.3576 13.7969 89.7246V119.725C13.7969 122.091 15.7167 124.01 18.085 124.01H35.2375C37.6057 124.01 39.5256 122.091 39.5256 119.725V89.7246C39.5256 87.3576 37.6057 85.4388 35.2375 85.4388Z" fill="white" stroke="#323433" stroke-width="2"/>
<path d="M69.5422 64.0104H52.3897C50.0214 64.0104 48.1016 65.9292 48.1016 68.2961V119.725C48.1016 122.092 50.0214 124.01 52.3897 124.01H69.5422C71.9104 124.01 73.8303 122.092 73.8303 119.725V68.2961C73.8303 65.9292 71.9104 64.0104 69.5422 64.0104Z" fill="white" stroke="#323433" stroke-width="2"/>
<path d="M103.847 38.295H86.6944C84.3261 38.295 82.4062 40.2138 82.4062 42.5808V119.724C82.4062 122.09 84.3261 124.009 86.6944 124.009H103.847C106.215 124.009 108.135 122.09 108.135 119.724V42.5808C108.135 40.2138 106.215 38.295 103.847 38.295Z" fill="white" stroke="#323433" stroke-width="2"/>
<path d="M83.6823 3.65718C83.3579 2.86777 82.805 2.19318 82.0945 1.71979C81.384 1.2464 80.5483 0.99578 79.6944 1.00005H62.5419C61.4047 1.00005 60.314 1.45165 59.5098 2.25537C58.7056 3.0591 58.2538 4.14913 58.2538 5.28577C58.2538 6.42241 58.7056 7.51244 59.5098 8.31617C60.314 9.1199 61.4047 9.57149 62.5419 9.57149H69.36L16.6591 62.243C16.057 62.8399 15.6454 63.6018 15.4765 64.4324C15.3076 65.263 15.389 66.125 15.7103 66.9094C16.0316 67.6939 16.5784 68.3655 17.2816 68.8394C17.9847 69.3132 18.8127 69.568 19.6608 69.5715C20.2251 69.5748 20.7846 69.4667 21.307 69.2535C21.8295 69.0402 22.3047 68.7259 22.7054 68.3286L75.4063 15.6144V22.4286C75.4063 23.5653 75.8581 24.6553 76.6623 25.459C77.4664 26.2628 78.5571 26.7144 79.6944 26.7144C80.8317 26.7144 81.9224 26.2628 82.7266 25.459C83.5307 24.6553 83.9825 23.5653 83.9825 22.4286V5.28577C83.9894 4.72857 83.8874 4.17537 83.6823 3.65718Z" fill="#53599A" stroke="#323433" stroke-width="2"/>
<path d="M116.714 125.01H5.28571C4.14907 125.01 3.05898 124.484 2.25525 123.546C1.45153 122.608 1 121.336 1 120.01C1 118.684 1.45153 117.413 2.25525 116.475C3.05898 115.537 4.14907 115.01 5.28571 115.01H116.714C117.851 115.01 118.941 115.537 119.745 116.475C120.548 117.413 121 118.684 121 120.01C121 121.336 120.548 122.608 119.745 123.546C118.941 124.484 117.851 125.01 116.714 125.01Z" fill="#53599A" stroke="#323433" stroke-width="2"/>
</svg>
