<svg width="122" height="104" viewBox="0 0 122 104" fill="none" xmlns="http://www.w3.org/2000/svg">
<path d="M8.47876 83.6992C4.35491 83.6992 1 80.3443 1 76.2205V8.47876C1 4.35491 4.35491 1 8.47876 1H113.521C117.645 1 121 4.35491 121 8.47876V76.2205C121 80.3443 117.645 83.6992 113.521 83.6992H8.47876Z" fill="#53599A" stroke="#323433" stroke-width="2"/>
<path d="M116.397 69.6539C116.397 71.2361 115.102 72.5304 113.52 72.5304H8.47813C6.89591 72.5304 5.60156 71.2361 5.60156 69.6539V8.47911C5.60156 6.89689 6.89591 5.60254 8.47813 5.60254H113.521C115.103 5.60254 116.397 6.89689 116.397 8.47911V69.6539H116.397Z" fill="white" stroke="#323433" stroke-width="2"/>
<path d="M43.8965 83.6992H78.1001V94.1071H43.8965V83.6992Z" fill="#53599A" stroke="#323433" stroke-width="2"/>
<path d="M60.998 80.577C62.3582 80.577 63.4608 79.4744 63.4608 78.1142C63.4608 76.754 62.3582 75.6514 60.998 75.6514C59.6378 75.6514 58.5352 76.754 58.5352 78.1142C58.5352 79.4744 59.6378 80.577 60.998 80.577Z" fill="white"/>
<path d="M13.8827 14.0896C14.9149 14.0896 15.7517 13.2528 15.7517 12.2206C15.7517 11.1883 14.9149 10.3516 13.8827 10.3516C12.8505 10.3516 12.0137 11.1883 12.0137 12.2206C12.0137 13.2528 12.8505 14.0896 13.8827 14.0896Z" fill="#53599A"/>
<path d="M22.4198 14.0896C23.452 14.0896 24.2888 13.2528 24.2888 12.2206C24.2888 11.1883 23.452 10.3516 22.4198 10.3516C21.3876 10.3516 20.5508 11.1883 20.5508 12.2206C20.5508 13.2528 21.3876 14.0896 22.4198 14.0896Z" fill="#53599A"/>
<path d="M30.9569 14.0896C31.9891 14.0896 32.8259 13.2528 32.8259 12.2206C32.8259 11.1883 31.9891 10.3516 30.9569 10.3516C29.9247 10.3516 29.0879 11.1883 29.0879 12.2206C29.0879 13.2528 29.9247 14.0896 30.9569 14.0896Z" fill="#53599A"/>
<path d="M88.7396 102.563H33.2578V96.8441C33.2578 95.3331 34.4832 94.1077 35.9943 94.1077H86.0032C87.5143 94.1077 88.7396 95.3331 88.7396 96.8441V102.563Z" fill="white" stroke="#323433" stroke-width="2"/>
<path d="M60.9986 81.3983C62.8096 81.3983 64.2824 79.9256 64.2824 78.1146C64.2824 76.3036 62.8096 74.8308 60.9986 74.8308C59.1876 74.8308 57.7148 76.3036 57.7148 78.1146C57.7148 79.9256 59.1876 81.3983 60.9986 81.3983ZM60.9986 76.4727C61.9038 76.4727 62.6405 77.2093 62.6405 78.1146C62.6405 79.0198 61.9038 79.7564 60.9986 79.7564C60.0934 79.7564 59.3567 79.0198 59.3567 78.1146C59.3567 77.2093 60.0934 76.4727 60.9986 76.4727Z" fill="#53599A" stroke="#323433"/>
<path d="M13.8833 9.52979C12.4001 9.52979 11.1934 10.7366 11.1934 12.2197C11.1934 13.7029 12.4001 14.9097 13.8833 14.9097C15.3665 14.9097 16.5732 13.7029 16.5732 12.2197C16.5732 10.7366 15.3665 9.52979 13.8833 9.52979ZM13.8833 13.2678C13.3054 13.2678 12.8352 12.7977 12.8352 12.2197C12.8352 11.6418 13.3054 11.1717 13.8833 11.1717C14.4612 11.1717 14.9314 11.6418 14.9314 12.2197C14.9314 12.7977 14.4612 13.2678 13.8833 13.2678Z" fill="#53599A" stroke="#323433"/>
<path d="M22.4204 14.9102C23.9036 14.9102 25.1104 13.7034 25.1104 12.2202C25.1104 10.7371 23.9036 9.53027 22.4204 9.53027C20.9372 9.53027 19.7305 10.7371 19.7305 12.2202C19.7305 13.7034 20.9372 14.9102 22.4204 14.9102ZM22.4204 11.1722C22.9984 11.1722 23.4685 11.6423 23.4685 12.2202C23.4685 12.7982 22.9984 13.2683 22.4204 13.2683C21.8425 13.2683 21.3723 12.7982 21.3723 12.2202C21.3723 11.6423 21.8425 11.1722 22.4204 11.1722Z" fill="#53599A" stroke="#323433"/>
<path d="M30.9575 14.9102C32.4407 14.9102 33.6475 13.7034 33.6475 12.2202C33.6475 10.7371 32.4407 9.53027 30.9575 9.53027C29.4744 9.53027 28.2676 10.7371 28.2676 12.2202C28.2676 13.7034 29.4744 14.9102 30.9575 14.9102ZM30.9575 11.1722C31.5355 11.1722 32.0056 11.6423 32.0056 12.2202C32.0056 12.7982 31.5355 13.2683 30.9575 13.2683C30.3796 13.2683 29.9095 12.7982 29.9095 12.2202C29.9095 11.6423 30.3801 11.1722 30.9575 11.1722Z" fill="#53599A" stroke="#323433"/>
<path d="M46.0658 22.569C44.2522 22.9912 42.627 23.9962 41.439 25.4301C40.251 26.864 39.5657 28.6478 39.488 30.5083C39.4795 30.8776 39.5146 31.2467 39.5923 31.6079C38.5042 32.3783 37.6137 33.3953 36.9938 34.5757C36.3738 35.7561 36.042 37.0664 36.0254 38.3996C36.0355 39.5649 36.2926 40.7149 36.7798 41.7736C37.2669 42.8323 37.9731 43.7756 38.8516 44.5413C38.1454 45.7525 37.7738 47.1297 37.775 48.5318C37.8191 50.197 38.3514 51.8126 39.3056 53.178C40.2598 54.5434 41.594 55.5985 43.1426 56.2124C43.5599 60.9561 48.0053 64.6754 53.4063 64.6754H53.4824C55.166 64.7061 56.7945 64.0758 58.0185 62.9196C59.2426 61.7634 59.9648 60.1734 60.03 58.4909V18.5962C59.6012 16.203 57.5679 15.094 54.8533 15.1211C49.5389 15.4852 47.1602 19.6478 46.0658 22.569Z" fill="#53599A"/>
<path d="M49.4364 45.0769C49.3605 45.077 49.2855 45.0605 49.2167 45.0286C49.1479 44.9967 49.0868 44.9502 49.0378 44.8923C48.4969 44.137 47.7941 43.5122 46.9808 43.0633C46.1675 42.6144 45.2642 42.3528 44.3369 42.2977C41.4741 42.2977 39.2666 44.8714 39.2446 44.8975C39.1553 45.0032 39.0276 45.0691 38.8896 45.0806C38.7517 45.0921 38.6148 45.0484 38.5091 44.9591C38.4034 44.8697 38.3376 44.742 38.326 44.604C38.3145 44.4661 38.3582 44.3292 38.4476 44.2235C38.5519 44.1025 40.9953 41.2544 44.3369 41.2544C45.417 41.306 46.4717 41.5996 47.4232 42.1136C48.3746 42.6275 49.1984 43.3485 49.8338 44.2235C49.8981 44.2994 49.9393 44.3921 49.9526 44.4906C49.9659 44.5892 49.9508 44.6894 49.909 44.7797C49.8673 44.8699 49.8006 44.9463 49.7168 44.9999C49.6331 45.0535 49.5358 45.082 49.4364 45.0822V45.0769Z" fill="#323C6B"/>
<path d="M45.1349 42.3512C45.0117 42.3512 44.8925 42.3076 44.7984 42.2281C44.7042 42.1486 44.6413 42.0384 44.6206 41.9169C44.6 41.7954 44.6231 41.6706 44.6857 41.5644C44.7483 41.4583 44.8465 41.3778 44.9628 41.3372C45.7831 41.028 46.5248 40.5411 47.1346 39.9114C47.7445 39.2817 48.2074 38.5249 48.4901 37.6951C48.5251 37.5612 48.6119 37.4467 48.7313 37.3767C48.8508 37.3068 48.9931 37.2871 49.127 37.3221C49.2609 37.3571 49.3755 37.4439 49.4454 37.5634C49.5154 37.6828 49.535 37.8251 49.5 37.9591C49.1787 38.9576 48.6339 39.8697 47.9069 40.6259C47.18 41.3822 46.2901 41.9626 45.305 42.3231C45.2503 42.3418 45.1928 42.3513 45.1349 42.3512Z" fill="#323C6B"/>
<path d="M51.0836 23.782C51.0015 23.7828 50.9204 23.7642 50.8468 23.7277C49.4155 22.985 47.7729 22.7552 46.1928 23.0767C46.0604 23.1114 45.9196 23.0926 45.801 23.0244C45.6823 22.9563 45.5951 22.8442 45.5583 22.7124C45.5215 22.5806 45.5379 22.4396 45.6041 22.3198C45.6703 22.2 45.7809 22.111 45.9121 22.0721C47.7447 21.6719 49.6597 21.9304 51.3204 22.8023C51.4246 22.8557 51.5078 22.9426 51.5567 23.049C51.6055 23.1554 51.6171 23.2751 51.5897 23.3889C51.5622 23.5027 51.4973 23.604 51.4053 23.6764C51.3133 23.7489 51.1996 23.7882 51.0826 23.7882L51.0836 23.782Z" fill="#323C6B"/>
<path d="M43.3094 56.7332H43.1279C43.0594 56.7328 42.9916 56.7189 42.9285 56.6923C42.8654 56.6657 42.8081 56.627 42.76 56.5782C42.7118 56.5295 42.6737 56.4718 42.6479 56.4083C42.6221 56.3449 42.609 56.277 42.6094 56.2085C42.6098 56.14 42.6237 56.0722 42.6503 56.0091C42.6769 55.9459 42.7157 55.8887 42.7644 55.8405C42.8131 55.7924 42.8708 55.7543 42.9343 55.7285C42.9977 55.7026 43.0656 55.6895 43.1341 55.69H43.3084C46.5352 55.69 48.3098 54.4964 49.2342 53.4855C49.3275 53.3834 49.4577 53.3226 49.5959 53.3164C49.7341 53.3103 49.8691 53.3593 49.9712 53.4527C50.0733 53.546 50.1341 53.6762 50.1403 53.8144C50.1465 53.9526 50.0975 54.0876 50.0041 54.1897C48.9379 55.3561 46.9139 56.7332 43.3094 56.7332Z" fill="#323C6B"/>
<path d="M63.5766 23.0635H60.0294C59.8911 23.0635 59.7584 23.0086 59.6606 22.9108C59.5628 22.8129 59.5078 22.6802 59.5078 22.5419C59.5078 22.4036 59.5628 22.2709 59.6606 22.173C59.7584 22.0752 59.8911 22.0203 60.0294 22.0203H63.5766C63.7149 22.0203 63.8476 22.0752 63.9454 22.173C64.0432 22.2709 64.0982 22.4036 64.0982 22.5419C64.0982 22.6802 64.0432 22.8129 63.9454 22.9108C63.8476 23.0086 63.7149 23.0635 63.5766 23.0635Z" fill="#323C6B"/>
<path d="M63.5766 57.7774H60.0294C59.8911 57.7774 59.7584 57.7224 59.6606 57.6246C59.5628 57.5268 59.5078 57.3941 59.5078 57.2558C59.5078 57.1174 59.5628 56.9847 59.6606 56.8869C59.7584 56.7891 59.8911 56.7341 60.0294 56.7341H63.5766C63.7149 56.7341 63.8476 56.7891 63.9454 56.8869C64.0432 56.9847 64.0982 57.1174 64.0982 57.2558C64.0982 57.3941 64.0432 57.5268 63.9454 57.6246C63.8476 57.7224 63.7149 57.7774 63.5766 57.7774Z" fill="#323C6B"/>
<path d="M53.0857 26.7828C54.3747 26.7828 55.4195 25.738 55.4195 24.449C55.4195 23.1601 54.3747 22.1152 53.0857 22.1152C51.7968 22.1152 50.752 23.1601 50.752 24.449C50.752 25.738 51.7968 26.7828 53.0857 26.7828Z" fill="white"/>
<path d="M53.0859 27.3031C52.5212 27.3031 51.9691 27.1357 51.4995 26.8219C51.0299 26.5082 50.6639 26.0622 50.4478 25.5404C50.2317 25.0187 50.1752 24.4446 50.2853 23.8907C50.3955 23.3368 50.6675 22.828 51.0668 22.4286C51.4661 22.0293 51.9749 21.7573 52.5288 21.6472C53.0827 21.537 53.6569 21.5935 54.1786 21.8096C54.7004 22.0258 55.1463 22.3918 55.4601 22.8613C55.7739 23.3309 55.9413 23.883 55.9413 24.4477C55.9405 25.2048 55.6394 25.9306 55.1041 26.4659C54.5688 27.0012 53.843 27.3023 53.0859 27.3031ZM53.0859 22.6356C52.7275 22.6356 52.3771 22.7418 52.0791 22.941C51.7811 23.1401 51.5488 23.4231 51.4117 23.7542C51.2745 24.0854 51.2386 24.4497 51.3086 24.8013C51.3785 25.1528 51.5511 25.4757 51.8045 25.7291C52.0579 25.9825 52.3808 26.1551 52.7324 26.2251C53.0839 26.295 53.4483 26.2591 53.7794 26.1219C54.1105 25.9848 54.3935 25.7525 54.5927 25.4545C54.7918 25.1565 54.8981 24.8061 54.8981 24.4477C54.8975 23.9673 54.7064 23.5067 54.3667 23.1669C54.027 22.8272 53.5663 22.6361 53.0859 22.6356Z" fill="#323C6B"/>
<path d="M49.5389 37.8988C50.8278 37.8988 51.8727 36.8539 51.8727 35.565C51.8727 34.2761 50.8278 33.2312 49.5389 33.2312C48.25 33.2312 47.2051 34.2761 47.2051 35.565C47.2051 36.8539 48.25 37.8988 49.5389 37.8988Z" fill="white"/>
<path d="M49.539 38.4198C48.9743 38.4198 48.4222 38.2524 47.9526 37.9386C47.4831 37.6249 47.1171 37.1789 46.901 36.6571C46.6848 36.1354 46.6283 35.5612 46.7385 35.0074C46.8486 34.4535 47.1206 33.9447 47.5199 33.5453C47.9193 33.146 48.4281 32.874 48.982 32.7639C49.5359 32.6537 50.11 32.7102 50.6318 32.9263C51.1535 33.1425 51.5995 33.5085 51.9132 33.978C52.227 34.4476 52.3945 34.9997 52.3945 35.5644C52.3936 36.3215 52.0925 37.0473 51.5572 37.5826C51.0219 38.1179 50.2961 38.419 49.539 38.4198ZM49.539 33.7523C49.1806 33.7523 48.8303 33.8585 48.5322 34.0577C48.2342 34.2568 48.002 34.5398 47.8648 34.8709C47.7276 35.2021 47.6918 35.5664 47.7617 35.918C47.8316 36.2695 48.0042 36.5924 48.2576 36.8458C48.5111 37.0992 48.834 37.2718 49.1855 37.3418C49.537 37.4117 49.9014 37.3758 50.2325 37.2386C50.5636 37.1015 50.8467 36.8692 51.0458 36.5712C51.2449 36.2732 51.3512 35.9228 51.3512 35.5644C51.3506 35.084 51.1595 34.6234 50.8198 34.2836C50.4801 33.9439 50.0195 33.7528 49.539 33.7523Z" fill="#323C6B"/>
<path d="M50.7518 54.1263C52.0407 54.1263 53.0856 53.0815 53.0856 51.7925C53.0856 50.5036 52.0407 49.4587 50.7518 49.4587C49.4628 49.4587 48.418 50.5036 48.418 51.7925C48.418 53.0815 49.4628 54.1263 50.7518 54.1263Z" fill="white"/>
<path d="M50.7519 54.6481C50.1872 54.6481 49.6352 54.4807 49.1656 54.167C48.6961 53.8533 48.3301 53.4074 48.1139 52.8857C47.8978 52.364 47.8412 51.7899 47.9513 51.236C48.0614 50.6821 48.3332 50.1733 48.7325 49.774C49.1317 49.3746 49.6404 49.1025 50.1942 48.9923C50.748 48.882 51.3221 48.9384 51.8439 49.1543C52.3657 49.3703 52.8117 49.7361 53.1256 50.2055C53.4395 50.675 53.6071 51.2269 53.6073 51.7916C53.6068 52.5489 53.3058 53.275 52.7705 53.8105C52.2351 54.346 51.5091 54.6473 50.7519 54.6481ZM50.7519 49.9805C50.3935 49.9805 50.0431 50.0868 49.745 50.286C49.447 50.4852 49.2147 50.7683 49.0776 51.0994C48.9405 51.4306 48.9046 51.7951 48.9747 52.1466C49.0447 52.4982 49.2174 52.8211 49.4709 53.0744C49.7244 53.3278 50.0474 53.5004 50.399 53.5702C50.7506 53.64 51.115 53.6039 51.4461 53.4666C51.7772 53.3293 52.0602 53.0969 52.2592 52.7987C52.4582 52.5006 52.5643 52.1501 52.5641 51.7916C52.563 51.3116 52.3716 50.8515 52.032 50.5122C51.6923 50.1729 51.232 49.9821 50.7519 49.9816V49.9805Z" fill="#323C6B"/>
<path d="M76.4974 22.569C78.311 22.9912 79.9362 23.9962 81.1242 25.4301C82.3123 26.864 82.9976 28.6478 83.0752 30.5083C83.0837 30.8776 83.0487 31.2467 82.9709 31.6079C84.0591 32.3783 84.9495 33.3953 85.5694 34.5757C86.1894 35.7561 86.5212 37.0664 86.5378 38.3996C86.5277 39.5649 86.2706 40.7149 85.7834 41.7736C85.2963 42.8323 84.5901 43.7756 83.7116 44.5413C84.4179 45.7525 84.7894 47.1297 84.7883 48.5318C84.7441 50.197 84.2118 51.8126 83.2576 53.178C82.3034 54.5434 80.9692 55.5985 79.4206 56.2124C79.0033 60.9561 74.5579 64.6754 69.1569 64.6754H69.0849C67.4007 64.7073 65.7711 64.0774 64.5461 62.9211C63.3212 61.7647 62.5984 60.1742 62.5332 58.4909V18.5962C62.962 16.203 64.9953 15.094 67.7099 15.1211C73.0243 15.4852 75.403 19.6478 76.4974 22.569Z" fill="#53599A"/>
<path d="M73.1264 45.0774C73.027 45.0773 72.9297 45.0488 72.8459 44.9952C72.7622 44.9416 72.6955 44.8652 72.6537 44.7749C72.612 44.6847 72.5969 44.5844 72.6102 44.4859C72.6235 44.3874 72.6647 44.2947 72.7289 44.2188C73.3649 43.3448 74.1889 42.6247 75.1403 42.1117C76.0918 41.5987 77.1462 41.3059 78.2259 41.2549C81.5644 41.2549 84.0129 44.103 84.1152 44.224C84.2009 44.33 84.2417 44.4653 84.2288 44.601C84.216 44.7367 84.1506 44.862 84.0466 44.9501C83.9426 45.0382 83.8082 45.082 83.6722 45.0723C83.5363 45.0625 83.4096 45 83.3192 44.898C83.2972 44.8719 81.0772 42.2982 78.2259 42.2982H78.2197C77.293 42.355 76.3907 42.6178 75.5785 43.0676C74.7664 43.5173 74.0648 44.1427 73.5249 44.898C73.4754 44.9549 73.4142 45.0005 73.3454 45.0315C73.2766 45.0624 73.2019 45.0781 73.1264 45.0774Z" fill="#323C6B"/>
<path d="M77.426 42.351C77.3678 42.3512 77.31 42.3417 77.2549 42.3228C76.2698 41.9624 75.3799 41.3819 74.653 40.6257C73.9261 39.8695 73.3812 38.9574 73.0599 37.9588C73.0249 37.8249 73.0446 37.6826 73.1145 37.5631C73.1845 37.4437 73.299 37.3569 73.4329 37.3219C73.5668 37.2869 73.7092 37.3065 73.8286 37.3765C73.948 37.4464 74.0348 37.5609 74.0698 37.6949C74.3501 38.5257 74.812 39.2835 75.422 39.9134C76.032 40.5432 76.7747 41.0291 77.5961 41.3359C77.7131 41.376 77.812 41.4563 77.8752 41.5626C77.9385 41.6688 77.9619 41.7941 77.9414 41.916C77.9208 42.038 77.8576 42.1487 77.763 42.2283C77.6684 42.308 77.5486 42.3515 77.425 42.351H77.426Z" fill="#323C6B"/>
<path d="M71.4787 23.7821C71.3616 23.7821 71.2479 23.7428 71.156 23.6703C71.064 23.5979 70.999 23.4966 70.9716 23.3828C70.9441 23.269 70.9557 23.1493 71.0046 23.0429C71.0534 22.9365 71.1366 22.8496 71.2408 22.7962C72.9016 21.9243 74.8166 21.6658 76.6491 22.0659C76.7803 22.1049 76.8909 22.1939 76.9571 22.3137C77.0233 22.4335 77.0398 22.5745 77.003 22.7063C76.9661 22.8381 76.879 22.9502 76.7603 23.0183C76.6416 23.0865 76.5009 23.1053 76.3685 23.0706C74.788 22.7513 73.1457 22.9832 71.7155 23.7279C71.6419 23.7644 71.5608 23.7829 71.4787 23.7821Z" fill="#323C6B"/>
<path d="M79.2524 56.7322C75.6468 56.7322 73.6187 55.3551 72.5567 54.1888C72.5104 54.1382 72.4746 54.079 72.4512 54.0146C72.4278 53.9502 72.4174 53.8819 72.4204 53.8134C72.4235 53.745 72.44 53.6778 72.469 53.6157C72.498 53.5537 72.539 53.4979 72.5895 53.4517C72.6401 53.4054 72.6992 53.3696 72.7636 53.3462C72.828 53.3229 72.8964 53.3124 72.9649 53.3155C73.0333 53.3185 73.1005 53.335 73.1625 53.364C73.2246 53.393 73.2804 53.434 73.3266 53.4845C74.2655 54.5132 76.1027 55.7349 79.4193 55.6879C79.5576 55.6861 79.691 55.7394 79.7901 55.8359C79.8892 55.9325 79.9459 56.0644 79.9477 56.2028C79.9495 56.3411 79.8963 56.4745 79.7997 56.5736C79.7032 56.6727 79.5712 56.7294 79.4329 56.7312L79.2524 56.7322Z" fill="#323C6B"/>
<path d="M69.4764 26.7828C70.7653 26.7828 71.8102 25.738 71.8102 24.449C71.8102 23.1601 70.7653 22.1152 69.4764 22.1152C68.1875 22.1152 67.1426 23.1601 67.1426 24.449C67.1426 25.738 68.1875 26.7828 69.4764 26.7828Z" fill="white"/>
<path d="M69.4765 27.3031C68.9118 27.3031 68.3597 27.1357 67.8901 26.8219C67.4206 26.5082 67.0546 26.0622 66.8385 25.5404C66.6223 25.0187 66.5658 24.4446 66.676 23.8907C66.7861 23.3368 67.0581 22.828 67.4574 22.4286C67.8568 22.0293 68.3656 21.7573 68.9195 21.6472C69.4734 21.537 70.0475 21.5935 70.5693 21.8096C71.091 22.0258 71.537 22.3918 71.8507 22.8613C72.1645 23.3309 72.332 23.883 72.332 24.4477C72.3311 25.2048 72.03 25.9306 71.4947 26.4659C70.9594 27.0012 70.2336 27.3023 69.4765 27.3031ZM69.4765 22.6356C69.1181 22.6356 68.7677 22.7418 68.4697 22.941C68.1717 23.1401 67.9395 23.4231 67.8023 23.7542C67.6651 24.0854 67.6293 24.4497 67.6992 24.8013C67.7691 25.1528 67.9417 25.4757 68.1951 25.7291C68.4486 25.9825 68.7715 26.1551 69.123 26.2251C69.4745 26.295 69.8389 26.2591 70.17 26.1219C70.5011 25.9848 70.7842 25.7525 70.9833 25.4545C71.1824 25.1565 71.2887 24.8061 71.2887 24.4477C71.2881 23.9673 71.097 23.5067 70.7573 23.1669C70.4176 22.8272 69.957 22.6361 69.4765 22.6356Z" fill="#323C6B"/>
<path d="M73.0232 37.8988C74.3122 37.8988 75.357 36.8539 75.357 35.565C75.357 34.2761 74.3122 33.2312 73.0232 33.2312C71.7343 33.2312 70.6895 34.2761 70.6895 35.565C70.6895 36.8539 71.7343 37.8988 73.0232 37.8988Z" fill="white"/>
<path d="M73.0234 38.4198C72.4587 38.4198 71.9066 38.2524 71.437 37.9386C70.9674 37.6249 70.6014 37.1789 70.3853 36.6571C70.1692 36.1354 70.1127 35.5612 70.2228 35.0074C70.333 34.4535 70.605 33.9447 71.0043 33.5453C71.4036 33.146 71.9124 32.874 72.4663 32.7639C73.0202 32.6537 73.5944 32.7102 74.1161 32.9263C74.6379 33.1425 75.0838 33.5085 75.3976 33.978C75.7114 34.4476 75.8788 34.9997 75.8788 35.5644C75.878 36.3215 75.5769 37.0473 75.0416 37.5826C74.5063 38.1179 73.7805 38.419 73.0234 38.4198ZM73.0234 33.7523C72.665 33.7523 72.3146 33.8585 72.0166 34.0577C71.7186 34.2568 71.4863 34.5398 71.3492 34.8709C71.212 35.2021 71.1761 35.5664 71.2461 35.918C71.316 36.2695 71.4886 36.5924 71.742 36.8458C71.9954 37.0992 72.3183 37.2718 72.6699 37.3418C73.0214 37.4117 73.3858 37.3758 73.7169 37.2386C74.048 37.1015 74.331 36.8692 74.5302 36.5712C74.7293 36.2732 74.8356 35.9228 74.8356 35.5644C74.835 35.084 74.6439 34.6234 74.3042 34.2836C73.9645 33.9439 73.5038 33.7528 73.0234 33.7523Z" fill="#323C6B"/>
<path d="M71.8104 54.1263C73.0993 54.1263 74.1441 53.0815 74.1441 51.7925C74.1441 50.5036 73.0993 49.4587 71.8104 49.4587C70.5214 49.4587 69.4766 50.5036 69.4766 51.7925C69.4766 53.0815 70.5214 54.1263 71.8104 54.1263Z" fill="white"/>
<path d="M71.8086 54.6481C71.2438 54.6481 70.6918 54.4807 70.2223 54.167C69.7527 53.8533 69.3867 53.4074 69.1706 52.8857C68.9544 52.364 68.8978 51.7899 69.0079 51.236C69.118 50.6821 69.3899 50.1733 69.7891 49.774C70.1883 49.3746 70.697 49.1025 71.2509 48.9923C71.8047 48.882 72.3788 48.9384 72.9006 49.1543C73.4223 49.3703 73.8684 49.7361 74.1823 50.2055C74.4961 50.675 74.6638 51.2269 74.664 51.7916C74.6634 52.5489 74.3625 53.275 73.8271 53.8105C73.2918 54.346 72.5658 54.6473 71.8086 54.6481ZM71.8086 49.9805C71.4501 49.9805 71.0997 50.0868 70.8017 50.286C70.5036 50.4852 70.2714 50.7683 70.1342 51.0994C69.9971 51.4306 69.9613 51.7951 70.0313 52.1466C70.1013 52.4982 70.274 52.8211 70.5275 53.0744C70.7811 53.3278 71.1041 53.5004 71.4557 53.5702C71.8073 53.64 72.1717 53.6039 72.5028 53.4666C72.8339 53.3293 73.1168 53.0969 73.3158 52.7987C73.5148 52.5006 73.6209 52.1501 73.6207 51.7916C73.6196 51.3116 73.4283 50.8515 73.0886 50.5122C72.7489 50.1729 72.2886 49.9821 71.8086 49.9816V49.9805Z" fill="#323C6B"/>
<path d="M69.1613 65.1975C67.3259 65.2491 65.5445 64.5731 64.2053 63.317C62.8661 62.0608 62.0776 60.3263 62.0117 58.4914V18.5967C62.4697 15.9885 64.5688 14.5603 67.7153 14.5999C71.9186 14.8837 75.0776 17.4898 76.8961 22.1417C78.7587 22.6406 80.4134 23.7213 81.619 25.2263C82.8245 26.7314 83.5179 28.5821 83.598 30.5088C83.6018 30.8028 83.5847 31.0966 83.5469 31.3882C84.6293 32.2112 85.509 33.2709 86.1186 34.4863C86.7281 35.7016 87.0515 37.0404 87.0638 38.4001C87.0567 39.5691 86.8143 40.7247 86.3509 41.798C85.8876 42.8713 85.2128 43.8403 84.3669 44.6472C84.993 45.8474 85.3181 47.1817 85.3142 48.5354C85.2688 50.249 84.7368 51.9143 83.7802 53.3368C82.8236 54.7593 81.4821 55.8802 79.9122 56.5686C79.306 61.4303 74.6489 65.1975 69.1613 65.1975ZM67.5963 15.6422C66.0815 15.6422 63.5203 16.0501 63.0477 18.6895L63.055 58.4914C63.1151 60.0389 63.782 61.5007 64.9114 62.5604C66.0408 63.6201 67.542 64.1927 69.0903 64.1542C74.2295 64.1542 78.509 60.6457 78.9064 56.167C78.9147 56.0733 78.9482 55.9836 79.0033 55.9074C79.0584 55.8312 79.1331 55.7712 79.2194 55.734C80.6709 55.1561 81.9223 54.1672 82.8199 52.8885C83.7176 51.6098 84.2226 50.0969 84.273 48.5354C84.2761 47.225 83.9285 45.9376 83.2663 44.8068C83.2066 44.7031 83.1844 44.582 83.2034 44.4638C83.2224 44.3457 83.2814 44.2376 83.3706 44.1579C84.1955 43.4408 84.8588 42.5567 85.3165 41.5641C85.7743 40.5715 86.016 39.493 86.0257 38.4001C86.0103 37.1477 85.6979 35.9169 85.1143 34.8088C84.5306 33.7007 83.6924 32.7469 82.6685 32.0257C82.5857 31.9646 82.5228 31.8804 82.4877 31.7837C82.4526 31.687 82.4469 31.5821 82.4713 31.4821C82.5365 31.162 82.5645 30.8353 82.5548 30.5088C82.4686 28.765 81.8173 27.0967 80.6994 25.7557C79.5814 24.4147 78.0575 23.474 76.3577 23.0755C76.2785 23.0533 76.2056 23.0128 76.1451 22.9571C76.0845 22.9014 76.038 22.8322 76.0093 22.7552C74.34 18.2994 71.5368 15.9061 67.6746 15.6442L67.5963 15.6422Z" fill="#323C6B"/>
<path d="M53.4808 65.1972C47.916 65.1972 43.2567 61.43 42.6516 56.5652C41.0817 55.8768 39.7401 54.7559 38.7836 53.3334C37.827 51.9109 37.2949 50.2456 37.2496 48.532C37.2457 47.1783 37.5707 45.844 38.1969 44.6438C37.3509 43.8369 36.6762 42.8679 36.2128 41.7946C35.7495 40.7213 35.5071 39.5657 35.5 38.3967C35.5123 37.037 35.8356 35.6983 36.4452 34.4829C37.0548 33.2675 37.9345 32.2078 39.0169 31.3848C38.9789 31.0943 38.9614 30.8015 38.9647 30.5085C39.0456 28.5816 39.7397 26.731 40.946 25.2263C42.1523 23.7216 43.8077 22.6415 45.6708 22.1435C47.4861 17.4916 50.6452 14.8855 54.8182 14.6028C57.9793 14.6028 60.0941 15.9935 60.5437 18.5067L60.551 58.4911C60.4905 60.3138 59.7147 62.0394 58.3915 63.2945C57.0683 64.5495 55.3041 65.2331 53.4808 65.1972ZM54.9413 15.6419H54.8548C51.0228 15.9027 48.2185 18.2949 46.5503 22.7518C46.5216 22.8288 46.4751 22.898 46.4145 22.9537C46.354 23.0094 46.2811 23.0499 46.2019 23.0721C44.5022 23.4713 42.9786 24.4128 41.8612 25.7543C40.7438 27.0959 40.0933 28.7646 40.008 30.5085C39.9991 30.8359 40.0281 31.1632 40.0946 31.4839C40.119 31.5839 40.1133 31.6888 40.0782 31.7855C40.0431 31.8823 39.9802 31.9664 39.8974 32.0275C38.8743 32.7486 38.0367 33.702 37.4535 34.8096C36.8702 35.9171 36.5579 37.1471 36.5422 38.3987C36.552 39.4917 36.7937 40.5702 37.2514 41.5628C37.7091 42.5554 38.3724 43.4395 39.1974 44.1566C39.2865 44.2363 39.3456 44.3444 39.3646 44.4625C39.3836 44.5807 39.3614 44.7017 39.3017 44.8055C38.6394 45.9363 38.2918 47.2237 38.2949 48.5341C38.3453 50.0956 38.8503 51.6085 39.748 52.8872C40.6457 54.1659 41.897 55.1548 43.3485 55.7327C43.4349 55.7699 43.5096 55.8298 43.5646 55.9061C43.6197 55.9823 43.6532 56.072 43.6615 56.1656C44.0579 60.6444 48.3385 64.1529 53.4057 64.1529C54.9638 64.2044 56.4792 63.6383 57.622 62.5779C58.7648 61.5176 59.4426 60.0487 59.5077 58.4911V18.5964C59.0445 16.0508 56.4896 15.6419 54.9455 15.6419H54.9413Z" fill="#323C6B"/>
</svg>
