<svg width="120" height="120" viewBox="0 0 120 120" fill="none" xmlns="http://www.w3.org/2000/svg">
<g clip-path="url(#clip0)">
<circle cx="59.616" cy="59.616" r="58.616" fill="#53599A" stroke="#323433" stroke-width="2"/>
<mask id="path-2-outside-1" maskUnits="userSpaceOnUse" x="5.31445" y="3.45203" width="110" height="110" fill="black">
<rect fill="white" x="5.31445" y="3.45203" width="110" height="110"/>
<path d="M60.5472 7.45203L58.8927 12.5753H53.5301L57.8659 15.7426L56.2114 20.8827L60.5467 17.715L64.8816 20.8823L63.228 15.7431L67.5462 12.5753H62.2003L60.5472 7.45203ZM38.4385 13.4155L36.7849 18.5552H31.4223L35.7571 21.7225L34.1036 26.8462L38.4218 23.6785L42.7575 26.8458L41.1031 21.7229L45.4384 18.5552H40.0929L38.4385 13.4155ZM82.6554 13.4155L81.001 18.5552H75.6384L79.9742 21.7225L78.3197 26.8462L82.655 23.6785L86.9903 26.8458L85.3359 21.7229L89.6712 18.5552H84.3086L82.6554 13.4155ZM22.2387 29.7229L20.5852 34.8462H15.2383L19.5574 38.0135L17.903 43.1372L22.2383 39.9695L26.5736 43.1368L24.9191 38.0139L29.2544 34.8462H23.8918L22.2387 29.7229ZM98.8394 29.7229L97.185 34.8462H91.839L96.1581 37.9976L94.5037 43.1368L98.839 39.969L103.174 43.1363L101.52 38.0135L105.855 34.8457H100.493L98.8394 29.7229ZM16.3144 51.9773L14.66 57.1007H9.31445L13.6335 60.2679L11.9791 65.3917L16.3306 62.2235L20.6497 65.3917L18.9952 60.2684L23.3305 57.1007H17.9679L16.3148 51.9773H16.3144ZM104.764 51.9773L103.11 57.1007H97.7634L102.082 60.2679L100.428 65.3917L104.763 62.2235L109.099 65.3917L107.444 60.2843L111.779 57.1002H106.417L104.764 51.9773ZM22.2387 74.2314L20.5852 79.3547H15.2383L19.5574 82.5229L17.903 87.6625L22.2383 84.4944L26.5736 87.6625L24.9191 82.5229L29.2544 79.3547H23.8918L22.2387 74.2314ZM98.8394 74.2314L97.185 79.3547H91.839L96.1581 82.5229L94.5037 87.6625L98.839 84.4944L103.174 87.6625L101.52 82.5229L105.855 79.3547H100.493L98.8394 74.2314ZM38.4385 90.5224L36.784 95.662H31.4214L35.7567 98.8293L34.1032 103.953L38.438 100.785L42.7571 103.953L41.1026 98.8298L45.4379 95.662H40.0929L38.4385 90.5224ZM82.655 90.5224L81.0006 95.662H75.638L79.9737 98.8139L78.3193 103.953L82.6546 100.785L86.9899 103.953L85.3354 98.8139L89.6707 95.662H84.3081L82.655 90.5224ZM60.5463 96.4859L58.8927 101.626H53.5301L57.8654 104.777L56.211 109.917L60.5463 106.749L64.8811 109.917L63.2276 104.777L67.5458 101.626H62.1998L60.5467 96.4859H60.5463Z"/>
</mask>
<path d="M60.5472 7.45203L58.8927 12.5753H53.5301L57.8659 15.7426L56.2114 20.8827L60.5467 17.715L64.8816 20.8823L63.228 15.7431L67.5462 12.5753H62.2003L60.5472 7.45203ZM38.4385 13.4155L36.7849 18.5552H31.4223L35.7571 21.7225L34.1036 26.8462L38.4218 23.6785L42.7575 26.8458L41.1031 21.7229L45.4384 18.5552H40.0929L38.4385 13.4155ZM82.6554 13.4155L81.001 18.5552H75.6384L79.9742 21.7225L78.3197 26.8462L82.655 23.6785L86.9903 26.8458L85.3359 21.7229L89.6712 18.5552H84.3086L82.6554 13.4155ZM22.2387 29.7229L20.5852 34.8462H15.2383L19.5574 38.0135L17.903 43.1372L22.2383 39.9695L26.5736 43.1368L24.9191 38.0139L29.2544 34.8462H23.8918L22.2387 29.7229ZM98.8394 29.7229L97.185 34.8462H91.839L96.1581 37.9976L94.5037 43.1368L98.839 39.969L103.174 43.1363L101.52 38.0135L105.855 34.8457H100.493L98.8394 29.7229ZM16.3144 51.9773L14.66 57.1007H9.31445L13.6335 60.2679L11.9791 65.3917L16.3306 62.2235L20.6497 65.3917L18.9952 60.2684L23.3305 57.1007H17.9679L16.3148 51.9773H16.3144ZM104.764 51.9773L103.11 57.1007H97.7634L102.082 60.2679L100.428 65.3917L104.763 62.2235L109.099 65.3917L107.444 60.2843L111.779 57.1002H106.417L104.764 51.9773ZM22.2387 74.2314L20.5852 79.3547H15.2383L19.5574 82.5229L17.903 87.6625L22.2383 84.4944L26.5736 87.6625L24.9191 82.5229L29.2544 79.3547H23.8918L22.2387 74.2314ZM98.8394 74.2314L97.185 79.3547H91.839L96.1581 82.5229L94.5037 87.6625L98.839 84.4944L103.174 87.6625L101.52 82.5229L105.855 79.3547H100.493L98.8394 74.2314ZM38.4385 90.5224L36.784 95.662H31.4214L35.7567 98.8293L34.1032 103.953L38.438 100.785L42.7571 103.953L41.1026 98.8298L45.4379 95.662H40.0929L38.4385 90.5224ZM82.655 90.5224L81.0006 95.662H75.638L79.9737 98.8139L78.3193 103.953L82.6546 100.785L86.9899 103.953L85.3354 98.8139L89.6707 95.662H84.3081L82.655 90.5224ZM60.5463 96.4859L58.8927 101.626H53.5301L57.8654 104.777L56.211 109.917L60.5463 106.749L64.8811 109.917L63.2276 104.777L67.5458 101.626H62.1998L60.5467 96.4859H60.5463Z" fill="white"/>
<path d="M60.5472 7.45203L58.8927 12.5753H53.5301L57.8659 15.7426L56.2114 20.8827L60.5467 17.715L64.8816 20.8823L63.228 15.7431L67.5462 12.5753H62.2003L60.5472 7.45203ZM38.4385 13.4155L36.7849 18.5552H31.4223L35.7571 21.7225L34.1036 26.8462L38.4218 23.6785L42.7575 26.8458L41.1031 21.7229L45.4384 18.5552H40.0929L38.4385 13.4155ZM82.6554 13.4155L81.001 18.5552H75.6384L79.9742 21.7225L78.3197 26.8462L82.655 23.6785L86.9903 26.8458L85.3359 21.7229L89.6712 18.5552H84.3086L82.6554 13.4155ZM22.2387 29.7229L20.5852 34.8462H15.2383L19.5574 38.0135L17.903 43.1372L22.2383 39.9695L26.5736 43.1368L24.9191 38.0139L29.2544 34.8462H23.8918L22.2387 29.7229ZM98.8394 29.7229L97.185 34.8462H91.839L96.1581 37.9976L94.5037 43.1368L98.839 39.969L103.174 43.1363L101.52 38.0135L105.855 34.8457H100.493L98.8394 29.7229ZM16.3144 51.9773L14.66 57.1007H9.31445L13.6335 60.2679L11.9791 65.3917L16.3306 62.2235L20.6497 65.3917L18.9952 60.2684L23.3305 57.1007H17.9679L16.3148 51.9773H16.3144ZM104.764 51.9773L103.11 57.1007H97.7634L102.082 60.2679L100.428 65.3917L104.763 62.2235L109.099 65.3917L107.444 60.2843L111.779 57.1002H106.417L104.764 51.9773ZM22.2387 74.2314L20.5852 79.3547H15.2383L19.5574 82.5229L17.903 87.6625L22.2383 84.4944L26.5736 87.6625L24.9191 82.5229L29.2544 79.3547H23.8918L22.2387 74.2314ZM98.8394 74.2314L97.185 79.3547H91.839L96.1581 82.5229L94.5037 87.6625L98.839 84.4944L103.174 87.6625L101.52 82.5229L105.855 79.3547H100.493L98.8394 74.2314ZM38.4385 90.5224L36.784 95.662H31.4214L35.7567 98.8293L34.1032 103.953L38.438 100.785L42.7571 103.953L41.1026 98.8298L45.4379 95.662H40.0929L38.4385 90.5224ZM82.655 90.5224L81.0006 95.662H75.638L79.9737 98.8139L78.3193 103.953L82.6546 100.785L86.9899 103.953L85.3354 98.8139L89.6707 95.662H84.3081L82.655 90.5224ZM60.5463 96.4859L58.8927 101.626H53.5301L57.8654 104.777L56.211 109.917L60.5463 106.749L64.8811 109.917L63.2276 104.777L67.5458 101.626H62.1998L60.5467 96.4859H60.5463Z" stroke="#323433" stroke-width="2" mask="url(#path-2-outside-1)"/>
<path d="M33.6362 70.267L31.8941 67.7119C31.778 67.7119 31.6618 67.7119 31.5457 67.7119H29.5713V70.267H27.9453V61.5564H31.5457C32.3587 61.5564 32.9394 61.6725 33.5201 61.9048C34.1008 62.1371 34.5654 62.4855 34.7977 62.9501C35.1461 63.4147 35.2623 63.9954 35.2623 64.5761C35.2623 65.2729 35.1461 65.8536 34.7977 66.3182C34.4492 66.7828 33.9847 67.1312 33.404 67.3635L35.3784 70.267H33.6362ZM33.0555 63.4147C32.7071 63.0662 32.1264 62.9501 31.4296 62.9501H29.5713V66.4343H31.4296C32.1264 66.4343 32.7071 66.3182 33.0555 65.9698C33.404 65.6213 33.6362 65.2729 33.6362 64.6922C33.6362 64.1115 33.404 63.6469 33.0555 63.4147Z" fill="white"/>
<path d="M43.159 67.4778H37.9326C38.0488 67.9424 38.281 68.4069 38.6295 68.6392C38.9779 68.8715 39.4424 69.1038 40.0232 69.1038C40.72 69.1038 41.4169 68.8715 41.8814 68.4069L42.6944 69.3361C42.346 69.6845 41.9976 69.9168 41.533 70.1491C41.0684 70.3813 40.6039 70.3813 40.0232 70.3813C39.3263 70.3813 38.6295 70.2652 38.0488 69.9168C37.4681 69.5683 37.0035 69.2199 36.7712 68.6392C36.4228 68.1746 36.3066 67.4778 36.3066 66.8971C36.3066 66.2002 36.4228 65.6195 36.7712 65.155C37.1196 64.6904 37.4681 64.2258 38.0488 63.8774C38.6295 63.529 39.2102 63.4128 39.7909 63.4128C40.4877 63.4128 41.0684 63.529 41.533 63.8774C41.9976 64.1097 42.4621 64.5743 42.6944 65.0388C42.9267 65.5034 43.159 66.2002 43.159 66.8971C43.159 67.1294 43.159 67.2455 43.159 67.4778ZM38.5133 65.2711C38.1649 65.6195 37.9326 65.968 37.9326 66.4325H41.7653C41.6491 65.968 41.533 65.5034 41.1846 65.2711C40.8361 64.9227 40.3716 64.8065 39.907 64.8065C39.3263 64.8065 38.8617 64.9227 38.5133 65.2711Z" fill="white"/>
<path d="M51.2878 63.6471V69.3381C51.2878 71.6609 50.1263 72.8223 47.6874 72.8223C46.9905 72.8223 46.4098 72.7062 45.8291 72.59C45.2484 72.4739 44.7838 72.2416 44.4354 71.8932L45.1323 70.7318C45.4807 70.9641 45.8291 71.1964 46.2937 71.3125C46.7583 71.4286 47.2228 71.5448 47.6874 71.5448C48.3842 71.5448 48.9649 71.4286 49.3133 71.0802C49.6618 70.7318 49.7779 70.2672 49.7779 69.5704V69.1058C49.5457 69.4542 49.1972 69.5704 48.8488 69.8026C48.5004 69.9188 48.0358 70.0349 47.5712 70.0349C46.9905 70.0349 46.4098 69.9188 45.8291 69.5704C45.3645 69.3381 44.9 68.8735 44.6677 68.409C44.3193 67.9444 44.2031 67.3637 44.2031 66.6668C44.2031 66.0861 44.3193 65.5054 44.6677 65.0408C45.0161 64.5763 45.3645 64.2279 45.8291 63.8794C46.2937 63.6471 46.8744 63.531 47.5712 63.531C48.0358 63.531 48.5004 63.6471 48.8488 63.7633C49.1972 63.8794 49.5456 64.1117 49.8941 64.4601V63.531H51.2878V63.6471ZM49.1972 68.1767C49.5457 67.8282 49.7779 67.3637 49.7779 66.783C49.7779 66.2023 49.5457 65.7377 49.1972 65.3893C48.8488 65.0408 48.3842 64.8086 47.6874 64.8086C47.1067 64.8086 46.6421 65.0408 46.1775 65.3893C45.8291 65.7377 45.5968 66.2023 45.5968 66.783C45.5968 67.3637 45.8291 67.8282 46.1775 68.1767C46.526 68.5251 46.9905 68.7574 47.6874 68.7574C48.3842 68.6412 48.8488 68.5251 49.1972 68.1767Z" fill="white"/>
<path d="M59.8848 63.6465V70.2665H58.375V69.4536C58.1427 69.802 57.7942 70.0343 57.4458 70.1504C57.0974 70.2665 56.6328 70.3827 56.2844 70.3827C55.3553 70.3827 54.6584 70.1504 54.1939 69.6858C53.7293 69.2213 53.3809 68.4083 53.3809 67.4792V63.6465H54.8907V67.2469C54.8907 67.8276 55.0068 68.2921 55.2391 68.6406C55.4714 68.989 55.936 69.1051 56.4005 69.1051C56.9813 69.1051 57.4458 68.989 57.6781 68.6406C58.0265 68.2921 58.1427 67.8276 58.1427 67.1307V63.7626L59.8848 63.6465Z" fill="white"/>
<path d="M61.8574 60.9756H63.3673V70.2669H61.8574V60.9756Z" fill="white"/>
<path d="M70.3377 64.2294C70.8023 64.694 71.1507 65.3909 71.1507 66.32V70.2688H69.6408V69.4558C69.4086 69.8042 69.1763 69.9204 68.8279 70.1527C68.4794 70.2688 68.0149 70.3849 67.5503 70.3849C67.0857 70.3849 66.6212 70.2688 66.2727 70.1527C65.9243 70.0365 65.5759 69.6881 65.4598 69.4558C65.2275 69.1074 65.1113 68.759 65.1113 68.4105C65.1113 67.8298 65.3436 67.3653 65.8082 67.0168C66.2727 66.6684 66.9696 66.4361 67.8987 66.4361H69.6408V66.32C69.6408 65.8554 69.5247 65.507 69.1763 65.2747C68.944 65.0424 68.4794 64.9263 67.8987 64.9263C67.5503 64.9263 67.2019 65.0424 66.7373 65.1586C66.3889 65.2747 66.0405 65.3909 65.8082 65.6231L65.2275 64.4617C65.5759 64.2294 66.0405 63.9972 66.505 63.881C66.9696 63.7649 67.5503 63.6487 68.0149 63.6487C69.0601 63.5326 69.8731 63.7649 70.3377 64.2294ZM68.944 68.9913C69.2924 68.759 69.4086 68.5267 69.6408 68.1783V67.3653H68.0149C67.0857 67.3653 66.6212 67.7137 66.6212 68.2944C66.6212 68.5267 66.7373 68.759 66.9696 68.9913C67.2019 69.1074 67.5503 69.2235 67.8987 69.2235C68.2471 69.2235 68.5956 69.2235 68.944 68.9913Z" fill="white"/>
<path d="M77.1885 69.9165C76.9562 70.0326 76.8401 70.1488 76.4916 70.2649C76.2594 70.3811 75.9109 70.3811 75.6786 70.3811C74.9818 70.3811 74.4011 70.1488 73.9365 69.8003C73.5881 69.4519 73.3558 68.8712 73.3558 68.1744V64.9224H72.3105V63.6448H73.3558V62.135H74.8656V63.6448H76.6078V64.9224H74.8656V68.0582C74.8656 68.4066 74.9818 68.6389 75.0979 68.7551C75.2141 68.8712 75.4464 68.9874 75.7948 68.9874C76.1432 68.9874 76.4916 68.8712 76.7239 68.7551L77.1885 69.9165Z" fill="white"/>
<path d="M84.5066 67.4778H79.2803C79.3964 67.9424 79.6287 68.4069 79.9771 68.6392C80.3255 68.8715 80.7901 69.1038 81.3708 69.1038C82.0676 69.1038 82.7645 68.8715 83.2291 68.4069L84.0421 69.3361C83.6936 69.6845 83.3452 69.9168 82.8807 70.1491C82.4161 70.3813 81.9515 70.3813 81.3708 70.3813C80.6739 70.3813 79.9771 70.2652 79.3964 69.9168C78.8157 69.5683 78.3511 69.2199 78.1189 68.6392C77.7704 68.1746 77.6543 67.4778 77.6543 66.8971C77.6543 66.2002 77.7704 65.6195 78.1189 65.155C78.4673 64.6904 78.8157 64.2258 79.3964 63.8774C79.9771 63.529 80.5578 63.4128 81.1385 63.4128C81.8354 63.4128 82.4161 63.529 82.8807 63.8774C83.3452 64.1097 83.8098 64.5743 84.0421 65.0388C84.2743 65.5034 84.5066 66.2002 84.5066 66.8971C84.5066 67.1294 84.5066 67.2455 84.5066 67.4778ZM79.861 65.2711C79.5125 65.6195 79.2803 65.968 79.2803 66.4325H83.1129C82.9968 65.968 82.8806 65.5034 82.5322 65.2711C82.1838 64.9227 81.7192 64.8065 81.2546 64.8065C80.5578 64.8065 80.2094 64.9227 79.861 65.2711Z" fill="white"/>
<path d="M92.5202 60.9756V70.2669H91.0104V69.4539C90.7781 69.8023 90.4296 70.0346 90.0812 70.1508C89.7328 70.2669 89.2682 70.383 88.8036 70.383C88.1068 70.383 87.5261 70.2669 87.0615 69.9185C86.597 69.6862 86.1324 69.2216 85.9001 68.7571C85.5517 68.2925 85.4355 67.5957 85.4355 67.0149C85.4355 66.3181 85.5517 65.7374 85.9001 65.2728C86.2485 64.8083 86.597 64.3437 87.0615 64.1114C87.5261 63.8791 88.1068 63.6468 88.8036 63.6468C89.2682 63.6468 89.6166 63.763 89.9651 63.8791C90.3135 63.9953 90.6619 64.2275 90.8942 64.576V61.0917L92.5202 60.9756ZM89.9651 68.7571C90.3135 68.6409 90.5458 68.2925 90.6619 68.0602C90.8942 67.7118 90.8942 67.3634 90.8942 67.0149C90.8942 66.5504 90.7781 66.202 90.6619 65.9697C90.4296 65.6212 90.1973 65.389 89.9651 65.2728C89.6166 65.1567 89.3844 65.0405 88.9198 65.0405C88.5714 65.0405 88.2229 65.1567 87.8745 65.2728C87.5261 65.389 87.2938 65.7374 87.1777 65.9697C86.9454 66.3181 86.9454 66.6665 86.9454 67.0149C86.9454 67.4795 87.0615 67.8279 87.1777 68.0602C87.41 68.4086 87.6422 68.6409 87.8745 68.7571C88.2229 68.8732 88.4552 68.9894 88.9198 68.9894C89.3844 69.1055 89.7328 68.9894 89.9651 68.7571Z" fill="white"/>
<path d="M58.7236 52.1449V53.5386H52.1035V44.7118H58.4913V46.1055H53.7295V48.4283H57.9106V49.822H53.7295V52.261H58.7236V52.1449Z" fill="white"/>
<path d="M61.5101 52.6094C60.8133 51.9126 60.4648 50.9834 60.4648 49.7059V44.7118H62.0908V49.5897C62.0908 51.3319 62.7877 52.1449 64.2975 52.1449C65.8074 52.1449 66.5042 51.3319 66.5042 49.5897V44.7118H68.1302V49.7059C68.1302 50.9834 67.7818 51.9126 67.0849 52.6094C66.3881 53.3063 65.4589 53.6547 64.2975 53.6547C63.1361 53.6547 62.207 53.3063 61.5101 52.6094Z" fill="white"/>
</g>
<defs>
<clipPath id="clip0">
<rect width="120" height="119.232" fill="white"/>
</clipPath>
</defs>
</svg>
