<svg width="120" height="120" viewBox="0 0 120 120" fill="none" xmlns="http://www.w3.org/2000/svg">
<path d="M74 52.0001C76.2059 52.0062 77.994 53.794 78.0001 56.0002C78.0001 53.79 76.2102 52.0001 74 52.0001Z" fill="#53599A"/>
<path d="M78.0001 56V57.9999H114C116.21 57.9999 118 56.21 118 53.9998V6.00008C118 3.79016 116.21 2 114 2H42.0001C39.7902 2 38 3.78992 38 6.00008V52.0002H74C76.2102 52.0002 78.0001 53.7901 78.0001 56Z" fill="white"/>
<path d="M36 100H48V98.0002H78V56.0002C77.9939 53.7943 76.2061 52.0062 73.9999 52.0001H10.0001C7.79414 52.0062 6.00609 53.794 6 56.0002V98.0002H36V100Z" fill="white"/>
<path d="M10.0002 106H74.0002C78.4123 106.006 81.9943 102.432 82.0002 98.02C82.0002 98.0139 82.0002 98.006 82.0002 98.0001H48.0001V100H36.0001V98.0001H2C2 102.418 5.58219 106 10.0002 106Z" fill="#53599A"/>
<path d="M94.0001 78H110C112.21 78 114 79.7899 114 82.0001V114C114 116.21 112.21 118 110 118H94.0001C91.7902 118 90 116.21 90 114V82.0001C90 79.7899 91.7899 78 94.0001 78Z" fill="white"/>
<path d="M36 50.4999H36.5V49.9999V6C36.5 2.96208 38.9621 0.5 42 0.5H114C117.038 0.5 119.5 2.96208 119.5 6V54C119.5 57.0379 117.038 59.5 114 59.5H88.6521H87.9893L88.1713 60.1373L91.0272 70.1376L91.1308 70.5003H91.508H102C102.828 70.5003 103.5 71.1725 103.5 72.0002C103.5 72.828 102.828 73.5002 102 73.5002H80.0004H79.5004V74.0002V96.0002V96.5002H80.0004H82.0003C82.8281 96.5002 83.5002 97.1724 83.5002 98.0002V98.0002V98.0003V98.0004V98.0004V98.0005V98.0006V98.0006V98.0007V98.0008V98.0009V98.0009V98.001V98.0011V98.0011V98.0012V98.0013V98.0014V98.0014V98.0015V98.0016V98.0016V98.0017V98.0018V98.0019V98.0019V98.002V98.0021V98.0022V98.0022V98.0023V98.0024V98.0024V98.0025V98.0026V98.0027V98.0027V98.0028V98.0029V98.003V98.003V98.0031V98.0032V98.0033V98.0033V98.0034V98.0035V98.0036V98.0037V98.0037V98.0038V98.0039V98.004V98.004V98.0041V98.0042V98.0043V98.0043V98.0044V98.0045V98.0046V98.0047V98.0047V98.0048V98.0049V98.005V98.005V98.0051V98.0052V98.0053V98.0054V98.0054V98.0055V98.0056V98.0057V98.0058V98.0058V98.0059V98.006V98.0061V98.0061V98.0062V98.0063V98.0064V98.0065V98.0065V98.0066V98.0067V98.0068V98.0069V98.007V98.007V98.0071V98.0072V98.0073V98.0073V98.0074V98.0075V98.0076V98.0077V98.0078V98.0078V98.0079V98.008V98.0081V98.0082V98.0082V98.0083V98.0084V98.0085V98.0086V98.0086V98.0087V98.0088V98.0089V98.009V98.0091V98.0091V98.0092V98.0093V98.0094V98.0095V98.0095V98.0096V98.0097V98.0098V98.0099V98.0099V98.01V98.0101V98.0102V98.0103V98.0104V98.0104V98.0105V98.0106V98.0107V98.0108V98.0108V98.0109V98.011V98.0111V98.0112V98.0113V98.0113V98.0114V98.0115V98.0116V98.0117V98.0117V98.0118V98.0119V98.012V98.0121V98.0122V98.0122V98.0123V98.0124V98.0125V98.0126V98.0126V98.0127V98.0128V98.0129V98.013V98.013V98.0131V98.0132V98.0133V98.0134V98.0135V98.0135V98.0136V98.0137V98.0138V98.0139V98.0139V98.014V98.0141V98.0142V98.0143V98.0143V98.0144V98.0145V98.0146V98.0147V98.0147V98.0148V98.0149V98.015V98.0151V98.0151V98.0152V98.0153V98.0154V98.0155V98.0155V98.0156V98.0157V98.0158V98.0159V98.0159V98.016V98.0161V98.0162V98.0162V98.0163V98.0164V98.0165V98.0166V98.0166V98.0167V98.0168V98.0169V98.0169V98.017V98.0171V98.0172V98.0173V98.0173V98.0174V98.0175V98.0176V98.0176V98.0177V98.0178V98.0179V98.0179V98.018V98.0181V98.0182V98.0182V98.0183V98.0184V98.0185V98.0185V98.0186V98.0187V98.0188V98.0188V98.0189V98.019V98.0191V98.0191V98.0192V98.0193V98.0194V98.0194V98.0195C83.4944 103.261 79.2423 107.506 74.0007 107.5H74.0002H10.0006C4.75644 107.494 0.505943 103.244 0.5 97.9997C0.500142 97.172 1.17225 96.5 1.99992 96.5H4.00008H4.50008V96V55.9999C4.50008 52.962 6.96216 50.4999 10.0001 50.4999H36ZM78.6092 102.59L78.6117 102.587C79.2894 101.901 79.8068 101.074 80.1291 100.167L80.3663 99.4998H79.658H49.9999H49.4999V99.9998C49.4999 100.828 48.8278 101.5 48 101.5H36C35.1722 101.5 34.5001 100.828 34.5001 99.9998V99.4998H34.0001H4.34203H3.6341L3.87081 100.167C4.79171 102.763 7.24625 104.496 9.9993 104.5H10.0001H73.9999H74.0005C75.7289 104.498 77.3857 103.811 78.6092 102.59ZM46.0001 98.4999H46.5001V97.9999C46.5001 97.1722 47.1722 96.5 48 96.5H75.9998H76.4998V96V55.9999C76.4998 54.6199 75.38 53.5 73.9999 53.5H9.99984C8.6198 53.5 7.49992 54.6199 7.49992 55.9999V96V96.5H7.99992H36.0002C36.828 96.5 37.5002 97.1722 37.5002 97.9999V98.4999H38.0002H46.0001ZM87.348 70.5001H88.0108L87.8288 69.8628L84.973 59.8627L84.8694 59.5H84.4922H80.0002H79.5002V60V70.0001V70.5001H80.0002H87.348ZM79.4999 55.9999V56.4999H79.9999H114C115.38 56.4999 116.5 55.38 116.5 54V6C116.5 4.61995 115.38 3.50008 114 3.50008H42C40.6199 3.50008 39.5001 4.61995 39.5001 6V49.9999V50.4999H40.0001H73.9999C77.0378 50.4999 79.4999 52.962 79.4999 55.9999Z" fill="#53599A" stroke="#323433"/>
<path d="M94 76.5001H110C113.038 76.5001 115.5 78.9622 115.5 82.0001V114C115.5 117.038 113.038 119.5 110 119.5H94C90.9621 119.5 88.5 117.038 88.5 114V82.0001C88.5 78.9622 90.9621 76.5001 94 76.5001ZM110 116.5C111.38 116.5 112.5 115.38 112.5 114V82.0001C112.5 80.6201 111.38 79.5002 110 79.5002H94.0002C92.6202 79.5002 91.5003 80.6201 91.5003 82.0001V114C91.5003 115.38 92.6202 116.5 94.0002 116.5H110Z" fill="#53599A" stroke="#323433"/>
</svg>
