<svg width="120" height="120" viewBox="0 0 120 120" fill="none" xmlns="http://www.w3.org/2000/svg">
<path d="M60 6.03125C38.135 6.03125 20.3281 24.0882 20.3281 45.9375V50.1035L15.2969 51.6223V45.9375C15.2969 21.311 35.3868 1 60 1C84.6132 1 104.703 21.311 104.703 45.9375V52.1678L99.6952 53.2884C99.6798 53.1828 99.6719 53.0764 99.6719 52.9688V45.9375C99.6719 24.0882 81.865 6.03125 60 6.03125Z" fill="#53599A" stroke="#323433" stroke-width="2"/>
<path d="M50.4531 109.453C50.4531 104.169 54.7161 99.9062 60 99.9062C65.2839 99.9062 69.5469 104.169 69.5469 109.453C69.5469 114.737 65.2839 119 60 119C54.7161 119 50.4531 114.737 50.4531 109.453Z" fill="white" stroke="#323433" stroke-width="2"/>
<path d="M88.125 111.969H67.0312C65.6403 111.969 64.5156 110.844 64.5156 109.453C64.5156 108.062 65.6403 106.938 67.0312 106.938H88.125C90.617 106.938 92.6406 104.914 92.6406 102.422V95.3906C92.6406 93.9997 93.7653 92.875 95.1562 92.875C96.5472 92.875 97.6719 93.9997 97.6719 95.3906V102.422C97.6719 107.685 93.3885 111.969 88.125 111.969Z" fill="#53599A" stroke="#323433" stroke-width="2"/>
<path d="M102.188 50.4531H109.453C114.717 50.4531 119 54.7365 119 60V81.3281C119 86.5916 114.717 90.875 109.453 90.875H102.188C100.797 90.875 99.6719 89.7503 99.6719 88.3594V52.9688C99.6719 51.5778 100.797 50.4531 102.188 50.4531Z" fill="#53599A" stroke="#323433" stroke-width="2"/>
<path d="M10.5469 50.4531H17.8125C19.2034 50.4531 20.3281 51.5778 20.3281 52.9688V88.3594C20.3281 89.7503 19.2034 90.875 17.8125 90.875H10.5469C5.28338 90.875 1 86.5916 1 81.3281V60C1 54.7365 5.28338 50.4531 10.5469 50.4531Z" fill="#53599A" stroke="#323433" stroke-width="2"/>
<path d="M24.8438 97.9062C19.5803 97.9062 15.2969 93.6229 15.2969 88.3594V52.9688C15.2969 47.7053 19.5803 43.4219 24.8438 43.4219C30.1072 43.4219 34.3906 47.7053 34.3906 52.9688V88.3594C34.3906 93.6229 30.1072 97.9062 24.8438 97.9062Z" fill="white" stroke="#323433" stroke-width="2"/>
<path d="M95.1562 97.9062C89.8928 97.9062 85.6094 93.6229 85.6094 88.3594V52.9688C85.6094 47.7053 89.8928 43.4219 95.1562 43.4219C100.42 43.4219 104.703 47.7053 104.703 52.9688V88.3594C104.703 93.6229 100.42 97.9062 95.1562 97.9062Z" fill="white" stroke="#323433" stroke-width="2"/>
</svg>
