<svg width="122" height="113" viewBox="0 0 122 113" fill="none" xmlns="http://www.w3.org/2000/svg">
<path d="M103.981 39.7258V66.6971L121 60.2289L97.4173 1L1 39.7258" fill="#53599A"/>
<path d="M103.981 39.7258V66.6971L121 60.2289L97.4173 1L1 39.7258" stroke="#323433"/>
<path d="M1 39.7258H103.981V103.476H1V39.7258Z" fill="#53599A" stroke="#323433"/>
<path d="M10.8086 61.0822C16.3567 59.4222 20.6972 55.0817 22.3572 49.5336H82.6257C84.2853 55.082 88.6259 59.4225 94.1743 61.0822V82.1197C88.6259 83.7794 84.2853 88.1199 82.6257 93.6683H23.0683H22.3547C20.6954 88.1208 16.3558 83.7803 10.8086 82.1197V61.0822Z" fill="white" stroke="#323433"/>
<path d="M52.4901 83.8606C59.261 83.8606 64.7498 78.3718 64.7498 71.601C64.7498 64.8301 59.261 59.3413 52.4901 59.3413C45.7193 59.3413 40.2305 64.8301 40.2305 71.601C40.2305 78.3718 45.7193 83.8606 52.4901 83.8606Z" fill="#53599A" stroke="#323433"/>
<path d="M102.281 39.7258L96.4679 24.769L96.2031 24.1095C90.4358 24.621 84.7979 22.1967 81.2021 17.6584L80.545 17.9233L27.9707 39.7258H102.281Z" fill="white" stroke="#323433"/>
<path d="M25.5203 74.0529C26.8745 74.0529 27.9722 72.9551 27.9722 71.601C27.9722 70.2468 26.8745 69.149 25.5203 69.149C24.1661 69.149 23.0684 70.2468 23.0684 71.601C23.0684 72.9551 24.1661 74.0529 25.5203 74.0529Z" fill="#53599A" stroke="#323433"/>
<path d="M79.4636 74.0529C80.8178 74.0529 81.9156 72.9551 81.9156 71.601C81.9156 70.2468 80.8178 69.149 79.4636 69.149C78.1095 69.149 77.0117 70.2468 77.0117 71.601C77.0117 72.9551 78.1095 74.0529 79.4636 74.0529Z" fill="#53599A" stroke="#323433"/>
<path d="M120.103 89.4929C116.094 105.573 99.8027 115.348 83.7456 111.339C67.6651 107.331 57.8903 91.04 61.8988 74.9832C65.9071 58.9032 82.1751 49.1283 98.2555 53.1368C114.313 57.1217 124.111 73.4126 120.103 89.4929Z" fill="#53599A" stroke="#323433"/>
<path d="M95.0742 69.3642L96.2668 64.5727L96.3877 64.087L96.8732 64.2084L100.154 65.0287L100.64 65.1501L100.518 65.6356L99.2698 70.6077C101.205 71.3081 102.922 72.1951 104.118 73.4032C105.427 74.7254 106.095 76.4158 105.778 78.5705L95.0742 69.3642ZM95.0742 69.3642C94.5232 69.2319 93.9631 69.1009 93.4004 68.9773L94.5888 64.1809L94.7089 63.6966L94.2248 63.5756L90.9435 62.7553L90.4575 62.6338L90.337 63.1201L89.119 68.0347C88.6967 67.9379 88.2827 67.8412 87.877 67.7445V67.724L87.497 67.63L82.9502 66.505L82.4645 66.3848L82.3446 66.8706L81.4774 70.3862L81.3559 70.879L81.8505 70.9932L81.9629 70.506L81.8505 70.9932L81.8506 70.9932L81.8509 70.9933L81.8522 70.9936L81.8573 70.9948L81.8776 70.9995L81.9546 71.0173L82.2295 71.0812C82.4237 71.1265 82.6727 71.1848 82.9286 71.2454L82.9133 71.253L84.2343 71.5775C84.8009 71.7167 85.0717 71.9562 85.2098 72.1772C85.348 72.3984 85.3929 72.6645 85.3804 72.9381L83.8451 79.0562L83.7233 79.5416L83.7293 79.5431L81.6983 87.6667C81.6351 87.8096 81.5397 87.9533 81.4131 88.0445C81.299 88.1265 81.1188 88.1977 80.798 88.1154L79.7366 87.8433L79.7528 87.8758C79.7056 87.8639 79.658 87.8518 79.6102 87.8397C79.3111 87.7638 79.011 87.6864 78.7855 87.628L78.5131 87.5571L78.4368 87.5372L78.4168 87.5319L78.4117 87.5306L78.4104 87.5303L78.4101 87.5302L78.41 87.5302L78.2832 88.0138L78.41 87.5302L77.9955 87.4215L77.8247 87.8145L76.184 91.5879L75.949 92.1285L76.5207 92.2722L80.8067 93.3495C81.1565 93.4421 81.4935 93.5281 81.8255 93.6129C82.1095 93.6854 82.3898 93.7569 82.6715 93.8309L81.4308 98.8149L81.3102 99.2996L81.7948 99.4208L85.076 100.241L85.5606 100.362L85.6822 99.8778L86.9185 94.9541C87.4775 95.101 88.0343 95.2465 88.5766 95.3846L87.3604 100.292L87.2404 100.776L87.7244 100.897L91.0057 101.718L91.4913 101.839L91.6122 101.353L92.8583 96.3473C95.5033 96.8107 97.9006 96.937 99.8846 96.3256C102.03 95.6646 103.635 94.1599 104.56 91.4829C105.303 89.3646 105.308 87.6169 104.678 86.1731C104.192 85.0602 103.351 84.18 102.284 83.4665M95.0742 69.3642L102.284 83.4665M102.284 83.4665C103.005 83.1691 103.654 82.7422 104.199 82.1585C105.01 81.2881 105.555 80.1038 105.778 78.5709L102.284 83.4665ZM97.275 88.9225L97.2744 88.9251C97.0633 89.7793 96.5597 90.2892 95.8661 90.5913C95.1463 90.9047 94.2107 90.9962 93.1804 90.9422C91.4427 90.8513 89.6001 90.3608 88.3761 90.0351C88.3296 90.0227 88.2841 90.0106 88.2395 89.9987L89.8049 83.7166C89.9269 83.7446 90.0557 83.7738 90.1903 83.8042C91.4245 84.0834 93.148 84.4732 94.6322 85.1469C95.5688 85.5719 96.3497 86.0858 96.8335 86.7057C97.2988 87.302 97.5049 88.0131 97.275 88.9225ZM98.3061 78.3062C98.1087 79.0905 97.6757 79.5527 97.108 79.8286C96.5163 80.1163 95.7497 80.2134 94.8988 80.1812C93.4743 80.1272 91.9752 79.723 90.9561 79.4482C90.9331 79.442 90.9104 79.4359 90.8879 79.4299L92.2892 73.8248C92.37 73.8431 92.454 73.8619 92.5406 73.8814C93.5675 74.1117 94.982 74.429 96.1985 75.0039C96.9653 75.3664 97.594 75.8066 97.9777 76.3409C98.3453 76.853 98.5108 77.4811 98.3061 78.3062Z" fill="white" stroke="#323433"/>
</svg>
