<svg width="735" height="589" viewBox="0 0 735 589" fill="none" xmlns="http://www.w3.org/2000/svg">
<path d="M139.001 77.5358L148.784 87.2633L158.512 77.4799L148.728 67.7524L139.001 77.5358Z" fill="#52CCA7" stroke="#323433" stroke-width="1.06037" stroke-linecap="round" stroke-linejoin="round"/>
<path d="M403.188 579.611C526.452 579.611 626.376 561.118 626.376 538.305C626.376 515.493 526.452 497 403.188 497C279.925 497 180 515.493 180 538.305C180 561.118 279.925 579.611 403.188 579.611Z" fill="#C3CCF0"/>
<path d="M366.855 51.9078C368.504 57.8856 356.416 62.2476 356.416 62.2476L354.303 88.19L353.118 102.689L344.052 136.463L321.257 105.4L323.78 90.2915L325.652 79.104C302.171 75.1128 316.942 36.9852 320.571 24.7645C331.544 28.7115 351.076 23.8815 356.969 29.0382C364.1 35.2986 354.767 51.3515 354.767 51.3515C354.767 51.3515 361.845 47.6606 365.268 49.7003C365.666 49.9466 366.011 50.2685 366.284 50.6473C366.556 51.0261 366.75 51.4545 366.855 51.9078ZM342.269 47.272C342.465 45.6827 341.743 44.2964 340.664 44.1639C339.585 44.0315 338.542 45.2147 338.355 46.8129C338.168 48.4111 338.881 49.7886 339.96 49.9122C341.038 50.0358 342.081 48.8879 342.269 47.272ZM323.013 44.0138C323.414 42.6187 323.013 41.2677 322.015 40.994C321.016 40.7202 319.965 41.6385 319.554 43.0425C319.144 44.4465 319.599 45.7886 320.553 46.0623C321.507 46.3361 322.612 45.4178 323.013 44.0138Z" fill="#FBFBFB"/>
<path d="M356.416 12.7296C371.285 16.032 377.062 33.0385 365.268 49.7094C361.845 47.6697 354.766 51.3606 354.766 51.3606C354.766 51.3606 364.109 35.3078 356.968 29.0473C351.076 23.8906 331.544 28.7206 320.57 24.7736C318.344 24.0625 316.382 22.7098 314.936 20.8885C307.243 10.5486 320.16 -1.96342 329.2 2.66347C338.239 7.29036 344.016 9.97466 356.416 12.7296Z" fill="#323433"/>
<path d="M340.665 44.1641C341.743 44.2966 342.448 45.6829 342.269 47.2723C342.091 48.8617 341.048 50.0361 339.961 49.9213C338.873 49.8065 338.178 48.4114 338.356 46.822C338.534 45.2326 339.577 44.0405 340.665 44.1641Z" fill="#323433"/>
<path d="M322.014 40.9946C322.968 41.2683 323.414 42.6193 323.013 44.0144C322.612 45.4095 321.515 46.3278 320.552 46.0629C319.59 45.798 319.153 44.4382 319.554 43.0431C319.955 41.648 321.06 40.7297 322.014 40.9946Z" fill="#323433"/>
<path d="M321.257 105.4L323.78 90.2915L325.652 79.104C302.171 75.1128 316.942 36.9852 320.571 24.7645" stroke="#323433" stroke-width="2.61" stroke-linecap="round" stroke-linejoin="round"/>
<path d="M353.117 102.689L354.303 88.1903L356.416 62.2479C356.416 62.2479 368.504 57.8859 366.855 51.9081C366.641 50.9958 366.07 50.2049 365.268 49.7094C361.845 47.6697 354.766 51.3606 354.766 51.3606C354.766 51.3606 364.109 35.3078 356.968 29.0473C351.076 23.8907 331.544 28.7206 320.57 24.7737C318.344 24.0625 316.382 22.7098 314.936 20.8885C307.243 10.5486 320.16 -1.96342 329.2 2.66347C338.239 7.29036 343.998 9.97466 356.398 12.7296C371.267 16.032 377.044 33.0385 365.25 49.7094" stroke="#323433" stroke-width="2.61" stroke-linecap="round" stroke-linejoin="round"/>
<path d="M330.947 42.1951C328.531 48.2966 326.721 50.8661 322.924 52.9765C322.487 53.2261 322.167 53.635 322.032 54.1156C321.99 54.2771 321.969 54.4432 321.97 54.61C321.97 55.0395 322.119 55.456 322.391 55.7901C322.664 56.1242 323.044 56.3559 323.467 56.4467L328.085 57.418" stroke="#323433" stroke-width="2.61" stroke-linecap="round" stroke-linejoin="round"/>
<path d="M342.269 47.2729C342.082 48.8534 341.048 50.0367 339.961 49.9219C338.873 49.8071 338.178 48.412 338.356 46.8226C338.534 45.2332 339.577 44.0588 340.665 44.1736C341.752 44.2884 342.466 45.6835 342.269 47.2729Z" stroke="#323433" stroke-width="2.61" stroke-linecap="round" stroke-linejoin="round"/>
<path d="M323.013 44.0145C322.612 45.4184 321.515 46.3279 320.552 46.063C319.59 45.7981 319.153 44.4383 319.554 43.0431C319.955 41.648 321.06 40.7297 322.014 40.9946C322.968 41.2595 323.414 42.6193 323.013 44.0145Z" stroke="#323433" stroke-width="2.61" stroke-linecap="round" stroke-linejoin="round"/>
<path d="M443.105 402.593L443.106 402.596C443.624 403.836 443.701 405.026 443.432 406.196L443.43 406.204C443.023 408.05 441.714 409.948 439.536 411.845C437.367 413.734 434.413 415.552 430.872 417.251C423.793 420.649 414.506 423.506 404.832 425.511C395.161 427.515 385.153 428.657 376.645 428.648C372.391 428.644 368.533 428.351 365.29 427.744C362.032 427.134 359.472 426.22 357.753 425.023L357.751 425.022C354.691 422.898 350.399 422.05 345.63 421.977C340.836 421.904 335.424 422.613 330.007 423.73C319.814 425.831 309.474 429.404 302.947 432.094C290.967 352.331 284.813 271.787 284.304 209.679C284.048 178.457 285.22 151.922 287.787 132.499C289.071 122.783 290.7 114.885 292.658 109.082C293.637 106.181 294.688 103.834 295.801 102.055C296.918 100.269 298.057 99.1183 299.184 98.5181C304.339 95.7918 311.886 94.5684 320.434 94.324C328.953 94.0805 338.339 94.8111 347.084 95.8991C355.824 96.9865 363.9 98.4278 369.792 99.5977C372.737 100.183 375.135 100.699 376.796 101.069C377.626 101.255 378.272 101.403 378.71 101.505C378.929 101.556 379.095 101.596 379.207 101.622L379.333 101.652L379.36 101.659C379.36 101.659 379.36 101.659 379.36 101.659C379.364 101.66 379.371 101.662 379.379 101.664C379.386 101.666 379.395 101.669 379.406 101.672C379.451 101.686 379.524 101.709 379.623 101.743C379.821 101.812 380.125 101.927 380.523 102.103C381.319 102.455 382.493 103.054 383.952 104.029C386.868 105.976 390.934 109.43 395.401 115.427C404.338 127.423 414.894 149.615 421.021 190.288L421.021 190.289C427.207 231.192 450.531 281.831 472.243 322.168C483.109 342.353 493.588 359.99 501.351 372.581C505.233 378.876 508.436 383.911 510.669 387.372C511.696 388.964 512.518 390.224 513.107 391.12C512.743 391.111 512.331 391.102 511.874 391.092C509.869 391.051 507.008 391.004 503.583 390.984C496.733 390.945 487.618 391.015 478.568 391.453C469.188 391.905 459.804 392.75 453.077 394.299C449.734 395.069 446.93 396.037 445.112 397.294C444.197 397.927 443.456 398.685 443.066 399.602C442.662 400.555 442.682 401.572 443.105 402.593Z" fill="#4F59C1" stroke="#323433" stroke-width="2"/>
<path d="M396.997 234.647C396.907 234.242 396.822 233.851 396.741 233.474C396.866 233.813 396.995 234.166 397.129 234.534C412.125 276.041 458.693 359.36 476.947 391.507C468.117 391.99 459.425 392.824 453.089 394.283C449.748 395.053 446.944 396.022 445.126 397.28C444.278 397.867 443.58 398.56 443.17 399.388C433.794 370.137 419.72 321.125 409.316 282.737C403.691 261.982 399.145 244.356 396.997 234.647Z" fill="#2B349A" stroke="#323433" stroke-width="2"/>
<path d="M296.594 139.043L296.054 138.981L295.708 139.4C294.632 140.703 293.612 141.943 292.64 143.124C285.613 151.665 281.127 157.117 276.761 160.647C271.898 164.578 267.188 166.11 259.083 166.663L256 166.873L258.621 168.509C263.953 171.837 267.146 176.365 269.324 181.284L269.588 181.88H269.657C271.105 185.135 272.159 188.505 273.214 191.879C273.791 193.721 274.367 195.565 275.009 197.392C276.743 202.331 278.923 207.023 282.838 210.575L273.48 219.664L273.473 219.671L271.546 221.578C271.449 221.492 271.342 221.397 271.226 221.294C266.802 217.227 249.312 200.934 238.929 185.984L238.927 185.98C235.878 181.632 233.469 177.459 232.138 173.771C230.797 170.055 230.618 167.023 231.726 164.802L231.769 164.716L231.795 164.624C233.879 157.146 237.598 145.769 244.176 135.13C250.753 124.492 260.143 114.664 273.55 110.15L273.791 110.069L273.964 109.883C282.762 100.412 291.347 98.3313 298.412 99.4604C305.551 100.601 311.31 105.047 314.306 108.911C318.195 113.949 318.265 121.988 315.002 128.6C311.769 135.154 305.38 140.06 296.594 139.043Z" fill="#F9BE3D" stroke="#323433" stroke-width="2"/>
<path d="M240.772 188.61L240.763 188.598L240.753 188.586C240.49 188.251 240.231 187.904 239.976 187.552C242.94 187.481 247.495 187.283 252.447 186.665C258.257 185.94 264.705 184.626 269.785 182.207C270.037 182.779 270.262 183.351 270.461 183.921L270.468 183.941L270.475 183.96C271.437 186.386 272.237 188.878 273.022 191.376C273.095 191.606 273.167 191.836 273.239 192.066C273.948 194.325 274.658 196.588 275.469 198.759C277.129 203.203 279.249 207.378 282.807 210.606L273.573 219.575L270.713 220.879C265.922 216.448 250.887 202.328 240.772 188.61Z" fill="#323433" stroke="#323433" stroke-width="2"/>
<path d="M276.696 201.457C276.696 201.457 288.226 202.517 291.722 205.51C294.652 208.035 292.856 211.153 292.856 211.153C299.062 214.614 292.856 228.02 282.02 231.325C271.184 234.63 264.064 214.427 264.064 214.427C264.064 214.427 265.734 202.174 276.696 201.457Z" fill="#323433"/>
<path d="M330.164 226.949L330.162 226.972L330.162 226.996C329.187 263.689 325.396 297.625 321.847 322.39C320.074 334.771 318.361 344.857 317.092 351.847C316.457 355.341 315.934 358.062 315.569 359.907C315.387 360.83 315.244 361.534 315.147 362.007C315.099 362.243 315.062 362.422 315.037 362.541L315.009 362.675L315.002 362.708L315 362.717L315 362.719C315 362.719 315 362.719 315.978 362.926L315 362.719L314.966 362.877L314.984 363.038C317.774 387.982 315.998 402.753 312.805 420.254C312.292 423.066 311.742 425.949 311.169 428.957C308.195 444.553 304.584 463.485 302.173 493.11L278.985 492.793C278.919 473.38 278.141 450.844 277.101 420.718C276.589 405.892 276.013 389.227 275.428 370.191L275.425 370.079L275.396 369.971C259.856 310.008 267.024 265.656 272.872 229.471C272.954 228.966 273.035 228.463 273.116 227.961L273.116 227.961L273.118 227.951C276.175 207.671 291.61 194.275 305.609 192.523C312.572 191.651 319.136 193.655 323.741 199.062C328.369 204.495 331.153 213.522 330.164 226.949Z" fill="white" stroke="#323433" stroke-width="2"/>
<path d="M278.476 494.817L302.231 495.112C304.326 506.276 305.788 515.048 305.037 525.035L245.572 526.193C245.454 526.049 245.306 525.854 245.147 525.611C244.751 525.009 244.294 524.124 244.046 523C243.563 520.809 243.832 517.501 247.431 513.36C249.178 511.35 251.335 510.11 253.802 509.154C255.491 508.501 257.257 508.002 259.124 507.474C260.038 507.216 260.976 506.951 261.942 506.658C267.637 504.927 273.693 502.347 278.476 494.817Z" fill="#F9BE3D" stroke="#323433" stroke-width="2"/>
<path d="M242.328 522.216L242.332 522.216L242.328 522.216ZM306.63 526.165C306.615 526.24 306.599 526.304 306.585 526.358H242.715C242.694 526.301 242.672 526.23 242.648 526.142C242.525 525.676 242.45 524.999 242.446 524.282C242.443 523.564 242.511 522.888 242.629 522.422C242.65 522.339 242.671 522.27 242.691 522.214L306.346 521.968C306.376 522.038 306.409 522.13 306.444 522.248C306.59 522.744 306.694 523.458 306.729 524.209C306.764 524.961 306.727 525.672 306.63 526.165ZM306.259 521.799C306.257 521.796 306.255 521.794 306.255 521.794C306.255 521.793 306.257 521.795 306.259 521.799Z" fill="#F9BE3D" stroke="#323433" stroke-width="2"/>
<path d="M272.433 387.938L272.178 383.35C287.464 399.52 303.104 408.448 314.02 413.629C313.977 413.838 313.926 414.088 313.867 414.377C313.666 415.364 313.374 416.808 313.012 418.633L313.011 418.639C311.482 426.562 308.659 441.591 306.341 457.131C304.057 472.437 302.247 488.335 302.675 498.417C300.038 501.423 297.269 502.806 294.614 503.243C291.851 503.697 289.114 503.141 286.652 502.154C284.191 501.167 282.055 499.769 280.527 498.608C279.765 498.029 279.16 497.513 278.748 497.144C278.608 497.019 278.491 496.911 278.397 496.823L272.433 387.939L272.433 387.938Z" fill="#F9BE3D" stroke="#323433" stroke-width="2"/>
<path d="M314.02 413.629C313.977 413.838 313.926 414.088 313.867 414.376C313.707 415.161 313.49 416.234 313.226 417.558C292.145 411.143 279.009 396.799 272.417 387.647L272.178 383.35C287.464 399.52 303.104 408.448 314.02 413.629Z" fill="#4F59C1" stroke="#323433" stroke-width="2"/>
<path d="M377.692 483.509L403.026 482.495L408.983 503.192L409.083 503.539L409.382 503.742C413.857 506.781 418.751 511.55 421.571 516.057C422.986 518.32 423.813 520.414 423.891 522.129C423.93 522.971 423.787 523.698 423.467 524.316C423.18 524.871 422.725 525.385 422.041 525.828H383.442C382.932 525.515 382.596 525.221 382.384 524.938C381.377 510.644 380.156 500.03 379.182 492.973C378.692 489.423 378.265 486.773 377.96 485.008C377.856 484.405 377.766 483.906 377.692 483.509Z" fill="#F9BE3D" stroke="#323433" stroke-width="2"/>
<path d="M380.081 522.216L380.086 522.216C380.085 522.216 380.083 522.216 380.081 522.216ZM380.394 522.413C380.414 522.334 380.433 522.268 380.45 522.214L425.901 521.969C425.932 522.041 425.969 522.137 426.007 522.262C426.161 522.759 426.276 523.473 426.322 524.224C426.369 524.976 426.342 525.688 426.251 526.18C426.239 526.249 426.226 526.308 426.213 526.358H380.54C380.516 526.299 380.49 526.222 380.463 526.126C380.331 525.661 380.247 524.986 380.234 524.269C380.221 523.553 380.281 522.877 380.394 522.413ZM425.814 521.807C425.81 521.803 425.808 521.801 425.808 521.801C425.808 521.801 425.81 521.803 425.814 521.807Z" fill="#F9BE3D" stroke="#323433" stroke-width="2"/>
<path d="M271.921 184.479L272.615 184.06L272.348 183.294C272.02 182.352 271.629 181.418 271.212 180.498L270.946 179.91H270.301H270.238H269.994L269.777 180.023C264.898 182.558 258.316 183.952 252.23 184.712C246.166 185.469 240.697 185.585 238.095 185.616L236.225 185.638L237.283 187.181C237.882 188.056 238.528 188.983 239.211 189.853L239.467 190.178L239.877 190.228C247.422 191.141 260.484 191.386 271.921 184.479Z" fill="#4F59C1" stroke="#323433" stroke-width="2"/>
<path d="M363.045 220.09L363.059 220.148L363.08 220.203C366.236 228.611 374.545 252.114 381.104 280.453C387.668 308.814 392.454 341.913 388.636 369.555L388.607 369.764L388.665 369.967C393.929 388.372 395.742 405.383 397.431 424.598C397.605 426.58 397.778 428.585 397.953 430.617C399.452 448.011 401.123 467.391 405.268 491.156L379.499 492.486C374.48 463.556 369.246 449.85 364.679 437.893C364.126 436.445 363.583 435.023 363.051 433.603C358.124 420.442 354.142 407.362 352.352 374.813L352.341 374.628L352.266 374.459C329.411 323.37 317.559 274.925 311.489 225.094L311.487 225.075L311.484 225.058C308.558 206.645 318.519 192.848 330.459 189.855C336.416 188.361 342.947 189.52 348.791 194.208C354.653 198.91 359.882 207.214 363.045 220.09Z" fill="white" stroke="#323433" stroke-width="2"/>
<path d="M364.709 438.92L364.708 438.917C360.652 427.403 358.458 419.83 357.334 415.166C356.772 412.814 356.453 411.198 356.276 410.177C356.199 409.733 356.149 409.402 356.117 409.172C362.775 401.508 371.076 390.217 378.548 376.722C382.558 382.86 386.823 388.885 390.165 393.48C391.964 395.954 393.496 398.015 394.58 399.458C395.121 400.179 395.551 400.746 395.845 401.133C395.957 401.28 396.049 401.4 396.12 401.494C396.126 401.57 396.134 401.66 396.143 401.765C396.174 402.134 396.22 402.68 396.281 403.384C396.403 404.793 396.585 406.837 396.821 409.38L396.821 409.384C397.845 420 399.736 439.338 401.788 457.511C402.815 466.597 403.882 475.399 404.902 482.676C405.919 489.93 406.897 495.736 407.753 498.788L407.753 498.789C408.696 502.145 407.926 505.09 406.155 507.299C404.367 509.528 401.521 511.051 398.276 511.414C391.895 512.129 383.825 508.328 379.899 496.156C379.895 496.12 379.889 496.074 379.883 496.018C379.864 495.861 379.834 495.627 379.792 495.317C379.709 494.698 379.575 493.776 379.374 492.555C378.972 490.111 378.3 486.469 377.218 481.654C375.056 472.026 371.258 457.71 364.709 438.92Z" fill="#F9BE3D" stroke="#323433" stroke-width="2"/>
<path d="M396.571 406.333C391.993 401.159 385.285 393.137 379.562 384.48L378.351 382.65L377.764 384.764C376.309 390 372.479 395.886 368.113 401.302C364.294 406.039 360.126 410.341 356.939 413.429C356.614 411.974 356.407 410.898 356.276 410.146C356.199 409.702 356.149 409.371 356.117 409.141C362.775 401.477 371.076 390.186 378.548 376.691C382.558 382.829 386.823 388.854 390.165 393.449C391.964 395.923 393.496 397.984 394.58 399.427C395.121 400.148 395.551 400.715 395.845 401.102C395.958 401.251 396.051 401.373 396.123 401.467L396.148 401.745C396.182 402.117 396.232 402.664 396.297 403.37C396.371 404.166 396.463 405.162 396.571 406.333Z" fill="#4F59C1" stroke="#323433" stroke-width="2"/>
<path d="M370.876 166.849L371.07 166.662C384.646 153.503 390.94 141.899 393.028 132.295C395.113 122.706 393.024 115.035 389.691 109.667L389.69 109.667C386.895 105.162 381.164 101.72 373.561 99.2697C365.993 96.8308 356.741 95.4308 347.142 94.8842C327.916 93.7893 307.55 96.1294 296.865 100.191L296.865 100.191C292.8 101.733 287.89 105.734 283.524 112.058C279.172 118.361 275.406 126.907 273.587 137.432L370.876 166.849ZM370.876 166.849L370.803 167.109L370.876 166.849ZM281.151 169.729L281.151 169.731C282.655 180.153 281.229 192.964 279.378 203.47C277.939 211.642 276.201 218.606 275.381 221.892C275.177 222.71 275.03 223.3 274.958 223.624C274.983 224.06 275.19 224.521 275.687 225.019C276.233 225.565 277.088 226.111 278.275 226.631C280.647 227.669 284.106 228.504 288.349 229.122C296.816 230.355 308.148 230.691 319.513 230.232C330.877 229.774 342.211 228.524 350.68 226.607C354.924 225.646 358.39 224.531 360.772 223.296C361.963 222.678 362.832 222.056 363.392 221.45C363.942 220.855 364.149 220.329 364.15 219.858C364.15 219.856 364.15 219.854 364.15 219.852H365.15L281.151 169.729ZM281.151 169.729C280.813 167.416 280.034 164.881 279.113 162.255M281.151 169.729L279.113 162.255M279.113 162.255C278.685 161.033 278.221 159.779 277.751 158.509M279.113 162.255L277.751 158.509M277.751 158.509L277.641 158.211M277.751 158.509L277.641 158.211M277.641 158.211C277.133 156.836 276.62 155.443 276.133 154.036M277.641 158.211L276.133 154.036M276.133 154.036C274.172 148.371 272.689 142.646 273.586 137.432L276.133 154.036Z" fill="#F9BE3D" stroke="#323433" stroke-width="2"/>
<path d="M316.589 99.1196L321.243 86.2435C321.714 86.5529 322.253 86.8056 322.817 87.0156C324.062 87.4789 325.617 87.8029 327.346 88.0176C330.808 88.4476 335.126 88.4575 339.405 88.1606C343.687 87.8636 347.977 87.2559 351.39 86.4315C353.094 86.0199 354.609 85.5474 355.804 85.019C356.167 84.8581 356.52 84.6842 356.849 84.4948L358.325 99.017L330.732 114.52L316.589 99.1196Z" fill="#F9BE3D" stroke="#323433" stroke-width="2"/>
<path d="M270.981 240.803L273.541 229.242C285.717 234.069 304.953 235.919 323.182 235.661C332.603 235.528 341.8 234.832 349.682 233.677C356.916 232.617 363.112 231.161 367.359 229.365L370.907 241.036C336.037 249.015 302.685 249.24 270.981 240.803Z" fill="#4F59C1" stroke="#323433" stroke-width="2"/>
<path d="M374.345 217.114L383.366 229.968C383.554 229.858 383.774 229.729 384.024 229.581C384.959 229.03 386.313 228.223 387.987 227.203C391.337 225.161 395.967 222.266 401.085 218.852C411.343 212.01 423.491 203.13 431.267 194.878C434.071 191.903 436.26 189.051 437.593 186.435C438.931 183.809 439.347 181.541 438.814 179.655L438.788 179.563L438.779 179.468C438.13 171.832 435.148 160.418 429.194 149.176C423.242 137.939 414.361 126.947 401.961 120.053L401.739 119.929L401.602 119.713C394.701 108.812 386.644 105.228 379.481 105.073C372.243 104.916 365.746 108.256 362.065 111.509L374.345 217.114ZM374.345 217.114C379.38 214.029 383.332 208.967 387.125 203.579C387.91 202.465 388.688 201.335 389.469 200.203C392.745 195.451 396.064 190.636 400.072 186.57L400.076 186.566C403.435 183.119 407.262 180.278 411.865 178.407L414.675 177.265L411.736 176.512C403.731 174.461 397.871 172.491 392.346 168.112C386.804 163.718 381.518 156.833 374.845 144.79L374.582 144.314L374.039 144.277C365.192 143.672 359.802 137.672 357.816 130.645C355.812 123.552 357.348 115.687 362.065 111.509L374.345 217.114Z" fill="#F9BE3D" stroke="#323433" stroke-width="2"/>
<path d="M382.003 209.188C382.003 209.188 370.474 208.128 366.473 210.467C363.134 212.4 364.3 215.829 364.3 215.829C357.559 218.105 361.181 232.416 371.23 237.623C381.279 242.829 391.989 224.247 391.989 224.247C391.989 224.247 392.682 211.901 382.003 209.188Z" fill="#231F20"/>
<path d="M431.995 195.564C431.019 196.561 430.011 197.653 428.908 198.65C412.307 214.551 383.043 231.293 383.043 231.293L372.868 216.796C381.972 211.839 387.516 200.116 395.328 190.388C396.557 188.798 397.911 187.302 399.329 185.867C403.266 188.143 415.016 194.285 431.995 195.564Z" fill="#231F20"/>
<path d="M431.995 195.564C431.019 196.561 430.011 197.653 428.908 198.65C414.67 197.964 401.313 192.882 395.328 190.388C396.557 188.798 397.911 187.302 399.329 185.867C403.266 188.143 415.016 194.285 431.995 195.564Z" fill="#66B8FF"/>
<path d="M329.374 107.954L302.101 97.758C305.648 96.8382 310.302 96.1919 316.413 95.8629C317.365 97.8029 319.054 99.5666 321.084 101.2C323.358 103.031 326.161 104.777 329.083 106.48L329.392 106.661L329.745 106.604C341.59 104.697 350.721 101.049 359.621 95.9537C366.46 95.9829 371.705 98.1042 376.973 100.235C377.011 100.25 377.049 100.266 377.086 100.281L329.374 107.954Z" fill="#4F59C1" stroke="#323433" stroke-width="2"/>
<path d="M343.167 203.214C372.769 196.198 400.064 180.802 417.522 162.16C435.42 180.399 463.268 195.212 493.032 201.584C493.079 205.131 493.23 218.461 493.745 264.634C494.119 298.186 478.159 323.29 460.785 340.684C443.862 357.626 425.651 367.195 420.061 370.049C414.565 367.56 396.117 358.392 378.75 341.775C360.9 324.697 344.254 299.815 343.88 266.265C343.365 220.101 343.214 206.773 343.167 203.214Z" fill="white" stroke="#323433" stroke-width="2"/>
<path d="M417.758 172.961C435.209 188.518 459.339 200.709 485.831 207.256L486.461 264.717C486.745 291 476.318 314.851 455.433 335.615C441.698 349.24 427.24 357.751 419.9 361.586C419.585 361.43 419.238 361.243 418.892 361.087L417.632 173.117C417.663 173.054 417.726 173.023 417.758 172.961Z" fill="#E36F34"/>
<path d="M351.511 209.514C376.751 202.563 399.712 190.5 416.646 175.366L417.88 359.447C410.021 355.366 397.002 347.593 384.457 335.701C363.269 315.566 352.444 292.181 352.133 266.201L351.511 209.514Z" fill="#F37C40" stroke="#323433" stroke-width="2"/>
<path d="M422.537 292.177L422.537 292.185C422.537 294.41 420.745 296.271 418.45 296.271C416.221 296.271 414.333 294.477 414.331 292.22C414.331 292.218 414.331 292.217 414.331 292.216L414.242 280.221C411.545 278.808 409.702 276.039 409.701 272.796C409.667 268.114 413.497 264.313 418.222 264.278C422.946 264.243 426.847 267.974 426.884 272.689M422.537 292.177L425.884 272.699M422.537 292.177L422.447 280.141M422.537 292.177L421.442 279.526M426.884 272.689C426.884 272.689 426.884 272.69 426.884 272.691L425.884 272.699M426.884 272.689C426.884 272.688 426.884 272.688 426.884 272.688L425.884 272.699M426.884 272.689C426.917 275.905 425.08 278.696 422.447 280.141M425.884 272.699C425.916 275.723 424.057 278.342 421.442 279.526M422.447 280.141L422.442 279.519L421.442 279.526M422.447 280.141C422.254 280.247 422.056 280.346 421.855 280.437L421.442 279.526M388.736 300.529L388.459 257.137L447.886 256.744L448.162 300.136C448.126 300.169 448.063 300.218 447.957 300.283C447.624 300.486 447.068 300.713 446.261 300.942C444.663 301.395 442.33 301.791 439.469 302.118C433.763 302.77 426.125 303.13 418.467 303.18C410.809 303.231 403.167 302.972 397.453 302.395C394.588 302.106 392.25 301.741 390.647 301.309C389.837 301.09 389.278 300.871 388.943 300.672C388.836 300.609 388.772 300.561 388.736 300.529ZM448.205 300.091C448.205 300.091 448.204 300.094 448.199 300.099C448.202 300.094 448.205 300.091 448.205 300.091ZM388.699 300.492C388.694 300.487 388.692 300.484 388.692 300.484C388.693 300.484 388.695 300.487 388.699 300.492Z" fill="white" stroke="#323433" stroke-width="2"/>
<path d="M442.452 251.625L438.246 251.646L438.225 249.652C438.225 249.651 438.225 249.651 438.225 249.65C438.157 238.701 429.061 229.886 417.972 229.951C406.879 230.017 397.916 238.967 397.983 249.914L397.983 249.918L398.004 251.906L393.788 251.927L393.746 249.956C393.659 236.746 404.506 225.931 417.922 225.841C431.371 225.751 442.34 236.42 442.431 249.634L442.431 249.637L442.452 251.625Z" fill="white" stroke="#323433" stroke-width="2"/>
<path d="M322.941 134.099L296.413 173.945L300.146 177.427L324.271 174.487L303.729 169.583L327.945 149.568L322.941 134.099Z" fill="white" stroke="#323433" stroke-width="1.74534"/>
<path d="M334.636 181.48L330.989 181.052L317.511 160.744L327.436 152.883L334.636 181.48Z" fill="white" stroke="#323433" stroke-width="1.74534"/>
<path d="M542.847 541.754C544.692 543.613 547.611 543.768 549.526 541.991C567.557 525.252 651.194 443.226 643.733 368.387C639.675 327.685 638.116 305.272 637.584 292.983C637.381 288.283 629.423 284.091 625.673 286.969C601.857 305.25 549.375 350.855 533.488 408.271C514.297 477.626 530.541 524.686 533.13 531.459C533.352 532.041 533.69 532.531 534.131 532.976L542.847 541.754Z" fill="#00B07A"/>
<path d="M526.675 524.85C526.675 524.85 577.374 463.272 552.512 406.398C527.651 349.523 492.976 332.232 492.976 332.232C492.976 332.232 436.467 412.486 460.021 453.57C486.548 499.888 526.675 524.85 526.675 524.85Z" fill="#004357"/>
<path d="M528.264 528.309C528.112 528.103 528.031 527.815 528.082 527.527C528.112 527.254 531.954 500.398 529.596 465.066C527.428 432.492 519.393 385.822 493.54 348.489C493.212 348.001 493.333 347.316 493.866 346.965C494.377 346.63 495.075 346.726 495.418 347.234C506.985 363.905 516.007 383.787 522.251 406.294C527.239 424.291 530.473 444.021 531.847 464.897C534.204 500.45 530.344 527.507 530.3 527.759C530.213 528.356 529.646 528.794 529.037 528.729C528.684 528.699 528.431 528.535 528.264 528.309Z" fill="white"/>
<path d="M537.806 529.182C537.55 528.836 537.528 528.323 537.8 527.942C538.044 527.612 562.711 492.709 588.235 444.537C602.643 417.329 606.383 389.527 610.004 362.618C612.806 341.861 615.446 322.247 622.963 305.263C623.208 304.714 623.851 304.439 624.408 304.663C624.964 304.886 625.227 305.506 624.982 306.054C617.593 322.729 614.958 342.216 612.202 362.815C608.55 389.902 604.772 417.918 590.193 445.466C564.608 493.775 539.87 528.759 539.62 529.125C539.272 529.623 538.581 529.745 538.08 529.42C537.977 529.37 537.881 529.283 537.806 529.182Z" fill="#323433"/>
<path d="M476.224 388.014C475.995 387.704 475.934 387.306 476.115 386.922C476.366 386.362 477.036 386.101 477.6 386.326C495.197 393.551 507.541 403.772 514.794 411.09C522.672 419.032 526.338 425.175 526.499 425.438C526.806 425.944 526.609 426.623 526.081 426.941C525.552 427.259 524.865 427.091 524.558 426.585C524.513 426.523 520.853 420.344 513.112 412.587C506.002 405.419 493.921 395.419 476.673 388.353C476.495 388.292 476.33 388.158 476.224 388.014Z" fill="white"/>
<path d="M469.685 428.845C469.518 428.619 469.437 428.331 469.51 428.027C469.633 427.435 470.216 427.016 470.819 427.118C471.15 427.164 479.284 428.432 490.875 433.259C501.591 437.707 517.358 446.173 531.701 461.199C532.115 461.625 532.068 462.32 531.617 462.738C531.167 463.156 530.456 463.131 530.042 462.705C515.932 447.952 500.456 439.655 489.954 435.273C478.593 430.533 470.473 429.285 470.4 429.275C470.091 429.214 469.837 429.05 469.685 428.845Z" fill="white"/>
<path d="M595.822 385.067C594.894 383.805 593.926 382.444 592.942 380.969C587.23 372.388 579.711 358.363 576.305 340.253C576.203 339.662 576.593 339.062 577.201 338.939C577.809 338.816 578.407 339.177 578.509 339.768C581.826 357.531 589.221 371.297 594.811 379.712C600.881 388.826 606.204 393.757 606.249 393.819C606.686 394.232 606.695 394.923 606.272 395.388C605.833 395.832 605.127 395.867 604.669 395.469C604.517 395.263 600.722 391.73 595.822 385.067Z" fill="#323433"/>
<path d="M574.655 422.007C568.631 413.785 561.287 401.623 554.372 384.538C554.153 383.965 554.418 383.327 555.01 383.088C555.602 382.848 556.242 383.084 556.461 383.656C565.259 405.451 574.797 419.105 581.235 426.708C588.203 434.943 593.169 438.08 593.221 438.105C593.73 438.436 593.878 439.092 593.536 439.627C593.179 440.141 592.504 440.312 591.973 439.998C591.771 439.859 586.746 436.733 579.589 428.285C578.104 426.532 576.435 424.436 574.655 422.007Z" fill="#323433"/>
<path d="M145.021 441L154.042 450.021L145.021 459.043L136 450.021L145.021 441Z" fill="#FF8233" stroke="#323433" stroke-width="1.73295" stroke-linecap="round" stroke-linejoin="round"/>
<path d="M18.9887 498.902L10.1475 507.693L1.35681 498.852L10.198 490.061L18.9887 498.902Z" fill="#52CCA7" stroke="#323433" stroke-width="1.06037" stroke-linecap="round" stroke-linejoin="round"/>
<path d="M106.893 236.618L103.386 229.069L95.2024 230.583L91.6901 223.034L83.5064 224.549L80 217" stroke="#323433" stroke-width="2.51664" stroke-linecap="round" stroke-linejoin="round"/>
<path d="M442.545 75.5226L429 88.0365" stroke="#323433" stroke-width="4.55892" stroke-linecap="round" stroke-linejoin="round"/>
<path d="M442.043 88.5537L429.529 75" stroke="#323433" stroke-width="4.55892" stroke-linecap="round" stroke-linejoin="round"/>
<path d="M613.973 246.889L608.63 235.388L596.162 237.695L590.811 226.194L578.342 228.501L573 217" stroke="#323433" stroke-width="4.23311" stroke-linecap="round" stroke-linejoin="round"/>
<path d="M225.04 296.536L219.504 302.04L214 296.504L219.536 291L225.04 296.536Z" fill="#52CCA7" stroke="#323433" stroke-width="1.06037" stroke-linecap="round" stroke-linejoin="round"/>
<path d="M572.943 108.755L596.258 115.524L590.272 91.2253L572.943 108.755Z" fill="#4385F5"/>
<path d="M597.755 117.12L570.875 109.317L590.855 89.0977L597.755 117.12ZM575.02 108.214L594.769 113.947L589.696 93.3731L575.02 108.214Z" fill="#323433"/>
<path d="M604.091 107.974L570.21 98.2113L595.436 72.9322L604.091 107.974ZM574.376 97.1141L601.095 104.813L594.266 77.1901L574.376 97.1141Z" fill="#323433"/>
</svg>
