<svg width="760" height="811" viewBox="0 0 760 811" fill="none" xmlns="http://www.w3.org/2000/svg">
<path d="M262.236 21.7824C270.414 30.4545 269.421 44.7012 260.025 53.6032C250.628 62.5053 236.381 62.6952 228.204 54.0231C220.027 45.3511 221.019 31.1044 230.416 22.2023C239.812 13.3003 254.059 13.1103 262.236 21.7824Z" fill="#E9761A" stroke="#323433" stroke-width="0.976218"/>
<path d="M230.026 55.9136L230.014 55.8989L230.001 55.8853C229.833 55.7143 229.673 55.521 229.506 55.3188C229.472 55.278 229.438 55.2369 229.404 55.1955C222.097 46.292 223.237 32.243 232.184 23.3393C235.727 19.8176 239.986 17.6406 244.327 16.7892C248.411 15.9983 252.575 16.3944 256.312 17.9798L256.313 17.9801C257.527 18.493 258.682 19.1233 259.772 19.8887C260.516 20.4192 261.226 20.976 261.893 21.5946C262.005 21.7081 262.117 21.8164 262.225 21.92L262.227 21.922C262.339 22.0299 262.446 22.1327 262.551 22.2391L262.55 22.2392L262.559 22.2475C262.79 22.4706 263.001 22.6849 263.204 22.9144L263.205 22.9163C263.793 23.5736 264.322 24.2531 264.824 24.9663C271.005 33.8899 269.543 47.0104 261.027 55.4545C252.113 64.2899 238.771 64.7088 230.718 56.6509C230.671 56.6032 230.626 56.5578 230.581 56.5137C230.458 56.3898 230.344 56.2763 230.238 56.1523C230.199 56.1059 230.157 56.0599 230.123 56.0222L230.12 56.019C230.081 55.9767 230.052 55.9438 230.026 55.9136Z" fill="#F9C13D" stroke="#323433" stroke-width="0.976218"/>
<path d="M260.204 34.0447L242.677 28.7419L237.065 32.0821L254.976 37.501L260.204 34.0447Z" fill="white" stroke="#323433" stroke-width="0.976218"/>
<path d="M254.436 39.4464L236.593 34.0402L238.783 39.4536L256.703 44.8831L254.436 39.4464Z" fill="white" stroke="#323433" stroke-width="0.976218"/>
<path d="M238.649 41.6985L233.366 44.8626L250.882 50.1655L255.78 46.8852L238.649 41.6985Z" fill="white" stroke="#323433" stroke-width="0.976218"/>
<path d="M71.3964 123.59C71.4188 124.359 71.227 125.119 70.8425 125.786C70.4578 126.453 69.8951 127 69.2174 127.366L66.0004 129.103L72.1052 140.48L75.3189 138.745L75.3189 138.745L75.3246 138.742C76.0037 138.383 76.7691 138.219 77.5357 138.269C78.3012 138.319 79.038 138.579 79.6644 139.022C80.2302 139.416 80.8167 139.78 81.4215 140.111C82.1005 140.475 82.6651 141.02 83.0521 141.687C83.4397 142.354 83.6338 143.116 83.6126 143.887L83.6125 143.891L83.4946 147.558L96.3957 147.963L96.5029 144.284L96.5029 144.284L96.5033 144.274C96.536 143.504 96.7818 142.758 97.2132 142.119C97.6415 141.484 98.2361 140.981 98.9317 140.662L99.8406 140.201L100.73 139.688C101.381 139.291 102.13 139.08 102.893 139.08C103.659 139.08 104.41 139.292 105.064 139.693L105.064 139.693L105.074 139.699L108.154 141.657L114.961 130.69L111.838 128.748L111.836 128.746C111.182 128.336 110.656 127.753 110.315 127.061C109.975 126.37 109.834 125.598 109.907 124.832C109.964 124.149 109.985 123.464 109.969 122.779C109.947 122.01 110.139 121.25 110.523 120.583C110.908 119.916 111.47 119.369 112.148 119.003C112.148 119.003 112.148 119.003 112.148 119.003L115.365 117.266L109.26 105.889L106.047 107.624L106.047 107.624L106.041 107.627C105.362 107.986 104.596 108.15 103.83 108.1C103.065 108.05 102.329 107.79 101.703 107.348C101.137 106.958 100.55 106.599 99.9458 106.272C99.266 105.908 98.7007 105.362 98.3134 104.695C97.9258 104.028 97.7317 103.266 97.7529 102.494L97.753 102.491L97.8709 98.8246L85.0451 98.4433L84.927 102.126L84.927 102.126L84.9267 102.134C84.8943 102.9 84.6501 103.643 84.2211 104.28C83.7949 104.912 83.2027 105.415 82.5098 105.733L81.5876 106.194L80.7005 106.707C80.0456 107.108 79.2925 107.32 78.5245 107.32C77.7528 107.32 76.9962 107.106 76.3391 106.701L76.3391 106.701L70.6574 123.61M71.3964 123.59C71.3964 123.589 71.3964 123.589 71.3964 123.588L70.6574 123.61M71.3964 123.59C71.3965 123.591 71.3965 123.591 71.3965 123.592L70.6574 123.61M71.3964 123.59C71.3802 122.9 71.4008 122.211 71.4582 121.524M70.6574 123.61C70.6404 122.892 70.6619 122.173 70.7218 121.458M71.4582 121.524C71.458 121.525 71.4579 121.527 71.4577 121.529L70.7218 121.458M71.4582 121.524C71.4583 121.522 71.4584 121.521 71.4585 121.519L70.7218 121.458M71.4582 121.524L70.7218 121.458M66.0156 116.305L65.3869 115.917L65.7768 115.288L66.4055 115.677L66.0156 116.305ZM72.5871 104.316L72.9769 103.687L73.6009 104.084L73.211 104.712L72.5871 104.316ZM71.8043 141.483L71.4547 140.832L71.8043 141.483ZM84.8059 134.216C82.6189 133.049 80.8272 131.26 79.6575 129.074C78.0904 126.147 77.7496 122.717 78.71 119.538C79.6703 116.359 81.8532 113.691 84.7791 112.121C86.9633 110.949 89.4461 110.451 91.9134 110.69C94.3807 110.929 96.7217 111.894 98.6401 113.464C100.559 115.034 101.968 117.137 102.691 119.509C103.414 121.88 103.417 124.412 102.7 126.785C101.983 129.158 100.578 131.265 98.6637 132.84C96.749 134.414 94.4104 135.385 91.9437 135.63C89.4769 135.875 86.9929 135.383 84.8059 134.216Z" fill="#F37C40" stroke="black" stroke-width="1.47858"/>
<path d="M627.367 188.271L627.365 188.267L626.008 185.937L617.4 190.901L618.774 193.285L618.776 193.29C619.107 193.873 619.27 194.537 619.246 195.207C619.222 195.877 619.012 196.527 618.64 197.084C618.339 197.539 618.061 198.008 617.81 198.492L617.809 198.493C617.503 199.08 617.042 199.571 616.476 199.914C615.91 200.257 615.261 200.439 614.599 200.439C614.599 200.439 614.599 200.439 614.599 200.439H611.854V210.495H614.554C614.554 210.495 614.555 210.495 614.555 210.495C615.216 210.495 615.866 210.676 616.432 211.019C616.998 211.362 617.459 211.854 617.765 212.441L617.765 212.442C618.017 212.926 618.294 213.396 618.596 213.85C618.968 214.408 619.177 215.058 619.201 215.727C619.225 216.397 619.063 217.061 618.732 217.644L618.732 217.644L618.728 217.65L617.372 219.989L625.975 224.95L627.333 222.596L627.333 222.596L627.338 222.588C627.679 222.01 628.175 221.538 628.77 221.225C629.355 220.917 630.013 220.776 630.673 220.816H632.329C632.986 220.777 633.643 220.92 634.226 221.228C634.817 221.541 635.31 222.013 635.649 222.591L635.652 222.595L637.024 224.966L645.63 220.003L644.276 217.656C644.275 217.655 644.274 217.653 644.274 217.652C643.925 217.059 643.752 216.378 643.776 215.69C643.8 215.005 644.018 214.34 644.406 213.774C644.701 213.321 644.972 212.854 645.217 212.373L645.217 212.373L645.221 212.367C645.527 211.78 645.988 211.288 646.554 210.945C647.12 210.602 647.769 210.421 648.431 210.421C648.431 210.421 648.431 210.421 648.431 210.421H651.147V200.483H648.431C648.431 200.483 648.431 200.483 648.431 200.483C647.769 200.483 647.12 200.302 646.554 199.959C645.988 199.616 645.527 199.124 645.221 198.537L645.221 198.537L645.217 198.531C644.972 198.05 644.701 197.583 644.406 197.13C644.018 196.564 643.8 195.899 643.776 195.214C643.752 194.526 643.925 193.845 644.274 193.252L645.631 190.899L637.054 185.912L635.697 188.264L635.697 188.264L635.692 188.271C635.352 188.847 634.86 189.317 634.269 189.629C633.687 189.937 633.032 190.08 632.375 190.044H630.702C630.043 190.084 629.385 189.942 628.799 189.634C628.205 189.321 627.709 188.849 627.367 188.271ZM622.879 211.232C621.74 209.522 621.134 207.513 621.137 205.458C621.141 202.707 622.237 200.069 624.185 198.125C626.132 196.181 628.771 195.089 631.523 195.089C633.577 195.089 635.586 195.698 637.294 196.84C639.002 197.982 640.333 199.605 641.119 201.504C641.905 203.402 642.109 205.491 641.707 207.506C641.305 209.521 640.315 211.372 638.86 212.824C637.406 214.276 635.554 215.263 633.539 215.662C631.523 216.061 629.434 215.853 627.537 215.065C625.64 214.276 624.019 212.942 622.879 211.232Z" fill="#00B07A" stroke="black" stroke-width="1.70631"/>
<path d="M669.222 579.822C669.74 579.516 670.163 579.072 670.443 578.539C670.723 578.007 670.85 577.406 670.808 576.806C670.808 576.469 670.808 576.132 670.808 575.795C670.808 575.458 670.808 575.121 670.808 574.784C670.846 574.187 670.718 573.59 670.438 573.061C670.158 572.532 669.737 572.091 669.222 571.786L665.596 569.694L672.412 557.876L676.037 559.968C676.57 560.282 677.181 560.438 677.798 560.416C678.416 560.394 679.014 560.197 679.523 559.846C680.086 559.478 680.668 559.141 681.267 558.835C681.792 558.561 682.233 558.148 682.54 557.641C682.847 557.134 683.01 556.552 683.01 555.959V551.776H696.623V555.959C696.623 556.552 696.785 557.134 697.092 557.641C697.4 558.148 697.84 558.561 698.366 558.835C698.965 559.141 699.546 559.479 700.109 559.846C700.618 560.197 701.217 560.394 701.834 560.416C702.452 560.438 703.063 560.282 703.595 559.968L707.221 557.876L714.036 569.694L710.306 571.734C709.789 572.037 709.367 572.478 709.087 573.007C708.807 573.537 708.68 574.134 708.72 574.732C708.72 575.069 708.72 575.406 708.72 575.743C708.72 576.08 708.72 576.417 708.72 576.754C708.668 577.363 708.79 577.974 709.07 578.517C709.351 579.059 709.779 579.512 710.306 579.822L713.932 581.913L707.116 593.731L703.508 591.64C702.986 591.343 702.391 591.198 701.791 591.219C701.191 591.241 700.609 591.429 700.109 591.762C699.547 592.135 698.965 592.479 698.366 592.79C697.84 593.064 697.4 593.477 697.092 593.984C696.785 594.492 696.623 595.073 696.623 595.666V599.832H682.975V595.509C682.975 594.916 682.813 594.335 682.505 593.827C682.198 593.32 681.757 592.907 681.232 592.633C680.633 592.322 680.051 591.978 679.489 591.605C678.989 591.272 678.407 591.084 677.806 591.062C677.206 591.041 676.612 591.186 676.09 591.483L672.481 593.574L665.666 581.756L669.222 579.822ZM689.808 586.986C692.018 586.989 694.18 586.337 696.02 585.111C697.859 583.885 699.294 582.142 700.143 580.1C700.991 578.059 701.215 575.812 700.785 573.644C700.356 571.475 699.294 569.483 697.732 567.918C696.17 566.354 694.179 565.288 692.011 564.856C689.843 564.423 687.596 564.643 685.553 565.488C683.511 566.334 681.765 567.766 680.536 569.603C679.308 571.441 678.652 573.602 678.652 575.813C678.675 578.758 679.86 581.575 681.949 583.651C684.038 585.727 686.862 586.894 689.808 586.898V586.986Z" fill="#E0E5F8"/>
<path d="M340.237 682.401H14.8069L8.04376 548.865H347L340.237 682.401Z" fill="#E0E5F8"/>
<path d="M30.2322 609.993H166.278L168.823 563.628H27.2516L30.2322 609.993ZM164.727 608.355H31.7661L28.9947 565.284H167.098L164.727 608.355Z" fill="#96A1CC"/>
<path d="M32.742 663.332H160.944L163.019 621.498H30.1099L32.742 663.332ZM159.393 661.745H34.2933L31.8879 623.189H161.241L159.393 661.745Z" fill="#96A1CC"/>
<path d="M85.1569 591.848H108.026L109.473 580.675H83.7276L85.1569 591.848ZM106.579 590.279H86.6037L85.5927 582.383H107.59L106.579 590.279Z" fill="#96A1CC"/>
<path d="M85.1569 647.992H108.026L109.473 636.819H83.7276L85.1569 647.992ZM106.579 646.354H86.6037L85.5927 638.458H107.59L106.579 646.354Z" fill="#96A1CC"/>
<path d="M190.262 609.993H326.309L328.854 563.628H187.264L190.262 609.993ZM324.757 608.355H191.796L189.025 565.284H327.128L324.757 608.355Z" fill="#96A1CC"/>
<path d="M192.773 663.332H320.993L323.067 621.498H190.159L192.773 663.332ZM319.424 661.745H194.36L191.954 623.189H321.342L319.424 661.745Z" fill="#96A1CC"/>
<path d="M245.187 591.849H268.056L269.503 580.676H243.758L245.187 591.849ZM266.609 590.28H246.651L245.64 582.384H267.568L266.609 590.28Z" fill="#96A1CC"/>
<path d="M245.187 647.992H268.056L269.503 636.819H243.758L245.187 647.992ZM266.609 646.354H246.651L245.64 638.458H267.568L266.609 646.354Z" fill="#96A1CC"/>
<path d="M311.04 682.4L313.097 696.938L317.193 726.169H325.229V682.4H311.04Z" fill="#E0E5F8"/>
<path d="M311.04 682.4L313.097 696.938H325.229V682.4H311.04Z" fill="#96A1CC"/>
<path d="M43.9844 682.4L41.945 696.938L37.8314 726.169H29.7959V682.4H43.9844Z" fill="#E0E5F8"/>
<path d="M43.9844 682.4L41.945 696.938H29.7959V682.4H43.9844Z" fill="#96A1CC"/>
<path opacity="0.5" d="M601.068 511.005C590.777 511.005 582.434 502.663 582.434 492.372C582.434 482.081 590.777 473.739 601.068 473.739C611.359 473.739 619.701 482.081 619.701 492.372C619.701 502.663 611.359 511.005 601.068 511.005Z" fill="#E0E5F8"/>
<path d="M601.068 504.712C594.253 504.712 588.727 499.187 588.727 492.371C588.727 485.556 594.253 480.031 601.068 480.031C607.884 480.031 613.409 485.556 613.409 492.371C613.409 499.187 607.884 504.712 601.068 504.712Z" fill="#E0E5F8"/>
<path opacity="0.5" d="M412.818 228.298C402.527 228.298 394.184 219.955 394.184 209.665C394.184 199.374 402.527 191.031 412.818 191.031C423.109 191.031 431.451 199.374 431.451 209.665C431.451 219.955 423.109 228.298 412.818 228.298Z" fill="#E0E5F8"/>
<path d="M412.816 222.005C406.001 222.005 400.475 216.48 400.475 209.664C400.475 202.848 406.001 197.323 412.816 197.323C419.632 197.323 425.157 202.848 425.157 209.664C425.157 216.48 419.632 222.005 412.816 222.005Z" fill="#E0E5F8"/>
<path opacity="0.5" d="M177.015 311.825C166.724 311.825 158.382 303.483 158.382 293.192C158.382 282.901 166.724 274.558 177.015 274.558C187.306 274.558 195.648 282.901 195.648 293.192C195.648 303.483 187.306 311.825 177.015 311.825Z" fill="#E0E5F8"/>
<path d="M177.016 305.533C170.201 305.533 164.676 300.007 164.676 293.192C164.676 286.376 170.201 280.851 177.016 280.851C183.832 280.851 189.357 286.376 189.357 293.192C189.357 300.007 183.832 305.533 177.016 305.533Z" fill="#E0E5F8"/>
<path opacity="0.5" d="M173.216 558.033C162.925 558.033 154.583 549.691 154.583 539.4C154.583 529.109 162.925 520.766 173.216 520.766C183.507 520.766 191.85 529.109 191.85 539.4C191.85 549.691 183.507 558.033 173.216 558.033Z" fill="#E0E5F8"/>
<path d="M173.216 551.74C166.4 551.74 160.875 546.215 160.875 539.399C160.875 532.584 166.4 527.059 173.216 527.059C180.031 527.059 185.557 532.584 185.557 539.399C185.557 546.215 180.031 551.74 173.216 551.74Z" fill="#E0E5F8"/>
<path opacity="0.5" d="M588.728 255.559C580.536 255.559 573.895 248.918 573.895 240.725C573.895 232.533 580.536 225.892 588.728 225.892C596.92 225.892 603.562 232.533 603.562 240.725C603.562 248.918 596.92 255.559 588.728 255.559Z" fill="#E0E5F8"/>
<path d="M588.729 250.539C583.309 250.539 578.915 246.145 578.915 240.725C578.915 235.305 583.309 230.912 588.729 230.912C594.148 230.912 598.542 235.305 598.542 240.725C598.542 246.145 594.148 250.539 588.729 250.539Z" fill="#E0E5F8"/>
<path opacity="0.5" d="M122.842 485.4C117.422 485.4 113.028 481.006 113.028 475.586C113.028 470.167 117.422 465.773 122.842 465.773C128.262 465.773 132.655 470.167 132.655 475.586C132.655 481.006 128.262 485.4 122.842 485.4Z" fill="#E0E5F8"/>
<path d="M122.841 482.088C119.25 482.088 116.34 479.177 116.34 475.586C116.34 471.995 119.25 469.084 122.841 469.084C126.432 469.084 129.343 471.995 129.343 475.586C129.343 479.177 126.432 482.088 122.841 482.088Z" fill="#E0E5F8"/>
<path opacity="0.5" d="M576.648 340.516C571.229 340.516 566.835 336.123 566.835 330.703C566.835 325.283 571.229 320.889 576.648 320.889C582.068 320.889 586.462 325.283 586.462 330.703C586.462 336.123 582.068 340.516 576.648 340.516Z" fill="#E0E5F8"/>
<path d="M576.648 337.204C573.057 337.204 570.146 334.293 570.146 330.703C570.146 327.112 573.057 324.201 576.648 324.201C580.239 324.201 583.149 327.112 583.149 330.703C583.149 334.293 580.239 337.204 576.648 337.204Z" fill="#E0E5F8"/>
<path opacity="0.5" d="M430.789 518.936C425.369 518.936 420.976 514.542 420.976 509.123C420.976 503.703 425.369 499.309 430.789 499.309C436.209 499.309 440.603 503.703 440.603 509.123C440.603 514.542 436.209 518.936 430.789 518.936Z" fill="#E0E5F8"/>
<path d="M430.788 515.624C427.198 515.624 424.287 512.713 424.287 509.122C424.287 505.532 427.198 502.621 430.788 502.621C434.379 502.621 437.29 505.532 437.29 509.122C437.29 512.713 434.379 515.624 430.788 515.624Z" fill="#E0E5F8"/>
<path opacity="0.5" d="M456.918 327.425C451.498 327.425 447.105 323.032 447.105 317.612C447.105 312.192 451.498 307.799 456.918 307.799C462.338 307.799 466.731 312.192 466.731 317.612C466.731 323.032 462.338 327.425 456.918 327.425Z" fill="#E0E5F8"/>
<path d="M456.916 324.114C453.326 324.114 450.415 321.203 450.415 317.612C450.415 314.022 453.326 311.111 456.916 311.111C460.507 311.111 463.418 314.022 463.418 317.612C463.418 321.203 460.507 324.114 456.916 324.114Z" fill="#E0E5F8"/>
<path opacity="0.5" d="M285.295 139.575C279.875 139.575 275.481 135.182 275.481 129.762C275.481 124.342 279.875 119.948 285.295 119.948C290.715 119.948 295.108 124.342 295.108 129.762C295.108 135.182 290.715 139.575 285.295 139.575Z" fill="#E0E5F8"/>
<path d="M285.295 136.264C281.704 136.264 278.794 133.353 278.794 129.762C278.794 126.172 281.704 123.261 285.295 123.261C288.886 123.261 291.797 126.172 291.797 129.762C291.797 133.353 288.886 136.264 285.295 136.264Z" fill="#E0E5F8"/>
<path opacity="0.5" d="M161.502 206.109C156.082 206.109 151.689 201.715 151.689 196.295C151.689 190.876 156.082 186.482 161.502 186.482C166.922 186.482 171.315 190.876 171.315 196.295C171.315 201.715 166.922 206.109 161.502 206.109Z" fill="#E0E5F8"/>
<path d="M161.504 202.797C157.913 202.797 155.003 199.886 155.003 196.295C155.003 192.704 157.913 189.794 161.504 189.794C165.095 189.794 168.006 192.704 168.006 196.295C168.006 199.886 165.095 202.797 161.504 202.797Z" fill="#E0E5F8"/>
<path opacity="0.5" d="M361.955 589.896C356.535 589.896 352.142 585.502 352.142 580.082C352.142 574.662 356.535 570.269 361.955 570.269C367.375 570.269 371.769 574.662 371.769 580.082C371.769 585.502 367.375 589.896 361.955 589.896Z" fill="#E0E5F8"/>
<path d="M361.955 586.585C358.365 586.585 355.454 583.674 355.454 580.083C355.454 576.493 358.365 573.582 361.955 573.582C365.546 573.582 368.457 576.493 368.457 580.083C368.457 583.674 365.546 586.585 361.955 586.585Z" fill="#E0E5F8"/>
<path opacity="0.5" d="M450.415 635.478C444.995 635.478 440.602 631.084 440.602 625.664C440.602 620.244 444.995 615.851 450.415 615.851C455.835 615.851 460.229 620.244 460.229 625.664C460.229 631.084 455.835 635.478 450.415 635.478Z" fill="#E0E5F8"/>
<path d="M450.416 632.166C446.826 632.166 443.915 629.255 443.915 625.665C443.915 622.074 446.826 619.163 450.416 619.163C454.007 619.163 456.918 622.074 456.918 625.665C456.918 629.255 454.007 632.166 450.416 632.166Z" fill="#E0E5F8"/>
<path d="M535.076 462.356C532.535 462.356 530.474 460.296 530.474 457.754C530.474 455.213 532.535 453.153 535.076 453.153C537.617 453.153 539.678 455.213 539.678 457.754C539.678 460.296 537.617 462.356 535.076 462.356Z" fill="#E0E5F8"/>
<path d="M222.667 200.897C220.125 200.897 218.065 198.837 218.065 196.295C218.065 193.754 220.125 191.693 222.667 191.693C225.208 191.693 227.269 193.754 227.269 196.295C227.269 198.837 225.208 200.897 222.667 200.897Z" fill="#E0E5F8"/>
<path d="M218.064 584.685C215.523 584.685 213.463 582.625 213.463 580.083C213.463 577.542 215.523 575.482 218.064 575.482C220.606 575.482 222.666 577.542 222.666 580.083C222.666 582.625 220.606 584.685 218.064 584.685Z" fill="#E0E5F8"/>
<path d="M156.901 413.759C154.36 413.759 152.3 411.699 152.3 409.158C152.3 406.616 154.36 404.556 156.901 404.556C159.443 404.556 161.503 406.616 161.503 409.158C161.503 411.699 159.443 413.759 156.901 413.759Z" fill="#E0E5F8"/>
<path d="M647.224 368.562C644.683 368.562 642.623 366.501 642.623 363.96C642.623 361.418 644.683 359.358 647.224 359.358C649.766 359.358 651.826 361.418 651.826 363.96C651.826 366.501 649.766 368.562 647.224 368.562Z" fill="#E0E5F8"/>
<path d="M262.565 344.682C260.024 344.682 257.964 342.622 257.964 340.08C257.964 337.539 260.024 335.479 262.565 335.479C265.107 335.479 267.167 337.539 267.167 340.08C267.167 342.622 265.107 344.682 262.565 344.682Z" fill="#E0E5F8"/>
<path d="M99.2225 325.264C96.6811 325.264 94.6208 323.204 94.6208 320.662C94.6208 318.121 96.6811 316.061 99.2225 316.061C101.764 316.061 103.824 318.121 103.824 320.662C103.824 323.204 101.764 325.264 99.2225 325.264Z" fill="#E0E5F8"/>
<path d="M539.677 155.124C537.135 155.124 535.075 153.064 535.075 150.522C535.075 147.981 537.135 145.921 539.677 145.921C542.218 145.921 544.278 147.981 544.278 150.522C544.278 153.064 542.218 155.124 539.677 155.124Z" fill="#E0E5F8"/>
<path d="M373.39 267.656C370.849 267.656 368.789 265.596 368.789 263.055C368.789 260.513 370.849 258.453 373.39 258.453C375.932 258.453 377.992 260.513 377.992 263.055C377.992 265.596 375.932 267.656 373.39 267.656Z" fill="#E0E5F8"/>
<path d="M364.151 96.8184C361.61 96.8184 359.55 94.7582 359.55 92.2167C359.55 89.6753 361.61 87.615 364.151 87.615C366.693 87.615 368.753 89.6753 368.753 92.2167C368.753 94.7582 366.693 96.8184 364.151 96.8184Z" fill="#E0E5F8"/>
<path d="M319.668 501.575C317.126 501.575 315.066 499.515 315.066 496.974C315.066 494.432 317.126 492.372 319.668 492.372C322.209 492.372 324.27 494.432 324.27 496.974C324.27 499.515 322.209 501.575 319.668 501.575Z" fill="#E0E5F8"/>
<path d="M321.131 642.241C318.589 642.241 316.529 640.18 316.529 637.639C316.529 635.097 318.589 633.037 321.131 633.037C323.672 633.037 325.732 635.097 325.732 637.639C325.732 640.18 323.672 642.241 321.131 642.241Z" fill="#E0E5F8"/>
<path d="M532.827 570.27C530.286 570.27 528.225 568.209 528.225 565.668C528.225 563.127 530.286 561.066 532.827 561.066C535.368 561.066 537.429 563.127 537.429 565.668C537.429 568.209 535.368 570.27 532.827 570.27Z" fill="#E0E5F8"/>
<path d="M285.399 129.187L285.277 129.309L222.527 196.156L99.0135 320.593V320.698L122.649 475.656L173.024 539.47L217.908 580.188L321.167 637.848L321.272 637.691L362.094 580.17L430.788 509.419L532.862 565.877L532.967 565.755L601.26 492.389L647.451 363.96L588.902 240.621H588.797L412.939 209.56L285.399 129.187ZM99.4318 320.75L222.806 196.452L285.469 129.71L412.713 209.891L588.588 240.918L647.015 363.978L600.911 492.267L532.792 565.476L430.753 509.001L430.649 509.105L361.815 579.996L321.08 637.343L218.239 579.822L173.425 539.156L123.12 475.412L99.4318 320.75Z" fill="#E0E5F8"/>
<path d="M539.765 150.261H539.591L412.678 209.438L373.268 262.81L262.705 339.645L222.737 195.598L222.51 196.086L176.842 293.053L156.727 409.071L217.961 580.153H218.135L346.86 550.677L361.868 580.17H362.008L533.02 565.877V565.703L534.24 507.92L601.121 492.598V492.198L534.484 498.769L535.338 457.72L457.353 317.926L576.893 330.999V330.807L588.972 240.761L539.765 150.261ZM412.957 209.839L539.591 150.784L588.501 240.761L576.474 330.476L456.534 317.368L456.726 317.717L534.885 457.807L534.031 498.804L430.771 509.001L319.337 496.799L319.512 497.13L346.669 550.503L218.205 579.821L157.198 409.123L177.208 293.262L222.615 196.87L262.444 340.412L262.67 340.255L373.529 263.194L412.957 209.839ZM534.431 499.187L597.931 492.912L534.257 507.484L534.431 499.187ZM347.052 550.346L320.017 497.218L430.754 509.419L533.996 499.222L533.821 507.589L347.052 550.346ZM347.244 550.712L533.752 507.99L532.549 565.511L362.077 579.821L347.244 550.712Z" fill="#E0E5F8"/>
<path d="M532.705 565.511L450.293 625.507L450.537 625.838L532.932 565.842L532.705 565.511Z" fill="#E0E5F8"/>
<path d="M364.133 91.9902L285.399 129.239L283.97 129.117L284.946 129.483L161.345 196.156L99.1006 320.454L98.3511 320.715L99.118 320.802L156.639 409.123L122.545 475.621H122.737L228.593 521.882L217.734 580.432L218.169 580.083L268.178 539.173L320.121 561.833L320.905 637.656H321.132L451.095 625.629L450.485 625.315L362.059 579.822L320.557 561.694L319.877 496.468L319.546 496.73L268.143 538.772L229.081 521.708L262.809 339.906H262.6L100.112 320.593L177.085 293.419L373.354 263.281L457.021 317.909L457.126 317.7L509.54 211.878L588.553 240.865L593.346 338.32L576.77 330.511L576.596 330.877L593.364 338.773L596.658 406.003L534.727 457.807L534.989 457.946L601.225 492.808L597.007 406.195L647.556 363.926L647.277 363.786L593.695 338.529L588.884 240.586H588.762L509.662 211.564L539.956 150.383H539.677L364.133 91.9902ZM286.201 129.292L364.168 92.4259L538.022 150.174L286.201 129.292ZM161.642 196.435L285.399 129.658L509.139 211.739L456.847 317.316L373.441 262.845L176.928 293L99.5712 320.314L161.642 196.435ZM509.296 211.373L286.916 129.762L539.381 150.679L509.296 211.373ZM123.12 475.482L157.127 409.158V409.054L99.6061 320.924L262.339 340.272L228.715 521.551L123.12 475.482ZM597.007 405.689L593.73 338.982L646.858 364.013L597.007 405.689ZM535.442 457.807L596.658 406.526L600.859 492.041L535.442 457.807ZM268.561 539.138L319.476 497.497L320.139 561.694L268.561 539.138ZM218.361 579.665L228.994 522.283L267.777 539.243L218.361 579.665ZM321.341 637.343L320.557 562.147L361.885 580.205L449.718 625.525L321.341 637.343Z" fill="#E0E5F8"/>
<path d="M457.996 810.533C310.227 810.533 190.436 796.134 190.436 778.373C190.436 760.612 310.227 746.214 457.996 746.214C605.766 746.214 725.557 760.612 725.557 778.373C725.557 796.134 605.766 810.533 457.996 810.533Z" fill="#E0E5F8"/>
<path d="M750.273 727.075L656.619 726.639L562.946 726.482L375.637 726.203L188.31 726.482L94.6548 726.639L0.982544 727.075L94.6548 727.493L188.31 727.65L375.637 727.929L562.946 727.65L656.619 727.493L750.273 727.075Z" fill="#263238"/>
<path d="M756.302 712.995C758.296 712.646 759.536 710.821 759.022 708.819C753.992 689.218 726.55 594.02 661.459 564.977C622.457 547.575 603.212 538.248 593.751 533.341C590.566 531.689 585.348 534.755 585.83 538.217C589.087 561.621 601.065 620.639 641.733 658.761C690.038 704.043 736.882 714.03 742.775 715.138C743.194 715.217 743.606 715.213 744.016 715.141L756.302 712.995Z" fill="#00B07A"/>
<path d="M731.109 720.114C731.109 720.114 705.573 659.803 648.84 651.381C592.106 642.959 562.319 658.283 562.319 658.283C562.319 658.283 600.024 730.575 643.593 732.969C692.699 735.686 731.109 720.114 731.109 720.114Z" fill="#004357"/>
<path d="M734.94 718.974C734.705 718.982 734.437 718.913 734.228 718.764C734.022 718.634 714.141 705.244 684.618 692.172C657.403 680.115 616.171 665.863 574.362 666.368C573.82 666.368 573.324 666.013 573.283 665.542C573.245 665.091 573.64 664.703 574.206 664.701C592.885 664.463 612.994 667.102 633.954 672.524C650.713 676.861 668.07 682.987 685.505 690.722C715.205 703.886 735.239 717.369 735.422 717.5C735.863 717.798 735.959 718.326 735.629 718.673C735.445 718.876 735.198 718.964 734.94 718.974Z" fill="white"/>
<path d="M746.144 709.931C745.729 709.944 745.282 709.726 745.086 709.375C744.921 709.065 726.949 677.001 698.095 638.379C681.793 616.57 659.916 601.542 638.743 586.997C622.415 575.771 606.982 565.168 596.104 552.53C595.753 552.12 595.825 551.571 596.28 551.304C596.734 551.038 597.386 551.144 597.737 551.553C608.412 563.966 623.739 574.509 639.955 585.633C661.265 600.28 683.305 615.429 699.815 637.504C728.757 676.229 746.766 708.376 746.958 708.706C747.216 709.161 746.992 709.673 746.477 709.857C746.385 709.902 746.266 709.927 746.144 709.931Z" fill="#323433"/>
<path d="M600.477 692.926C600.13 692.941 599.788 692.822 599.568 692.564C599.239 692.195 599.336 691.692 599.769 691.442C613.434 683.736 627.084 680.346 636.14 678.868C645.97 677.259 652.475 677.468 652.756 677.474C653.294 677.489 653.74 677.872 653.752 678.312C653.763 678.753 653.319 679.099 652.781 679.084C652.712 679.088 646.181 678.861 636.559 680.46C627.686 681.911 614.33 685.23 600.949 692.79C600.82 692.872 600.64 692.919 600.477 692.926Z" fill="white"/>
<path d="M627.686 715.842C627.428 715.852 627.16 715.783 626.948 715.614C626.528 715.296 626.456 714.768 626.812 714.44C626.998 714.256 631.713 709.796 640.861 704.679C649.307 699.943 663.28 693.762 681.884 691.142C682.415 691.064 682.953 691.378 683.085 691.825C683.216 692.272 682.874 692.697 682.343 692.776C664.064 695.364 650.359 701.436 642.064 706.069C633.09 711.081 628.398 715.54 628.357 715.581C628.167 715.745 627.92 715.833 627.686 715.842Z" fill="white"/>
<path d="M654.924 604.123C653.521 604.193 652.024 604.25 650.429 604.273C641.163 604.4 626.838 603.535 611.197 598.695C610.69 598.531 610.4 598.074 610.58 597.668C610.76 597.263 611.311 597.046 611.818 597.209C627.148 601.971 641.215 602.811 650.297 602.694C660.141 602.557 666.391 601.279 666.46 601.275C666.979 601.174 667.521 601.43 667.691 601.855C667.838 602.282 667.546 602.713 667.029 602.833C666.799 602.845 662.331 603.75 654.924 604.123Z" fill="#323433"/>
<path d="M672.216 637.157C663.177 637.679 650.517 637.537 634.276 635.355C633.737 635.275 633.368 634.888 633.454 634.456C633.539 634.023 634.01 633.736 634.549 633.817C655.255 636.614 670.055 636.019 678.807 635.03C688.286 633.963 692.946 632.208 692.989 632.187C693.474 632.01 694.044 632.163 694.299 632.557C694.531 632.952 694.356 633.408 693.874 633.603C693.675 633.67 688.997 635.463 679.27 636.564C677.251 636.792 674.886 637.003 672.216 637.157Z" fill="#323433"/>
<mask id="path-75-inside-1_601_7" fill="white">
<path d="M372.805 686.682L370.157 762.475L378.102 776.143L397.296 768.659L402.363 693.508"/>
</mask>
<path d="M372.805 686.682L370.157 762.475L378.102 776.143L397.296 768.659L402.363 693.508" fill="white"/>
<path d="M370.157 762.475L368.465 762.416L368.448 762.903L368.694 763.326L370.157 762.475ZM378.102 776.143L376.638 776.994L377.366 778.247L378.717 777.72L378.102 776.143ZM397.296 768.659L397.911 770.237L398.913 769.846L398.986 768.773L397.296 768.659ZM371.113 686.623L368.465 762.416L371.849 762.534L374.497 686.741L371.113 686.623ZM368.694 763.326L376.638 776.994L379.565 775.292L371.621 761.624L368.694 763.326ZM378.717 777.72L397.911 770.237L396.681 767.082L377.487 774.566L378.717 777.72ZM398.986 768.773L404.052 693.622L400.673 693.394L395.607 768.545L398.986 768.773Z" fill="#323433" mask="url(#path-75-inside-1_601_7)"/>
<path d="M329.608 782.388L329.611 782.386L370.802 758.529L378.3 769.148L378.553 769.506H378.991H396.545L398.337 784.804H330.276C328.909 784.792 328.491 783.029 329.608 782.388Z" fill="#323433" stroke="#323433" stroke-width="1.693"/>
<mask id="path-78-inside-2_601_7" fill="white">
<path d="M500.825 686.682L524.938 762.475L517.01 776.143L497.815 768.659L471.268 693.508"/>
</mask>
<path d="M500.825 686.682L524.938 762.475L517.01 776.143L497.815 768.659L471.268 693.508" fill="white"/>
<path d="M524.938 762.475L526.402 763.324L526.778 762.676L526.551 761.962L524.938 762.475ZM517.01 776.143L516.395 777.72L517.746 778.247L518.474 776.993L517.01 776.143ZM497.815 768.659L496.218 769.223L496.477 769.955L497.2 770.237L497.815 768.659ZM499.211 687.195L523.324 762.988L526.551 761.962L502.438 686.169L499.211 687.195ZM523.473 761.625L515.545 775.294L518.474 776.993L526.402 763.324L523.473 761.625ZM517.625 774.566L498.43 767.082L497.2 770.237L516.395 777.72L517.625 774.566ZM499.411 768.095L472.864 692.944L469.671 694.072L496.218 769.223L499.411 768.095Z" fill="#323433" mask="url(#path-78-inside-2_601_7)"/>
<path d="M565.503 782.385L565.505 782.387C566.614 783.023 566.198 784.79 564.838 784.803H496.777L498.569 769.505H516.122H516.561L516.814 769.147L524.312 758.528L565.503 782.385Z" fill="#323433" stroke="#323433" stroke-width="1.693"/>
<path d="M512.137 718.721L512.481 720.144L479.186 730.608L420.329 547.043L418.679 547.231L403.749 725.285L366.135 722.528L375.997 438.07L449.396 437.408C453.371 446.787 454.762 455.051 455.788 464.385C456.025 466.543 456.243 468.759 456.469 471.061C457.239 478.893 458.104 487.702 460.157 498.478C462.81 512.402 475.942 568.028 488.402 620.137C494.634 646.2 500.701 671.394 505.209 690.072C507.463 699.411 509.328 707.121 510.629 712.497C511.28 715.185 511.789 717.289 512.137 718.721Z" fill="#323433" stroke="#323433" stroke-width="1.693"/>
<path d="M511.876 718.846L512.221 720.269L478.926 730.734L420.068 547.169L418.419 547.357L403.488 725.411L365.874 722.653L375.736 438.196L449.135 437.534C453.111 446.912 454.502 455.176 455.528 464.51C455.765 466.668 455.982 468.885 456.208 471.186C456.978 479.018 457.843 487.827 459.896 498.603C462.549 512.527 475.682 568.153 488.142 620.263C494.374 646.326 500.44 671.519 504.948 690.198C507.203 699.537 509.067 707.247 510.368 712.622C511.019 715.31 511.529 717.414 511.876 718.846Z" fill="#4F59C1" stroke="#323433" stroke-width="1.693"/>
<path d="M406.335 245.934L406.632 246.015L406.911 245.887C416.091 241.687 423.929 240.776 430.503 242.08C437.076 243.383 442.469 246.915 446.733 251.747C455.29 261.442 459.246 276.31 458.921 288.449C458.599 300.494 453.831 308.02 449.686 313.598C449.195 314.258 448.708 314.897 448.234 315.519C446.729 317.493 445.363 319.285 444.497 320.953C443.916 322.071 443.521 323.199 443.46 324.359C443.398 325.535 443.681 326.689 444.367 327.843C445.636 329.977 447.869 332.303 449.992 334.515L450.017 334.541C452.199 336.814 454.261 338.965 455.373 340.844C455.928 341.781 456.18 342.546 456.166 343.152C456.153 343.694 455.925 344.206 455.247 344.696C454.529 345.214 453.323 345.69 451.421 346.036C449.533 346.38 447.028 346.584 443.774 346.611C437.247 346.664 432.867 346.103 429.927 345.143C427.013 344.191 425.57 342.867 424.804 341.397C424.013 339.879 423.873 338.082 423.838 336.002C423.833 335.701 423.83 335.394 423.827 335.082C423.81 333.299 423.792 331.354 423.345 329.473L423.345 329.472C423.056 328.254 422.322 327.004 421.343 325.725C420.356 324.437 419.068 323.055 417.598 321.575C416.535 320.504 415.379 319.384 414.158 318.201C411.968 316.08 409.572 313.758 407.132 311.161C399.569 303.11 391.902 292.718 390.128 278.974C388.82 268.846 390.301 259.762 393.44 253.635C395.009 250.572 396.968 248.291 399.154 246.958C401.32 245.637 403.741 245.225 406.335 245.934Z" fill="#323433" stroke="#323433" stroke-width="1.693"/>
<path d="M300.602 324.743L300.046 325.381L301.182 326.371L301.436 324.885L300.602 324.743ZM300.602 324.743C300.046 325.381 300.046 325.381 300.046 325.381L300.045 325.38L300.043 325.379L300.036 325.372L300.007 325.347L299.898 325.251C299.802 325.167 299.662 325.044 299.484 324.886C299.127 324.569 298.617 324.114 298.004 323.556C296.776 322.442 295.13 320.917 293.459 319.28C291.79 317.645 290.084 315.887 288.743 314.306C288.073 313.516 287.483 312.758 287.031 312.072C286.593 311.406 286.235 310.736 286.106 310.135C285.897 309.177 285.777 307.697 285.667 306.068C285.641 305.686 285.615 305.294 285.589 304.893C285.502 303.555 285.41 302.133 285.279 300.744C285.108 298.937 284.876 297.238 284.522 295.91C284.345 295.246 284.145 294.706 283.926 294.304C283.703 293.895 283.497 293.696 283.34 293.611C282.818 293.329 282.338 293.299 281.88 293.475C281.394 293.662 280.83 294.122 280.269 295.014C279.139 296.808 278.186 300.086 277.86 305.158C277.787 306.304 278.01 307.788 278.5 309.549C278.987 311.298 279.723 313.269 280.634 315.37C282.457 319.572 284.955 324.239 287.485 328.603C290.013 332.964 292.562 337.008 294.481 339.962C295.44 341.439 296.24 342.643 296.801 343.477C297.081 343.894 297.301 344.219 297.451 344.438C297.493 344.5 297.529 344.553 297.56 344.598C297.584 344.633 297.605 344.664 297.622 344.688L297.666 344.752L297.677 344.768L297.679 344.771L297.68 344.772C297.68 344.773 297.68 344.773 296.983 345.253L297.68 344.773L297.778 344.914L297.812 345.082L312.813 417.75L354.033 425.257L378.5 385.124L352.763 363.612L338.663 395.238L337.872 397.011L337.111 395.226L314.61 342.444L314.569 342.348L314.553 342.245L315.389 342.112C314.553 342.245 314.553 342.244 314.553 342.244L314.553 342.244L314.552 342.242L314.551 342.232L314.545 342.194L314.52 342.043C314.499 341.911 314.467 341.715 314.426 341.465C314.343 340.964 314.223 340.242 314.071 339.36C313.767 337.595 313.338 335.189 312.837 332.628C312.336 330.064 311.764 327.351 311.174 324.968C310.58 322.566 309.981 320.558 309.438 319.371C308.442 317.195 307.988 314.714 307.598 312.589C307.513 312.125 307.432 311.678 307.348 311.255C307.107 310.036 306.857 309.033 306.506 308.285C306.161 307.549 305.774 307.176 305.312 307.029C304.82 306.871 304.473 306.967 304.154 307.235C303.782 307.547 303.419 308.128 303.109 308.992C302.495 310.706 302.221 313.156 302.221 315.482C302.221 317.893 302.025 320.242 301.83 321.983C301.732 322.855 301.634 323.578 301.56 324.084C301.524 324.337 301.493 324.536 301.471 324.672C301.46 324.74 301.452 324.793 301.446 324.829L301.439 324.87L301.437 324.881L301.437 324.884L301.436 324.885L301.436 324.885C301.436 324.885 301.436 324.885 300.602 324.743Z" fill="white" stroke="#323433" stroke-width="1.693"/>
<mask id="path-85-inside-3_601_7" fill="white">
<path d="M482.152 371.866L466.559 383.182L465.095 384.235L453.467 392.689L451.707 438.793L444.601 438.661L443.137 438.628L422.643 438.217L421.179 438.201L400.685 437.79L399.221 437.757L378.727 437.345L377.263 437.313L375.174 437.28C375.174 437.28 376.062 426.013 372.756 409.581C369.433 393.149 374.072 381.85 374.072 381.85L352.459 362.276L363.529 345.072C366.917 339.808 371.687 335.581 377.263 332.884C377.74 332.637 378.233 332.423 378.727 332.209C380.338 331.502 382.016 330.926 383.727 330.499L399.221 326.518L400.06 326.288L400.685 326.14L405.932 324.775L421.179 324.824H422.643L439.255 324.874L443.137 326.913L444.601 327.686L444.634 327.703L458.598 335.006C460.95 336.239 463.122 337.719 465.095 339.447C465.589 339.858 466.099 340.318 466.559 340.779C469.964 344.085 472.678 348.098 474.454 352.605L482.152 371.866Z"/>
</mask>
<path d="M482.152 371.866L466.559 383.182L465.095 384.235L453.467 392.689L451.707 438.793L444.601 438.661L443.137 438.628L422.643 438.217L421.179 438.201L400.685 437.79L399.221 437.757L378.727 437.345L377.263 437.313L375.174 437.28C375.174 437.28 376.062 426.013 372.756 409.581C369.433 393.149 374.072 381.85 374.072 381.85L352.459 362.276L363.529 345.072C366.917 339.808 371.687 335.581 377.263 332.884C377.74 332.637 378.233 332.423 378.727 332.209C380.338 331.502 382.016 330.926 383.727 330.499L399.221 326.518L400.06 326.288L400.685 326.14L405.932 324.775L421.179 324.824H422.643L439.255 324.874L443.137 326.913L444.601 327.686L444.634 327.703L458.598 335.006C460.95 336.239 463.122 337.719 465.095 339.447C465.589 339.858 466.099 340.318 466.559 340.779C469.964 344.085 472.678 348.098 474.454 352.605L482.152 371.866Z" fill="#E9761A"/>
<path d="M482.152 371.866L483.146 373.236L484.213 372.462L483.724 371.237L482.152 371.866ZM466.559 383.182L467.548 384.556L467.554 384.552L466.559 383.182ZM465.095 384.235L464.107 382.86L464.1 382.865L465.095 384.235ZM453.467 392.689L452.471 391.32L451.806 391.803L451.775 392.624L453.467 392.689ZM451.707 438.793L451.675 440.486L453.335 440.516L453.398 438.857L451.707 438.793ZM444.601 438.661L444.563 440.354L444.57 440.354L444.601 438.661ZM443.137 438.628L443.175 436.936L443.171 436.936L443.137 438.628ZM422.643 438.217L422.677 436.525L422.669 436.524L422.662 436.524L422.643 438.217ZM421.179 438.201L421.145 439.893L421.152 439.894L421.16 439.894L421.179 438.201ZM400.685 437.79L400.647 439.482L400.651 439.482L400.685 437.79ZM399.221 437.757L399.259 436.064L399.255 436.064L399.221 437.757ZM378.727 437.345L378.688 439.038L378.693 439.038L378.727 437.345ZM377.263 437.313L377.301 435.62L377.289 435.62L377.263 437.313ZM375.174 437.28L373.486 437.147L373.344 438.944L375.147 438.972L375.174 437.28ZM372.756 409.581L374.416 409.247L374.415 409.246L372.756 409.581ZM374.072 381.85L375.638 382.493L376.089 381.393L375.208 380.595L374.072 381.85ZM352.459 362.276L351.035 361.36L350.258 362.568L351.323 363.531L352.459 362.276ZM363.529 345.072L362.105 344.155L362.105 344.156L363.529 345.072ZM377.263 332.884L378 334.408L378.02 334.398L378.04 334.388L377.263 332.884ZM378.727 332.209L379.4 333.763L379.407 333.76L378.727 332.209ZM383.727 330.499L384.137 332.141L384.148 332.139L383.727 330.499ZM399.221 326.518L399.642 328.158L399.656 328.155L399.669 328.151L399.221 326.518ZM400.06 326.288L399.669 324.641L399.64 324.648L399.611 324.655L400.06 326.288ZM400.685 326.14L401.075 327.787L401.093 327.783L401.111 327.779L400.685 326.14ZM405.932 324.775L405.937 323.082L405.718 323.081L405.505 323.136L405.932 324.775ZM421.179 324.824L421.174 326.517H421.179V324.824ZM422.643 324.824L422.648 323.131H422.643V324.824ZM439.255 324.874L440.043 323.375L439.675 323.182L439.26 323.181L439.255 324.874ZM443.137 326.913L443.928 325.416L443.925 325.414L443.137 326.913ZM444.601 327.686L443.81 329.183L443.828 329.192L443.845 329.201L444.601 327.686ZM444.634 327.703L445.419 326.202L445.404 326.195L445.39 326.188L444.634 327.703ZM458.598 335.006L459.385 333.506L459.383 333.505L458.598 335.006ZM465.095 339.447L463.98 340.721L463.996 340.734L464.011 340.747L465.095 339.447ZM466.559 340.779L465.362 341.976L465.371 341.985L465.38 341.993L466.559 340.779ZM474.454 352.605L472.879 353.226L472.882 353.233L474.454 352.605ZM481.158 370.495L465.565 381.812L467.554 384.552L483.146 373.236L481.158 370.495ZM465.571 381.807L464.107 382.86L466.084 385.609L467.548 384.556L465.571 381.807ZM464.1 382.865L452.471 391.32L454.462 394.058L466.091 385.604L464.1 382.865ZM451.775 392.624L450.015 438.728L453.398 438.857L455.158 392.753L451.775 392.624ZM451.738 437.1L444.632 436.969L444.57 440.354L451.675 440.486L451.738 437.1ZM444.639 436.969L443.175 436.936L443.099 440.321L444.563 440.354L444.639 436.969ZM443.171 436.936L422.677 436.525L422.609 439.91L443.103 440.321L443.171 436.936ZM422.662 436.524L421.198 436.508L421.16 439.894L422.624 439.91L422.662 436.524ZM421.213 436.508L400.719 436.097L400.651 439.482L421.145 439.893L421.213 436.508ZM400.723 436.097L399.259 436.064L399.183 439.449L400.647 439.482L400.723 436.097ZM399.255 436.064L378.76 435.653L378.693 439.038L399.187 439.449L399.255 436.064ZM378.765 435.653L377.301 435.62L377.225 439.005L378.688 439.038L378.765 435.653ZM377.289 435.62L375.2 435.587L375.147 438.972L377.236 439.005L377.289 435.62ZM375.174 437.28C376.862 437.413 376.862 437.412 376.862 437.412C376.862 437.412 376.862 437.411 376.862 437.411C376.862 437.41 376.862 437.409 376.862 437.408C376.862 437.406 376.862 437.403 376.863 437.399C376.863 437.392 376.864 437.382 376.865 437.369C376.867 437.344 376.869 437.307 376.872 437.26C376.878 437.166 376.887 437.03 376.896 436.852C376.915 436.496 376.937 435.976 376.953 435.303C376.986 433.957 376.993 431.999 376.896 429.526C376.702 424.579 376.089 417.564 374.416 409.247L371.096 409.915C372.729 418.03 373.325 424.864 373.513 429.659C373.607 432.056 373.599 433.942 373.568 435.222C373.553 435.862 373.532 436.35 373.515 436.675C373.506 436.837 373.499 436.959 373.494 437.038C373.491 437.077 373.489 437.106 373.488 437.125C373.487 437.134 373.486 437.14 373.486 437.144C373.486 437.146 373.486 437.147 373.486 437.147C373.486 437.147 373.486 437.147 373.486 437.147C373.486 437.147 373.486 437.147 373.486 437.147C373.486 437.147 373.486 437.147 375.174 437.28ZM374.415 409.246C372.8 401.255 373.122 394.526 373.841 389.809C374.201 387.45 374.66 385.597 375.024 384.345C375.207 383.719 375.365 383.243 375.475 382.931C375.531 382.774 375.574 382.658 375.602 382.585C375.616 382.548 375.626 382.522 375.632 382.506C375.635 382.499 375.637 382.494 375.638 382.491C375.639 382.49 375.639 382.49 375.639 382.49C375.639 382.49 375.639 382.49 375.639 382.491C375.639 382.491 375.638 382.491 375.638 382.491C375.638 382.492 375.638 382.493 374.072 381.85C372.506 381.207 372.505 381.207 372.505 381.208C372.505 381.208 372.505 381.209 372.504 381.21C372.504 381.211 372.503 381.212 372.503 381.214C372.502 381.216 372.5 381.22 372.498 381.224C372.495 381.233 372.49 381.244 372.485 381.259C372.473 381.287 372.458 381.326 372.439 381.376C372.401 381.476 372.348 381.619 372.282 381.804C372.152 382.173 371.974 382.709 371.773 383.399C371.372 384.779 370.879 386.778 370.494 389.298C369.725 394.339 369.39 401.475 371.096 409.917L374.415 409.246ZM375.208 380.595L353.595 361.022L351.323 363.531L372.935 383.105L375.208 380.595ZM353.883 363.193L364.952 345.988L362.105 344.156L351.035 361.36L353.883 363.193ZM364.952 345.988C368.173 340.985 372.706 336.969 378 334.408L376.525 331.36C370.667 334.194 365.661 338.632 362.105 344.155L364.952 345.988ZM378.04 334.388C378.457 334.172 378.897 333.981 379.4 333.763L378.053 330.656C377.569 330.866 377.022 331.102 376.485 331.38L378.04 334.388ZM379.407 333.76C380.933 333.09 382.52 332.545 384.137 332.141L383.316 328.856C381.512 329.307 379.744 329.914 378.046 330.659L379.407 333.76ZM384.148 332.139L399.642 328.158L398.8 324.879L383.306 328.859L384.148 332.139ZM399.669 328.151L400.508 327.921L399.611 324.655L398.773 324.886L399.669 328.151ZM400.45 327.936L401.075 327.787L400.294 324.493L399.669 324.641L400.45 327.936ZM401.111 327.779L406.358 326.413L405.505 323.136L400.258 324.502L401.111 327.779ZM405.926 326.468L421.174 326.517L421.184 323.131L405.937 323.082L405.926 326.468ZM421.179 326.517H422.643V323.131H421.179V326.517ZM422.638 326.517L439.25 326.567L439.26 323.181L422.648 323.131L422.638 326.517ZM438.468 326.372L442.35 328.412L443.925 325.414L440.043 323.375L438.468 326.372ZM442.347 328.41L443.81 329.183L445.392 326.189L443.928 325.416L442.347 328.41ZM443.845 329.201L443.878 329.217L445.39 326.188L445.357 326.171L443.845 329.201ZM443.849 329.203L457.814 336.506L459.383 333.505L445.419 326.202L443.849 329.203ZM457.812 336.505C460.049 337.678 462.11 339.084 463.98 340.721L466.21 338.172C464.133 336.355 461.851 334.8 459.385 333.506L457.812 336.505ZM464.011 340.747C464.47 341.13 464.942 341.556 465.362 341.976L467.756 339.582C467.255 339.081 466.707 338.586 466.179 338.146L464.011 340.747ZM465.38 341.993C468.616 345.136 471.193 348.948 472.879 353.226L476.029 351.984C474.163 347.249 471.312 343.034 467.739 339.564L465.38 341.993ZM472.882 353.233L480.58 372.494L483.724 371.237L476.026 351.977L472.882 353.233Z" fill="#323433" mask="url(#path-85-inside-3_601_7)"/>
<path d="M439.048 325.702L443.513 328.044C438.9 336.471 427.555 341.523 413.408 340.591C407.423 340.194 404.23 338.021 402.558 335.375C400.965 332.855 400.653 329.754 400.868 326.942L406.056 325.605L439.048 325.702Z" fill="white" stroke="#323433" stroke-width="1.693"/>
<path d="M410.621 324.099L411.228 323.902L411.206 323.265L410.943 315.682L410.943 315.682L410.571 305.279L434.757 297.913C434.482 298.843 434.271 299.895 434.112 301C433.483 305.261 433.512 310.87 433.691 315.375C433.781 317.636 433.909 319.634 434.015 321.067C434.068 321.784 434.116 322.36 434.15 322.757C434.167 322.956 434.181 323.11 434.191 323.214L434.202 323.334L434.205 323.364L434.206 323.373L434.206 323.375L434.206 323.375C434.206 323.375 434.206 323.376 435.048 323.294L434.206 323.376L434.257 323.905L434.757 324.089L438.02 325.287C437.852 325.555 437.638 325.877 437.377 326.242C436.594 327.336 435.39 328.8 433.716 330.264C430.376 333.186 425.16 336.116 417.63 336.116C413.849 336.116 411.347 335.371 409.699 334.334C408.064 333.306 407.204 331.95 406.769 330.587C406.328 329.206 406.32 327.803 406.433 326.725C406.488 326.19 406.573 325.745 406.642 325.437C406.646 325.42 406.649 325.404 406.653 325.388L410.621 324.099Z" fill="white" stroke="#323433" stroke-width="1.693"/>
<path d="M406.258 256.637L407.918 256.656C408.478 259.649 410.52 262.5 413.443 265.144C416.356 267.779 420.061 270.134 423.789 272.151C427.512 274.165 431.227 275.826 434.145 277.08C434.837 277.377 435.492 277.655 436.092 277.909C436.744 278.186 437.33 278.434 437.825 278.65C438.305 278.858 438.72 279.043 439.049 279.202C439.358 279.352 439.653 279.507 439.852 279.657C439.852 279.657 439.852 279.657 439.852 279.658L439.341 280.332C440.351 281.097 440.766 282.785 440.93 284.243L406.258 256.637ZM406.258 256.637C405.682 259.382 404.135 261.546 402.606 263.686C402.505 263.827 402.404 263.969 402.303 264.111C400.742 266.305 399.163 268.635 399.554 271.435L399.554 271.435L399.554 271.439C400.232 276.166 400.367 280.163 399.176 288.302C398.554 292.555 399.137 298.159 401.958 302.675C404.816 307.25 409.917 310.612 418.082 310.374C426.282 310.134 432.14 305.665 435.913 301.333C437.801 299.164 439.182 297.013 440.092 295.405C440.547 294.599 440.886 293.928 441.112 293.455C441.121 293.436 441.13 293.416 441.139 293.398C441.337 293.452 441.568 293.512 441.828 293.572C442.684 293.771 443.863 293.979 445.123 294.002C447.603 294.047 450.728 293.36 451.976 290.056C453.114 287.04 452.741 284.21 451.514 282.17C450.299 280.149 448.199 278.859 445.952 279.13C444.448 279.308 443.323 280.261 442.519 281.315C442.15 281.799 441.832 282.324 441.561 282.847L406.258 256.637Z" fill="white" stroke="#323433" stroke-width="1.693"/>
<path d="M447.302 283.178C445.986 283.557 444.506 287.175 445.098 288.853" stroke="#323433" stroke-width="1.693" stroke-miterlimit="9" stroke-linecap="round"/>
<path d="M415.705 293.572L413.863 292.487C412.629 291.763 412.12 290.233 412.695 288.917L415.705 281.96" stroke="#323433" stroke-width="1.693" stroke-miterlimit="9" stroke-linecap="round"/>
<path d="M425.061 283.393C425.061 284.172 424.429 284.804 423.65 284.804C422.871 284.804 422.239 284.172 422.239 283.393C422.239 282.614 422.871 281.982 423.65 281.982C424.429 281.982 425.061 282.614 425.061 283.393Z" fill="#323433" stroke="#323433" stroke-width="1.693"/>
<path d="M409.262 283.393C409.262 284.172 408.63 284.804 407.851 284.804C407.072 284.804 406.44 284.172 406.44 283.393C406.44 282.614 407.072 281.982 407.851 281.982C408.63 281.982 409.262 282.614 409.262 283.393Z" fill="#323433" stroke="#323433" stroke-width="1.693"/>
<path d="M429.207 276.318C429.207 276.318 425.885 272.651 420.77 275.266" stroke="#323433" stroke-width="1.693" stroke-miterlimit="10" stroke-linecap="round" stroke-linejoin="round"/>
<path d="M403.615 276.17C403.615 276.17 406.872 272.568 412.119 275.874" stroke="#323433" stroke-width="1.693" stroke-miterlimit="10" stroke-linecap="round" stroke-linejoin="round"/>
<path d="M417.646 299.593C417.646 299.593 421.939 301.353 425.459 298.343" stroke="#323433" stroke-width="1.693" stroke-miterlimit="9" stroke-linecap="round"/>
<path d="M368.88 435.726H304.613H304.601L304.588 435.726C303.867 435.748 303.245 435.322 303.044 434.617C303.043 434.616 303.043 434.615 303.043 434.614L289.032 383.768C289.032 383.767 289.032 383.766 289.031 383.766C288.806 382.925 289.291 382.082 290.112 381.861L290.112 381.861L290.125 381.858L290.817 381.66H291.065L291.082 381.643H355.483L368.88 435.726Z" fill="#B6B6B6" stroke="#323433" stroke-width="1.693"/>
<path d="M330.167 411.194C330.167 413.524 328.278 415.414 325.948 415.414C323.617 415.414 321.728 413.524 321.728 411.194C321.728 408.864 323.617 406.975 325.948 406.975C328.278 406.975 330.167 408.864 330.167 411.194Z" fill="#E6E9FC" stroke="#323433" stroke-width="1.693"/>
<path d="M368.456 434.215L368.456 434.215V434.205V433.333C368.456 432.497 369.134 431.811 369.978 431.811H421.839C422.675 431.811 423.361 432.488 423.361 433.333V434.205C423.361 435.04 422.683 435.727 421.839 435.727H369.978C369.124 435.727 368.446 435.033 368.456 434.215Z" fill="#BEBEBE" stroke="#323433" stroke-width="1.693"/>
<path d="M368.263 433.751L368.262 433.749L354.48 383.749C354.48 383.749 354.479 383.749 354.479 383.748C354.257 382.932 354.733 382.1 355.546 381.878L356.4 381.648L356.4 381.648L356.405 381.646C357.205 381.425 358.052 381.901 358.274 382.714L358.275 382.717L372.058 432.719L372.058 432.719C372.279 433.518 371.804 434.366 370.992 434.588C370.991 434.588 370.991 434.588 370.99 434.588L370.138 434.818L370.132 434.819C369.333 435.04 368.485 434.564 368.263 433.751Z" fill="#BEBEBE" stroke="#323433" stroke-width="1.693"/>
<path d="M388.335 440.175C388.401 442 397.891 446.705 406.79 447.51L388.335 440.175ZM388.335 440.175C388.293 439.239 397.529 437.812 406.407 436.439C413.095 435.405 419.58 434.403 421.747 433.665M388.335 440.175L421.747 433.665M421.747 433.665C421.849 433.71 421.89 433.739 421.894 433.742C421.895 433.742 421.895 433.743 421.895 433.742L422.065 433.546C422.454 433.382 422.598 433.233 422.448 433.102C422.316 432.987 422.095 432.881 421.801 432.78C421.834 432.737 421.865 432.709 421.882 432.696M421.747 433.665L430.245 425.898C430.245 425.898 421.741 422.509 415.03 422.954C408.336 423.398 404.306 424.582 404.52 428.036C404.654 430.195 410.965 431.063 416.092 431.767C418.484 432.096 420.618 432.389 421.746 432.762C421.813 432.733 421.857 432.711 421.882 432.696M421.882 432.696C421.883 432.695 421.884 432.694 421.886 432.693C421.903 432.682 421.899 432.682 421.882 432.696ZM435.939 443.293L435.636 443.085L435.277 443.164L435.459 443.991C435.277 443.164 435.277 443.164 435.277 443.164L435.276 443.164L435.274 443.164L435.264 443.167L435.222 443.176L435.057 443.212C434.911 443.243 434.696 443.289 434.418 443.347C433.863 443.464 433.059 443.629 432.066 443.826C430.08 444.219 427.341 444.734 424.326 445.223C418.259 446.208 411.194 447.067 406.868 446.668L406.866 446.667C402.524 446.274 398.015 444.925 394.585 443.448C392.87 442.709 391.452 441.949 390.473 441.279C389.997 440.954 389.65 440.666 389.425 440.429C389.598 440.364 389.817 440.293 390.083 440.215C391.013 439.945 392.369 439.648 394.027 439.332C397.336 438.702 401.746 438.016 406.126 437.339L406.547 437.274C410.772 436.621 414.937 435.977 417.978 435.404C419.543 435.11 420.844 434.828 421.711 434.566C422.124 434.44 422.524 434.296 422.802 434.117C422.917 434.042 423.178 433.861 423.296 433.534C423.366 433.34 423.376 433.115 423.3 432.896C423.23 432.692 423.105 432.552 423.005 432.465L423.002 432.461C422.788 432.277 422.522 432.149 422.279 432.053C422.023 431.953 421.726 431.865 421.407 431.785C420.768 431.624 419.972 431.48 419.094 431.342C418.215 431.204 417.232 431.069 416.213 430.929L416.203 430.928C415.177 430.787 414.111 430.64 413.058 430.479C410.939 430.153 408.926 429.774 407.442 429.276C406.697 429.026 406.141 428.765 405.782 428.502C405.418 428.236 405.369 428.058 405.365 427.984C405.323 427.302 405.487 426.783 405.808 426.355C406.142 425.908 406.693 425.5 407.52 425.143C409.193 424.422 411.746 424.02 415.086 423.798C418.302 423.585 421.999 424.293 424.936 425.077C426.395 425.466 427.648 425.87 428.536 426.176C428.979 426.328 429.33 426.456 429.57 426.546C429.614 426.562 429.655 426.578 429.691 426.591C429.753 426.615 429.804 426.634 429.842 426.649L429.911 426.676L429.927 426.682L429.931 426.684L429.931 426.684L429.932 426.684L429.932 426.684L430.027 426.722L430.128 426.736L466.495 431.786L467.859 431.975L467.412 430.673L457.083 400.54L457.083 400.539L454.49 392.99L481.71 373.23L483.221 378.151L483.221 378.153L503.961 444.976C503.961 444.977 503.961 444.977 503.961 444.978C504.578 447.02 504.878 449.091 504.878 451.129C504.878 457.264 502.191 463.19 497.308 467.22C490.132 473.131 479.923 473.558 472.272 468.294L435.939 443.293ZM421.891 433.739C421.869 433.72 421.837 433.689 421.804 433.645C421.898 433.613 421.982 433.581 422.058 433.549L421.891 433.739Z" fill="white" stroke="#323433" stroke-width="1.693"/>
<path d="M466.6 430.948L482.16 433.036" stroke="#323433" stroke-width="1.693" stroke-miterlimit="9" stroke-linecap="round"/>
<path d="M379.595 433.76C379.595 433.761 379.594 433.762 379.594 433.762L379.594 433.763C379.594 433.763 379.593 433.764 379.592 433.766C379.591 433.767 379.589 433.768 379.589 433.768L379.588 433.768C379.588 433.768 379.587 433.768 379.586 433.768C379.584 433.768 379.583 433.768 379.583 433.768L379.583 433.768C379.582 433.768 379.581 433.767 379.58 433.766C379.578 433.764 379.578 433.763 379.577 433.763L379.577 433.762C379.577 433.762 379.577 433.761 379.577 433.76C379.577 433.758 379.577 433.757 379.577 433.757L379.577 433.756C379.577 433.756 379.578 433.755 379.58 433.753C379.581 433.752 379.582 433.751 379.583 433.751L379.583 433.751C379.583 433.751 379.584 433.751 379.586 433.751C379.587 433.751 379.588 433.751 379.588 433.751L379.589 433.751C379.589 433.751 379.591 433.752 379.592 433.753C379.593 433.755 379.594 433.756 379.594 433.756L379.594 433.757C379.594 433.757 379.595 433.758 379.595 433.76Z" fill="#323433" stroke="#323433" stroke-width="1.693"/>
<path d="M383.063 433.76C383.063 433.761 383.063 433.762 383.063 433.762L383.063 433.763C383.063 433.763 383.062 433.764 383.061 433.766C383.059 433.767 383.058 433.768 383.058 433.768L383.057 433.768C383.057 433.768 383.056 433.768 383.055 433.768C383.053 433.768 383.052 433.768 383.052 433.768L383.051 433.768C383.051 433.768 383.05 433.767 383.048 433.766C383.047 433.764 383.046 433.763 383.046 433.763L383.046 433.762C383.046 433.762 383.046 433.761 383.046 433.76C383.046 433.758 383.046 433.757 383.046 433.757L383.046 433.756C383.046 433.756 383.047 433.755 383.048 433.753C383.05 433.752 383.051 433.751 383.051 433.751L383.052 433.751C383.052 433.751 383.053 433.751 383.055 433.751C383.056 433.751 383.057 433.751 383.057 433.751L383.058 433.751C383.058 433.751 383.059 433.752 383.061 433.753C383.062 433.755 383.063 433.756 383.063 433.756L383.063 433.757C383.063 433.757 383.063 433.758 383.063 433.76Z" fill="#323433" stroke="#323433" stroke-width="1.693"/>
<path d="M365.75 734.473L365.749 734.473C363.665 734.406 362.03 732.658 362.11 730.582L362.11 730.577L362.308 724.606L362.308 724.606C362.375 722.522 364.122 720.886 366.199 720.967L366.203 720.967L403.803 722.233L403.805 722.233C405.888 722.301 407.524 724.048 407.443 726.125L407.443 726.129L407.246 732.1L407.246 732.101C407.179 734.179 405.435 735.806 403.35 735.739C403.349 735.739 403.349 735.739 403.349 735.739L365.75 734.473Z" fill="#4F59C1" stroke="#323433" stroke-width="1.693"/>
<path d="M480.051 738.077L480.049 738.077C478.052 738.68 475.955 737.544 475.347 735.535C475.347 735.535 475.347 735.535 475.347 735.534L473.637 729.813L473.636 729.81C473.033 727.814 474.17 725.716 476.179 725.109C476.179 725.109 476.179 725.109 476.179 725.109L512.215 714.319L512.217 714.319C514.214 713.716 516.312 714.852 516.919 716.861C516.919 716.861 516.919 716.862 516.919 716.862L518.628 722.582C518.629 722.582 518.629 722.582 518.629 722.583C519.218 724.567 518.078 726.681 516.087 727.287C516.086 727.287 516.085 727.288 516.085 727.288L480.051 738.077Z" fill="#4F59C1" stroke="#323433" stroke-width="1.693"/>
<path d="M408.189 509.948L426.397 568.782" stroke="#323433" stroke-width="1.693" stroke-miterlimit="10" stroke-linecap="round" stroke-linejoin="round"/>
<path d="M407.929 510.073L426.137 568.908" stroke="#323433" stroke-width="1.693" stroke-miterlimit="10" stroke-linecap="round" stroke-linejoin="round"/>
<path d="M378.73 408.233C388.402 417.164 405.524 418.497 405.524 418.497" stroke="#323433" stroke-width="1.693" stroke-miterlimit="10" stroke-linecap="round" stroke-linejoin="round"/>
<path d="M453.47 392.689L441.117 371.865" stroke="#323433" stroke-width="1.693" stroke-miterlimit="10" stroke-linecap="round" stroke-linejoin="round"/>
<path d="M374.074 381.818C379.37 371.291 380.44 357.606 380.44 357.606" stroke="#323433" stroke-width="1.693" stroke-miterlimit="10" stroke-linecap="round" stroke-linejoin="round"/>
<path d="M332.645 245.375C341.2 258.799 337.659 276.091 324.789 284.01C311.919 291.93 294.541 287.51 285.985 274.086C277.43 260.661 280.971 243.369 293.841 235.45C306.711 227.531 324.09 231.95 332.645 245.375Z" fill="#E2810E" stroke="#323433" stroke-width="0.744453"/>
<path d="M296.671 233.736C309.287 225.854 327.326 230.063 336.208 243.791C345.179 257.64 341.261 275.653 328.396 283.424C315.663 291.113 297.677 286.652 288.96 272.815C280.336 259.096 284.186 241.538 296.671 233.736Z" fill="#F9C13D" stroke="#323433" stroke-width="0.744453" stroke-miterlimit="10"/>
<path d="M316.281 236.605L295.317 249.631C292.102 253.539 291.821 259.166 294.491 263.349C297.71 268.418 304.801 269.963 310.351 267.007C310.889 264.168 311.278 262.892 311.816 260.053C311.101 260.447 309.706 261.296 308.989 261.719C307.25 262.748 308.596 261.872 305.96 263.439C305.058 263.976 301.379 263.149 299.599 260.923C298.142 259.099 298.043 256.288 299.402 253.942L314.183 244.573L316.281 236.605Z" fill="white" stroke="#323433" stroke-width="0.744453" stroke-miterlimit="10"/>
<path d="M308.006 279.827L329.098 266.973C332.348 263.094 332.664 257.472 330.033 253.262C326.851 248.165 321.409 245.117 313.874 250.402C313.313 253.237 313.098 254.7 312.536 257.538C313.255 257.15 315.259 255.961 315.969 255.522C317.254 254.732 316.346 255.171 319.029 253.678C320.255 252.995 323.141 253.408 324.905 255.65C326.344 257.488 327.141 259.551 325.09 262.566C320.132 265.647 315.131 268.795 310.173 271.88L308.006 279.827Z" fill="white" stroke="#323433" stroke-width="0.744453" stroke-miterlimit="10"/>
<ellipse rx="26.076" ry="28.7295" transform="matrix(0.99644 0.0880623 -0.162661 0.987139 345.504 125.669)" fill="#E9761A" stroke="#323433" stroke-width="1.14949"/>
<ellipse rx="26.076" ry="28.7295" transform="matrix(0.99644 0.0880623 -0.162662 0.987139 342.658 126.251)" fill="#F9C13D" stroke="#323433" stroke-width="1.14949"/>
<mask id="path-118-inside-4_601_7" fill="white">
<path d="M344.81 108.419C345.644 108.066 346.431 109.146 345.897 109.925C345.558 110.569 344.632 110.661 344.25 110.109C343.838 109.574 344.144 108.625 344.81 108.419ZM336.398 108.58C336.896 108.419 337.417 108.932 337.287 109.469C337.247 110.063 336.505 110.431 336.072 110.106C335.481 109.786 335.72 108.702 336.398 108.58ZM353.092 111.748C352.377 111.584 352.448 110.351 353.189 110.172C353.777 109.941 354.195 110.519 354.191 111.077C354.005 111.536 353.57 111.931 353.092 111.748ZM337.706 112.509C338.567 112.057 339.561 112.947 339.293 113.901C339.103 114.873 337.801 115.322 337.216 114.597C336.632 114.016 336.914 112.837 337.706 112.509ZM349.537 114.204C350.031 113.281 351.447 113.387 351.701 114.356C351.982 115.118 351.363 115.969 350.627 116.149C349.674 116.244 348.959 115.095 349.537 114.204ZM342.742 115.341C342.86 114.518 343.656 113.973 344.398 113.987C344.868 114.137 345.365 114.408 345.493 114.951C345.772 115.709 345.275 116.67 344.522 116.934C344.171 117.095 343.802 116.987 343.456 116.931C342.964 116.6 342.597 116.008 342.742 115.341ZM330.264 115.365C331.049 114.966 331.881 115.91 331.484 116.71C331.227 117.41 330.282 117.614 329.836 117.109C329.352 116.63 329.596 115.611 330.264 115.365ZM356.665 117.884C357.346 117.441 358.257 118.11 358.06 118.917C357.987 119.664 357.039 120.141 356.497 119.701C355.884 119.321 355.982 118.231 356.665 117.884ZM345.79 118.345C346.847 118.058 347.963 118.629 348.387 119.631C348.96 120.862 348.291 122.59 347.024 123.144C345.697 123.816 344.037 122.981 343.811 121.502C343.501 120.168 344.484 118.629 345.79 118.345ZM339.913 117.912C341.105 117.461 342.523 118.07 342.873 119.327C343.322 120.561 342.586 122.15 341.369 122.648C340.139 123.222 338.63 122.554 338.277 121.242C337.853 119.964 338.648 118.361 339.913 117.912ZM333.722 119.489C333.922 118.737 334.67 118.307 335.356 118.321C336.073 118.485 336.565 119.145 336.524 119.941C336.356 120.717 335.674 121.426 334.898 121.347C334.032 121.344 333.422 120.367 333.722 119.489ZM351.22 120.003C352.179 119.543 353.276 120.451 353.073 121.52C352.959 122.663 351.489 123.336 350.718 122.585C349.896 121.943 350.206 120.386 351.22 120.003ZM336.765 122.689C337.836 122.486 338.93 123.113 339.279 124.165C339.675 125.229 339.235 126.612 338.266 127.271C337.003 128.254 335.046 127.624 334.689 126.084C334.226 124.66 335.32 122.914 336.765 122.689ZM347.876 123.744C348.919 123.535 350.027 124.057 350.415 125.075C350.954 126.25 350.364 127.868 349.2 128.481C347.968 129.204 346.324 128.605 345.914 127.252C345.381 125.842 346.413 124.019 347.876 123.744ZM329.978 123.316C330.918 123.044 331.741 124.179 331.239 125.081C330.889 125.912 329.714 126.12 329.227 125.436C328.636 124.78 329.089 123.491 329.978 123.316ZM353.777 126.966C353.871 126.182 354.514 125.54 355.273 125.569C355.864 125.729 356.374 126.307 356.218 127.006C356.132 127.941 354.984 128.472 354.308 127.964C353.988 127.743 353.868 127.345 353.777 126.966ZM325.553 123.36C326.123 123.163 326.707 123.718 326.489 124.337C326.352 125.048 325.32 125.228 325.048 124.597C324.79 124.152 325.08 123.531 325.553 123.36ZM359.152 126.553C359.571 126.304 360.142 126.566 360.219 127.047C360.393 127.582 359.824 128.236 359.298 128.099C358.531 128.1 358.474 126.848 359.152 126.553ZM338.875 128.094C340.336 127.84 341.653 129.229 341.427 130.769C341.28 132.332 339.585 133.569 338.205 133.073C337.124 132.777 336.428 131.555 336.647 130.363C336.818 129.221 337.79 128.236 338.875 128.094ZM344.428 128.621C345.916 128.333 347.274 129.75 347.011 131.321C346.853 132.855 345.211 134.049 343.852 133.613C342.557 133.304 341.818 131.663 342.397 130.33C342.722 129.437 343.55 128.764 344.428 128.621ZM333.577 128.546C334.589 128.461 335.333 129.72 334.782 130.678C334.328 131.712 332.834 131.862 332.325 130.933C331.701 130.029 332.495 128.559 333.577 128.546ZM349.854 130.148C350.792 129.839 351.746 130.752 351.524 131.761C351.388 132.882 349.939 133.526 349.18 132.792C348.297 132.113 348.738 130.406 349.854 130.148ZM353.662 135.447C353.423 134.731 354.186 133.885 354.878 134.08C355.233 134.107 355.435 134.428 355.624 134.7C355.609 135.109 355.613 135.599 355.25 135.881C354.734 136.417 353.789 136.16 353.662 135.447ZM327.766 131.685C328.504 131.276 329.353 132.071 329.077 132.886C328.885 133.611 327.955 133.947 327.448 133.477C326.893 133.041 327.08 131.968 327.766 131.685ZM340.671 134.473C341.605 134.147 342.591 135.06 342.352 136.074C342.244 137.21 340.752 137.861 340.005 137.101C339.148 136.429 339.567 134.731 340.671 134.473ZM334.354 135.405C335.16 135.06 336.045 135.873 335.842 136.751C335.754 137.479 334.994 138.035 334.338 137.863C333.783 137.797 333.501 137.23 333.4 136.707C333.493 136.157 333.8 135.563 334.354 135.405ZM346.68 136.594C347.519 136.165 348.493 136.99 348.276 137.929C348.145 138.919 346.823 139.435 346.212 138.718C345.602 138.144 345.873 136.928 346.68 136.594ZM347.96 142.447C347.705 141.867 348.205 141.246 348.775 141.174C349.203 141.312 349.617 141.712 349.44 142.25C349.262 142.985 348.211 143.115 347.96 142.447ZM331.016 140.347C331.217 139.926 331.61 139.527 332.072 139.685C332.762 139.805 332.798 140.946 332.134 141.233C331.524 141.575 330.969 140.974 331.016 140.347ZM339.149 141.628C339.381 141 340.208 140.762 340.669 141.152C340.985 141.339 341.022 141.753 341.057 142.105C340.983 142.28 340.914 142.455 340.845 142.63C340.595 142.876 340.284 143.116 339.935 143.073C339.273 143.092 338.806 142.253 339.149 141.628Z"/>
</mask>
<path d="M344.81 108.419C345.644 108.066 346.431 109.146 345.897 109.925C345.558 110.569 344.632 110.661 344.25 110.109C343.838 109.574 344.144 108.625 344.81 108.419ZM336.398 108.58C336.896 108.419 337.417 108.932 337.287 109.469C337.247 110.063 336.505 110.431 336.072 110.106C335.481 109.786 335.72 108.702 336.398 108.58ZM353.092 111.748C352.377 111.584 352.448 110.351 353.189 110.172C353.777 109.941 354.195 110.519 354.191 111.077C354.005 111.536 353.57 111.931 353.092 111.748ZM337.706 112.509C338.567 112.057 339.561 112.947 339.293 113.901C339.103 114.873 337.801 115.322 337.216 114.597C336.632 114.016 336.914 112.837 337.706 112.509ZM349.537 114.204C350.031 113.281 351.447 113.387 351.701 114.356C351.982 115.118 351.363 115.969 350.627 116.149C349.674 116.244 348.959 115.095 349.537 114.204ZM342.742 115.341C342.86 114.518 343.656 113.973 344.398 113.987C344.868 114.137 345.365 114.408 345.493 114.951C345.772 115.709 345.275 116.67 344.522 116.934C344.171 117.095 343.802 116.987 343.456 116.931C342.964 116.6 342.597 116.008 342.742 115.341ZM330.264 115.365C331.049 114.966 331.881 115.91 331.484 116.71C331.227 117.41 330.282 117.614 329.836 117.109C329.352 116.63 329.596 115.611 330.264 115.365ZM356.665 117.884C357.346 117.441 358.257 118.11 358.06 118.917C357.987 119.664 357.039 120.141 356.497 119.701C355.884 119.321 355.982 118.231 356.665 117.884ZM345.79 118.345C346.847 118.058 347.963 118.629 348.387 119.631C348.96 120.862 348.291 122.59 347.024 123.144C345.697 123.816 344.037 122.981 343.811 121.502C343.501 120.168 344.484 118.629 345.79 118.345ZM339.913 117.912C341.105 117.461 342.523 118.07 342.873 119.327C343.322 120.561 342.586 122.15 341.369 122.648C340.139 123.222 338.63 122.554 338.277 121.242C337.853 119.964 338.648 118.361 339.913 117.912ZM333.722 119.489C333.922 118.737 334.67 118.307 335.356 118.321C336.073 118.485 336.565 119.145 336.524 119.941C336.356 120.717 335.674 121.426 334.898 121.347C334.032 121.344 333.422 120.367 333.722 119.489ZM351.22 120.003C352.179 119.543 353.276 120.451 353.073 121.52C352.959 122.663 351.489 123.336 350.718 122.585C349.896 121.943 350.206 120.386 351.22 120.003ZM336.765 122.689C337.836 122.486 338.93 123.113 339.279 124.165C339.675 125.229 339.235 126.612 338.266 127.271C337.003 128.254 335.046 127.624 334.689 126.084C334.226 124.66 335.32 122.914 336.765 122.689ZM347.876 123.744C348.919 123.535 350.027 124.057 350.415 125.075C350.954 126.25 350.364 127.868 349.2 128.481C347.968 129.204 346.324 128.605 345.914 127.252C345.381 125.842 346.413 124.019 347.876 123.744ZM329.978 123.316C330.918 123.044 331.741 124.179 331.239 125.081C330.889 125.912 329.714 126.12 329.227 125.436C328.636 124.78 329.089 123.491 329.978 123.316ZM353.777 126.966C353.871 126.182 354.514 125.54 355.273 125.569C355.864 125.729 356.374 126.307 356.218 127.006C356.132 127.941 354.984 128.472 354.308 127.964C353.988 127.743 353.868 127.345 353.777 126.966ZM325.553 123.36C326.123 123.163 326.707 123.718 326.489 124.337C326.352 125.048 325.32 125.228 325.048 124.597C324.79 124.152 325.08 123.531 325.553 123.36ZM359.152 126.553C359.571 126.304 360.142 126.566 360.219 127.047C360.393 127.582 359.824 128.236 359.298 128.099C358.531 128.1 358.474 126.848 359.152 126.553ZM338.875 128.094C340.336 127.84 341.653 129.229 341.427 130.769C341.28 132.332 339.585 133.569 338.205 133.073C337.124 132.777 336.428 131.555 336.647 130.363C336.818 129.221 337.79 128.236 338.875 128.094ZM344.428 128.621C345.916 128.333 347.274 129.75 347.011 131.321C346.853 132.855 345.211 134.049 343.852 133.613C342.557 133.304 341.818 131.663 342.397 130.33C342.722 129.437 343.55 128.764 344.428 128.621ZM333.577 128.546C334.589 128.461 335.333 129.72 334.782 130.678C334.328 131.712 332.834 131.862 332.325 130.933C331.701 130.029 332.495 128.559 333.577 128.546ZM349.854 130.148C350.792 129.839 351.746 130.752 351.524 131.761C351.388 132.882 349.939 133.526 349.18 132.792C348.297 132.113 348.738 130.406 349.854 130.148ZM353.662 135.447C353.423 134.731 354.186 133.885 354.878 134.08C355.233 134.107 355.435 134.428 355.624 134.7C355.609 135.109 355.613 135.599 355.25 135.881C354.734 136.417 353.789 136.16 353.662 135.447ZM327.766 131.685C328.504 131.276 329.353 132.071 329.077 132.886C328.885 133.611 327.955 133.947 327.448 133.477C326.893 133.041 327.08 131.968 327.766 131.685ZM340.671 134.473C341.605 134.147 342.591 135.06 342.352 136.074C342.244 137.21 340.752 137.861 340.005 137.101C339.148 136.429 339.567 134.731 340.671 134.473ZM334.354 135.405C335.16 135.06 336.045 135.873 335.842 136.751C335.754 137.479 334.994 138.035 334.338 137.863C333.783 137.797 333.501 137.23 333.4 136.707C333.493 136.157 333.8 135.563 334.354 135.405ZM346.68 136.594C347.519 136.165 348.493 136.99 348.276 137.929C348.145 138.919 346.823 139.435 346.212 138.718C345.602 138.144 345.873 136.928 346.68 136.594ZM347.96 142.447C347.705 141.867 348.205 141.246 348.775 141.174C349.203 141.312 349.617 141.712 349.44 142.25C349.262 142.985 348.211 143.115 347.96 142.447ZM331.016 140.347C331.217 139.926 331.61 139.527 332.072 139.685C332.762 139.805 332.798 140.946 332.134 141.233C331.524 141.575 330.969 140.974 331.016 140.347ZM339.149 141.628C339.381 141 340.208 140.762 340.669 141.152C340.985 141.339 341.022 141.753 341.057 142.105C340.983 142.28 340.914 142.455 340.845 142.63C340.595 142.876 340.284 143.116 339.935 143.073C339.273 143.092 338.806 142.253 339.149 141.628Z" fill="#FBFFFF" stroke="#323433" stroke-width="2.29898" mask="url(#path-118-inside-4_601_7)"/>
<path d="M366.385 128.391C364.496 142.064 352.293 151.979 339.171 150.591C326.049 149.204 316.899 137.03 318.788 123.357C320.678 109.683 332.881 99.7681 346.002 101.156C359.124 102.544 368.275 114.717 366.385 128.391Z" stroke="#323433" stroke-width="1.14949"/>
<path d="M217.201 162.585C216.585 163.06 216.015 163.596 215.496 164.188C213.383 166.585 212.306 169.838 212.265 173.947C212.22 179.191 213.867 184.293 217.206 189.252C220.546 194.212 224.609 197.579 229.395 199.353C233.147 200.757 236.475 200.847 239.379 199.623C240.057 199.36 240.702 199.024 241.305 198.619L241.992 198.126C245.204 195.657 246.839 191.877 246.897 186.786C246.959 181.548 245.317 176.442 241.972 171.469C238.626 166.496 234.563 163.129 229.782 161.368C225.131 159.637 221.125 159.908 217.766 162.18L217.201 162.585Z" fill="#F9C13D" stroke="#323433" stroke-width="0.97592"/>
<path d="M212.413 192.483C215.711 197.376 219.703 200.698 224.389 202.448C228.993 204.165 232.95 203.892 236.261 201.628L240.314 198.721C239.723 199.118 239.09 199.447 238.424 199.704C235.574 200.896 232.307 200.799 228.622 199.413C223.926 197.669 219.929 194.351 216.63 189.459C213.332 184.566 211.708 179.546 211.758 174.399C211.792 170.368 212.841 167.175 214.907 164.82C215.416 164.24 215.974 163.715 216.577 163.25L212.42 166.231C212.342 166.28 212.267 166.334 212.195 166.392C209.121 168.792 207.566 172.463 207.528 177.405C207.494 182.576 209.122 187.602 212.413 192.483Z" fill="#F37C40" stroke="#323433" stroke-width="0.97592"/>
<path d="M224.057 170.268L223.569 170.603L222.068 168.467L218.884 170.655L220.38 172.784L216.803 175.241L219.188 178.633L220.677 177.609L227.954 187.959L226.465 188.983L228.842 192.364L232.419 189.906L233.923 192.045L237.107 189.858L235.61 187.729L236.098 187.394C237.375 186.514 238.222 185.132 238.451 183.552C238.681 181.971 238.275 180.321 237.323 178.964C236.45 177.68 235.14 176.759 233.669 176.394C233.834 174.903 233.416 173.367 232.504 172.109C231.549 170.752 230.125 169.8 228.546 169.462C226.967 169.123 225.361 169.425 224.081 170.302L224.057 170.268ZM223.868 175.412L226.434 173.649C226.865 173.353 227.407 173.25 227.939 173.364C228.471 173.478 228.951 173.799 229.273 174.257C229.588 174.704 229.726 175.247 229.66 175.77C229.593 176.293 229.326 176.756 228.915 177.061L226.281 178.871L223.868 175.412ZM232.776 180.22C233.043 180.275 233.3 180.383 233.531 180.538C233.762 180.693 233.963 180.892 234.12 181.124C234.442 181.581 234.579 182.138 234.502 182.671C234.424 183.204 234.138 183.67 233.707 183.966L231.141 185.729L228.691 182.244L231.299 180.452C231.729 180.178 232.26 180.095 232.776 180.22Z" fill="white" stroke="#323433" stroke-width="0.97592" stroke-linecap="round" stroke-linejoin="round"/>
</svg>
