<svg width="722" height="700" viewBox="0 0 722 700" fill="none" xmlns="http://www.w3.org/2000/svg">
<path d="M10.5038 413C15.7527 413 20.0077 408.747 20.0077 403.5C20.0077 398.253 15.7527 394 10.5038 394C5.25502 394 1 398.253 1 403.5C1 408.747 5.25502 413 10.5038 413Z" fill="#F9BE3D" stroke="#323433" stroke-width="1.71128" stroke-linecap="round" stroke-linejoin="round"/>
<path d="M307.44 272.252L296.188 283.439L285 272.187L296.252 261L307.44 272.252Z" fill="#52CCA7" stroke="#323433" stroke-width="2.15531" stroke-linecap="round" stroke-linejoin="round"/>
<path d="M100.014 179.958L73.9727 193.742L78.5725 201.698L104.614 187.913L100.014 179.958Z" fill="#EA4235"/>
<path d="M106.043 188.434L78.272 203.092L72.5459 193.22L100.317 178.562L106.043 188.434ZM78.9185 200.172L103.106 187.405L99.6706 181.482L75.4828 194.249L78.9185 200.172Z" fill="#323433"/>
<path d="M524.629 0.999898L528.483 14.6294L514.854 18.4836L511 4.85405L524.629 0.999898Z" fill="#FF8233" stroke="#323433" stroke-width="1.92392" stroke-linecap="round" stroke-linejoin="round"/>
<path d="M687.694 100.505C686.451 97.547 683.155 96.3838 680.331 97.9065C677.508 99.4293 676.227 103.061 677.471 106.019C678.714 108.976 682.01 110.14 684.833 108.617C687.657 107.094 688.937 103.462 687.694 100.505Z" fill="#F9BE3D"/>
<path d="M688.134 100.27C689.485 103.483 688.095 107.423 685.028 109.077C681.961 110.732 678.385 109.47 677.035 106.257C675.684 103.043 677.073 99.1032 680.14 97.449C683.207 95.7947 686.79 97.072 688.134 100.27ZM677.911 105.784C679.043 108.477 682.072 109.546 684.642 108.159C687.213 106.773 688.39 103.435 687.258 100.742C686.126 98.0495 683.097 96.9806 680.526 98.367C677.956 99.7534 676.779 103.091 677.911 105.784Z" fill="#323433"/>
<path d="M683.075 107.161C684.823 111.24 683.051 116.266 679.134 118.342C675.217 120.418 670.591 118.783 668.843 114.705C667.095 110.626 668.867 105.6 672.784 103.524C676.701 101.447 681.327 103.082 683.075 107.161ZM669.724 114.238C671.256 117.813 675.308 119.245 678.741 117.425C682.175 115.606 683.726 111.202 682.194 107.628C680.662 104.053 676.61 102.621 673.177 104.44C669.744 106.26 668.192 110.663 669.724 114.238Z" fill="#323433"/>
<path d="M272.092 126.342L294.094 125.448L280.029 104.678L272.092 126.342Z" fill="#4385F5"/>
<path d="M295.97 126.487L270.603 127.518L279.754 102.533L295.97 126.487ZM273.655 125.213L292.292 124.455L280.38 106.87L273.655 125.213Z" fill="#323433"/>
<path d="M298.626 116.27L266.278 117.787L278.526 86.5296L298.626 116.27ZM269.42 115.474L294.93 114.277L279.081 90.8354L269.42 115.474Z" fill="#323433"/>
<path d="M15.4768 554.117L12.7485 554.269L10.6982 535.843L28.8866 534.832L26.9981 517.861L44.7319 516.876L43.0052 501.359L45.7335 501.208L47.7839 519.633L30.0501 520.619L31.9386 537.59L13.7502 538.601L15.4768 554.117Z" fill="#323433"/>
<path d="M12.1405 616.543C12.1405 585.678 37.1614 560.657 68.0263 560.657H389.543V628.33H12.1405V616.543Z" fill="#4F59C1" stroke="#323433" stroke-width="2.28105"/>
<path d="M513.665 680.467C514.095 684.599 514.569 690.202 515.088 697.274H536.222V688.467C527.033 680.757 518.728 672.398 511.406 663.491C512.282 668.776 513.035 674.445 513.665 680.5V680.467ZM360 548.797V650.919C378.034 631.838 393.348 611.193 405.656 589.37C407.436 586.26 408.747 584.12 409.59 582.95C410.992 580.891 412.801 579.03 414.946 577.437C417.164 575.804 419.928 574.729 422.897 574.344C424.321 574.118 425.786 574.12 427.208 574.351C428.63 574.582 429.981 575.037 431.183 575.689C431.584 575.923 431.962 576.181 432.313 576.462C434.891 578.51 436.425 581.872 436.916 586.547C439.093 605.255 432.578 626.017 417.373 648.835C412.91 655.424 405.907 664.69 396.366 676.635C389.81 684.823 384.509 691.625 380.464 697.039L468.805 697.241L465.08 680.299C464.048 675.257 463.378 671.503 463.071 669.038C462.543 665.297 462.515 661.522 462.988 657.777C463.473 653.973 464.776 650.265 466.838 646.818C468.824 643.423 471.812 640.469 475.542 638.213C478.003 636.754 480.808 635.713 483.786 635.154C485.448 634.852 487.146 634.694 488.85 634.683C490.337 634.665 491.823 634.766 493.286 634.986C493.219 634.798 493.143 634.609 493.076 634.414C490.984 628.633 490.412 623.254 491.361 618.279C491.754 615.915 492.705 613.633 494.164 611.556C495.55 609.512 497.723 607.885 500.358 606.917L500.902 606.716C503.612 605.949 506.551 605.879 509.313 606.514C512.393 607.158 515.31 608.227 517.934 609.674C523.514 612.65 528.828 616.852 533.878 622.279C534.598 623.059 535.385 627.032 536.222 628L722.654 628.443L722.57 548.763C722.604 506.019 722.632 591.513 722.654 548.763L449.303 548.763L360 548.797Z" fill="#004357" stroke="#323433" stroke-width="2.28105"/>
<path d="M484.629 635.847C481.65 636.405 478.845 637.446 476.385 638.906C472.654 641.162 469.666 644.116 467.68 647.511C465.618 650.958 464.316 654.665 463.83 658.469C463.357 662.215 463.385 665.99 463.914 669.73C464.226 672.196 464.896 675.949 465.923 680.991L469.521 697.9H494.839C494.086 678.524 490.683 657.829 484.629 635.813V635.847ZM510.156 607.207C507.394 606.572 504.454 606.642 501.744 607.408C510.609 625.386 522.493 642.305 537.064 657.696V625.628C536.227 624.66 535.44 623.786 534.721 623.006C529.699 617.578 524.384 613.376 518.776 610.4C516.153 608.953 513.236 607.884 510.156 607.24V607.207ZM360.759 697.665H381.181C385.259 692.255 390.56 685.453 397.083 677.26C406.624 665.311 413.627 656.045 418.09 649.461C433.295 626.647 439.809 605.884 437.633 587.172C437.148 582.52 435.614 579.158 433.03 577.088C424.607 598.873 413.563 619.949 400.054 640.015C388.621 657.005 375.479 673.216 360.759 688.488V697.665Z" fill="#B8E341" stroke="#323433" stroke-width="2.28105"/>
<path fill-rule="evenodd" clip-rule="evenodd" d="M489.693 635.375C491.181 635.357 492.667 635.458 494.129 635.678C496.163 640.759 498.812 645.668 502.038 650.334C505.197 655.085 508.6 659.701 512.249 664.183C513.131 669.472 513.884 675.142 514.509 681.193C514.939 685.334 515.413 690.937 515.932 698L494.841 697.933C494.093 678.562 490.689 657.866 484.63 635.846C486.292 635.544 487.989 635.386 489.693 635.375ZM360.76 688.487V651.612C378.794 632.53 394.108 611.885 406.416 590.063C408.202 586.948 409.513 584.807 410.35 583.642C411.752 581.584 413.561 579.722 415.706 578.129C417.923 576.496 420.688 575.421 423.657 575.037C425.081 574.81 426.546 574.813 427.968 575.043C429.39 575.274 430.741 575.729 431.943 576.381C432.344 576.615 432.722 576.873 433.073 577.154C424.631 598.918 413.573 619.971 400.055 640.014C388.622 657.005 375.48 673.216 360.76 688.487ZM431.692 180.431C435.084 180.138 438.492 179.992 441.903 179.994C444.707 179.994 447.452 180.095 450.147 180.296V180.362C468.657 181.87 484.739 188.1 498.392 199.054C514.239 211.779 522.148 227.141 522.12 245.14V376.003C522.144 377.953 522.653 379.879 523.616 381.668C524.579 383.457 525.977 385.074 527.728 386.424C530.401 388.574 533.808 390.038 537.517 390.632C541.227 391.226 545.072 390.922 548.567 389.76C552.061 388.597 555.048 386.628 557.149 384.102C559.25 381.575 560.371 378.605 560.369 375.566V329.951C560.375 311.956 568.298 296.594 584.139 283.865C599.98 271.136 619.104 264.772 641.512 264.772C663.859 264.776 682.97 271.14 698.844 283.865C714.718 296.589 722.655 311.951 722.655 329.951V366.86V559.789H450.147V560.359H360.76L360.76 245.139C360.623 235.401 363.257 225.767 368.46 216.97C372.52 210.313 377.953 204.255 384.53 199.053C397.91 188.328 413.631 182.12 431.692 180.431Z" fill="#00B07A"/>
<path d="M494.129 635.678L495.188 635.254L494.945 634.647L494.299 634.55L494.129 635.678ZM489.693 635.375L489.701 636.516L489.708 636.516L489.693 635.375ZM502.038 650.334L502.988 649.703L502.982 649.694L502.977 649.685L502.038 650.334ZM512.249 664.183L513.374 663.996L513.325 663.698L513.134 663.463L512.249 664.183ZM514.509 681.193L513.375 681.31L513.375 681.31L514.509 681.193ZM515.932 698L515.928 699.141L517.16 699.145L517.069 697.917L515.932 698ZM494.841 697.933L493.701 697.977L493.743 699.07L494.837 699.073L494.841 697.933ZM484.63 635.846L484.426 634.724L483.199 634.947L483.53 636.149L484.63 635.846ZM360.76 651.612L359.931 650.828L359.619 651.158V651.612H360.76ZM360.76 688.487H359.619V691.314L361.581 689.279L360.76 688.487ZM406.416 590.063L405.426 589.495L405.423 589.502L406.416 590.063ZM410.35 583.642L411.276 584.307L411.284 584.296L411.292 584.284L410.35 583.642ZM415.706 578.129L415.03 577.211L415.026 577.213L415.706 578.129ZM423.657 575.037L423.804 576.168L423.82 576.166L423.836 576.163L423.657 575.037ZM427.968 575.043L428.15 573.918H428.15L427.968 575.043ZM431.943 576.381L432.517 575.396L432.502 575.387L432.487 575.379L431.943 576.381ZM433.073 577.154L434.136 577.567L434.439 576.787L433.786 576.264L433.073 577.154ZM400.055 640.014L399.11 639.377L399.109 639.378L400.055 640.014ZM441.903 179.994L441.902 181.134H441.903V179.994ZM431.692 180.431L431.594 179.294L431.586 179.295L431.692 180.431ZM450.147 180.296H451.288V179.238L450.232 179.159L450.147 180.296ZM450.147 180.362H449.007V181.414L450.054 181.499L450.147 180.362ZM498.392 199.054L499.107 198.165L499.106 198.165L498.392 199.054ZM522.12 245.14L520.98 245.139V245.14H522.12ZM522.12 376.003H520.98L520.98 376.017L522.12 376.003ZM527.728 386.424L528.443 385.535L528.433 385.528L528.424 385.521L527.728 386.424ZM548.567 389.76L548.927 390.842L548.567 389.76ZM560.369 375.566H559.229L559.229 375.567L560.369 375.566ZM560.369 329.951L559.229 329.951V329.951H560.369ZM584.139 283.865L584.853 284.754L584.139 283.865ZM641.512 264.772L641.513 263.631H641.512V264.772ZM722.655 559.789V560.929H723.796V559.789H722.655ZM450.147 559.789V558.648H449.007V559.789H450.147ZM450.147 560.359V561.5H451.288V560.359H450.147ZM360.76 560.359H359.619V561.5H360.76V560.359ZM360.76 245.139H361.9V245.131L361.9 245.123L360.76 245.139ZM368.46 216.97L367.486 216.376L367.482 216.383L367.478 216.389L368.46 216.97ZM384.53 199.053L385.237 199.948L385.243 199.943L384.53 199.053ZM494.299 634.55C492.775 634.321 491.228 634.216 489.679 634.235L489.708 636.516C491.134 636.498 492.559 636.595 493.96 636.806L494.299 634.55ZM502.977 649.685C499.797 645.087 497.189 640.253 495.188 635.254L493.07 636.102C495.137 641.265 497.827 646.249 501.1 650.983L502.977 649.685ZM513.134 663.463C509.508 659.01 506.126 654.423 502.988 649.703L501.089 650.965C504.267 655.747 507.693 660.393 511.365 664.904L513.134 663.463ZM515.644 681.075C515.017 675.004 514.26 669.311 513.374 663.996L511.124 664.371C512.002 669.634 512.752 675.28 513.375 681.31L515.644 681.075ZM517.069 697.917C516.55 690.848 516.075 685.233 515.644 681.075L513.375 681.31C513.803 685.435 514.276 691.025 514.794 698.084L517.069 697.917ZM494.837 699.073L515.928 699.141L515.936 696.86L494.844 696.792L494.837 699.073ZM483.53 636.149C489.57 658.099 492.957 678.707 493.701 697.977L495.98 697.889C495.229 678.416 491.808 657.633 485.729 635.544L483.53 636.149ZM489.686 634.235C487.917 634.246 486.153 634.41 484.426 634.724L484.834 636.968C486.43 636.678 488.062 636.526 489.701 636.516L489.686 634.235ZM359.619 651.612V688.487H361.9V651.612H359.619ZM405.423 589.502C393.162 611.24 377.904 631.811 359.931 650.828L361.589 652.395C379.683 633.249 395.054 612.53 407.409 590.623L405.423 589.502ZM409.423 582.977C408.548 584.195 407.211 586.382 405.427 589.495L407.406 590.63C409.192 587.513 410.477 585.42 411.276 584.307L409.423 582.977ZM415.026 577.213C412.786 578.876 410.886 580.829 409.407 583L411.292 584.284C412.618 582.338 414.336 580.567 416.386 579.045L415.026 577.213ZM423.511 573.906C420.367 574.313 417.416 575.453 415.03 577.211L416.383 579.048C418.431 577.539 421.009 576.53 423.804 576.168L423.511 573.906ZM428.15 573.918C426.608 573.667 425.021 573.665 423.478 573.91L423.836 576.163C425.14 575.956 426.483 575.958 427.785 576.169L428.15 573.918ZM432.487 575.379C431.166 574.662 429.692 574.168 428.15 573.918L427.785 576.169C429.087 576.381 430.316 576.796 431.399 577.384L432.487 575.379ZM433.786 576.264C433.39 575.947 432.965 575.657 432.517 575.396L431.369 577.367C431.723 577.573 432.055 577.8 432.361 578.045L433.786 576.264ZM401.001 640.652C414.565 620.541 425.663 599.413 434.136 577.567L432.01 576.742C423.6 598.424 412.582 619.401 399.11 639.377L401.001 640.652ZM361.581 689.279C376.345 673.961 389.53 657.698 401.001 640.651L399.109 639.378C387.714 656.311 374.614 672.471 359.939 687.696L361.581 689.279ZM441.904 178.853C438.46 178.851 435.018 178.998 431.594 179.294L431.79 181.567C435.149 181.277 438.524 181.132 441.902 181.134L441.904 178.853ZM450.232 179.159C447.508 178.955 444.734 178.853 441.903 178.853V181.134C444.679 181.134 447.396 181.234 450.062 181.434L450.232 179.159ZM451.288 180.362V180.296H449.007V180.362H451.288ZM499.106 198.165C485.264 187.059 468.962 180.75 450.24 179.226L450.054 181.499C468.352 182.989 484.214 189.141 497.679 199.944L499.106 198.165ZM523.261 245.142C523.289 226.748 515.184 211.075 499.107 198.165L497.678 199.944C513.294 212.483 521.007 227.533 520.98 245.139L523.261 245.142ZM523.261 376.003V245.14H520.98V376.003H523.261ZM524.62 381.128C523.74 379.493 523.282 377.747 523.261 375.989L520.98 376.017C521.006 378.159 521.565 380.264 522.611 382.208L524.62 381.128ZM528.424 385.521C526.789 384.26 525.5 382.764 524.62 381.128L522.611 382.208C523.657 384.151 525.165 385.889 527.032 387.327L528.424 385.521ZM537.697 389.506C534.165 388.94 530.947 387.549 528.443 385.535L527.013 387.313C529.855 389.598 533.451 391.136 537.337 391.758L537.697 389.506ZM548.207 388.678C544.89 389.781 541.23 390.071 537.697 389.506L537.337 391.758C541.224 392.38 545.255 392.063 548.927 390.842L548.207 388.678ZM556.272 383.372C554.323 385.716 551.525 387.574 548.207 388.678L548.927 390.842C552.598 389.621 555.773 387.54 558.026 384.831L556.272 383.372ZM559.229 375.567C559.23 378.316 558.218 381.033 556.272 383.372L558.026 384.831C560.283 382.117 561.511 378.893 561.51 375.566L559.229 375.567ZM559.229 329.951V375.566H561.51V329.951H559.229ZM583.424 282.976C567.354 295.889 559.234 311.562 559.229 329.951L561.51 329.951C561.515 312.349 569.242 297.298 584.853 284.754L583.424 282.976ZM641.512 263.631C618.873 263.631 599.489 270.067 583.424 282.976L584.853 284.754C600.47 272.205 619.336 265.912 641.512 265.912V263.631ZM699.557 282.975C683.46 270.072 664.091 263.636 641.513 263.631L641.512 265.912C663.627 265.917 682.479 272.209 698.131 284.755L699.557 282.975ZM723.796 329.951C723.796 311.557 715.662 295.884 699.557 282.975L698.131 284.755C713.775 297.295 721.515 312.345 721.515 329.951H723.796ZM723.796 366.86V329.951H721.515V366.86H723.796ZM723.796 559.789V366.86H721.515V559.789H723.796ZM450.147 560.929H722.655V558.648H450.147V560.929ZM451.288 560.359V559.789H449.007V560.359H451.288ZM360.76 561.5H450.147V559.218H360.76V561.5ZM359.619 245.139L359.619 560.359H361.9L361.9 245.139H359.619ZM367.478 216.389C362.174 225.357 359.48 235.197 359.62 245.155L361.9 245.123C361.767 235.605 364.34 226.176 369.442 217.551L367.478 216.389ZM383.822 198.159C377.148 203.438 371.622 209.595 367.486 216.376L369.434 217.564C373.419 211.03 378.759 205.072 385.237 199.948L383.822 198.159ZM431.586 179.295C413.316 181.004 397.381 187.29 383.816 198.163L385.243 199.943C398.439 189.366 413.945 183.236 431.798 181.566L431.586 179.295Z" fill="#323433"/>
<path d="M539.404 213.03C539.404 213.03 513.241 220.668 507.344 233.082C501.447 245.497 489.652 280.177 489.652 280.177C489.652 280.177 478.593 299.527 478.593 305.37C478.593 311.213 494.95 332.898 502.318 338.728C509.686 344.57 537.253 306.099 537.253 306.099L539.404 213.03Z" fill="#E9761A" stroke="#323433" stroke-width="2.28105" stroke-miterlimit="10" stroke-linecap="round" stroke-linejoin="round"/>
<path d="M655.811 385.14C656.147 385.436 657.156 398.374 657.156 398.374C657.156 398.374 664.055 411.997 663.974 432.842C663.88 453.687 670.604 560.454 670.604 560.454H505.525C505.525 560.454 516.997 480.409 533.269 439.902C533.269 439.902 533.78 406.658 542.683 397.392C542.683 397.392 538.824 383.755 546.718 382.074C554.612 380.393 655.811 385.14 655.811 385.14Z" fill="#323433"/>
<path d="M655.811 385.14C656.147 385.436 657.156 398.374 657.156 398.374C657.156 398.374 664.055 411.997 663.974 432.842C663.88 453.687 670.604 560.454 670.604 560.454H505.525C505.525 560.454 516.997 480.409 533.269 439.902C533.269 439.902 533.78 406.658 542.683 397.392C542.683 397.392 538.824 383.755 546.718 382.074C554.612 380.393 655.811 385.14 655.811 385.14Z" stroke="#323433" stroke-width="2.28105" stroke-miterlimit="10" stroke-linecap="round" stroke-linejoin="round"/>
<path d="M546.089 385.331C546.089 385.331 545.082 391.675 546.089 397.068C546.089 397.068 563.458 409.933 587.181 410.952C610.904 411.97 644.729 405.518 654.011 400.084V387.178L546.089 385.331Z" fill="#263238"/>
<path d="M561.346 392.348C561.346 392.348 559.339 403.246 561.346 407.368C563.354 411.491 581.504 412.618 581.504 412.618L580.929 397.103L561.346 392.348Z" fill="#BFBFBF" stroke="#323433" stroke-width="2.28105" stroke-miterlimit="10" stroke-linecap="round" stroke-linejoin="round"/>
<path d="M527.487 217.418C537.178 212.884 543.723 210.671 543.723 210.671C544.419 208.849 542.759 203.371 559.503 194.613C576.261 185.855 600.461 191.334 600.461 191.334L609.871 203.02C609.871 203.02 642.463 216.109 650.065 222.708C657.668 229.306 663.972 383.881 657.668 389.427C639.719 405.215 563.559 407.36 542.893 386.458C538.436 381.938 535.424 349.322 526.818 300.906C526.818 300.906 510.488 263.176 511.372 242.449" fill="#E9761A"/>
<path d="M527.487 217.418C537.178 212.884 543.723 210.671 543.723 210.671C544.419 208.849 542.759 203.371 559.503 194.613C576.261 185.855 600.461 191.334 600.461 191.334L609.871 203.02C609.871 203.02 642.463 216.109 650.065 222.708C657.668 229.306 663.972 383.881 657.668 389.427C639.719 405.215 563.559 407.36 542.893 386.458C538.436 381.938 535.424 349.322 526.818 300.906C526.818 300.906 510.488 263.176 511.372 242.449" stroke="#323433" stroke-width="2.28105" stroke-miterlimit="10" stroke-linecap="round" stroke-linejoin="round"/>
<path d="M547.979 187.113C547.979 187.113 556.92 195.599 553.61 209.467L565.521 228.623L572.834 211.652C572.834 211.652 589.806 207.268 594.758 195.774C594.758 195.774 583.565 177.643 586.916 152.227C590.281 126.825 547.979 187.113 547.979 187.113Z" fill="white" stroke="#323433" stroke-width="2.28105" stroke-miterlimit="10" stroke-linecap="round" stroke-linejoin="round"/>
<path d="M588.006 164.197C593.224 125.371 581.578 109.865 551.036 112.044C520.441 114.223 520.011 148.341 527.3 162.839C529.747 167.707 528.941 178.358 544.124 195.384C549.947 201.906 565.238 196.997 576.185 186.212" fill="white"/>
<path d="M588.006 164.197C593.224 125.371 581.578 109.865 551.036 112.044C520.441 114.223 520.011 148.341 527.3 162.839C529.747 167.707 528.941 178.358 544.124 195.384C549.947 201.906 565.238 196.997 576.185 186.212" stroke="#323433" stroke-width="2.28105" stroke-miterlimit="10" stroke-linecap="round" stroke-linejoin="round"/>
<path d="M542.576 154.81C542.576 154.81 545.575 149.511 553.765 154.81" stroke="#323433" stroke-width="2.28105" stroke-miterlimit="10" stroke-linecap="round" stroke-linejoin="round"/>
<path d="M530.299 154.81C530.299 154.81 525.861 151.138 524.529 154.81" stroke="#323433" stroke-width="2.28105" stroke-miterlimit="10" stroke-linecap="round" stroke-linejoin="round"/>
<path d="M548.957 165.617C549.784 165.402 550.173 164.15 549.827 162.82C549.481 161.49 548.53 160.586 547.704 160.802C546.877 161.017 546.488 162.269 546.834 163.599C547.18 164.929 548.131 165.832 548.957 165.617Z" fill="#323433"/>
<path d="M532.484 165.617C533.31 165.402 533.7 164.15 533.354 162.82C533.007 161.49 532.057 160.586 531.23 160.802C530.404 161.017 530.014 162.269 530.36 163.599C530.706 164.929 531.657 165.832 532.484 165.617Z" fill="#323433"/>
<path d="M534.011 157.781C537.386 162.421 534.253 168.258 533.15 172.79C532.047 177.308 538.879 177.012 540.789 175.52" stroke="#323433" stroke-width="2.28105" stroke-miterlimit="10" stroke-linecap="round" stroke-linejoin="round"/>
<path d="M571.493 160.767C571.493 160.767 568.628 151.689 574.774 147.184C580.92 142.679 580.503 169.791 580.503 169.791L586.366 173.059C586.366 173.059 594.825 150.68 590.737 134.314C586.649 117.947 570.094 106.314 547.178 112.5C516.489 120.785 523.401 145.906 523.401 145.906C523.401 145.906 524.692 138.805 526.198 139.222C527.705 139.626 532.506 144.266 556.296 136.089C556.296 136.089 558.932 138.402 558.394 144.145C557.842 149.874 567.983 154.997 569.583 164.559L571.493 160.767Z" fill="#999999"/>
<path opacity="0.4" d="M571.493 160.767C571.493 160.767 568.628 151.689 574.774 147.184C580.92 142.679 580.503 169.791 580.503 169.791L586.366 173.059C586.366 173.059 594.825 150.68 590.737 134.314C586.649 117.947 570.094 106.314 547.178 112.5C516.489 120.785 523.401 145.906 523.401 145.906C523.401 145.906 524.692 138.805 526.198 139.222C527.705 139.626 532.506 144.266 556.296 136.089C556.296 136.089 558.932 138.402 558.394 144.145C557.842 149.874 567.983 154.997 569.583 164.559L571.493 160.767Z" fill="black"/>
<path d="M571.493 160.767C571.493 160.767 568.628 151.689 574.774 147.184C580.92 142.679 580.503 169.791 580.503 169.791L586.366 173.059C586.366 173.059 594.825 150.68 590.737 134.314C586.649 117.947 570.094 106.314 547.178 112.5C516.489 120.785 523.401 145.906 523.401 145.906C523.401 145.906 524.692 138.805 526.198 139.222C527.705 139.626 532.506 144.266 556.296 136.089C556.296 136.089 558.932 138.402 558.394 144.144C557.842 149.874 567.983 154.997 569.583 164.559L571.493 160.767Z" stroke="#323433" stroke-width="2.28105" stroke-miterlimit="10" stroke-linecap="round" stroke-linejoin="round"/>
<path d="M531.939 177.066C531.939 177.066 534.588 178.25 538.273 177.698L539.564 179.205L540.788 177.86C540.788 177.86 548.292 178.828 551.977 177.86C555.662 176.891 559.481 179.205 561.391 179.205C561.391 179.205 569.581 169.387 568.76 164.331C567.94 159.287 567.402 157.781 567.402 157.781C567.402 157.781 568.949 159.193 569.769 158.924C570.804 158.575 570.818 157.781 570.818 157.781C570.818 157.781 578.779 173.879 578.591 186.978C578.591 186.978 569.5 202.094 557.45 202.941C543.948 203.896 536.928 198.637 536.928 198.637C534.615 191.846 535.758 185.471 535.758 185.471C534.037 183.764 532.557 183.078 532.557 183.078C531.777 181.047 531.939 177.066 531.939 177.066Z" fill="#323433"/>
<path d="M526.197 139.236C526.197 139.236 519.379 136.008 520.643 128.182C521.92 120.355 527.73 117.625 531.912 115.271C531.912 115.271 540.439 107.995 556.294 107.081C575.404 105.992 593.95 115.997 589.606 130.75C589.606 130.75 562.655 119.279 556.294 136.103C556.308 136.089 537.749 146.821 526.197 139.236Z" fill="#323433"/>
<path d="M571.37 152.124C571.37 152.124 577.368 140.599 581.376 144.419C585.383 148.238 584.281 153.873 582.922 159.239C581.564 164.605 581.107 163.69 578.552 166.151C576.01 168.612 573.307 171.087 572.365 168.424C571.424 165.761 571.881 163.636 571.881 163.636" fill="white"/>
<path d="M571.37 152.124C571.37 152.124 577.368 140.599 581.376 144.419C585.383 148.238 584.281 153.873 582.922 159.239C581.564 164.605 581.107 163.69 578.552 166.151C576.01 168.612 573.307 171.087 572.365 168.424C571.424 165.761 571.881 163.636 571.881 163.636" stroke="#323433" stroke-width="2.28105" stroke-miterlimit="10" stroke-linecap="round" stroke-linejoin="round"/>
<path d="M554.506 185.902C543.801 186.171 540.211 184.57 540.211 184.57C539.7 185.256 539.014 185.081 539.014 185.081L540.789 188.766C540.789 188.766 542.564 189.856 547.177 189.856C551.063 189.856 554.506 185.902 554.506 185.902Z" fill="white"/>
<path opacity="0.2" d="M545.308 136.371C545.308 136.371 540.937 127.643 552.408 122.318C563.866 116.992 582.425 119.036 586.93 125.048" stroke="white" stroke-width="2.28105" stroke-miterlimit="10" stroke-linecap="round" stroke-linejoin="round"/>
<path opacity="0.2" d="M533.458 137.999C533.458 137.999 520.87 137.448 530.217 125.169C539.577 112.891 559.36 109.072 559.36 109.072" stroke="white" stroke-width="2.28105" stroke-miterlimit="10" stroke-linecap="round" stroke-linejoin="round"/>
<path d="M610.351 203.675C610.351 203.675 607.918 219.825 592.041 228.623C592.041 228.623 583.26 215.857 578.638 216.149C576.381 216.295 572.929 223.036 572.929 223.036" stroke="#323433" stroke-width="2.28105" stroke-miterlimit="10" stroke-linecap="round" stroke-linejoin="round"/>
<path d="M543.392 210.692C541.79 216.957 542.895 229.404 542.895 229.404C542.895 229.404 546.79 216.984 548.336 215.758C551.126 213.566 559.675 224.324 559.675 224.324" stroke="#323433" stroke-width="2.28105" stroke-miterlimit="10" stroke-linecap="round" stroke-linejoin="round"/>
<path d="M504.454 302.418C511.723 316.825 509.439 330.167 509.439 330.167C509.439 330.167 500.061 343.214 492.819 345.179C475.272 349.919 464.698 310.833 443.617 258.351C442.26 254.985 454.258 237.199 454.258 237.199L489.043 291.486C489.043 291.472 499.362 292.334 504.454 302.418Z" fill="white" stroke="#323433" stroke-width="2.28105" stroke-miterlimit="10" stroke-linecap="round" stroke-linejoin="round"/>
<path d="M453.078 240.933L444.122 228.897C444.122 228.897 430.66 221.177 429.181 225.803C426.989 232.716 415.961 234.747 415.961 234.747C416.929 238.284 427.701 254.045 433.807 257.582C439.913 261.119 440.477 262.195 443.046 262.881C449.434 264.589 450.954 260.016 450.954 260.016" fill="white"/>
<path d="M453.078 240.933L444.122 228.897C444.122 228.897 430.66 221.177 429.181 225.803C426.989 232.716 415.961 234.747 415.961 234.747C416.929 238.284 427.701 254.045 433.807 257.582C439.913 261.119 440.477 262.195 443.046 262.881C449.434 264.589 450.954 260.016 450.954 260.016" stroke="#323433" stroke-width="2.28105" stroke-miterlimit="10" stroke-linecap="round" stroke-linejoin="round"/>
<path d="M381.909 293.638C381.909 293.638 332.782 247.994 393.798 231.506C454.813 215.018 438.769 275.402 438.769 275.402L434.694 276.101C434.694 276.101 450.671 222.065 395.815 236.159C340.959 250.24 384.128 290.881 384.128 290.881L381.909 293.638Z" fill="#757575" stroke="#323433" stroke-width="2.28105" stroke-miterlimit="10" stroke-linecap="round" stroke-linejoin="round"/>
<path d="M447.202 249.19C436.887 244.161 440.478 234.949 430.446 229.139C427.742 227.579 419.041 228.52 416.271 226.597C412.129 223.706 413.622 221.715 413.675 221.366C413.81 220.572 416.728 223.154 426.626 220.357C430.58 219.241 441.393 222.63 444.795 225.588C452.756 232.501 459.682 240.651 458.929 247.025C458.499 250.697 454.411 252.176 454.411 252.176" fill="white"/>
<path d="M447.202 249.19C436.887 244.161 440.478 234.949 430.446 229.139C427.742 227.579 419.041 228.52 416.271 226.597C412.129 223.706 413.622 221.715 413.675 221.366C413.81 220.572 416.728 223.154 426.626 220.357C430.58 219.241 441.393 222.63 444.795 225.588C452.756 232.501 459.682 240.651 458.929 247.025C458.499 250.697 454.411 252.176 454.411 252.176" stroke="#323433" stroke-width="2.28105" stroke-miterlimit="10" stroke-linecap="round" stroke-linejoin="round"/>
<path d="M417.616 233.591C417.616 233.591 426.263 231.479 429.034 231.493C432.826 231.52 434.023 232.071 434.924 233.685C435.825 235.299 434.763 237.276 434.763 237.276C434.763 237.276 437.183 238.405 437.869 240.49C438.542 242.574 437.008 244.928 437.008 244.928C437.008 244.928 439.523 245.627 440.935 247.321C442.778 249.514 441.151 251.316 441.151 251.316C441.151 251.316 446.019 254.651 443.316 256.641C440.613 258.632 433.229 261.631 429.908 261.308C426.573 260.972 405.418 235.46 417.616 233.591Z" fill="white" stroke="#323433" stroke-width="2.28105" stroke-miterlimit="10" stroke-linecap="round" stroke-linejoin="round"/>
<path d="M434.75 237.289C434.75 237.289 421.006 241.498 417.24 241.404" stroke="#323433" stroke-width="2.28105" stroke-miterlimit="10" stroke-linecap="round" stroke-linejoin="round"/>
<path d="M436.981 244.928C436.981 244.928 425.281 249.137 422.874 249.608" stroke="#323433" stroke-width="2.28105" stroke-miterlimit="10" stroke-linecap="round" stroke-linejoin="round"/>
<path d="M441.137 251.316C441.137 251.316 432.153 255.014 428.267 255.781" stroke="#323433" stroke-width="2.28105" stroke-miterlimit="10" stroke-linecap="round" stroke-linejoin="round"/>
<path d="M380.997 286.685C380.997 286.685 396.046 260.918 433.392 265.517L464.122 329.477C464.122 329.477 444.837 366.07 390.276 357.396L380.997 286.685Z" fill="#757575" stroke="#323433" stroke-width="2.28105" stroke-miterlimit="10" stroke-linecap="round" stroke-linejoin="round"/>
<path d="M395.467 337.829C395.467 337.829 362.586 313.433 340.315 338.286L350.415 345.857C350.415 345.857 360.784 324.058 395.803 350.968" fill="#757575"/>
<path d="M395.467 337.829C395.467 337.829 362.586 313.433 340.315 338.286L350.415 345.857C350.415 345.857 360.784 324.058 395.803 350.968" stroke="#323433" stroke-width="2.28105" stroke-miterlimit="10" stroke-linecap="round" stroke-linejoin="round"/>
<path d="M384.13 286.954C384.13 286.954 419.593 290.45 430.581 267.279L384.13 286.954Z" fill="#757575"/>
<path d="M384.13 286.954C384.13 286.954 419.593 290.45 430.581 267.279" stroke="#323433" stroke-width="2.28105" stroke-miterlimit="10" stroke-linecap="round" stroke-linejoin="round"/>
<path d="M321.595 340.465C321.595 340.465 335.554 330.661 347.927 337.869C360.286 345.091 357.394 358.069 357.394 358.069C357.394 358.069 338.795 359.508 321.595 340.465Z" fill="#757575" stroke="#323433" stroke-width="2.28105" stroke-miterlimit="10" stroke-linecap="round" stroke-linejoin="round"/>
<path d="M328.427 340.519C328.427 340.519 350.119 346.315 357.395 358.082" stroke="#323433" stroke-width="2.28105" stroke-miterlimit="10" stroke-linecap="round" stroke-linejoin="round"/>
<path d="M412.197 270.452L409.695 259.976C409.695 259.976 395.682 259.6 390.881 267.655L397.121 275.912" fill="#757575"/>
<path d="M412.197 270.452L409.695 259.976C409.695 259.976 395.682 259.6 390.881 267.655L397.121 275.912" stroke="#323433" stroke-width="2.28105" stroke-miterlimit="10" stroke-linecap="round" stroke-linejoin="round"/>
<path d="M411.417 272.645C411.417 272.645 407.759 274.89 402.434 275.401" stroke="#323433" stroke-width="2.28105" stroke-miterlimit="10" stroke-linecap="round" stroke-linejoin="round"/>
<path d="M399.676 339.913C399.676 339.913 402.836 344.203 398.869 349.663" stroke="#323433" stroke-width="2.28105" stroke-miterlimit="10" stroke-linecap="round" stroke-linejoin="round"/>
<path d="M634.885 224.279C621.045 224.668 584.662 291.077 584.662 291.077C574.802 294.801 579.51 303.387 579.51 303.387C579.51 303.387 602.618 332.6 607.003 335.091C617.817 341.253 621.65 330.47 621.65 330.47C621.65 330.47 667.126 289.363 663.992 255.89C660.845 222.417 650.528 223.167 650.528 223.167" fill="#E9761A"/>
<path d="M634.885 224.279C621.045 224.668 584.662 291.077 584.662 291.077C574.802 294.801 579.51 303.387 579.51 303.387C579.51 303.387 602.618 332.6 607.003 335.091C617.817 341.253 621.65 330.47 621.65 330.47C621.65 330.47 667.126 289.363 663.992 255.89C660.845 222.417 650.528 223.167 650.528 223.167" stroke="#323433" stroke-width="2.28105" stroke-miterlimit="10" stroke-linecap="round" stroke-linejoin="round"/>
<path d="M581.447 301.13L567.629 316.078C538.263 313.212 484.723 335.52 469.242 327.407C460.24 322.684 438.629 327.541 435.409 329.169C432.189 330.797 425.388 339.247 427.91 340.337C430.432 341.427 436.013 336.381 439.111 336.838C442.197 337.296 447.778 336.771 447.778 336.771C447.778 336.771 434.161 349.755 431.116 350.32C428.071 350.885 412.616 357.491 418.211 358.648C426.058 360.263 429.05 359.456 429.05 359.456C429.05 359.456 436.133 364.501 441.405 365.039C444.142 365.322 458.979 362.631 458.979 362.631L472.582 349.62C472.582 349.62 563.095 354.343 579.032 347.629C599.799 338.884 606.453 331.658 606.453 331.658C606.453 331.658 597.666 306.068 581.447 301.13Z" fill="white" stroke="#323433" stroke-width="2.28105" stroke-miterlimit="10" stroke-linecap="round" stroke-linejoin="round"/>
<path d="M575.268 411.838C575.268 411.838 571.839 431.523 573.2 438.591C574.561 445.66 571.608 452.917 567.472 453.159" stroke="#323433" stroke-width="2.28105" stroke-miterlimit="10" stroke-linecap="round" stroke-linejoin="round"/>
<path d="M638.419 405.601C638.419 405.601 644.351 438.73 654.012 441.464" stroke="#323433" stroke-width="2.28105" stroke-miterlimit="10" stroke-linecap="round" stroke-linejoin="round"/>
<path d="M650.112 401.703C650.112 401.703 654.943 422.59 654.112 451.421C653.281 480.252 660.112 538.047 660.746 545.104C661.379 552.16 660.746 560.749 660.746 560.749" stroke="#323433" stroke-width="2.28105" stroke-miterlimit="10" stroke-linecap="round" stroke-linejoin="round"/>
<path d="M596.317 448.481C593.766 449.597 562.536 459.014 556.556 466.413" stroke="#323433" stroke-width="2.28105" stroke-miterlimit="10" stroke-linecap="round" stroke-linejoin="round"/>
<path d="M575.268 467.192C575.268 467.192 597.324 493.379 608.012 496.039" stroke="#323433" stroke-width="2.28105" stroke-miterlimit="10" stroke-linecap="round" stroke-linejoin="round"/>
<path d="M565.912 469.531C565.912 469.531 532.063 502.558 526.15 498.87" stroke="#323433" stroke-width="2.28105" stroke-miterlimit="10" stroke-linecap="round" stroke-linejoin="round"/>
<path d="M489.508 290.994C489.508 290.994 500.423 302.829 500.423 312.044" stroke="#323433" stroke-width="2.28105" stroke-miterlimit="10" stroke-linecap="round" stroke-linejoin="round"/>
<path d="M353.223 364.752C353.223 364.752 352.336 367.616 351.085 372.525" stroke="#323433" stroke-width="2.28105" stroke-linecap="round" stroke-linejoin="round"/>
<path d="M349.162 380.513C348.356 384.104 347.508 388.165 346.715 392.603" stroke="#323433" stroke-width="2.28105" stroke-linecap="round" stroke-linejoin="round" stroke-dasharray="6.97 6.97"/>
<path d="M346.015 396.665C345.585 399.234 345.181 401.91 344.818 404.653" stroke="#323433" stroke-width="2.28105" stroke-linecap="round" stroke-linejoin="round"/>
<path d="M334.906 357.745C334.906 357.745 333.252 360.314 330.858 364.711" stroke="#323433" stroke-width="2.28105" stroke-linecap="round" stroke-linejoin="round"/>
<path d="M325.614 375.107C323.408 379.854 321.095 385.355 319.064 391.285" stroke="#323433" stroke-width="2.28105" stroke-linecap="round" stroke-linejoin="round" stroke-dasharray="9.88 9.88"/>
<path d="M317.276 396.839C316.522 399.395 315.823 402.004 315.231 404.639" stroke="#323433" stroke-width="2.28105" stroke-linecap="round" stroke-linejoin="round"/>
<path d="M321.591 346.664C320.798 346.812 318.149 348.157 314.571 350.591" stroke="#323433" stroke-width="2.28105" stroke-linecap="round" stroke-linejoin="round"/>
<path d="M307.31 356.172C304.15 358.875 300.814 362.143 297.641 365.922" stroke="#323433" stroke-width="2.28105" stroke-linecap="round" stroke-linejoin="round" stroke-dasharray="7.77 7.77"/>
<path d="M294.777 369.513C293.203 371.624 291.711 373.87 290.339 376.251" stroke="#323433" stroke-width="2.28105" stroke-linecap="round" stroke-linejoin="round"/>
<path d="M584.623 290.994C594.623 292.539 609.251 311.168 611.91 318.281" stroke="#323433" stroke-width="2.28105" stroke-miterlimit="10" stroke-linecap="round" stroke-linejoin="round"/>
<path d="M487.948 283.479C487.948 283.479 500.435 280.926 506.826 291.195C513.217 301.477 515.236 312.044 515.236 312.044" stroke="#323433" stroke-width="2.28105" stroke-miterlimit="10" stroke-linecap="round" stroke-linejoin="round"/>
<path d="M220.857 560.929H719.267" stroke="#323433" stroke-width="2.28105" stroke-miterlimit="10" stroke-linecap="round" stroke-linejoin="round"/>
<path d="M171.595 448.535C171.595 448.535 137.53 447.204 132.474 419.244" stroke="#323433" stroke-width="2.28105" stroke-miterlimit="10" stroke-linecap="round" stroke-linejoin="round"/>
<path d="M160.069 483.205C160.069 483.205 181.775 475.58 167.641 432.666C153.493 389.752 171.608 390.693 179.664 368.988C187.733 347.282 175.817 332.583 175.817 332.583" stroke="#323433" stroke-width="2.28105" stroke-miterlimit="10" stroke-linecap="round" stroke-linejoin="round"/>
<mask id="path-90-inside-1_685_9" fill="white">
<path fill-rule="evenodd" clip-rule="evenodd" d="M232.3 477.961C233.967 477.961 235.312 476.616 235.312 474.962H235.325V470.215C235.325 468.56 233.967 467.216 232.313 467.216H105.253C103.585 467.216 102.24 468.56 102.24 470.215V474.962C102.24 476.616 103.599 477.961 105.253 477.961H108.307C110.407 493.783 116.554 540.094 118.582 555.41C119.025 558.785 121.715 560.453 124.97 560.453H166.767H170.802H212.599C215.854 560.453 218.53 558.785 218.987 555.41C221.015 540.094 227.162 493.783 229.262 477.961H232.3Z"/>
</mask>
<path fill-rule="evenodd" clip-rule="evenodd" d="M232.3 477.961C233.967 477.961 235.312 476.616 235.312 474.962H235.325V470.215C235.325 468.56 233.967 467.216 232.313 467.216H105.253C103.585 467.216 102.24 468.56 102.24 470.215V474.962C102.24 476.616 103.599 477.961 105.253 477.961H108.307C110.407 493.783 116.554 540.094 118.582 555.41C119.025 558.785 121.715 560.453 124.97 560.453H166.767H170.802H212.599C215.854 560.453 218.53 558.785 218.987 555.41C221.015 540.094 227.162 493.783 229.262 477.961H232.3Z" fill="#757575"/>
<path d="M235.312 474.962V472.681H233.031V474.962H235.312ZM235.325 474.962V477.243H237.607V474.962H235.325ZM108.307 477.961L110.568 477.661L110.305 475.68H108.307V477.961ZM118.582 555.41L120.843 555.112L120.843 555.11L118.582 555.41ZM218.987 555.41L221.248 555.716L221.249 555.709L218.987 555.41ZM229.262 477.961V475.68H227.264L227.001 477.661L229.262 477.961ZM233.031 474.962C233.031 475.35 232.714 475.68 232.3 475.68V480.242C235.22 480.242 237.593 477.882 237.593 474.962H233.031ZM235.325 472.681H235.312V477.243H235.325V472.681ZM233.044 470.215V474.962H237.607V470.215H233.044ZM232.313 469.497C232.721 469.497 233.044 469.833 233.044 470.215H237.607C237.607 467.287 235.214 464.935 232.313 464.935V469.497ZM105.253 469.497H232.313V464.935H105.253V469.497ZM104.521 470.215C104.521 469.827 104.838 469.497 105.253 469.497V464.935C102.332 464.935 99.9592 467.294 99.9592 470.215H104.521ZM104.521 474.962V470.215H99.9592V474.962H104.521ZM105.253 475.68C104.845 475.68 104.521 475.343 104.521 474.962H99.9592C99.9592 477.889 102.352 480.242 105.253 480.242V475.68ZM108.307 475.68H105.253V480.242H108.307V475.68ZM106.045 478.261C108.146 494.083 114.292 540.394 116.32 555.709L120.843 555.11C118.815 539.794 112.668 493.482 110.568 477.661L106.045 478.261ZM116.32 555.707C116.619 557.984 117.713 559.81 119.366 561.031C120.977 562.223 122.97 562.734 124.97 562.734V558.172C123.714 558.172 122.736 557.849 122.078 557.363C121.461 556.907 120.988 556.211 120.843 555.112L116.32 555.707ZM124.97 562.734H166.767V558.172H124.97V562.734ZM166.767 562.734H170.802V558.172H166.767V562.734ZM170.802 562.734H212.599V558.172H170.802V562.734ZM212.599 562.734C214.599 562.734 216.59 562.222 218.2 561.031C219.849 559.809 220.94 557.986 221.248 555.716L216.727 555.104C216.577 556.209 216.101 556.908 215.485 557.364C214.829 557.85 213.854 558.172 212.599 558.172V562.734ZM221.249 555.709C223.277 540.394 229.423 494.083 231.523 478.261L227.001 477.661C224.901 493.482 218.754 539.794 216.726 555.11L221.249 555.709ZM232.3 475.68H229.262V480.242H232.3V475.68Z" fill="#323433" mask="url(#path-90-inside-1_685_9)"/>
<path d="M114.331 477.974H178.439" stroke="#323433" stroke-width="2.28105" stroke-miterlimit="10" stroke-linecap="round" stroke-linejoin="round"/>
<path d="M186.508 477.974H191.443" stroke="#323433" stroke-width="2.28105" stroke-miterlimit="10" stroke-linecap="round" stroke-linejoin="round"/>
<path d="M221.031 477.974H212.061" stroke="#323433" stroke-width="2.28105" stroke-miterlimit="10" stroke-linecap="round" stroke-linejoin="round"/>
<path d="M158.711 499.034H165.435" stroke="#323433" stroke-width="2.28105" stroke-miterlimit="10" stroke-linecap="round" stroke-linejoin="round"/>
<path d="M168.783 536.918C181.536 536.918 191.874 526.58 191.874 513.827C191.874 501.074 181.536 490.736 168.783 490.736C156.031 490.736 145.692 501.074 145.692 513.827C145.692 526.58 156.031 536.918 168.783 536.918Z" fill="#F9C13D" stroke="#323433" stroke-width="1.71079" stroke-miterlimit="10" stroke-linecap="round" stroke-linejoin="round"/>
<path d="M165.905 427.084C165.905 427.084 170.518 403.187 189.83 401.317C209.142 399.448 211.415 384.319 211.415 384.319" stroke="#323433" stroke-width="2.28105" stroke-miterlimit="10" stroke-linecap="round" stroke-linejoin="round"/>
<path d="M167.87 385.65C167.87 385.65 163.163 383.391 145.774 372.807C128.372 362.21 129.044 345.319 129.044 345.319" stroke="#323433" stroke-width="2.28105" stroke-miterlimit="10" stroke-linecap="round" stroke-linejoin="round"/>
<path d="M210.688 386.901C210.621 387.856 225.024 377.473 238.984 384.09C238.984 384.09 224.419 397.31 210.352 389.093C196.285 380.862 198.276 360.717 198.276 360.717C198.276 360.717 211.818 370.225 210.688 386.901Z" fill="#B8E341" stroke="#323433" stroke-width="2.28105" stroke-miterlimit="10" stroke-linecap="round" stroke-linejoin="round"/>
<path d="M177.901 334.493C178.359 335.326 184.827 318.798 200.145 316.768C200.145 316.768 195.088 335.784 178.816 336.496C162.543 337.223 153.277 319.215 153.277 319.215C153.277 319.215 169.792 319.861 177.901 334.493Z" fill="#B8E341" stroke="#323433" stroke-width="2.28105" stroke-miterlimit="10" stroke-linecap="round" stroke-linejoin="round"/>
<path d="M131.305 351.828C131.896 352.581 135.662 335.233 150.469 330.822C150.469 330.822 148.478 350.389 132.515 353.67C116.552 356.952 104.569 340.639 104.569 340.639C104.569 340.639 120.99 338.662 131.305 351.828Z" fill="#B8E341" stroke="#323433" stroke-width="2.28105" stroke-miterlimit="10" stroke-linecap="round" stroke-linejoin="round"/>
<path d="M134.409 425.04C135.121 425.686 135.861 407.947 149.699 401.062C149.699 401.062 151.085 420.683 135.928 426.654C120.772 432.625 106.167 418.598 106.167 418.598C106.167 418.598 122.009 413.824 134.409 425.04Z" fill="#B8E341" stroke="#323433" stroke-width="2.28105" stroke-miterlimit="10" stroke-linecap="round" stroke-linejoin="round"/>
<path d="M331.362 479.237C331.362 479.237 339.431 463.772 320.105 450.323C300.767 436.875 296.571 422.942 299.677 412.426" stroke="#323433" stroke-width="2.28105" stroke-miterlimit="10" stroke-linecap="round" stroke-linejoin="round"/>
<path d="M328.162 457.787C328.162 457.787 325.903 447.714 343.587 440.614C361.272 433.513 363.908 412.426 363.908 412.426" stroke="#323433" stroke-width="2.28105" stroke-miterlimit="10" stroke-linecap="round" stroke-linejoin="round"/>
<path d="M309.509 395.535C312.346 395.521 311.862 413.341 298.75 416.703C298.75 416.703 292.362 414.699 291.354 406.119C290.345 397.539 296.343 393.773 296.343 393.773C296.343 393.773 297.903 399.058 299.678 401.829C299.665 401.829 304.13 395.562 309.509 395.535Z" fill="#B8E341" stroke="#323433" stroke-width="2.28105" stroke-miterlimit="10" stroke-linecap="round" stroke-linejoin="round"/>
<path d="M299.664 401.829C299.664 401.829 296.033 404.841 298.668 410.315L299.664 401.829Z" fill="#B8E341"/>
<path d="M299.664 401.829C299.664 401.829 296.033 404.841 298.668 410.315" stroke="#323433" stroke-width="2.28105" stroke-miterlimit="10" stroke-linecap="round" stroke-linejoin="round"/>
<path d="M362.993 416.702C362.993 416.702 353.579 408.135 356.404 401.828C359.228 395.521 365.306 392.589 365.306 392.589C365.306 392.589 367.324 396.503 368.507 398.372L373.335 395.548C373.335 395.534 383.206 414.685 362.993 416.702Z" fill="#B8E341" stroke="#323433" stroke-width="2.28105" stroke-miterlimit="10" stroke-linecap="round" stroke-linejoin="round"/>
<path d="M368.507 398.372C368.507 398.372 374.384 407.813 366.987 412.426L368.507 398.372Z" fill="#B8E341"/>
<path d="M368.507 398.372C368.507 398.372 374.384 407.813 366.987 412.426" stroke="#323433" stroke-width="2.28105" stroke-miterlimit="10" stroke-linecap="round" stroke-linejoin="round"/>
<path d="M334.415 445.738C334.415 445.738 325.324 422.875 332.855 397.243" stroke="#323433" stroke-width="2.28105" stroke-miterlimit="10" stroke-linecap="round" stroke-linejoin="round"/>
<path d="M333.286 397.39C333.286 397.39 345.403 393.49 345.457 386.591C345.51 379.679 341.18 374.488 341.18 374.488C341.18 374.488 337.71 377.218 335.868 378.415L332.654 373.842C332.654 373.842 315.736 387.17 333.286 397.39Z" fill="#B8E341" stroke="#323433" stroke-width="2.28105" stroke-miterlimit="10" stroke-linecap="round" stroke-linejoin="round"/>
<path d="M335.868 378.428C335.868 378.428 326.602 384.588 331.416 391.85L335.868 378.428Z" fill="#B8E341"/>
<path d="M335.868 378.428C335.868 378.428 326.602 384.588 331.416 391.85" stroke="#323433" stroke-width="2.28105" stroke-miterlimit="10" stroke-linecap="round" stroke-linejoin="round"/>
<mask id="path-115-inside-2_685_9" fill="white">
<path fill-rule="evenodd" clip-rule="evenodd" d="M393.682 477.96C395.35 477.96 396.695 476.615 396.695 474.961V470.214C396.695 468.56 395.336 467.215 393.682 467.215H266.622C264.954 467.215 263.609 468.56 263.609 470.214V474.961C263.609 476.615 264.968 477.96 266.622 477.96H269.689C271.789 493.782 277.936 540.093 279.964 555.409C280.408 558.785 283.098 560.452 286.352 560.452H328.15H332.184H373.982C377.236 560.452 379.912 558.785 380.37 555.409C382.398 540.093 388.545 493.782 390.645 477.96H393.682Z"/>
</mask>
<path fill-rule="evenodd" clip-rule="evenodd" d="M393.682 477.96C395.35 477.96 396.695 476.615 396.695 474.961V470.214C396.695 468.56 395.336 467.215 393.682 467.215H266.622C264.954 467.215 263.609 468.56 263.609 470.214V474.961C263.609 476.615 264.968 477.96 266.622 477.96H269.689C271.789 493.782 277.936 540.093 279.964 555.409C280.408 558.785 283.098 560.452 286.352 560.452H328.15H332.184H373.982C377.236 560.452 379.912 558.785 380.37 555.409C382.398 540.093 388.545 493.782 390.645 477.96H393.682Z" fill="#757575"/>
<path d="M269.689 477.96L271.95 477.66L271.687 475.679H269.689V477.96ZM279.964 555.409L282.226 555.112L282.225 555.11L279.964 555.409ZM380.37 555.409L382.63 555.715L382.631 555.709L380.37 555.409ZM390.645 477.96V475.679H388.646L388.384 477.66L390.645 477.96ZM394.414 474.961C394.414 475.349 394.097 475.679 393.682 475.679V480.241C396.603 480.241 398.976 477.882 398.976 474.961H394.414ZM394.414 470.214V474.961H398.976V470.214H394.414ZM393.682 469.496C394.09 469.496 394.414 469.833 394.414 470.214H398.976C398.976 467.287 396.583 464.934 393.682 464.934V469.496ZM266.622 469.496H393.682V464.934H266.622V469.496ZM265.89 470.214C265.89 469.826 266.207 469.496 266.622 469.496V464.934C263.701 464.934 261.328 467.293 261.328 470.214H265.89ZM265.89 474.961V470.214H261.328V474.961H265.89ZM266.622 475.679C266.214 475.679 265.89 475.342 265.89 474.961H261.328C261.328 477.888 263.721 480.241 266.622 480.241V475.679ZM269.689 475.679H266.622V480.241H269.689V475.679ZM267.428 478.26C269.528 494.082 275.675 540.393 277.703 555.709L282.225 555.11C280.197 539.793 274.05 493.482 271.95 477.66L267.428 478.26ZM277.702 555.706C278.002 557.983 279.095 559.809 280.748 561.031C282.359 562.222 284.353 562.733 286.352 562.733V558.171C285.097 558.171 284.118 557.849 283.46 557.362C282.843 556.906 282.37 556.211 282.226 555.112L277.702 555.706ZM286.352 562.733H328.15V558.171H286.352V562.733ZM328.15 562.733H332.184V558.171H328.15V562.733ZM332.184 562.733H373.982V558.171H332.184V562.733ZM373.982 562.733C375.982 562.733 377.972 562.222 379.582 561.03C381.232 559.808 382.323 557.985 382.63 555.715L378.109 555.103C377.96 556.208 377.484 556.907 376.867 557.363C376.211 557.849 375.236 558.171 373.982 558.171V562.733ZM382.631 555.709C384.659 540.393 390.806 494.082 392.906 478.26L388.384 477.66C386.283 493.482 380.137 539.793 378.108 555.11L382.631 555.709ZM393.682 475.679H390.645V480.241H393.682V475.679Z" fill="#323433" mask="url(#path-115-inside-2_685_9)"/>
<path d="M275.714 477.973H339.822" stroke="#323433" stroke-width="2.28105" stroke-miterlimit="10" stroke-linecap="round" stroke-linejoin="round"/>
<path d="M347.892 477.973H352.827" stroke="#323433" stroke-width="2.28105" stroke-miterlimit="10" stroke-linecap="round" stroke-linejoin="round"/>
<path d="M382.412 477.973H373.442" stroke="#323433" stroke-width="2.28105" stroke-miterlimit="10" stroke-linecap="round" stroke-linejoin="round"/>
<path d="M320.093 499.034H326.817" stroke="#323433" stroke-width="2.28105" stroke-miterlimit="10" stroke-linecap="round" stroke-linejoin="round"/>
<path d="M330.166 536.917C342.919 536.917 353.257 526.579 353.257 513.826C353.257 501.074 342.919 490.735 330.166 490.735C317.413 490.735 307.075 501.074 307.075 513.826C307.075 526.579 317.413 536.917 330.166 536.917Z" fill="#F9C13D" stroke="#323433" stroke-width="1.71079" stroke-miterlimit="10" stroke-linecap="round" stroke-linejoin="round"/>
<path d="M491.546 484.388C491.546 484.388 485.427 468.694 491.546 448.521" stroke="#323433" stroke-width="2.28105" stroke-miterlimit="10" stroke-linecap="round" stroke-linejoin="round"/>
<path d="M491.547 431.496C491.547 431.496 510.711 444.5 488.83 457.491C488.83 457.491 467.138 444.5 491.547 431.496Z" fill="#B8E341" stroke="#323433" stroke-width="2.28105" stroke-miterlimit="10" stroke-linecap="round" stroke-linejoin="round"/>
<path d="M491.546 431.496C491.546 431.496 494.841 436.431 491.546 440.909C488.251 445.388 489.623 451.063 489.623 451.063" stroke="#323433" stroke-width="2.28105" stroke-miterlimit="10" stroke-linecap="round" stroke-linejoin="round"/>
<mask id="path-125-inside-3_685_9" fill="white">
<path fill-rule="evenodd" clip-rule="evenodd" d="M555.063 477.96C556.731 477.96 558.076 476.615 558.076 474.961V470.214C558.076 468.56 556.717 467.215 555.063 467.215H428.003C426.349 467.215 425.004 468.56 425.004 470.214V474.961C425.004 476.615 426.349 477.96 428.003 477.96H431.068C433.165 493.782 439.305 540.093 441.344 555.409C441.788 558.785 444.478 560.452 447.732 560.452H489.53H493.564H535.362C538.616 560.452 541.293 558.785 541.75 555.409C543.778 540.093 549.925 493.782 552.025 477.96H555.063Z"/>
</mask>
<path fill-rule="evenodd" clip-rule="evenodd" d="M555.063 477.96C556.731 477.96 558.076 476.615 558.076 474.961V470.214C558.076 468.56 556.717 467.215 555.063 467.215H428.003C426.349 467.215 425.004 468.56 425.004 470.214V474.961C425.004 476.615 426.349 477.96 428.003 477.96H431.068C433.165 493.782 439.305 540.093 441.344 555.409C441.788 558.785 444.478 560.452 447.732 560.452H489.53H493.564H535.362C538.616 560.452 541.293 558.785 541.75 555.409C543.778 540.093 549.925 493.782 552.025 477.96H555.063Z" fill="#757575"/>
<path d="M431.068 477.96L433.329 477.66L433.067 475.679H431.068V477.96ZM441.344 555.409L443.606 555.112L443.605 555.108L441.344 555.409ZM541.75 555.409L544.01 555.715L544.011 555.709L541.75 555.409ZM552.025 477.96V475.679H550.027L549.764 477.66L552.025 477.96ZM555.795 474.961C555.795 475.349 555.478 475.679 555.063 475.679V480.241C557.984 480.241 560.357 477.882 560.357 474.961H555.795ZM555.795 470.214V474.961H560.357V470.214H555.795ZM555.063 469.496C555.471 469.496 555.795 469.833 555.795 470.214H560.357C560.357 467.287 557.964 464.934 555.063 464.934V469.496ZM428.003 469.496H555.063V464.934H428.003V469.496ZM427.285 470.214C427.285 469.819 427.609 469.496 428.003 469.496V464.934C425.089 464.934 422.723 467.3 422.723 470.214H427.285ZM427.285 474.961V470.214H422.723V474.961H427.285ZM428.003 475.679C427.609 475.679 427.285 475.355 427.285 474.961H422.723C422.723 477.875 425.089 480.241 428.003 480.241V475.679ZM431.068 475.679H428.003V480.241H431.068V475.679ZM428.807 478.26C430.904 494.081 437.044 540.394 439.083 555.71L443.605 555.108C441.566 539.793 435.427 493.483 433.329 477.66L428.807 478.26ZM439.083 555.706C439.382 557.983 440.476 559.809 442.128 561.031C443.739 562.222 445.733 562.733 447.732 562.733V558.171C446.477 558.171 445.498 557.849 444.84 557.362C444.223 556.906 443.75 556.211 443.606 555.112L439.083 555.706ZM447.732 562.733H489.53V558.171H447.732V562.733ZM489.53 562.733H493.564V558.171H489.53V562.733ZM493.564 562.733H535.362V558.171H493.564V562.733ZM535.362 562.733C537.362 562.733 539.352 562.222 540.962 561.03C542.612 559.808 543.703 557.985 544.01 555.715L539.489 555.103C539.34 556.208 538.864 556.907 538.247 557.363C537.591 557.849 536.616 558.171 535.362 558.171V562.733ZM544.011 555.709C546.039 540.393 552.186 494.082 554.286 478.26L549.764 477.66C547.663 493.482 541.517 539.793 539.488 555.11L544.011 555.709ZM555.063 475.679H552.025V480.241H555.063V475.679Z" fill="#323433" mask="url(#path-125-inside-3_685_9)"/>
<path d="M437.096 477.973H501.204" stroke="#323433" stroke-width="2.28105" stroke-miterlimit="10" stroke-linecap="round" stroke-linejoin="round"/>
<path d="M509.272 477.973H514.208" stroke="#323433" stroke-width="2.28105" stroke-miterlimit="10" stroke-linecap="round" stroke-linejoin="round"/>
<path d="M543.793 477.973H534.823" stroke="#323433" stroke-width="2.28105" stroke-miterlimit="10" stroke-linecap="round" stroke-linejoin="round"/>
<path d="M481.474 499.034H488.198" stroke="#323433" stroke-width="2.28105" stroke-miterlimit="10" stroke-linecap="round" stroke-linejoin="round"/>
<path d="M491.548 536.917C504.301 536.917 514.639 526.579 514.639 513.826C514.639 501.074 504.301 490.735 491.548 490.735C478.795 490.735 468.457 501.074 468.457 513.826C468.457 526.579 478.795 536.917 491.548 536.917Z" fill="#F9C13D" stroke="#323433" stroke-width="1.71079" stroke-miterlimit="10" stroke-linecap="round" stroke-linejoin="round"/>
<path d="M120.172 310.959C119.573 311.291 119.007 311.683 118.479 312.13C116.333 313.942 114.999 316.641 114.477 320.227C113.817 324.805 114.666 329.487 117.024 334.272C119.381 339.058 122.565 342.548 126.574 344.744C129.716 346.476 132.639 347.002 135.343 346.324C135.973 346.185 136.581 345.978 137.161 345.705L137.824 345.366C140.948 343.64 142.836 340.556 143.489 336.113C144.163 331.542 143.319 326.858 140.958 322.06C138.596 317.262 135.413 313.771 131.407 311.588C127.511 309.449 123.948 309.146 120.717 310.68L120.172 310.959Z" fill="#F9C13D" stroke="#323433" stroke-width="0.91242"/>
<path d="M112.183 336.7C114.509 341.413 117.631 344.848 121.548 347.007C125.397 349.124 128.912 349.418 132.091 347.889L136 345.899C135.434 346.165 134.838 346.367 134.222 346.501C131.574 347.157 128.71 346.633 125.63 344.928C121.703 342.775 118.577 339.342 116.25 334.629C113.924 329.916 113.086 325.318 113.737 320.834C114.241 317.322 115.541 314.678 117.636 312.901C118.152 312.464 118.705 312.081 119.291 311.756L115.281 313.798C115.207 313.83 115.134 313.866 115.065 313.908C112.077 315.588 110.276 318.581 109.66 322.888C109.021 327.395 109.862 331.999 112.183 336.7Z" fill="#F37C40" stroke="#323433" stroke-width="0.912421"/>
<path d="M221.48 345.576C220.774 345.667 220.077 345.824 219.396 346.045C216.627 346.937 214.295 348.93 212.4 352.024C209.987 355.976 208.985 360.56 209.395 365.776C209.805 370.992 211.513 375.318 214.518 378.754C216.869 381.456 219.477 382.979 222.343 383.322C223.002 383.419 223.668 383.446 224.332 383.403L225.102 383.329C228.778 382.863 231.793 380.715 234.147 376.884C236.57 372.944 237.578 368.36 237.169 363.131C236.76 357.902 235.053 353.576 232.046 350.153C229.128 346.809 225.817 345.263 222.113 345.516L221.48 345.576Z" fill="#F9C13D" stroke="#323433" stroke-width="0.912421"/>
<path d="M204.133 366.264C204.547 371.42 206.229 375.689 209.179 379.071C212.079 382.391 215.367 383.919 219.042 383.653L223.602 383.226C222.95 383.268 222.295 383.24 221.646 383.143C218.826 382.797 216.258 381.291 213.942 378.625C210.98 375.244 209.292 370.976 208.879 365.82C208.465 360.664 209.448 356.145 211.827 352.265C213.685 349.223 215.975 347.262 218.697 346.382C219.366 346.165 220.052 346.012 220.745 345.923L216.067 346.361C215.982 346.364 215.898 346.372 215.814 346.385C212.267 346.857 209.355 348.959 207.079 352.69C204.702 356.596 203.72 361.121 204.133 366.264Z" fill="#F37C40" stroke="#323433" stroke-width="0.91242"/>
<path d="M182.151 294.871C181.446 294.881 180.74 294.957 180.039 295.098C177.191 295.662 174.608 297.347 172.289 300.155C169.333 303.741 167.666 308.1 167.288 313.231C166.91 318.361 167.937 322.768 170.37 326.45C172.269 329.344 174.598 331.117 177.356 331.767C177.987 331.935 178.636 332.035 179.293 332.066L180.059 332.08C183.731 332.031 187.007 330.27 189.887 326.795C192.851 323.221 194.524 318.863 194.905 313.719C195.286 308.576 194.259 304.17 191.823 300.5C189.463 296.918 186.449 295.045 182.781 294.882L182.151 294.871Z" fill="#F9C13D" stroke="#323433" stroke-width="0.912421"/>
<path d="M162.012 312.942C161.648 318.044 162.652 322.416 165.024 326.059C167.356 329.637 170.333 331.5 173.954 331.647L178.462 331.734C177.819 331.703 177.185 331.603 176.567 331.435C173.871 330.784 171.592 329.022 169.732 326.151C167.349 322.507 166.339 318.135 166.703 313.033C167.067 307.931 168.697 303.61 171.593 300.068C173.857 297.292 176.38 295.623 179.163 295.063C179.848 294.924 180.539 294.85 181.228 294.84L176.603 294.751C176.52 294.744 176.437 294.742 176.354 294.746C172.826 294.815 169.676 296.553 166.903 299.959C164.006 303.525 162.376 307.853 162.012 312.942Z" fill="#F37C40" stroke="#323433" stroke-width="0.912421"/>
<path d="M132.389 383.86C131.687 383.859 130.981 383.923 130.28 384.052C127.431 384.568 124.819 386.214 122.444 388.988C119.417 392.532 117.656 396.872 117.161 402.008C116.667 407.144 117.588 411.578 119.926 415.31C121.752 418.243 124.03 420.06 126.762 420.759C127.388 420.938 128.032 421.049 128.685 421.091L129.448 421.118C133.107 421.132 136.41 419.423 139.359 415.989C142.394 412.458 144.16 408.118 144.658 402.97C145.156 397.821 144.235 393.387 141.894 389.668C139.625 386.037 136.666 384.108 133.016 383.882L132.389 383.86Z" fill="#F9C13D" stroke="#323433" stroke-width="0.912421"/>
<path d="M111.887 401.6C111.409 406.703 112.308 411.099 114.584 414.789C116.822 418.412 119.741 420.329 123.339 420.539L127.821 420.704C127.183 420.661 126.554 420.55 125.944 420.372C123.276 419.673 121.05 417.869 119.265 414.961C116.977 411.271 116.073 406.875 116.551 401.772C117.029 396.669 118.749 392.369 121.71 388.873C124.025 386.131 126.573 384.503 129.354 383.99C130.039 383.863 130.728 383.801 131.413 383.803L126.815 383.633C126.733 383.625 126.65 383.622 126.567 383.624C123.057 383.633 119.884 385.318 117.048 388.682C114.084 392.203 112.364 396.509 111.887 401.6Z" fill="#F37C40" stroke="#323433" stroke-width="0.91242"/>
<path d="M179.321 301.322L173.768 321.827L175.466 322.815L183.874 318.359L175.968 318.996L182.687 307.251L179.321 301.322Z" fill="white" stroke="#323433" stroke-width="0.912421"/>
<path d="M189.659 320.145L188.245 320.456L181.063 313.446L183.966 308.671L189.659 320.145Z" fill="white" stroke="#323433" stroke-width="0.912421"/>
<path d="M222.658 351.505L217.105 372.009L218.803 372.998L227.211 368.542L219.305 369.179L226.024 357.434L222.658 351.505Z" fill="white" stroke="#323433" stroke-width="0.912421"/>
<path d="M232.996 370.328L231.582 370.638L224.4 363.629L227.303 358.854L232.996 370.328Z" fill="white" stroke="#323433" stroke-width="0.912421"/>
<path d="M125.247 315.672L124.768 337.275L126.604 337.916L133.52 331.753L126.189 334.001L129.81 320.905L125.247 315.672Z" fill="white" stroke="#323433" stroke-width="0.912421"/>
<path d="M139.606 332.205L138.341 332.802L129.891 327.225L131.512 321.849L139.606 332.205Z" fill="white" stroke="#323433" stroke-width="0.912421"/>
<path d="M127.677 389.832L124.52 410.922L126.257 411.801L133.866 406.714L126.333 407.91L131.543 395.582L127.677 389.832Z" fill="white" stroke="#323433" stroke-width="0.912421"/>
<path d="M139.85 407.973L138.518 408.385L130.82 401.781L133.108 396.741L139.85 407.973Z" fill="white" stroke="#323433" stroke-width="0.912421"/>
<path d="M169.045 499.341L159.271 523.469L161.351 524.717L172.821 519.785L162.48 520.201L172.67 506.532L169.045 499.341Z" fill="white" stroke="#323433" stroke-width="1.14053"/>
<path d="M179.484 522.369L177.642 522.676L169.353 514.079L173.651 508.553L179.484 522.369Z" fill="white" stroke="#323433" stroke-width="1.14053"/>
<path d="M329.858 499.341L320.084 523.469L322.164 524.717L333.634 519.785L323.293 520.201L333.484 506.532L329.858 499.341Z" fill="white" stroke="#323433" stroke-width="1.14053"/>
<path d="M340.298 522.369L338.456 522.676L330.166 514.079L334.464 508.553L340.298 522.369Z" fill="white" stroke="#323433" stroke-width="1.14053"/>
<path d="M490.671 499.341L480.896 523.469L482.977 524.717L494.447 519.785L484.106 520.201L494.296 506.532L490.671 499.341Z" fill="white" stroke="#323433" stroke-width="1.14053"/>
<path d="M501.11 522.369L499.268 522.676L490.979 514.079L495.277 508.553L501.11 522.369Z" fill="white" stroke="#323433" stroke-width="1.14053"/>
</svg>
