<svg width="702" height="667" viewBox="0 0 702 667" fill="none" xmlns="http://www.w3.org/2000/svg">
<path d="M359.965 615.276C483.229 615.276 583.154 596.783 583.154 573.971C583.154 551.158 483.229 532.665 359.965 532.665C236.702 532.665 136.777 551.158 136.777 573.971C136.777 596.783 236.702 615.276 359.965 615.276Z" fill="#E0E5F8"/>
<path d="M64.6793 554.947L73.6616 539.467L90.8971 544.313L99.8901 528.829L117.111 533.668L126.108 518.195" stroke="#323433" stroke-width="3" stroke-linecap="round" stroke-linejoin="round"/>
<path d="M585.173 330.799L596.617 348.992" stroke="#323433" stroke-width="3" stroke-linecap="round" stroke-linejoin="round"/>
<path d="M581.798 345.617L599.991 334.173" stroke="#323433" stroke-width="3" stroke-linecap="round" stroke-linejoin="round"/>
<path d="M574.8 147.416C574.8 145.794 574.319 144.208 573.418 142.859C572.517 141.51 571.236 140.459 569.737 139.838C568.238 139.217 566.588 139.055 564.997 139.371C563.406 139.688 561.944 140.469 560.797 141.616C559.65 142.763 558.869 144.225 558.552 145.816C558.236 147.407 558.398 149.057 559.019 150.556C559.64 152.054 560.691 153.336 562.04 154.237C563.389 155.138 564.975 155.619 566.598 155.619C568.773 155.619 570.86 154.755 572.398 153.217C573.936 151.678 574.8 149.592 574.8 147.416V147.416Z" stroke="#323433" stroke-width="3" stroke-linecap="round" stroke-linejoin="round"/>
<path d="M699.309 174.187C699.823 175.757 699.884 177.44 699.483 179.043C698.674 180.289 697.618 181.357 696.381 182.18C694.545 183.621 692.094 185.329 689.41 187.072C687.009 188.655 684.139 189.369 681.277 189.094L645.85 185.864C640.669 185.394 635.452 186.228 630.676 188.292L526.106 233.443C523.941 234.378 521.596 234.821 519.239 234.74C516.882 234.66 514.573 234.058 512.477 232.978L466.791 209.462L489.657 166.565L518.809 185.225C519.341 185.57 519.937 185.805 520.562 185.917C521.186 186.028 521.827 186.014 522.446 185.875L609.448 166.437C614.19 165.396 618.589 163.165 622.229 159.953C628.12 154.725 638.565 146.545 650.115 142.525C650.394 142.422 650.694 142.39 650.989 142.433C651.284 142.475 651.563 142.59 651.802 142.768C652.041 142.946 652.231 143.18 652.357 143.45C652.482 143.72 652.538 144.017 652.52 144.314C652.287 147.486 649.557 153.145 644.142 157.281C653.298 158.71 678.279 160.569 694.662 165.844C695.252 166.036 695.795 166.353 696.254 166.771C696.713 167.19 697.077 167.702 697.322 168.272C698.15 170.184 698.814 172.163 699.309 174.187Z" fill="white"/>
<path d="M370.074 453.518L389.327 474.281L414.842 501.795L422.72 510.288L361.349 581.675" fill="white"/>
<path d="M370.074 453.518L389.327 474.281L414.842 501.795L422.72 510.288L361.349 581.675" stroke="#323433" stroke-width="3.03254" stroke-linecap="round" stroke-linejoin="round"/>
<path d="M268.654 177.092L228.685 194.334L225.594 182.564L214.289 139.574L214.021 138.9L292.426 107.03C301.691 103.272 311.905 102.536 321.613 104.927C326.4 106.089 331.001 107.157 335.556 108.133C333.116 118.59 334.498 128.513 346.686 133.126C358.131 137.448 382.705 130.57 395.288 118.811L409.975 121.321C418.101 122.695 425.866 125.694 432.806 130.14L489.739 166.6L466.873 209.497L462.748 217.247L401.969 186.852C392.488 225.02 396.88 252.336 417.423 286.554C404.7 285.148 392.907 283.486 381.834 281.662C333.336 273.912 297.341 262.793 250.656 244.586C255.459 221.786 261.467 199.256 268.654 177.092Z" fill="#53599A"/>
<path d="M416.33 32.4821C419.909 43.4852 416.749 72.6139 392.14 87.0911L395.684 71.8006C395.684 71.8006 404.77 72.5326 405.757 63.6673C406.745 54.8021 396.52 59.5775 396.183 59.7285C396.532 59.4729 408.43 50.2939 406.245 43.2761C404.537 37.7339 378.65 31.6572 364.533 24.5347C360.467 22.5131 357.388 20.3984 356.121 18.2024C350.463 8.40767 360.304 -1.92157 372.829 3.49286C385.354 8.90728 382.415 16.0181 391.013 20.6889C399.611 25.3597 412.636 21.1769 416.33 32.4821Z" fill="#323433"/>
<path d="M414.842 501.794L362.848 559.761L367.147 496.635L389.327 474.28L414.842 501.794Z" fill="#323433"/>
<path d="M356.062 41.15C358.653 35.9215 361.43 30.4722 364.533 24.5117C378.65 31.5876 404.537 37.7108 406.245 43.253C408.429 50.2244 396.531 59.4498 396.183 59.7054C396.52 59.5544 406.721 54.9417 405.757 63.6443C404.792 72.3468 395.683 71.7775 395.683 71.7775L392.139 87.068L385.993 113.571C385.886 114.026 385.875 114.498 385.959 114.958C386.043 115.418 386.221 115.855 386.481 116.243C386.742 116.631 387.079 116.961 387.473 117.213C387.867 117.465 388.308 117.633 388.77 117.707L395.276 118.788C382.705 130.546 358.096 137.378 346.674 133.102C334.486 128.455 333.103 118.602 335.543 108.11C337.774 108.598 340.005 109.067 342.236 109.516C343.453 109.758 344.717 109.585 345.825 109.025C346.933 108.464 347.821 107.549 348.347 106.425L356.818 88.2764C357.232 87.3955 357.311 86.3937 357.039 85.4588C356.768 84.5239 356.164 83.7204 355.342 83.1989C354.041 82.374 352.844 81.5839 351.717 80.7938C348.709 78.7021 346.531 75.6208 345.563 72.0874C344.594 68.554 344.897 64.7928 346.419 61.4599C349.533 54.6628 352.635 48.1214 356.062 41.15Z" fill="white"/>
<path d="M362.836 559.773L362.382 566.535L361.348 581.64L360.012 601.218L359.094 614.661L271.023 657C271.023 657 268.955 651.783 267.107 647.17C265.666 643.569 264.377 640.339 264.319 640.199C257.754 626.5 299.106 615.799 301.674 596.849C301.782 596.04 301.821 595.224 301.79 594.409C301.732 593.247 301.708 591.097 301.708 588.216C301.708 586.101 301.708 583.568 301.708 580.64C301.848 559.947 302.568 520.222 303.44 476.756C304.671 415.245 306.228 346.333 306.925 313.637C307.204 301.554 307.378 294.408 307.378 294.408" fill="white"/>
<path d="M362.836 559.773L362.382 566.535L361.348 581.64L360.012 601.218L359.094 614.661L271.023 657C271.023 657 268.955 651.783 267.107 647.17C265.666 643.569 264.377 640.339 264.319 640.199C257.754 626.5 299.106 615.799 301.674 596.849C301.782 596.04 301.821 595.224 301.79 594.409C301.732 593.247 301.708 591.097 301.708 588.216C301.708 586.101 301.708 583.568 301.708 580.64C301.848 559.947 302.568 520.222 303.44 476.756C304.671 415.245 306.228 346.333 306.925 313.637C307.204 301.554 307.378 294.408 307.378 294.408" stroke="#323433" stroke-width="3.03254" stroke-linecap="round" stroke-linejoin="round"/>
<path d="M370.074 453.518L389.326 474.281L367.146 496.636L370.074 453.518Z" fill="#19B787"/>
<path d="M370.075 453.518L367.135 496.612L362.848 559.738L362.395 566.5L301.756 580.664C301.895 559.97 302.615 520.245 303.487 476.779L259.102 425.737C248.598 413.622 242.428 398.352 241.569 382.34C238.781 331.124 241.43 289.028 250.609 244.597C297.294 262.839 333.289 273.958 381.833 281.662L370.075 453.518Z" fill="#19B787"/>
<path d="M22.0059 136.274C21.96 135.319 22.1813 134.369 22.645 133.532C23.1097 132.684 23.5745 131.859 24.0509 131.046C24.5273 130.232 24.8177 129.71 25.2128 129.059C26.7578 126.439 29.2088 124.476 32.1028 123.54L75.7784 109.028L72.4321 99.9535C72.0313 98.8847 72.0095 97.7108 72.3703 96.6278C72.7311 95.5449 73.4527 94.6186 74.4144 94.0038C75.3761 93.3889 76.5197 93.1228 77.6541 93.2498C78.7884 93.3769 79.8448 93.8894 80.6467 94.7018L98.749 112.804C100.959 115.019 103.731 116.589 106.766 117.347L202.402 141.282C204.718 141.865 207.16 141.694 209.373 140.794L214.02 138.912L214.288 139.586L225.593 182.576L210.779 187.595C205.569 189.366 199.886 189.134 194.838 186.944C170.926 176.569 99.4462 145.755 83.2958 140.899C70.9333 137.181 45.1392 139.214 27.8851 141.212C27.1704 141.299 26.4453 141.238 25.7551 141.033C25.0649 140.828 24.4241 140.484 23.8728 140.021C23.3214 139.557 22.8712 138.986 22.55 138.341C22.2289 137.697 22.0437 136.993 22.0059 136.274Z" fill="white"/>
<path d="M250.608 244.632C297.293 262.839 333.289 273.958 381.833 281.662C392.952 283.439 404.745 285.043 417.468 286.507C396.926 252.289 392.534 224.926 402.015 186.805L462.747 217.165L466.872 209.415L489.738 166.518" stroke="#323433" stroke-width="3.03254" stroke-linecap="round" stroke-linejoin="round"/>
<path d="M362.836 559.773L362.382 566.535L361.348 581.64L360.012 601.218L359.094 614.661L271.023 657C271.023 657 268.955 651.783 267.107 647.17C265.666 643.569 264.377 640.339 264.319 640.199C257.754 626.5 299.106 615.799 301.674 596.849C301.782 596.04 301.821 595.224 301.79 594.409C301.732 593.247 301.708 591.097 301.708 588.216C301.708 586.101 301.708 583.568 301.708 580.64C301.848 559.947 302.568 520.222 303.44 476.756C304.671 415.245 306.228 346.333 306.925 313.637C307.204 301.554 307.378 294.408 307.378 294.408" stroke="#323433" stroke-width="3.03254" stroke-linecap="round" stroke-linejoin="round"/>
<path d="M396.171 59.74C396.519 59.4844 408.417 50.3055 406.233 43.2876C404.525 37.7454 378.638 31.6687 364.521 24.5463C360.454 22.5246 357.375 20.4099 356.109 18.214C350.462 8.40759 360.303 -1.92165 372.828 3.49278C385.353 8.9072 382.414 16.018 391.012 20.6888C399.61 25.3596 412.635 21.1768 416.33 32.482C419.908 43.4852 416.748 72.6138 392.139 87.091" stroke="#323433" stroke-width="3.03254" stroke-linecap="round" stroke-linejoin="round"/>
<path d="M466.826 209.462L512.511 232.979C514.607 234.059 516.917 234.661 519.274 234.741C521.63 234.821 523.975 234.378 526.14 233.444L630.711 188.292C635.487 186.229 640.704 185.394 645.885 185.864L681.311 189.094C684.174 189.369 687.044 188.656 689.444 187.072C692.128 185.33 694.58 183.587 696.416 182.181C697.653 181.358 698.709 180.29 699.518 179.044C699.918 177.441 699.858 175.757 699.344 174.187C698.826 172.165 698.138 170.191 697.287 168.285C697.042 167.714 696.678 167.202 696.219 166.783C695.76 166.365 695.217 166.049 694.626 165.856C678.244 160.581 653.263 158.722 644.107 157.293C649.522 153.157 652.241 147.498 652.485 144.326C652.503 144.029 652.447 143.732 652.322 143.462C652.196 143.192 652.005 142.958 651.767 142.78C651.528 142.603 651.249 142.487 650.954 142.445C650.659 142.402 650.359 142.434 650.079 142.537C638.542 146.546 628.096 154.725 622.194 159.965C618.553 163.177 614.155 165.408 609.413 166.449L522.422 185.876C521.803 186.015 521.163 186.029 520.538 185.917C519.914 185.806 519.318 185.57 518.785 185.225L489.668 166.565L432.736 130.105C425.814 125.681 418.073 122.693 409.974 121.321L395.276 118.846L388.77 117.766C388.308 117.692 387.867 117.524 387.473 117.272C387.079 117.02 386.742 116.69 386.481 116.302C386.221 115.913 386.043 115.476 385.959 115.016C385.875 114.556 385.886 114.084 385.993 113.629L392.139 87.1264L395.683 71.8359C395.683 71.8359 404.769 72.5679 405.756 63.7026C406.744 54.8374 396.519 59.6128 396.182 59.7638" stroke="#323433" stroke-width="3.03254" stroke-linecap="round" stroke-linejoin="round"/>
<path d="M301.176 586.739C301.176 584.624 301.176 582.091 301.176 579.163L361.816 565L360.782 580.105L359.445 599.683L266.494 645.635C265.053 642.034 263.763 638.804 263.705 638.664C257.141 624.965 298.492 614.264 301.06 595.314C301.169 594.505 301.208 593.689 301.176 592.874C301.246 591.724 301.176 589.621 301.176 586.739Z" fill="#323433"/>
<path d="M214.299 139.586L225.592 182.599L228.683 194.369L268.652 177.126" stroke="#323433" stroke-width="3.03254" stroke-linecap="round" stroke-linejoin="round"/>
<path d="M280.818 141.2C276.368 153.702 272.313 165.6 268.653 177.126C261.45 199.294 255.427 221.827 250.609 244.632C241.43 289.063 238.781 331.158 241.569 382.375C242.436 398.374 248.605 413.631 259.102 425.736L303.452 476.86" stroke="#323433" stroke-width="3.03254" stroke-linecap="round" stroke-linejoin="round"/>
<path d="M381.787 281.708L370.075 453.517L367.147 496.635L362.848 559.76" stroke="#323433" stroke-width="3.03254" stroke-linecap="round" stroke-linejoin="round"/>
<path d="M367.146 496.635L389.326 474.28H389.338" stroke="#323433" stroke-width="3.03254" stroke-linecap="round" stroke-linejoin="round"/>
<path d="M362.837 559.772L362.849 559.76L414.843 501.793" stroke="#323433" stroke-width="3.03254" stroke-linecap="round" stroke-linejoin="round"/>
<path d="M288.323 289.796C289.706 297.638 296.712 307.782 306.995 313.719" stroke="#323433" stroke-width="3.03254" stroke-linecap="round" stroke-linejoin="round"/>
<path d="M364.533 24.5582C361.43 30.5187 358.653 35.968 356.062 41.1965C352.635 48.1679 349.532 54.6629 346.419 61.4832C344.897 64.8161 344.594 68.5773 345.563 72.1107C346.531 75.6441 348.709 78.7254 351.717 80.8171C352.879 81.6072 354.041 82.3973 355.342 83.2222C356.164 83.7436 356.768 84.5472 357.039 85.4821C357.311 86.4169 357.232 87.4188 356.818 88.2997L348.347 106.448C347.821 107.573 346.932 108.488 345.825 109.048C344.717 109.608 343.453 109.781 342.236 109.539C340.005 109.09 337.774 108.621 335.543 108.133C331 107.157 326.399 106.1 321.601 104.926C311.893 102.536 301.678 103.272 292.414 107.029L214.009 138.912L209.362 140.794C207.149 141.694 204.707 141.865 202.39 141.282L106.755 117.347C103.719 116.589 100.948 115.019 98.7378 112.804L80.6471 94.7017C79.8412 93.9025 78.7872 93.4015 77.6586 93.2811C76.53 93.1608 75.3941 93.4284 74.4378 94.0397C73.4815 94.6511 72.7619 95.5698 72.3974 96.6447C72.033 97.7196 72.0453 98.8866 72.4325 99.9535L75.7788 109.028L32.1032 123.54C29.2265 124.486 26.7933 126.448 25.2596 129.059C24.8801 129.71 24.4928 130.372 24.0978 131.046C23.6214 131.859 23.1566 132.684 22.6919 133.532C22.2281 134.369 22.0068 135.319 22.0528 136.274C22.0882 136.989 22.2693 137.688 22.5848 138.33C22.9003 138.972 23.3436 139.543 23.8876 140.008C24.4316 140.472 25.0647 140.821 25.7482 141.032C26.4317 141.243 27.1511 141.312 27.8623 141.236C45.1164 139.237 70.9104 137.204 83.273 140.922C99.4582 145.779 170.938 176.592 194.815 186.968C199.863 189.158 205.546 189.39 210.756 187.618L225.57 182.599" stroke="#323433" stroke-width="3.03254" stroke-linecap="round" stroke-linejoin="round"/>
<path d="M372.968 48.122C375.489 46.7858 379.347 48.122 380.694 51.1429" stroke="#323433" stroke-width="3.03254" stroke-linecap="round" stroke-linejoin="round"/>
<path d="M356.062 41.1504C356.854 41.7555 357.475 42.5563 357.863 43.4741" stroke="#323433" stroke-width="3.03254" stroke-linecap="round" stroke-linejoin="round"/>
<path d="M367.1 43.6126C362.929 49.0851 360.129 52.3965 356.515 52.6986C355.89 52.7226 355.299 52.9878 354.866 53.4385C354.433 53.8891 354.191 54.4902 354.191 55.1153C354.191 55.5701 354.32 56.0155 354.563 56.4001C354.805 56.7847 355.152 57.0926 355.562 57.2881L358.2 58.5778" stroke="#323433" stroke-width="3.03254" stroke-linecap="round" stroke-linejoin="round"/>
<path d="M335.543 108.133C333.103 118.59 334.486 128.512 346.674 133.125C358.119 137.447 382.693 130.569 395.276 118.811" stroke="#323433" stroke-width="3.03254" stroke-linecap="round" stroke-linejoin="round"/>
<path d="M24.0518 131.045C38.7381 126.863 65.0666 119.531 71.3873 118.834" stroke="#323433" stroke-width="3.03254" stroke-linecap="round" stroke-linejoin="round"/>
<path d="M22.0059 136.273C37.3312 133.276 61.0339 128.802 66.9711 128.64" stroke="#323433" stroke-width="3.03254" stroke-linecap="round" stroke-linejoin="round"/>
<path d="M654.076 166.855C654.076 166.855 681.404 170.585 699.309 174.187" stroke="#323433" stroke-width="3.03254" stroke-linecap="round" stroke-linejoin="round"/>
<path d="M652.612 176.243C652.612 176.243 678.999 178.927 696.381 182.18" stroke="#323433" stroke-width="3.03254" stroke-linecap="round" stroke-linejoin="round"/>
<path d="M315.558 502.992L306.321 506.28" stroke="white" stroke-width="3.03254" stroke-linecap="round" stroke-linejoin="round"/>
<path d="M314.548 495.531L306.356 497.646" stroke="white" stroke-width="3.03254" stroke-linecap="round" stroke-linejoin="round"/>
<path d="M266.622 645.67L359.527 599.717" stroke="#323433" stroke-width="3.03254" stroke-linecap="round" stroke-linejoin="round"/>
<path d="M301.246 579.163L361.885 565" stroke="#323433" stroke-width="3.03254" stroke-linecap="round" stroke-linejoin="round"/>
<path d="M391.965 242.564C417.329 238.056 439.045 241.019 450.908 257.576C462.085 273.169 457.054 292.514 441.81 312.626" stroke="#323433" stroke-width="3.03254" stroke-linecap="round" stroke-linejoin="round"/>
<path d="M251.016 306.375C283.305 286.065 344.13 251.058 391.965 242.564" stroke="white" stroke-width="3.03254" stroke-linecap="round" stroke-linejoin="round"/>
<path d="M408.103 346.24C397.763 354.562 386.98 362.319 375.803 369.478" stroke="#323433" stroke-width="3.03254" stroke-linecap="round" stroke-linejoin="round"/>
<path d="M257.336 423.645C215.508 434.927 180.652 434.172 169.3 412.839C154.033 384.083 184.776 353.792 196.883 343.416" stroke="#323433" stroke-width="3.03254" stroke-linecap="round" stroke-linejoin="round"/>
<path d="M190.225 336.539L213.195 329.103L203.737 350.493L190.225 336.539Z" fill="#323433" stroke="#323433" stroke-width="3.03254" stroke-linecap="round" stroke-linejoin="round"/>
<path d="M451.72 229.702C437.069 239.845 421.093 250.046 404.292 260.05" stroke="#323433" stroke-width="3.03254" stroke-linecap="round" stroke-linejoin="round"/>
<path d="M161.607 365.237C130.771 371.929 108.974 371.278 102.967 360.217C96.9597 349.156 108.416 330.624 130.934 308.466" stroke="#323433" stroke-width="3.03254" stroke-linecap="round" stroke-linejoin="round"/>
<path d="M423.127 131.58C478.189 111.305 521.377 105.821 532.345 127.874C538.515 140.225 532.206 156.154 517.171 173.931" stroke="#323433" stroke-width="3.03254" stroke-linecap="round" stroke-linejoin="round"/>
<path d="M262.925 211.496C316.244 179.137 374.35 149.555 423.127 131.581" stroke="white" stroke-width="3.03254" stroke-linecap="round" stroke-linejoin="round"/>
<path d="M169.892 274.865C196.452 254.16 228.707 232.258 262.924 211.495" stroke="#323433" stroke-width="3.03254" stroke-linecap="round" stroke-linejoin="round"/>
<path d="M442.577 313.568C445.453 317.314 447.153 321.829 447.463 326.541C447.773 331.254 446.678 335.952 444.318 340.043C441.957 344.133 438.436 347.432 434.201 349.521C429.966 351.61 425.206 352.397 420.523 351.781C415.841 351.165 411.447 349.174 407.896 346.06C404.345 342.947 401.797 338.85 400.575 334.288C399.352 329.727 399.51 324.905 401.028 320.433C402.546 315.961 405.356 312.039 409.103 309.164C414.126 305.31 420.475 303.609 426.752 304.435C433.029 305.261 438.722 308.546 442.577 313.568Z" fill="white"/>
<path d="M442.577 313.568C445.453 317.314 447.153 321.829 447.463 326.541C447.773 331.254 446.678 335.952 444.318 340.043C441.957 344.133 438.436 347.432 434.201 349.521C429.966 351.61 425.206 352.397 420.523 351.781C415.841 351.165 411.447 349.174 407.896 346.06C404.345 342.947 401.797 338.85 400.575 334.288C399.352 329.727 399.51 324.905 401.028 320.433C402.546 315.961 405.356 312.039 409.103 309.164C414.126 305.31 420.475 303.609 426.752 304.435C433.029 305.261 438.722 308.546 442.577 313.568V313.568Z" stroke="#323433" stroke-width="3.03254" stroke-linecap="round" stroke-linejoin="round"/>
<path d="M415.865 335.214L427.414 336.143L427.809 312.464" stroke="#323433" stroke-width="3.03254" stroke-linecap="round" stroke-linejoin="round"/>
<path d="M144.806 261.329L147.583 259.168C148.407 258.527 149.349 258.054 150.355 257.777C151.362 257.501 152.413 257.425 153.449 257.554C154.485 257.684 155.485 258.016 156.392 258.532C157.3 259.048 158.096 259.738 158.737 260.562L180.313 288.285C180.956 289.108 181.43 290.05 181.707 291.057C181.985 292.063 182.061 293.115 181.932 294.151C181.802 295.188 181.469 296.188 180.952 297.095C180.436 298.003 179.745 298.799 178.919 299.439L151.196 321.015C150.374 321.658 149.432 322.133 148.426 322.412C147.42 322.69 146.369 322.767 145.332 322.639C144.296 322.511 143.296 322.179 142.388 321.663C141.48 321.147 140.683 320.457 140.042 319.633L118.489 291.898C117.847 291.075 117.373 290.133 117.095 289.126C116.818 288.12 116.741 287.068 116.871 286.032C117 284.996 117.333 283.995 117.85 283.088C118.367 282.18 119.058 281.384 119.883 280.744L122.416 278.769L144.806 261.329ZM156.913 299.753C158.444 298.479 159.421 296.66 159.639 294.68C159.857 292.7 159.298 290.713 158.08 289.137C156.862 287.561 155.08 286.519 153.109 286.23C151.138 285.941 149.132 286.427 147.513 287.588C148.222 287.033 148.751 286.28 149.032 285.425C149.314 284.57 149.336 283.651 149.095 282.783C148.854 281.916 148.362 281.139 147.68 280.551C146.998 279.963 146.157 279.591 145.264 279.481C144.37 279.37 143.464 279.527 142.66 279.932C141.856 280.336 141.189 280.97 140.745 281.753C140.301 282.536 140.098 283.433 140.163 284.331C140.229 285.229 140.558 286.087 141.111 286.798C141.479 287.271 141.937 287.666 142.458 287.962C142.979 288.258 143.553 288.448 144.148 288.521C144.743 288.595 145.346 288.55 145.924 288.39C146.501 288.23 147.041 287.957 147.513 287.588C145.983 288.866 145.009 290.689 144.797 292.672C144.585 294.655 145.151 296.643 146.376 298.216C147.601 299.79 149.39 300.826 151.364 301.106C153.339 301.386 155.345 300.888 156.959 299.718L156.913 299.753Z" fill="white"/>
<path d="M158.272 288.97C159.204 290.169 159.759 291.618 159.868 293.133C159.977 294.647 159.634 296.16 158.883 297.48C158.132 298.8 157.006 299.868 155.649 300.549C154.291 301.229 152.762 301.492 151.255 301.303C149.748 301.115 148.331 300.484 147.182 299.49C146.034 298.497 145.206 297.185 144.803 295.72C144.4 294.256 144.44 292.705 144.918 291.264C145.396 289.823 146.291 288.555 147.49 287.622C148.286 287.002 149.197 286.545 150.17 286.278C151.142 286.01 152.159 285.937 153.16 286.062C154.161 286.187 155.128 286.508 156.005 287.007C156.883 287.506 157.653 288.173 158.272 288.97Z" fill="white"/>
<path d="M148.292 281.198C149.033 282.152 149.365 283.361 149.214 284.559C149.064 285.757 148.444 286.847 147.49 287.588C146.774 288.13 145.913 288.449 145.016 288.503C144.12 288.557 143.227 288.345 142.45 287.893C141.674 287.441 141.048 286.77 140.652 285.963C140.257 285.157 140.108 284.251 140.226 283.361C140.343 282.47 140.722 281.634 141.313 280.958C141.905 280.282 142.683 279.795 143.55 279.561C144.417 279.326 145.335 279.352 146.187 279.638C147.039 279.923 147.787 280.453 148.338 281.163L148.292 281.198Z" fill="white"/>
<path d="M144.806 261.329L147.583 259.168C148.407 258.527 149.349 258.054 150.355 257.777C151.362 257.501 152.413 257.425 153.449 257.554C154.485 257.684 155.485 258.016 156.392 258.532C157.3 259.048 158.096 259.738 158.737 260.562L180.313 288.285C180.956 289.108 181.43 290.05 181.707 291.057C181.985 292.063 182.061 293.115 181.932 294.151C181.802 295.188 181.469 296.188 180.952 297.095C180.436 298.003 179.745 298.799 178.919 299.439L151.196 321.015C150.374 321.658 149.432 322.133 148.426 322.412C147.42 322.69 146.369 322.767 145.332 322.639C144.296 322.511 143.296 322.179 142.388 321.663C141.48 321.147 140.683 320.457 140.042 319.633L118.489 291.898C117.847 291.075 117.373 290.133 117.095 289.126C116.818 288.12 116.741 287.068 116.871 286.032C117 284.996 117.333 283.995 117.85 283.088C118.367 282.18 119.058 281.384 119.883 280.744L122.416 278.769L144.806 261.329Z" stroke="#323433" stroke-width="3.03254" stroke-linecap="round" stroke-linejoin="round"/>
<path d="M147.537 287.588C148.245 287.033 148.774 286.28 149.056 285.425C149.337 284.57 149.359 283.651 149.118 282.783C148.878 281.916 148.385 281.139 147.703 280.551C147.022 279.963 146.181 279.591 145.287 279.481C144.394 279.37 143.488 279.527 142.683 279.932C141.879 280.336 141.213 280.97 140.768 281.753C140.324 282.536 140.122 283.433 140.187 284.331C140.252 285.229 140.582 286.087 141.135 286.798C141.502 287.271 141.96 287.666 142.481 287.962C143.002 288.258 143.577 288.448 144.172 288.521C144.766 288.595 145.37 288.55 145.947 288.39C146.525 288.23 147.065 287.957 147.537 287.588Z" stroke="#323433" stroke-width="3.03254" stroke-linecap="round" stroke-linejoin="round"/>
<path d="M147.49 287.622C146.287 288.555 145.389 289.824 144.908 291.268C144.427 292.712 144.385 294.267 144.788 295.734C145.191 297.202 146.02 298.517 147.17 299.513C148.321 300.51 149.741 301.142 151.251 301.331C152.762 301.52 154.294 301.256 155.654 300.574C157.015 299.892 158.142 298.821 158.894 297.497C159.645 296.174 159.987 294.657 159.877 293.139C159.766 291.622 159.208 290.171 158.272 288.97C157.653 288.173 156.883 287.506 156.005 287.007C155.128 286.508 154.161 286.187 153.16 286.062C152.159 285.937 151.142 286.01 150.169 286.278C149.197 286.545 148.286 287.002 147.49 287.622C147.49 287.622 147.513 287.611 147.49 287.622Z" stroke="#323433" stroke-width="3.03254" stroke-linecap="round" stroke-linejoin="round"/>
<path d="M126.17 283.59L122.417 278.768L118.13 273.273" stroke="#323433" stroke-width="3.03254" stroke-linecap="round" stroke-linejoin="round"/>
<path d="M148.582 266.151L144.829 261.329L140.554 255.822" stroke="#323433" stroke-width="3.03254" stroke-linecap="round" stroke-linejoin="round"/>
<ellipse rx="32.5803" ry="30.6885" transform="matrix(0.986808 0.158199 -0.118811 0.992593 423.037 330.054)" fill="#F37C40" stroke="#323433" stroke-width="1.74534"/>
<path d="M424.517 310.585L404.956 341.194L408.255 343.701L428.044 340.825L410.749 337.721L429.587 322.042L424.517 310.585Z" fill="white" stroke="#323433" stroke-width="1.74534"/>
<path d="M436.972 345.733L433.93 345.514L421.566 330.676L429.301 324.511L436.972 345.733Z" fill="white" stroke="#323433" stroke-width="1.74534"/>
<path d="M452.548 224.38C451.778 223.975 450.975 223.634 450.146 223.36C446.784 222.243 443.163 222.402 439.284 223.838C434.336 225.677 430.412 229.048 427.512 233.951C424.612 238.855 423.587 243.864 424.439 248.978C425.094 252.992 426.76 256.137 429.436 258.415C430.04 258.956 430.695 259.438 431.393 259.857L432.217 260.323C436.224 262.442 440.633 262.616 445.444 260.844C450.395 259.023 454.325 255.655 457.235 250.741C460.144 245.827 461.169 240.818 460.308 235.714C459.487 230.742 457.126 227.091 453.226 224.763L452.548 224.38Z" fill="#F9C13D" stroke="#323433" stroke-width="0.995252"/>
<path d="M422.734 231.102C419.827 236.017 418.794 241.019 419.634 246.11C420.463 251.11 422.847 254.772 426.786 257.095L431.739 259.89C431.042 259.472 430.389 258.99 429.786 258.451C427.118 256.176 425.458 253.035 424.805 249.028C423.953 243.931 424.98 238.925 427.887 234.01C430.793 229.095 434.72 225.726 439.666 223.901C443.537 222.467 447.152 222.303 450.511 223.41C451.338 223.682 452.139 224.022 452.907 224.426L447.827 221.559C447.739 221.503 447.647 221.451 447.553 221.404C443.611 219.356 439.268 219.212 434.524 220.975C429.563 222.823 425.633 226.199 422.734 231.102Z" fill="#F37C40" stroke="#323433" stroke-width="0.995252"/>
<path d="M449.091 233.397L448.519 233.06L449.757 230.862L446.021 228.667L444.787 230.858L440.59 228.391L438.624 231.882L440.372 232.909L434.372 243.561L432.624 242.534L430.664 246.014L434.861 248.48L433.621 250.682L437.356 252.877L438.591 250.686L439.163 251.023C440.664 251.902 442.415 252.192 444.032 251.828C445.648 251.465 446.999 250.477 447.787 249.082C448.547 247.789 448.735 246.216 448.312 244.698C449.81 244.305 451.047 243.348 451.761 242.027C452.547 240.63 452.705 238.94 452.201 237.329C451.696 235.717 450.571 234.316 449.071 233.432L449.091 233.397ZM444.121 235.107L447.131 236.876C447.637 237.174 448.017 237.646 448.187 238.189C448.357 238.732 448.304 239.302 448.039 239.773C447.78 240.234 447.338 240.564 446.808 240.693C446.277 240.822 445.699 240.74 445.196 240.465L442.105 238.649L444.121 235.107ZM444.221 245.261C444.309 245.533 444.341 245.814 444.315 246.089C444.289 246.363 444.205 246.625 444.068 246.859C443.803 247.33 443.347 247.663 442.802 247.786C442.257 247.908 441.666 247.81 441.16 247.513L438.15 245.744L440.17 242.157L443.23 243.956C443.714 244.26 444.07 244.729 444.221 245.261Z" fill="white" stroke="#323433" stroke-width="0.995252" stroke-linecap="round" stroke-linejoin="round"/>
<path d="M551.371 528.001C560.427 527.371 567.078 519.34 566.227 510.063C565.376 500.787 557.345 493.777 548.29 494.407C539.234 495.036 532.582 503.067 533.434 512.344C534.285 521.621 542.316 528.631 551.371 528.001Z" fill="#19B787"/>
<path d="M551.503 529.441C541.665 530.126 532.952 522.521 532.027 512.442C531.103 502.364 538.319 493.651 548.157 492.967C557.995 492.283 566.708 499.887 567.632 509.966C568.557 520.044 561.294 528.76 551.503 529.441ZM548.421 495.846C540.176 496.42 534.064 503.8 534.838 512.247C535.613 520.694 542.993 527.135 551.239 526.562C559.484 525.988 565.596 518.608 564.821 510.161C564.047 501.715 556.666 495.273 548.421 495.846Z" fill="#323433"/>
<path d="M537.976 509.724C525.421 510.623 514.248 500.92 513.119 488.136C511.991 475.352 521.321 464.179 533.876 463.279C546.431 462.379 557.604 472.083 558.733 484.867C559.861 497.651 550.532 508.824 537.976 509.724ZM534.13 466.152C523.126 466.94 514.952 476.729 515.941 487.934C516.93 499.138 526.719 507.639 537.723 506.851C548.726 506.062 556.9 496.273 555.911 485.069C554.922 473.865 545.133 465.363 534.13 466.152Z" fill="#323433"/>
<path d="M12.8346 406.897L44.7468 404.678L26.2022 377.572L12.8346 406.897Z" fill="#4385F5"/>
<path d="M47.3298 405.958L10.5371 408.517L25.9481 374.696L47.3298 405.958ZM15.1532 405.293L42.1846 403.414L26.4773 380.464L15.1532 405.293Z" fill="#323433"/>
<path d="M50.9872 391.803L4.65736 395.123L24.2255 352.716L50.9872 391.803ZM9.30008 391.896L45.8367 389.278L24.7332 358.468L9.30008 391.896Z" fill="#323433"/>
<path d="M180.098 81.894L177.268 82.1046L175.738 63.9813L194.603 62.5774L193.194 45.8849L211.587 44.5161L210.298 29.2544L213.128 29.0438L214.658 47.1671L196.265 48.5359L197.674 65.2284L178.809 66.6323L180.098 81.894Z" fill="#323433"/>
<path d="M502.758 649.601L461.552 652.587L462.563 664.273L503.769 661.287L502.758 649.601Z" fill="#EA4235"/>
<path d="M505.307 662.63L461.282 665.81L460.015 651.243L504.04 648.063L505.307 662.63ZM463.869 662.691L502.213 659.922L501.453 651.182L463.108 653.951L463.869 662.691Z" fill="#323433"/>
<ellipse rx="36.4625" ry="39.963" transform="matrix(0.994631 0.104271 -0.138384 0.990464 148.666 286.832)" fill="#E9761A" stroke="#323433" stroke-width="1.6349"/>
<ellipse rx="36.4625" ry="39.963" transform="matrix(0.994631 0.104271 -0.138384 0.990464 144.797 287.681)" fill="#F9C13D" stroke="#323433" stroke-width="1.6349"/>
<mask id="path-80-inside-1_677_7" fill="white">
<path d="M147.386 262.706C148.529 262.224 149.64 263.751 148.921 264.835C148.467 265.733 147.191 265.846 146.651 265.066C146.071 264.31 146.472 262.984 147.386 262.706ZM135.778 262.796C136.462 262.579 137.193 263.306 137.025 264.058C136.983 264.889 135.967 265.394 135.362 264.931C134.54 264.473 134.845 262.957 135.778 262.796ZM158.894 267.506C157.903 267.265 157.973 265.537 158.991 265.298C159.798 264.983 160.389 265.801 160.395 266.583C160.149 267.224 159.557 267.771 158.894 267.506ZM137.672 268.326C138.85 267.706 140.243 268.97 139.894 270.304C139.655 271.663 137.867 272.272 137.043 271.246C136.223 270.422 136.586 268.773 137.672 268.326ZM154.041 270.893C154.703 269.606 156.659 269.777 157.031 271.14C157.437 272.213 156.601 273.396 155.59 273.636C154.277 273.755 153.263 272.133 154.041 270.893ZM144.687 272.377C144.832 271.226 145.919 270.474 146.943 270.505C147.596 270.723 148.287 271.112 148.477 271.875C148.878 272.943 148.214 274.281 147.18 274.639C146.7 274.859 146.188 274.702 145.709 274.618C145.022 274.146 144.503 273.311 144.687 272.377ZM127.465 272.211C128.539 271.664 129.708 273.001 129.179 274.116C128.839 275.093 127.539 275.365 126.914 274.65C126.234 273.969 126.548 272.545 127.465 272.211ZM163.963 276.166C164.894 275.556 166.166 276.509 165.913 277.637C165.829 278.682 164.53 279.336 163.772 278.711C162.918 278.169 163.029 276.641 163.963 276.166ZM148.963 276.638C150.416 276.253 151.969 277.07 152.577 278.483C153.396 280.218 152.511 282.63 150.775 283.387C148.958 284.307 146.647 283.109 146.302 281.032C145.845 279.157 147.167 277.015 148.963 276.638ZM140.841 275.937C142.476 275.324 144.447 276.201 144.958 277.969C145.606 279.706 144.626 281.921 142.957 282.601C141.272 283.385 139.174 282.425 138.658 280.579C138.043 278.781 139.105 276.546 140.841 275.937ZM132.33 278.048C132.59 276.998 133.613 276.407 134.56 276.437C135.553 276.678 136.247 277.612 136.208 278.728C135.995 279.813 135.068 280.796 133.996 280.673C132.801 280.654 131.936 279.275 132.33 278.048ZM156.495 279.049C157.809 278.42 159.343 279.71 159.087 281.206C158.956 282.807 156.942 283.726 155.861 282.662C154.712 281.749 155.105 279.57 156.495 279.049ZM136.603 282.584C138.077 282.317 139.601 283.213 140.107 284.694C140.678 286.192 140.102 288.123 138.779 289.033C137.057 290.39 134.342 289.476 133.814 287.311C133.143 285.306 134.613 282.877 136.603 282.584ZM151.963 284.241C153.399 283.965 154.94 284.714 155.499 286.148C156.27 287.803 155.491 290.063 153.898 290.903C152.215 291.897 149.931 291.032 149.334 289.128C148.568 287.142 149.95 284.603 151.963 284.241ZM127.249 283.355C128.54 282.988 129.701 284.593 129.029 285.848C128.565 287.009 126.947 287.281 126.261 286.314C125.43 285.386 126.026 283.586 127.249 283.355ZM160.182 288.853C160.294 287.755 161.167 286.866 162.215 286.918C163.034 287.153 163.752 287.971 163.553 288.948C163.454 290.257 161.882 290.984 160.937 290.261C160.492 289.945 160.316 289.386 160.182 288.853ZM121.142 283.344C121.925 283.077 122.743 283.865 122.456 284.729C122.282 285.724 120.863 285.96 120.473 285.071C120.107 284.443 120.493 283.578 121.142 283.344ZM167.593 288.36C168.165 288.018 168.959 288.394 169.076 289.07C169.329 289.822 168.558 290.731 167.829 290.53C166.769 290.519 166.662 288.763 167.593 288.36ZM139.637 290.196C141.649 289.862 143.498 291.832 143.22 293.987C143.054 296.176 140.741 297.883 138.825 297.165C137.327 296.733 136.338 295.008 136.613 293.342C136.824 291.742 138.143 290.377 139.637 290.196ZM147.315 291.024C149.362 290.644 151.269 292.652 150.941 294.851C150.757 296.998 148.518 298.647 146.632 298.013C144.838 297.559 143.781 295.246 144.549 293.388C144.979 292.14 146.106 291.21 147.315 291.024ZM132.335 290.745C133.73 290.642 134.786 292.419 134.046 293.753C133.443 295.196 131.384 295.381 130.661 294.071C129.778 292.793 130.841 290.746 132.335 290.745ZM154.839 293.251C156.127 292.834 157.465 294.128 157.18 295.539C157.018 297.109 155.033 297.989 153.969 296.947C152.734 295.981 153.304 293.595 154.839 293.251ZM160.215 300.742C159.868 299.734 160.902 298.561 161.862 298.845C162.353 298.889 162.64 299.342 162.906 299.725C162.894 300.299 162.911 300.986 162.417 301.376C161.716 302.12 160.406 301.744 160.215 300.742ZM124.385 295.052C125.393 294.491 126.584 295.619 126.221 296.757C125.973 297.77 124.696 298.227 123.986 297.559C123.21 296.939 123.444 295.438 124.385 295.052ZM142.261 299.168C143.542 298.725 144.924 300.022 144.617 301.44C144.493 303.03 142.449 303.919 141.4 302.842C140.202 301.886 140.743 299.512 142.261 299.168ZM133.563 300.373C134.666 299.902 135.907 301.057 135.647 302.284C135.541 303.304 134.505 304.071 133.595 303.82C132.828 303.718 132.426 302.919 132.274 302.184C132.391 301.414 132.801 300.586 133.563 300.373ZM150.603 302.239C151.752 301.65 153.114 302.822 152.836 304.135C152.677 305.521 150.864 306.224 150.005 305.209C149.151 304.393 149.497 302.693 150.603 302.239ZM152.502 310.464C152.136 309.648 152.813 308.785 153.598 308.693C154.192 308.894 154.773 309.461 154.541 310.213C154.312 311.239 152.864 311.405 152.502 310.464ZM129.066 307.249C129.334 306.662 129.868 306.108 130.508 306.338C131.464 306.516 131.539 308.117 130.629 308.509C129.795 308.979 129.016 308.127 129.066 307.249ZM140.322 309.175C140.628 308.298 141.763 307.978 142.409 308.532C142.849 308.8 142.909 309.381 142.965 309.875C142.867 310.119 142.776 310.363 142.685 310.608C142.345 310.948 141.921 311.279 141.439 311.213C140.525 311.229 139.862 310.045 140.322 309.175Z"/>
</mask>
<path d="M147.386 262.706C148.529 262.224 149.64 263.751 148.921 264.835C148.467 265.733 147.191 265.846 146.651 265.066C146.071 264.31 146.472 262.984 147.386 262.706ZM135.778 262.796C136.462 262.579 137.193 263.306 137.025 264.058C136.983 264.889 135.967 265.394 135.362 264.931C134.54 264.473 134.845 262.957 135.778 262.796ZM158.894 267.506C157.903 267.265 157.973 265.537 158.991 265.298C159.798 264.983 160.389 265.801 160.395 266.583C160.149 267.224 159.557 267.771 158.894 267.506ZM137.672 268.326C138.85 267.706 140.243 268.97 139.894 270.304C139.655 271.663 137.867 272.272 137.043 271.246C136.223 270.422 136.586 268.773 137.672 268.326ZM154.041 270.893C154.703 269.606 156.659 269.777 157.031 271.14C157.437 272.213 156.601 273.396 155.59 273.636C154.277 273.755 153.263 272.133 154.041 270.893ZM144.687 272.377C144.832 271.226 145.919 270.474 146.943 270.505C147.596 270.723 148.287 271.112 148.477 271.875C148.878 272.943 148.214 274.281 147.18 274.639C146.7 274.859 146.188 274.702 145.709 274.618C145.022 274.146 144.503 273.311 144.687 272.377ZM127.465 272.211C128.539 271.664 129.708 273.001 129.179 274.116C128.839 275.093 127.539 275.365 126.914 274.65C126.234 273.969 126.548 272.545 127.465 272.211ZM163.963 276.166C164.894 275.556 166.166 276.509 165.913 277.637C165.829 278.682 164.53 279.336 163.772 278.711C162.918 278.169 163.029 276.641 163.963 276.166ZM148.963 276.638C150.416 276.253 151.969 277.07 152.577 278.483C153.396 280.218 152.511 282.63 150.775 283.387C148.958 284.307 146.647 283.109 146.302 281.032C145.845 279.157 147.167 277.015 148.963 276.638ZM140.841 275.937C142.476 275.324 144.447 276.201 144.958 277.969C145.606 279.706 144.626 281.921 142.957 282.601C141.272 283.385 139.174 282.425 138.658 280.579C138.043 278.781 139.105 276.546 140.841 275.937ZM132.33 278.048C132.59 276.998 133.613 276.407 134.56 276.437C135.553 276.678 136.247 277.612 136.208 278.728C135.995 279.813 135.068 280.796 133.996 280.673C132.801 280.654 131.936 279.275 132.33 278.048ZM156.495 279.049C157.809 278.42 159.343 279.71 159.087 281.206C158.956 282.807 156.942 283.726 155.861 282.662C154.712 281.749 155.105 279.57 156.495 279.049ZM136.603 282.584C138.077 282.317 139.601 283.213 140.107 284.694C140.678 286.192 140.102 288.123 138.779 289.033C137.057 290.39 134.342 289.476 133.814 287.311C133.143 285.306 134.613 282.877 136.603 282.584ZM151.963 284.241C153.399 283.965 154.94 284.714 155.499 286.148C156.27 287.803 155.491 290.063 153.898 290.903C152.215 291.897 149.931 291.032 149.334 289.128C148.568 287.142 149.95 284.603 151.963 284.241ZM127.249 283.355C128.54 282.988 129.701 284.593 129.029 285.848C128.565 287.009 126.947 287.281 126.261 286.314C125.43 285.386 126.026 283.586 127.249 283.355ZM160.182 288.853C160.294 287.755 161.167 286.866 162.215 286.918C163.034 287.153 163.752 287.971 163.553 288.948C163.454 290.257 161.882 290.984 160.937 290.261C160.492 289.945 160.316 289.386 160.182 288.853ZM121.142 283.344C121.925 283.077 122.743 283.865 122.456 284.729C122.282 285.724 120.863 285.96 120.473 285.071C120.107 284.443 120.493 283.578 121.142 283.344ZM167.593 288.36C168.165 288.018 168.959 288.394 169.076 289.07C169.329 289.822 168.558 290.731 167.829 290.53C166.769 290.519 166.662 288.763 167.593 288.36ZM139.637 290.196C141.649 289.862 143.498 291.832 143.22 293.987C143.054 296.176 140.741 297.883 138.825 297.165C137.327 296.733 136.338 295.008 136.613 293.342C136.824 291.742 138.143 290.377 139.637 290.196ZM147.315 291.024C149.362 290.644 151.269 292.652 150.941 294.851C150.757 296.998 148.518 298.647 146.632 298.013C144.838 297.559 143.781 295.246 144.549 293.388C144.979 292.14 146.106 291.21 147.315 291.024ZM132.335 290.745C133.73 290.642 134.786 292.419 134.046 293.753C133.443 295.196 131.384 295.381 130.661 294.071C129.778 292.793 130.841 290.746 132.335 290.745ZM154.839 293.251C156.127 292.834 157.465 294.128 157.18 295.539C157.018 297.109 155.033 297.989 153.969 296.947C152.734 295.981 153.304 293.595 154.839 293.251ZM160.215 300.742C159.868 299.734 160.902 298.561 161.862 298.845C162.353 298.889 162.64 299.342 162.906 299.725C162.894 300.299 162.911 300.986 162.417 301.376C161.716 302.12 160.406 301.744 160.215 300.742ZM124.385 295.052C125.393 294.491 126.584 295.619 126.221 296.757C125.973 297.77 124.696 298.227 123.986 297.559C123.21 296.939 123.444 295.438 124.385 295.052ZM142.261 299.168C143.542 298.725 144.924 300.022 144.617 301.44C144.493 303.03 142.449 303.919 141.4 302.842C140.202 301.886 140.743 299.512 142.261 299.168ZM133.563 300.373C134.666 299.902 135.907 301.057 135.647 302.284C135.541 303.304 134.505 304.071 133.595 303.82C132.828 303.718 132.426 302.919 132.274 302.184C132.391 301.414 132.801 300.586 133.563 300.373ZM150.603 302.239C151.752 301.65 153.114 302.822 152.836 304.135C152.677 305.521 150.864 306.224 150.005 305.209C149.151 304.393 149.497 302.693 150.603 302.239ZM152.502 310.464C152.136 309.648 152.813 308.785 153.598 308.693C154.192 308.894 154.773 309.461 154.541 310.213C154.312 311.239 152.864 311.405 152.502 310.464ZM129.066 307.249C129.334 306.662 129.868 306.108 130.508 306.338C131.464 306.516 131.539 308.117 130.629 308.509C129.795 308.979 129.016 308.127 129.066 307.249ZM140.322 309.175C140.628 308.298 141.763 307.978 142.409 308.532C142.849 308.8 142.909 309.381 142.965 309.875C142.867 310.119 142.776 310.363 142.685 310.608C142.345 310.948 141.921 311.279 141.439 311.213C140.525 311.229 139.862 310.045 140.322 309.175Z" fill="#FBFFFF" stroke="#323433" stroke-width="3.2698" mask="url(#path-80-inside-1_677_7)"/>
<path d="M177.309 290.846C174.833 310.133 158.191 324.013 140.235 321.975C122.278 319.937 109.627 302.732 112.103 283.445C114.579 264.158 131.221 250.278 149.177 252.316C167.133 254.354 179.785 271.559 177.309 290.846Z" stroke="#323433" stroke-width="1.6349"/>
</svg>
