<svg width="492" height="539" viewBox="0 0 492 539" fill="none" xmlns="http://www.w3.org/2000/svg">
<path d="M193.54 538.694C277.233 538.694 345.08 523.764 345.08 505.347C345.08 486.93 277.233 472 193.54 472C109.847 472 42 486.93 42 505.347C42 523.764 109.847 538.694 193.54 538.694Z" fill="#E0E5F8"/>
<path d="M52.6426 237.308L66.6809 250.27" stroke="#323433" stroke-width="2" stroke-linecap="round" stroke-linejoin="round"/>
<path d="M53.1777 250.805L66.1373 236.772" stroke="#323433" stroke-width="2" stroke-linecap="round" stroke-linejoin="round"/>
<path d="M271.84 246.663C271.482 245.949 269.096 246.485 265.681 247.984C258.301 251.219 246.135 258.989 239.248 268.63C238.376 265.409 237.483 262.095 236.569 258.632C229.861 281.377 231.768 297.68 242.963 319.49C243.296 320.136 243.433 320.865 243.358 321.588C243.283 322.311 243 322.996 242.541 323.56L241.984 324.275C241.525 324.837 241.242 325.523 241.17 326.246H145.324C145.247 325.524 144.964 324.84 144.509 324.275L143.945 323.56C143.488 322.995 143.205 322.31 143.132 321.587C143.058 320.864 143.197 320.135 143.53 319.49C154.725 297.68 156.633 281.377 149.96 258.632C149.039 262.067 148.153 265.38 147.281 268.63C140.373 258.989 128.206 251.219 120.848 247.984C117.433 246.485 115.047 245.956 114.689 246.663C120.491 235.237 125.649 225.032 130.514 214.741C132.6 210.34 135.954 206.662 140.146 204.18C144.337 201.697 149.176 200.523 154.04 200.809L159.498 201.13C164.082 212.504 169.792 223.392 176.544 233.63C181.802 241.564 187.867 249.412 195.454 258.703L191.368 269.244H199.691L195.454 258.703C200.854 252.701 205.845 246.342 210.393 239.672C217.408 229.138 222.595 217.798 227.767 201.109L232.554 200.83C237.418 200.543 242.257 201.716 246.449 204.199C250.641 206.681 253.995 210.36 256.08 214.763C260.888 225.032 266.039 235.266 271.84 246.663Z" fill="#F37C40"/>
<path d="M379.588 289.375L380.71 289.754C381.602 289.997 382.404 290.492 383.021 291.18C383.639 291.868 384.044 292.719 384.189 293.632C384.768 297.288 385.153 300.344 385.425 303.694C386.232 313.577 374.53 320.79 374.501 320.833C373.036 321.702 371.344 322.112 369.643 322.011C360.145 321.57 350.787 319.55 341.953 316.034C311.704 320.733 298.48 323.961 271.54 327.11C267.528 327.573 263.48 326.633 260.082 324.452C256.685 322.27 254.147 318.98 252.901 315.141C247.692 299.059 243.67 285.033 239.227 268.651C246.135 259.011 258.301 251.241 265.66 248.006L270.218 264.202L277.927 291.568C278.107 292.208 278.494 292.77 279.028 293.167C279.562 293.564 280.212 293.772 280.877 293.76C293.401 293.524 312.99 294.524 337.373 294.824C338.441 294.85 339.503 294.65 340.488 294.236C341.473 293.823 342.359 293.205 343.088 292.425C346.839 288.347 354.362 284.569 362.742 279.185C362.978 279.031 363.252 278.944 363.534 278.934C363.816 278.924 364.096 278.991 364.342 279.128C364.588 279.264 364.792 279.464 364.934 279.707C365.076 279.949 365.151 280.225 365.15 280.506C365.15 286.033 363.892 289.075 357.584 289.418L354.376 295.724C354.127 296.216 354.053 296.777 354.164 297.317C354.276 297.856 354.567 298.342 354.991 298.695L362.135 304.615C362.355 304.797 362.613 304.927 362.89 304.995C363.167 305.064 363.455 305.069 363.735 305.011C364.014 304.952 364.277 304.832 364.503 304.658C364.729 304.485 364.914 304.262 365.043 304.008C367.463 299.456 368.922 294.457 369.329 289.318C369.364 288.939 369.483 288.573 369.675 288.244C369.867 287.916 370.129 287.633 370.442 287.417C370.756 287.2 371.113 287.055 371.488 286.991C371.863 286.927 372.248 286.947 372.615 287.047L374.123 287.554L379.588 289.375Z" fill="white"/>
<path d="M166.277 364.994L163.098 396.773C131.071 394.288 104.516 392.774 71.5386 390.81C63.9714 390.337 56.8848 386.941 51.7763 381.341C46.6679 375.74 43.9379 368.374 44.1633 360.798C44.3887 353.223 47.5519 346.032 52.9843 340.744C58.4167 335.457 65.6927 332.489 73.2746 332.466H140.43C141.101 332.465 141.76 332.285 142.338 331.943C142.916 331.601 143.392 331.111 143.716 330.523L144.859 328.424C145.217 327.77 145.368 327.023 145.295 326.281H241.148C241.075 327.023 241.227 327.77 241.584 328.424L242.727 330.523C243.051 331.111 243.527 331.601 244.105 331.943C244.683 332.285 245.342 332.465 246.013 332.466H313.169C320.378 332.467 327.333 335.134 332.694 339.953C338.055 344.771 341.444 351.401 342.21 358.567C343.989 375.185 331.236 389.825 314.547 390.832C286.821 392.503 263.724 395.923 237.933 397.816L235.662 364.637C229.527 365.252 223.6 365.728 217.88 366.066C212.312 366.418 206.944 366.656 201.777 366.78C190.832 366.746 178.999 366.151 166.277 364.994Z" fill="#00B07A"/>
<path d="M271.846 246.671C275.218 253.341 272.36 260.41 270.238 264.181L265.666 247.985C269.081 246.485 271.467 245.956 271.824 246.663L271.846 246.671Z" fill="#323433"/>
<path d="M247.093 417.84C248.448 419.747 249.044 422.09 248.765 424.412C248.486 426.734 247.353 428.87 245.585 430.402C245.013 430.898 244.34 431.263 243.613 431.472C242.885 431.682 242.121 431.73 241.372 431.613C240.624 431.497 239.911 431.219 239.281 430.799C238.651 430.379 238.121 429.827 237.727 429.181C230.818 417.626 216.694 410.142 202.127 405.4C201.984 404.786 201.841 404.172 201.691 403.558C211.617 400.896 221.758 399.118 231.997 398.245C236.583 404.258 241.534 410.563 247.093 417.84Z" fill="#323433"/>
<path d="M235.662 364.637L237.998 397.816L233.833 398.108L232.018 398.237C221.78 399.111 211.638 400.889 201.713 403.55C200.756 403.814 199.805 404.086 198.855 404.371C197.669 404.721 196.491 405.085 195.283 405.471C199.012 389.046 205.721 376.906 217.873 366.094C223.569 365.723 229.499 365.237 235.662 364.637Z" fill="white"/>
<path d="M235.762 165.503L228.896 162.011C231.297 178.835 227.703 191.554 220.438 201.216C216.257 206.649 211.096 211.251 205.221 214.785C203.642 206.729 202.687 198.564 202.363 190.362C205.697 189.136 208.598 186.96 210.707 184.102C212.817 181.245 214.041 177.832 214.23 174.286C214.315 172.687 214.387 171.094 214.422 169.495H215.723C216.845 169.495 217.928 169.084 218.767 168.339C219.606 167.594 220.142 166.567 220.273 165.453L220.438 164.11C220.513 163.467 220.452 162.815 220.257 162.198C220.063 161.58 219.74 161.011 219.309 160.527C218.878 160.043 218.35 159.656 217.759 159.391C217.168 159.126 216.528 158.989 215.88 158.99H214.315C215.215 151.67 213.687 144.593 207.785 140.18C209.42 142.803 210.43 145.767 210.736 148.842C205.778 147.192 193.269 146.957 193.269 146.957C193.269 146.957 180.752 147.192 175.801 148.842C176.103 145.767 177.111 142.803 178.744 140.18C172.851 144.593 171.315 151.67 172.222 158.99H170.65C170.003 158.989 169.362 159.126 168.772 159.391C168.181 159.656 167.653 160.043 167.223 160.527C166.793 161.011 166.47 161.581 166.277 162.198C166.083 162.816 166.023 163.467 166.099 164.11L166.256 165.453C166.389 166.566 166.926 167.592 167.764 168.337C168.603 169.082 169.685 169.494 170.807 169.495H172.115C172.15 171.094 172.215 172.687 172.3 174.286C172.497 177.835 173.732 181.248 175.852 184.102C177.971 186.956 180.883 189.125 184.224 190.34C183.897 198.573 182.942 206.769 181.366 214.856C175.065 210.971 169.771 206.608 165.764 201.466C159.191 193.054 156.069 182.578 157.591 168.795L149.018 173.208C152.932 165.365 156.34 157.278 159.219 148.999C162.006 140.858 174.051 122.948 193.233 122.948C202.406 122.948 209.943 127.018 215.658 132.203C227.325 142.843 228.346 153.884 235.762 165.503Z" fill="#323433"/>
<path d="M205.221 214.764C211.096 211.23 216.257 206.628 220.438 201.195L220.723 201.402C223.031 201.309 225.346 201.195 227.703 201.059C222.531 217.77 217.344 229.11 210.329 239.622C197.326 240.337 187.089 238.601 176.48 233.581C169.728 223.343 164.018 212.455 159.434 201.081C161.577 201.195 163.656 201.302 165.749 201.381C169.757 206.523 175.036 210.886 181.352 214.771C182.926 206.695 183.881 198.511 184.21 190.29C180.879 189.066 177.98 186.893 175.871 184.04C173.762 181.187 172.536 177.779 172.343 174.237C172.257 172.637 172.193 171.045 172.157 169.445H170.85C169.728 169.444 168.646 169.032 167.807 168.287C166.968 167.543 166.432 166.516 166.299 165.403L166.142 164.06C166.073 163.425 166.138 162.783 166.333 162.174C166.527 161.565 166.847 161.004 167.272 160.527C167.696 160.049 168.216 159.666 168.798 159.401C169.38 159.136 170.011 158.996 170.65 158.99H172.222C171.314 151.67 172.85 144.593 178.744 140.18C177.11 142.803 176.103 145.767 175.801 148.842C180.752 147.193 193.268 146.957 193.268 146.957C193.268 146.957 205.778 147.193 210.736 148.842C210.434 145.768 209.429 142.805 207.8 140.18C213.701 144.593 215.23 151.67 214.329 158.99H215.894C216.542 158.99 217.182 159.126 217.773 159.391C218.364 159.656 218.893 160.043 219.323 160.527C219.754 161.011 220.077 161.58 220.272 162.198C220.466 162.816 220.528 163.467 220.452 164.11L220.288 165.453C220.156 166.567 219.62 167.594 218.781 168.339C217.942 169.084 216.859 169.496 215.737 169.495H214.444C214.408 171.095 214.337 172.687 214.251 174.287C214.059 177.828 212.834 181.236 210.726 184.089C208.618 186.942 205.721 189.115 202.391 190.34C202.706 198.542 203.652 206.707 205.221 214.764Z" fill="white"/>
<path d="M176.479 233.63C187.088 238.629 197.325 240.4 210.328 239.672C205.78 246.343 200.789 252.701 195.389 258.703C187.795 249.413 181.737 241.564 176.479 233.63Z" fill="white"/>
<path d="M217.844 366.094C205.698 376.934 198.983 389.075 195.254 405.471C180.687 410.213 166.563 417.697 159.654 429.252C159.195 430.019 158.544 430.653 157.765 431.091C156.985 431.53 156.105 431.757 155.211 431.751C153.951 431.752 152.733 431.298 151.781 430.473C150.014 428.942 148.881 426.807 148.604 424.485C148.326 422.164 148.924 419.823 150.281 417.918C156.225 410.12 161.49 403.436 166.356 397.03C172.539 389.035 178.293 380.718 183.594 372.114C184.572 370.501 185.95 369.168 187.594 368.244C189.239 367.321 191.095 366.838 192.982 366.844C195.84 366.844 198.757 366.82 201.733 366.772C206.911 366.668 212.281 366.442 217.844 366.094Z" fill="#323433"/>
<path d="M202.084 405.393C200.991 405.036 199.883 404.679 198.783 404.365C199.741 404.079 200.691 403.808 201.641 403.544C201.827 404.165 201.969 404.815 202.084 405.393Z" fill="white"/>
<path d="M195.389 258.704L199.626 269.244H191.303L195.389 258.704Z" fill="#F37C40"/>
<path d="M201.741 366.773C198.764 366.835 195.847 366.859 192.99 366.844C191.103 366.839 189.247 367.321 187.602 368.245C185.957 369.168 184.579 370.501 183.602 372.114C178.301 380.719 172.546 389.036 166.363 397.03L163.105 396.773L166.285 364.995C179.02 366.161 190.839 366.754 201.741 366.773Z" fill="white"/>
<path d="M12.3276 287.533L13.835 287.026C14.2022 286.926 14.5866 286.908 14.9615 286.973C15.3364 287.037 15.6927 287.182 16.0056 287.399C16.3185 287.615 16.5805 287.897 16.7732 288.225C16.9659 288.552 17.0847 288.918 17.1213 289.297C17.5287 294.435 18.9877 299.435 21.4078 303.986C21.5365 304.241 21.7209 304.463 21.9472 304.637C22.1736 304.811 22.4362 304.931 22.7155 304.989C22.9949 305.048 23.2837 305.042 23.5607 304.974C23.8377 304.905 24.0957 304.775 24.3155 304.594L31.4597 298.673C31.8832 298.321 32.1746 297.835 32.2862 297.295C32.3978 296.756 32.323 296.194 32.0741 295.703L28.8663 289.397C22.8652 289.04 21.4578 286.305 21.3078 281.277C21.299 280.92 21.3874 280.568 21.5636 280.257C21.7398 279.946 21.9971 279.689 22.308 279.513C22.6171 279.335 22.9693 279.246 23.3259 279.255C23.6825 279.263 24.0299 279.37 24.3298 279.563C32.4599 284.719 39.704 288.426 43.3619 292.418C44.0907 293.199 44.977 293.816 45.9621 294.23C46.9473 294.644 48.009 294.844 49.0772 294.817C73.4674 294.517 93.0424 293.517 105.573 293.753C106.238 293.765 106.889 293.557 107.423 293.16C107.957 292.763 108.344 292.201 108.524 291.561L116.232 264.195L120.79 247.999C128.17 251.234 140.337 259.004 147.224 268.644C142.78 285.034 138.758 299.059 133.543 315.148C132.295 318.981 129.759 322.263 126.366 324.44C122.972 326.616 118.93 327.552 114.925 327.089C87.9843 323.939 74.7533 320.711 44.5121 316.012C35.6816 319.522 26.3282 321.537 16.8356 321.975C15.1324 322.078 13.4377 321.667 11.9704 320.797C11.9704 320.797 0.232521 313.563 1.03981 303.658C1.31843 300.309 1.69707 297.231 2.2829 293.596C2.42782 292.683 2.83321 291.832 3.45038 291.144C4.06756 290.456 4.87027 289.961 5.76211 289.718L6.88374 289.34L12.3276 287.533Z" fill="white"/>
<path d="M120.792 247.985L116.234 264.181C114.09 260.418 111.233 253.341 114.633 246.663C114.991 245.956 117.377 246.485 120.792 247.985Z" fill="#323433"/>
<path d="M205.228 214.856V214.799C203.65 206.743 202.694 198.578 202.37 190.376C205.705 189.148 208.606 186.969 210.714 184.109C212.822 181.249 214.044 177.834 214.23 174.286C214.315 172.687 214.387 171.094 214.422 169.495H215.723C216.845 169.495 217.928 169.084 218.767 168.339C219.606 167.594 220.142 166.567 220.273 165.453L220.438 164.11C220.513 163.467 220.452 162.815 220.257 162.198C220.063 161.58 219.74 161.011 219.309 160.527C218.878 160.043 218.35 159.656 217.759 159.391C217.168 159.126 216.528 158.989 215.88 158.99H214.315C215.215 151.67 213.687 144.593 207.785 140.18C209.42 142.803 210.43 145.767 210.736 148.842C205.778 147.192 193.269 146.957 193.269 146.957C193.269 146.957 180.752 147.192 175.801 148.842C176.103 145.767 177.111 142.803 178.744 140.18C172.851 144.593 171.315 151.67 172.222 158.99H170.65C170.003 158.989 169.362 159.126 168.772 159.391C168.181 159.656 167.653 160.043 167.223 160.527C166.793 161.011 166.47 161.581 166.277 162.198C166.083 162.816 166.023 163.467 166.099 164.11L166.256 165.453C166.389 166.566 166.926 167.592 167.764 168.337C168.603 169.082 169.685 169.494 170.807 169.495H172.115C172.15 171.094 172.215 172.687 172.3 174.286C172.497 177.835 173.732 181.248 175.852 184.102C177.971 186.956 180.883 189.125 184.224 190.34C183.897 198.573 182.942 206.769 181.366 214.856C175.065 210.971 169.771 206.608 165.764 201.466C159.191 193.054 156.069 182.578 157.591 168.795L149.018 173.208C152.932 165.365 156.34 157.278 159.219 148.999C162.006 140.858 174.051 122.948 193.233 122.948C202.406 122.948 209.943 127.018 215.658 132.203C227.361 142.843 228.382 153.884 235.798 165.503L228.896 162.011C231.297 178.835 227.703 191.554 220.438 201.216C216.257 206.649 211.096 211.251 205.221 214.785L205.121 214.842" stroke="#323433" stroke-width="2" stroke-linecap="round" stroke-linejoin="round"/>
<path d="M194.154 156.148C193.497 160.183 193.897 164.182 196.219 166.724C196.284 166.797 196.333 166.884 196.364 166.977C196.395 167.07 196.406 167.169 196.396 167.267C196.387 167.365 196.357 167.46 196.309 167.546C196.262 167.632 196.197 167.707 196.118 167.767C194.961 168.615 193.695 169.305 192.354 169.816" stroke="#323433" stroke-width="2" stroke-linecap="round" stroke-linejoin="round"/>
<path d="M179.695 158.29C181.837 157.057 184.359 156.66 186.775 157.176" stroke="#323433" stroke-width="2" stroke-linecap="round" stroke-linejoin="round"/>
<path d="M206.92 158.29C204.924 157.149 202.6 156.716 200.326 157.061" stroke="#323433" stroke-width="2" stroke-linecap="round" stroke-linejoin="round"/>
<path d="M165.749 201.43C163.655 201.352 161.562 201.244 159.433 201.13L153.975 200.809C149.111 200.523 144.273 201.697 140.081 204.18C135.889 206.662 132.535 210.34 130.449 214.741C125.584 225.032 120.447 235.266 114.625 246.663" stroke="#323433" stroke-width="2" stroke-linecap="round" stroke-linejoin="round"/>
<path d="M220.723 201.431C223.03 201.338 225.345 201.224 227.702 201.088L232.489 200.809C237.353 200.522 242.192 201.695 246.384 204.178C250.577 206.661 253.93 210.34 256.015 214.742C260.887 225.033 266.017 235.266 271.839 246.664" stroke="#323433" stroke-width="2" stroke-linecap="round" stroke-linejoin="round"/>
<path d="M116.234 264.181C114.09 260.418 111.233 253.341 114.633 246.664C114.991 245.95 117.377 246.485 120.792 247.985C128.172 251.22 140.338 258.99 147.225 268.63" stroke="#323433" stroke-width="2" stroke-linecap="round" stroke-linejoin="round"/>
<path d="M270.24 264.181C272.383 260.411 275.241 253.341 271.848 246.671C271.49 245.957 269.104 246.492 265.689 247.992C258.309 251.227 246.143 258.997 239.256 268.637" stroke="#323433" stroke-width="2" stroke-linecap="round" stroke-linejoin="round"/>
<path d="M12.3276 287.533C11.7775 298.509 12.6633 303.893 15.0424 309.485" stroke="#323433" stroke-width="2" stroke-linecap="round" stroke-linejoin="round"/>
<path d="M374.143 287.533C374.693 298.509 373.807 303.893 371.428 309.485" stroke="#323433" stroke-width="2" stroke-linecap="round" stroke-linejoin="round"/>
<path d="M6.88471 289.375C6.02741 300.309 6.75612 305.715 8.97081 311.363" stroke="#323433" stroke-width="2" stroke-linecap="round" stroke-linejoin="round"/>
<path d="M379.588 289.375C380.445 300.309 379.717 305.715 377.502 311.363" stroke="#323433" stroke-width="2" stroke-linecap="round" stroke-linejoin="round"/>
<path d="M120.791 247.984L116.233 264.181L108.496 291.546C108.316 292.186 107.929 292.749 107.395 293.145C106.861 293.542 106.211 293.751 105.546 293.738C93.0146 293.503 73.4396 294.502 49.0494 294.802C47.9812 294.829 46.9195 294.629 45.9344 294.215C44.9492 293.802 44.063 293.184 43.3341 292.403C39.6763 288.425 32.4321 284.719 24.302 279.549C24.0021 279.356 23.6548 279.249 23.2982 279.24C22.9415 279.231 22.5894 279.321 22.2802 279.499C21.9788 279.682 21.7323 279.944 21.5664 280.255C21.4005 280.567 21.3214 280.917 21.3372 281.27C21.4872 286.269 22.8946 289.032 28.8957 289.389L32.1035 295.695C32.3524 296.187 32.4272 296.748 32.3156 297.288C32.204 297.827 31.9126 298.313 31.4891 298.666L24.3449 304.586C24.1251 304.768 23.8671 304.898 23.5901 304.966C23.3131 305.035 23.0242 305.04 22.7449 304.982C22.4656 304.924 22.203 304.803 21.9766 304.63C21.7502 304.456 21.5659 304.234 21.4372 303.979C19.0171 299.428 17.5581 294.428 17.1507 289.289C17.1141 288.911 16.9952 288.545 16.8026 288.217C16.6099 287.889 16.3479 287.607 16.035 287.391C15.7221 287.175 15.3658 287.03 14.9909 286.965C14.616 286.901 14.2316 286.919 13.8644 287.018L12.357 287.525L6.91313 289.368L5.7915 289.746C4.89966 289.989 4.09695 290.484 3.47977 291.172C2.8626 291.86 2.45721 292.712 2.31229 293.624C1.72646 297.28 1.34782 300.337 1.0692 303.686C0.261909 313.57 11.9712 320.782 11.9998 320.825C13.462 321.68 15.1457 322.08 16.8364 321.975C26.3323 321.533 35.6882 319.513 44.52 315.998C74.7613 320.697 87.9923 323.925 114.933 327.074C118.942 327.54 122.989 326.604 126.386 324.424C129.782 322.245 132.319 318.957 133.565 315.119C138.78 299.03 142.802 285.005 147.246 268.615C148.118 265.395 149.003 262.081 149.925 258.618C156.633 281.363 154.726 297.666 143.495 319.476C143.162 320.121 143.023 320.85 143.097 321.572C143.17 322.295 143.453 322.981 143.91 323.546L144.474 324.26C144.929 324.825 145.212 325.51 145.289 326.231C145.362 326.973 145.21 327.72 144.853 328.374L143.71 330.473C143.385 331.061 142.91 331.551 142.332 331.893C141.754 332.234 141.095 332.415 140.423 332.416H73.2682C65.6862 332.439 58.4102 335.407 52.9778 340.694C47.5454 345.981 44.3823 353.173 44.1569 360.748C43.9314 368.324 46.6614 375.69 51.7699 381.291C56.8783 386.891 63.9649 390.287 71.5321 390.76C104.502 392.724 131.064 394.238 163.092 396.723L166.35 396.98" stroke="#323433" stroke-width="2" stroke-linecap="round" stroke-linejoin="round"/>
<path d="M145.324 326.246H241.149" stroke="#323433" stroke-width="2" stroke-linecap="round" stroke-linejoin="round"/>
<path d="M198.812 404.371C199.77 404.086 200.72 403.814 201.67 403.55C211.595 400.888 221.737 399.11 231.976 398.237L233.79 398.108L237.955 397.816C263.746 395.923 286.843 392.502 314.569 390.831C331.258 389.824 344.011 375.185 342.232 358.567C341.466 351.401 338.077 344.771 332.716 339.952C327.355 335.134 320.4 332.467 313.191 332.466H246.035C245.364 332.465 244.705 332.284 244.127 331.943C243.549 331.601 243.073 331.111 242.749 330.523L241.606 328.424C241.252 327.772 241.098 327.03 241.166 326.292C241.233 325.553 241.518 324.851 241.985 324.275L242.542 323.56C243 322.996 243.284 322.311 243.359 321.588C243.434 320.865 243.296 320.136 242.963 319.49C231.769 297.68 229.861 281.377 236.569 258.632C237.484 262.067 238.377 265.38 239.248 268.63C243.692 285.012 247.714 299.037 252.922 315.119C254.169 318.959 256.707 322.248 260.104 324.43C263.502 326.612 267.55 327.551 271.562 327.088C298.502 323.939 311.726 320.711 341.974 316.012C350.803 319.521 360.154 321.536 369.644 321.975C371.345 322.076 373.037 321.666 374.502 320.797C374.502 320.797 386.233 313.563 385.425 303.658C385.154 300.308 384.768 297.23 384.189 293.596C384.044 292.683 383.639 291.832 383.022 291.144C382.405 290.456 381.602 289.961 380.71 289.718L379.589 289.339L374.145 287.497L372.637 286.99C372.27 286.889 371.885 286.87 371.51 286.934C371.134 286.998 370.778 287.143 370.464 287.359C370.151 287.576 369.889 287.858 369.697 288.187C369.504 288.515 369.386 288.882 369.351 289.261C368.944 294.399 367.485 299.399 365.064 303.95C364.936 304.205 364.751 304.427 364.525 304.601C364.299 304.775 364.036 304.895 363.757 304.953C363.477 305.012 363.189 305.006 362.912 304.938C362.635 304.869 362.377 304.739 362.157 304.557L355.013 298.637C354.589 298.285 354.298 297.799 354.186 297.259C354.074 296.72 354.149 296.158 354.398 295.667L357.606 289.361C363.914 288.989 365.15 285.976 365.172 280.448C365.159 280.174 365.075 279.907 364.927 279.675C364.779 279.443 364.572 279.255 364.329 279.127C364.082 278.99 363.802 278.923 363.52 278.933C363.238 278.943 362.965 279.03 362.728 279.184C354.348 284.548 346.825 288.347 343.075 292.424C342.346 293.205 341.459 293.823 340.474 294.236C339.489 294.65 338.427 294.85 337.359 294.824C312.976 294.524 293.387 293.524 280.863 293.76C280.198 293.772 279.548 293.563 279.014 293.167C278.48 292.77 278.093 292.208 277.913 291.567L270.24 264.181L265.668 247.984" stroke="#323433" stroke-width="2" stroke-linecap="round" stroke-linejoin="round"/>
<path d="M303.531 354.261C278.448 359.167 255.866 362.609 235.598 364.638C229.463 365.252 223.536 365.728 217.816 366.066C212.248 366.418 206.88 366.656 201.713 366.78C198.736 366.842 195.819 366.866 192.961 366.851C191.075 366.846 189.219 367.328 187.574 368.252C185.929 369.175 184.551 370.508 183.574 372.122C178.281 380.723 172.537 389.037 166.363 397.03V397.03C161.498 403.458 156.233 410.12 150.289 417.919C148.932 419.823 148.334 422.164 148.611 424.486C148.889 426.807 150.022 428.942 151.789 430.473C152.741 431.299 153.959 431.753 155.218 431.751C156.113 431.757 156.993 431.53 157.772 431.092C158.552 430.653 159.203 430.019 159.662 429.252C166.571 417.697 180.695 410.213 195.262 405.471C196.447 405.086 197.626 404.722 198.834 404.372" stroke="#323433" stroke-width="2" stroke-linecap="round" stroke-linejoin="round"/>
<path d="M217.844 366.094C205.699 376.934 198.983 389.075 195.254 405.471" stroke="#323433" stroke-width="2" stroke-linecap="round" stroke-linejoin="round"/>
<path d="M235.627 364.637L237.963 397.816" stroke="#323433" stroke-width="2" stroke-linecap="round" stroke-linejoin="round"/>
<path d="M93.8086 354.183C120.785 359.46 144.861 363.045 166.279 364.995C179.019 366.156 190.841 366.749 201.743 366.773" stroke="#323433" stroke-width="2" stroke-linecap="round" stroke-linejoin="round"/>
<path d="M231.982 398.237C236.582 404.257 241.533 410.563 247.084 417.84C248.439 419.747 249.036 422.089 248.757 424.412C248.478 426.734 247.345 428.869 245.577 430.401C245.005 430.897 244.332 431.263 243.604 431.472C242.877 431.681 242.112 431.729 241.364 431.613C240.616 431.497 239.902 431.219 239.273 430.799C238.643 430.379 238.113 429.826 237.718 429.18C230.81 417.626 216.686 410.142 202.119 405.4C201.026 405.043 199.919 404.686 198.818 404.371" stroke="#323433" stroke-width="2" stroke-linecap="round" stroke-linejoin="round"/>
<path d="M201.676 403.551C201.826 404.165 201.969 404.779 202.112 405.393" stroke="#323433" stroke-width="2" stroke-linecap="round" stroke-linejoin="round"/>
<path d="M166.277 364.995L163.098 396.773" stroke="#323433" stroke-width="2" stroke-linecap="round" stroke-linejoin="round"/>
<path d="M159.434 201.131C164.018 212.505 169.728 223.392 176.48 233.631C181.738 241.565 187.803 249.413 195.39 258.704C200.79 252.701 205.781 246.343 210.329 239.672C217.344 229.139 222.531 217.798 227.703 201.109" stroke="#323433" stroke-width="2" stroke-linecap="round" stroke-linejoin="round"/>
<path d="M195.389 258.704L191.303 269.244H199.626L195.389 258.704Z" stroke="#323433" stroke-width="2" stroke-linecap="round" stroke-linejoin="round"/>
<path d="M176.479 233.63C187.088 238.629 197.325 240.4 210.328 239.672" stroke="#323433" stroke-width="2" stroke-linecap="round" stroke-linejoin="round"/>
<path d="M371.321 260.353L373.3 262.324L370.292 265.331L373.3 268.337L371.321 270.315L368.313 267.309L365.313 270.315L363.334 268.337L366.342 265.331L363.334 262.324L365.313 260.353L368.313 263.36L371.321 260.353Z" fill="#323433" stroke="#323433" stroke-width="2" stroke-linecap="round" stroke-linejoin="round"/>
<path d="M331.6 252.876C335.724 252.876 339.066 249.535 339.066 245.413C339.066 241.292 335.724 237.951 331.6 237.951C327.477 237.951 324.135 241.292 324.135 245.413C324.135 249.535 327.477 252.876 331.6 252.876Z" fill="#F9C13D" stroke="#323433" stroke-width="2" stroke-linecap="round" stroke-linejoin="round"/>
<path d="M17.1538 253.238L11.4707 258.919L17.1538 264.6L22.8369 258.919L17.1538 253.238Z" fill="#323433" stroke="#323433" stroke-width="2" stroke-linecap="round" stroke-linejoin="round"/>
<path d="M116.283 407.671C104.266 406.907 92.2142 406.193 79.3618 405.429L69.6386 404.814C64.2169 404.511 58.9146 403.102 54.0578 400.674C49.2011 398.246 44.8928 394.85 41.3977 390.696C40.4274 389.555 39.5188 388.363 38.6758 387.125" stroke="#323433" stroke-width="2" stroke-linecap="round" stroke-linejoin="round"/>
<path d="M270.189 407.671C282.199 406.907 294.258 406.193 307.103 405.429L316.834 404.85C322.254 404.546 327.555 403.137 332.411 400.709C337.266 398.281 341.574 394.886 345.067 390.732C346.04 389.593 346.949 388.401 347.789 387.161" stroke="#323433" stroke-width="2" stroke-linecap="round" stroke-linejoin="round"/>
<path d="M102.131 416.169C94.5435 415.705 86.8349 415.248 78.812 414.741L69.0745 414.162C56.9435 413.407 45.5083 408.24 36.9258 399.637" stroke="#323433" stroke-width="2" stroke-linecap="round" stroke-linejoin="round"/>
<path d="M284.334 416.169C291.921 415.705 299.637 415.248 307.66 414.741L317.39 414.162C329.521 413.407 340.956 408.24 349.539 399.637" stroke="#323433" stroke-width="2" stroke-linecap="round" stroke-linejoin="round"/>
<path d="M290.605 268.243C290.802 268.074 290.96 267.866 291.069 267.631C291.179 267.396 291.237 267.141 291.24 266.882C291.23 266.365 291.02 265.871 290.653 265.505C290.286 265.139 289.792 264.929 289.273 264.919C289.014 264.917 288.757 264.966 288.517 265.064C288.278 265.161 288.06 265.306 287.877 265.489C287.694 265.671 287.549 265.889 287.451 266.128C287.353 266.367 287.304 266.624 287.306 266.882C287.316 267.4 287.527 267.893 287.893 268.259C288.26 268.625 288.755 268.835 289.273 268.845C289.532 268.842 289.788 268.784 290.023 268.675C290.258 268.566 290.468 268.408 290.637 268.212L290.605 268.243ZM377.64 205.53C377.733 205.439 377.806 205.33 377.855 205.211C377.904 205.091 377.928 204.963 377.926 204.833C377.927 204.563 377.825 204.302 377.64 204.105C377.55 204.013 377.441 203.94 377.321 203.891C377.201 203.842 377.072 203.818 376.942 203.82C376.808 203.815 376.674 203.838 376.548 203.887C376.423 203.936 376.309 204.01 376.213 204.105C376.114 204.21 376.037 204.335 375.988 204.471C375.939 204.607 375.918 204.752 375.928 204.896C375.925 205.026 375.949 205.154 375.998 205.274C376.047 205.394 376.12 205.502 376.213 205.593C376.304 205.696 376.416 205.777 376.542 205.832C376.669 205.887 376.805 205.913 376.942 205.909C377.075 205.91 377.206 205.882 377.326 205.828C377.447 205.773 377.554 205.693 377.64 205.593V205.53ZM368.061 182.641C367.885 182.458 367.673 182.313 367.438 182.216C367.204 182.118 366.952 182.068 366.697 182.071C366.439 182.069 366.182 182.118 365.942 182.215C365.702 182.313 365.484 182.458 365.301 182.64C365.118 182.823 364.973 183.041 364.875 183.28C364.778 183.519 364.728 183.776 364.731 184.034C364.741 184.552 364.951 185.045 365.318 185.411C365.684 185.777 366.179 185.987 366.697 185.997C367.211 185.972 367.697 185.757 368.061 185.395C368.424 185.032 368.639 184.547 368.664 184.034C368.664 183.77 368.607 183.509 368.498 183.269C368.389 183.029 368.252 182.838 368.061 182.641ZM381.034 163.172C381.127 163.081 381.2 162.973 381.249 162.853C381.298 162.733 381.322 162.605 381.32 162.475C381.321 162.205 381.219 161.944 381.034 161.747C380.943 161.655 380.835 161.582 380.715 161.533C380.595 161.484 380.466 161.46 380.336 161.462C380.202 161.457 380.067 161.48 379.942 161.529C379.816 161.578 379.702 161.652 379.607 161.747C379.422 161.944 379.32 162.205 379.321 162.475C379.319 162.605 379.343 162.733 379.392 162.853C379.441 162.973 379.514 163.081 379.607 163.172C379.698 163.274 379.81 163.356 379.936 163.411C380.062 163.466 380.199 163.492 380.336 163.488C380.469 163.489 380.6 163.461 380.72 163.406C380.841 163.352 380.948 163.272 381.034 163.172ZM321.182 99.3181C320.671 98.7954 320.059 98.3825 319.382 98.1049C318.706 97.8272 317.98 97.6906 317.249 97.7035C316.513 97.6959 315.784 97.8348 315.103 98.1121C314.423 98.3894 313.804 98.7995 313.284 99.3184C312.764 99.8374 312.353 100.455 312.076 101.134C311.798 101.814 311.659 102.541 311.666 103.275C311.653 104.005 311.79 104.73 312.068 105.405C312.346 106.08 312.76 106.691 313.284 107.201C313.797 107.731 314.414 108.15 315.096 108.433C315.777 108.716 316.51 108.857 317.249 108.847C318.725 108.834 320.137 108.243 321.181 107.2C322.225 106.158 322.818 104.749 322.831 103.275C322.841 102.538 322.7 101.807 322.416 101.126C322.133 100.446 321.713 99.8304 321.182 99.3181ZM331.934 97.8618C331.944 98.3793 332.154 98.8729 332.521 99.2389C332.888 99.6049 333.382 99.8148 333.901 99.8246C334.414 99.8 334.9 99.5853 335.264 99.2224C335.628 98.8595 335.843 98.3744 335.867 97.8618C335.858 97.3443 335.647 96.8507 335.28 96.4847C334.914 96.1187 334.419 95.9088 333.901 95.899C333.642 95.8965 333.385 95.9456 333.145 96.0433C332.905 96.141 332.688 96.2855 332.504 96.4682C332.321 96.651 332.177 96.8684 332.079 97.1077C331.981 97.347 331.932 97.6034 331.934 97.8618ZM263.042 134.68C262.857 134.861 262.711 135.078 262.612 135.317C262.514 135.557 262.466 135.814 262.471 136.073C262.481 136.59 262.691 137.084 263.058 137.45C263.425 137.816 263.919 138.026 264.438 138.035C264.951 138.011 265.437 137.796 265.801 137.433C266.164 137.07 266.379 136.585 266.404 136.073C266.394 135.555 266.184 135.062 265.817 134.696C265.451 134.33 264.956 134.12 264.438 134.11C264.178 134.105 263.921 134.153 263.681 134.251C263.441 134.349 263.223 134.495 263.042 134.68ZM308.716 136.073C308.726 136.59 308.936 137.084 309.303 137.45C309.67 137.816 310.164 138.026 310.683 138.035C311.197 138.011 311.682 137.796 312.046 137.433C312.41 137.07 312.625 136.585 312.649 136.073C312.64 135.555 312.429 135.062 312.063 134.696C311.696 134.33 311.201 134.12 310.683 134.11C310.424 134.107 310.167 134.156 309.927 134.254C309.688 134.352 309.47 134.496 309.287 134.679C309.104 134.862 308.959 135.079 308.861 135.319C308.763 135.558 308.714 135.814 308.716 136.073ZM285.879 145.665C286.07 145.493 286.222 145.283 286.326 145.048C286.43 144.814 286.483 144.56 286.482 144.304C286.472 143.786 286.262 143.293 285.895 142.927C285.528 142.561 285.034 142.351 284.515 142.341C284.256 142.338 283.999 142.387 283.76 142.485C283.52 142.583 283.302 142.727 283.119 142.91C282.936 143.093 282.791 143.31 282.693 143.549C282.595 143.789 282.546 144.045 282.549 144.304C282.558 144.821 282.769 145.315 283.136 145.681C283.502 146.047 283.997 146.257 284.515 146.266C284.772 146.268 285.027 146.214 285.262 146.111C285.497 146.007 285.707 145.855 285.879 145.665Z" fill="#F9C13D" stroke="#323433" stroke-width="2"/>
<path d="M279.545 114.626C296.552 121.033 308.654 130.655 309.882 144.971C311.042 158.455 301.019 168.374 284.527 175.078" stroke="#323433" stroke-width="2" stroke-linecap="round" stroke-linejoin="round"/>
<path d="M171.072 102.534C197.972 101.852 247.476 102.54 279.546 114.627" stroke="#323433" stroke-width="2" stroke-linecap="round" stroke-linejoin="round"/>
<path d="M251.974 183.318C242.704 184.639 233.369 185.458 224.011 185.771" stroke="#323433" stroke-width="2" stroke-linecap="round" stroke-linejoin="round"/>
<path d="M132.643 175.931C103.211 167.7 82.3435 154.681 83.1464 137.653C84.2501 114.712 113.81 107.42 124.892 105.491" stroke="#323433" stroke-width="2" stroke-linecap="round" stroke-linejoin="round"/>
<path d="M123.336 98.9206L139.946 102.688L126.502 112.253L123.336 98.9206Z" fill="#323433" stroke="#323433" stroke-width="2" stroke-linecap="round" stroke-linejoin="round"/>
<path d="M381.319 118.029C359.476 122.286 336.3 125.848 312.468 128.685" stroke="#323433" stroke-width="2" stroke-linecap="round" stroke-linejoin="round"/>
<path d="M95.6387 106.013C74.5258 98.9594 61.5412 90.71 61.8842 81.8372C62.2272 72.9644 75.8531 65.8537 97.4936 60.5305" stroke="#323433" stroke-width="2" stroke-linecap="round" stroke-linejoin="round"/>
<path d="M338.438 58.5487C379.137 66.0947 407.305 78.3317 406.01 95.6582C405.301 105.372 395.734 112.759 380.21 118.122" stroke="#323433" stroke-width="2" stroke-linecap="round" stroke-linejoin="round"/>
<path d="M212.485 49.2848C256.482 48.8745 302.381 51.8732 338.439 58.5492" stroke="#323433" stroke-width="2" stroke-linecap="round" stroke-linejoin="round"/>
<path d="M133.229 54.19C156.798 51.2047 184.251 49.5452 212.485 49.2838" stroke="#323433" stroke-width="2" stroke-linecap="round" stroke-linejoin="round"/>
<path d="M284.654 175.926C285.049 179.234 284.453 182.585 282.943 185.555C281.432 188.524 279.075 190.979 276.17 192.609C273.264 194.239 269.94 194.971 266.619 194.712C263.297 194.453 260.127 193.214 257.51 191.154C254.892 189.093 252.944 186.302 251.913 183.134C250.881 179.966 250.812 176.563 251.715 173.356C252.617 170.149 254.451 167.282 256.983 165.117C259.515 162.952 262.632 161.586 265.941 161.193C270.376 160.666 274.839 161.922 278.348 164.685C281.858 167.448 284.126 171.491 284.654 175.926Z" fill="#F9C13D" stroke="#323433" stroke-width="2" stroke-linecap="round" stroke-linejoin="round"/>
<path d="M260.654 179.427L267.323 184.153L276.095 169.935" stroke="#004357" stroke-width="2" stroke-linecap="round" stroke-linejoin="round"/>
<path d="M115.045 53.855C113.98 53.9876 112.978 54.4333 112.166 55.1358C111.354 55.8382 110.768 56.7657 110.484 57.801C110.199 58.8362 110.228 59.9326 110.567 60.9514C110.905 61.9703 111.539 62.8657 112.387 63.5244C113.234 64.1831 114.259 64.5755 115.33 64.6518C116.401 64.7282 117.47 64.4851 118.403 63.9534C119.336 63.4216 120.09 62.6252 120.569 61.6647C121.049 60.7042 121.233 59.623 121.099 58.5578C121.01 57.8514 120.784 57.1694 120.431 56.5507C120.079 55.9319 119.609 55.3887 119.047 54.9519C118.484 54.5151 117.842 54.1935 117.155 54.0053C116.468 53.817 115.752 53.766 115.045 53.855C115.045 53.855 115.063 53.8563 115.045 53.855Z" stroke="#323433" stroke-width="2" stroke-linecap="round" stroke-linejoin="round"/>
<ellipse rx="18.2298" ry="19.5808" transform="matrix(0.997177 -0.0763419 0.133814 0.991112 162.814 99.2913)" fill="#F9C13D" stroke="#323433" stroke-width="2"/>
<ellipse rx="18.2298" ry="19.5808" transform="matrix(0.997177 -0.0763419 0.133814 0.991112 165.789 98.6649)" fill="#E9761A" stroke="#323433" stroke-width="2"/>
<path d="M162.818 85.9817L158.724 108.833L160.562 109.885L168.91 104.739L160.773 105.643L166.782 92.4643L162.818 85.9817Z" fill="white" stroke="#323433" stroke-width="2"/>
<path d="M175.448 106.417L173.993 106.797L165.894 99.1855L168.538 93.8057L175.448 106.417Z" fill="white" stroke="#323433" stroke-width="2"/>
<rect x="77.7344" y="45.2701" width="56.0614" height="45.6272" transform="rotate(-34.9465 77.7344 45.2701)" fill="#4F59C1"/>
<path d="M150.465 55.9068C150.461 55.7686 150.417 55.6345 150.337 55.5216C150.24 55.3834 150.096 55.2848 149.932 55.2437C149.768 55.2026 149.595 55.2219 149.444 55.2979C149.293 55.3739 149.175 55.5017 149.11 55.6578C149.046 55.814 149.04 55.9881 149.093 56.1485C149.146 56.3088 149.255 56.4447 149.4 56.5313C149.545 56.6178 149.717 56.6494 149.883 56.62C150.049 56.5907 150.2 56.5026 150.307 56.3716C150.413 56.2407 150.469 56.0757 150.465 55.9068ZM154.653 57.296C154.682 57.3371 154.693 57.3879 154.684 57.4373C154.676 57.4867 154.648 57.5307 154.607 57.5597L145.997 63.5711L141.675 66.5926L125.889 77.6429L127.718 71.1785C127.91 70.513 128.245 69.8973 128.699 69.3741C129.5 68.4416 129.993 67.2833 130.108 66.059L146.086 54.8902L149.243 52.6801L139.793 39.2349C139.812 38.0882 139.731 36.9419 139.55 35.8093L154.653 57.296ZM148.496 57.6733C148.611 57.5932 148.699 57.481 148.749 57.3509C148.8 57.2207 148.811 57.0785 148.78 56.9422C148.75 56.8059 148.68 56.6816 148.579 56.5852C148.478 56.4887 148.351 56.4243 148.213 56.4002C148.076 56.3761 147.934 56.3934 147.806 56.4498C147.679 56.5062 147.571 56.5992 147.496 56.7171C147.421 56.835 147.383 56.9724 147.386 57.112C147.389 57.2516 147.434 57.387 147.514 57.5012C147.567 57.5775 147.635 57.6426 147.713 57.6926C147.792 57.7426 147.879 57.7765 147.971 57.7925C148.063 57.8085 148.156 57.8062 148.247 57.7858C148.338 57.7653 148.424 57.7271 148.499 57.6733H148.496ZM146.684 58.7673C146.691 58.7219 146.695 58.676 146.695 58.63C146.691 58.4348 146.616 58.2478 146.482 58.1052C146.349 57.9626 146.168 57.8745 145.973 57.8578C145.779 57.8411 145.585 57.8971 145.429 58.0149C145.274 58.1327 145.167 58.3041 145.131 58.4958L145.033 59.0499L144.479 58.9536C144.434 58.9455 144.388 58.9413 144.343 58.941C144.146 58.9425 143.957 59.0174 143.813 59.1509C143.669 59.2844 143.579 59.467 143.563 59.6629C143.546 59.8587 143.603 60.0538 143.722 60.2099C143.842 60.366 144.015 60.472 144.209 60.5069L146.316 60.8748L146.684 58.7673Z" fill="white"/>
<path d="M146 63.5821L149.811 69.0047L146.602 69.022L145.497 72.0356L141.686 66.6131L141.672 66.5925L145.994 63.571L146 63.5821Z" fill="#E9761A"/>
<path d="M150.464 55.9067C150.469 56.0761 150.412 56.2415 150.305 56.3728C150.198 56.5041 150.048 56.5926 149.881 56.622C149.714 56.6514 149.542 56.6199 149.397 56.5331C149.251 56.4464 149.142 56.3102 149.089 56.1494C149.035 55.9886 149.042 55.8141 149.106 55.6575C149.171 55.501 149.29 55.373 149.441 55.2968C149.592 55.2206 149.766 55.2014 149.93 55.2427C150.095 55.284 150.239 55.3829 150.336 55.5216C150.415 55.6346 150.46 55.7686 150.464 55.9067Z" fill="white"/>
<path d="M148.671 56.6914C148.752 56.8056 148.796 56.9411 148.8 57.0807C148.803 57.2203 148.765 57.3577 148.69 57.4756C148.615 57.5935 148.507 57.6865 148.379 57.7429C148.252 57.7993 148.11 57.8165 147.973 57.7924C147.835 57.7683 147.708 57.704 147.607 57.6075C147.506 57.511 147.436 57.3868 147.405 57.2505C147.375 57.1142 147.386 56.9719 147.437 56.8418C147.487 56.7116 147.575 56.5994 147.69 56.5193C147.765 56.4661 147.851 56.4282 147.941 56.4081C148.032 56.3879 148.125 56.3857 148.216 56.4017C148.307 56.4177 148.395 56.4515 148.473 56.5012C148.551 56.5509 148.618 56.6156 148.671 56.6914Z" fill="white"/>
<path d="M146.698 58.6298C146.698 58.6758 146.694 58.7218 146.687 58.7672L146.319 60.8746L144.211 60.5068C144.018 60.4718 143.844 60.3659 143.725 60.2098C143.606 60.0537 143.549 59.8586 143.565 59.6627C143.582 59.4668 143.671 59.2843 143.816 59.1508C143.96 59.0172 144.149 58.9424 144.346 58.9408C144.391 58.9412 144.436 58.9454 144.481 58.9534L145.035 59.0497L145.133 58.4956C145.17 58.3039 145.276 58.1326 145.432 58.0148C145.588 57.8969 145.781 57.8409 145.976 57.8576C146.17 57.8743 146.352 57.9625 146.485 58.1051C146.618 58.2477 146.694 58.4346 146.698 58.6298Z" fill="#323433"/>
<path d="M134.984 29.3148L136.84 31.9574L134.63 30.2588C134.55 30.2041 134.455 30.1781 134.358 30.185C134.262 30.192 134.171 30.2314 134.1 30.2969C134.029 30.3624 133.982 30.45 133.967 30.5455C133.953 30.641 133.971 30.7386 134.019 30.8224L134.729 32.0379L123.035 15.3913L118.269 18.7238L78.3914 46.5976L83.6877 54.1229L85.1085 56.1436L87.2238 59.1556L89.7102 62.6933C89.6352 62.7376 89.5738 62.8016 89.5329 62.8785C89.492 62.9554 89.473 63.042 89.4781 63.129L89.6249 65.6548L88.3904 63.8962L76.0345 46.3229C76.0056 46.2816 75.9942 46.2306 76.0028 46.1809C76.0114 46.1312 76.0392 46.0869 76.0803 46.0577L123.311 13.0344C123.352 13.0056 123.403 12.9942 123.453 13.0028C123.502 13.0114 123.546 13.0392 123.575 13.0802L134.984 29.3148Z" fill="white"/>
<path d="M118.27 18.7239C119.712 22.1542 118.411 25.7551 116.376 27.4426C113.255 30.0379 107.234 28.8176 105.738 30.0016C102.345 32.6853 105.333 35.2884 101.961 38.6604C100.187 40.4347 95.5365 38.8593 95.5365 42.8153C95.5365 46.0752 101.71 46.7619 101.71 51.5846C101.71 54.7418 99.0016 57.7049 95.1908 56.7404C95.6854 55.9195 95.9835 54.9953 96.0619 54.0401C96.1402 53.0849 95.9966 52.1245 95.6423 51.2339C95.288 50.3434 94.7327 49.5468 94.0195 48.9065C93.3064 48.2661 92.4549 47.7993 91.5315 47.5426C90.6081 47.2858 89.6379 47.246 88.6966 47.4263C87.7553 47.6066 86.8684 48.0021 86.1052 48.5819C85.3421 49.1617 84.7233 49.9101 84.2973 50.7687C83.8713 51.6272 83.6495 52.5726 83.6494 53.531C83.6494 53.731 83.6589 53.9283 83.6778 54.123L78.3926 46.5977L118.27 18.7239Z" fill="white"/>
<path d="M116.488 81.4239L117.614 79.5706C117.446 80.2715 117.279 80.9861 117.112 81.7143C116.958 82.3805 116.98 83.0753 117.177 83.7302L116.15 84.4469L116.049 83.9907C115.863 83.1104 116.02 82.1921 116.488 81.4239Z" fill="white"/>
<path d="M115.308 65.8364C115.332 65.8901 115.357 65.9454 115.381 65.9943L115.184 66.0637L115.308 65.8364Z" fill="white"/>
<path d="M113.112 69.9769L110.668 74.5849C110.33 74.446 110.024 74.2378 109.771 73.9737C109.518 73.7096 109.323 73.3955 109.199 73.0515C109.075 72.7075 109.024 72.3413 109.049 71.9765C109.075 71.6116 109.177 71.2562 109.348 70.9331C109.52 70.6099 109.757 70.3262 110.044 70.1003C110.332 69.8743 110.664 69.711 111.018 69.621C111.373 69.5309 111.742 69.5161 112.103 69.5774C112.463 69.6387 112.807 69.7748 113.112 69.9769Z" fill="white"/>
<path d="M107.438 84.8193L108.631 89.7052L107.368 90.5845C107.327 90.6129 107.276 90.624 107.227 90.6155C107.178 90.6069 107.134 90.5793 107.105 90.5387L91.582 68.4458C92.0098 68.5768 92.4562 68.6365 92.9033 68.6226L93.8505 68.5879L104.598 83.8816L107.281 82.0031C107.159 82.9434 107.212 83.8983 107.438 84.8193Z" fill="white"/>
<path d="M105.37 72.7822C105.62 72.7822 105.864 72.8563 106.072 72.9951C106.28 73.1338 106.442 73.3311 106.537 73.5618C106.633 73.7926 106.658 74.0465 106.609 74.2915C106.56 74.5365 106.44 74.7615 106.263 74.9381C106.087 75.1148 105.862 75.235 105.617 75.2838C105.372 75.3325 105.118 75.3075 104.887 75.2119C104.656 75.1163 104.459 74.9544 104.32 74.7468C104.181 74.5391 104.107 74.2949 104.107 74.0451C104.107 73.7102 104.24 73.389 104.477 73.1521C104.714 72.9153 105.035 72.7822 105.37 72.7822Z" fill="white"/>
<path d="M99.2372 41.1892C99.5349 41.1889 99.826 41.2769 100.074 41.4421C100.321 41.6073 100.514 41.8422 100.628 42.1172C100.742 42.3922 100.772 42.6948 100.714 42.9868C100.656 43.2787 100.513 43.5469 100.303 43.7574C100.092 43.9679 99.8239 44.1112 99.5319 44.1692C99.2399 44.2272 98.9373 44.1973 98.6624 44.0833C98.3874 43.9692 98.1524 43.7761 97.9873 43.5285C97.8221 43.2808 97.7341 42.9897 97.7344 42.6921C97.7344 42.4947 97.7732 42.2993 97.8488 42.1169C97.9243 41.9346 98.035 41.7689 98.1746 41.6294C98.3141 41.4898 98.4798 41.3791 98.6621 41.3036C98.8444 41.2281 99.0399 41.1892 99.2372 41.1892Z" fill="#323433"/>
<path d="M96.086 53.5311C96.0879 54.6622 95.78 55.7721 95.1956 56.7405C94.9195 56.6708 94.6479 56.5838 94.3826 56.48C91.4275 55.3387 92.2815 51.902 89.4226 51.9209C87.2567 51.9352 85.8833 52.7892 85.1035 56.1438L83.6827 54.1231C83.6638 53.9284 83.6543 53.7311 83.6543 53.5311C83.6803 51.8998 84.3466 50.344 85.5095 49.1995C86.6724 48.055 88.2385 47.4136 89.8701 47.4136C91.5017 47.4136 93.0679 48.055 94.2308 49.1995C95.3937 50.344 96.06 51.8998 96.086 53.5311Z" fill="white"/>
<path d="M94.3822 56.4798C94.6475 56.5836 94.919 56.6706 95.1952 56.7403C94.3998 58.0582 93.1441 59.0345 91.6709 59.4806C90.1976 59.9267 88.6113 59.8109 87.2184 59.1556L85.1094 56.1436C85.8892 52.789 87.2626 51.935 89.4285 51.9207C92.2811 51.9002 91.4239 55.3385 94.3822 56.4798Z" fill="#E9761A"/>
<path d="M139.788 39.2302L149.238 52.6754L146.087 54.8792L130.109 66.0479" fill="#00B07A"/>
<path d="M139.788 39.2302L149.238 52.6754L146.087 54.8792L130.109 66.0479" stroke="#323433" stroke-width="1.5" stroke-linecap="round" stroke-linejoin="round"/>
<path d="M135.042 62.5686L104.597 83.8816L91.3145 64.1472" fill="#00B07A"/>
<path d="M135.042 62.5686L104.597 83.8816L91.3145 64.1472" stroke="#323433" stroke-width="1.5" stroke-linecap="round" stroke-linejoin="round"/>
<path d="M89.705 62.6933L87.2187 59.1556L85.1033 56.1436L83.6826 54.123L78.3926 46.5977L118.27 18.7238L123.036 15.3914L140.567 40.3889" fill="#4F59C1"/>
<path d="M89.705 62.6933L87.2187 59.1556L85.1033 56.1436L83.6826 54.123L78.3926 46.5977L118.27 18.7238L123.036 15.3914L140.567 40.3889" stroke="#323433" stroke-width="1.5" stroke-linecap="round" stroke-linejoin="round"/>
<path d="M146.319 60.8746L144.211 60.5068C144.018 60.4718 143.844 60.3659 143.725 60.2098C143.606 60.0537 143.549 59.8586 143.565 59.6627C143.582 59.4668 143.671 59.2843 143.816 59.1508C143.96 59.0172 144.149 58.9424 144.346 58.9408C144.391 58.9412 144.436 58.9454 144.481 58.9534L145.035 59.0497L145.133 58.4956C145.17 58.3039 145.276 58.1326 145.432 58.0148C145.588 57.8969 145.781 57.8409 145.976 57.8576C146.17 57.8743 146.352 57.9625 146.485 58.1051C146.618 58.2477 146.694 58.4346 146.698 58.6298C146.698 58.6758 146.694 58.7218 146.687 58.7672L146.319 60.8746Z" fill="#E9761A" stroke="#E9761A" stroke-width="1.5" stroke-linecap="round" stroke-linejoin="round"/>
<path d="M148.671 56.6914C148.752 56.8056 148.796 56.9411 148.8 57.0807C148.803 57.2203 148.765 57.3577 148.69 57.4756C148.615 57.5935 148.507 57.6865 148.379 57.7429C148.252 57.7993 148.11 57.8165 147.973 57.7924C147.835 57.7683 147.708 57.704 147.607 57.6075C147.506 57.511 147.436 57.3868 147.405 57.2505C147.375 57.1142 147.386 56.9719 147.437 56.8418C147.487 56.7116 147.575 56.5994 147.69 56.5193C147.765 56.4661 147.851 56.4282 147.941 56.4081C148.032 56.3879 148.125 56.3857 148.216 56.4017C148.307 56.4177 148.395 56.4515 148.473 56.5012C148.551 56.5509 148.618 56.6156 148.671 56.6914V56.6914Z" stroke="#323433" stroke-width="1.5" stroke-linecap="round" stroke-linejoin="round"/>
<path d="M148.93 58.9379L148.799 57.0767" stroke="#323433" stroke-width="1.5" stroke-linecap="round" stroke-linejoin="round"/>
<path d="M150.333 55.5216C150.386 55.5974 150.424 55.6829 150.444 55.7732C150.464 55.8636 150.466 55.9571 150.45 56.0483C150.434 56.1395 150.4 56.2266 150.351 56.3048C150.301 56.3829 150.236 56.4504 150.16 56.5035C150.046 56.5839 149.911 56.6285 149.771 56.6318C149.632 56.6351 149.494 56.5969 149.376 56.5221C149.258 56.4473 149.165 56.3391 149.109 56.2114C149.053 56.0837 149.035 55.9421 149.059 55.8045C149.084 55.667 149.148 55.5397 149.244 55.4388C149.341 55.3379 149.465 55.2678 149.601 55.2375C149.738 55.2072 149.88 55.218 150.01 55.2686C150.14 55.3192 150.252 55.4072 150.333 55.5216V55.5216Z" stroke="#323433" stroke-width="1.5" stroke-linecap="round" stroke-linejoin="round"/>
<path d="M150.592 57.7679L150.463 55.9067" stroke="#323433" stroke-width="1.5" stroke-linecap="round" stroke-linejoin="round"/>
<path d="M139.547 35.8047L154.651 57.2961C154.68 57.3372 154.691 57.388 154.683 57.4374C154.674 57.4868 154.646 57.5308 154.605 57.5597L145.997 63.5712L141.675 66.5927L125.889 77.643" stroke="#323433" stroke-width="1.5" stroke-linecap="round" stroke-linejoin="round"/>
<path d="M128.252 75.9871L107.967 90.0368" stroke="#323433" stroke-width="1.5" stroke-linecap="round" stroke-linejoin="round"/>
<path d="M108.631 89.7052L107.368 90.5845C107.327 90.6129 107.276 90.624 107.227 90.6155C107.178 90.6069 107.134 90.5793 107.104 90.5387L89.1035 64.9365" stroke="#323433" stroke-width="1.5" stroke-linecap="round" stroke-linejoin="round"/>
<path d="M89.7039 62.6949C89.6289 62.7391 89.5675 62.8032 89.5266 62.8801C89.4856 62.9569 89.4667 63.0436 89.4718 63.1306L89.6186 65.6564L88.3841 63.8978L76.0345 46.3229C76.0056 46.2816 75.9942 46.2306 76.0028 46.1809C76.0114 46.1312 76.0392 46.0869 76.0803 46.0577L123.311 13.0344C123.352 13.0056 123.403 12.9942 123.453 13.0028C123.502 13.0114 123.546 13.0392 123.575 13.0802L134.984 29.3148L140.171 36.6002L134.63 30.2588C134.55 30.2041 134.455 30.1781 134.358 30.185C134.262 30.192 134.171 30.2314 134.1 30.2969C134.029 30.3624 133.982 30.45 133.967 30.5455C133.953 30.641 133.971 30.7386 134.019 30.8224L134.729 32.0379L134.764 32.0979C134.888 32.3097 134.973 32.5417 135.015 32.783C135.209 33.8502 135.628 34.3948 136.474 35.1668L134.579 44.2833C134.564 44.3599 134.533 44.4325 134.489 44.497C134.445 44.5614 134.388 44.6164 134.322 44.6586C134.256 44.7008 134.183 44.7295 134.106 44.7428C134.029 44.7562 133.95 44.754 133.874 44.7364L131.444 44.1839L125.28 42.7789C123.874 42.4597 122.412 42.4835 121.018 42.8484C119.935 43.1309 118.882 43.4356 117.833 43.7719C116.498 44.1997 115.17 44.6811 113.806 45.24C112.771 45.6615 111.715 46.1303 110.616 46.6528C109.42 47.2207 108.365 48.0464 107.527 49.0705C106.688 50.0946 106.087 51.2917 105.766 52.5759L103.85 60.1533L103.2 62.7185C103.171 62.8328 103.111 62.9364 103.025 63.0165C102.938 63.0967 102.831 63.1501 102.715 63.17L91.7198 64.6287L90.318 62.8133C90.258 62.7369 90.176 62.6808 90.0831 62.6525C89.9902 62.6243 89.8909 62.6253 89.7986 62.6554C89.7656 62.6649 89.7338 62.6782 89.7039 62.6949Z" stroke="#323433" stroke-width="1.5" stroke-linecap="round" stroke-linejoin="round"/>
<path d="M87.2188 59.1556C88.4365 59.73 89.8078 59.8935 91.1264 59.6216C92.445 59.3497 93.6398 58.657 94.5309 57.6478C95.4221 56.6386 95.9615 55.3673 96.0681 54.0251C96.1746 52.683 95.8426 51.3425 95.1219 50.2053C94.4012 49.0681 93.3308 48.1956 92.0716 47.719C90.8124 47.2423 89.4325 47.1874 88.1394 47.5624C86.8464 47.9374 85.71 48.7221 84.9011 49.7984C84.0923 50.8747 83.6548 52.1846 83.6543 53.5309C83.6543 53.7309 83.6638 53.9282 83.6827 54.1229" fill="#F9C13D"/>
<path d="M87.2188 59.1556C88.4365 59.73 89.8078 59.8935 91.1264 59.6216C92.445 59.3497 93.6398 58.657 94.5309 57.6478C95.4221 56.6386 95.9615 55.3673 96.0681 54.0251C96.1746 52.683 95.8426 51.3425 95.1219 50.2053C94.4012 49.0681 93.3308 48.1956 92.0716 47.719C90.8124 47.2423 89.4325 47.1874 88.1394 47.5624C86.8464 47.9374 85.71 48.7221 84.9011 49.7984C84.0923 50.8747 83.6548 52.1846 83.6543 53.5309C83.6543 53.7309 83.6638 53.9282 83.6827 54.1229" stroke="#323433" stroke-width="1.5" stroke-linecap="round" stroke-linejoin="round"/>
<path d="M85.1094 56.1437C85.8892 52.7891 87.2626 51.935 89.4285 51.9208C92.2874 51.9003 91.4334 55.3386 94.3885 56.4799C94.6538 56.5837 94.9254 56.6707 95.2015 56.7404C99.0123 57.7049 101.721 54.7371 101.721 51.5846C101.721 46.765 95.5473 46.0752 95.5473 42.8153C95.5473 38.8593 100.198 40.4347 101.972 38.6604C105.338 35.2884 102.35 32.6853 105.742 30.0016C107.239 28.8176 113.259 30.0379 116.38 27.4426C118.411 25.7551 119.711 22.1542 118.275 18.7239" stroke="#323433" stroke-width="1.5" stroke-linecap="round" stroke-linejoin="round"/>
<path d="M100.738 42.6922C100.738 42.395 100.649 42.1046 100.484 41.8577C100.319 41.6107 100.084 41.4184 99.8093 41.3049C99.5347 41.1914 99.2325 41.1618 98.9411 41.22C98.6497 41.2782 98.3821 41.4214 98.172 41.6317C97.962 41.8419 97.819 42.1097 97.7612 42.4012C97.7033 42.6926 97.7332 42.9947 97.847 43.2693C97.9608 43.5438 98.1534 43.7784 98.4005 43.9435C98.6476 44.1085 98.9381 44.1966 99.2353 44.1966C99.4328 44.1966 99.6283 44.1577 99.8108 44.0821C99.9932 44.0065 100.159 43.8956 100.299 43.7559C100.438 43.6162 100.549 43.4503 100.624 43.2678C100.7 43.0853 100.738 42.8897 100.738 42.6922V42.6922Z" stroke="#323433" stroke-width="1.5" stroke-linecap="round" stroke-linejoin="round"/>
<path d="M113.112 69.9769C112.807 69.7748 112.463 69.6387 112.103 69.5774C111.742 69.5161 111.373 69.5309 111.018 69.621C110.664 69.711 110.332 69.8743 110.044 70.1003C109.757 70.3262 109.52 70.6099 109.348 70.9331C109.177 71.2562 109.075 71.6116 109.049 71.9765C109.024 72.3413 109.075 72.7075 109.199 73.0515C109.323 73.3955 109.518 73.7096 109.771 73.9737C110.024 74.2378 110.33 74.446 110.668 74.5849" stroke="#323433" stroke-width="1.5" stroke-linecap="round" stroke-linejoin="round"/>
<path d="M106.629 74.0451C106.629 73.7953 106.555 73.5512 106.416 73.3435C106.278 73.1358 106.08 72.9739 105.85 72.8784C105.619 72.7828 105.365 72.7578 105.12 72.8065C104.875 72.8552 104.65 72.9755 104.473 73.1521C104.297 73.3287 104.177 73.5538 104.128 73.7987C104.079 74.0437 104.104 74.2977 104.2 74.5284C104.295 74.7592 104.457 74.9564 104.665 75.0952C104.872 75.234 105.117 75.308 105.366 75.308C105.701 75.308 106.023 75.175 106.259 74.9381C106.496 74.7013 106.629 74.3801 106.629 74.0451Z" fill="#F9C13D" stroke="#323433" stroke-width="1.5" stroke-linecap="round" stroke-linejoin="round"/>
<path d="M128.064 56.3962C129.356 54.6329 131.725 53.632 135.958 56.3694C137.028 57.0624 139.358 56.7467 139.988 55.3606C140.618 53.9746 142.198 52.527 144.271 53.5973C144.918 53.9628 145.526 54.3922 146.088 54.8791" stroke="#323433" stroke-width="1.5" stroke-linecap="round" stroke-linejoin="round"/>
<path d="M480.762 136.679L469.555 147.887L480.762 159.094L491.97 147.887L480.762 136.679Z" fill="#53599A"/>
<path d="M421.482 41.8019L441.085 47.1596L440.768 67.4009L460.381 72.7586L460.064 93L479.678 98.3577" stroke="#4F59C1" stroke-width="2" stroke-linecap="round" stroke-linejoin="round"/>
<path d="M413.287 121.308L430.5 139.34" stroke="#00B07A" stroke-width="2" stroke-linecap="round" stroke-linejoin="round"/>
<path d="M412.467 138.521L430.499 121.308" stroke="#00B07A" stroke-width="2" stroke-linecap="round" stroke-linejoin="round"/>
</svg>
