<svg width="597" height="455" viewBox="0 0 597 455" fill="none" xmlns="http://www.w3.org/2000/svg">
<path d="M306.093 454.869C445.217 454.869 557.999 437.829 557.999 416.809C557.999 395.789 445.217 378.749 306.093 378.749C166.97 378.749 54.1875 395.789 54.1875 416.809C54.1875 437.829 166.97 454.869 306.093 454.869Z" fill="#E0E5F8" fill-opacity="0.13"/>
<path d="M515.071 382.138H521.955C519.038 382.138 516.241 383.297 514.178 385.359C512.116 387.422 510.957 390.219 510.957 393.136V398.934C510.956 400.379 511.24 401.81 511.792 403.145C512.344 404.48 513.154 405.693 514.176 406.715C515.197 407.738 516.41 408.548 517.745 409.102C519.079 409.655 520.51 409.939 521.955 409.939H479.268C476.349 409.939 473.549 408.78 471.485 406.716C469.421 404.652 468.262 401.853 468.262 398.934V393.136C468.262 391.691 468.546 390.26 469.1 388.926C469.653 387.591 470.464 386.378 471.486 385.357C472.508 384.335 473.721 383.525 475.056 382.973C476.392 382.421 477.823 382.137 479.268 382.138H515.071Z" fill="#FDFDFD"/>
<path d="M472.634 360.964H515.072C512.265 360.964 509.572 362.079 507.586 364.065C505.601 366.05 504.485 368.743 504.485 371.551C504.485 374.359 505.601 377.052 507.586 379.037C509.572 381.022 512.265 382.138 515.072 382.138H472.634C469.826 382.138 467.133 381.022 465.148 379.037C463.162 377.052 462.047 374.359 462.047 371.551C462.047 368.743 463.162 366.05 465.148 364.065C467.133 362.079 469.826 360.964 472.634 360.964Z" fill="#FDFDFD"/>
<path d="M384.147 396.027V409.932H378.335C377.597 409.933 376.86 409.857 376.138 409.705C373.657 409.193 371.429 407.842 369.828 405.878C368.228 403.914 367.353 401.459 367.352 398.926V393.129C367.354 390.216 368.511 387.422 370.57 385.362C372.629 383.301 375.422 382.142 378.335 382.138H479.268C477.823 382.137 476.392 382.421 475.057 382.973C473.721 383.525 472.508 384.335 471.486 385.357C470.464 386.378 469.653 387.591 469.1 388.926C468.547 390.26 468.262 391.691 468.262 393.136V398.934C468.262 401.853 469.421 404.652 471.485 406.716C473.549 408.78 476.349 409.939 479.268 409.939H401.985V396.027H384.147Z" fill="#00B07A"/>
<path d="M472.633 382.138H402.491C399.683 382.138 396.991 381.022 395.005 379.037C393.02 377.052 391.904 374.359 391.904 371.551C391.904 368.743 393.02 366.05 395.005 364.065C396.991 362.079 399.683 360.964 402.491 360.964H472.618C469.81 360.964 467.118 362.079 465.132 364.065C463.147 366.05 462.031 368.743 462.031 371.551C462.031 374.359 463.147 377.052 465.132 379.037C467.118 381.022 469.81 382.138 472.618 382.138H472.633Z" fill="#F9C13D"/>
<path d="M433.16 335.865C436.151 343.871 437.186 352.476 436.18 360.964H408.152C396.874 352.66 385.438 344.402 372.982 335.865H433.16Z" fill="#323433"/>
<path d="M288.981 268.787L260.877 258.642C267.92 239.264 274.94 218.77 282.225 196.305C284.129 190.44 287.595 185.204 292.249 181.158C296.904 177.113 302.571 174.411 308.645 173.342C314.95 172.25 321.42 171.088 328.052 169.855C325.622 174.761 322.013 184.763 334.046 183.118C348.592 181.132 359.296 173.901 367.826 162.147C377.136 160.275 386.713 158.298 396.556 156.214C415.964 152.115 432.639 170.406 426.751 189.345C422.327 203.559 417.987 216.785 413.465 229.587C405.05 253.371 406.344 279.512 417.066 302.349C421.029 310.773 425.49 319.793 430.314 329.35C431.385 331.465 432.332 333.64 433.152 335.865H372.982C368.732 332.958 364.369 330.014 359.847 327.033C351.58 321.574 341.907 318.629 332 318.555C333.822 317.319 335.508 315.892 337.028 314.298C352.125 298.446 364.678 283.084 381.716 262.831L346.063 232.501C333.57 252.701 324.723 268.085 312.91 283.59C311.397 285.565 309.459 287.175 307.241 288.301L305.814 289.055C300.96 282.873 291.879 277.831 289.494 270.976C289.246 270.277 289.074 269.553 288.981 268.817V268.787Z" fill="#F37C40"/>
<path d="M402.491 382.138H378.335C376.89 382.137 375.459 382.421 374.124 382.973C372.789 383.525 371.576 384.335 370.553 385.357C369.531 386.378 368.721 387.591 368.167 388.926C367.614 390.26 367.329 391.691 367.329 393.136V398.934C367.331 401.468 368.207 403.924 369.809 405.888C371.411 407.851 373.641 409.202 376.124 409.713C366.664 408.776 357.602 405.431 349.802 399.998C338.72 392.449 329.073 385.656 321.275 379.662C321.109 377.294 320.19 375.041 318.653 373.232C317.115 371.423 315.04 370.153 312.73 369.607L297.633 366.044L294.742 365.357C292.746 364.886 290.677 364.818 288.655 365.155C286.633 365.493 284.698 366.23 282.964 367.323C281.229 368.417 279.73 369.845 278.554 371.524C277.377 373.203 276.547 375.099 276.112 377.103C275.734 378.794 275.394 380.462 275.077 382.13C265.128 384.742 254.651 387.18 243.464 389.573C241.516 389.996 239.554 390.404 237.568 390.819L229.68 386.833C228.736 386.359 227.982 385.576 227.543 384.616C227.104 383.655 227.006 382.573 227.264 381.549L231.529 364.149C231.762 363.186 232.357 362.348 233.19 361.811C234.024 361.274 235.032 361.079 236.006 361.266C238.4 361.739 240.743 362.442 243.003 363.364C243.531 363.581 244.113 363.632 244.671 363.512C245.229 363.391 245.737 363.104 246.128 362.689C246.52 362.274 246.776 361.749 246.864 361.185C246.952 360.621 246.866 360.044 246.619 359.53C245.683 357.59 244.905 355.793 244.241 354.042C250.129 351.4 255.871 348.816 261.467 346.289C275.055 340.137 287.925 334.211 300.72 327.908L321.638 323.047C325.333 322.184 328.839 320.649 331.979 318.518C341.885 318.597 351.556 321.541 359.826 326.995C364.355 329.977 368.711 332.921 372.961 335.827C385.416 344.364 396.852 352.623 408.13 360.926H402.491C399.683 360.926 396.99 362.042 395.005 364.027C393.02 366.012 391.904 368.705 391.904 371.513C391.904 374.321 393.02 377.014 395.005 378.999C396.99 380.985 399.683 382.1 402.491 382.1V382.138Z" fill="#323433"/>
<path d="M340.925 319.409C339.641 320.79 338.343 322.164 337.03 323.553C332.867 327.908 327.527 330.958 321.661 332.332L300.743 337.201L261.49 346.327C275.078 340.175 287.948 334.249 300.743 327.946L321.661 323.085C325.356 322.222 328.862 320.687 332.002 318.556C334.996 318.579 337.981 318.864 340.925 319.409Z" fill="#323433"/>
<path d="M401.986 409.94V427.89L392.814 422.282L384.148 427.89V409.94V396.035H401.986V409.94Z" fill="#323433"/>
<path d="M346.065 232.501L381.717 262.831C364.68 283.084 352.097 298.469 337.029 314.298C332.871 318.661 327.53 321.715 321.66 323.085L300.743 327.946L245.593 340.779C244.024 341.143 242.538 341.802 241.214 342.719C240.988 342.877 240.762 343.036 240.543 343.209C234.889 347.671 224.645 350.464 212.967 352.457C208.634 353.211 204.105 353.83 199.531 354.397C202.596 357.416 205.638 358.654 210.023 360.262L210.303 360.36C210.621 360.477 210.9 360.681 211.109 360.948C211.318 361.215 211.448 361.534 211.486 361.871C211.523 362.208 211.466 362.549 211.322 362.855C211.177 363.161 210.949 363.421 210.665 363.606C209.789 364.172 208.959 364.693 208.159 365.199C205.354 366.965 202.459 368.582 199.486 370.045L199.146 370.211C198.14 370.696 197.032 370.931 195.916 370.896C194.8 370.86 193.71 370.555 192.737 370.007L192.541 369.901C189.697 368.302 187.012 366.434 184.524 364.323C183.793 363.706 183.222 362.923 182.858 362.038C182.494 361.154 182.348 360.195 182.433 359.243C182.466 358.788 182.554 358.339 182.697 357.907L184.962 350.358C182.742 352.553 180.333 354.546 177.76 356.314C172.975 359.816 167.041 363.863 162.58 367.486L160.459 362.051C163.811 359.031 167.66 355.65 171.427 352.238C176.621 347.573 181.648 342.938 185.015 339.405C186.802 337.523 188.944 336.015 191.318 334.967C193.691 333.918 196.25 333.351 198.844 333.298L221.754 332.815H222.728C224.076 332.791 225.401 332.466 226.608 331.864C246.234 321.968 261.626 313.219 276.542 304.877C286.167 299.495 295.595 294.309 305.816 289.025L307.242 288.27C309.461 287.145 311.398 285.535 312.911 283.56C324.74 268.085 333.572 252.701 346.065 232.501Z" fill="#FDFDFD"/>
<path d="M367.834 162.148C359.304 173.901 348.6 181.132 334.053 183.118C321.976 184.763 325.629 174.761 328.06 169.855L334.235 168.7L335.306 158.796C329.917 159.974 324.67 161.015 319.047 162.034C316.926 162.421 314.746 162.345 312.658 161.812C310.569 161.279 308.62 160.301 306.944 158.945C305.268 157.588 303.905 155.886 302.948 153.955C301.991 152.023 301.462 149.907 301.398 147.752C301.141 139.139 300.998 131.206 300.938 123.249C306.267 122.14 311.913 121.226 318.45 120.396C323.264 112.719 329.16 105.775 335.956 99.7806C336.807 110.335 336.741 120.942 335.759 131.485C335.759 131.485 348.207 108.341 355.212 111.647C362.217 114.953 349.762 129.537 349.762 129.537C351.891 131.802 355.665 137.728 358.911 143.419L360.662 163.597L367.834 162.148Z" fill="#FDFDFD"/>
<path d="M362.218 48.7291C371.02 54.4208 372.93 67.1252 366.476 77.1196C364.629 79.9999 362.183 82.4484 359.304 84.2984C358.069 81.7236 356.245 79.4754 353.981 77.7353C351.716 75.9953 349.074 74.8121 346.268 74.2813C341.307 73.2361 336.211 72.9813 331.171 73.5264C330.022 67.6333 331.237 61.5248 334.552 56.5193C341.037 46.5249 353.424 43.045 362.218 48.7291Z" fill="#323433"/>
<path d="M359.304 84.2682C365.66 96.7764 361.788 117.097 359.395 126.684C358.437 130.521 358.126 134.491 358.474 138.43L358.904 143.389C355.658 137.698 351.884 131.749 349.755 129.507C349.755 129.507 362.203 114.923 355.205 111.617C348.208 108.311 335.753 131.455 335.753 131.455C336.734 120.912 336.8 110.304 335.949 99.7505C329.153 105.745 323.258 112.689 318.444 120.366C311.906 121.196 306.26 122.11 300.931 123.219C292.605 125.002 284.417 127.373 276.428 130.315C281.048 118.237 285.063 109.881 293.933 98.0294L277.409 111.066C289.796 93.0322 309.038 75.8289 331.201 73.5039C336.242 72.9587 341.337 73.2135 346.298 74.2587C349.098 74.7931 351.733 75.9771 353.992 77.7156C356.251 79.4541 358.071 81.6985 359.304 84.2682Z" fill="#323433"/>
<path d="M321.29 379.662C321.331 380.204 321.331 380.75 321.29 381.292C320.701 388.841 319.297 395.703 317.312 403.78C316.503 407.094 314.417 409.955 311.509 411.739C308.601 413.523 305.106 414.086 301.784 413.306L295.255 411.759C287.23 408.89 282.286 400.247 283.464 391.641C284.098 386.992 284.898 382.636 285.894 378.054C286.528 375.146 287.969 372.475 290.05 370.347C292.131 368.219 294.769 366.72 297.663 366.021L312.76 369.584C315.07 370.136 317.144 371.411 318.678 373.224C320.213 375.036 321.128 377.292 321.29 379.662Z" fill="#FDFDFD"/>
<path d="M245.592 340.771L300.743 327.938C282.671 336.816 264.434 345.014 244.264 354.072C242.899 350.387 241.888 346.58 241.244 342.704C242.559 341.793 244.034 341.137 245.592 340.771Z" fill="#323433"/>
<path d="M294.764 365.365L297.656 366.052C294.762 366.75 292.124 368.249 290.043 370.377C287.961 372.505 286.521 375.176 285.887 378.084C284.891 382.613 284.091 386.992 283.457 391.672C282.279 400.277 287.231 408.92 295.248 411.789L287.231 409.894C282.999 408.898 279.281 406.38 276.784 402.821C274.242 399.199 273.163 394.75 273.764 390.366C274.142 387.558 274.587 384.87 275.1 382.176C275.417 380.507 275.757 378.839 276.134 377.148C276.566 375.141 277.393 373.241 278.567 371.557C279.742 369.874 281.24 368.442 282.975 367.345C284.71 366.247 286.646 365.507 288.67 365.167C290.695 364.827 292.766 364.894 294.764 365.365Z" fill="#323433"/>
<path d="M289.494 270.946C285.41 281.975 281.153 293.064 276.54 304.855C261.624 313.196 246.232 321.945 226.606 331.864C225.403 332.47 224.08 332.8 222.734 332.83H221.76C226.478 325.236 229.641 318.488 236.412 311.867C236.699 311.581 236.993 311.301 237.287 311.022C240.918 307.618 243.753 303.456 245.591 298.831C250.762 285.817 255.834 272.516 260.877 258.642L288.98 268.78C289.073 269.518 289.245 270.245 289.494 270.946Z" fill="#FDFDFD"/>
<path d="M275.1 382.138C274.587 384.833 274.141 387.52 273.764 390.328C273.163 394.712 274.241 399.161 276.783 402.783C264.434 398.715 254.221 393.951 243.486 389.581C254.673 387.195 265.151 384.75 275.1 382.138Z" fill="#323433"/>
<path d="M246.641 359.567C246.888 360.082 246.974 360.659 246.886 361.223C246.798 361.787 246.542 362.311 246.15 362.727C245.759 363.142 245.251 363.429 244.693 363.549C244.135 363.67 243.553 363.619 243.025 363.402C240.767 362.476 238.423 361.773 236.028 361.304C235.054 361.119 234.047 361.315 233.214 361.851C232.381 362.388 231.786 363.224 231.551 364.187L227.286 381.549C227.029 382.573 227.128 383.654 227.567 384.615C228.006 385.575 228.759 386.357 229.702 386.833L237.583 390.819C237.402 393.332 226.26 396.299 216.688 396.744C212.355 396.948 208.385 396.631 205.886 395.506C205.48 395.326 205.093 395.106 204.731 394.85C200.745 391.898 203.304 380.319 205.312 373.329C205.644 372.166 205.961 371.132 206.233 370.309L208.158 365.206C208.958 364.7 209.789 364.18 210.664 363.613C210.948 363.429 211.176 363.169 211.321 362.862C211.466 362.556 211.522 362.215 211.485 361.879C211.447 361.542 211.317 361.222 211.108 360.955C210.899 360.688 210.62 360.485 210.302 360.368L210.023 360.269L212.967 352.464C224.644 350.471 234.858 347.678 240.542 343.217C240.761 343.043 240.987 342.885 241.214 342.726C241.858 346.603 242.869 350.409 244.233 354.095C244.928 355.831 245.713 357.627 246.641 359.567Z" fill="#FDFDFD"/>
<path d="M246.672 409.615V409.879C246.672 410.592 246.389 411.275 245.885 411.779C245.381 412.283 244.698 412.566 243.985 412.566H177.285C176.572 412.566 175.889 412.283 175.385 411.779C174.881 411.275 174.598 410.592 174.598 409.879V409.615C174.597 409.262 174.665 408.912 174.8 408.585C174.935 408.259 175.133 407.962 175.383 407.712C175.632 407.463 175.929 407.265 176.255 407.13C176.582 406.995 176.932 406.927 177.285 406.928H243.97C244.324 406.926 244.675 406.994 245.003 407.128C245.331 407.262 245.629 407.46 245.88 407.709C246.131 407.959 246.33 408.256 246.466 408.583C246.602 408.91 246.672 409.261 246.672 409.615Z" fill="#FDFDFD"/>
<path d="M236.42 311.845C229.627 318.48 226.486 325.214 221.768 332.807L198.858 333.291C196.262 333.345 193.701 333.914 191.326 334.965C188.951 336.015 186.808 337.527 185.022 339.413C181.678 342.953 176.65 347.588 171.434 352.245L151.74 339.677L149.543 334.053C149.354 333.568 149.023 333.151 148.593 332.856C148.164 332.561 147.656 332.402 147.135 332.4H142.364C139.747 329.637 137.591 326.471 135.978 323.024C124.61 298.756 149.437 273.385 173.948 284.217L236.42 311.845Z" fill="#323433"/>
<path d="M216.687 396.782C213.577 398.994 206.497 402.066 191.082 402.066C185.557 402.148 180.072 401.121 174.951 399.047L164.383 372.053C171.358 370.135 182.998 369.788 192.509 369.879L192.705 369.984C193.678 370.533 194.769 370.838 195.885 370.873C197.001 370.909 198.109 370.674 199.114 370.188L199.454 370.022C201.824 370.098 203.84 370.188 205.327 370.264C205.621 370.264 205.908 370.264 206.202 370.264C205.931 371.109 205.614 372.143 205.281 373.283C199.242 373.812 187.55 375.887 188.063 383.987C188.554 391.891 196.427 395.423 205.855 395.469C208.361 396.639 212.354 396.956 216.687 396.782Z" fill="#323433"/>
<path d="M212.967 352.449L210 360.254C205.615 358.646 202.573 357.408 199.508 354.389C204.105 353.823 208.634 353.189 212.967 352.449Z" fill="#FDFDFD"/>
<path d="M208.158 365.191L206.225 370.294C205.931 370.294 205.644 370.294 205.349 370.294C203.84 370.219 201.847 370.128 199.477 370.052C202.453 368.585 205.351 366.962 208.158 365.191Z" fill="#FDFDFD"/>
<path d="M205.887 395.514C196.458 395.469 188.585 391.936 188.094 384.033C187.581 375.933 199.289 373.857 205.313 373.329C203.305 380.319 200.784 391.898 204.732 394.85C205.094 395.109 205.481 395.332 205.887 395.514Z" fill="white"/>
<path d="M184.992 350.343L182.727 357.891C182.584 358.324 182.496 358.773 182.463 359.228L177.828 356.268C180.386 354.508 182.783 352.525 184.992 350.343Z" fill="#FDFDFD"/>
<path d="M177.285 412.582H80.8207C80.4382 412.601 80.0556 412.543 79.6963 412.41C79.337 412.278 79.0085 412.073 78.7307 411.809C78.453 411.546 78.2318 411.228 78.0807 410.876C77.9295 410.524 77.8516 410.145 77.8516 409.762C77.8516 409.379 77.9295 409 78.0807 408.648C78.2318 408.296 78.453 407.979 78.7307 407.715C79.0085 407.451 79.337 407.247 79.6963 407.114C80.0556 406.981 80.4382 406.923 80.8207 406.943H175.179C175.272 406.951 175.365 406.951 175.458 406.943L175.564 407.577C175.264 407.826 175.023 408.137 174.856 408.489C174.689 408.841 174.601 409.225 174.598 409.615V409.879C174.596 410.233 174.664 410.584 174.798 410.912C174.932 411.24 175.13 411.538 175.379 411.789C175.629 412.04 175.926 412.24 176.253 412.376C176.58 412.512 176.931 412.582 177.285 412.582Z" fill="#FDFDFD"/>
<path d="M176.99 404.331C177.096 404.602 177.141 404.893 177.119 405.183C177.098 405.473 177.011 405.755 176.867 406.007C176.722 406.259 176.522 406.476 176.282 406.64C176.042 406.805 175.768 406.913 175.48 406.958C175.387 406.966 175.294 406.966 175.201 406.958H80.8429C80.3475 406.933 79.87 406.765 79.4681 406.474C79.0662 406.183 78.7572 405.782 78.5783 405.32L51.1466 335.117C51.0327 334.823 50.9922 334.505 51.0286 334.191C51.065 333.877 51.1772 333.577 51.3555 333.316C51.5338 333.055 51.7729 332.842 52.0521 332.694C52.3313 332.546 52.6423 332.469 52.9582 332.468H147.158C147.679 332.47 148.187 332.629 148.616 332.924C149.046 333.219 149.377 333.636 149.566 334.121L151.762 339.745L160.489 362.058L162.61 367.494L164.406 372.091L174.975 399.085L176.99 404.331Z" fill="#FDFDFD"/>
<path d="M221.76 332.823C226.478 325.229 229.641 318.48 236.412 311.86C236.699 311.573 236.993 311.294 237.287 311.014C240.918 307.611 243.753 303.448 245.591 298.823C250.762 285.817 255.834 272.516 260.877 258.642C267.92 239.265 274.94 218.77 282.224 196.305C284.129 190.44 287.595 185.204 292.249 181.158C296.903 177.113 302.571 174.411 308.645 173.342C314.95 172.25 321.42 171.088 328.052 169.855L334.227 168.7L335.307 158.796C329.917 159.974 324.67 161.015 319.047 162.034C316.926 162.421 314.747 162.345 312.658 161.812C310.569 161.279 308.62 160.301 306.944 158.945C305.268 157.588 303.905 155.886 302.948 153.955C301.991 152.023 301.462 149.907 301.398 147.752C301.141 139.139 300.998 131.206 300.938 123.249" stroke="#323433" stroke-width="2.61" stroke-linecap="round" stroke-linejoin="round"/>
<path d="M358.904 143.419C355.658 137.728 351.884 131.779 349.755 129.537C349.755 129.537 362.203 114.953 355.205 111.647C348.208 108.341 335.753 131.485 335.753 131.485C336.734 120.942 336.8 110.335 335.949 99.7807C329.153 105.776 323.258 112.719 318.444 120.396C311.906 121.226 306.26 122.14 300.931 123.249C292.606 125.022 284.418 127.383 276.428 130.315C281.048 118.237 285.063 109.881 293.933 98.0294L277.409 111.066C289.796 93.0322 309.038 75.8289 331.201 73.5039C336.242 72.9587 341.337 73.2135 346.298 74.2587C349.098 74.7931 351.733 75.9771 353.992 77.7156C356.251 79.4541 358.071 81.6985 359.304 84.2682C365.66 96.7763 361.788 117.097 359.395 126.684C358.437 130.521 358.126 134.491 358.474 138.43L358.904 143.389L360.656 163.567L367.834 162.117C377.144 160.245 386.721 158.268 396.564 156.184C415.972 152.085 432.647 170.376 426.759 189.315C422.336 203.529 417.995 216.755 413.473 229.557C405.058 253.341 406.352 279.482 417.074 302.318C421.037 310.743 425.498 319.763 430.322 329.32C431.393 331.435 432.341 333.61 433.16 335.834C436.151 343.841 437.186 352.446 436.18 360.934" stroke="#323433" stroke-width="2.61" stroke-linecap="round" stroke-linejoin="round"/>
<path d="M376.13 409.713C366.675 408.776 357.618 405.431 349.823 399.998C338.734 392.449 329.087 385.655 321.289 379.662" stroke="#323433" stroke-width="2.61" stroke-linecap="round" stroke-linejoin="round"/>
<path d="M275.099 382.138C265.15 384.75 254.672 387.195 243.485 389.581L237.582 390.826" stroke="#323433" stroke-width="2.61" stroke-linecap="round" stroke-linejoin="round"/>
<path d="M216.688 396.782C213.578 398.994 206.497 402.066 191.083 402.066C185.558 402.148 180.073 401.121 174.951 399.047" stroke="#323433" stroke-width="2.61" stroke-linecap="round" stroke-linejoin="round"/>
<path d="M164.406 372.068C171.381 370.151 183.021 369.803 192.533 369.894" stroke="#323433" stroke-width="2.61" stroke-linecap="round" stroke-linejoin="round"/>
<path d="M199.484 370.037C201.855 370.113 203.87 370.203 205.357 370.279C205.652 370.279 205.938 370.279 206.233 370.279" stroke="#323433" stroke-width="2.61" stroke-linecap="round" stroke-linejoin="round"/>
<path d="M244.264 354.079C264.434 345.021 282.671 336.823 300.743 327.946" stroke="#323433" stroke-width="2.61" stroke-linecap="round" stroke-linejoin="round"/>
<path d="M332.002 318.556C341.909 318.629 351.582 321.574 359.849 327.033C364.378 330.015 368.734 332.958 372.984 335.865C385.439 344.402 396.875 352.66 408.153 360.964" stroke="#323433" stroke-width="2.61" stroke-linecap="round" stroke-linejoin="round"/>
<path d="M289.494 270.946C285.411 281.975 281.153 293.064 276.541 304.855" stroke="#323433" stroke-width="2.61" stroke-linecap="round" stroke-linejoin="round"/>
<path d="M288.982 268.787C289.076 269.523 289.248 270.247 289.496 270.946C291.881 277.8 300.962 282.843 305.816 289.025" stroke="#323433" stroke-width="2.61" stroke-linecap="round" stroke-linejoin="round"/>
<path d="M293.911 236.751C293.911 244.065 288.906 256 288.906 267.549C288.908 267.961 288.933 268.371 288.982 268.78" stroke="#323433" stroke-width="2.61" stroke-linecap="round" stroke-linejoin="round"/>
<path d="M160.488 362.058C163.84 359.039 167.69 355.657 171.456 352.245C176.65 347.58 181.677 342.945 185.044 339.413C186.831 337.531 188.973 336.022 191.347 334.974C193.721 333.926 196.279 333.359 198.873 333.306L221.783 332.823H222.757C224.095 332.791 225.41 332.464 226.607 331.864C246.233 321.968 261.625 313.219 276.541 304.877C286.166 299.495 295.594 294.309 305.815 289.025L307.242 288.27C309.46 287.145 311.398 285.535 312.911 283.56C324.724 268.055 333.571 252.671 346.064 232.471L381.717 262.801C364.679 283.054 352.096 298.438 337.029 314.268C332.87 318.631 327.529 321.685 321.659 323.055L300.742 327.916L245.592 340.749C244.023 341.113 242.537 341.771 241.214 342.689C240.987 342.847 240.761 343.006 240.542 343.179C234.888 347.641 224.644 350.434 212.966 352.426C208.634 353.181 204.104 353.8 199.53 354.366C202.595 357.386 205.637 358.624 210.023 360.232L210.302 360.33C210.62 360.447 210.899 360.651 211.108 360.918C211.317 361.184 211.447 361.504 211.485 361.841C211.522 362.178 211.466 362.518 211.321 362.825C211.176 363.131 210.948 363.391 210.664 363.576C209.789 364.142 208.958 364.663 208.158 365.169C205.354 366.934 202.458 368.552 199.485 370.015V370.015L199.145 370.181C198.139 370.666 197.031 370.901 195.915 370.866C194.8 370.83 193.709 370.525 192.736 369.977L192.54 369.871C189.697 368.281 187.013 366.424 184.523 364.323C183.792 363.706 183.221 362.923 182.857 362.038C182.493 361.154 182.347 360.195 182.432 359.243C182.465 358.788 182.553 358.339 182.696 357.907L184.961 350.358C182.742 352.553 180.332 354.546 177.76 356.314C172.974 359.817 167.04 363.863 162.579 367.486" stroke="#323433" stroke-width="2.61" stroke-linecap="round" stroke-linejoin="round"/>
<path d="M175.465 406.92C175.372 406.928 175.278 406.928 175.185 406.92H80.8273C80.3319 406.895 79.8544 406.727 79.4525 406.436C79.0506 406.146 78.7415 405.745 78.5627 405.282L51.1309 335.08C51.0171 334.785 50.9766 334.467 51.013 334.153C51.0494 333.839 51.1616 333.539 51.3399 333.278C51.5182 333.017 51.7573 332.804 52.0365 332.656C52.3157 332.508 52.6267 332.431 52.9426 332.43H147.157C147.678 332.432 148.186 332.591 148.616 332.886C149.045 333.181 149.376 333.598 149.565 334.083L151.762 339.707L160.488 362.058L162.609 367.493L164.406 372.091L174.974 399.084L177.012 404.316C177.115 404.588 177.154 404.88 177.129 405.17C177.103 405.459 177.013 405.74 176.864 405.99C176.716 406.24 176.513 406.453 176.27 406.614C176.028 406.775 175.753 406.88 175.465 406.92V406.92Z" stroke="#323433" stroke-width="2.61" stroke-linecap="round" stroke-linejoin="round"/>
<path d="M177.285 412.581C176.572 412.581 175.889 412.298 175.385 411.794C174.881 411.29 174.598 410.607 174.598 409.894V409.615C174.597 409.262 174.665 408.912 174.8 408.585C174.935 408.259 175.133 407.962 175.383 407.712C175.632 407.463 175.929 407.265 176.255 407.13C176.582 406.995 176.932 406.927 177.285 406.928H243.97C244.682 406.928 245.366 407.211 245.87 407.715C246.374 408.219 246.657 408.902 246.657 409.615V409.879C246.657 410.592 246.374 411.275 245.87 411.779C245.366 412.283 244.682 412.566 243.97 412.566H177.413" stroke="#323433" stroke-width="2.61" stroke-linecap="round" stroke-linejoin="round"/>
<path d="M177.412 412.582H80.7894C80.4069 412.601 80.0244 412.543 79.6651 412.41C79.3058 412.278 78.9772 412.073 78.6995 411.809C78.4217 411.546 78.2005 411.228 78.0494 410.876C77.8983 410.524 77.8203 410.145 77.8203 409.762C77.8203 409.379 77.8983 409 78.0494 408.648C78.2005 408.296 78.4217 407.979 78.6995 407.715C78.9772 407.451 79.3058 407.247 79.6651 407.114C80.0244 406.981 80.4069 406.923 80.7894 406.943" stroke="#323433" stroke-width="2.61" stroke-linecap="round" stroke-linejoin="round"/>
<path d="M260.877 258.649L288.981 268.787" stroke="#323433" stroke-width="2.61" stroke-linecap="round" stroke-linejoin="round"/>
<path d="M236.421 311.845L173.963 284.224C149.453 273.392 124.625 298.763 135.994 323.032C137.607 326.479 139.763 329.644 142.38 332.407" stroke="#323433" stroke-width="2.61" stroke-linecap="round" stroke-linejoin="round"/>
<path d="M151.762 339.684L171.456 352.253" stroke="#323433" stroke-width="2.61" stroke-linecap="round" stroke-linejoin="round"/>
<path d="M177.789 356.299L182.424 359.258" stroke="#323433" stroke-width="2.61" stroke-linecap="round" stroke-linejoin="round"/>
<path d="M243.486 389.581C254.221 393.951 264.434 398.715 276.783 402.783" stroke="#323433" stroke-width="2.61" stroke-linecap="round" stroke-linejoin="round"/>
<path d="M241.213 342.711C241.857 346.588 242.868 350.394 244.232 354.08C244.896 355.831 245.681 357.627 246.61 359.567C246.857 360.082 246.942 360.659 246.855 361.223C246.767 361.787 246.511 362.312 246.119 362.727C245.728 363.142 245.219 363.429 244.661 363.55C244.103 363.67 243.522 363.619 242.994 363.402C240.735 362.476 238.392 361.773 235.996 361.304C235.023 361.119 234.015 361.315 233.182 361.852C232.349 362.388 231.754 363.224 231.52 364.187L227.255 381.549C226.998 382.573 227.097 383.654 227.536 384.615C227.975 385.575 228.728 386.358 229.671 386.833L237.551 390.819C237.37 393.333 226.228 396.299 216.657 396.745C212.324 396.948 208.353 396.631 205.855 395.507C205.449 395.326 205.062 395.106 204.7 394.85C200.714 391.898 203.273 380.319 205.281 373.329C205.613 372.166 205.93 371.132 206.202 370.309L208.127 365.206" stroke="#323433" stroke-width="2.61" stroke-linecap="round" stroke-linejoin="round"/>
<path d="M210.023 360.254L212.967 352.449" stroke="#323433" stroke-width="2.61" stroke-linecap="round" stroke-linejoin="round"/>
<path d="M205.313 373.336C199.274 373.864 187.581 375.94 188.094 384.04C188.585 391.943 196.458 395.476 205.887 395.521" stroke="#323433" stroke-width="2.61" stroke-linecap="round" stroke-linejoin="round"/>
<path d="M321.29 379.662C321.332 380.205 321.332 380.75 321.29 381.293C320.702 388.841 319.298 395.703 317.312 403.78C316.503 407.094 314.417 409.955 311.509 411.739C308.601 413.523 305.106 414.086 301.785 413.306L295.255 411.759L287.238 409.864C283.008 408.877 279.288 406.371 276.784 402.821C274.242 399.199 273.163 394.75 273.764 390.366C274.142 387.558 274.587 384.871 275.1 382.176C275.417 380.507 275.757 378.839 276.134 377.148C276.57 375.145 277.4 373.248 278.576 371.569C279.753 369.89 281.252 368.462 282.986 367.369C284.721 366.275 286.655 365.538 288.678 365.201C290.7 364.863 292.769 364.932 294.764 365.403L297.656 366.09L312.753 369.652C315.054 370.199 317.122 371.463 318.657 373.263C320.192 375.062 321.114 377.303 321.29 379.662V379.662Z" stroke="#323433" stroke-width="2.61" stroke-linecap="round" stroke-linejoin="round"/>
<path d="M297.043 412.287C296.435 412.146 295.835 411.97 295.247 411.759C287.223 408.89 282.278 400.247 283.456 391.641C284.09 386.992 284.89 382.636 285.887 378.054C286.521 375.146 287.961 372.475 290.042 370.347C292.123 368.219 294.761 366.72 297.655 366.021" stroke="#323433" stroke-width="2.61" stroke-linecap="round" stroke-linejoin="round"/>
<path d="M372.982 335.865H433.16" stroke="#323433" stroke-width="2.61" stroke-linecap="round" stroke-linejoin="round"/>
<path d="M331.201 73.5038C330.05 67.6218 331.254 61.523 334.553 56.5193C341.037 46.5249 353.425 43.045 362.219 48.7291C371.013 54.4133 372.93 67.1252 366.476 77.1196C364.629 79.9999 362.183 82.4484 359.305 84.2984" stroke="#323433" stroke-width="2.61" stroke-linecap="round" stroke-linejoin="round"/>
<path d="M307.988 129.794C309.498 133.568 309.649 136.392 309.611 140.423C309.605 140.925 309.489 141.419 309.272 141.872L308.313 143.835C308.264 143.937 308.24 144.049 308.243 144.162C308.247 144.275 308.278 144.386 308.334 144.484C308.389 144.583 308.468 144.667 308.563 144.728C308.658 144.79 308.766 144.828 308.879 144.839L314.329 145.39" stroke="#323433" stroke-width="2.61" stroke-linecap="round" stroke-linejoin="round"/>
<path d="M322.603 129.447C322.044 130.177 321.283 130.725 320.414 131.024V131.024C319.764 131.237 319.077 131.306 318.398 131.228C317.459 131.112 316.578 130.709 315.877 130.073" stroke="#323433" stroke-width="2.61" stroke-linecap="round" stroke-linejoin="round"/>
<path d="M328.061 169.862C325.63 174.769 322.022 184.771 334.054 183.125C348.601 181.14 359.305 173.908 367.835 162.155" stroke="#323433" stroke-width="2.61" stroke-linecap="round" stroke-linejoin="round"/>
<path d="M479.267 409.94H401.984" stroke="#323433" stroke-width="2.61" stroke-linecap="round" stroke-linejoin="round"/>
<path d="M384.147 409.939H378.335C377.597 409.941 376.86 409.865 376.138 409.713V409.713C373.657 409.201 371.429 407.849 369.828 405.886C368.228 403.922 367.353 401.467 367.352 398.934V393.136C367.352 390.222 368.508 387.427 370.568 385.364C372.627 383.302 375.421 382.142 378.335 382.138H479.268" stroke="#323433" stroke-width="2.61" stroke-linecap="round" stroke-linejoin="round"/>
<path d="M515.071 382.138H521.955C519.038 382.138 516.241 383.297 514.178 385.359C512.116 387.422 510.957 390.219 510.957 393.136V398.934C510.956 400.379 511.24 401.81 511.792 403.145C512.344 404.48 513.154 405.693 514.176 406.715C515.197 407.738 516.41 408.548 517.745 409.102C519.079 409.655 520.51 409.939 521.955 409.939H479.268C476.349 409.939 473.549 408.78 471.485 406.716C469.421 404.652 468.262 401.853 468.262 398.934V393.136C468.262 391.691 468.546 390.26 469.1 388.926C469.653 387.591 470.464 386.378 471.486 385.357C472.508 384.335 473.721 383.525 475.056 382.973C476.392 382.421 477.823 382.137 479.268 382.138H515.071Z" stroke="#323433" stroke-width="2.61" stroke-linecap="round" stroke-linejoin="round"/>
<path d="M402.491 382.138C399.683 382.138 396.991 381.022 395.005 379.037C393.02 377.052 391.904 374.359 391.904 371.551C391.904 368.743 393.02 366.05 395.005 364.065C396.991 362.079 399.683 360.964 402.491 360.964H472.618" stroke="#323433" stroke-width="2.61" stroke-linecap="round" stroke-linejoin="round"/>
<path d="M472.634 382.138C469.826 382.138 467.133 381.022 465.148 379.037C463.162 377.052 462.047 374.359 462.047 371.551C462.047 368.743 463.162 366.05 465.148 364.065C467.133 362.079 469.826 360.964 472.634 360.964H515.072C512.265 360.964 509.572 362.079 507.586 364.065C505.601 366.05 504.485 368.743 504.485 371.551C504.485 374.359 505.601 377.052 507.586 379.037C509.572 381.022 512.265 382.138 515.072 382.138" stroke="#323433" stroke-width="2.61" stroke-linecap="round" stroke-linejoin="round"/>
<path d="M401.986 409.94V427.89L392.814 422.282L384.148 427.89V409.94V396.035H401.986V409.94Z" stroke="#323433" stroke-width="2.61" stroke-linecap="round" stroke-linejoin="round"/>
<path d="M401.984 396.035H408.974" stroke="#323433" stroke-width="2.61" stroke-linecap="round" stroke-linejoin="round"/>
<path d="M377.482 396.035H384.148" stroke="#323433" stroke-width="2.61" stroke-linecap="round" stroke-linejoin="round"/>
<path d="M500.405 354.797C497.082 346.611 493.346 338.599 489.21 330.792H460.82C456.684 338.598 452.95 346.61 449.633 354.797" stroke="#323433" stroke-width="1.74" stroke-linecap="round" stroke-linejoin="round"/>
<path d="M475.018 330.792V217.087" stroke="#323433" stroke-width="1.74" stroke-linecap="round" stroke-linejoin="round"/>
<path d="M502.23 285.062C495.527 291.765 488.967 293.932 480.264 295.215C481.547 286.504 483.706 279.944 490.409 273.249C497.112 266.553 507.333 260.718 516.037 259.442C514.753 268.108 508.926 278.329 502.23 285.062Z" fill="#00B07A" stroke="#323433" stroke-width="1.74" stroke-linecap="round" stroke-linejoin="round"/>
<path d="M466.42 300.114C469.84 303.534 470.738 307.082 471.048 311.867C466.262 311.558 462.744 310.66 459.295 307.24C455.845 303.821 453.112 298.408 452.803 293.653C457.596 293.932 463.001 296.695 466.42 300.114Z" fill="#00B07A" stroke="#323433" stroke-width="1.74" stroke-linecap="round" stroke-linejoin="round"/>
<path d="M494.38 256.808C490.961 260.227 487.413 261.125 482.627 261.435C482.936 256.649 483.835 253.131 487.254 249.682C490.674 246.232 496.086 243.499 500.842 243.19C500.563 247.976 497.8 253.358 494.38 256.808Z" fill="#00B07A" stroke="#323433" stroke-width="1.74" stroke-linecap="round" stroke-linejoin="round"/>
<path d="M463.732 239.091C467.846 243.205 468.933 247.477 469.303 253.237C463.543 252.867 459.271 251.78 455.157 247.666C451.043 243.552 447.721 237.038 447.352 231.278C453.104 231.656 459.626 234.977 463.732 239.091Z" fill="#00B07A" stroke="#323433" stroke-width="1.74" stroke-linecap="round" stroke-linejoin="round"/>
<path d="M481.131 216.128C481.131 221.94 478.866 225.73 475.092 230.063C471.317 225.73 469.053 221.94 469.053 216.128C469.053 210.315 471.317 203.348 475.092 199.015C478.874 203.348 481.131 210.331 481.131 216.128Z" fill="#00B07A" stroke="#323433" stroke-width="1.74" stroke-linecap="round" stroke-linejoin="round"/>
<path d="M461.761 266.477C466.924 271.648 468.291 277.046 468.759 284.247C461.519 283.779 456.152 282.42 450.989 277.257C445.826 272.094 441.636 263.903 441.176 256.664C448.407 257.132 456.59 261.314 461.761 266.477Z" fill="#00B07A" stroke="#323433" stroke-width="1.74" stroke-linecap="round" stroke-linejoin="round"/>
<path d="M494.727 280.344L475.018 300.046" stroke="#323433" stroke-width="1.74" stroke-linecap="round" stroke-linejoin="round"/>
<path d="M455.715 271.588L475.017 290.882" stroke="#323433" stroke-width="1.74" stroke-linecap="round" stroke-linejoin="round"/>
<path d="M461.906 302.681L475.018 315.793" stroke="#323433" stroke-width="1.74" stroke-linecap="round" stroke-linejoin="round"/>
<path d="M458.51 242.073L475.019 258.582" stroke="#323433" stroke-width="1.74" stroke-linecap="round" stroke-linejoin="round"/>
<path d="M491.859 252.422L475.018 269.255" stroke="#323433" stroke-width="1.74" stroke-linecap="round" stroke-linejoin="round"/>
<path d="M586.504 246C591.753 246 596.008 241.747 596.008 236.5C596.008 231.253 591.753 227 586.504 227C581.255 227 577 231.253 577 236.5C577 241.747 581.255 246 586.504 246Z" fill="#F9BE3D" stroke="#323433" stroke-width="1.71128" stroke-linecap="round" stroke-linejoin="round"/>
<path d="M236.44 231.252L225.188 242.44L214 231.188L225.252 220L236.44 231.252Z" fill="#52CCA7" stroke="#323433" stroke-width="2.15531" stroke-linecap="round" stroke-linejoin="round"/>
<path d="M29.2073 138.958L2.97266 152.948L7.37969 160.698L33.6143 146.708L29.2073 138.958Z" fill="#EA4235"/>
<path d="M35.0442 147.19L7.03753 162.092L1.54688 152.463L29.5535 137.562L35.0442 147.19ZM7.74628 159.205L32.1391 146.226L28.8448 140.449L4.45189 153.428L7.74628 159.205Z" fill="#323433"/>
<path d="M445.63 1.00002L449.484 14.6295L435.855 18.4837L432.001 4.85418L445.63 1.00002Z" fill="#FF8233" stroke="#323433" stroke-width="1.92392" stroke-linecap="round" stroke-linejoin="round"/>
<path d="M551.732 86.1497C550.591 83.3752 547.547 82.2935 544.935 83.7339C542.322 85.1743 541.129 88.5912 542.271 91.3658C543.412 94.1404 546.456 95.222 549.069 93.7816C551.681 92.3413 552.874 88.9243 551.732 86.1497Z" fill="#F9BE3D"/>
<path d="M552.138 85.9278C553.378 88.9421 552.084 92.649 549.246 94.2138C546.407 95.7787 543.105 94.6052 541.865 91.5909C540.625 88.5766 541.919 84.8697 544.757 83.3048C547.596 81.74 550.903 82.9278 552.138 85.9278ZM542.676 91.1438C543.716 93.6701 546.512 94.6641 548.891 93.3526C551.27 92.0412 552.366 88.9012 551.327 86.3749C550.287 83.8486 547.49 82.8546 545.111 84.1661C542.733 85.4775 541.637 88.6175 542.676 91.1438Z" fill="#323433"/>
<path d="M547.652 92.3265C549.258 96.1535 547.61 100.882 543.985 102.845C540.36 104.809 536.089 103.288 534.484 99.4607C532.878 95.6337 534.526 90.9056 538.151 88.9419C541.776 86.9781 546.046 88.4994 547.652 92.3265ZM535.298 99.0195C536.705 102.373 540.447 103.706 543.624 101.985C546.801 100.264 548.245 96.1218 546.838 92.7678C545.43 89.4137 541.689 88.0808 538.512 89.8019C535.335 91.5229 533.891 95.6654 535.298 99.0195Z" fill="#323433"/>
<path d="M200.583 85.3421L223.095 84.1645L209.285 63.8194L200.583 85.3421Z" fill="#4385F5"/>
<path d="M224.972 85.1605L199.017 86.5182L209.05 61.696L224.972 85.1605ZM202.199 84.1984L221.268 83.2009L209.572 65.9755L202.199 84.1984Z" fill="#323433"/>
<path d="M227.627 74.9194L194.709 76.7876L207.812 45.7051L227.627 74.9194ZM197.951 74.462L223.911 72.9888L208.286 49.9613L197.951 74.462Z" fill="#323433"/>
<path d="M128.187 245.432L125.414 245.606L123.59 227.297L142.074 226.135L140.394 209.271L158.415 208.138L156.879 192.72L159.652 192.545L161.476 210.854L143.454 211.988L145.134 228.851L126.651 230.014L128.187 245.432Z" fill="#323433"/>
</svg>
