<svg width="1190" height="515" viewBox="0 0 1190 515" fill="none" xmlns="http://www.w3.org/2000/svg">
<ellipse rx="29.4655" ry="30.722" transform="matrix(0.796305 0.604331 -0.573121 0.819419 321.071 448.366)" fill="#F37C40" stroke="#323433" stroke-width="1.74534"/>
<path d="M331.63 431.926L301.119 450.646L302.574 454.204L319.921 459.864L307.463 449.998L330.205 444.054L331.63 431.926Z" fill="white" stroke="#323433" stroke-width="1.74534"/>
<path d="M324.78 467.864L322.431 466.415L319.598 448.31L328.807 446.107L324.78 467.864Z" fill="white" stroke="#323433" stroke-width="1.74534"/>
<path d="M940.35 44.676C939.581 44.2722 938.779 43.9328 937.951 43.6612C934.592 42.5518 930.973 42.7199 927.094 44.1654C922.147 46.0167 918.219 49.3985 915.313 54.3108C912.407 59.2231 911.375 64.2365 912.218 69.3512C912.867 73.3645 914.527 76.5074 917.197 78.7799C917.8 79.3191 918.454 79.8006 919.151 80.2178L919.974 80.6816C923.975 82.7923 928.381 82.9556 933.192 81.1715C938.143 79.3377 942.076 75.9594 944.992 71.0365C947.908 66.1135 948.94 61.1001 948.087 55.9961C947.274 51.0234 944.921 47.3771 941.026 45.0573L940.35 44.676Z" fill="#F9C13D" stroke="#323433" stroke-width="0.995252"/>
<path d="M910.53 51.453C907.618 56.3745 906.578 61.3792 907.409 66.4673C908.229 71.4654 910.605 75.121 914.538 77.4343L919.481 80.2173C918.786 79.8014 918.134 79.3214 917.533 78.7836C914.871 76.515 913.217 73.3783 912.571 69.3735C911.728 64.2786 912.762 59.2704 915.673 54.3489C918.585 49.4274 922.513 46.0486 927.458 44.2125C931.327 42.7688 934.939 42.5964 938.293 43.6954C939.118 43.9656 939.919 44.3036 940.686 44.7058L935.615 41.851C935.527 41.7948 935.435 41.7434 935.341 41.697C931.406 39.6577 927.067 39.5249 922.325 41.2985C917.366 43.1587 913.435 46.5435 910.53 51.453Z" fill="#F37C40" stroke="#323433" stroke-width="0.995252"/>
<path d="M936.876 53.7088L936.305 53.3737L937.545 51.1727L933.815 48.9854L932.579 51.1792L928.389 48.7215L926.419 52.2167L928.164 53.24L922.153 63.907L920.408 62.8837L918.445 66.3682L922.635 68.8259L921.393 71.0304L925.122 73.2178L926.358 71.0239L926.93 71.3591C928.429 72.2356 930.178 72.5215 931.794 72.1542C933.41 71.7868 934.761 70.7962 935.551 69.3994C936.311 68.1038 936.502 66.5309 936.081 65.013C937.579 64.6172 938.816 63.6571 939.532 62.3344C940.319 60.9352 940.479 59.245 939.978 57.6346C939.476 56.0241 938.353 54.6251 936.856 53.7444L936.876 53.7088ZM931.907 55.4305L934.913 57.1934C935.418 57.4896 935.797 57.9611 935.966 58.504C936.135 59.0469 936.081 59.6168 935.815 60.0883C935.556 60.5497 935.114 60.8805 934.584 61.0109C934.054 61.1412 933.476 61.061 932.974 60.787L929.888 58.9772L931.907 55.4305ZM931.993 65.5858C932.08 65.8569 932.112 66.1383 932.085 66.413C932.059 66.6877 931.974 66.9499 931.837 67.1836C931.572 67.6552 931.116 67.9896 930.571 68.1136C930.026 68.2375 929.436 68.1406 928.931 67.8443L925.925 66.0815L927.949 62.4903L931.004 64.2822C931.487 64.5855 931.843 65.054 931.993 65.5858Z" fill="white" stroke="#323433" stroke-width="0.995252" stroke-linecap="round" stroke-linejoin="round"/>
<path d="M927.47 402.33C936.504 401.718 943.119 393.687 942.246 384.392C941.373 375.097 933.342 368.057 924.308 368.669C915.274 369.281 908.659 377.312 909.532 386.607C910.405 395.902 918.436 402.941 927.47 402.33Z" fill="#19B787"/>
<path d="M927.605 403.773C917.791 404.437 909.078 396.8 908.13 386.702C907.181 376.604 914.358 367.891 924.172 367.227C933.986 366.562 942.699 374.199 943.647 384.297C944.596 394.395 937.372 403.111 927.605 403.773ZM924.443 370.112C916.218 370.669 910.139 378.049 910.934 386.512C911.729 394.976 919.109 401.444 927.334 400.887C935.559 400.331 941.638 392.95 940.843 384.487C940.048 376.024 932.668 369.555 924.443 370.112Z" fill="#323433"/>
<path d="M914.079 384.057C901.548 384.936 890.375 375.199 889.222 362.394C888.069 349.588 897.359 338.416 909.891 337.537C922.422 336.658 933.595 346.395 934.747 359.2C935.9 372.005 926.61 383.178 914.079 384.057ZM910.15 340.414C899.167 341.185 891.028 350.974 892.038 362.196C893.048 373.418 902.837 381.95 913.82 381.179C924.802 380.409 932.942 370.62 931.931 359.398C930.921 348.175 921.132 339.644 910.15 340.414Z" fill="#323433"/>
<path d="M12.9408 262.202L44.7849 260.046L26.2062 232.845L12.9408 262.202Z" fill="#4385F5"/>
<path d="M47.3679 261.336L10.6537 263.821L25.9469 229.964L47.3679 261.336ZM15.2524 260.601L42.2262 258.775L26.49 235.745L15.2524 260.601Z" fill="#323433"/>
<path d="M51.0243 247.184L4.7725 250.428L24.2236 207.982L51.0243 247.184ZM9.40146 247.203L45.8765 244.645L24.7424 213.746L9.40146 247.203Z" fill="#323433"/>
<path d="M501.188 496.036L498.363 496.243L496.809 478.102L515.643 476.722L514.212 460.012L532.575 458.666L531.267 443.39L534.092 443.183L535.646 461.324L517.282 462.67L518.714 479.379L499.88 480.759L501.188 496.036Z" fill="#323433"/>
<path d="M752.781 424.884L711.596 427.816L712.628 439.555L753.813 436.622L752.781 424.884Z" fill="#EA4235"/>
<path d="M755.35 437.972L711.352 441.092L710.058 426.465L754.056 423.346L755.35 437.972ZM713.932 437.965L752.253 435.248L751.476 426.472L713.155 429.189L713.932 437.965Z" fill="#323433"/>
<ellipse rx="36.3514" ry="40.0514" transform="matrix(0.994833 0.102507 -0.140654 0.990168 206.34 69.7277)" fill="#E9761A" stroke="#323433" stroke-width="1.6349"/>
<ellipse rx="36.3514" ry="40.0514" transform="matrix(0.994833 0.102507 -0.140654 0.990168 202.472 70.5762)" fill="#F9C13D" stroke="#323433" stroke-width="1.6349"/>
<mask id="path-18-inside-1_681_6" fill="white">
<path d="M205.108 45.564C206.25 45.0789 207.356 46.6063 206.636 47.693C206.181 48.593 204.906 48.7088 204.37 47.9283C203.791 47.1724 204.195 45.8438 205.108 45.564ZM193.52 45.6743C194.203 45.4561 194.932 46.1824 194.762 46.9355C194.718 47.768 193.703 48.2756 193.1 47.8132C192.28 47.3552 192.588 45.8369 193.52 45.6743ZM216.586 50.3504C215.597 50.111 215.671 48.3803 216.688 48.139C217.494 47.8226 218.082 48.6407 218.087 49.4239C217.839 50.0658 217.247 50.6144 216.586 50.3504ZM195.398 51.208C196.576 50.5858 197.963 51.8486 197.613 53.1852C197.37 54.5467 195.584 55.1594 194.764 54.1336C193.948 53.3094 194.314 51.6584 195.398 51.208ZM211.734 53.7503C212.397 52.4611 214.35 52.6289 214.719 53.9926C215.121 55.066 214.284 56.2525 213.274 56.4947C211.963 56.616 210.955 54.9932 211.734 53.7503ZM202.393 55.2529C202.54 54.0995 203.626 53.3446 204.649 53.3744C205.3 53.5919 205.989 53.9796 206.177 54.7434C206.575 55.812 205.909 57.1533 204.877 57.5136C204.397 57.7351 203.886 57.5781 203.408 57.4951C202.723 57.0239 202.207 56.1883 202.393 55.2529ZM185.2 55.1163C186.274 54.5669 187.438 55.9039 186.908 57.0211C186.566 58 185.268 58.2742 184.645 57.5592C183.968 56.8794 184.284 55.4528 185.2 55.1163ZM221.628 59.0131C222.558 58.4008 223.826 59.3531 223.571 60.4835C223.485 61.5299 222.187 62.187 221.431 61.5626C220.579 61.0208 220.694 59.4909 221.628 59.0131ZM206.652 59.512C208.103 59.1237 209.652 59.9399 210.255 61.3535C211.069 63.0898 210.181 65.5061 208.446 66.2667C206.631 67.1915 204.326 65.9962 203.986 63.9171C203.533 62.04 204.858 59.8932 206.652 59.512ZM198.546 58.8242C200.179 58.2075 202.144 59.0819 202.651 60.8515C203.295 62.59 202.311 64.8097 200.644 65.4933C198.96 66.2821 196.867 65.3235 196.356 63.4762C195.746 61.6774 196.811 59.4368 198.546 58.8242ZM190.045 60.9533C190.306 59.9008 191.328 59.3072 192.274 59.3357C193.265 59.5754 193.955 60.5097 193.914 61.6267C193.699 62.7137 192.772 63.6994 191.702 63.5782C190.509 63.5619 189.649 62.1824 190.045 60.9533ZM214.166 61.9137C215.479 61.281 217.008 62.5704 216.749 64.0691C216.614 65.672 214.602 66.5964 213.525 65.5324C212.38 64.6199 212.777 62.4377 214.166 61.9137ZM194.3 65.4875C195.772 65.2175 197.291 66.1126 197.793 67.5946C198.36 69.093 197.781 71.0283 196.459 71.9413C194.737 73.3037 192.028 72.3927 191.506 70.226C190.84 68.2197 192.313 65.7842 194.3 65.4875ZM209.631 67.1204C211.064 66.8417 212.602 67.5885 213.156 69.0241C213.922 70.6801 213.14 72.944 211.548 73.7883C209.865 74.7864 207.587 73.9239 206.996 72.0183C206.235 70.0313 207.62 67.4864 209.631 67.1204ZM184.96 66.2756C186.25 65.906 187.406 67.5109 186.732 68.7696C186.267 69.9322 184.651 70.2074 183.967 69.2404C183.14 68.3124 183.739 66.5089 184.96 66.2756ZM217.825 71.7245C217.939 70.6245 218.813 69.733 219.859 69.7835C220.677 70.0166 221.391 70.8346 221.19 71.8139C221.089 73.1249 219.518 73.8552 218.576 73.1333C218.132 72.8174 217.958 72.2574 217.825 71.7245ZM178.863 66.2759C179.646 66.0072 180.461 66.7944 180.173 67.6603C179.997 68.657 178.58 68.8957 178.192 68.0058C177.829 67.3776 178.216 66.5104 178.863 66.2759ZM225.224 71.2177C225.796 70.8741 226.588 71.2498 226.704 71.9265C226.954 72.6789 226.183 73.5904 225.456 73.3899C224.398 73.3812 224.295 71.623 225.224 71.2177ZM197.313 73.1048C199.322 72.7672 201.163 74.7363 200.881 76.8942C200.71 79.087 198.398 80.8003 196.487 80.085C194.992 79.6543 194.009 77.9294 194.287 76.2601C194.501 74.658 195.821 73.2888 197.313 73.1048ZM204.975 73.9204C207.02 73.5364 208.919 75.5435 208.587 77.7465C208.399 79.8966 206.16 81.5516 204.279 80.9198C202.489 80.469 201.438 78.1546 202.209 76.2922C202.641 75.0423 203.768 74.109 204.975 73.9204ZM190.021 73.6667C191.415 73.5612 192.465 75.3387 191.723 76.6764C191.118 78.1218 189.062 78.3114 188.343 77.001C187.465 75.7223 188.531 73.6707 190.021 73.6667ZM212.482 76.1373C213.769 75.7175 215.101 77.0114 214.814 78.425C214.649 79.9974 212.665 80.8815 211.605 79.84C210.375 78.8751 210.949 76.4844 212.482 76.1373ZM217.832 83.6291C217.488 82.6209 218.523 81.4441 219.481 81.7265C219.971 81.7699 220.256 82.2234 220.521 82.6067C220.508 83.1809 220.523 83.8693 220.029 84.26C219.328 85.0061 218.021 84.6319 217.832 83.6291ZM182.076 77.9934C183.084 77.4302 184.27 78.558 183.905 79.6974C183.655 80.7129 182.38 81.172 181.672 80.5049C180.899 79.8853 181.136 78.3821 182.076 77.9934ZM199.913 82.0842C201.192 81.6389 202.569 82.935 202.259 84.3554C202.132 85.9478 200.09 86.8414 199.045 85.7652C197.851 84.8093 198.396 82.4312 199.913 82.0842ZM191.226 83.3062C192.329 82.8329 193.565 83.9865 193.303 85.2163C193.195 86.2376 192.159 87.007 191.251 86.7573C190.485 86.6571 190.086 85.8575 189.936 85.1219C190.054 84.3502 190.466 83.5206 191.226 83.3062ZM208.233 85.1447C209.382 84.5533 210.739 85.7245 210.459 87.0397C210.297 88.4283 208.486 89.135 207.63 88.1199C206.779 87.3048 207.129 85.6021 208.233 85.1447ZM210.112 93.3779C209.748 92.5611 210.425 91.6964 211.209 91.6028C211.802 91.8028 212.38 92.3695 212.147 93.1228C211.917 94.1512 210.471 94.3196 210.112 93.3779ZM186.722 90.1989C186.991 89.6112 187.525 89.0556 188.164 89.2843C189.117 89.4615 189.189 91.0637 188.28 91.4578C187.446 91.93 186.67 91.0781 186.722 90.1989ZM197.955 92.1085C198.262 91.2293 199.396 90.9072 200.04 91.4605C200.478 91.7282 200.538 92.3099 200.592 92.8047C200.493 93.0489 200.402 93.294 200.311 93.539C199.97 93.8801 199.547 94.2124 199.066 94.1473C198.153 94.165 197.494 92.9806 197.955 92.1085Z"/>
</mask>
<path d="M205.108 45.564C206.25 45.0789 207.356 46.6063 206.636 47.693C206.181 48.593 204.906 48.7088 204.37 47.9283C203.791 47.1724 204.195 45.8438 205.108 45.564ZM193.52 45.6743C194.203 45.4561 194.932 46.1824 194.762 46.9355C194.718 47.768 193.703 48.2756 193.1 47.8132C192.28 47.3552 192.588 45.8369 193.52 45.6743ZM216.586 50.3504C215.597 50.111 215.671 48.3803 216.688 48.139C217.494 47.8226 218.082 48.6407 218.087 49.4239C217.839 50.0658 217.247 50.6144 216.586 50.3504ZM195.398 51.208C196.576 50.5858 197.963 51.8486 197.613 53.1852C197.37 54.5467 195.584 55.1594 194.764 54.1336C193.948 53.3094 194.314 51.6584 195.398 51.208ZM211.734 53.7503C212.397 52.4611 214.35 52.6289 214.719 53.9926C215.121 55.066 214.284 56.2525 213.274 56.4947C211.963 56.616 210.955 54.9932 211.734 53.7503ZM202.393 55.2529C202.54 54.0995 203.626 53.3446 204.649 53.3744C205.3 53.5919 205.989 53.9796 206.177 54.7434C206.575 55.812 205.909 57.1533 204.877 57.5136C204.397 57.7351 203.886 57.5781 203.408 57.4951C202.723 57.0239 202.207 56.1883 202.393 55.2529ZM185.2 55.1163C186.274 54.5669 187.438 55.9039 186.908 57.0211C186.566 58 185.268 58.2742 184.645 57.5592C183.968 56.8794 184.284 55.4528 185.2 55.1163ZM221.628 59.0131C222.558 58.4008 223.826 59.3531 223.571 60.4835C223.485 61.5299 222.187 62.187 221.431 61.5626C220.579 61.0208 220.694 59.4909 221.628 59.0131ZM206.652 59.512C208.103 59.1237 209.652 59.9399 210.255 61.3535C211.069 63.0898 210.181 65.5061 208.446 66.2667C206.631 67.1915 204.326 65.9962 203.986 63.9171C203.533 62.04 204.858 59.8932 206.652 59.512ZM198.546 58.8242C200.179 58.2075 202.144 59.0819 202.651 60.8515C203.295 62.59 202.311 64.8097 200.644 65.4933C198.96 66.2821 196.867 65.3235 196.356 63.4762C195.746 61.6774 196.811 59.4368 198.546 58.8242ZM190.045 60.9533C190.306 59.9008 191.328 59.3072 192.274 59.3357C193.265 59.5754 193.955 60.5097 193.914 61.6267C193.699 62.7137 192.772 63.6994 191.702 63.5782C190.509 63.5619 189.649 62.1824 190.045 60.9533ZM214.166 61.9137C215.479 61.281 217.008 62.5704 216.749 64.0691C216.614 65.672 214.602 66.5964 213.525 65.5324C212.38 64.6199 212.777 62.4377 214.166 61.9137ZM194.3 65.4875C195.772 65.2175 197.291 66.1126 197.793 67.5946C198.36 69.093 197.781 71.0283 196.459 71.9413C194.737 73.3037 192.028 72.3927 191.506 70.226C190.84 68.2197 192.313 65.7842 194.3 65.4875ZM209.631 67.1204C211.064 66.8417 212.602 67.5885 213.156 69.0241C213.922 70.6801 213.14 72.944 211.548 73.7883C209.865 74.7864 207.587 73.9239 206.996 72.0183C206.235 70.0313 207.62 67.4864 209.631 67.1204ZM184.96 66.2756C186.25 65.906 187.406 67.5109 186.732 68.7696C186.267 69.9322 184.651 70.2074 183.967 69.2404C183.14 68.3124 183.739 66.5089 184.96 66.2756ZM217.825 71.7245C217.939 70.6245 218.813 69.733 219.859 69.7835C220.677 70.0166 221.391 70.8346 221.19 71.8139C221.089 73.1249 219.518 73.8552 218.576 73.1333C218.132 72.8174 217.958 72.2574 217.825 71.7245ZM178.863 66.2759C179.646 66.0072 180.461 66.7944 180.173 67.6603C179.997 68.657 178.58 68.8957 178.192 68.0058C177.829 67.3776 178.216 66.5104 178.863 66.2759ZM225.224 71.2177C225.796 70.8741 226.588 71.2498 226.704 71.9265C226.954 72.6789 226.183 73.5904 225.456 73.3899C224.398 73.3812 224.295 71.623 225.224 71.2177ZM197.313 73.1048C199.322 72.7672 201.163 74.7363 200.881 76.8942C200.71 79.087 198.398 80.8003 196.487 80.085C194.992 79.6543 194.009 77.9294 194.287 76.2601C194.501 74.658 195.821 73.2888 197.313 73.1048ZM204.975 73.9204C207.02 73.5364 208.919 75.5435 208.587 77.7465C208.399 79.8966 206.16 81.5516 204.279 80.9198C202.489 80.469 201.438 78.1546 202.209 76.2922C202.641 75.0423 203.768 74.109 204.975 73.9204ZM190.021 73.6667C191.415 73.5612 192.465 75.3387 191.723 76.6764C191.118 78.1218 189.062 78.3114 188.343 77.001C187.465 75.7223 188.531 73.6707 190.021 73.6667ZM212.482 76.1373C213.769 75.7175 215.101 77.0114 214.814 78.425C214.649 79.9974 212.665 80.8815 211.605 79.84C210.375 78.8751 210.949 76.4844 212.482 76.1373ZM217.832 83.6291C217.488 82.6209 218.523 81.4441 219.481 81.7265C219.971 81.7699 220.256 82.2234 220.521 82.6067C220.508 83.1809 220.523 83.8693 220.029 84.26C219.328 85.0061 218.021 84.6319 217.832 83.6291ZM182.076 77.9934C183.084 77.4302 184.27 78.558 183.905 79.6974C183.655 80.7129 182.38 81.172 181.672 80.5049C180.899 79.8853 181.136 78.3821 182.076 77.9934ZM199.913 82.0842C201.192 81.6389 202.569 82.935 202.259 84.3554C202.132 85.9478 200.09 86.8414 199.045 85.7652C197.851 84.8093 198.396 82.4312 199.913 82.0842ZM191.226 83.3062C192.329 82.8329 193.565 83.9865 193.303 85.2163C193.195 86.2376 192.159 87.007 191.251 86.7573C190.485 86.6571 190.086 85.8575 189.936 85.1219C190.054 84.3502 190.466 83.5206 191.226 83.3062ZM208.233 85.1447C209.382 84.5533 210.739 85.7245 210.459 87.0397C210.297 88.4283 208.486 89.135 207.63 88.1199C206.779 87.3048 207.129 85.6021 208.233 85.1447ZM210.112 93.3779C209.748 92.5611 210.425 91.6964 211.209 91.6028C211.802 91.8028 212.38 92.3695 212.147 93.1228C211.917 94.1512 210.471 94.3196 210.112 93.3779ZM186.722 90.1989C186.991 89.6112 187.525 89.0556 188.164 89.2843C189.117 89.4615 189.189 91.0637 188.28 91.4578C187.446 91.93 186.67 91.0781 186.722 90.1989ZM197.955 92.1085C198.262 91.2293 199.396 90.9072 200.04 91.4605C200.478 91.7282 200.538 92.3099 200.592 92.8047C200.493 93.0489 200.402 93.294 200.311 93.539C199.97 93.8801 199.547 94.2124 199.066 94.1473C198.153 94.165 197.494 92.9806 197.955 92.1085Z" fill="#FBFFFF" stroke="#323433" stroke-width="3.2698" mask="url(#path-18-inside-1_681_6)"/>
<path d="M234.945 73.7112C232.448 93.0173 215.805 106.923 197.872 104.901C179.939 102.88 167.319 85.677 169.816 66.3709C172.313 47.0648 188.956 33.1595 206.889 35.1806C224.823 37.2018 237.442 54.4052 234.945 73.7112Z" stroke="#323433" stroke-width="1.6349"/>
<path d="M1180.02 1.00001L1189.04 10.0213L1180.02 19.0426L1171 10.0213L1180.02 1.00001Z" fill="#FF8233" stroke="#323433" stroke-width="1.73295" stroke-linecap="round" stroke-linejoin="round"/>
<path d="M466.204 40.4006C470.734 40.4006 474.407 36.7292 474.407 32.2003C474.407 27.6714 470.734 24 466.204 24C461.673 24 458 27.6714 458 32.2003C458 36.7292 461.673 40.4006 466.204 40.4006Z" fill="#F37C40" stroke="#323433" stroke-width="1.47716" stroke-linecap="round" stroke-linejoin="round"/>
<path d="M898.04 508.536L892.504 514.04L887 508.504L892.536 503L898.04 508.536Z" fill="#52CCA7" stroke="#323433" stroke-width="1.06037" stroke-linecap="round" stroke-linejoin="round"/>
</svg>
