<svg width="808" height="746" viewBox="0 0 808 746" fill="none" xmlns="http://www.w3.org/2000/svg">
<path d="M530.165 497.891C528.237 496.852 526.666 494.811 526.07 492.393C525.336 489.758 526.473 487.811 526.909 485.368C527.6 481.936 527.084 478.079 524.443 475.83C523.363 474.911 521.495 475.531 521.453 477.204C521.494 478.747 521.783 479.897 521.906 481.309C522.123 483.303 521.639 484.8 521.21 486.647C520.655 488.988 520.586 491.141 521.265 493.427C522.52 498.014 525.419 500.583 529.328 501.7C531.522 502.463 531.973 498.827 530.165 497.891Z" fill="#F37C40"/>
<path d="M579.264 397.047C576.839 396.795 576.411 399.959 577.068 402.133C577.827 404.292 579.589 405.593 580.716 407.461C582.536 410.424 581.913 413.019 582.111 416.213C582.169 417.875 584.428 418.389 585.053 417.107C586.487 414.397 586.131 410.868 584.938 407.935C583.671 404.535 578.514 401.45 579.597 397.835C579.743 397.456 579.568 397.004 579.264 397.047Z" fill="#F37C40"/>
<path d="M626.475 545.723C625.322 542.694 632.509 535.677 633.792 532.862C635.315 529.512 635.663 525.986 635.244 522.216C634.672 518.099 629.439 519.59 630.538 523.742C632.213 529.78 627.859 534.593 624.853 538.561C622.906 541.115 621.946 544 623.251 547.374C624.218 549.815 627.441 548.163 626.475 545.723Z" fill="#F37C40"/>
<path d="M744.264 480.549C743.079 484.494 744.135 488.096 746.684 491.225C748.069 492.833 749.707 494.038 751.092 495.646C753.485 498.435 753.635 500.84 754.283 504.504C754.879 507.811 758.718 507.707 759.278 504.464C759.851 500.613 758.282 496.362 756.074 493.423C753.866 490.485 746.899 487.064 747.978 482.406C748.59 479.52 745.098 477.75 744.264 480.549Z" fill="#F37C40"/>
<path d="M750.516 362.634C750.336 360.717 753.364 357.939 754.274 356.34C755.268 354.606 755.921 352.682 756.353 350.67C757.283 346.393 757.192 341.545 755.048 337.621C754.054 335.83 751.767 337.277 752.03 339.06C752.839 344.527 753.813 348.996 751.442 354.103C750.013 357.12 746.981 359.169 747.544 362.972C747.895 365.349 750.748 364.908 750.516 362.634Z" fill="#F37C40"/>
<path d="M357.117 495.722C355.668 490.989 362.415 489.353 364.655 487.911C366.206 486.854 367.622 485.565 368.799 484.064C371.606 480.465 373.167 476.199 373.706 471.354C374.025 468.088 369.73 467.474 369.514 470.721C369.227 474.237 368.29 477.617 366.432 480.399C364.315 483.613 361.599 484.63 358.671 486.456C355.157 488.647 352.485 492.477 354.07 497.442C354.89 499.727 357.747 498.171 357.117 495.722Z" fill="#F37C40"/>
<path d="M263.306 221.499C262.056 226.833 264.069 231.385 267.089 235.804C272.689 243.879 274.376 249.531 271.319 258.744C270.259 262.173 274.933 265.435 276.637 262.157C279.212 257.354 279.48 251.092 277.793 245.44C276.821 242.161 275.323 239.42 273.342 236.861C270.281 232.8 265.105 229.016 266.357 223.095C266.89 220.793 263.838 219.197 263.306 221.499Z" fill="#F37C40"/>
<path d="M597.652 186.898C596.149 185.918 594.728 184.806 593.474 183.431C590.828 180.461 591.281 177.403 592.269 173.789C593.322 169.926 593.803 166.386 592.245 162.421C590.889 163.694 589.514 164.85 588.158 166.123C588.517 166.43 588.877 166.737 589.135 167.059C591.173 168.8 593.48 166.313 592.669 163.796C592.494 163.343 592.319 162.889 592.245 162.421C590.909 158.544 585.807 161.075 587.227 164.821C589.466 170.483 584.253 176.262 586.465 182.407C588.096 186.84 591.923 189.4 595.686 190.892C597.899 191.77 599.856 188.376 597.652 186.898Z" fill="#F37C40"/>
<path d="M622.912 448.047C623.028 452.423 624.806 455.317 627.536 458.305C629.378 460.213 631.186 461.881 632.198 464.53C633.158 466.82 633.147 468.897 634.497 471.003C635.574 472.665 637.782 472.074 638.372 470.394C639.721 466.765 637.752 462.558 635.855 459.561C633.291 455.57 627.537 453.301 627.077 448.003C626.881 445.226 622.818 445.255 622.912 448.047Z" fill="#F9C13D"/>
<path d="M560.777 554.244C558.134 543.375 569.162 538.281 573.633 531.185C576.647 526.448 578.477 519.176 574.946 514.052C573.385 511.829 570.243 513.354 570.644 516.271C572.299 526.809 566.44 530.658 561.101 537.527C557.182 542.541 555.202 548.719 557.074 555.49C557.834 557.973 561.332 556.761 560.777 554.244Z" fill="#F9C13D"/>
<path d="M428.356 214.913C428.89 219.938 431.641 223.038 434.666 226.583C436.682 228.946 438.238 231.016 438.119 234.44C438.077 236.27 437.792 237.166 438.888 238.942C439.436 239.83 440.543 240.267 441.46 240.125C441.562 240.109 441.765 240.077 441.867 240.062C442.886 239.904 443.968 238.763 444.081 237.408C444.063 237.289 444.046 237.17 444.13 237.036C444.218 234.104 441.186 232.627 439.531 234.829C439.447 234.964 439.345 234.98 439.363 235.098C440.364 234.822 441.449 234.411 442.451 234.134C442.331 234.031 442.212 233.928 442.092 233.825C442.609 235.204 443.143 236.702 443.761 238.066C444.643 234.159 444.457 230.783 442.367 227.215C439.592 222.537 433.257 219.87 432.109 214.21C431.332 211.776 428.054 212.162 428.356 214.913Z" fill="#F9C13D"/>
<path d="M735.316 229.128C734.575 221.41 740.257 220.073 743.207 214.842C745.146 211.401 746.203 206.117 743.828 202.536C742.489 200.398 740.046 201.683 739.612 203.873C739.074 206.828 739.968 209.54 738.221 212.077C736.918 214.041 734.868 215.135 733.447 216.995C730.792 220.557 729.958 225.18 730.59 229.804C731.278 233.298 735.679 232.552 735.316 229.128Z" fill="#F9C13D"/>
<path d="M775.632 396.05C771.611 401.87 779.191 407.984 775.68 413.727C773.848 416.792 767.981 420.713 771.763 425.104C772.79 426.401 774.353 426.406 775.295 425.051C776.507 423.413 777.055 421.513 778.267 419.874C779.581 418.221 780.691 416.598 781.204 414.461C781.734 412.442 781.822 410.249 781.298 408.148C780.704 405.574 777.024 401.168 778.519 398.639C779.965 396.48 777.096 394.01 775.632 396.05Z" fill="#F9C13D"/>
<path d="M218.539 432.549C220.581 437.068 225.462 438.389 227.3 442.938C229.606 448.503 223.943 452.966 226.84 458.322C227.995 460.441 231.698 460.853 231.619 457.609C231.533 451.592 234.755 447.494 232.24 441.237C229.917 435.554 224.348 435.179 221.744 430.382C220.589 428.264 217.569 430.282 218.539 432.549Z" fill="#F9C13D"/>
<path d="M338.031 531.091C337.634 527.422 341.77 524.729 343.28 521.982C344.704 519.375 345.79 515.828 344.948 512.734C344.56 511.43 342.787 511.481 342.442 512.785C341.975 514.732 342.138 516.697 341.569 518.661C340.828 520.904 339.459 522.381 338.209 523.963C336.513 526.118 335.142 528.343 335.472 531.525C335.636 533.489 338.297 533.038 338.031 531.091Z" fill="#F9C13D"/>
<path d="M407.351 308.021C407.708 305.544 409.92 303.633 410.977 301.656C411.883 300.065 412.449 298.283 412.793 296.414C413.464 292.558 413.089 287.286 410.64 284.146C408.842 281.877 405.917 283.896 406.87 286.779C408.378 291.273 410.269 294.86 408.298 299.762C407.162 302.599 404.914 304.273 404.58 307.594C404.457 309.551 407.126 309.992 407.351 308.021Z" fill="#F9C13D"/>
<path d="M536.929 416.6C536.003 420.292 536.981 423.439 539.369 426.24C540.631 427.752 542.352 428.824 543.784 430.065C546.511 432.323 546.753 433.997 546.541 437.576C546.443 439.059 547.23 440.89 548.438 441.31C548.66 441.398 548.881 441.485 549.102 441.572C550.634 442.063 552.401 441.294 552.515 439.198C552.76 435.124 552.377 431.761 549.852 428.737C547.071 425.387 539.277 423.442 540.214 417.669C540.413 415.437 537.349 414.455 536.929 416.6Z" fill="#52CCA7"/>
<path d="M602.053 287.502C600.314 282.231 606.852 279.149 609.588 276.752C612.033 274.534 613.747 271.56 614.1 267.815C614.593 263.538 608.716 262.82 608.736 267.005C608.611 272.485 602.987 274.515 600.412 278.152C598.184 281.219 597.161 285.465 598.809 289.229C599.868 291.704 602.923 290.138 602.053 287.502Z" fill="#52CCA7"/>
<path d="M214.002 319.825C215.077 322.946 217.454 324.832 220.475 325.542C221.966 325.969 223.812 325.979 225.054 327.022C226.493 328.223 226.735 329.985 228.398 330.955C230.115 332.026 232.341 331.234 232.27 329.142C232.289 326.133 229.5 322.815 226.82 321.445C225.553 320.789 224.207 320.419 222.73 320.236C221.345 320.01 218.986 320.115 218.23 318.469C217.143 315.978 213.046 317.148 214.002 319.825Z" fill="#52CCA7"/>
<path d="M596.773 480.923C599.372 480.322 601.175 477.438 600.799 474.48C600.423 471.522 598.012 469.611 595.413 470.211C592.814 470.812 591.012 473.696 591.387 476.654C591.763 479.612 594.175 481.523 596.773 480.923Z" fill="#52CCA7"/>
<path d="M511.158 453.055C512.832 452.668 513.994 450.809 513.752 448.902C513.51 446.996 511.956 445.764 510.281 446.151C508.606 446.538 507.444 448.397 507.686 450.304C507.929 452.21 509.483 453.441 511.158 453.055Z" fill="#52CCA7"/>
<path d="M726.952 378.306C728.627 377.919 729.789 376.06 729.547 374.153C729.305 372.247 727.75 371.015 726.076 371.402C724.401 371.789 723.239 373.648 723.481 375.554C723.724 377.461 725.278 378.692 726.952 378.306Z" fill="#52CCA7"/>
<path d="M222.915 479.518C224.07 479.251 224.871 477.969 224.704 476.654C224.537 475.34 223.465 474.49 222.31 474.757C221.155 475.024 220.354 476.306 220.521 477.621C220.688 478.935 221.76 479.785 222.915 479.518Z" fill="#52CCA7"/>
<path d="M405.264 519.898C407.805 519.311 409.567 516.491 409.2 513.598C408.832 510.706 406.474 508.837 403.933 509.424C401.392 510.012 399.63 512.832 399.997 515.724C400.365 518.616 402.722 520.485 405.264 519.898Z" fill="#52CCA7"/>
<path d="M279.618 365.267C282.623 363.65 283.719 359.742 282.067 356.539C280.414 353.336 276.639 352.05 273.634 353.668C270.629 355.286 269.533 359.194 271.185 362.397C272.838 365.6 276.613 366.885 279.618 365.267Z" fill="#52CCA7"/>
<path d="M552.727 223.614C556.019 222.853 558.302 219.2 557.826 215.453C557.35 211.706 554.296 209.285 551.004 210.046C547.712 210.806 545.429 214.46 545.905 218.207C546.381 221.954 549.435 224.374 552.727 223.614Z" fill="#52CCA7"/>
<path d="M518.656 535.297C520.215 534.936 521.296 533.206 521.071 531.431C520.845 529.656 519.398 528.509 517.839 528.87C516.28 529.23 515.198 530.961 515.424 532.735C515.649 534.51 517.096 535.657 518.656 535.297Z" fill="#E0E5F8"/>
<path d="M599.926 560.378C602.351 559.818 604.034 557.126 603.683 554.365C603.332 551.604 601.082 549.821 598.656 550.381C596.23 550.941 594.548 553.634 594.899 556.394C595.249 559.155 597.5 560.939 599.926 560.378Z" fill="#E0E5F8"/>
<path d="M641.611 495.816C643.517 495.376 644.838 493.26 644.563 491.091C644.287 488.922 642.519 487.52 640.613 487.961C638.707 488.401 637.385 490.516 637.661 492.686C637.937 494.855 639.705 496.256 641.611 495.816Z" fill="#E0E5F8"/>
<path d="M759.674 471.188C762.851 470.454 765.054 466.928 764.594 463.313C764.135 459.698 761.188 457.362 758.011 458.096C754.835 458.829 752.632 462.355 753.091 465.97C753.55 469.586 756.498 471.921 759.674 471.188Z" fill="#E0E5F8"/>
<path d="M773.083 321.044C774.296 320.764 775.137 319.418 774.961 318.038C774.786 316.657 773.661 315.765 772.448 316.045C771.235 316.326 770.394 317.672 770.569 319.052C770.745 320.433 771.87 321.324 773.083 321.044Z" fill="#E0E5F8"/>
<path d="M705.041 268.832C707.351 268.298 708.953 265.734 708.619 263.105C708.285 260.475 706.142 258.777 703.831 259.31C701.521 259.844 699.919 262.408 700.253 265.037C700.587 267.667 702.731 269.365 705.041 268.832Z" fill="#E0E5F8"/>
<path d="M661.166 314.276C663.36 313.769 664.882 311.333 664.565 308.835C664.248 306.337 662.211 304.723 660.017 305.23C657.822 305.737 656.3 308.173 656.617 310.671C656.935 313.169 658.971 314.783 661.166 314.276Z" fill="#E0E5F8"/>
<path d="M360.601 377.611C362.391 377.198 363.633 375.211 363.374 373.173C363.115 371.135 361.454 369.818 359.664 370.232C357.873 370.646 356.632 372.633 356.891 374.671C357.149 376.708 358.811 378.025 360.601 377.611Z" fill="#E0E5F8"/>
<path d="M369.302 254.763C371.555 254.243 373.117 251.743 372.791 249.179C372.466 246.616 370.376 244.96 368.123 245.48C365.871 246 364.309 248.5 364.635 251.064C364.96 253.627 367.05 255.284 369.302 254.763Z" fill="#E0E5F8"/>
<path d="M235.996 358.452C237.422 357.684 237.942 355.829 237.158 354.309C236.374 352.789 234.582 352.179 233.156 352.947C231.73 353.715 231.21 355.569 231.994 357.089C232.778 358.609 234.57 359.219 235.996 358.452Z" fill="#E0E5F8"/>
<path d="M308.915 387.492C310.086 386.861 310.514 385.338 309.869 384.089C309.225 382.84 307.753 382.339 306.582 382.97C305.411 383.6 304.983 385.124 305.627 386.373C306.272 387.621 307.743 388.122 308.915 387.492Z" fill="#F37C40"/>
<path d="M436.92 416.215C438.415 415.011 439.897 413.795 441.379 412.579C455.328 401.025 467.148 387.406 483.731 379.539C507.574 368.225 534.191 365.312 559.858 371.684C593.393 380.007 634.985 392.816 649.782 427.592C658.435 447.912 655.166 470.97 653.697 492.329C648.262 571.37 605.466 642.569 524.804 662.117C480.906 672.759 433.563 669.845 394.213 646.256C378.403 636.78 364.467 624.427 352.622 610.34C326.397 579.174 306.216 537.494 330.096 499.209C345.084 475.188 369.078 461.696 392.541 447.393C407.997 437.98 422.82 427.554 436.92 416.215Z" fill="#00B07A" stroke="#323433" stroke-width="2" stroke-miterlimit="10"/>
<path d="M559.165 557.156C565.816 559.208 572.518 561.78 578.637 564.985" stroke="#323433" stroke-width="2" stroke-miterlimit="10" stroke-linecap="round" stroke-linejoin="round"/>
<path d="M518.001 549.327C518.001 549.327 531.19 550.226 547.203 553.938" stroke="#323433" stroke-width="2" stroke-miterlimit="10" stroke-linecap="round" stroke-linejoin="round"/>
<path d="M526.603 547.299C526.603 547.299 564.458 525.281 610.154 542.929" stroke="#323433" stroke-width="2" stroke-miterlimit="10" stroke-linecap="round" stroke-linejoin="round"/>
<path d="M339.471 609.402C339.471 609.402 328.829 618.359 317.224 625.809C302.161 626.822 308.914 645.04 308.914 645.04L321.811 653.325C321.811 653.325 343.842 635.817 355.864 630.129C367.887 624.44 339.471 609.402 339.471 609.402Z" fill="white"/>
<path opacity="0.3" d="M446.459 417.698C446.459 417.698 448.524 397.263 451.818 391.511L501.835 381.287V377.411C501.835 377.411 500.682 370.671 511.831 366.452C522.979 362.233 546.214 367.719 552.194 372.254C558.186 376.79 555.994 384.594 555.994 384.594C555.994 384.594 576.15 394.805 585.209 398.694C594.267 402.584 606.847 410.096 606.847 410.096C606.847 410.096 610.939 457.06 610.141 467.968C609.343 478.875 610.787 489.137 609.862 495.18C608.925 501.223 608.19 504.657 601.843 509.8C595.496 514.944 589.757 522.532 573.135 515.007L575.454 513.17L466.071 476.392L446.459 417.698Z" fill="#323433"/>
<path d="M446.459 417.698C446.459 417.698 448.524 397.263 451.818 391.511L501.835 381.287V377.411C501.835 377.411 500.682 370.671 511.831 366.452C522.979 362.233 546.214 367.719 552.194 372.254C558.186 376.79 555.994 384.594 555.994 384.594C555.994 384.594 576.15 394.805 585.209 398.694C594.267 402.584 606.847 410.096 606.847 410.096C606.847 410.096 610.939 457.06 610.141 467.968C609.343 478.875 610.787 489.137 609.862 495.18C608.925 501.223 608.19 504.657 601.843 509.8C595.496 514.944 589.757 522.532 573.135 515.007L575.454 513.17L466.071 476.392L446.459 417.698Z" fill="#F9C13D"/>
<path opacity="0.4" d="M517.61 363.234C517.61 363.234 505.727 366.528 503.801 370.519C501.876 374.497 502.078 384.607 502.078 384.607C502.078 384.607 505.322 393.576 514.861 402.191L523.729 384.607L522.931 404.56C522.931 404.56 539.756 401.76 546.888 396.376C554.021 390.992 554.021 390.992 554.021 390.992C554.021 390.992 557.087 380.895 556.656 377.436C556.225 373.977 543.341 367.022 543.341 367.022L517.61 363.234Z" fill="white"/>
<path d="M319.671 670.72C320.001 669.985 314.794 660.8 318.86 651.438C322.94 642.075 329.439 645.686 329.439 645.686C329.439 645.686 347.948 633.904 355.727 630.192C363.505 626.467 371.879 620.589 371.879 620.589L380.102 631.662L372.5 655.175L319.671 670.72Z" fill="#F9C13D"/>
<path d="M330.125 645.116L306.358 659.647C306.358 659.647 289.648 648.929 281.679 641.518C273.698 634.119 255.873 618.372 255.873 618.372L244.496 603.03C244.496 603.03 252.402 593.249 265.577 601.104C282.604 611.265 303.368 625.948 317.228 625.808C317.215 625.808 314.492 642.823 330.125 645.116Z" fill="#F9C13D"/>
<path d="M521.634 301.816C521.634 301.816 511.325 319.197 509.374 324.48C507.411 329.763 505.342 336.516 505.747 340.278C506.153 344.041 510.08 364.197 512.12 364.78L514.033 366.946L512.804 375.485C512.804 375.485 521.241 390.079 546.047 379.374C546.047 379.374 547.01 362.335 550.025 357.001C553.04 351.655 557.55 358.015 562.06 342.571C566.571 327.128 552.179 310.962 552.179 310.962L521.634 301.816Z" fill="white"/>
<path opacity="0.5" d="M254.756 598.254C254.756 598.254 266.969 600.369 270.934 607.603C274.9 614.837 282.514 628.291 285.111 634.791C287.708 641.29 309.207 656.986 309.207 656.986L306.357 659.634C306.357 659.634 288.874 648.828 278.32 638.553C267.78 628.279 244.495 602.434 244.495 602.434C244.495 602.434 246.154 600.775 254.756 598.254Z" fill="white"/>
<path opacity="0.5" d="M377.086 627.582L380.102 631.649L370.803 650.931L319.659 669.313L317.289 661.826C317.289 661.826 316.504 654.199 334.456 648.46C352.407 642.709 363.353 638.87 368.459 634.905C373.577 630.914 377.086 627.582 377.086 627.582Z" fill="white"/>
<path d="M545.934 484.373C545.934 484.373 561.592 482.017 568.902 494.838C576.212 507.646 575.465 513.195 575.465 513.195C575.465 513.195 565.127 522.595 550.9 522.114C536.673 521.633 515.934 505.239 509.181 499.931C502.429 494.623 485.402 479.433 473.785 482.574L472.505 471.591C472.505 471.591 473.633 466.662 483.578 467.993C493.523 469.323 497.412 474.986 500.605 474.986C503.797 474.986 506.838 471.907 513.311 482.904C513.311 482.891 535.9 486.895 545.934 484.373Z" fill="white"/>
<path d="M524.311 333.774C523.981 335.826 523.512 337.853 522.892 339.842C522.588 340.805 522.246 341.781 521.561 342.516C520.371 343.833 518.445 344.112 516.684 344.378C516.393 344.416 516.076 344.479 515.898 344.707C515.734 344.91 515.708 345.201 515.708 345.467C515.708 347.444 516.317 349.42 517.419 351.067" stroke="#323433" stroke-width="2" stroke-miterlimit="10" stroke-linecap="round" stroke-linejoin="round"/>
<path opacity="0.1" d="M366.581 614.495L377.096 627.582C377.096 627.582 365.567 638.237 353.62 642.177C341.686 646.129 320.795 653.604 317.299 659.33L318.642 652.451C318.642 652.451 351.302 632.409 358.815 627.62C366.327 622.844 366.581 614.495 366.581 614.495Z" fill="#323433"/>
<path opacity="0.1" d="M330.125 645.116L309.209 656.999C309.209 656.999 298.909 649.955 293.816 644.71C288.723 639.465 282.515 633.739 278.677 622.058C273.369 605.931 258.166 598.254 258.166 598.254C258.166 598.254 279.31 608.199 290.319 616.028C301.329 623.845 312.059 627.101 318.292 626.569C318.292 626.569 313.288 642.405 330.125 645.116Z" fill="#323433"/>
<path d="M533.242 333.028C533.242 333.028 538.031 330.558 541.451 335.853" stroke="#323433" stroke-width="2" stroke-miterlimit="10" stroke-linecap="round" stroke-linejoin="round"/>
<path d="M520.979 329.734C520.979 329.734 515.924 325.389 512.984 329.734" stroke="#323433" stroke-width="2" stroke-miterlimit="10" stroke-linecap="round" stroke-linejoin="round"/>
<path d="M550.79 340.291C550.79 340.291 553.869 335.743 557.099 335.882C560.33 336.034 561.648 340.582 560.469 344.978C559.291 349.387 554.452 355.544 550.778 354.961C547.104 354.379 545.495 352.022 545.495 352.022" stroke="#323433" stroke-width="2" stroke-miterlimit="10" stroke-linecap="round" stroke-linejoin="round"/>
<path d="M521.271 305.489C517.8 308.353 514.151 311.494 512.34 315.726C510.794 319.324 510.439 323.302 509.033 326.963C507.526 330.852 505.866 334.932 505.739 339.176C505.625 343.04 506.499 347.056 507.272 350.819C507.931 354.074 508.45 357.432 509.616 360.561C511.314 365.109 514.481 367.909 518.712 370.062C521.791 371.633 526.922 373.888 530.253 371.76C532.192 370.519 535.106 366.87 537.525 363.538" stroke="#323433" stroke-width="2" stroke-miterlimit="10" stroke-linecap="round" stroke-linejoin="round"/>
<path d="M550.787 354.974C550.787 354.974 545.34 368.327 546.657 377.727" stroke="#323433" stroke-width="2" stroke-miterlimit="10" stroke-linecap="round" stroke-linejoin="round"/>
<path d="M549.19 377.423C549.19 377.423 540.652 383.035 524.79 383.276L522.94 404.547C522.94 404.547 540.766 403.192 554.043 390.979C554.043 390.979 557.628 381.49 556.678 377.423C555.727 373.344 547.239 369.302 547.239 369.302" stroke="#323433" stroke-width="2" stroke-miterlimit="10" stroke-linecap="round" stroke-linejoin="round"/>
<path d="M513.315 367.909L512.808 375.485C518.573 381.389 524.793 383.289 524.793 383.289L514.861 402.191C514.861 402.191 503.028 392.968 501.837 383.289C501.837 383.289 501.736 373.356 503.801 370.531C505.853 367.694 513.391 366.363 513.391 366.363" stroke="#323433" stroke-width="2" stroke-miterlimit="10" stroke-linecap="round" stroke-linejoin="round"/>
<path d="M573.146 515.02C589.59 523.558 595.469 514.779 604.641 507.507C613.813 500.235 607.808 487.275 609.696 466.397C611.596 445.531 606.845 410.109 606.845 410.109C606.845 410.109 602.741 409.159 591.351 402.191C579.962 395.223 555.993 384.606 555.993 384.606" stroke="#323433" stroke-width="2" stroke-miterlimit="10" stroke-linecap="round" stroke-linejoin="round"/>
<path d="M556.83 483.474C556.83 483.474 559.44 475.201 566.826 474.973C574.199 474.745 585.829 478.077 594.102 493.761" stroke="#323433" stroke-width="2" stroke-miterlimit="10" stroke-linecap="round" stroke-linejoin="round"/>
<path d="M568.498 474.492C568.954 474.505 569.398 474.327 569.829 474.175C575.859 471.996 582.561 471.692 588.756 473.326" stroke="#323433" stroke-width="2" stroke-miterlimit="10" stroke-linecap="round" stroke-linejoin="round"/>
<path d="M592.998 421.409C579.594 436.232 573.045 455.843 566.85 474.846" stroke="#323433" stroke-width="2" stroke-miterlimit="10" stroke-linecap="round" stroke-linejoin="round"/>
<path d="M501.836 381.3C501.836 381.3 477.512 387.102 465.628 388.483C453.745 389.864 451.819 391.524 451.819 391.524L449.615 399.809" stroke="#323433" stroke-width="2" stroke-miterlimit="10" stroke-linecap="round" stroke-linejoin="round"/>
<path d="M388.474 395.755L471.329 398.935L478.094 484.133H463.905L391.971 468.031L382.925 397.795L388.474 395.755Z" fill="white"/>
<path d="M473.785 484.374L466.539 402.191L382.924 397.795L391.97 468.031L473.785 484.374Z" stroke="#323433" stroke-width="2" stroke-miterlimit="10" stroke-linecap="round" stroke-linejoin="round"/>
<path d="M418.139 437.611C417.574 432.605 419.33 428.297 422.062 427.988C424.795 427.679 427.469 431.487 428.034 436.493C428.6 441.499 426.843 445.808 424.111 446.116C421.379 446.425 418.705 442.617 418.139 437.611Z" fill="#323433"/>
<path d="M391.969 468.031C391.969 468.031 353.684 466.941 341.712 474.846C329.739 482.752 322.721 522.393 324.368 543.448C326.015 564.504 340.47 612.823 340.47 612.823L368.139 581.442C368.139 581.442 381.77 531.894 374.334 512.486C374.334 512.486 411.086 514.551 425.541 510.002C425.541 510.002 438.502 488.782 460.723 481.764L391.969 468.031Z" fill="#323433"/>
<path d="M334.63 613.646C346.323 603.055 357.599 588.486 360.956 583.305C374.347 562.616 392.856 542.714 411.897 527.27C427.252 514.817 430.723 494.547 449.65 484.386C480.993 467.575 508.104 500.982 518.239 507.748C528.375 514.5 545.934 522.127 545.934 522.127C545.934 522.127 539.536 546.147 520.71 549.048C501.884 551.949 482.83 538.913 473.785 545.197C464.726 551.455 458.113 579.466 428.367 595.872C404.055 609.276 370.926 622.363 353.836 631.167C350.01 633.144 347.197 635.221 345.044 636.4C339.14 639.618 332.831 643.418 326.877 647.156L306.366 659.647C306.366 659.647 285.779 647.472 277.874 636.248C276.809 634.74 274.63 630.724 272.578 626.847C268.093 618.385 262.468 610.783 254.601 606.552C249.179 603.638 244.339 602.739 244.504 602.447C245.023 601.484 254.854 596.455 261.531 599.204C275.669 605.032 303.921 627.481 317.223 625.821C317.21 625.809 326.902 620.64 334.63 613.646Z" stroke="#323433" stroke-width="2" stroke-miterlimit="10"/>
<path d="M334.634 613.646C346.961 618.625 351.927 626.303 353.827 631.155C370.917 622.35 404.046 609.263 428.358 595.859C458.104 579.441 464.717 551.442 473.776 545.184C482.834 538.9 501.888 551.936 520.701 549.035C539.527 546.134 545.912 522.101 545.912 522.101C545.912 522.101 528.353 514.487 518.218 507.735C508.083 500.982 484.709 467.549 449.629 484.374C430.246 493.66 427.23 514.817 411.876 527.258C392.834 542.701 374.325 562.604 360.934 583.292C357.602 588.473 346.365 603.093 334.634 613.646Z" fill="#323433"/>
<path d="M427.266 506.24C427.266 506.24 436.755 486.958 451.971 483.221" stroke="white" stroke-width="2" stroke-miterlimit="10" stroke-linecap="round" stroke-linejoin="round"/>
<path d="M477.005 467.853C487.469 465.573 498.96 477.14 503.799 474.973C507.397 473.364 513.313 482.891 513.313 482.891C513.313 482.891 528.63 485.26 542.73 484.373C556.831 483.487 563.507 486.223 568.499 493.774L575.467 512.22C575.467 512.22 557.097 528.714 537.46 519.099C517.824 509.496 491.751 480.585 473.787 480.687" stroke="#323433" stroke-width="2" stroke-miterlimit="10" stroke-linecap="round" stroke-linejoin="round"/>
<path d="M330.918 644.622C330.918 644.622 313.726 646.041 317.768 625.504" stroke="#323433" stroke-width="2" stroke-miterlimit="10"/>
<path d="M249.965 612.823C251.27 615.408 266.992 628.761 280.561 640.479C280.523 640.302 276.811 633.144 275.176 630.091C271.578 623.351 262.254 604.867 244.492 602.435C241.971 603.955 249.965 612.823 249.965 612.823Z" fill="#323433"/>
<path d="M256.719 598.393C274.671 601.978 278.738 624.972 285.123 634.803C291.495 644.634 309.219 657.911 309.219 657.911" stroke="#323433" stroke-width="2" stroke-miterlimit="10"/>
<path d="M318.873 652.02C315.959 657.379 317.34 663.574 318.873 667.464C320.165 670.732 321.686 673 321.686 673C347.099 668.819 372.513 655.175 372.513 655.175L379.063 634.905L380.102 631.661L370.233 618.372" stroke="#323433" stroke-width="2" stroke-miterlimit="10"/>
<path d="M318.871 667.464C320.163 670.732 321.683 673 321.683 673C347.097 668.819 372.511 655.175 372.511 655.175L379.061 634.905C375.779 639.187 369.698 645.458 360.577 648.042C348.199 651.526 325.357 655.631 318.871 667.464Z" fill="#323433"/>
<path d="M478.094 481.168L471.329 398.935L388.474 395.755L382.925 397.795" stroke="#323433" stroke-width="2" stroke-miterlimit="10" stroke-linecap="round" stroke-linejoin="round"/>
<path d="M317.949 634.791C317.949 634.791 306.623 636.805 297.92 629.711C289.216 622.616 275.192 606.565 275.192 606.565" stroke="#323433" stroke-width="2" stroke-miterlimit="10"/>
<path d="M306.356 624.554C306.356 624.554 309.093 628.672 306.356 636.944" stroke="#323433" stroke-width="2" stroke-miterlimit="10" stroke-linecap="round" stroke-linejoin="round"/>
<path d="M298.324 620.64C298.324 620.64 300.516 626.797 297.298 633.03" stroke="#323433" stroke-width="2" stroke-miterlimit="10" stroke-linecap="round" stroke-linejoin="round"/>
<path d="M288.758 615.091C288.758 615.091 291.051 621.97 288.758 628.038" stroke="#323433" stroke-width="2" stroke-miterlimit="10" stroke-linecap="round" stroke-linejoin="round"/>
<path d="M367.999 616.649L377.096 627.582C377.096 627.582 367.936 637.578 355.039 641.721C342.142 645.876 319.06 652.933 317.159 660.445" stroke="#323433" stroke-width="2" stroke-miterlimit="10"/>
<path d="M566.79 304.091C571.398 313.768 571.202 352.628 546.545 367.942L550.571 355.928C550.571 355.928 561.249 349.293 560.702 340.972C558.893 330.238 552.095 339.275 550.571 339.979C549.725 340.369 549.404 329.323 546.545 323.137C543.686 316.952 524.221 304.091 513.417 315.709C510.053 315.709 503.453 310.763 506.349 305.993C504.134 300.883 512.824 284.29 523.896 287.595C534.968 290.9 537.275 295.519 545.021 298.668C552.767 301.818 556.946 292.536 566.79 304.091Z" fill="#323433"/>
<ellipse rx="30.8831" ry="32.4677" transform="matrix(0.993092 0.115806 -0.157909 0.986791 583.029 593.138)" fill="#F37C40" stroke="#323433" stroke-width="1.74534"/>
<path d="M585.898 571.374L565.195 607.304L567.483 609.479L584.024 603.291L570.449 602.667L588.224 582.882L585.898 571.374Z" fill="white" stroke="#323433" stroke-width="1.74534"/>
<path d="M594.074 608.767L591.505 609.016L583.358 594.66L590.996 586.621L594.074 608.767Z" fill="white" stroke="#323433" stroke-width="1.74534"/>
<path d="M658.66 376.497C657.944 376.158 657.19 375.888 656.406 375.689C653.226 374.875 649.697 375.382 645.818 377.21C640.87 379.549 636.797 383.347 633.599 388.604C630.402 393.862 629.019 399.047 629.449 404.162C629.775 408.176 631.149 411.213 633.572 413.272C634.116 413.764 634.715 414.192 635.361 414.551L636.125 414.945C639.853 416.716 644.123 416.473 648.933 414.215C653.883 411.893 657.961 408.098 661.169 402.829C664.376 397.56 665.759 392.374 665.319 387.271C664.907 382.298 662.896 378.815 659.288 376.821L658.66 376.497Z" fill="#F9C13D" stroke="#323433" stroke-width="0.995252"/>
<path d="M628.615 385.408C625.467 390.581 624.101 395.667 624.515 400.665C624.926 405.574 626.922 409.002 630.505 410.95L635.018 413.274C634.386 412.923 633.799 412.503 633.265 412.022C630.892 410.003 629.546 407.026 629.228 403.091C628.802 398.088 630.163 392.999 633.311 387.826C636.459 382.652 640.462 378.924 645.321 376.642C649.124 374.849 652.586 374.347 655.707 375.137C656.476 375.331 657.215 375.595 657.917 375.926L653.287 373.542C653.207 373.494 653.124 373.451 653.038 373.413C649.431 371.739 645.297 372.003 640.636 374.205C635.762 376.512 631.755 380.247 628.615 385.408Z" fill="#F37C40" stroke="#323433" stroke-width="0.995252"/>
<path d="M690.539 575.059L693.257 565.798L702.907 566.115L705.625 556.854L715.268 557.171L717.986 547.91" stroke="#323433" stroke-width="1.74" stroke-linecap="round" stroke-linejoin="round"/>
<path d="M686.006 529L681 534.006L686.006 539.013L691.013 534.006L686.006 529Z" stroke="#323433" stroke-width="1.74" stroke-linecap="round" stroke-linejoin="round"/>
<path d="M676.374 493.141C676.501 493.155 676.629 493.16 676.757 493.157C682.242 493.193 687.054 490.901 691.192 486.28C695.489 481.458 697.785 475.522 698.081 468.472C698.377 461.422 696.579 455.316 692.687 450.156C688.864 445.1 684.139 442.404 678.513 442.07L671.49 441.779C672.49 441.848 673.483 442.01 674.454 442.261C678.688 443.273 682.33 445.804 685.378 449.853C689.283 454.998 691.089 461.104 690.797 468.171C690.504 475.237 688.199 481.173 683.883 485.977C680.511 489.749 676.672 491.97 672.369 492.64C671.31 492.807 670.239 492.885 669.167 492.873L676.374 493.141Z" fill="#53599A" stroke="#323433"/>
<path d="M668.237 492.804L669.161 492.842C670.233 492.854 671.304 492.776 672.362 492.609C676.666 491.943 680.504 489.722 683.877 485.946C688.194 481.125 690.498 475.19 690.79 468.139C691.082 461.089 689.276 454.983 685.372 449.822C682.324 445.764 678.683 443.234 674.448 442.23C673.477 441.978 672.484 441.817 671.483 441.748L670.316 441.699C665.291 441.63 660.829 443.486 656.928 447.268C656.4 460.031 655.83 472.952 655.22 486.033C658.811 490.21 663.15 492.467 668.237 492.804Z" fill="#F9C13D" stroke="#323433"/>
<path d="M668.671 480.781L667.906 480.673L667.457 483.843L662.425 483.129L662.874 479.96L657.24 479.161L657.953 474.129L660.304 474.462L662.487 459.058L660.137 458.725L660.851 453.687L666.485 454.486L666.934 451.316L671.966 452.029L671.516 455.199L672.282 455.307C674.301 455.595 676.124 456.672 677.349 458.303C678.575 459.934 679.103 461.984 678.819 464.004C678.581 465.898 677.618 467.626 676.132 468.824C677.227 470.39 677.672 472.32 677.373 474.207C677.085 476.227 676.007 478.049 674.377 479.275C672.746 480.501 670.696 481.03 668.676 480.745L668.671 480.781ZM665.335 475.175L669.384 475.749C669.724 475.799 670.07 475.781 670.403 475.696C670.736 475.611 671.048 475.461 671.323 475.255C671.597 475.049 671.828 474.79 672.002 474.494C672.176 474.198 672.289 473.87 672.336 473.53C672.434 472.862 672.269 472.183 671.875 471.635C671.481 471.087 670.89 470.713 670.226 470.594L666.068 470.004L665.335 475.175ZM672.771 465.04C673.046 464.84 673.277 464.586 673.451 464.294C673.624 464.001 673.736 463.676 673.78 463.339C673.832 463.003 673.814 462.66 673.729 462.331C673.644 462.001 673.492 461.693 673.283 461.424C673.082 461.151 672.827 460.921 672.535 460.747C672.243 460.574 671.919 460.461 671.582 460.415L667.533 459.841L666.804 464.982L670.962 465.571C671.611 465.635 672.259 465.445 672.771 465.04Z" fill="white" stroke="#323433" stroke-linecap="round" stroke-linejoin="round"/>
</svg>
