<svg width="734" height="556" viewBox="0 0 734 556" fill="none" xmlns="http://www.w3.org/2000/svg">
<path d="M515.964 365.782C525.418 368.569 536.419 362.086 540.535 351.302C544.651 340.518 540.323 329.517 530.869 326.73C521.414 323.944 510.413 330.427 506.298 341.211C502.182 351.995 506.509 362.996 515.964 365.782Z" fill="#E0E5F8"/>
<path d="M160.678 126.154C168.232 128.38 177.021 123.2 180.31 114.584C183.598 105.968 180.14 97.179 172.587 94.9527C165.033 92.7264 156.243 97.9063 152.955 106.522C149.666 115.138 153.124 123.928 160.678 126.154Z" fill="#E0E5F8"/>
<path d="M487.772 204.292C504.976 209.362 524.993 197.565 532.482 177.943C539.971 158.321 532.097 138.303 514.893 133.233C497.69 128.163 477.673 139.96 470.184 159.582C462.694 179.204 470.569 199.222 487.772 204.292Z" fill="#E0E5F8"/>
<path d="M91.7754 431.891L344.585 506.381C394.812 521.18 450.361 511.723 467.554 488.707C508.217 434.265 474.168 400.662 462.533 364.304C450.899 327.945 503.053 329.667 521.045 264.146C530.256 230.433 503.27 189.213 458.067 193.375C412.776 197.51 414.246 177.079 410.662 133.62C406.328 83.0607 325.219 32.3216 242.312 96.6469C159.493 160.998 186.921 236.294 170.14 263.152C153.309 289.882 105.56 292.165 81.5617 346.218C67.6316 377.525 67.0687 409.049 91.7754 431.891Z" fill="#E0E5F8"/>
<path d="M282.323 299.608C281.292 298.105 280.969 295.952 281.558 293.859C282.135 291.546 283.85 290.444 285.242 288.703C287.258 286.286 288.53 283.103 287.476 280.404C287.045 279.299 285.342 279.107 284.586 280.392C283.95 281.605 283.673 282.603 283.157 283.744C282.461 285.372 281.441 286.361 280.313 287.641C278.873 289.259 277.889 290.908 277.421 292.929C276.4 296.945 277.514 299.988 280.031 302.266C281.386 303.65 283.306 300.988 282.323 299.608Z" fill="#F37C40"/>
<path d="M366.716 245.244C364.963 244.172 363.268 246.473 362.834 248.399C362.484 250.349 363.275 251.996 363.333 253.855C363.451 256.813 361.852 258.602 360.625 261.154C359.951 262.465 361.463 263.681 362.497 262.912C364.768 261.326 366.02 258.457 366.37 255.749C366.865 252.651 364.239 248.391 366.631 245.976C366.907 245.735 366.968 245.32 366.716 245.244Z" fill="#F37C40"/>
<path d="M334.77 382.198C335.148 379.442 343.64 376.767 345.81 375.092C348.39 373.097 350.136 370.524 351.392 367.476C352.675 364.106 348.008 363.278 347.118 366.876C345.882 372.135 340.503 374.186 336.518 376.097C333.944 377.322 331.994 379.172 331.588 382.251C331.313 384.485 334.494 384.433 334.77 382.198Z" fill="#F37C40"/>
<path d="M485.971 327.169C483.382 329.779 482.662 332.947 483.292 336.301C483.673 338.052 484.42 339.585 484.801 341.336C485.457 344.369 484.548 346.281 483.489 349.348C482.541 352.121 485.538 353.453 487.347 351.156C489.427 348.394 490.027 344.535 489.579 341.454C489.131 338.373 485.227 333.168 488.037 329.969C489.736 327.967 487.803 325.315 485.971 327.169Z" fill="#F37C40"/>
<path d="M510.191 272.26C510.867 270.714 514.377 269.687 515.756 268.788C517.257 267.817 518.577 266.573 519.764 265.18C522.297 262.222 524.286 258.448 524.304 254.63C524.3 252.882 521.926 253.156 521.371 254.629C519.671 259.145 518.521 262.952 514.528 266.019C512.146 267.82 508.944 268.284 507.761 271.425C507.021 273.389 509.403 274.1 510.191 272.26Z" fill="#F37C40"/>
<path d="M149.87 218.025C150.681 213.873 156.611 215.271 158.948 215.054C160.59 214.86 162.223 214.437 163.756 213.761C167.42 212.132 170.387 209.511 172.794 206.052C174.383 203.703 171.288 201.56 169.787 203.934C168.121 206.485 166.004 208.679 163.415 210.06C160.446 211.667 157.912 211.375 154.881 211.614C151.244 211.9 147.591 213.757 146.789 218.136C146.491 220.187 149.356 220.125 149.87 218.025Z" fill="#F37C40"/>
<path d="M256.221 72.2053C252.918 75.9218 252.468 80.1924 252.851 84.7188C253.613 93.0182 252.428 98.031 246.032 104.13C243.711 106.428 245.874 110.642 248.624 108.691C252.714 105.861 255.669 101.07 256.853 96.0573C257.545 93.1514 257.596 90.4788 257.196 87.7749C256.624 83.5129 254.305 78.7137 257.868 74.5394C259.288 72.9328 257.642 70.5987 256.221 72.2053Z" fill="#F37C40"/>
<path d="M449.612 134.359C448.88 133.054 448.269 131.677 447.898 130.155C447.145 126.892 448.809 124.685 451.124 122.24C453.596 119.626 455.49 117.054 456.001 113.414C454.411 113.909 452.858 114.307 451.268 114.803C451.412 115.172 451.556 115.54 451.616 115.883C452.431 117.973 455.273 116.88 455.734 114.634C455.795 114.219 455.856 113.803 456.001 113.414C456.644 109.922 451.637 110.036 451.114 113.455C450.396 118.659 443.904 121.251 442.956 126.82C442.3 130.849 444.136 134.223 446.383 136.744C447.704 138.228 450.669 136.304 449.612 134.359Z" fill="#F37C40"/>
<path d="M376.588 305.65C374.825 309.064 374.968 311.952 375.804 315.266C376.415 317.418 377.1 319.373 376.758 321.788C376.527 323.908 375.639 325.504 375.787 327.627C375.912 329.306 377.862 329.668 379.028 328.592C381.603 326.295 381.868 322.325 381.677 319.313C381.394 315.289 377.924 311.41 379.814 307.158C380.839 304.946 377.699 303.463 376.588 305.65Z" fill="#F9C13D"/>
<path d="M280.379 358.344C282.877 349.023 293.532 349.291 299.954 345.548C304.264 343.062 308.717 338.185 308.129 332.928C307.85 330.635 304.784 330.615 303.875 333C300.752 341.694 294.614 342.426 287.615 345.667C282.49 348.024 278.378 352.006 276.995 357.899C276.545 360.087 279.757 360.481 280.379 358.344Z" fill="#F9C13D"/>
<path d="M334.333 53.6413C332.61 57.7149 333.409 61.1214 334.231 64.9714C334.778 67.5382 335.097 69.7087 333.551 72.3059C332.741 73.7027 332.141 74.2885 332.23 76.0628C332.275 76.95 332.941 77.6949 333.706 77.9235C333.792 77.9489 333.962 77.9997 334.047 78.0251C334.898 78.2791 336.215 77.7982 336.877 76.7943C336.914 76.6961 336.951 76.5979 337.073 76.5251C338.386 74.2953 336.68 72.0384 334.472 73.127C334.35 73.1998 334.265 73.1744 334.228 73.2726C335.116 73.4284 336.125 73.5114 337.013 73.6671C336.965 73.5435 336.917 73.4199 336.869 73.2963C336.68 74.5509 336.455 75.9037 336.351 77.1837C338.689 74.4951 339.98 71.8217 339.887 68.2984C339.739 63.6661 335.998 59.2725 337.518 54.4828C337.955 52.3191 335.269 51.4082 334.333 53.6413Z" fill="#F9C13D"/>
<path d="M523.317 168.303C525.966 162.116 530.919 163.244 535.385 160.358C538.32 158.458 541.345 154.815 541.003 151.175C540.86 149.031 538.434 149.09 537.184 150.602C535.534 152.66 535.094 155.074 532.683 156.354C530.855 157.364 528.813 157.425 526.937 158.31C523.397 160.032 520.822 163.254 519.38 167.032C518.453 169.966 522.169 171.062 523.317 168.303Z" fill="#F9C13D"/>
<path d="M549.539 275.689C543.967 278.71 547.19 286.216 542.043 289.363C539.329 291.059 533.147 291.934 534.184 296.714C534.421 298.094 535.621 298.671 536.922 297.97C538.552 297.15 539.783 295.883 541.413 295.062C543.128 294.267 544.673 293.421 545.977 291.958C547.245 290.593 548.247 288.931 548.74 287.116C549.38 284.909 548.428 280.154 550.655 278.749C552.687 277.613 551.534 274.651 549.539 275.689Z" fill="#F9C13D"/>
<path d="M147.546 155.428C147.182 159.671 150.368 162.477 149.834 166.668C149.225 171.816 142.965 173.2 142.9 178.402C142.882 180.463 145.55 182.135 146.877 179.596C149.385 174.91 153.614 172.916 154.358 167.156C155.004 161.91 150.885 159.586 150.936 154.923C150.954 152.862 147.771 153.32 147.546 155.428Z" fill="#F9C13D"/>
<path d="M118.393 236.295C119.617 233.338 123.94 232.842 126.255 231.312C128.445 229.856 130.765 227.553 131.406 224.866C131.651 223.722 130.257 223.09 129.446 223.957C128.272 225.27 127.578 226.835 126.318 228.123C124.809 229.558 123.133 230.171 121.506 230.908C119.295 231.915 117.305 233.099 116.232 235.658C115.539 237.224 117.786 237.886 118.393 236.295Z" fill="#F9C13D"/>
<path d="M294.642 115.347C295.972 113.565 298.487 112.9 300.143 111.76C301.518 110.864 302.712 109.695 303.773 108.377C305.932 105.644 307.891 101.434 307.346 98.1093C306.931 95.6957 303.822 96.1823 303.326 98.7593C302.569 102.784 302.495 106.251 298.89 109.314C296.808 111.089 294.366 111.558 292.694 114C291.765 115.467 293.629 116.788 294.642 115.347Z" fill="#F9C13D"/>
<path d="M324.705 241.188C322.43 243.687 321.853 246.473 322.507 249.516C322.84 251.148 323.712 252.613 324.29 254.099C325.435 256.849 324.914 258.228 323.237 260.906C322.534 262.011 322.366 263.714 323.119 264.485C323.252 264.635 323.386 264.784 323.52 264.933C324.492 265.88 326.178 265.943 327.152 264.371C329.063 261.324 330.191 258.593 329.525 255.328C328.8 251.716 323.619 247.327 326.783 243.23C327.88 241.584 325.936 239.691 324.705 241.188Z" fill="#52CCA7"/>
<path d="M436.322 171.137C437.144 166.457 443.498 166.642 446.614 165.877C449.429 165.137 451.989 163.538 453.808 160.828C455.956 157.767 451.684 154.95 449.973 158.139C447.614 162.256 442.406 161.625 438.904 163.394C435.906 164.864 433.359 167.697 433.087 171.195C432.889 173.486 435.91 173.476 436.322 171.137Z" fill="#52CCA7"/>
<path d="M214.154 37.0516C212.622 39.8076 212.748 42.4994 214.091 44.7754C214.7 45.9504 215.817 47.0538 215.843 48.4992C215.879 50.1688 214.791 51.5074 215.124 53.154C215.419 54.9 217.331 55.6847 218.754 54.2237C220.874 52.1941 221.5 48.2861 220.827 45.7653C220.515 44.5673 219.955 43.5172 219.183 42.5156C218.498 41.5395 216.987 40.2092 217.68 38.6439C218.764 36.3087 215.448 34.6679 214.154 37.0516Z" fill="#52CCA7"/>
<path d="M341.72 318.143C343.914 318.79 346.465 317.286 347.42 314.785C348.374 312.284 347.37 309.732 345.177 309.086C342.983 308.439 340.431 309.942 339.477 312.444C338.523 314.945 339.527 317.497 341.72 318.143Z" fill="#52CCA7"/>
<path d="M288.418 256.624C289.831 257.041 291.476 256.072 292.091 254.46C292.706 252.848 292.059 251.204 290.645 250.787C289.232 250.371 287.587 251.339 286.972 252.951C286.357 254.563 287.004 256.208 288.418 256.624Z" fill="#52CCA7"/>
<path d="M484.309 273.329C485.722 273.745 487.367 272.776 487.982 271.164C488.597 269.553 487.949 267.908 486.536 267.491C485.122 267.075 483.478 268.044 482.863 269.655C482.248 271.267 482.895 272.912 484.309 273.329Z" fill="#52CCA7"/>
<path d="M129.548 193.005C130.523 193.292 131.657 192.624 132.081 191.512C132.506 190.4 132.059 189.266 131.084 188.979C130.11 188.691 128.975 189.36 128.551 190.471C128.127 191.583 128.574 192.717 129.548 193.005Z" fill="#52CCA7"/>
<path d="M175.42 258.946C177.564 259.579 180.059 258.109 180.993 255.663C181.926 253.217 180.944 250.722 178.799 250.09C176.655 249.458 174.16 250.928 173.226 253.373C172.293 255.819 173.275 258.314 175.42 258.946Z" fill="#52CCA7"/>
<path d="M219.635 110.934C222.51 111.782 225.856 109.81 227.107 106.531C228.359 103.252 227.042 99.906 224.166 99.0582C221.29 98.2104 217.945 100.182 216.693 103.461C215.442 106.74 216.759 110.086 219.635 110.934Z" fill="#52CCA7"/>
<path d="M416.604 119.122C419.382 119.941 422.614 118.037 423.823 114.869C425.032 111.701 423.76 108.468 420.982 107.649C418.203 106.83 414.971 108.735 413.762 111.903C412.553 115.071 413.826 118.303 416.604 119.122Z" fill="#52CCA7"/>
<path d="M255.84 323.726C257.156 324.114 258.687 323.212 259.26 321.711C259.833 320.21 259.23 318.679 257.914 318.291C256.598 317.903 255.067 318.805 254.494 320.306C253.922 321.807 254.524 323.338 255.84 323.726Z" fill="#E0E5F8"/>
<path d="M307.075 381.059C309.122 381.663 311.503 380.259 312.394 377.925C313.285 375.591 312.348 373.209 310.3 372.605C308.253 372.002 305.872 373.405 304.981 375.74C304.09 378.074 305.028 380.456 307.075 381.059Z" fill="#E0E5F8"/>
<path d="M369.384 350.559C370.992 351.033 372.863 349.93 373.563 348.096C374.263 346.262 373.527 344.391 371.918 343.916C370.31 343.442 368.438 344.545 367.739 346.379C367.039 348.213 367.775 350.085 369.384 350.559Z" fill="#E0E5F8"/>
<path d="M503.038 326.467C505.719 327.257 508.838 325.42 510.004 322.363C511.171 319.306 509.943 316.187 507.262 315.396C504.581 314.606 501.463 316.444 500.296 319.501C499.13 322.558 500.357 325.677 503.038 326.467Z" fill="#E0E5F8"/>
<path d="M546.655 250.55C547.678 250.852 548.869 250.15 549.314 248.983C549.76 247.816 549.291 246.625 548.267 246.323C547.244 246.021 546.053 246.723 545.608 247.89C545.162 249.057 545.631 250.248 546.655 250.55Z" fill="#E0E5F8"/>
<path d="M480.991 184.84C482.941 185.415 485.209 184.079 486.057 181.855C486.906 179.632 486.013 177.364 484.063 176.789C482.114 176.214 479.845 177.551 478.997 179.774C478.149 181.997 479.042 184.265 480.991 184.84Z" fill="#E0E5F8"/>
<path d="M425.847 199.515C427.699 200.061 429.854 198.792 430.66 196.68C431.466 194.567 430.618 192.413 428.766 191.867C426.914 191.321 424.759 192.59 423.953 194.702C423.147 196.814 423.995 198.969 425.847 199.515Z" fill="#E0E5F8"/>
<path d="M259.099 132.313C260.61 132.759 262.368 131.723 263.025 130C263.683 128.277 262.991 126.519 261.48 126.073C259.969 125.628 258.211 126.664 257.554 128.387C256.896 130.11 257.588 131.868 259.099 132.313Z" fill="#E0E5F8"/>
<path d="M287.384 70.9907C289.285 71.5511 291.496 70.2481 292.324 68.0804C293.151 65.9128 292.28 63.7012 290.379 63.1409C288.478 62.5805 286.267 63.8835 285.44 66.0511C284.613 68.2188 285.483 70.4303 287.384 70.9907Z" fill="#E0E5F8"/>
<path d="M198.675 76.7339C200.04 77.1363 201.628 76.2008 202.221 74.6445C202.815 73.0882 202.19 71.5004 200.826 71.0981C199.461 70.6958 197.873 71.6312 197.279 73.1875C196.685 74.7438 197.31 76.3316 198.675 76.7339Z" fill="#E0E5F8"/>
<path d="M220.127 145.414C221.248 145.745 222.552 144.976 223.04 143.698C223.528 142.419 223.014 141.115 221.893 140.784C220.772 140.454 219.468 141.222 218.98 142.501C218.492 143.779 219.006 145.084 220.127 145.414Z" fill="#F37C40"/>
<path d="M463.742 360.656L466.46 351.395L476.11 351.712L478.828 342.451L488.471 342.768L491.189 333.507" stroke="#323433" stroke-width="1.74" stroke-linecap="round" stroke-linejoin="round"/>
<path d="M483.352 237.752L491.506 245.285" stroke="#323433" stroke-width="1.74" stroke-linecap="round" stroke-linejoin="round"/>
<path d="M483.662 245.595L491.189 237.441" stroke="#323433" stroke-width="1.74" stroke-linecap="round" stroke-linejoin="round"/>
<path d="M459.209 314.597L454.203 319.603L459.209 324.61L464.216 319.603L459.209 314.597Z" stroke="#323433" stroke-width="1.74" stroke-linecap="round" stroke-linejoin="round"/>
<path d="M724.592 338.076L718.987 338.652L716.133 338.937C716.109 338.318 715.847 337.731 715.402 337.3C714.858 336.802 714.263 336.2 713.687 335.598L714.619 328.913V328.867L713.92 329.553L710.82 332.459L710.898 332.543L706.905 336.484L706.717 336.329C706.137 335.851 705.683 335.239 705.394 334.545C705.105 333.851 704.991 333.097 705.06 332.349C705.532 327.062 706.419 322.842 707.228 318.195L664.476 278.944C663.237 277.792 661.635 277.105 659.946 277.003C652.857 276.627 645.872 276.377 638.99 276.252V246.029C646.756 246.172 654.827 246.43 663.285 246.806C667.439 246.983 671.359 248.776 674.209 251.802C695.631 274.524 711.098 291.927 729.005 312.895C729.289 313.224 729.555 313.567 729.801 313.924C731.582 316.477 732.414 319.572 732.151 322.674L731.413 331.443C731.272 333.123 730.548 334.701 729.366 335.903C728.184 337.105 726.618 337.855 724.941 338.025L724.592 338.076Z" fill="#FBFBFB"/>
<path d="M716.132 338.937C716.144 339.78 715.976 340.616 715.641 341.39C715.562 341.584 715.439 341.757 715.282 341.895C715.124 342.033 714.936 342.132 714.733 342.183C714.53 342.235 714.318 342.238 714.113 342.193C713.909 342.147 713.718 342.054 713.557 341.921L706.91 336.478L710.903 332.537C711.207 332.886 712.398 334.252 713.686 335.591C714.262 336.193 714.857 336.795 715.401 337.293C715.848 337.726 716.11 338.315 716.132 338.937Z" fill="#FBFBFB"/>
<path d="M714.625 328.86L714.618 328.906L713.926 329.546L714.625 328.86Z" fill="#FBFBFB"/>
<path d="M714.617 328.906L713.685 335.585C712.391 334.245 711.207 332.879 710.902 332.53L713.925 329.54L714.617 328.906Z" fill="#FBFBFB"/>
<path d="M713.926 329.547L710.904 332.537L710.826 332.452L713.926 329.547Z" fill="#FBFBFB"/>
<path d="M525.774 403.538C537.898 400.6 550.911 397.89 564.812 395.409L570.248 428.849C535.67 434.369 513.821 439.08 483.404 445.805C477.886 447.028 472.114 446.306 467.067 443.763C462.019 441.219 458.006 437.01 455.706 431.847C453.406 426.684 452.96 420.885 454.445 415.431C455.93 409.977 459.253 405.204 463.853 401.92C489.423 383.67 509.31 371.457 538.453 351.44L609.182 345.292C624.714 356.482 643.256 370.914 663.693 388.239C668.592 392.39 671.829 398.169 672.811 404.514C673.793 410.86 672.454 417.347 669.039 422.785C651.358 450.95 639.612 470.591 620.223 504.84L588.078 483.981C603.474 457.816 617.446 434.835 629.154 418.209C629.439 417.806 629.635 417.346 629.727 416.861C629.82 416.376 629.807 415.877 629.69 415.397C629.573 414.917 629.354 414.468 629.048 414.08C628.742 413.692 628.357 413.374 627.918 413.148C613.272 405.576 602.781 398.91 590.88 391.144L590.757 391.067C587.566 388.983 584.285 386.828 580.771 384.556C578.128 382.843 575.056 381.906 571.906 381.852C568.757 381.798 565.655 382.63 562.954 384.252C551.707 390.976 539.527 396.988 525.774 403.538Z" fill="#228567"/>
<path d="M638.99 276.271V279.889C631.871 277.468 622.234 276.517 611.485 276.478C613.388 300.618 612.132 318.292 609.181 345.298L538.451 351.466C531.514 325.747 529.139 308.306 526.899 285.875C514.92 288.192 504.074 291.641 496.482 295.673L496.023 292.192L492.004 262.014C511.814 257.438 529.87 253.879 547.745 251.284L541.441 255.885L556.398 254.688L572.946 277.449L579.527 252.695L595.493 249.582L590.186 246.922C605.46 246.003 621.438 245.718 639.009 246.029L638.99 276.271ZM554.592 303.006C555.695 302.87 556.76 302.519 557.727 301.972C558.694 301.425 559.544 300.693 560.228 299.817C560.912 298.941 561.416 297.939 561.713 296.869C562.01 295.798 562.093 294.679 561.957 293.576L560.74 283.701L542.464 285.946L543.681 295.822C543.815 296.925 544.166 297.991 544.713 298.959C545.26 299.926 545.992 300.776 546.868 301.46C547.744 302.144 548.746 302.649 549.817 302.945C550.888 303.241 552.007 303.324 553.11 303.187L554.592 303.006Z" fill="#53599A"/>
<path d="M630.194 532.804C632.201 538.175 632.641 543.903 628.965 549.922L572.014 511.525C572.874 510.03 573.742 508.554 574.602 507.072L619.076 536.557C622.436 534.45 626.245 533.164 630.194 532.804Z" fill="#004357"/>
<path d="M619.71 512.677C620.232 514.167 620.881 515.609 621.651 516.987C624.24 521.815 628.123 527.109 630.22 532.804C626.262 533.16 622.443 534.446 619.076 536.558L574.576 507.085C579.178 499.183 583.682 491.463 588.076 484.001L620.221 504.859L620.04 505.183C618.726 507.487 618.823 509.991 619.71 512.677Z" fill="#FBFBFB"/>
<path d="M590.774 391.164L601.724 451.998C593.874 452.736 588.975 450.277 585.545 446.711C587.622 443.403 590.556 440.719 594.036 438.945L585.59 391.953L590.774 391.164Z" fill="#004357"/>
<path d="M595.493 249.588L579.527 252.701L580.388 242.075L590.167 246.942L595.493 249.588Z" fill="#004357"/>
<path d="M577.185 433.1C576.507 431.916 575.631 430.857 574.596 429.968C573.997 429.466 573.293 429.104 572.537 428.908C571.78 428.712 570.989 428.687 570.221 428.835L564.785 395.396C571.49 394.197 578.417 393.049 585.566 391.953L594.07 438.931C590.59 440.706 587.656 443.39 585.579 446.697C581.566 442.556 579.554 436.938 577.185 433.1Z" fill="#FBFBFB"/>
<path d="M590.756 391.073L590.879 391.151H590.775L590.756 391.073Z" fill="#FBFBFB"/>
<path d="M589.5 215.482C590.698 219.864 581.922 223.061 581.922 223.061L580.388 242.075L579.527 252.701L572.946 277.455L556.397 254.688L558.229 243.615L559.588 235.415C542.541 232.49 553.265 204.545 555.899 195.588C563.866 198.481 578.045 194.941 582.323 198.72C587.501 203.309 580.725 215.074 580.725 215.074C580.725 215.074 585.863 212.369 588.348 213.864C588.637 214.045 588.888 214.281 589.086 214.558C589.283 214.836 589.424 215.15 589.5 215.482ZM571.651 212.085C571.794 210.92 571.269 209.904 570.486 209.807C569.703 209.709 568.946 210.577 568.81 211.748C568.674 212.919 569.192 213.929 569.975 214.02C570.758 214.11 571.515 213.269 571.651 212.085ZM557.672 209.696C557.964 208.674 557.672 207.684 556.948 207.483C556.223 207.283 555.459 207.956 555.161 208.985C554.864 210.014 555.194 210.997 555.886 211.198C556.579 211.399 557.381 210.725 557.672 209.696Z" fill="#FBFBFB"/>
<path d="M581.923 186.767C592.717 189.188 596.911 201.652 588.349 213.871C585.864 212.376 580.725 215.081 580.725 215.081C580.725 215.081 587.508 203.315 582.324 198.727C578.046 194.947 563.866 198.488 555.9 195.595C554.284 195.073 552.859 194.082 551.81 192.747C546.225 185.169 555.602 175.998 562.164 179.389C568.727 182.781 572.92 184.748 581.923 186.767Z" fill="#323433"/>
<path d="M570.485 209.807C571.269 209.904 571.78 210.92 571.65 212.085C571.521 213.25 570.764 214.11 569.974 214.026C569.185 213.942 568.68 212.92 568.809 211.755C568.939 210.59 569.696 209.716 570.485 209.807Z" fill="#323433"/>
<path d="M561.943 293.577C562.217 295.802 561.597 298.045 560.218 299.813C558.84 301.581 556.816 302.73 554.591 303.006L553.109 303.188C552.006 303.324 550.887 303.242 549.816 302.946C548.745 302.649 547.743 302.145 546.867 301.461C545.991 300.777 545.259 299.927 544.712 298.959C544.165 297.992 543.814 296.926 543.68 295.823L542.463 285.947L560.739 283.701L561.943 293.577Z" fill="#004357"/>
<path d="M558.227 243.621L556.396 254.694L541.439 255.885L547.743 251.284L558.227 243.621Z" fill="#004357"/>
<path d="M556.947 207.483C557.639 207.684 557.963 208.674 557.672 209.696C557.38 210.719 556.584 211.392 555.885 211.198C555.187 211.004 554.869 210.007 555.161 208.985C555.452 207.962 556.254 207.289 556.947 207.483Z" fill="#323433"/>
<path d="M413.418 197.09L414.803 197.88C415.438 198.247 415.974 198.765 416.362 199.388C416.75 200.011 416.979 200.72 417.029 201.452C417.392 206.979 418.971 211.205 421.967 216.02C422.873 211.173 423.909 207.108 426.879 206.144C427.066 206.086 427.265 206.073 427.458 206.106C427.651 206.139 427.834 206.217 427.991 206.333C428.149 206.45 428.276 206.602 428.364 206.777C428.452 206.952 428.498 207.145 428.497 207.341C428.497 212.046 429.617 217.508 431.494 223.391C432.872 227.744 435.425 231.632 438.871 234.626L473.204 264.312C473.816 264.844 474.547 265.22 475.336 265.409C476.125 265.599 476.947 265.595 477.734 265.399C482.614 264.208 487.37 263.076 492.037 262.002L496.023 292.224C489.668 293.648 483.196 295.158 476.608 296.755C474.292 297.322 471.87 297.285 469.573 296.647C467.276 296.009 465.181 294.791 463.49 293.111C446.657 276.343 432.924 259.607 419.333 239.803C418.11 237.545 413.34 233.06 408.978 229.203C406.416 226.962 404.459 224.112 403.29 220.916C402.12 217.719 401.775 214.279 402.287 210.914C403.031 206.073 403.846 201.685 404.714 196.314C404.779 195.878 404.95 195.465 405.211 195.111C405.473 194.756 405.817 194.471 406.213 194.279C406.61 194.088 407.048 193.997 407.488 194.013C407.928 194.029 408.357 194.152 408.739 194.372L409.341 194.715L413.418 197.09Z" fill="#FBFBFB"/>
<path d="M713.687 335.591L714.619 328.906L714.625 328.861L714.903 326.822L712.664 326.583" stroke="#323433" stroke-width="2.61" stroke-linecap="round" stroke-linejoin="round"/>
<path d="M406.705 211.975C407.482 204.422 407.999 199.679 409.339 194.767" stroke="#323433" stroke-width="2.61" stroke-linecap="round" stroke-linejoin="round"/>
<path d="M412 212.441C412.356 205.865 412.647 201.4 413.417 197.096" stroke="#323433" stroke-width="2.61" stroke-linecap="round" stroke-linejoin="round"/>
<path d="M716.132 338.937L718.987 338.652L724.591 338.076L724.947 338.044C726.624 337.874 728.189 337.124 729.371 335.922C730.553 334.72 731.278 333.142 731.419 331.462L732.156 322.693C732.419 319.591 731.588 316.496 729.807 313.943C729.558 313.593 729.29 313.256 729.005 312.934C711.117 291.978 695.63 274.563 674.209 251.84C671.369 248.815 667.462 247.015 663.317 246.825C654.858 246.45 646.788 246.178 639.022 246.048C621.451 245.738 605.472 246.048 590.199 246.941" stroke="#323433" stroke-width="2.61" stroke-linecap="round" stroke-linejoin="round"/>
<path d="M547.744 251.284C529.869 253.873 511.813 257.438 492.003 262.014C487.337 263.088 482.581 264.221 477.701 265.412C476.914 265.608 476.091 265.611 475.303 265.422C474.514 265.233 473.783 264.856 473.171 264.324L438.87 234.626C435.412 231.631 432.85 227.738 431.467 223.378C429.59 217.495 428.438 212.033 428.47 207.328C428.471 207.132 428.426 206.939 428.338 206.764C428.25 206.588 428.122 206.436 427.964 206.32C427.807 206.203 427.624 206.126 427.431 206.093C427.238 206.06 427.04 206.073 426.852 206.131C423.895 207.095 422.846 211.159 421.94 216.006C418.912 211.192 417.365 206.946 417.003 201.439C416.953 200.711 416.727 200.006 416.344 199.386C415.96 198.766 415.431 198.248 414.802 197.879L413.417 197.09L409.34 194.734L408.738 194.391C408.357 194.171 407.927 194.048 407.487 194.032C407.047 194.015 406.609 194.107 406.213 194.298C405.816 194.49 405.472 194.775 405.211 195.129C404.949 195.484 404.778 195.897 404.713 196.332C403.846 201.704 403.03 206.092 402.286 210.933C401.774 214.291 402.115 217.723 403.278 220.915C404.44 224.106 406.387 226.954 408.939 229.196C413.32 233.079 418.09 237.538 419.294 239.797C432.929 259.626 446.637 276.362 463.482 293.124C465.177 294.805 467.275 296.022 469.576 296.658C471.877 297.293 474.303 297.327 476.62 296.754C483.208 295.136 489.68 293.626 496.035 292.224" stroke="#323433" stroke-width="2.61" stroke-linecap="round" stroke-linejoin="round"/>
<path d="M638.99 276.271C645.893 276.392 652.879 276.642 659.946 277.022C661.635 277.124 663.237 277.811 664.476 278.963L707.228 318.214C706.419 322.861 705.532 327.081 705.06 332.368C704.99 333.118 705.106 333.873 705.396 334.568C705.686 335.263 706.141 335.877 706.723 336.355L706.911 336.51L713.557 341.953C713.719 342.086 713.91 342.179 714.114 342.225C714.319 342.27 714.531 342.267 714.734 342.216C714.937 342.164 715.125 342.065 715.282 341.927C715.44 341.789 715.563 341.616 715.641 341.422C715.977 340.649 716.145 339.812 716.133 338.969C716.109 338.35 715.847 337.763 715.402 337.332C714.858 336.834 714.263 336.232 713.687 335.63C712.393 334.29 711.208 332.925 710.904 332.575L710.826 332.491L713.926 329.585L714.619 328.938" stroke="#323433" stroke-width="2.61" stroke-linecap="round" stroke-linejoin="round"/>
<path d="M726.512 325.968C726.311 330.063 725.66 334.123 724.57 338.076" stroke="#323433" stroke-width="2.61" stroke-linecap="round" stroke-linejoin="round"/>
<path d="M720.981 326.259C720.779 330.452 720.106 334.609 718.975 338.652" stroke="#323433" stroke-width="2.61" stroke-linecap="round" stroke-linejoin="round"/>
<path d="M495.531 411.873C504.963 408.905 515.043 406.126 525.774 403.538C537.897 400.599 550.91 397.89 564.811 395.409C571.516 394.21 578.443 393.062 585.592 391.966L590.769 391.177H590.873" stroke="#323433" stroke-width="2.61" stroke-linecap="round" stroke-linejoin="round"/>
<path d="M590.755 391.073V391.164L601.706 451.998C593.855 452.736 588.956 450.277 585.526 446.711C581.546 442.582 579.533 436.964 577.165 433.12C576.487 431.936 575.611 430.877 574.576 429.988C573.977 429.486 573.273 429.124 572.516 428.928C571.76 428.732 570.969 428.707 570.201 428.855" stroke="#323433" stroke-width="2.61" stroke-linecap="round" stroke-linejoin="round"/>
<path d="M585.591 391.947L594.069 438.931C590.59 440.706 587.655 443.39 585.578 446.698" stroke="#323433" stroke-width="2.61" stroke-linecap="round" stroke-linejoin="round"/>
<path d="M577.495 426.94L574.621 429.968" stroke="#323433" stroke-width="2.61" stroke-linecap="round" stroke-linejoin="round"/>
<path d="M580.7 429.393L577.186 433.101" stroke="#323433" stroke-width="2.61" stroke-linecap="round" stroke-linejoin="round"/>
<path d="M538.451 351.466L609.181 345.299" stroke="#323433" stroke-width="2.61" stroke-linecap="round" stroke-linejoin="round"/>
<path d="M492.006 262.014L496.024 292.224L496.484 295.706C504.069 291.674 514.915 288.224 526.901 285.908C529.14 308.339 531.515 325.78 538.453 351.498C509.33 371.49 489.423 383.702 463.854 401.978C459.291 405.276 456.003 410.044 454.542 415.481C453.08 420.917 453.534 426.691 455.828 431.832C458.121 436.973 462.114 441.169 467.136 443.713C472.158 446.257 477.903 446.996 483.405 445.804C513.822 439.08 535.67 434.369 570.249 428.836L564.812 395.396" stroke="#323433" stroke-width="2.61" stroke-linecap="round" stroke-linejoin="round"/>
<path d="M638.991 246.048V279.889C631.872 277.468 622.235 276.517 611.486 276.478C613.389 300.618 612.133 318.292 609.182 345.298C624.714 356.488 643.256 370.92 663.693 388.245C668.592 392.396 671.829 398.175 672.811 404.521C673.793 410.866 672.454 417.353 669.039 422.791C651.358 450.956 639.612 470.597 620.223 504.846L620.042 505.169C618.747 507.486 618.825 509.991 619.711 512.677C620.233 514.167 620.883 515.609 621.653 516.987C624.242 521.815 628.125 527.109 630.222 532.804C632.228 538.175 632.668 543.903 628.992 549.921L572.041 511.525C572.901 510.03 573.769 508.554 574.629 507.072C579.231 499.17 583.735 491.449 588.129 483.987C603.526 457.822 617.498 434.841 629.205 418.215C629.491 417.812 629.687 417.353 629.779 416.867C629.872 416.382 629.859 415.883 629.742 415.403C629.624 414.923 629.406 414.474 629.1 414.086C628.794 413.698 628.409 413.381 627.969 413.154C613.324 405.583 602.833 398.917 590.932 391.151L590.809 391.073C587.618 388.989 584.337 386.834 580.823 384.562C578.179 382.849 575.108 381.912 571.958 381.858C568.808 381.804 565.707 382.636 563.006 384.258C551.758 390.976 539.579 396.988 525.826 403.525" stroke="#323433" stroke-width="2.61" stroke-linecap="round" stroke-linejoin="round"/>
<path d="M630.194 532.804C626.236 533.16 622.417 534.446 619.05 536.558L574.576 507.085" stroke="#323433" stroke-width="2.61" stroke-linecap="round" stroke-linejoin="round"/>
<path d="M620.228 504.846L588.076 483.988L588.012 483.949" stroke="#323433" stroke-width="2.61" stroke-linecap="round" stroke-linejoin="round"/>
<path d="M616.281 517.984L621.627 516.987" stroke="#323433" stroke-width="2.61" stroke-linecap="round" stroke-linejoin="round"/>
<path d="M615.473 513.46L619.712 512.677" stroke="#323433" stroke-width="2.61" stroke-linecap="round" stroke-linejoin="round"/>
<path d="M556.399 254.688L558.231 243.615L559.59 235.415C542.543 232.49 553.267 204.545 555.901 195.588" stroke="#323433" stroke-width="2.61" stroke-linecap="round" stroke-linejoin="round"/>
<path d="M579.528 252.701L580.389 242.075L581.923 223.061C581.923 223.061 590.698 219.864 589.501 215.482C589.346 214.814 588.931 214.234 588.349 213.871C585.864 212.376 580.725 215.081 580.725 215.081C580.725 215.081 587.508 203.315 582.324 198.727C578.046 194.947 563.866 198.488 555.9 195.595C554.284 195.073 552.859 194.082 551.81 192.747C546.225 185.169 555.602 175.998 562.164 179.389C568.727 182.781 572.907 184.748 581.91 186.767C592.704 189.188 596.898 201.652 588.336 213.871" stroke="#323433" stroke-width="2.61" stroke-linecap="round" stroke-linejoin="round"/>
<path d="M563.431 208.364C561.677 212.835 560.364 214.719 557.607 216.265C557.29 216.448 557.058 216.748 556.959 217.1C556.929 217.219 556.914 217.341 556.914 217.463C556.914 217.778 557.022 218.083 557.22 218.328C557.418 218.573 557.694 218.742 558.001 218.809L561.354 219.521" stroke="#323433" stroke-width="2.61" stroke-linecap="round" stroke-linejoin="round"/>
<path d="M571.65 212.085C571.514 213.243 570.764 214.111 569.974 214.027C569.185 213.942 568.68 212.92 568.809 211.755C568.939 210.59 569.696 209.729 570.485 209.813C571.275 209.898 571.793 210.92 571.65 212.085Z" stroke="#323433" stroke-width="2.61" stroke-linecap="round" stroke-linejoin="round"/>
<path d="M557.672 209.696C557.38 210.725 556.584 211.392 555.885 211.198C555.187 211.004 554.869 210.007 555.161 208.985C555.452 207.962 556.254 207.289 556.947 207.483C557.639 207.677 557.963 208.674 557.672 209.696Z" stroke="#323433" stroke-width="2.61" stroke-linecap="round" stroke-linejoin="round"/>
<path d="M558.227 243.622L547.743 251.284L541.439 255.885L556.396 254.695L572.944 277.456L579.526 252.701L595.491 249.589L590.165 246.942L580.386 242.075" stroke="#323433" stroke-width="2.61" stroke-linecap="round" stroke-linejoin="round"/>
<path d="M554.591 303.006L553.109 303.188C552.006 303.324 550.887 303.242 549.816 302.946C548.745 302.649 547.743 302.145 546.867 301.461C545.991 300.777 545.259 299.927 544.712 298.959C544.165 297.992 543.814 296.926 543.68 295.823L542.463 285.947L560.739 283.701L561.956 293.577C562.092 294.68 562.009 295.798 561.712 296.869C561.415 297.94 560.911 298.942 560.227 299.817C559.543 300.693 558.693 301.425 557.726 301.973C556.759 302.52 555.694 302.871 554.591 303.006V303.006Z" stroke="#323433" stroke-width="2.61" stroke-linecap="round" stroke-linejoin="round"/>
<path d="M259.002 240.328C255.577 241.917 252.532 244.221 250.071 247.084L248.408 244.981C247.249 243.512 256.051 236.567 257.209 238.062L259.002 240.328Z" fill="white"/>
<path d="M122.48 466.637L105.284 539.787L99.2656 538.376L115.626 465.323L122.48 466.637Z" fill="white"/>
<path d="M156.242 507.9L150.825 548.342L144.8 547.533L149.874 506.347L156.242 507.9Z" fill="white"/>
<path d="M237.224 483.257L236.538 490.511C236.522 490.683 236.469 490.85 236.382 490.999C236.295 491.147 236.176 491.275 236.034 491.373C235.892 491.471 235.73 491.536 235.56 491.564C235.389 491.591 235.215 491.581 235.049 491.534C217.44 486.622 194.653 481.199 169.219 475.859C193.611 478.04 216.864 480.551 237.224 483.257Z" fill="white"/>
<path d="M339.826 290.93L342.215 294.619L315.079 309.886C320.936 324.324 321.55 336.077 317.59 356.747C316.819 360.778 316.569 364.891 316.845 368.985C296.686 373.885 276.19 376.784 258.716 377.489C259.065 376.577 259.283 375.621 259.364 374.648C260.088 362.947 247.967 348.988 247.967 348.988L214.314 372.655L211.46 368.183L196.031 343.998C206.91 336.594 217.686 329.016 228.856 320.901C234.18 317.033 239.787 313.572 245.631 310.546L247.824 309.407C257.409 316.215 271.524 325.017 285.121 314.306C291.353 309.394 287.25 299.421 282.726 293.816C284.11 292.957 285.282 291.798 286.156 290.425C291.334 287.985 296.679 285.474 302.388 282.847C304.743 281.76 307.062 280.601 309.345 279.371C315.389 276.136 320.994 273.075 326.359 270.143L339.826 290.93Z" fill="#F37C40"/>
<path d="M270.67 430.699L271.097 439.307L261.047 435.489L270.67 430.699Z" fill="#323433"/>
<path d="M178.79 513.557C167.969 522.527 164.998 549.702 150.825 548.317L156.242 507.875C164.532 509.933 171.929 511.797 178.79 513.557Z" fill="#323433"/>
<path d="M144.484 505.235C127.043 504.076 122.17 543.133 105.285 539.787L122.481 466.657C130.247 468.093 137.967 469.563 145.513 471.045C144.342 476.869 141.954 488.868 141.177 493.275C140.582 496.627 141.721 501.261 144.484 505.235Z" fill="#323433"/>
<path d="M280.493 476.772L314.676 481.063C313.181 491.307 311.551 501.222 309.557 512.023C309.087 514.59 308.112 517.037 306.688 519.224C305.263 521.41 303.419 523.291 301.262 524.759C299.104 526.226 296.677 527.25 294.12 527.772C291.563 528.293 288.929 528.301 286.369 527.795C279.69 526.501 273.341 525.206 267.193 524.054C268.236 522.43 269.036 520.662 269.568 518.806C273.756 504.225 277.121 491.236 280.499 476.791L280.493 476.772Z" fill="white"/>
<path d="M270.909 511.363C264.618 528.739 251.61 529.451 240.582 528.034C234.758 527.29 227.218 526.151 218.863 524.746C226.804 527.089 235.101 529.587 244.524 532.428C248.7 533.685 253.173 533.544 257.262 532.025C261.351 530.506 264.831 527.694 267.175 524.015C268.218 522.39 269.018 520.622 269.55 518.766C270.236 516.372 270.902 514.018 271.55 511.706C271.504 511.719 270.961 511.363 270.909 511.363Z" fill="#323433"/>
<path d="M237.223 483.256L238.349 471.491L280.493 476.778C277.115 491.223 273.75 504.212 269.562 518.793C268.828 521.342 267.595 523.72 265.936 525.789C264.276 527.859 262.222 529.579 259.894 530.849C257.564 532.117 255.005 532.909 252.367 533.181C249.729 533.454 247.063 533.2 244.523 532.435C219.439 524.87 202.282 519.705 178.79 513.589C171.93 511.803 164.552 509.939 156.242 507.907L149.874 506.354L146.587 505.565C145.896 505.397 145.192 505.289 144.483 505.241C141.72 501.261 140.6 496.634 141.176 493.268C141.953 488.861 144.341 476.888 145.512 471.038C153.608 472.636 161.536 474.274 169.218 475.866C194.652 481.198 217.439 486.622 235.049 491.553C235.215 491.601 235.389 491.611 235.559 491.583C235.729 491.555 235.891 491.49 236.034 491.392C236.176 491.295 236.295 491.167 236.382 491.018C236.469 490.869 236.522 490.703 236.537 490.531L237.223 483.256Z" fill="white"/>
<path d="M237.223 483.256L238.349 471.491L280.493 476.778C277.115 491.223 273.75 504.212 269.562 518.793C268.828 521.342 267.595 523.72 265.936 525.789C264.276 527.859 262.222 529.579 259.894 530.849C257.564 532.117 255.005 532.909 252.367 533.181C249.729 533.454 247.063 533.2 244.523 532.435C219.439 524.87 202.282 519.705 178.79 513.589C171.93 511.803 164.552 509.939 156.242 507.907L149.874 506.354L146.587 505.565C145.896 505.397 145.192 505.289 144.483 505.241C141.72 501.261 140.6 496.634 141.176 493.268C141.953 488.861 144.341 476.888 145.512 471.038C153.608 472.636 161.536 474.274 169.218 475.866C194.652 481.198 217.439 486.622 235.049 491.553C235.215 491.601 235.389 491.611 235.559 491.583C235.729 491.555 235.891 491.49 236.034 491.392C236.176 491.295 236.295 491.167 236.382 491.018C236.469 490.869 236.522 490.703 236.537 490.531L237.223 483.256Z" fill="white"/>
<path d="M282.726 293.765C287.256 299.343 291.353 309.342 285.121 314.254C271.53 324.965 257.409 316.163 247.824 309.355L254.296 306.029L255.791 287.862L256.438 279.973C253.364 276.291 253.429 272.207 255.144 270.266C256.555 268.628 257.584 270.117 258.198 271.696C262.004 267.949 269.31 266.68 280.079 267.004C282.766 267.147 285.453 266.747 287.981 265.826C288.104 272.537 288.098 278.336 287.884 284.86C287.825 286.817 287.237 288.723 286.182 290.373C285.3 291.749 284.119 292.909 282.726 293.765Z" fill="white"/>
<path d="M83.6045 393.986C83.4363 393.449 83.2745 392.886 83.1127 392.323C82.984 391.896 82.9859 391.44 83.1183 391.015C83.2507 390.589 83.5075 390.213 83.8555 389.934C84.2036 389.656 84.627 389.488 85.0713 389.452C85.5156 389.417 85.9605 389.515 86.3485 389.734C93.0274 393.546 100.397 395.994 108.029 396.937C110.652 397.298 113.319 396.737 115.575 395.351C146.671 376.299 171.614 360.572 196.031 343.966L211.479 368.183C198.439 373.865 140.536 399.247 132.194 405.674C126.234 410.275 122.415 422.099 120.416 430.137C120.255 430.758 119.906 431.314 119.417 431.728C118.927 432.142 118.321 432.394 117.682 432.45C117.043 432.505 116.403 432.361 115.849 432.037C115.296 431.713 114.856 431.226 114.591 430.642C113.175 427.507 112.227 424.182 111.776 420.772C111.597 419.254 110.97 417.824 109.975 416.664C108.981 415.503 107.663 414.665 106.191 414.255C91.9595 410.294 86.8533 404.444 83.6045 393.986Z" fill="white"/>
<path d="M421.04 199.245L421.292 199.297L423.169 199.704C423.62 199.799 424.048 199.983 424.427 200.246C424.806 200.508 425.129 200.843 425.377 201.232C425.624 201.621 425.792 202.055 425.87 202.51C425.947 202.964 425.933 203.43 425.829 203.879C422.78 216.939 421.014 222.485 419.273 233.649C419.187 234.192 419.282 234.748 419.542 235.232C419.803 235.716 420.215 236.101 420.716 236.328L431.427 241.149C431.975 241.364 432.432 241.763 432.718 242.278C433.005 242.792 433.103 243.39 432.997 243.97C432.891 244.549 432.586 245.073 432.135 245.453C431.685 245.832 431.116 246.043 430.527 246.048C421.421 246.197 413.403 246.527 406.135 246.903C404.853 246.969 403.613 247.386 402.55 248.106C378.52 264.978 360.251 278.226 339.852 290.943L326.391 270.104C349.223 257.575 367.13 247.052 392.325 231.209C396.601 228.518 400.21 224.891 402.88 220.602L416.406 201.406C416.878 200.629 417.571 200.009 418.395 199.624C419.22 199.239 420.14 199.107 421.04 199.245Z" fill="white"/>
<path d="M325.704 429.425C326.409 445.235 325.995 462.385 324.765 482.318L314.676 481.024L280.492 476.733L238.348 471.491L222.137 469.452C223.109 453.233 226.916 437.309 233.385 422.403C247.215 424.377 267.847 423.814 283.832 422.772C297.624 421.823 311.345 420.037 324.921 417.426C325.266 421.348 325.527 425.347 325.704 429.425ZM271.095 439.3L270.675 430.693L261.045 435.482L271.095 439.3Z" fill="#F9BE3D"/>
<path d="M323.505 404.612C324.081 408.825 324.554 413.083 324.923 417.419C311.347 420.031 297.626 421.816 283.834 422.765C267.849 423.807 247.217 424.37 233.387 422.396C243.03 400.036 255.695 385.805 258.717 377.489C276.191 376.783 296.687 373.884 316.846 368.985C317.042 371.844 317.494 374.679 318.199 377.456C320.485 386.399 322.257 395.466 323.505 404.612Z" fill="#F9BE3D"/>
<path d="M293.392 235.965C293.392 235.965 302.453 260.182 287.963 265.826C285.433 266.74 282.746 267.134 280.061 266.984C269.292 266.66 261.985 267.929 258.18 271.676C257.565 270.097 256.536 268.608 255.125 270.246C253.442 272.187 253.378 276.297 256.419 279.953L255.772 287.842C239.839 272.071 241.968 256.448 250.045 247.071C252.506 244.207 255.551 241.904 258.976 240.314C262.081 238.831 265.504 238.137 268.942 238.295C274.385 238.631 277.355 242.825 282.947 243.181C288.539 243.537 293.392 235.965 293.392 235.965Z" fill="#323433"/>
<path d="M255.539 228.051C258.834 231.338 257.209 238.049 257.209 238.049C256.051 236.58 247.249 243.499 248.408 244.968C248.408 244.968 232.947 260.545 224.533 256.248C216.12 251.951 223.886 243.609 214.56 238.548C205.235 233.487 201.856 249.55 191.909 242.89C181.962 236.231 192.058 224.556 182.202 218.621C172.345 212.687 161.725 225.902 152.341 219.165C142.957 212.428 147.934 204.325 142.232 199.219C136.531 194.113 124.726 201.497 124.726 201.497C96.998 155.422 115.498 131.922 169.511 142.921C184.816 151.289 173.517 164.175 183.859 171.397C194.2 178.62 198.472 166 207.571 172.86C216.67 179.72 208.723 192.812 216.89 198.779C225.058 204.746 230.028 196.928 236.532 202.791C243.036 208.655 236.215 219.294 241.832 223.566C247.45 227.837 252.239 224.769 255.539 228.051Z" fill="#323433"/>
<path d="M270.909 511.363C264.618 528.739 251.61 529.451 240.582 528.034C234.758 527.29 227.218 526.151 218.863 524.746C226.804 527.089 235.101 529.587 244.524 532.428C248.7 533.685 253.173 533.544 257.262 532.025C261.351 530.506 264.831 527.694 267.175 524.015C268.218 522.39 269.018 520.622 269.55 518.766C270.236 516.372 270.902 514.018 271.55 511.706C271.504 511.719 270.961 511.363 270.909 511.363Z" fill="#323433"/>
<path d="M310.755 504.697C305.927 522.533 293.023 524.319 281.911 523.821C277.219 523.614 271.394 523.588 264.923 523.226C264.703 523.407 264.482 523.582 264.275 523.75C271.032 525.109 278.015 526.448 285.962 528.144C291.323 529.172 296.874 528.052 301.417 525.025C303.633 523.565 305.538 521.681 307.021 519.48C308.504 517.279 309.536 514.806 310.056 512.204C310.542 509.764 311.014 507.37 311.461 505.001C311.383 505.008 310.807 504.697 310.755 504.697Z" fill="#323433"/>
<path d="M196.031 343.998L211.479 368.215L214.333 372.687L247.986 349.02C247.986 349.02 260.108 362.979 259.383 374.68C259.302 375.653 259.084 376.61 258.736 377.521C255.713 385.837 243.048 400.069 233.405 422.429C226.937 437.334 223.13 453.258 222.158 469.478L238.35 471.491L280.494 476.778L314.677 481.069L324.767 482.363C325.996 462.43 326.411 445.28 325.705 429.47C325.524 425.384 325.263 421.38 324.922 417.458C324.553 413.122 324.081 408.864 323.505 404.651C322.257 395.496 320.486 386.421 318.198 377.47C316.479 370.694 316.272 363.624 317.59 356.76C321.537 336.089 320.936 324.337 315.079 309.898L342.215 294.619L339.826 290.93L326.365 270.091L326.333 270.045" stroke="#323433" stroke-width="2.61" stroke-linecap="round" stroke-linejoin="round"/>
<path d="M413.688 218.168L421.039 199.245" stroke="#323433" stroke-width="2.61" stroke-linecap="round" stroke-linejoin="round"/>
<path d="M286.162 290.373C291.339 287.933 296.685 285.422 302.393 282.795C304.749 281.707 307.068 280.549 309.35 279.319C315.395 276.083 320.999 273.022 326.364 270.091C349.197 257.561 367.104 247.038 392.298 231.196C396.574 228.504 400.184 224.877 402.854 220.588L416.38 201.393C416.856 200.613 417.553 199.993 418.383 199.61C419.212 199.228 420.137 199.1 421.039 199.245L421.292 199.296L423.168 199.704C423.62 199.799 424.047 199.983 424.427 200.245C424.806 200.508 425.129 200.843 425.376 201.232C425.624 201.621 425.792 202.055 425.869 202.51C425.947 202.964 425.933 203.429 425.828 203.878C422.78 216.938 421.013 222.485 419.273 233.648C419.187 234.191 419.281 234.747 419.542 235.231C419.803 235.715 420.215 236.101 420.716 236.328L431.426 241.149C431.975 241.364 432.432 241.763 432.718 242.277C433.005 242.792 433.103 243.39 432.997 243.969C432.89 244.549 432.586 245.073 432.135 245.452C431.684 245.832 431.116 246.042 430.527 246.048C421.421 246.197 413.403 246.527 406.135 246.902C404.852 246.969 403.613 247.385 402.55 248.106C378.52 264.978 360.25 278.226 339.852 290.942" stroke="#323433" stroke-width="2.61" stroke-linecap="round" stroke-linejoin="round"/>
<path d="M105.862 403.312C97.9886 401.423 90.4728 398.274 83.6055 393.986" stroke="#323433" stroke-width="2.61" stroke-linecap="round" stroke-linejoin="round"/>
<path d="M287.983 265.826C288.106 272.537 288.099 278.336 287.885 284.86C287.827 286.817 287.239 288.723 286.183 290.373V290.373C285.082 292.107 283.51 293.491 281.651 294.364C279.793 295.238 277.724 295.564 275.686 295.305C272.45 294.904 269.085 294.379 265.027 293.551" stroke="#323433" stroke-width="2.61" stroke-linecap="round" stroke-linejoin="round"/>
<path d="M278.352 300.029L278.08 295.337" stroke="#323433" stroke-width="2.61" stroke-linecap="round" stroke-linejoin="round"/>
<path d="M255.798 287.862C239.864 272.09 241.993 256.467 250.07 247.09C252.531 244.227 255.576 241.923 259.001 240.334C262.106 238.85 265.53 238.157 268.968 238.314C274.41 238.651 277.381 242.845 282.972 243.2C288.564 243.556 293.392 235.965 293.392 235.965C293.392 235.965 302.452 260.182 287.962 265.826C285.433 266.74 282.745 267.134 280.06 266.984C269.291 266.66 261.985 267.929 258.179 271.676C257.564 270.097 256.535 268.608 255.125 270.246C253.442 272.187 253.377 276.297 256.419 279.953L255.772 287.842L254.328 306.028L247.857 309.354L245.663 310.493C239.819 313.519 234.212 316.981 228.888 320.848C217.718 328.964 206.943 336.542 196.064 343.946C171.646 360.552 146.704 376.304 115.607 395.331C113.351 396.717 110.684 397.278 108.061 396.917C100.414 395.995 93.027 393.562 86.329 389.759C85.9409 389.54 85.4961 389.442 85.0518 389.478C84.6075 389.513 84.1841 389.681 83.836 389.96C83.4879 390.238 83.2312 390.614 83.0988 391.04C82.9664 391.466 82.9644 391.921 83.0932 392.348C83.2549 392.911 83.4167 393.474 83.585 394.011C86.8209 404.469 91.94 410.32 106.145 414.28C107.618 414.69 108.935 415.528 109.93 416.689C110.925 417.849 111.551 419.28 111.731 420.798C112.182 424.198 113.128 427.514 114.539 430.641C114.804 431.225 115.244 431.713 115.797 432.036C116.351 432.36 116.991 432.504 117.63 432.449C118.269 432.394 118.875 432.141 119.365 431.727C119.854 431.313 120.203 430.757 120.364 430.136C122.364 422.098 126.188 410.274 132.142 405.673C140.484 399.24 198.387 373.865 211.427 368.182" stroke="#323433" stroke-width="2.61" stroke-linecap="round" stroke-linejoin="round"/>
<path d="M247.855 309.355C257.44 316.163 271.555 324.965 285.152 314.254C291.384 309.342 287.281 299.369 282.757 293.764" stroke="#323433" stroke-width="2.61" stroke-linecap="round" stroke-linejoin="round"/>
<path d="M258.717 377.489C276.19 376.783 296.686 373.884 316.846 368.985" stroke="#323433" stroke-width="2.61" stroke-linecap="round" stroke-linejoin="round"/>
<path d="M250.071 247.09L248.408 244.981C247.249 243.512 256.051 236.567 257.209 238.062L259.002 240.34" stroke="#323433" stroke-width="2.61" stroke-linecap="round" stroke-linejoin="round"/>
<path d="M257.209 238.049C257.209 238.049 258.833 231.338 255.539 228.05C252.245 224.763 247.43 227.83 241.813 223.565C236.195 219.301 243.01 208.68 236.513 202.791C230.015 196.902 225.051 204.733 216.871 198.779C208.691 192.825 216.651 179.719 207.552 172.892C198.452 166.064 194.175 178.645 183.839 171.429C173.504 164.213 184.797 151.322 169.491 142.954C161.169 164.31 135.592 183.421 124.707 201.529C124.707 201.529 136.505 194.138 142.213 199.251C147.921 204.364 142.938 212.453 152.322 219.197C161.706 225.941 172.326 212.725 182.182 218.653C192.039 224.581 181.924 236.282 191.89 242.922C201.856 249.562 205.209 233.519 214.541 238.58C223.873 243.641 216.146 251.944 224.559 256.248C232.972 260.551 248.408 244.98 248.408 244.98" stroke="#323433" stroke-width="2.61" stroke-linecap="round" stroke-linejoin="round"/>
<path d="M169.219 475.859C194.653 481.199 217.44 486.622 235.049 491.553C235.215 491.601 235.389 491.611 235.56 491.583C235.73 491.555 235.892 491.49 236.034 491.393C236.176 491.295 236.295 491.167 236.382 491.018C236.469 490.869 236.522 490.703 236.538 490.531L237.224 483.276L238.35 471.491" stroke="#323433" stroke-width="2.61" stroke-linecap="round" stroke-linejoin="round"/>
<path d="M280.494 476.772C277.116 491.217 273.751 504.206 269.563 518.786C268.829 521.336 267.596 523.714 265.937 525.783C264.277 527.853 262.223 529.573 259.895 530.843C257.565 532.11 255.007 532.903 252.368 533.175C249.73 533.447 247.064 533.194 244.524 532.429C219.44 524.863 202.283 519.699 178.791 513.583C171.931 511.797 164.553 509.933 156.244 507.901L149.875 506.348L146.588 505.558C145.897 505.391 145.193 505.283 144.484 505.235C127.043 504.076 122.17 543.133 105.285 539.787L122.481 466.657C130.247 468.093 137.967 469.563 145.513 471.045C153.61 472.643 161.537 474.28 169.219 475.872" stroke="#323433" stroke-width="2.61" stroke-linecap="round" stroke-linejoin="round"/>
<path d="M122.48 466.637L115.626 465.323L99.2656 538.376L105.284 539.787" stroke="#323433" stroke-width="2.61" stroke-linecap="round" stroke-linejoin="round"/>
<path d="M145.513 471.031C144.342 476.856 141.954 488.855 141.177 493.262C140.582 496.627 141.721 501.254 144.484 505.235" stroke="#323433" stroke-width="2.61" stroke-linecap="round" stroke-linejoin="round"/>
<path d="M314.676 481.063C313.181 491.307 311.551 501.222 309.557 512.023C309.087 514.59 308.112 517.037 306.688 519.224C305.263 521.41 303.419 523.292 301.262 524.759C299.104 526.226 296.677 527.25 294.12 527.772C291.563 528.293 288.929 528.301 286.369 527.795C279.69 526.501 273.341 525.206 267.193 524.054" stroke="#323433" stroke-width="2.61" stroke-linecap="round" stroke-linejoin="round"/>
<path d="M178.79 513.557C167.969 522.527 164.998 549.702 150.825 548.317L156.242 507.875" stroke="#323433" stroke-width="2.61" stroke-linecap="round" stroke-linejoin="round"/>
<path d="M169.219 475.859C193.611 478.04 216.864 480.577 237.224 483.257" stroke="#323433" stroke-width="2.61" stroke-linecap="round" stroke-linejoin="round"/>
<path d="M149.874 506.354L144.8 547.534L150.825 548.343" stroke="#323433" stroke-width="2.61" stroke-linecap="round" stroke-linejoin="round"/>
<path d="M281.795 271.637C281.245 273.391 280.689 278.277 284.281 280.167C283.641 281.092 282.833 281.889 281.899 282.516" stroke="#323433" stroke-width="2.61" stroke-linecap="round" stroke-linejoin="round"/>
<path d="M324.921 417.42C338.674 414.689 349.035 411.33 348.595 408.113C348.155 404.897 335.567 404.373 323.504 404.612" stroke="#323433" stroke-width="2.61" stroke-linecap="round" stroke-linejoin="round"/>
<path d="M233.387 422.397C247.217 424.371 267.849 423.807 283.834 422.766C297.626 421.816 311.347 420.031 324.923 417.42" stroke="white" stroke-width="2.61" stroke-linecap="round" stroke-linejoin="round"/>
<path d="M229.399 404.748C222.364 407.589 218.002 410.987 218.171 414.844C218.339 418.701 224.442 421.122 233.386 422.396" stroke="#323433" stroke-width="2.61" stroke-linecap="round" stroke-linejoin="round"/>
<path d="M325.705 429.425C330.882 428.629 335.989 427.755 340.823 426.836" stroke="#323433" stroke-width="2.61" stroke-linecap="round" stroke-linejoin="round"/>
<path d="M271.188 434.867C275.316 434.667 279.342 434.44 283.18 434.188C296.188 433.334 311.364 431.644 325.705 429.431" stroke="white" stroke-width="2.61" stroke-linecap="round" stroke-linejoin="round"/>
<path d="M236.727 403.583C236.773 402.833 236.596 402.086 236.218 401.437C235.839 400.788 235.277 400.266 234.602 399.937C233.926 399.607 233.169 399.485 232.424 399.586C231.68 399.687 230.982 400.007 230.419 400.505C229.856 401.002 229.454 401.656 229.262 402.382C229.071 403.109 229.099 403.876 229.343 404.586C229.588 405.297 230.037 405.919 230.635 406.374C231.233 406.829 231.952 407.096 232.702 407.142C233.2 407.173 233.699 407.105 234.171 406.943C234.643 406.781 235.078 406.527 235.452 406.197C235.826 405.866 236.131 405.465 236.35 405.017C236.569 404.568 236.697 404.081 236.727 403.583V403.583Z" stroke="#323433" stroke-width="2.61" stroke-linecap="round" stroke-linejoin="round"/>
<path d="M270.67 430.699L261.047 435.489L271.097 439.307L270.67 430.699Z" fill="white"/>
<path d="M195.041 288.341C194.896 287.569 194.525 286.857 193.976 286.295C193.426 285.734 192.723 285.348 191.954 285.186C191.185 285.024 190.386 285.094 189.656 285.386C188.927 285.679 188.301 286.181 187.857 286.829C187.413 287.478 187.171 288.243 187.162 289.028C187.153 289.814 187.377 290.585 187.806 291.243C188.235 291.901 188.849 292.418 189.571 292.727C190.293 293.036 191.091 293.125 191.863 292.981C192.377 292.886 192.867 292.691 193.306 292.406C193.744 292.121 194.121 291.752 194.417 291.321C194.712 290.89 194.919 290.405 195.026 289.893C195.133 289.382 195.138 288.854 195.041 288.341Z" fill="#323433"/>
<path d="M155.963 276.051L166.085 282.982" stroke="#323433" stroke-width="1.74" stroke-linecap="round" stroke-linejoin="round"/>
<path d="M157.556 284.581L164.493 274.459" stroke="#323433" stroke-width="1.74" stroke-linecap="round" stroke-linejoin="round"/>
<path d="M271.339 272.566C271.449 273.673 272.142 274.508 272.873 274.443C273.604 274.379 274.116 273.408 273.999 272.295C273.883 271.182 273.203 270.353 272.465 270.418C271.727 270.483 271.229 271.434 271.339 272.566Z" fill="#323433" stroke="#323433" stroke-width="2.61" stroke-linecap="round" stroke-linejoin="round"/>
<ellipse rx="31.7498" ry="31.6582" transform="matrix(0.990985 0.134027 -0.136872 0.990582 413.795 377.279)" fill="#F37C40" stroke="#323433" stroke-width="1.74534"/>
<path d="M415.912 356.382L395.826 390.302L398.66 392.602L416.956 387.666L401.371 386.105L419.721 367.871L415.912 356.382Z" fill="white" stroke="#323433" stroke-width="1.74534"/>
<path d="M426.431 392.928L423.602 392.996L413.131 378.454L420.822 371.138L426.431 392.928Z" fill="white" stroke="#323433" stroke-width="1.74534"/>
<path d="M488.83 161.17C488.085 160.803 487.304 160.503 486.496 160.272C483.218 159.33 479.64 159.689 475.761 161.35C470.813 163.477 466.82 167.094 463.783 172.201C460.745 177.308 459.555 182.419 460.212 187.534C460.716 191.547 462.247 194.63 464.806 196.782C465.383 197.295 466.012 197.746 466.685 198.13L467.482 198.555C471.361 200.474 475.705 200.408 480.516 198.356C485.466 196.247 489.465 192.633 492.512 187.514C495.559 182.396 496.749 177.285 496.082 172.182C495.449 167.209 493.25 163.655 489.485 161.519L488.83 161.17Z" fill="#F9C13D" stroke="#323433" stroke-width="0.995252"/>
<path d="M458.914 169.155C455.895 174.22 454.706 179.271 455.348 184.308C455.981 189.255 458.185 192.782 461.958 194.887L466.705 197.409C466.039 197.03 465.416 196.585 464.846 196.079C462.315 193.952 460.802 190.906 460.305 186.941C459.652 181.898 460.835 176.844 463.854 171.78C466.873 166.715 470.835 163.138 475.741 161.048C479.58 159.406 483.124 159.046 486.371 159.969C487.171 160.196 487.944 160.492 488.681 160.854L483.811 158.267C483.727 158.215 483.639 158.169 483.548 158.127C479.763 156.295 475.517 156.388 470.812 158.405C465.892 160.519 461.926 164.103 458.914 169.155Z" fill="#F37C40" stroke="#323433" stroke-width="0.995252"/>
</svg>
