<svg width="1643" height="722" viewBox="0 0 1643 722" fill="none" xmlns="http://www.w3.org/2000/svg">
<path d="M617.073 621.285C616.708 620.971 616.414 620.582 616.211 620.146C616.008 619.709 615.901 619.234 615.895 618.753C615.914 617.79 616.304 616.872 616.984 616.191C617.665 615.51 618.582 615.119 619.545 615.101C620.025 615.096 620.502 615.188 620.947 615.37C621.392 615.551 621.796 615.82 622.136 616.16C622.475 616.5 622.744 616.905 622.926 617.35C623.107 617.795 623.199 618.272 623.194 618.753C623.176 619.716 622.786 620.634 622.105 621.314C621.425 621.995 620.507 622.386 619.545 622.404C619.063 622.399 618.589 622.291 618.152 622.088C617.716 621.885 617.328 621.591 617.014 621.226L617.073 621.285ZM455.562 504.617C455.39 504.449 455.254 504.247 455.163 504.024C455.072 503.802 455.028 503.563 455.032 503.322C455.029 502.819 455.219 502.335 455.562 501.967C455.73 501.795 455.932 501.66 456.155 501.569C456.377 501.477 456.616 501.433 456.857 501.437C457.107 501.428 457.356 501.47 457.589 501.561C457.822 501.653 458.033 501.791 458.21 501.967C458.395 502.163 458.537 502.395 458.628 502.649C458.719 502.902 458.757 503.171 458.74 503.44C458.745 503.68 458.7 503.919 458.609 504.142C458.518 504.365 458.382 504.567 458.21 504.735C458.042 504.927 457.833 505.079 457.599 505.18C457.365 505.282 457.112 505.331 456.857 505.324C456.611 505.326 456.368 505.274 456.145 505.172C455.921 505.071 455.722 504.921 455.562 504.735V504.617ZM473.338 462.038C473.665 461.698 474.058 461.428 474.494 461.246C474.929 461.064 475.397 460.972 475.868 460.978C476.349 460.973 476.826 461.064 477.271 461.246C477.715 461.428 478.12 461.697 478.459 462.037C478.799 462.377 479.068 462.781 479.25 463.226C479.431 463.671 479.523 464.148 479.518 464.629C479.5 465.592 479.109 466.51 478.429 467.191C477.748 467.872 476.831 468.262 475.868 468.28C474.915 468.235 474.013 467.835 473.339 467.16C472.664 466.485 472.265 465.583 472.219 464.629C472.219 464.138 472.324 463.653 472.527 463.206C472.73 462.759 472.984 462.404 473.338 462.038ZM1204.08 459.741C1204.41 459.401 1204.8 459.131 1205.24 458.949C1205.67 458.767 1206.14 458.675 1206.61 458.681C1207.09 458.676 1207.57 458.767 1208.01 458.949C1208.46 459.131 1208.86 459.4 1209.2 459.74C1209.54 460.08 1209.81 460.484 1209.99 460.929C1210.17 461.374 1210.26 461.851 1210.26 462.332C1210.24 463.295 1209.85 464.213 1209.17 464.894C1208.49 465.575 1207.57 465.965 1206.61 465.983C1205.66 465.938 1204.76 465.538 1204.08 464.863C1203.41 464.188 1203.01 463.286 1202.96 462.332C1202.95 461.846 1203.05 461.363 1203.24 460.916C1203.43 460.47 1203.72 460.069 1204.08 459.741ZM1161.41 386.949C1161.73 386.609 1162.13 386.339 1162.56 386.157C1163 385.975 1163.47 385.883 1163.94 385.889C1164.42 385.884 1164.89 385.975 1165.34 386.157C1165.78 386.339 1166.19 386.608 1166.53 386.948C1166.87 387.288 1167.14 387.692 1167.32 388.137C1167.5 388.582 1167.59 389.059 1167.59 389.54C1167.57 390.503 1167.18 391.421 1166.5 392.102C1165.82 392.783 1164.9 393.173 1163.94 393.191C1162.98 393.146 1162.08 392.746 1161.41 392.071C1160.73 391.396 1160.33 390.494 1160.29 389.54C1160.28 389.054 1160.38 388.571 1160.57 388.124C1160.76 387.678 1161.05 387.277 1161.41 386.949ZM1251.4 256.147C1251.73 255.807 1252.12 255.537 1252.56 255.355C1252.99 255.173 1253.46 255.081 1253.93 255.087C1254.41 255.082 1254.89 255.173 1255.34 255.355C1255.78 255.537 1256.18 255.806 1256.52 256.146C1256.86 256.486 1257.13 256.89 1257.31 257.335C1257.5 257.78 1257.59 258.257 1257.58 258.738C1257.56 259.701 1257.17 260.619 1256.49 261.3C1255.81 261.981 1254.9 262.371 1253.93 262.389C1252.98 262.344 1252.08 261.944 1251.4 261.269C1250.73 260.594 1250.33 259.692 1250.28 258.738C1250.28 258.247 1250.39 257.762 1250.59 257.315C1250.8 256.868 1251.09 256.47 1251.46 256.147H1251.4ZM1384.78 390.836C1384.41 390.521 1384.12 390.133 1383.92 389.696C1383.71 389.26 1383.61 388.785 1383.6 388.303C1383.62 387.341 1384.01 386.422 1384.69 385.741C1385.37 385.061 1386.29 384.67 1387.25 384.652C1387.73 384.647 1388.21 384.738 1388.65 384.92C1389.1 385.102 1389.5 385.371 1389.84 385.711C1390.18 386.051 1390.45 386.455 1390.63 386.9C1390.81 387.346 1390.9 387.822 1390.9 388.303C1390.88 389.266 1390.49 390.184 1389.81 390.865C1389.13 391.546 1388.21 391.937 1387.25 391.955C1386.77 391.949 1386.29 391.842 1385.86 391.638C1385.42 391.435 1385.03 391.142 1384.72 390.777L1384.78 390.836ZM1510.8 272.99C1510.43 272.676 1510.14 272.288 1509.94 271.851C1509.73 271.414 1509.62 270.939 1509.62 270.458C1509.64 269.495 1510.03 268.577 1510.71 267.896C1511.39 267.215 1512.31 266.825 1513.27 266.806C1513.75 266.802 1514.23 266.893 1514.67 267.075C1515.12 267.257 1515.52 267.525 1515.86 267.865C1516.2 268.205 1516.47 268.61 1516.65 269.055C1516.83 269.5 1516.92 269.977 1516.92 270.458C1516.9 271.421 1516.51 272.339 1515.83 273.02C1515.15 273.701 1514.23 274.091 1513.27 274.109C1512.79 274.111 1512.32 274.013 1511.88 273.82C1511.45 273.627 1511.06 273.344 1510.74 272.99H1510.8ZM1384.66 232.884C1384.3 232.57 1384 232.181 1383.8 231.745C1383.6 231.308 1383.49 230.833 1383.48 230.352C1383.5 229.389 1383.89 228.471 1384.57 227.79C1385.25 227.109 1386.17 226.718 1387.13 226.7C1387.61 226.695 1388.09 226.787 1388.53 226.969C1388.98 227.15 1389.38 227.419 1389.72 227.759C1390.06 228.099 1390.33 228.504 1390.51 228.949C1390.7 229.394 1390.79 229.871 1390.78 230.352C1390.76 231.314 1390.37 232.233 1389.69 232.913C1389.01 233.594 1388.09 233.985 1387.13 234.003C1386.65 233.998 1386.18 233.89 1385.74 233.687C1385.3 233.484 1384.92 233.19 1384.6 232.825L1384.66 232.884ZM1269.12 177.289C1269.45 176.949 1269.84 176.679 1270.27 176.497C1270.71 176.315 1271.18 176.223 1271.65 176.229C1272.13 176.224 1272.61 176.315 1273.05 176.497C1273.5 176.679 1273.9 176.948 1274.24 177.288C1274.58 177.628 1274.85 178.032 1275.03 178.477C1275.21 178.922 1275.3 179.399 1275.3 179.88C1275.28 180.843 1274.89 181.761 1274.21 182.442C1273.53 183.123 1272.61 183.513 1271.65 183.531C1270.7 183.486 1269.79 183.086 1269.12 182.411C1268.45 181.736 1268.05 180.834 1268 179.88C1268 179.389 1268.11 178.904 1268.31 178.457C1268.51 178.01 1268.81 177.612 1269.18 177.289H1269.12ZM1183.48 44.8967C1183.81 44.5567 1184.2 44.2872 1184.63 44.1049C1185.07 43.9226 1185.54 43.8313 1186.01 43.8366C1186.49 43.8318 1186.97 43.9231 1187.41 44.1049C1187.86 44.2867 1188.26 44.5555 1188.6 44.8955C1188.94 45.2355 1189.21 45.6399 1189.39 46.0851C1189.57 46.5302 1189.66 47.0072 1189.66 47.488C1189.64 48.4507 1189.25 49.3689 1188.57 50.0498C1187.89 50.7307 1186.97 51.1212 1186.01 51.1393C1185.06 51.0936 1184.15 50.6942 1183.48 50.0191C1182.8 49.344 1182.41 48.4416 1182.36 47.488C1182.36 46.997 1182.47 46.5117 1182.67 46.0647C1182.87 45.6178 1183.15 45.2367 1183.48 44.8967ZM449.264 425.818C449.092 425.65 448.956 425.448 448.865 425.225C448.774 425.002 448.73 424.763 448.734 424.523C448.731 424.02 448.921 423.535 449.264 423.168C449.432 422.996 449.634 422.86 449.857 422.769C450.079 422.678 450.318 422.633 450.559 422.638C450.809 422.629 451.058 422.671 451.291 422.762C451.524 422.854 451.735 422.992 451.913 423.168C452.256 423.535 452.445 424.02 452.442 424.523C452.447 424.763 452.402 425.002 452.311 425.225C452.22 425.448 452.084 425.65 451.913 425.818C451.744 426.01 451.535 426.162 451.301 426.263C451.067 426.365 450.814 426.414 450.559 426.407C450.313 426.409 450.07 426.357 449.847 426.255C449.623 426.154 449.424 426.004 449.264 425.818ZM560.332 307.031C561.279 306.058 562.416 305.29 563.671 304.774C564.926 304.257 566.273 304.003 567.63 304.027C568.995 304.013 570.348 304.271 571.612 304.787C572.875 305.303 574.022 306.066 574.987 307.031C575.952 307.997 576.715 309.145 577.23 310.409C577.746 311.673 578.004 313.027 577.99 314.392C578.014 315.75 577.76 317.098 577.244 318.354C576.727 319.61 575.96 320.747 574.988 321.695C574.035 322.681 572.891 323.461 571.626 323.988C570.361 324.514 569.001 324.776 567.63 324.757C564.891 324.733 562.27 323.633 560.333 321.694C558.395 319.756 557.296 317.134 557.271 314.392C557.252 313.021 557.514 311.661 558.04 310.395C558.567 309.129 559.347 307.984 560.332 307.031ZM540.378 304.322C540.36 305.284 539.97 306.202 539.29 306.883C538.609 307.564 537.691 307.955 536.729 307.973C535.776 307.927 534.874 307.528 534.2 306.853C533.525 306.178 533.126 305.275 533.08 304.322C533.098 303.359 533.488 302.44 534.169 301.76C534.849 301.079 535.767 300.688 536.729 300.67C537.21 300.665 537.686 300.757 538.131 300.938C538.576 301.12 538.981 301.389 539.32 301.729C539.66 302.069 539.929 302.473 540.11 302.919C540.292 303.364 540.383 303.841 540.378 304.322ZM668.222 372.814C668.565 373.151 668.837 373.555 669.019 374.001C669.201 374.446 669.29 374.924 669.281 375.406C669.263 376.368 668.873 377.287 668.192 377.968C667.512 378.648 666.594 379.039 665.632 379.057C664.679 379.011 663.777 378.612 663.102 377.937C662.427 377.262 662.028 376.359 661.982 375.406C662.001 374.443 662.391 373.525 663.071 372.844C663.752 372.163 664.67 371.772 665.632 371.754C666.113 371.745 666.591 371.834 667.036 372.017C667.481 372.199 667.885 372.47 668.222 372.814ZM583.464 375.406C583.446 376.368 583.055 377.287 582.375 377.968C581.694 378.648 580.777 379.039 579.814 379.057C578.861 379.011 577.96 378.612 577.285 377.937C576.61 377.262 576.211 376.359 576.165 375.406C576.183 374.443 576.574 373.525 577.254 372.844C577.935 372.163 578.852 371.772 579.814 371.754C580.295 371.75 580.772 371.841 581.216 372.023C581.661 372.204 582.066 372.473 582.405 372.813C582.745 373.153 583.014 373.558 583.196 374.003C583.377 374.448 583.469 374.925 583.464 375.406ZM625.843 393.25C625.489 392.931 625.206 392.54 625.014 392.103C624.821 391.667 624.722 391.195 624.724 390.718C624.742 389.755 625.133 388.837 625.813 388.156C626.494 387.475 627.411 387.085 628.374 387.067C628.854 387.062 629.331 387.153 629.776 387.335C630.221 387.517 630.625 387.785 630.965 388.125C631.304 388.465 631.573 388.87 631.755 389.315C631.936 389.76 632.028 390.237 632.023 390.718C632.005 391.681 631.614 392.599 630.934 393.28C630.253 393.961 629.336 394.351 628.374 394.369C627.897 394.371 627.425 394.273 626.989 394.08C626.553 393.887 626.162 393.604 625.843 393.25ZM1132.59 217.266C1132.24 216.947 1131.96 216.556 1131.76 216.119C1131.57 215.683 1131.47 215.211 1131.47 214.734C1131.49 213.771 1131.88 212.853 1132.56 212.172C1133.24 211.491 1134.16 211.101 1135.12 211.082C1135.6 211.078 1136.08 211.169 1136.53 211.351C1136.97 211.533 1137.38 211.801 1137.71 212.141C1138.05 212.481 1138.32 212.886 1138.51 213.331C1138.69 213.776 1138.78 214.253 1138.77 214.734C1138.76 215.696 1138.36 216.615 1137.68 217.296C1137 217.976 1136.09 218.367 1135.12 218.385C1134.64 218.38 1134.17 218.272 1133.73 218.069C1133.3 217.866 1132.91 217.572 1132.59 217.207V217.266ZM1149.84 189.233C1149.82 187.862 1150.08 186.501 1150.61 185.235C1151.13 183.969 1151.91 182.824 1152.9 181.871C1153.85 180.899 1154.98 180.131 1156.24 179.614C1157.49 179.098 1158.84 178.844 1160.2 178.868C1161.56 178.854 1162.92 179.112 1164.18 179.628C1165.44 180.144 1166.59 180.907 1167.55 181.872C1168.52 182.837 1169.28 183.986 1169.8 185.25C1170.31 186.514 1170.57 187.868 1170.56 189.233C1170.58 190.591 1170.33 191.939 1169.81 193.195C1169.3 194.451 1168.53 195.588 1167.56 196.536C1166.6 197.522 1165.46 198.302 1164.19 198.828C1162.93 199.355 1161.57 199.617 1160.2 199.598C1157.46 199.574 1154.84 198.474 1152.9 196.535C1150.96 194.597 1149.86 191.974 1149.84 189.233ZM959.164 34.0603C959.492 33.7203 959.885 33.4509 960.32 33.2686C960.756 33.0863 961.224 32.995 961.695 33.0002C962.176 32.9955 962.653 33.0867 963.097 33.2686C963.542 33.4504 963.947 33.7192 964.286 34.0592C964.626 34.3992 964.895 34.8036 965.077 35.2487C965.258 35.6938 965.349 36.1708 965.345 36.6516C965.327 37.6143 964.936 38.5326 964.256 39.2135C963.575 39.8944 962.658 40.2849 961.695 40.303C960.742 40.2572 959.84 39.8578 959.166 39.1827C958.491 38.5076 958.092 37.6052 958.046 36.6516C958.039 36.1651 958.135 35.6826 958.327 35.2359C958.52 34.7892 958.805 34.3885 959.164 34.0603Z" fill="white" stroke="#323433" stroke-width="1.76998"/>
<path d="M324.563 174.207C295.241 143.3 296.152 94.8494 326.597 65.9898C357.042 37.1302 405.493 38.7901 434.814 69.6974C464.136 100.605 463.226 149.056 432.78 177.915C402.335 206.775 353.884 205.115 324.563 174.207Z" fill="#E9761A" stroke="#323433" stroke-width="2.80907" stroke-miterlimit="10" stroke-linecap="round" stroke-linejoin="round"/>
<path d="M316.977 160.473C287.655 129.565 288.566 81.1147 319.011 52.2551C349.456 23.3954 397.907 25.0554 427.229 55.9627C456.55 86.8701 455.64 135.321 425.194 164.18C394.749 193.04 346.299 191.38 316.977 160.473Z" fill="#F9C13D" stroke="#323433" stroke-width="2.80907" stroke-miterlimit="10" stroke-linecap="round" stroke-linejoin="round"/>
<path d="M400.942 62.1162L389.013 158.356L380.805 160.278L355.437 129.41L385.094 143.091L378.192 83.0725L400.942 62.1162Z" fill="white" stroke="#323433" stroke-width="1.97596"/>
<path d="M328.211 128.003L333.206 131.294L372.822 110.676L369.433 85.9173L328.211 128.003Z" fill="white" stroke="#323433" stroke-width="1.97596"/>
<path d="M446.914 146.613C441.224 146.266 435.874 145.825 430.076 145.247C428.005 145.044 425.917 145.073 423.852 145.334C416.304 146.302 409.14 147.206 402.243 148.052C386.338 149.982 371.951 151.544 357.731 152.57L353.986 152.831C344.816 153.425 335.615 152.322 326.846 149.577C323.325 148.486 319.935 147.409 316.631 146.346C313.522 145.355 310.493 144.365 307.5 143.382L318.279 108.391C324.851 110.748 331.704 113.148 339.093 115.693C343.734 117.286 348.545 118.334 353.429 118.816C359.458 119.416 366.081 120.146 373.101 120.912C382.188 121.896 391.933 122.937 401.917 123.804C408.294 124.346 414.764 124.802 421.213 125.127C423.41 125.227 425.592 124.708 427.51 123.631C432.31 120.956 438.838 118.7 442.511 115.353L447.687 107.27C447.942 106.871 448.33 106.574 448.783 106.434C449.236 106.294 449.724 106.318 450.16 106.504C450.967 106.852 451.613 107.493 451.965 108.298C452.318 109.103 452.353 110.012 452.061 110.842C450.456 115.396 449.292 119.344 448.107 122.835C449.878 122.59 451.627 122.373 453.312 122.17C456.854 121.744 460.136 121.382 462.754 120.934C463.62 120.786 464.505 120.786 465.371 120.934C466.298 121.1 467.185 121.439 467.988 121.932H468.031C469.13 122.607 469.976 123.624 470.441 124.827C470.906 126.03 470.964 127.352 470.605 128.59C468.855 134.62 467.301 139.283 464.893 145.428C464.674 145.985 464.287 146.46 463.786 146.787C463.285 147.115 462.694 147.279 462.096 147.257L459.667 147.177C455.061 147.054 450.904 146.852 446.914 146.613Z" fill="white"/>
<path d="M439.795 256.032C418.171 293.011 403.546 318.827 393.367 348.511L387.026 345.468L360.212 332.592C358.766 335.455 357.361 338.296 355.997 341.116C351.963 349.502 348.31 357.753 345.038 365.869C344.074 368.279 343.143 370.653 342.247 372.99C339.389 380.495 336.846 387.898 334.62 395.2L323.342 390.009L291.46 375.376C304.762 339.952 321.477 311.569 344.821 282.665C345.339 282.023 345.589 281.204 345.516 280.381C345.443 279.559 345.054 278.796 344.43 278.255C325.221 261.483 312.62 248.202 299.383 231.343C290.185 231.045 281.277 228.05 273.768 222.73C266.259 217.41 260.479 209.999 257.148 201.42L273.856 189.99C285.748 189.6 302.774 187.214 317.768 172.719C318.144 172.357 318.491 171.996 318.888 171.613C326.732 180.593 336.409 187.788 347.267 192.714C358.125 197.64 369.912 200.182 381.836 200.169C382.754 200.169 383.665 200.169 384.576 200.126C387.766 201.851 391.012 203.69 394.314 205.642C408.576 214.191 422.312 223.586 435.45 233.779C438.757 236.325 441.022 239.989 441.822 244.085C442.622 248.181 441.901 252.429 439.795 256.032Z" fill="#323433"/>
<path d="M394.316 205.62C392.053 205.88 389.761 206.054 387.448 206.126C386.537 206.126 385.618 206.17 384.7 206.17C372.778 206.182 360.992 203.64 350.135 198.714C339.278 193.788 329.602 186.593 321.76 177.613C320.372 176.032 319.042 174.394 317.77 172.697C318.145 172.336 318.492 171.974 318.89 171.591C326.734 180.571 336.41 187.766 347.268 192.692C358.127 197.618 369.914 200.16 381.837 200.147C382.756 200.147 383.666 200.147 384.577 200.104C387.768 201.834 391.014 203.673 394.316 205.62Z" fill="#323433"/>
<path d="M394.482 273.918C393.89 275.53 374.963 327.192 372.288 338.383C369.396 337.003 364.494 334.552 360.309 332.455C370.119 313.295 381.013 294.71 392.935 276.788C393.535 275.879 394.053 274.918 394.482 273.918Z" fill="#323433"/>
<path d="M399.867 384.342C400.726 385.032 401.408 385.916 401.858 386.922C402.308 387.927 402.513 389.025 402.455 390.125L402.303 393.125L345.031 365.87C348.313 357.744 351.967 349.493 355.991 341.116L383.254 354.036C379.733 366.217 391.683 377.777 399.867 384.342Z" fill="#323433"/>
<path d="M402.305 393.139L400.91 396.031C400.663 396.551 400.316 397.017 399.888 397.403C399.461 397.789 398.962 398.086 398.419 398.279C397.877 398.472 397.301 398.556 396.726 398.526C396.152 398.496 395.588 398.353 395.068 398.106L342.293 372.976C343.189 370.614 344.12 368.241 345.084 365.855L402.305 393.139Z" fill="white"/>
<path d="M387.027 345.461L383.282 354.028L356.02 341.087C357.379 338.268 358.784 335.426 360.234 332.563L387.027 345.461Z" fill="white"/>
<path d="M357.356 422.375V425.629C357.356 426.789 356.896 427.903 356.076 428.724C355.256 429.545 354.143 430.008 352.982 430.01H281.143C279.981 430.01 278.867 429.548 278.045 428.727C277.223 427.905 276.762 426.791 276.762 425.629V422.375H357.356Z" fill="white"/>
<path d="M356.207 419.599L357.356 422.375H276.762C280.138 409.427 283.717 397.426 287.606 386.155C289.244 387.133 290.651 388.453 291.732 390.026C292.813 391.598 293.541 393.385 293.867 395.264H323.406C325.431 407.8 341.198 413.092 351.414 415.507C352.478 415.763 353.468 416.267 354.301 416.978C355.134 417.689 355.787 418.587 356.207 419.599Z" fill="#323433"/>
<path d="M323.386 395.265H293.847C293.521 393.385 292.793 391.598 291.712 390.026C290.631 388.454 289.224 387.134 287.586 386.156C288.844 382.488 290.133 378.895 291.454 375.376L323.343 390.009C323.107 391.754 323.121 393.524 323.386 395.265Z" fill="white"/>
<path d="M302.009 141.553C305.487 152.63 311.237 162.86 318.889 171.592C303.599 187.099 286.046 189.571 273.857 189.991C271.486 190.07 269.31 190.07 267.401 190.07H225.224C224.725 154.805 224.956 129.494 226.981 101.769C227.367 96.2055 229.622 90.9356 233.379 86.8139C237.136 82.6921 242.175 79.9603 247.679 79.0613C250.895 78.5144 254.189 78.6219 257.362 79.3771C260.536 80.1324 263.525 81.5199 266.15 83.4568C267.114 84.1509 268.052 84.8449 268.962 85.5389C272.577 88.2355 276.018 90.961 279.366 93.7589C286.248 96.4627 292.863 99.0075 299.529 101.509C303.303 102.955 307.091 104.328 310.951 105.738C313.361 106.62 315.812 107.505 318.304 108.391L307.503 143.375L302.009 141.553Z" fill="#E9761A"/>
<path d="M302.927 30.9995H274.812V43.2318H271.291C271.291 43.2318 267.387 34.5564 262.616 37.9398C257.844 41.3232 262.486 48.8925 262.486 48.8925C258.582 50.6999 254.533 54.7701 251.179 58.956L251.352 57.9728C251.753 55.7179 251.523 53.396 250.687 51.2638C241.556 28.2884 252.639 14.3138 260.49 18.2683C270.301 2.96348 298.127 10.6484 302.927 30.9995Z" fill="#323433"/>
<path d="M292.075 50.8157C292.226 50.9922 292.32 51.2104 292.345 51.4414C292.369 51.6724 292.323 51.9054 292.212 52.1098C289.646 57.0981 292.733 69.6775 270.524 71.0366C270.112 71.0605 269.725 71.2407 269.442 71.5403C269.158 71.8399 269 72.2363 268.999 72.6488V85.539C268.073 84.8449 267.136 84.1509 266.186 83.4569C263.561 81.52 260.572 80.1324 257.398 79.3772C254.225 78.6219 250.931 78.5145 247.715 79.0613L251.221 58.985C254.605 54.7991 258.624 50.7289 262.528 48.9215C262.528 48.9215 257.872 41.3739 262.658 37.9689C267.444 34.5638 271.29 43.2319 271.29 43.2319H274.789V30.9418H289.111C289.024 35.077 288.966 38.7713 288.634 43.2319C288.508 44.9536 288.977 46.6663 289.964 48.0829C290.613 49.0348 291.318 49.9473 292.075 50.8157Z" fill="white"/>
<path d="M273.854 189.99L257.139 201.442C255.723 197.785 254.773 193.964 254.312 190.07H267.398C269.306 190.048 271.483 190.048 273.854 189.99Z" fill="white"/>
<path d="M307.503 143.375C310.496 144.358 313.525 145.348 316.634 146.339C319.938 147.401 323.328 148.507 326.849 149.57C335.618 152.315 344.819 153.418 353.989 152.823L357.734 152.563C371.954 151.537 386.37 149.975 402.246 148.045C409.143 147.199 416.307 146.295 423.855 145.326C425.92 145.066 428.008 145.037 430.079 145.24C435.863 145.818 441.227 146.259 446.917 146.606C450.907 146.852 455.064 147.054 459.655 147.228L462.084 147.307C462.683 147.33 463.273 147.166 463.774 146.838C464.275 146.51 464.662 146.035 464.882 145.478C467.289 139.333 468.844 134.634 470.593 128.641C470.952 127.402 470.894 126.08 470.43 124.877C469.965 123.675 469.118 122.658 468.02 121.982H467.976C467.174 121.489 466.286 121.151 465.359 120.985C464.493 120.837 463.608 120.837 462.742 120.985C460.125 121.433 456.843 121.794 453.3 122.221C451.616 122.423 449.866 122.64 448.095 122.886C449.281 119.394 450.445 115.447 452.05 110.892C452.341 110.063 452.307 109.154 451.954 108.349C451.601 107.544 450.956 106.902 450.148 106.555C449.712 106.369 449.224 106.344 448.772 106.485C448.319 106.625 447.931 106.921 447.676 107.321L442.536 115.375C438.863 118.722 432.335 120.978 427.534 123.652C425.617 124.73 423.435 125.248 421.237 125.149C414.789 124.824 408.318 124.368 401.942 123.826C391.958 122.987 382.213 121.946 373.125 120.934C366.105 120.168 359.483 119.438 353.454 118.838C348.57 118.356 343.759 117.307 339.118 115.714C331.729 113.17 324.875 110.769 318.304 108.413C315.817 107.526 313.366 106.641 310.951 105.759C307.091 104.314 303.303 102.947 299.529 101.53C292.863 99.0287 286.248 96.4695 279.366 93.7801C276.018 90.9823 272.57 88.2568 268.962 85.5602C268.037 84.8661 267.1 84.1721 266.15 83.4781C263.525 81.5412 260.536 80.1536 257.362 79.3983C254.189 78.6431 250.895 78.5357 247.679 79.0825C242.178 79.9806 237.142 82.7093 233.385 86.8267C229.629 90.944 227.372 96.2089 226.981 101.769C224.956 129.494 224.725 154.804 225.224 190.07H267.401C269.309 190.07 271.486 190.07 273.857 189.99C286.046 189.593 303.599 187.099 318.889 171.613" stroke="#323433" stroke-width="2.57863" stroke-linecap="round" stroke-linejoin="round"/>
<path d="M252.285 124.202C271.733 131.099 286.654 136.391 302.01 141.553L307.504 143.374" stroke="#323433" stroke-width="2.57863" stroke-linecap="round" stroke-linejoin="round"/>
<path d="M318.301 108.391L307.5 143.374" stroke="#323433" stroke-width="2.57863" stroke-linecap="round" stroke-linejoin="round"/>
<path d="M254.312 190.048C255.635 201.187 260.91 211.48 269.18 219.058C277.449 226.637 288.163 230.996 299.374 231.343C312.633 248.202 325.212 261.483 344.421 278.256C345.045 278.797 345.434 279.559 345.507 280.382C345.579 281.204 345.33 282.023 344.811 282.666C321.467 311.584 304.753 339.945 291.45 375.377C290.13 378.9 288.841 382.493 287.583 386.156C283.715 397.427 280.136 409.428 276.738 422.376H357.355L356.205 419.6C355.783 418.585 355.127 417.686 354.29 416.975C353.453 416.263 352.459 415.761 351.39 415.508C341.175 413.093 325.407 407.801 323.383 395.265C323.115 393.524 323.098 391.755 323.333 390.009" stroke="#323433" stroke-width="2.57863" stroke-linecap="round" stroke-linejoin="round"/>
<path d="M329.199 189.499C350.475 204.536 371.665 227.41 392.305 255.085C394.631 258.195 395.94 261.948 396.052 265.83C396.165 269.712 395.076 273.534 392.934 276.773C380.974 294.742 370.05 313.379 360.214 332.592C358.768 335.455 357.363 338.297 355.999 341.116C351.965 349.502 348.311 357.754 345.039 365.87C344.075 368.28 343.145 370.653 342.248 372.991C339.39 380.495 336.848 387.898 334.621 395.2L323.343 390.009L291.461 375.377" stroke="#323433" stroke-width="2.57863" stroke-linecap="round" stroke-linejoin="round"/>
<path d="M323.386 395.264H293.847C293.521 393.385 292.793 391.598 291.712 390.026C290.631 388.453 289.224 387.133 287.586 386.155" stroke="#323433" stroke-width="2.57863" stroke-linecap="round" stroke-linejoin="round"/>
<path d="M276.762 422.375V425.629C276.762 426.791 277.223 427.905 278.045 428.727C278.867 429.548 279.981 430.01 281.143 430.01H352.982C354.144 430.01 355.259 429.548 356.08 428.727C356.902 427.905 357.363 426.791 357.363 425.629V422.375" stroke="#323433" stroke-width="2.57863" stroke-linecap="round" stroke-linejoin="round"/>
<path d="M345.031 365.87L402.303 393.14L402.455 390.14C402.513 389.039 402.308 387.941 401.858 386.936C401.408 385.93 400.726 385.046 399.867 384.356C391.683 377.792 379.718 366.232 383.283 354.05L356.02 341.087" stroke="#323433" stroke-width="2.57863" stroke-linecap="round" stroke-linejoin="round"/>
<path d="M342.262 372.99L395.037 398.12C395.557 398.368 396.12 398.51 396.695 398.54C397.27 398.57 397.845 398.486 398.388 398.293C398.93 398.101 399.43 397.803 399.857 397.417C400.284 397.031 400.631 396.565 400.879 396.045L402.274 393.11" stroke="#323433" stroke-width="2.57863" stroke-linecap="round" stroke-linejoin="round"/>
<path d="M387.028 345.468L393.369 348.512C403.548 318.827 418.173 293.011 439.797 256.032C441.91 252.428 442.635 248.176 441.837 244.075C441.038 239.974 438.77 236.306 435.459 233.758C416.814 219.465 400.742 208.879 385.293 200.529" stroke="#323433" stroke-width="2.57863" stroke-linecap="round" stroke-linejoin="round"/>
<path d="M360.238 332.593L387.038 345.461" stroke="#323433" stroke-width="2.57863" stroke-linecap="round" stroke-linejoin="round"/>
<path d="M383.281 354.035L387.033 345.468V345.461" stroke="#323433" stroke-width="2.57863" stroke-linecap="round" stroke-linejoin="round"/>
<path d="M268.961 85.539V72.6488C268.962 72.2363 269.121 71.8399 269.404 71.5403C269.688 71.2407 270.075 71.0605 270.486 71.0366C292.732 69.6775 289.645 57.0981 292.211 52.1098C292.322 51.9054 292.368 51.6724 292.343 51.4414C292.319 51.2104 292.225 50.9922 292.074 50.8157C291.325 49.9561 290.627 49.0532 289.984 48.1118C288.986 46.6893 288.511 44.965 288.64 43.2319C288.972 38.8002 289.03 35.106 289.117 30.9418" stroke="#323433" stroke-width="2.57863" stroke-linecap="round" stroke-linejoin="round"/>
<path d="M247.681 79.0612L251.187 58.9849L251.36 58.0017C251.762 55.7468 251.531 53.4249 250.695 51.2927C241.557 28.2884 252.64 14.3138 260.491 18.2683C270.302 2.96348 298.128 10.6484 302.928 30.9995H274.813V43.2318H271.292C271.292 43.2318 267.388 34.5564 262.617 37.9398C257.845 41.3232 262.487 48.8925 262.487 48.8925C258.583 50.6999 254.534 54.7701 251.18 58.956" stroke="#323433" stroke-width="2.57863" stroke-linecap="round" stroke-linejoin="round"/>
<path d="M257.141 201.421L273.855 189.969" stroke="#323433" stroke-width="2.57863" stroke-linecap="round" stroke-linejoin="round"/>
<path d="M285.677 42.9282C284.096 43.384 282.4 43.2131 280.941 42.451" stroke="#323433" stroke-width="2.57863" stroke-linecap="round" stroke-linejoin="round"/>
<path d="M1089.88 661.38C1089.88 637.431 1109.3 618.016 1133.25 618.016H1382.73V670.526H1089.88V661.38Z" fill="#E9761A" stroke="#323433" stroke-width="1.76998"/>
<path fill-rule="evenodd" clip-rule="evenodd" d="M1415.43 322.979C1418.07 322.751 1420.71 322.638 1423.36 322.639C1425.53 322.639 1427.66 322.718 1429.75 322.874V322.926C1444.12 324.095 1456.6 328.93 1467.19 337.43C1479.49 347.303 1485.62 359.223 1485.6 373.19V474.733C1485.62 476.246 1486.02 477.74 1486.76 479.129C1487.51 480.517 1488.6 481.772 1489.95 482.819C1492.03 484.487 1494.67 485.624 1497.55 486.084C1500.43 486.545 1503.41 486.309 1506.12 485.408C1508.84 484.505 1511.15 482.978 1512.78 481.017C1514.41 479.057 1515.28 476.752 1515.28 474.394V438.999C1515.29 425.035 1521.43 413.115 1533.73 403.238C1546.02 393.361 1560.86 388.423 1578.25 388.423C1595.59 388.426 1610.41 393.365 1622.73 403.238C1635.05 413.112 1641.21 425.032 1641.21 438.999V467.639V617.341H1429.75V617.784H1360.39V373.189C1360.29 365.633 1362.33 358.157 1366.37 351.331C1369.52 346.165 1373.74 341.465 1378.84 337.429C1389.22 329.106 1401.42 324.29 1415.43 322.979Z" fill="#00B07A"/>
<path d="M1423.36 322.639L1423.36 323.524H1423.36V322.639ZM1415.43 322.979L1415.36 322.097L1415.35 322.097L1415.43 322.979ZM1429.75 322.874H1430.64V322.053L1429.82 321.992L1429.75 322.874ZM1429.75 322.926H1428.87V323.741L1429.68 323.808L1429.75 322.926ZM1467.19 337.43L1467.75 336.74L1467.75 336.739L1467.19 337.43ZM1485.6 373.19L1484.72 373.189V373.19H1485.6ZM1485.6 474.733H1484.72L1484.72 474.744L1485.6 474.733ZM1486.76 479.129L1485.98 479.548L1486.76 479.129ZM1489.95 482.819L1490.51 482.13L1490.5 482.124L1490.49 482.118L1489.95 482.819ZM1497.55 486.084L1497.41 486.958L1497.55 486.084ZM1506.12 485.408L1506.4 486.247L1506.12 485.408ZM1512.78 481.017L1513.46 481.583L1512.78 481.017ZM1515.28 474.394H1514.4V474.395L1515.28 474.394ZM1515.28 438.999L1514.4 438.999V438.999H1515.28ZM1533.73 403.238L1534.28 403.928L1533.73 403.238ZM1578.25 388.423L1578.25 387.538H1578.25V388.423ZM1622.73 403.238L1622.18 403.929V403.929L1622.73 403.238ZM1641.21 617.341V618.226H1642.09V617.341H1641.21ZM1429.75 617.341V616.456H1428.87V617.341H1429.75ZM1429.75 617.784V618.669H1430.64V617.784H1429.75ZM1360.39 617.784H1359.51V618.669H1360.39V617.784ZM1360.39 373.189H1361.28L1361.28 373.177L1360.39 373.189ZM1366.37 351.331L1365.61 350.87L1365.61 350.881L1366.37 351.331ZM1378.84 337.429L1379.39 338.123L1379.39 338.119L1378.84 337.429ZM1423.36 321.754C1420.69 321.753 1418.02 321.867 1415.36 322.097L1415.51 323.86C1418.12 323.635 1420.74 323.523 1423.36 323.524L1423.36 321.754ZM1429.82 321.992C1427.71 321.833 1425.55 321.754 1423.36 321.754V323.524C1425.51 323.524 1427.62 323.602 1429.69 323.757L1429.82 321.992ZM1430.64 322.926V322.874H1428.87V322.926H1430.64ZM1467.75 336.739C1457 328.122 1444.35 323.226 1429.83 322.043L1429.68 323.808C1443.88 324.964 1456.19 329.737 1466.64 338.12L1467.75 336.739ZM1486.49 373.191C1486.51 358.919 1480.22 346.757 1467.75 336.74L1466.64 338.12C1478.75 347.849 1484.74 359.528 1484.72 373.189L1486.49 373.191ZM1486.49 474.733V373.19H1484.72V474.733H1486.49ZM1487.54 478.709C1486.86 477.441 1486.5 476.086 1486.49 474.722L1484.72 474.744C1484.74 476.406 1485.17 478.039 1485.98 479.548L1487.54 478.709ZM1490.49 482.118C1489.23 481.14 1488.23 479.979 1487.54 478.709L1485.98 479.548C1486.8 481.056 1487.97 482.404 1489.41 483.52L1490.49 482.118ZM1497.69 485.21C1494.95 484.772 1492.45 483.692 1490.51 482.13L1489.4 483.509C1491.6 485.282 1494.39 486.475 1497.41 486.958L1497.69 485.21ZM1505.84 484.568C1503.27 485.424 1500.43 485.649 1497.69 485.21L1497.41 486.958C1500.43 487.441 1503.55 487.195 1506.4 486.247L1505.84 484.568ZM1512.1 480.451C1510.59 482.27 1508.42 483.711 1505.84 484.568L1506.4 486.247C1509.25 485.3 1511.72 483.685 1513.46 481.583L1512.1 480.451ZM1514.4 474.395C1514.4 476.528 1513.61 478.636 1512.1 480.451L1513.46 481.583C1515.22 479.477 1516.17 476.976 1516.17 474.394L1514.4 474.395ZM1514.4 438.999V474.394H1516.17V438.999H1514.4ZM1533.17 402.548C1520.7 412.569 1514.4 424.73 1514.4 438.999L1516.17 438.999C1516.17 425.341 1522.17 413.662 1534.28 403.928L1533.17 402.548ZM1578.25 387.538C1560.68 387.538 1545.64 392.532 1533.17 402.548L1534.28 403.928C1546.4 394.191 1561.04 389.308 1578.25 389.308V387.538ZM1623.29 402.548C1610.79 392.536 1595.77 387.541 1578.25 387.538L1578.25 389.308C1595.4 389.311 1610.03 394.194 1622.18 403.929L1623.29 402.548ZM1642.09 438.999C1642.09 424.726 1635.78 412.564 1623.29 402.548L1622.18 403.929C1634.32 413.659 1640.32 425.338 1640.32 438.999H1642.09ZM1642.09 467.639V438.999H1640.32V467.639H1642.09ZM1642.09 617.341V467.639H1640.32V617.341H1642.09ZM1429.75 618.226H1641.21V616.456H1429.75V618.226ZM1430.64 617.784V617.341H1428.87V617.784H1430.64ZM1360.39 618.669H1429.75V616.899H1360.39V618.669ZM1359.51 373.189V617.784H1361.28V373.189H1359.51ZM1365.61 350.881C1361.49 357.839 1359.4 365.474 1359.51 373.202L1361.28 373.177C1361.18 365.791 1363.17 358.475 1367.13 351.782L1365.61 350.881ZM1378.29 336.735C1373.11 340.831 1368.82 345.609 1365.61 350.871L1367.12 351.792C1370.22 346.722 1374.36 342.099 1379.39 338.123L1378.29 336.735ZM1415.35 322.097C1401.18 323.424 1388.81 328.301 1378.29 336.738L1379.39 338.119C1389.63 329.912 1401.66 325.156 1415.52 323.86L1415.35 322.097Z" fill="#323433"/>
<path d="M1499.01 348.274C1499.01 348.274 1478.71 354.201 1474.14 363.834C1469.56 373.467 1460.41 400.377 1460.41 400.377C1460.41 400.377 1451.83 415.392 1451.83 419.926C1451.83 424.459 1464.52 441.286 1470.24 445.809C1475.96 450.343 1497.35 420.491 1497.35 420.491L1499.01 348.274Z" fill="#E9761A" stroke="#323433" stroke-width="1.76998" stroke-miterlimit="10" stroke-linecap="round" stroke-linejoin="round"/>
<path d="M1589.34 481.823C1589.6 482.052 1590.38 492.091 1590.38 492.091C1590.38 492.091 1595.74 502.662 1595.68 518.837C1595.6 535.011 1600.82 617.857 1600.82 617.857H1472.73C1472.73 617.857 1481.63 555.746 1494.25 524.315C1494.25 524.315 1494.65 498.519 1501.56 491.329C1501.56 491.329 1498.56 480.748 1504.69 479.444C1510.82 478.139 1589.34 481.823 1589.34 481.823Z" fill="#323433"/>
<path d="M1589.34 481.823C1589.6 482.052 1590.38 492.091 1590.38 492.091C1590.38 492.091 1595.74 502.662 1595.68 518.837C1595.6 535.011 1600.82 617.857 1600.82 617.857H1472.73C1472.73 617.857 1481.63 555.746 1494.25 524.315C1494.25 524.315 1494.65 498.519 1501.56 491.329C1501.56 491.329 1498.56 480.748 1504.69 479.444C1510.82 478.139 1589.34 481.823 1589.34 481.823Z" stroke="#323433" stroke-width="1.76998" stroke-miterlimit="10" stroke-linecap="round" stroke-linejoin="round"/>
<path d="M1504.2 481.971C1504.2 481.971 1503.42 486.893 1504.2 491.078C1504.2 491.078 1517.68 501.061 1536.08 501.851C1554.49 502.642 1580.74 497.635 1587.94 493.418V483.404L1504.2 481.971Z" fill="#263238"/>
<path d="M1516.04 487.416C1516.04 487.416 1514.48 495.872 1516.04 499.071C1517.6 502.27 1531.68 503.144 1531.68 503.144L1531.23 491.105L1516.04 487.416Z" fill="#BFBFBF" stroke="#323433" stroke-width="1.76998" stroke-miterlimit="10" stroke-linecap="round" stroke-linejoin="round"/>
<path d="M1564.35 504.354C1564.35 504.354 1563.99 498.096 1562.36 491.045L1558.3 491.16C1558.3 491.16 1560.48 499.21 1559.27 504.354" fill="#999999"/>
<path d="M1564.35 504.354C1564.35 504.354 1563.99 498.096 1562.36 491.045L1558.3 491.16C1558.3 491.16 1560.48 499.21 1559.27 504.354" stroke="#323433" stroke-width="1.76998" stroke-miterlimit="10" stroke-linecap="round" stroke-linejoin="round"/>
<path d="M1489.77 351.679C1497.29 348.16 1502.36 346.443 1502.36 346.443C1502.9 345.03 1501.62 340.779 1514.61 333.983C1527.61 327.188 1546.39 331.439 1546.39 331.439L1553.69 340.506C1553.69 340.506 1578.98 350.663 1584.88 355.783C1590.78 360.903 1595.67 480.845 1590.78 485.149C1576.85 497.4 1517.76 499.064 1501.72 482.845C1498.26 479.338 1495.92 454.03 1489.25 416.461C1489.25 416.461 1476.58 387.185 1477.26 371.102" fill="#E9761A"/>
<path d="M1489.77 351.679C1497.29 348.16 1502.36 346.443 1502.36 346.443C1502.9 345.03 1501.62 340.779 1514.61 333.983C1527.61 327.188 1546.39 331.439 1546.39 331.439L1553.69 340.506C1553.69 340.506 1578.98 350.663 1584.88 355.783C1590.78 360.903 1595.67 480.845 1590.78 485.149C1576.85 497.4 1517.76 499.064 1501.72 482.845C1498.26 479.338 1495.92 454.03 1489.25 416.461C1489.25 416.461 1476.58 387.185 1477.26 371.102" stroke="#323433" stroke-width="1.76998" stroke-miterlimit="10" stroke-linecap="round" stroke-linejoin="round"/>
<path d="M1505.67 328.164C1505.67 328.164 1512.61 334.748 1510.04 345.509L1519.28 360.374L1524.95 347.205C1524.95 347.205 1538.12 343.803 1541.97 334.884C1541.97 334.884 1533.28 320.816 1535.88 301.094C1538.49 281.383 1505.67 328.164 1505.67 328.164Z" fill="white" stroke="#323433" stroke-width="1.76998" stroke-miterlimit="10" stroke-linecap="round" stroke-linejoin="round"/>
<path d="M1536.73 310.382C1540.78 280.255 1531.74 268.223 1508.04 269.914C1484.3 271.604 1483.97 298.078 1489.62 309.328C1491.52 313.105 1490.9 321.37 1502.68 334.581C1507.2 339.642 1519.06 335.833 1527.56 327.464" fill="white"/>
<path d="M1536.73 310.382C1540.78 280.255 1531.74 268.223 1508.04 269.914C1484.3 271.604 1483.97 298.078 1489.62 309.328C1491.52 313.105 1490.9 321.37 1502.68 334.581C1507.2 339.642 1519.06 335.833 1527.56 327.464" stroke="#323433" stroke-width="1.76998" stroke-miterlimit="10" stroke-linecap="round" stroke-linejoin="round"/>
<path d="M1501.48 303.098C1501.48 303.098 1503.8 298.986 1510.16 303.098" stroke="#323433" stroke-width="1.76998" stroke-miterlimit="10" stroke-linecap="round" stroke-linejoin="round"/>
<path d="M1491.95 303.098C1491.95 303.098 1488.51 300.249 1487.48 303.098" stroke="#323433" stroke-width="1.76998" stroke-miterlimit="10" stroke-linecap="round" stroke-linejoin="round"/>
<path d="M1506.43 311.484C1507.07 311.317 1507.37 310.345 1507.1 309.313C1506.83 308.281 1506.1 307.58 1505.45 307.747C1504.81 307.914 1504.51 308.886 1504.78 309.918C1505.05 310.95 1505.79 311.651 1506.43 311.484Z" fill="#323433"/>
<path d="M1493.64 311.484C1494.28 311.317 1494.59 310.345 1494.32 309.313C1494.05 308.281 1493.31 307.58 1492.67 307.747C1492.03 307.914 1491.73 308.886 1491.99 309.918C1492.26 310.95 1493 311.651 1493.64 311.484Z" fill="#323433"/>
<path d="M1494.83 305.404C1497.45 309.004 1495.01 313.533 1494.16 317.05C1493.3 320.556 1498.6 320.326 1500.09 319.168" stroke="#323433" stroke-width="1.76998" stroke-miterlimit="10" stroke-linecap="round" stroke-linejoin="round"/>
<path d="M1523.91 307.72C1523.91 307.72 1521.69 300.676 1526.46 297.181C1531.23 293.685 1530.9 314.722 1530.9 314.722L1535.45 317.258C1535.45 317.258 1542.02 299.894 1538.84 287.194C1535.67 274.494 1522.83 265.468 1505.05 270.268C1481.23 276.696 1486.6 296.189 1486.6 296.189C1486.6 296.189 1487.6 290.679 1488.77 291.003C1489.93 291.316 1493.66 294.916 1512.12 288.572C1512.12 288.572 1514.17 290.366 1513.75 294.822C1513.32 299.268 1521.19 303.244 1522.43 310.663L1523.91 307.72Z" fill="#999999"/>
<path opacity="0.4" d="M1523.91 307.72C1523.91 307.72 1521.69 300.676 1526.46 297.181C1531.23 293.685 1530.9 314.722 1530.9 314.722L1535.45 317.258C1535.45 317.258 1542.02 299.894 1538.84 287.194C1535.67 274.494 1522.83 265.468 1505.05 270.268C1481.23 276.696 1486.6 296.189 1486.6 296.189C1486.6 296.189 1487.6 290.679 1488.77 291.003C1489.93 291.316 1493.66 294.916 1512.12 288.572C1512.12 288.572 1514.17 290.366 1513.75 294.822C1513.32 299.268 1521.19 303.244 1522.43 310.663L1523.91 307.72Z" fill="black"/>
<path d="M1523.91 307.72C1523.91 307.72 1521.69 300.676 1526.46 297.181C1531.23 293.685 1530.9 314.722 1530.9 314.722L1535.45 317.258C1535.45 317.258 1542.02 299.894 1538.84 287.194C1535.67 274.494 1522.83 265.468 1505.05 270.268C1481.23 276.696 1486.6 296.189 1486.6 296.189C1486.6 296.189 1487.6 290.679 1488.77 291.003C1489.93 291.316 1493.66 294.916 1512.12 288.572C1512.12 288.572 1514.17 290.366 1513.75 294.822C1513.32 299.268 1521.19 303.244 1522.43 310.663L1523.91 307.72Z" stroke="#323433" stroke-width="1.76998" stroke-miterlimit="10" stroke-linecap="round" stroke-linejoin="round"/>
<path d="M1493.23 320.368C1493.23 320.368 1495.28 321.286 1498.14 320.858L1499.14 322.027L1500.09 320.984C1500.09 320.984 1505.91 321.735 1508.77 320.984C1511.63 320.232 1514.6 322.027 1516.08 322.027C1516.08 322.027 1522.43 314.409 1521.8 310.486C1521.16 306.573 1520.74 305.404 1520.74 305.404C1520.74 305.404 1521.94 306.5 1522.58 306.291C1523.38 306.019 1523.39 305.404 1523.39 305.404C1523.39 305.404 1529.57 317.895 1529.43 328.059C1529.43 328.059 1522.37 339.788 1513.02 340.445C1502.54 341.186 1497.1 337.106 1497.1 337.106C1495.3 331.836 1496.19 326.89 1496.19 326.89C1494.85 325.565 1493.71 325.033 1493.71 325.033C1493.1 323.457 1493.23 320.368 1493.23 320.368Z" fill="#323433"/>
<path d="M1488.77 291.014C1488.77 291.014 1483.48 288.509 1484.46 282.436C1485.45 276.362 1489.96 274.244 1493.2 272.418C1493.2 272.418 1499.82 266.772 1512.12 266.063C1526.95 265.218 1541.34 272.981 1537.97 284.429C1537.97 284.429 1517.06 275.528 1512.12 288.582C1512.13 288.572 1497.73 296.899 1488.77 291.014Z" fill="#323433"/>
<path d="M1523.82 301.014C1523.82 301.014 1528.47 292.071 1531.58 295.035C1534.69 297.999 1533.83 302.371 1532.78 306.535C1531.73 310.698 1531.37 309.989 1529.39 311.898C1527.42 313.808 1525.32 315.728 1524.59 313.662C1523.86 311.596 1524.21 309.947 1524.21 309.947" fill="white"/>
<path d="M1523.82 301.014C1523.82 301.014 1528.47 292.071 1531.58 295.035C1534.69 297.999 1533.83 302.371 1532.78 306.535C1531.73 310.698 1531.37 309.989 1529.39 311.898C1527.42 313.808 1525.32 315.728 1524.59 313.662C1523.86 311.596 1524.21 309.947 1524.21 309.947" stroke="#323433" stroke-width="1.76998" stroke-miterlimit="10" stroke-linecap="round" stroke-linejoin="round"/>
<path d="M1510.74 327.224C1502.43 327.432 1499.64 326.191 1499.64 326.191C1499.25 326.723 1498.71 326.587 1498.71 326.587L1500.09 329.446C1500.09 329.446 1501.47 330.292 1505.05 330.292C1508.06 330.292 1510.74 327.224 1510.74 327.224Z" fill="white"/>
<path opacity="0.2" d="M1503.6 288.791C1503.6 288.791 1500.2 282.018 1509.11 277.886C1518 273.754 1532.4 275.34 1535.89 280.004" stroke="white" stroke-width="1.76998" stroke-miterlimit="10" stroke-linecap="round" stroke-linejoin="round"/>
<path opacity="0.2" d="M1494.4 290.054C1494.4 290.054 1484.63 289.626 1491.89 280.098C1499.15 270.571 1514.5 267.607 1514.5 267.607" stroke="white" stroke-width="1.76998" stroke-miterlimit="10" stroke-linecap="round" stroke-linejoin="round"/>
<path d="M1554.07 341.015C1554.07 341.015 1552.18 353.547 1539.86 360.374C1539.86 360.374 1533.04 350.468 1529.46 350.694C1527.71 350.808 1525.03 356.039 1525.03 356.039" stroke="#323433" stroke-width="1.76998" stroke-miterlimit="10" stroke-linecap="round" stroke-linejoin="round"/>
<path d="M1502.11 346.459C1500.86 351.32 1501.72 360.979 1501.72 360.979C1501.72 360.979 1504.74 351.341 1505.94 350.39C1508.11 348.689 1514.74 357.037 1514.74 357.037" stroke="#323433" stroke-width="1.76998" stroke-miterlimit="10" stroke-linecap="round" stroke-linejoin="round"/>
<path d="M1519.51 360.373L1514.74 363.629C1514.74 363.629 1520.14 369.859 1519.51 375.523C1518.87 381.187 1520.79 393.646 1520.79 393.646" stroke="#323433" stroke-width="1.76998" stroke-miterlimit="10" stroke-linecap="round" stroke-linejoin="round"/>
<path d="M1471.9 417.635C1477.54 428.813 1475.76 439.167 1475.76 439.167C1475.76 439.167 1468.49 449.29 1462.87 450.815C1449.25 454.493 1441.05 424.164 1424.69 383.441C1423.64 380.829 1432.95 367.028 1432.95 367.028L1459.94 409.152C1459.94 409.141 1467.94 409.81 1471.9 417.635Z" fill="white" stroke="#323433" stroke-width="1.76998" stroke-miterlimit="10" stroke-linecap="round" stroke-linejoin="round"/>
<path d="M1432.03 369.925L1425.08 360.585C1425.08 360.585 1414.63 354.596 1413.48 358.185C1411.78 363.549 1403.23 365.125 1403.23 365.125C1403.98 367.869 1412.34 380.099 1417.07 382.844C1421.81 385.588 1422.25 386.423 1424.24 386.955C1429.2 388.281 1430.38 384.733 1430.38 384.733" fill="white"/>
<path d="M1432.03 369.925L1425.08 360.585C1425.08 360.585 1414.63 354.596 1413.48 358.185C1411.78 363.549 1403.23 365.125 1403.23 365.125C1403.98 367.869 1412.34 380.099 1417.07 382.844C1421.81 385.588 1422.25 386.423 1424.24 386.955C1429.2 388.281 1430.38 384.733 1430.38 384.733" stroke="#323433" stroke-width="1.76998" stroke-miterlimit="10" stroke-linecap="round" stroke-linejoin="round"/>
<path d="M1376.8 410.821C1376.8 410.821 1338.68 375.404 1386.03 362.61C1433.37 349.817 1420.92 396.671 1420.92 396.671L1417.76 397.214C1417.76 397.214 1430.16 355.285 1387.59 366.221C1345.03 377.147 1378.53 408.682 1378.53 408.682L1376.8 410.821Z" fill="#757575" stroke="#323433" stroke-width="1.76998" stroke-miterlimit="10" stroke-linecap="round" stroke-linejoin="round"/>
<path d="M1427.47 376.332C1419.47 372.43 1422.25 365.281 1414.47 360.773C1412.37 359.563 1405.62 360.293 1403.47 358.801C1400.26 356.558 1401.41 355.013 1401.46 354.742C1401.56 354.126 1403.82 356.13 1411.5 353.959C1414.57 353.093 1422.96 355.723 1425.6 358.018C1431.78 363.382 1437.15 369.706 1436.57 374.652C1436.24 377.501 1433.06 378.649 1433.06 378.649" fill="white"/>
<path d="M1427.47 376.332C1419.47 372.43 1422.25 365.281 1414.47 360.773C1412.37 359.563 1405.62 360.293 1403.47 358.801C1400.26 356.558 1401.41 355.013 1401.46 354.742C1401.56 354.126 1403.82 356.13 1411.5 353.959C1414.57 353.093 1422.96 355.723 1425.6 358.018C1431.78 363.382 1437.15 369.706 1436.57 374.652C1436.24 377.501 1433.06 378.649 1433.06 378.649" stroke="#323433" stroke-width="1.76998" stroke-miterlimit="10" stroke-linecap="round" stroke-linejoin="round"/>
<path d="M1404.51 364.228C1404.51 364.228 1411.22 362.589 1413.37 362.6C1416.31 362.621 1417.24 363.048 1417.94 364.301C1418.64 365.553 1417.81 367.087 1417.81 367.087C1417.81 367.087 1419.69 367.963 1420.23 369.581C1420.75 371.198 1419.56 373.025 1419.56 373.025C1419.56 373.025 1421.51 373.567 1422.6 374.882C1424.03 376.583 1422.77 377.981 1422.77 377.981C1422.77 377.981 1426.55 380.569 1424.45 382.114C1422.35 383.658 1416.62 385.985 1414.05 385.735C1411.46 385.474 1395.04 365.678 1404.51 364.228Z" fill="white" stroke="#323433" stroke-width="1.76998" stroke-miterlimit="10" stroke-linecap="round" stroke-linejoin="round"/>
<path d="M1417.81 367.097C1417.81 367.097 1407.14 370.363 1404.22 370.29" stroke="#323433" stroke-width="1.76998" stroke-miterlimit="10" stroke-linecap="round" stroke-linejoin="round"/>
<path d="M1419.53 373.025C1419.53 373.025 1410.45 376.291 1408.59 376.656" stroke="#323433" stroke-width="1.76998" stroke-miterlimit="10" stroke-linecap="round" stroke-linejoin="round"/>
<path d="M1422.76 377.981C1422.76 377.981 1415.79 380.851 1412.77 381.446" stroke="#323433" stroke-width="1.76998" stroke-miterlimit="10" stroke-linecap="round" stroke-linejoin="round"/>
<path d="M1376.1 405.426C1376.1 405.426 1387.77 385.432 1416.75 389.001L1440.6 438.631C1440.6 438.631 1425.63 467.026 1383.3 460.295L1376.1 405.426Z" fill="#757575" stroke="#323433" stroke-width="1.76998" stroke-miterlimit="10" stroke-linecap="round" stroke-linejoin="round"/>
<path d="M1387.33 445.111C1387.33 445.111 1361.81 426.182 1344.53 445.466L1352.37 451.341C1352.37 451.341 1360.41 434.426 1387.59 455.307" fill="#757575"/>
<path d="M1387.33 445.111C1387.33 445.111 1361.81 426.182 1344.53 445.466L1352.37 451.341C1352.37 451.341 1360.41 434.426 1387.59 455.307" stroke="#323433" stroke-width="1.76998" stroke-miterlimit="10" stroke-linecap="round" stroke-linejoin="round"/>
<path d="M1378.53 405.635C1378.53 405.635 1406.05 408.348 1414.57 390.368L1378.53 405.635Z" fill="#757575"/>
<path d="M1378.53 405.635C1378.53 405.635 1406.05 408.348 1414.57 390.368" stroke="#323433" stroke-width="1.76998" stroke-miterlimit="10" stroke-linecap="round" stroke-linejoin="round"/>
<path d="M1330 447.157C1330 447.157 1340.84 439.549 1350.44 445.143C1360.03 450.746 1357.78 460.816 1357.78 460.816C1357.78 460.816 1343.35 461.933 1330 447.157Z" fill="#757575" stroke="#323433" stroke-width="1.76998" stroke-miterlimit="10" stroke-linecap="round" stroke-linejoin="round"/>
<path d="M1335.31 447.198C1335.31 447.198 1352.14 451.696 1357.79 460.827" stroke="#323433" stroke-width="1.76998" stroke-miterlimit="10" stroke-linecap="round" stroke-linejoin="round"/>
<path d="M1400.31 392.831L1398.36 384.701C1398.36 384.701 1387.49 384.409 1383.77 390.66L1388.61 397.067" fill="#757575"/>
<path d="M1400.31 392.831L1398.36 384.701C1398.36 384.701 1387.49 384.409 1383.77 390.66L1388.61 397.067" stroke="#323433" stroke-width="1.76998" stroke-miterlimit="10" stroke-linecap="round" stroke-linejoin="round"/>
<path d="M1399.7 394.531C1399.7 394.531 1396.86 396.274 1392.73 396.671" stroke="#323433" stroke-width="1.76998" stroke-miterlimit="10" stroke-linecap="round" stroke-linejoin="round"/>
<path d="M1390.59 446.729C1390.59 446.729 1393.04 450.058 1389.96 454.294" stroke="#323433" stroke-width="1.76998" stroke-miterlimit="10" stroke-linecap="round" stroke-linejoin="round"/>
<path d="M1573.1 357.003C1562.36 357.304 1534.13 408.835 1534.13 408.835C1526.48 411.724 1530.13 418.386 1530.13 418.386C1530.13 418.386 1548.06 441.054 1551.47 442.988C1559.86 447.769 1562.83 439.402 1562.83 439.402C1562.83 439.402 1598.12 407.504 1595.69 381.531C1593.24 355.558 1585.24 356.14 1585.24 356.14" fill="#E9761A"/>
<path d="M1573.1 357.003C1562.36 357.304 1534.13 408.835 1534.13 408.835C1526.48 411.724 1530.13 418.386 1530.13 418.386C1530.13 418.386 1548.06 441.054 1551.47 442.988C1559.86 447.769 1562.83 439.402 1562.83 439.402C1562.83 439.402 1598.12 407.504 1595.69 381.531C1593.24 355.558 1585.24 356.14 1585.24 356.14" stroke="#323433" stroke-width="1.76998" stroke-miterlimit="10" stroke-linecap="round" stroke-linejoin="round"/>
<path d="M1531.64 416.635L1520.92 428.234C1498.13 426.01 1456.58 443.32 1444.57 437.024C1437.59 433.36 1420.82 437.129 1418.32 438.392C1415.82 439.655 1410.54 446.212 1412.5 447.057C1414.46 447.903 1418.79 443.988 1421.19 444.343C1423.59 444.698 1427.92 444.291 1427.92 444.291C1427.92 444.291 1417.35 454.365 1414.99 454.804C1412.62 455.242 1400.63 460.368 1404.97 461.266C1411.06 462.519 1413.38 461.893 1413.38 461.893C1413.38 461.893 1418.88 465.808 1422.97 466.225C1425.1 466.445 1436.61 464.357 1436.61 464.357L1447.16 454.261C1447.16 454.261 1517.4 457.925 1529.76 452.716C1545.88 445.93 1551.04 440.323 1551.04 440.323C1551.04 440.323 1544.22 420.466 1531.64 416.635Z" fill="white" stroke="#323433" stroke-width="1.76998" stroke-miterlimit="10" stroke-linecap="round" stroke-linejoin="round"/>
<path d="M1526.84 502.539C1526.84 502.539 1524.18 517.813 1525.24 523.298C1526.29 528.783 1524 534.414 1520.79 534.602" stroke="#323433" stroke-width="1.76998" stroke-miterlimit="10" stroke-linecap="round" stroke-linejoin="round"/>
<path d="M1575.84 497.699C1575.84 497.699 1580.45 523.406 1587.94 525.528" stroke="#323433" stroke-width="1.76998" stroke-miterlimit="10" stroke-linecap="round" stroke-linejoin="round"/>
<path d="M1584.92 494.675C1584.92 494.675 1588.67 510.882 1588.02 533.253C1587.38 555.624 1592.68 600.471 1593.17 605.947C1593.66 611.422 1593.17 618.086 1593.17 618.086" stroke="#323433" stroke-width="1.76998" stroke-miterlimit="10" stroke-linecap="round" stroke-linejoin="round"/>
<path d="M1543.18 530.972C1541.2 531.839 1516.96 539.145 1512.32 544.886" stroke="#323433" stroke-width="1.76998" stroke-miterlimit="10" stroke-linecap="round" stroke-linejoin="round"/>
<path d="M1526.84 545.491C1526.84 545.491 1543.96 565.811 1552.25 567.875" stroke="#323433" stroke-width="1.76998" stroke-miterlimit="10" stroke-linecap="round" stroke-linejoin="round"/>
<path d="M1519.59 547.306C1519.59 547.306 1493.32 572.933 1488.73 570.072" stroke="#323433" stroke-width="1.76998" stroke-miterlimit="10" stroke-linecap="round" stroke-linejoin="round"/>
<path d="M1520.82 466.242C1520.82 466.242 1522.46 474.413 1520.82 479.368C1519.19 484.333 1520.97 491.828 1523.21 492.255" stroke="#323433" stroke-width="1.76998" stroke-miterlimit="10" stroke-linecap="round" stroke-linejoin="round"/>
<path d="M1460.3 408.771C1460.3 408.771 1468.77 417.954 1468.77 425.104" stroke="#323433" stroke-width="1.76998" stroke-miterlimit="10" stroke-linecap="round" stroke-linejoin="round"/>
<path d="M1354.55 466.003C1354.55 466.003 1353.86 468.226 1352.89 472.034" stroke="#323433" stroke-width="1.76998" stroke-linecap="round" stroke-linejoin="round"/>
<path d="M1351.4 478.233C1350.77 481.019 1350.11 484.17 1349.5 487.614" stroke="#323433" stroke-width="1.76998" stroke-linecap="round" stroke-linejoin="round" stroke-dasharray="5.41 5.41"/>
<path d="M1348.95 490.766C1348.62 492.759 1348.31 494.835 1348.02 496.964" stroke="#323433" stroke-width="1.76998" stroke-linecap="round" stroke-linejoin="round"/>
<path d="M1340.34 460.566C1340.34 460.566 1339.06 462.559 1337.2 465.971" stroke="#323433" stroke-width="1.76998" stroke-linecap="round" stroke-linejoin="round"/>
<path d="M1333.12 474.038C1331.41 477.721 1329.62 481.99 1328.04 486.591" stroke="#323433" stroke-width="1.76998" stroke-linecap="round" stroke-linejoin="round" stroke-dasharray="7.66 7.66"/>
<path d="M1326.66 490.901C1326.07 492.884 1325.53 494.908 1325.07 496.954" stroke="#323433" stroke-width="1.76998" stroke-linecap="round" stroke-linejoin="round"/>
<path d="M1330 451.967C1329.39 452.082 1327.33 453.126 1324.55 455.014" stroke="#323433" stroke-width="1.76998" stroke-linecap="round" stroke-linejoin="round"/>
<path d="M1318.92 459.345C1316.47 461.443 1313.88 463.978 1311.42 466.911" stroke="#323433" stroke-width="1.76998" stroke-linecap="round" stroke-linejoin="round" stroke-dasharray="6.03 6.03"/>
<path d="M1309.2 469.697C1307.98 471.335 1306.82 473.078 1305.75 474.925" stroke="#323433" stroke-width="1.76998" stroke-linecap="round" stroke-linejoin="round"/>
<path d="M1534.1 408.771C1541.86 409.969 1553.21 424.425 1555.28 429.944" stroke="#323433" stroke-width="1.76998" stroke-miterlimit="10" stroke-linecap="round" stroke-linejoin="round"/>
<path d="M1459.09 402.939C1459.09 402.939 1468.78 400.958 1473.74 408.926C1478.7 416.904 1480.26 425.104 1480.26 425.104" stroke="#323433" stroke-width="1.76998" stroke-miterlimit="10" stroke-linecap="round" stroke-linejoin="round"/>
<path d="M1520.79 415.425C1520.79 415.425 1521.74 423.321 1521.26 428.129" stroke="#323433" stroke-width="1.76998" stroke-miterlimit="10" stroke-linecap="round" stroke-linejoin="round"/>
<path d="M1521.4 367.633C1522.07 367.633 1522.61 367.091 1522.61 366.423C1522.61 365.755 1522.07 365.213 1521.4 365.213C1520.73 365.213 1520.19 365.755 1520.19 366.423C1520.19 367.091 1520.73 367.633 1521.4 367.633Z" fill="#263238"/>
<path d="M1522.61 398.486C1523.28 398.486 1523.82 397.945 1523.82 397.276C1523.82 396.608 1523.28 396.066 1522.61 396.066C1521.94 396.066 1521.4 396.608 1521.4 397.276C1521.4 397.945 1521.94 398.486 1522.61 398.486Z" fill="#263238"/>
<path d="M1251.84 618.226H1638.58" stroke="#323433" stroke-width="1.76998" stroke-miterlimit="10" stroke-linecap="round" stroke-linejoin="round"/>
<path d="M1213.61 531.014C1213.61 531.014 1187.18 529.981 1183.25 508.286" stroke="#323433" stroke-width="1.76998" stroke-miterlimit="10" stroke-linecap="round" stroke-linejoin="round"/>
<path d="M1204.67 557.916C1204.67 557.916 1221.51 552 1210.54 518.701C1199.57 485.402 1213.62 486.132 1219.87 469.29C1226.13 452.447 1216.89 441.041 1216.89 441.041" stroke="#323433" stroke-width="1.76998" stroke-miterlimit="10" stroke-linecap="round" stroke-linejoin="round"/>
<mask id="path-118-inside-1_802_36" fill="white">
<path fill-rule="evenodd" clip-rule="evenodd" d="M1260.71 553.847C1262.01 553.847 1263.05 552.803 1263.05 551.52H1263.06V547.836C1263.06 546.552 1262.01 545.509 1260.72 545.509H1162.13C1160.84 545.509 1159.79 546.552 1159.79 547.836V551.52C1159.79 552.803 1160.85 553.847 1162.13 553.847H1164.5C1166.13 566.123 1170.9 602.059 1172.47 613.943C1172.82 616.563 1174.91 617.857 1177.43 617.857H1209.86H1212.99H1245.43C1247.95 617.857 1250.03 616.563 1250.38 613.943C1251.96 602.059 1256.73 566.123 1258.36 553.847H1260.71Z"/>
</mask>
<path fill-rule="evenodd" clip-rule="evenodd" d="M1260.71 553.847C1262.01 553.847 1263.05 552.803 1263.05 551.52H1263.06V547.836C1263.06 546.552 1262.01 545.509 1260.72 545.509H1162.13C1160.84 545.509 1159.79 546.552 1159.79 547.836V551.52C1159.79 552.803 1160.85 553.847 1162.13 553.847H1164.5C1166.13 566.123 1170.9 602.059 1172.47 613.943C1172.82 616.563 1174.91 617.857 1177.43 617.857H1209.86H1212.99H1245.43C1247.95 617.857 1250.03 616.563 1250.38 613.943C1251.96 602.059 1256.73 566.123 1258.36 553.847H1260.71Z" fill="#757575"/>
<path d="M1263.05 551.52V549.75H1261.28V551.52H1263.05ZM1263.06 551.52V553.29H1264.83V551.52H1263.06ZM1164.5 553.847L1166.26 553.614L1166.05 552.077H1164.5V553.847ZM1172.47 613.943L1174.23 613.713L1174.23 613.711L1172.47 613.943ZM1250.38 613.943L1252.14 614.181L1252.14 614.176L1250.38 613.943ZM1258.36 553.847V552.077H1256.81L1256.6 553.614L1258.36 553.847ZM1261.28 551.52C1261.28 551.82 1261.03 552.077 1260.71 552.077V555.617C1262.98 555.617 1264.82 553.786 1264.82 551.52H1261.28ZM1263.06 549.75H1263.05V553.29H1263.06V549.75ZM1261.29 547.836V551.52H1264.83V547.836H1261.29ZM1260.72 547.279C1261.04 547.279 1261.29 547.54 1261.29 547.836H1264.83C1264.83 545.565 1262.97 543.739 1260.72 543.739V547.279ZM1162.13 547.279H1260.72V543.739H1162.13V547.279ZM1161.56 547.836C1161.56 547.535 1161.81 547.279 1162.13 547.279V543.739C1159.86 543.739 1158.02 545.57 1158.02 547.836H1161.56ZM1161.56 551.52V547.836H1158.02V551.52H1161.56ZM1162.13 552.077C1161.81 552.077 1161.56 551.815 1161.56 551.52H1158.02C1158.02 553.791 1159.88 555.617 1162.13 555.617V552.077ZM1164.5 552.077H1162.13V555.617H1164.5V552.077ZM1162.75 554.08C1164.38 566.356 1169.15 602.292 1170.72 614.176L1174.23 613.711C1172.65 601.826 1167.89 565.89 1166.26 553.614L1162.75 554.08ZM1170.72 614.174C1170.95 615.941 1171.8 617.358 1173.08 618.305C1174.33 619.23 1175.88 619.627 1177.43 619.627V616.087C1176.46 616.087 1175.7 615.836 1175.19 615.459C1174.71 615.105 1174.34 614.565 1174.23 613.713L1170.72 614.174ZM1177.43 619.627H1209.86V616.087H1177.43V619.627ZM1209.86 619.627H1212.99V616.087H1209.86V619.627ZM1212.99 619.627H1245.43V616.087H1212.99V619.627ZM1245.43 619.627C1246.98 619.627 1248.52 619.23 1249.77 618.305C1251.05 617.357 1251.9 615.942 1252.14 614.181L1248.63 613.706C1248.51 614.564 1248.14 615.106 1247.67 615.46C1247.16 615.837 1246.4 616.087 1245.43 616.087V619.627ZM1252.14 614.176C1253.71 602.292 1258.48 566.356 1260.11 554.08L1256.6 553.614C1254.97 565.89 1250.2 601.826 1248.63 613.711L1252.14 614.176ZM1260.71 552.077H1258.36V555.617H1260.71V552.077Z" fill="#323433" mask="url(#path-118-inside-1_802_36)"/>
<path d="M1169.18 553.857H1218.92" stroke="#323433" stroke-width="1.76998" stroke-miterlimit="10" stroke-linecap="round" stroke-linejoin="round"/>
<path d="M1225.18 553.857H1229.01" stroke="#323433" stroke-width="1.76998" stroke-miterlimit="10" stroke-linecap="round" stroke-linejoin="round"/>
<path d="M1251.97 553.857H1245.01" stroke="#323433" stroke-width="1.76998" stroke-miterlimit="10" stroke-linecap="round" stroke-linejoin="round"/>
<path d="M1203.61 570.199H1208.83" stroke="#323433" stroke-width="1.76998" stroke-miterlimit="10" stroke-linecap="round" stroke-linejoin="round"/>
<path d="M1211.43 599.595C1221.32 599.595 1229.35 591.573 1229.35 581.677C1229.35 571.782 1221.32 563.76 1211.43 563.76C1201.53 563.76 1193.51 571.782 1193.51 581.677C1193.51 591.573 1201.53 599.595 1211.43 599.595Z" fill="#F9C13D" stroke="#323433" stroke-width="1.32749" stroke-miterlimit="10" stroke-linecap="round" stroke-linejoin="round"/>
<path d="M1209.2 514.37C1209.2 514.37 1212.77 495.826 1227.76 494.376C1242.74 492.925 1244.51 481.186 1244.51 481.186" stroke="#323433" stroke-width="1.76998" stroke-miterlimit="10" stroke-linecap="round" stroke-linejoin="round"/>
<path d="M1210.72 482.219C1210.72 482.219 1207.07 480.466 1193.57 472.253C1180.07 464.03 1180.59 450.924 1180.59 450.924" stroke="#323433" stroke-width="1.76998" stroke-miterlimit="10" stroke-linecap="round" stroke-linejoin="round"/>
<path d="M1243.95 483.189C1243.89 483.93 1255.07 475.874 1265.9 481.008C1265.9 481.008 1254.6 491.266 1243.68 484.89C1232.77 478.504 1234.31 462.872 1234.31 462.872C1234.31 462.872 1244.82 470.25 1243.95 483.189Z" fill="#B8E341" stroke="#323433" stroke-width="1.76998" stroke-miterlimit="10" stroke-linecap="round" stroke-linejoin="round"/>
<path d="M1218.51 442.523C1218.86 443.17 1223.88 430.345 1235.77 428.769C1235.77 428.769 1231.84 443.525 1219.22 444.078C1206.59 444.641 1199.4 430.669 1199.4 430.669C1199.4 430.669 1212.21 431.169 1218.51 442.523Z" fill="#B8E341" stroke="#323433" stroke-width="1.76998" stroke-miterlimit="10" stroke-linecap="round" stroke-linejoin="round"/>
<path d="M1182.35 455.974C1182.81 456.559 1185.73 443.097 1197.22 439.674C1197.22 439.674 1195.67 454.858 1183.29 457.404C1170.9 459.95 1161.6 447.292 1161.6 447.292C1161.6 447.292 1174.34 445.758 1182.35 455.974Z" fill="#B8E341" stroke="#323433" stroke-width="1.76998" stroke-miterlimit="10" stroke-linecap="round" stroke-linejoin="round"/>
<path d="M1184.75 512.784C1185.31 513.285 1185.88 499.52 1196.62 494.178C1196.62 494.178 1197.69 509.403 1185.93 514.036C1174.17 518.669 1162.84 507.785 1162.84 507.785C1162.84 507.785 1175.13 504.081 1184.75 512.784Z" fill="#B8E341" stroke="#323433" stroke-width="1.76998" stroke-miterlimit="10" stroke-linecap="round" stroke-linejoin="round"/>
<path d="M1337.58 554.838C1337.58 554.838 1343.84 542.837 1328.85 532.402C1313.84 521.967 1310.59 511.156 1313 502.995" stroke="#323433" stroke-width="1.76998" stroke-miterlimit="10" stroke-linecap="round" stroke-linejoin="round"/>
<path d="M1335.1 538.194C1335.1 538.194 1333.34 530.378 1347.07 524.868C1360.79 519.358 1362.83 502.995 1362.83 502.995" stroke="#323433" stroke-width="1.76998" stroke-miterlimit="10" stroke-linecap="round" stroke-linejoin="round"/>
<path d="M1320.63 489.889C1322.83 489.878 1322.45 503.705 1312.28 506.314C1312.28 506.314 1307.32 504.759 1306.54 498.101C1305.76 491.443 1310.41 488.522 1310.41 488.522C1310.41 488.522 1311.62 492.623 1313 494.772C1312.99 494.772 1316.45 489.909 1320.63 489.889Z" fill="#B8E341" stroke="#323433" stroke-width="1.76998" stroke-miterlimit="10" stroke-linecap="round" stroke-linejoin="round"/>
<path d="M1312.99 494.772C1312.99 494.772 1310.17 497.11 1312.21 501.357L1312.99 494.772Z" fill="#B8E341"/>
<path d="M1312.99 494.772C1312.99 494.772 1310.17 497.11 1312.21 501.357" stroke="#323433" stroke-width="1.76998" stroke-miterlimit="10" stroke-linecap="round" stroke-linejoin="round"/>
<path d="M1362.12 506.314C1362.12 506.314 1354.82 499.667 1357.01 494.772C1359.2 489.878 1363.92 487.603 1363.92 487.603C1363.92 487.603 1365.49 490.64 1366.4 492.091L1370.15 489.899C1370.15 489.889 1377.81 504.749 1362.12 506.314Z" fill="#B8E341" stroke="#323433" stroke-width="1.76998" stroke-miterlimit="10" stroke-linecap="round" stroke-linejoin="round"/>
<path d="M1366.4 492.09C1366.4 492.09 1370.96 499.416 1365.22 502.995L1366.4 492.09Z" fill="#B8E341"/>
<path d="M1366.4 492.09C1366.4 492.09 1370.96 499.416 1365.22 502.995" stroke="#323433" stroke-width="1.76998" stroke-miterlimit="10" stroke-linecap="round" stroke-linejoin="round"/>
<path d="M1339.95 528.843C1339.95 528.843 1332.89 511.104 1338.74 491.214" stroke="#323433" stroke-width="1.76998" stroke-miterlimit="10" stroke-linecap="round" stroke-linejoin="round"/>
<path d="M1339.07 491.329C1339.07 491.329 1348.48 488.302 1348.52 482.949C1348.56 477.585 1345.2 473.557 1345.2 473.557C1345.2 473.557 1342.51 475.676 1341.08 476.605L1338.58 473.057C1338.58 473.057 1325.45 483.398 1339.07 491.329Z" fill="#B8E341" stroke="#323433" stroke-width="1.76998" stroke-miterlimit="10" stroke-linecap="round" stroke-linejoin="round"/>
<path d="M1341.08 476.615C1341.08 476.615 1333.89 481.394 1337.62 487.029L1341.08 476.615Z" fill="#B8E341"/>
<path d="M1341.08 476.615C1341.08 476.615 1333.89 481.394 1337.62 487.029" stroke="#323433" stroke-width="1.76998" stroke-miterlimit="10" stroke-linecap="round" stroke-linejoin="round"/>
<mask id="path-143-inside-2_802_36" fill="white">
<path fill-rule="evenodd" clip-rule="evenodd" d="M1385.94 553.847C1387.23 553.847 1388.28 552.803 1388.28 551.519V547.836C1388.28 546.552 1387.22 545.509 1385.94 545.509H1287.35C1286.05 545.509 1285.01 546.552 1285.01 547.836V551.519C1285.01 552.803 1286.06 553.847 1287.35 553.847H1289.73C1291.36 566.123 1296.13 602.059 1297.7 613.943C1298.04 616.562 1300.13 617.856 1302.66 617.856H1335.09H1338.22H1370.65C1373.18 617.856 1375.25 616.562 1375.61 613.943C1377.18 602.059 1381.95 566.123 1383.58 553.847H1385.94Z"/>
</mask>
<path fill-rule="evenodd" clip-rule="evenodd" d="M1385.94 553.847C1387.23 553.847 1388.28 552.803 1388.28 551.519V547.836C1388.28 546.552 1387.22 545.509 1385.94 545.509H1287.35C1286.05 545.509 1285.01 546.552 1285.01 547.836V551.519C1285.01 552.803 1286.06 553.847 1287.35 553.847H1289.73C1291.36 566.123 1296.13 602.059 1297.7 613.943C1298.04 616.562 1300.13 617.856 1302.66 617.856H1335.09H1338.22H1370.65C1373.18 617.856 1375.25 616.562 1375.61 613.943C1377.18 602.059 1381.95 566.123 1383.58 553.847H1385.94Z" fill="#757575"/>
<path d="M1289.73 553.847L1291.48 553.614L1291.28 552.077H1289.73V553.847ZM1297.7 613.943L1299.45 613.713L1299.45 613.711L1297.7 613.943ZM1375.61 613.943L1377.36 614.181L1377.36 614.176L1375.61 613.943ZM1383.58 553.847V552.077H1382.03L1381.83 553.614L1383.58 553.847ZM1386.51 551.519C1386.51 551.82 1386.26 552.077 1385.94 552.077V555.616C1388.2 555.616 1390.05 553.786 1390.05 551.519H1386.51ZM1386.51 547.836V551.519H1390.05V547.836H1386.51ZM1385.94 547.279C1386.25 547.279 1386.51 547.54 1386.51 547.836H1390.05C1390.05 545.564 1388.19 543.739 1385.94 543.739V547.279ZM1287.35 547.279H1385.94V543.739H1287.35V547.279ZM1286.78 547.836C1286.78 547.535 1287.02 547.279 1287.35 547.279V543.739C1285.08 543.739 1283.24 545.57 1283.24 547.836H1286.78ZM1286.78 551.519V547.836H1283.24V551.519H1286.78ZM1287.35 552.077C1287.03 552.077 1286.78 551.815 1286.78 551.519H1283.24C1283.24 553.791 1285.09 555.616 1287.35 555.616V552.077ZM1289.73 552.077H1287.35V555.616H1289.73V552.077ZM1287.97 554.079C1289.6 566.356 1294.37 602.292 1295.94 614.176L1299.45 613.711C1297.88 601.826 1293.11 565.89 1291.48 553.614L1287.97 554.079ZM1295.94 614.174C1296.18 615.941 1297.03 617.357 1298.31 618.305C1299.56 619.23 1301.1 619.626 1302.66 619.626V616.086C1301.68 616.086 1300.92 615.836 1300.41 615.459C1299.93 615.105 1299.57 614.565 1299.45 613.713L1295.94 614.174ZM1302.66 619.626H1335.09V616.086H1302.66V619.626ZM1335.09 619.626H1338.22V616.086H1335.09V619.626ZM1338.22 619.626H1370.65V616.086H1338.22V619.626ZM1370.65 619.626C1372.2 619.626 1373.75 619.229 1375 618.305C1376.28 617.357 1377.12 615.942 1377.36 614.181L1373.85 613.706C1373.74 614.564 1373.37 615.106 1372.89 615.46C1372.38 615.837 1371.63 616.086 1370.65 616.086V619.626ZM1377.36 614.176C1378.94 602.292 1383.71 566.356 1385.34 554.079L1381.83 553.614C1380.2 565.89 1375.43 601.826 1373.85 613.711L1377.36 614.176ZM1385.94 552.077H1383.58V555.616H1385.94V552.077Z" fill="#323433" mask="url(#path-143-inside-2_802_36)"/>
<path d="M1294.4 553.857H1344.15" stroke="#323433" stroke-width="1.76998" stroke-miterlimit="10" stroke-linecap="round" stroke-linejoin="round"/>
<path d="M1350.41 553.857H1354.24" stroke="#323433" stroke-width="1.76998" stroke-miterlimit="10" stroke-linecap="round" stroke-linejoin="round"/>
<path d="M1377.19 553.857H1370.23" stroke="#323433" stroke-width="1.76998" stroke-miterlimit="10" stroke-linecap="round" stroke-linejoin="round"/>
<path d="M1328.84 570.199H1334.05" stroke="#323433" stroke-width="1.76998" stroke-miterlimit="10" stroke-linecap="round" stroke-linejoin="round"/>
<path d="M1336.65 599.595C1346.55 599.595 1354.57 591.573 1354.57 581.678C1354.57 571.782 1346.55 563.76 1336.65 563.76C1326.76 563.76 1318.73 571.782 1318.73 581.678C1318.73 591.573 1326.76 599.595 1336.65 599.595Z" fill="#F9C13D" stroke="#323433" stroke-width="1.32749" stroke-miterlimit="10" stroke-linecap="round" stroke-linejoin="round"/>
<path d="M1461.88 558.835C1461.88 558.835 1457.13 546.657 1461.88 531.004" stroke="#323433" stroke-width="1.76998" stroke-miterlimit="10" stroke-linecap="round" stroke-linejoin="round"/>
<path d="M1461.87 517.793C1461.87 517.793 1476.74 527.884 1459.76 537.964C1459.76 537.964 1442.93 527.884 1461.87 517.793Z" fill="#B8E341" stroke="#323433" stroke-width="1.76998" stroke-miterlimit="10" stroke-linecap="round" stroke-linejoin="round"/>
<path d="M1461.88 517.793C1461.88 517.793 1464.43 521.622 1461.88 525.097C1459.32 528.572 1460.38 532.976 1460.38 532.976" stroke="#323433" stroke-width="1.76998" stroke-miterlimit="10" stroke-linecap="round" stroke-linejoin="round"/>
<mask id="path-153-inside-3_802_36" fill="white">
<path fill-rule="evenodd" clip-rule="evenodd" d="M1511.16 553.847C1512.45 553.847 1513.5 552.803 1513.5 551.52V547.836C1513.5 546.552 1512.44 545.509 1511.16 545.509H1412.57C1411.28 545.509 1410.24 546.552 1410.24 547.836V551.52C1410.24 552.803 1411.28 553.847 1412.57 553.847H1414.95C1416.57 566.123 1421.34 602.059 1422.92 613.943C1423.26 616.563 1425.35 617.857 1427.88 617.857H1460.31H1463.44H1495.87C1498.4 617.857 1500.47 616.563 1500.83 613.943C1502.4 602.059 1507.17 566.123 1508.8 553.847H1511.16Z"/>
</mask>
<path fill-rule="evenodd" clip-rule="evenodd" d="M1511.16 553.847C1512.45 553.847 1513.5 552.803 1513.5 551.52V547.836C1513.5 546.552 1512.44 545.509 1511.16 545.509H1412.57C1411.28 545.509 1410.24 546.552 1410.24 547.836V551.52C1410.24 552.803 1411.28 553.847 1412.57 553.847H1414.95C1416.57 566.123 1421.34 602.059 1422.92 613.943C1423.26 616.563 1425.35 617.857 1427.88 617.857H1460.31H1463.44H1495.87C1498.4 617.857 1500.47 616.563 1500.83 613.943C1502.4 602.059 1507.17 566.123 1508.8 553.847H1511.16Z" fill="#757575"/>
<path d="M1414.95 553.847L1416.7 553.614L1416.5 552.077H1414.95V553.847ZM1422.92 613.943L1424.67 613.713L1424.67 613.71L1422.92 613.943ZM1500.83 613.943L1502.58 614.181L1502.58 614.176L1500.83 613.943ZM1508.8 553.847V552.077H1507.25L1507.05 553.614L1508.8 553.847ZM1511.73 551.52C1511.73 551.82 1511.48 552.077 1511.16 552.077V555.617C1513.42 555.617 1515.27 553.786 1515.27 551.52H1511.73ZM1511.73 547.836V551.52H1515.27V547.836H1511.73ZM1511.16 547.279C1511.47 547.279 1511.73 547.54 1511.73 547.836H1515.27C1515.27 545.565 1513.41 543.739 1511.16 543.739V547.279ZM1412.57 547.279H1511.16V543.739H1412.57V547.279ZM1412.01 547.836C1412.01 547.53 1412.26 547.279 1412.57 547.279V543.739C1410.3 543.739 1408.47 545.575 1408.47 547.836H1412.01ZM1412.01 551.52V547.836H1408.47V551.52H1412.01ZM1412.57 552.077C1412.26 552.077 1412.01 551.825 1412.01 551.52H1408.47C1408.47 553.781 1410.3 555.617 1412.57 555.617V552.077ZM1414.95 552.077H1412.57V555.617H1414.95V552.077ZM1413.19 554.079C1414.82 566.356 1419.58 602.292 1421.16 614.177L1424.67 613.71C1423.09 601.826 1418.33 565.891 1416.7 553.614L1413.19 554.079ZM1421.16 614.174C1421.4 615.941 1422.25 617.357 1423.53 618.305C1424.78 619.23 1426.32 619.627 1427.88 619.627V616.087C1426.9 616.087 1426.14 615.836 1425.63 615.459C1425.15 615.105 1424.79 614.565 1424.67 613.713L1421.16 614.174ZM1427.88 619.627H1460.31V616.087H1427.88V619.627ZM1460.31 619.627H1463.44V616.087H1460.31V619.627ZM1463.44 619.627H1495.87V616.087H1463.44V619.627ZM1495.87 619.627C1497.42 619.627 1498.97 619.229 1500.22 618.305C1501.5 617.357 1502.34 615.942 1502.58 614.181L1499.08 613.706C1498.96 614.564 1498.59 615.106 1498.11 615.46C1497.6 615.837 1496.85 616.087 1495.87 616.087V619.627ZM1502.58 614.176C1504.16 602.292 1508.93 566.356 1510.56 554.079L1507.05 553.614C1505.42 565.89 1500.65 601.826 1499.07 613.711L1502.58 614.176ZM1511.16 552.077H1508.8V555.617H1511.16V552.077Z" fill="#323433" mask="url(#path-153-inside-3_802_36)"/>
<path d="M1419.62 553.857H1469.37" stroke="#323433" stroke-width="1.76998" stroke-miterlimit="10" stroke-linecap="round" stroke-linejoin="round"/>
<path d="M1475.63 553.857H1479.46" stroke="#323433" stroke-width="1.76998" stroke-miterlimit="10" stroke-linecap="round" stroke-linejoin="round"/>
<path d="M1502.41 553.857H1495.45" stroke="#323433" stroke-width="1.76998" stroke-miterlimit="10" stroke-linecap="round" stroke-linejoin="round"/>
<path d="M1454.06 570.199H1459.28" stroke="#323433" stroke-width="1.76998" stroke-miterlimit="10" stroke-linecap="round" stroke-linejoin="round"/>
<path d="M1461.87 599.595C1471.77 599.595 1479.79 591.573 1479.79 581.678C1479.79 571.782 1471.77 563.76 1461.87 563.76C1451.98 563.76 1443.96 571.782 1443.96 581.678C1443.96 591.573 1451.98 599.595 1461.87 599.595Z" fill="#F9C13D" stroke="#323433" stroke-width="1.32749" stroke-miterlimit="10" stroke-linecap="round" stroke-linejoin="round"/>
<path d="M1173.43 424.036C1172.98 424.283 1172.56 424.577 1172.17 424.915C1170.57 426.283 1169.61 428.358 1169.29 431.141C1168.89 434.694 1169.65 438.357 1171.55 442.131C1173.46 445.905 1175.97 448.687 1179.08 450.478C1181.52 451.889 1183.76 452.358 1185.81 451.883C1186.29 451.788 1186.75 451.638 1187.19 451.437L1187.69 451.187C1190.03 449.905 1191.41 447.54 1191.8 444.093C1192.22 440.547 1191.47 436.881 1189.55 433.097C1187.64 429.313 1185.13 426.531 1182.02 424.751C1179 423.007 1176.27 422.7 1173.84 423.83L1173.43 424.036Z" fill="#F9C13D" stroke="#323433" stroke-width="0.707993"/>
<path d="M1167.74 444.079C1169.61 447.78 1172.05 450.505 1175.07 452.256C1178.03 453.975 1180.7 454.273 1183.08 453.15L1185.99 451.684C1185.57 451.88 1185.12 452.024 1184.66 452.116C1182.67 452.573 1180.49 452.109 1178.11 450.726C1175.09 448.979 1172.64 446.255 1170.77 442.555C1168.91 438.854 1168.17 435.273 1168.56 431.809C1168.86 429.096 1169.79 427.071 1171.34 425.736C1171.72 425.407 1172.13 425.121 1172.57 424.881L1169.57 426.384C1169.52 426.407 1169.46 426.434 1169.41 426.465C1167.19 427.708 1165.89 429.993 1165.52 433.32C1165.13 436.802 1165.87 440.388 1167.74 444.079Z" fill="#F37C40" stroke="#323433" stroke-width="0.707993"/>
<path d="M1252.25 450.988C1251.7 451.052 1251.17 451.167 1250.64 451.334C1248.51 452.004 1246.72 453.539 1245.27 455.94C1243.43 459.006 1242.68 462.582 1243.02 466.665C1243.36 470.749 1244.69 474.15 1247.02 476.867C1248.85 479.005 1250.86 480.222 1253.08 480.519C1253.58 480.602 1254.1 480.63 1254.61 480.602L1255.2 480.553C1258.03 480.225 1260.35 478.576 1262.15 475.603C1264 472.546 1264.76 468.97 1264.42 464.876C1264.08 460.783 1262.75 457.382 1260.41 454.674C1258.15 452.03 1255.59 450.787 1252.73 450.947L1252.25 450.988Z" fill="#F9C13D" stroke="#323433" stroke-width="0.707993"/>
<path d="M1238.93 467.088C1239.27 471.113 1240.58 474.459 1242.86 477.126C1245.11 479.745 1247.64 480.969 1250.46 480.799L1253.97 480.512C1253.47 480.538 1252.96 480.51 1252.46 480.427C1250.3 480.129 1248.31 478.929 1246.52 476.827C1244.23 474.16 1242.92 470.815 1242.58 466.789C1242.24 462.764 1242.97 459.251 1244.78 456.248C1246.2 453.894 1247.95 452.388 1250.04 451.73C1250.55 451.567 1251.08 451.454 1251.61 451.393L1248.02 451.687C1247.95 451.689 1247.89 451.694 1247.82 451.703C1245.1 452.035 1242.87 453.645 1241.14 456.532C1239.33 459.554 1238.59 463.073 1238.93 467.088Z" fill="#F37C40" stroke="#323433" stroke-width="0.707993"/>
<path d="M1221.98 411.79C1221.44 411.798 1220.9 411.856 1220.36 411.964C1218.18 412.399 1216.19 413.704 1214.39 415.878C1212.1 418.657 1210.78 422.035 1210.44 426.013C1210.1 429.99 1210.84 433.408 1212.66 436.265C1214.08 438.511 1215.84 439.887 1217.94 440.394C1218.42 440.525 1218.92 440.603 1219.42 440.628L1220 440.639C1222.81 440.605 1225.33 439.242 1227.56 436.55C1229.86 433.782 1231.19 430.404 1231.53 426.416C1231.87 422.429 1231.13 419.011 1229.31 416.164C1227.54 413.384 1225.26 411.929 1222.46 411.799L1221.98 411.79Z" fill="#F9C13D" stroke="#323433" stroke-width="0.707993"/>
<path d="M1206.34 425.793C1206.01 429.75 1206.73 433.142 1208.49 435.969C1210.22 438.746 1212.46 440.193 1215.2 440.311L1218.62 440.383C1218.13 440.358 1217.65 440.28 1217.19 440.149C1215.15 439.641 1213.44 438.273 1212.06 436.044C1210.29 433.216 1209.57 429.824 1209.89 425.868C1210.22 421.911 1211.5 418.561 1213.73 415.817C1215.47 413.666 1217.4 412.374 1219.52 411.941C1220.04 411.835 1220.56 411.777 1221.09 411.771L1217.58 411.697C1217.52 411.692 1217.46 411.69 1217.39 411.693C1214.72 411.744 1212.31 413.088 1210.17 415.728C1207.94 418.491 1206.66 421.846 1206.34 425.793Z" fill="#F37C40" stroke="#323433" stroke-width="0.707993"/>
<path d="M1183.4 480.823C1182.87 480.822 1182.33 480.873 1181.79 480.973C1179.62 481.375 1177.61 482.654 1175.76 484.808C1173.41 487.561 1172.02 490.931 1171.58 494.918C1171.14 498.905 1171.79 502.347 1173.53 505.242C1174.88 507.519 1176.59 508.928 1178.67 509.469C1179.14 509.608 1179.63 509.694 1180.13 509.726L1180.71 509.747C1183.5 509.756 1186.03 508.427 1188.32 505.76C1190.68 503.018 1192.07 499.648 1192.52 495.651C1192.96 491.654 1192.31 488.213 1190.57 485.327C1188.89 482.509 1186.66 481.014 1183.88 480.84L1183.4 480.823Z" fill="#F9C13D" stroke="#323433" stroke-width="0.707993"/>
<path d="M1167.47 494.599C1167.05 498.56 1167.67 501.972 1169.35 504.834C1171 507.645 1173.18 509.131 1175.89 509.293L1179.28 509.419C1178.8 509.386 1178.32 509.3 1177.86 509.162C1175.86 508.621 1174.2 507.222 1172.88 504.966C1171.2 502.103 1170.57 498.691 1170.99 494.73C1171.42 490.769 1172.77 487.431 1175.04 484.716C1176.83 482.587 1178.77 481.323 1180.88 480.923C1181.4 480.824 1181.92 480.775 1182.44 480.776L1178.96 480.647C1178.9 480.641 1178.84 480.639 1178.78 480.64C1176.13 480.648 1173.71 481.958 1171.53 484.57C1169.24 487.305 1167.89 490.648 1167.47 494.599Z" fill="#F37C40" stroke="#323433" stroke-width="0.707993"/>
<path d="M1219.24 416.757L1215.76 432.69L1217.03 433.478L1223.04 430.087L1217.29 430.505L1221.86 421.413L1219.24 416.757Z" fill="white" stroke="#323433" stroke-width="0.707993"/>
<path d="M1227.62 431.467L1226.58 431.695L1221.07 426.146L1223.08 422.443L1227.62 431.467Z" fill="white" stroke="#323433" stroke-width="0.707993"/>
<path d="M1252.88 455.696L1249.39 471.63L1250.66 472.417L1256.67 469.026L1250.92 469.444L1255.5 460.353L1252.88 455.696Z" fill="white" stroke="#323433" stroke-width="0.707993"/>
<path d="M1261.25 470.406L1260.21 470.634L1254.7 465.085L1256.72 461.382L1261.25 470.406Z" fill="white" stroke="#323433" stroke-width="0.707993"/>
<path d="M1177.24 427.851L1177.83 444.67L1179.19 445.217L1183.96 440.595L1178.72 442.156L1180.79 432.047L1177.24 427.851Z" fill="white" stroke="#323433" stroke-width="0.707993"/>
<path d="M1188.79 440.925L1187.88 441.359L1181.4 436.774L1182.36 432.608L1188.79 440.925Z" fill="white" stroke="#323433" stroke-width="0.707993"/>
<path d="M1179.06 485.409L1177.7 501.818L1178.98 502.54L1184.2 498.721L1178.87 499.503L1182.07 489.979L1179.06 485.409Z" fill="white" stroke="#323433" stroke-width="0.707993"/>
<path d="M1188.97 499.685L1188.02 499.981L1182.13 494.645L1183.57 490.739L1188.97 499.685Z" fill="white" stroke="#323433" stroke-width="0.707993"/>
<path d="M1211.63 570.437L1204.04 589.159L1205.66 590.128L1214.56 586.3L1206.53 586.623L1214.44 576.017L1211.63 570.437Z" fill="white" stroke="#323433" stroke-width="0.884991"/>
<path d="M1219.73 588.306L1218.3 588.544L1211.87 581.873L1215.2 577.585L1219.73 588.306Z" fill="white" stroke="#323433" stroke-width="0.884991"/>
<path d="M1336.42 570.437L1328.84 589.159L1330.45 590.128L1339.35 586.3L1331.33 586.623L1339.23 576.017L1336.42 570.437Z" fill="white" stroke="#323433" stroke-width="0.884991"/>
<path d="M1344.52 588.306L1343.09 588.544L1336.66 581.873L1340 577.585L1344.52 588.306Z" fill="white" stroke="#323433" stroke-width="0.884991"/>
<path d="M1461.2 570.437L1453.61 589.159L1455.23 590.128L1464.13 586.3L1456.1 586.623L1464.01 576.017L1461.2 570.437Z" fill="white" stroke="#323433" stroke-width="0.884991"/>
<path d="M1469.3 588.306L1467.87 588.544L1461.44 581.873L1464.77 577.585L1469.3 588.306Z" fill="white" stroke="#323433" stroke-width="0.884991"/>
<rect x="1362.08" y="616.587" width="279" height="104" fill="#53599A" stroke="#323433" stroke-width="2"/>
<ellipse cx="224.5" cy="432" rx="224.5" ry="2" fill="#E0E5F8"/>
</svg>
