<svg width="592" height="1071" viewBox="0 0 592 1071" fill="none" xmlns="http://www.w3.org/2000/svg">
<path d="M589.41 901.455C589.096 901.82 588.707 902.113 588.271 902.316C587.834 902.519 587.359 902.627 586.878 902.632C585.915 902.614 584.997 902.224 584.316 901.544C583.635 900.863 583.244 899.945 583.226 898.983C583.221 898.503 583.313 898.026 583.495 897.581C583.676 897.136 583.945 896.732 584.285 896.392C584.625 896.052 585.03 895.784 585.475 895.602C585.92 895.42 586.397 895.329 586.878 895.334C587.84 895.352 588.759 895.742 589.439 896.423C590.12 897.103 590.511 898.021 590.529 898.983C590.524 899.464 590.416 899.939 590.213 900.375C590.01 900.812 589.716 901.2 589.351 901.514L589.41 901.455ZM472.742 1062.97C472.574 1063.14 472.372 1063.27 472.149 1063.36C471.927 1063.46 471.688 1063.5 471.447 1063.5C470.944 1063.5 470.459 1063.31 470.092 1062.97C469.92 1062.8 469.785 1062.6 469.694 1062.37C469.602 1062.15 469.558 1061.91 469.562 1061.67C469.553 1061.42 469.595 1061.17 469.686 1060.94C469.778 1060.71 469.916 1060.49 470.092 1060.32C470.288 1060.13 470.52 1059.99 470.774 1059.9C471.027 1059.81 471.296 1059.77 471.565 1059.79C471.805 1059.78 472.044 1059.83 472.267 1059.92C472.49 1060.01 472.692 1060.15 472.86 1060.32C473.052 1060.49 473.204 1060.69 473.305 1060.93C473.407 1061.16 473.456 1061.42 473.449 1061.67C473.451 1061.92 473.399 1062.16 473.297 1062.38C473.196 1062.61 473.046 1062.81 472.86 1062.97H472.742ZM430.163 1045.19C429.823 1044.86 429.553 1044.47 429.371 1044.03C429.189 1043.6 429.097 1043.13 429.103 1042.66C429.098 1042.18 429.189 1041.7 429.371 1041.26C429.553 1040.81 429.822 1040.41 430.162 1040.07C430.502 1039.73 430.906 1039.46 431.351 1039.28C431.796 1039.1 432.273 1039.01 432.754 1039.01C433.717 1039.03 434.635 1039.42 435.316 1040.1C435.997 1040.78 436.387 1041.7 436.405 1042.66C436.36 1043.61 435.96 1044.51 435.285 1045.19C434.61 1045.86 433.708 1046.26 432.754 1046.31C432.263 1046.31 431.778 1046.2 431.331 1046C430.884 1045.8 430.529 1045.54 430.163 1045.19ZM427.866 314.449C427.526 314.121 427.256 313.728 427.074 313.293C426.892 312.857 426.8 312.39 426.806 311.918C426.801 311.437 426.892 310.96 427.074 310.516C427.256 310.071 427.525 309.667 427.865 309.327C428.205 308.987 428.609 308.718 429.054 308.537C429.499 308.355 429.976 308.264 430.457 308.268C431.42 308.287 432.338 308.677 433.019 309.357C433.7 310.038 434.09 310.956 434.108 311.918C434.063 312.871 433.663 313.773 432.988 314.447C432.313 315.122 431.411 315.521 430.457 315.567C429.971 315.574 429.488 315.478 429.041 315.286C428.595 315.093 428.194 314.808 427.866 314.449ZM355.074 357.122C354.734 356.794 354.464 356.401 354.282 355.966C354.1 355.531 354.008 355.063 354.014 354.591C354.009 354.11 354.1 353.634 354.282 353.189C354.464 352.744 354.733 352.34 355.073 352C355.413 351.66 355.817 351.392 356.262 351.21C356.707 351.028 357.184 350.937 357.665 350.942C358.628 350.96 359.546 351.35 360.227 352.031C360.908 352.711 361.298 353.629 361.316 354.591C361.271 355.544 360.871 356.446 360.196 357.121C359.521 357.795 358.619 358.194 357.665 358.24C357.179 358.248 356.696 358.152 356.249 357.959C355.803 357.766 355.402 357.481 355.074 357.122ZM224.272 267.126C223.932 266.798 223.662 266.405 223.48 265.97C223.298 265.534 223.206 265.066 223.212 264.595C223.207 264.114 223.298 263.637 223.48 263.193C223.662 262.748 223.931 262.344 224.271 262.004C224.611 261.664 225.015 261.395 225.46 261.214C225.905 261.032 226.382 260.941 226.863 260.945C227.826 260.963 228.744 261.354 229.425 262.034C230.106 262.715 230.496 263.632 230.514 264.595C230.469 265.548 230.069 266.45 229.394 267.124C228.719 267.799 227.817 268.198 226.863 268.244C226.372 268.244 225.887 268.139 225.44 267.936C224.993 267.733 224.595 267.436 224.272 267.067V267.126ZM358.961 133.75C358.646 134.114 358.258 134.408 357.821 134.611C357.385 134.814 356.91 134.922 356.428 134.927C355.466 134.909 354.547 134.519 353.866 133.838C353.186 133.158 352.795 132.24 352.777 131.278C352.772 130.797 352.863 130.32 353.045 129.876C353.227 129.431 353.496 129.027 353.836 128.687C354.176 128.347 354.58 128.078 355.025 127.897C355.471 127.715 355.947 127.624 356.428 127.628C357.391 127.646 358.309 128.037 358.99 128.717C359.671 129.398 360.062 130.316 360.08 131.278C360.074 131.759 359.967 132.234 359.763 132.67C359.56 133.106 359.267 133.494 358.902 133.809L358.961 133.75ZM241.115 7.73144C240.801 8.09606 240.413 8.38962 239.976 8.59259C239.539 8.79556 239.064 8.90329 238.583 8.90862C237.62 8.89052 236.702 8.50023 236.021 7.81974C235.34 7.13925 234.95 6.22152 234.931 5.25933C234.927 4.77879 235.018 4.30213 235.2 3.85724C235.382 3.41236 235.65 3.00819 235.99 2.66838C236.33 2.32856 236.735 2.05994 237.18 1.87821C237.625 1.69649 238.102 1.60532 238.583 1.61004C239.546 1.62814 240.464 2.01843 241.145 2.69892C241.826 3.37941 242.216 4.29714 242.234 5.25933C242.236 5.73612 242.138 6.20798 241.945 6.6441C241.752 7.08022 241.469 7.47078 241.115 7.79029V7.73144ZM201.009 133.868C200.695 134.232 200.306 134.526 199.87 134.729C199.433 134.932 198.958 135.039 198.477 135.045C197.514 135.027 196.596 134.636 195.915 133.956C195.234 133.275 194.843 132.358 194.825 131.395C194.82 130.915 194.912 130.438 195.094 129.993C195.275 129.548 195.544 129.144 195.884 128.804C196.224 128.465 196.629 128.196 197.074 128.014C197.519 127.833 197.996 127.741 198.477 127.746C199.439 127.764 200.358 128.155 201.038 128.835C201.719 129.515 202.11 130.433 202.128 131.395C202.123 131.877 202.015 132.351 201.812 132.788C201.609 133.224 201.315 133.612 200.95 133.926L201.009 133.868ZM145.414 249.409C145.074 249.081 144.804 248.688 144.622 248.253C144.44 247.818 144.348 247.35 144.354 246.878C144.349 246.397 144.44 245.921 144.622 245.476C144.804 245.031 145.073 244.627 145.413 244.287C145.753 243.947 146.157 243.678 146.602 243.497C147.047 243.315 147.524 243.224 148.005 243.229C148.968 243.247 149.886 243.637 150.567 244.317C151.248 244.998 151.638 245.916 151.656 246.878C151.611 247.831 151.211 248.733 150.536 249.408C149.861 250.082 148.959 250.481 148.005 250.527C147.514 250.527 147.029 250.422 146.582 250.219C146.135 250.016 145.737 249.72 145.414 249.35V249.409ZM13.0217 335.05C12.6817 334.722 12.4122 334.329 12.2299 333.894C12.0476 333.458 11.9563 332.99 11.9616 332.519C11.9568 332.038 12.0481 331.561 12.2299 331.116C12.4117 330.672 12.6805 330.267 13.0205 329.928C13.3605 329.588 13.7649 329.319 14.2101 329.137C14.6552 328.956 15.1322 328.865 15.613 328.869C16.5757 328.887 17.4939 329.278 18.1748 329.958C18.8557 330.639 19.2462 331.556 19.2643 332.519C19.2186 333.472 18.8192 334.374 18.1441 335.048C17.469 335.723 16.5666 336.122 15.613 336.168C15.122 336.168 14.6367 336.063 14.1897 335.86C13.7428 335.657 13.3617 335.377 13.0217 335.05ZM393.943 1069.26C393.775 1069.44 393.573 1069.57 393.35 1069.66C393.127 1069.75 392.888 1069.8 392.648 1069.79C392.145 1069.8 391.66 1069.61 391.293 1069.26C391.121 1069.1 390.985 1068.89 390.894 1068.67C390.803 1068.45 390.758 1068.21 390.763 1067.97C390.754 1067.72 390.796 1067.47 390.887 1067.24C390.979 1067 391.117 1066.79 391.293 1066.62C391.66 1066.27 392.145 1066.08 392.648 1066.09C392.888 1066.08 393.127 1066.13 393.35 1066.22C393.573 1066.31 393.775 1066.44 393.943 1066.62C394.135 1066.78 394.287 1066.99 394.388 1067.23C394.49 1067.46 394.539 1067.71 394.532 1067.97C394.534 1068.21 394.482 1068.46 394.38 1068.68C394.279 1068.9 394.129 1069.1 393.943 1069.26ZM275.156 958.196C274.183 957.249 273.415 956.112 272.899 954.857C272.382 953.602 272.128 952.254 272.152 950.897C272.138 949.533 272.396 948.18 272.912 946.916C273.428 945.653 274.191 944.505 275.156 943.541C276.122 942.576 277.27 941.813 278.534 941.298C279.798 940.782 281.152 940.524 282.517 940.538C283.875 940.514 285.223 940.768 286.479 941.284C287.735 941.8 288.872 942.568 289.82 943.54C290.806 944.492 291.586 945.637 292.113 946.902C292.639 948.167 292.901 949.527 292.882 950.897C292.858 953.637 291.758 956.258 289.819 958.195C287.881 960.133 285.259 961.232 282.517 961.257C281.146 961.275 279.786 961.014 278.52 960.487C277.254 959.961 276.109 959.181 275.156 958.196ZM272.447 978.149C273.409 978.167 274.327 978.558 275.008 979.238C275.689 979.919 276.08 980.836 276.098 981.799C276.052 982.752 275.653 983.654 274.978 984.328C274.303 985.003 273.4 985.402 272.447 985.448C271.484 985.43 270.565 985.039 269.885 984.359C269.204 983.679 268.813 982.761 268.795 981.799C268.79 981.318 268.882 980.841 269.063 980.396C269.245 979.952 269.514 979.547 269.854 979.208C270.194 978.868 270.598 978.599 271.044 978.417C271.489 978.236 271.966 978.145 272.447 978.149ZM340.939 850.306C341.276 849.963 341.68 849.691 342.126 849.509C342.571 849.327 343.049 849.238 343.531 849.247C344.493 849.265 345.412 849.655 346.093 850.336C346.773 851.016 347.164 851.934 347.182 852.896C347.136 853.849 346.737 854.751 346.062 855.426C345.387 856.101 344.484 856.5 343.531 856.545C342.568 856.527 341.65 856.137 340.969 855.456C340.288 854.776 339.897 853.858 339.879 852.896C339.87 852.415 339.959 851.937 340.142 851.492C340.324 851.046 340.595 850.643 340.939 850.306ZM343.531 935.064C344.493 935.082 345.412 935.472 346.093 936.153C346.773 936.833 347.164 937.751 347.182 938.713C347.136 939.666 346.737 940.568 346.062 941.243C345.387 941.918 344.484 942.317 343.531 942.363C342.568 942.345 341.65 941.954 340.969 941.274C340.288 940.593 339.897 939.676 339.879 938.713C339.875 938.233 339.966 937.756 340.148 937.311C340.329 936.866 340.598 936.462 340.938 936.122C341.278 935.783 341.683 935.514 342.128 935.332C342.573 935.151 343.05 935.059 343.531 935.064ZM361.375 892.685C361.056 893.039 360.665 893.322 360.228 893.514C359.792 893.707 359.32 893.806 358.843 893.804C357.88 893.785 356.962 893.395 356.281 892.715C355.6 892.034 355.21 891.116 355.192 890.154C355.187 889.674 355.278 889.197 355.46 888.752C355.642 888.307 355.91 887.903 356.25 887.563C356.59 887.223 356.995 886.955 357.44 886.773C357.885 886.591 358.362 886.5 358.843 886.505C359.806 886.523 360.724 886.913 361.405 887.594C362.086 888.274 362.476 889.192 362.494 890.154C362.496 890.631 362.398 891.103 362.205 891.539C362.012 891.975 361.729 892.366 361.375 892.685ZM185.391 385.935C185.072 386.289 184.681 386.571 184.244 386.764C183.808 386.957 183.336 387.055 182.859 387.053C181.896 387.035 180.978 386.645 180.297 385.964C179.616 385.284 179.226 384.366 179.207 383.404C179.203 382.923 179.294 382.447 179.476 382.002C179.658 381.557 179.926 381.153 180.266 380.813C180.606 380.473 181.011 380.204 181.456 380.023C181.901 379.841 182.378 379.75 182.859 379.755C183.821 379.773 184.74 380.163 185.421 380.843C186.101 381.524 186.492 382.442 186.51 383.404C186.505 383.885 186.397 384.36 186.194 384.796C185.991 385.233 185.697 385.621 185.332 385.935H185.391ZM157.358 368.689C155.987 368.708 154.626 368.446 153.36 367.92C152.094 367.393 150.949 366.613 149.996 365.628C149.024 364.681 148.256 363.545 147.739 362.289C147.223 361.034 146.969 359.687 146.993 358.33C146.979 356.965 147.237 355.612 147.753 354.349C148.269 353.085 149.032 351.938 149.997 350.973C150.962 350.008 152.111 349.246 153.375 348.73C154.639 348.215 155.993 347.956 157.358 347.97C158.716 347.946 160.064 348.2 161.32 348.717C162.576 349.233 163.713 350 164.661 350.972C165.647 351.925 166.427 353.069 166.953 354.334C167.48 355.6 167.742 356.959 167.723 358.33C167.699 361.07 166.599 363.69 164.66 365.628C162.722 367.565 160.099 368.664 157.358 368.689ZM2.1853 559.363C1.84531 559.036 1.57588 558.643 1.39359 558.207C1.21129 557.772 1.11996 557.304 1.12521 556.832C1.12049 556.352 1.21172 555.875 1.39355 555.43C1.57538 554.985 1.84416 554.581 2.18417 554.241C2.52418 553.902 2.92856 553.633 3.3737 553.451C3.81883 553.27 4.29578 553.178 4.7766 553.183C5.73934 553.201 6.65761 553.591 7.33849 554.272C8.01937 554.952 8.40987 555.87 8.42799 556.832C8.38222 557.785 7.98283 558.687 7.30773 559.362C6.63263 560.037 5.73024 560.436 4.7766 560.482C4.2901 560.489 3.80756 560.393 3.36087 560.2C2.91418 560.008 2.51351 559.722 2.1853 559.363Z" fill="white" stroke="#323433" stroke-width="1.76998"/>
</svg>
