<svg width="391" height="510" viewBox="0 0 391 510" fill="none" xmlns="http://www.w3.org/2000/svg">
<path d="M197.329 509.997C281.022 509.997 348.869 495.067 348.869 476.65C348.869 458.233 281.022 443.303 197.329 443.303C113.636 443.303 45.7891 458.233 45.7891 476.65C45.7891 495.067 113.636 509.997 197.329 509.997Z" fill="#E0E5F8"/>
<path d="M226.553 480.835H154.773V488.063H226.553V480.835Z" fill="white"/>
<path d="M154.882 481.34L154.773 487.473C154.775 487.553 154.793 487.631 154.825 487.704C154.858 487.777 154.904 487.842 154.962 487.897C155.019 487.952 155.087 487.995 155.162 488.023C155.236 488.052 155.315 488.065 155.395 488.063H225.939C226.019 488.065 226.098 488.052 226.172 488.023C226.247 487.995 226.314 487.952 226.372 487.897C226.43 487.842 226.476 487.777 226.508 487.704C226.541 487.631 226.558 487.553 226.56 487.473V481.34" stroke="#323433" stroke-width="2.61" stroke-linecap="round" stroke-linejoin="round"/>
<path d="M368.233 213.027C368.216 212.347 367.997 211.688 367.604 211.133C367.126 210.453 366.42 209.968 365.614 209.766C364.808 209.564 363.956 209.658 363.214 210.032C362.472 210.406 361.889 211.034 361.571 211.802C361.254 212.57 361.223 213.427 361.485 214.216C361.747 215.004 362.284 215.673 362.997 216.098C363.711 216.524 364.554 216.679 365.372 216.535C366.191 216.391 366.93 215.957 367.455 215.313C367.98 214.669 368.257 213.858 368.233 213.027ZM388.831 219.86C388.973 220.061 389.029 220.311 388.987 220.554C388.945 220.797 388.808 221.014 388.606 221.156L346.261 250.722L325.003 265.582L247.361 319.931L256.36 288.137C257.304 284.864 258.949 281.836 261.181 279.263C265.124 274.676 267.547 268.98 268.115 262.958L346.695 208.027L362.224 197.157L315.748 131.03C315.842 125.39 315.442 119.752 314.552 114.182L388.831 219.86ZM358.551 221.715C359.114 221.321 359.547 220.769 359.796 220.129C360.044 219.489 360.098 218.79 359.949 218.119C359.8 217.449 359.455 216.838 358.959 216.363C358.462 215.889 357.836 215.572 357.16 215.454C356.483 215.335 355.787 215.42 355.159 215.697C354.531 215.975 353.999 216.432 353.631 217.012C353.263 217.592 353.075 218.268 353.091 218.954C353.107 219.641 353.327 220.307 353.722 220.869C353.983 221.244 354.316 221.564 354.702 221.81C355.087 222.056 355.518 222.223 355.968 222.302C356.418 222.38 356.88 222.369 357.326 222.268C357.772 222.168 358.194 221.98 358.567 221.715H358.551ZM349.638 227.096C349.675 226.872 349.693 226.647 349.692 226.42C349.675 225.46 349.303 224.541 348.647 223.839C347.992 223.138 347.099 222.704 346.143 222.622C345.186 222.54 344.233 222.816 343.468 223.395C342.702 223.975 342.179 224.817 341.998 225.76L341.517 228.486L338.792 228.012C338.571 227.972 338.348 227.952 338.124 227.95C337.157 227.958 336.228 228.326 335.518 228.982C334.809 229.639 334.37 230.537 334.287 231.5C334.204 232.464 334.484 233.423 335.072 234.191C335.66 234.959 336.512 235.48 337.464 235.652L347.829 237.461L349.638 227.096Z" fill="white"/>
<path d="M346.291 250.776L365.034 277.446L349.249 277.531L343.814 292.353L325.072 265.683L325.002 265.582L346.26 250.722L346.291 250.776Z" fill="#00B07A"/>
<path d="M315.732 131.007L362.208 197.134L346.68 208.004C343.919 205.609 340.926 203.497 337.743 201.699C327.518 196.435 319.777 203.563 316.679 210.372C313.581 217.181 302.122 218.742 296.858 215.333C276.05 201.87 264.396 206.793 258.037 215.465C252.602 205.574 249.295 193.555 245.785 182.693L269.683 186.202L270.46 181.381L296.236 184.898C299.249 185.309 302.303 184.532 304.752 182.731C307.201 180.929 308.853 178.245 309.358 175.247C311.485 162.599 314.723 142.871 315.46 135.984C315.507 135.945 315.686 134.066 315.732 131.007Z" fill="#E0E5F8"/>
<path d="M368.233 213.027C368.257 213.86 367.98 214.673 367.454 215.319C366.928 215.965 366.187 216.4 365.367 216.545C364.546 216.69 363.701 216.535 362.986 216.108C362.27 215.681 361.732 215.011 361.47 214.221C361.207 213.43 361.238 212.571 361.556 211.801C361.874 211.032 362.459 210.402 363.203 210.027C363.947 209.653 364.801 209.558 365.609 209.761C366.417 209.964 367.125 210.451 367.604 211.133C367.995 211.689 368.214 212.348 368.233 213.027Z" fill="white"/>
<path d="M359.413 216.886C359.808 217.448 360.027 218.114 360.044 218.801C360.06 219.487 359.872 220.163 359.504 220.743C359.136 221.323 358.604 221.78 357.976 222.057C357.348 222.335 356.651 222.42 355.975 222.301C355.299 222.183 354.673 221.866 354.176 221.392C353.68 220.917 353.335 220.306 353.186 219.636C353.037 218.965 353.09 218.266 353.339 217.626C353.588 216.986 354.021 216.434 354.583 216.04C354.956 215.778 355.376 215.592 355.821 215.492C356.265 215.393 356.725 215.382 357.174 215.461C357.622 215.54 358.051 215.706 358.435 215.951C358.819 216.195 359.152 216.513 359.413 216.886Z" fill="white"/>
<path d="M346.709 207.973L268.129 262.904C268.206 262.003 268.253 261.079 268.253 260.155C268.255 257.316 267.844 254.491 267.034 251.77L263.672 238.571L277.228 233.765C268.517 230.372 262.57 223.633 258.074 215.434C264.425 206.762 276.079 201.839 296.895 215.302C302.159 218.711 313.619 217.158 316.717 210.341C319.814 203.524 327.586 196.404 337.781 201.668C340.96 203.466 343.951 205.578 346.709 207.973Z" fill="white"/>
<path d="M345.119 332.843V400.546C345.119 400.711 345.053 400.869 344.937 400.985C344.82 401.102 344.662 401.167 344.498 401.167H338.154V332.113L344.498 332.23C344.579 332.229 344.659 332.244 344.735 332.274C344.81 332.305 344.879 332.35 344.936 332.407C344.994 332.464 345.04 332.532 345.071 332.607C345.103 332.681 345.119 332.762 345.119 332.843Z" fill="white"/>
<path d="M349.707 226.42C349.708 226.647 349.689 226.873 349.652 227.096L347.843 237.461L337.478 235.652C336.527 235.48 335.674 234.959 335.086 234.191C334.499 233.423 334.219 232.464 334.301 231.5C334.384 230.537 334.823 229.639 335.533 228.983C336.242 228.326 337.171 227.958 338.138 227.95C338.362 227.952 338.585 227.972 338.806 228.012L341.531 228.486L342.012 225.76C342.193 224.817 342.717 223.975 343.482 223.395C344.247 222.816 345.2 222.54 346.157 222.622C347.114 222.705 348.006 223.138 348.661 223.84C349.317 224.541 349.689 225.46 349.707 226.42Z" fill="#F37C40"/>
<path d="M338.156 332.113V401.167C317.759 401.167 324.18 364.676 312.061 363.744V332.113H338.156Z" fill="#323433"/>
<path d="M314.536 114.159C315.426 119.729 315.826 125.367 315.732 131.007C315.685 134.066 315.507 135.945 315.507 135.953C314.769 142.84 311.531 162.568 309.404 175.216C308.899 178.214 307.248 180.898 304.798 182.699C302.349 184.501 299.295 185.278 296.283 184.867L270.506 181.35L274.73 155.371L286.679 158.088C287.053 158.175 287.441 158.186 287.82 158.12C288.198 158.054 288.56 157.913 288.883 157.706C289.207 157.498 289.486 157.228 289.703 156.911C289.92 156.594 290.072 156.236 290.149 155.86L299.466 111.022C295.304 107.226 293.255 104.547 292.292 99.2984C292.082 98.1113 291.664 96.9705 291.057 95.9287L290.887 95.6337L287.393 89.6553C287.156 89.2433 287.067 88.7632 287.139 88.2936C287.211 87.8241 287.44 87.3929 287.789 87.0708C288.139 86.7487 288.587 86.5547 289.061 86.5207C289.535 86.4867 290.006 86.6146 290.398 86.8835L301.267 95.2377L292.137 82.2406C306.679 86.5575 312.393 101.239 314.536 114.159Z" fill="white"/>
<path d="M206.669 329.411L201.133 338.526C198.829 342.305 198.057 346.821 198.975 351.151L199.456 353.426L221.196 456.37L220.59 456.502H181.381L162.484 379.257L156.606 355.227C154.414 346.256 155.594 336.793 159.921 328.635L172.507 304.9L184.526 282.236L194.712 263.02L195.683 262.679L263.673 238.61L267.035 251.809C267.845 254.53 268.256 257.355 268.254 260.194C268.254 261.118 268.208 262.042 268.13 262.943C267.562 268.964 265.139 274.661 261.197 279.247C258.964 281.82 257.319 284.849 256.375 288.122L247.376 319.916L243.921 332.129H312.059V363.752C311.907 363.744 311.754 363.744 311.601 363.752H223.137C220.216 363.755 217.332 363.099 214.7 361.833C212.067 360.566 209.755 358.722 207.935 356.438C206.115 354.153 204.833 351.487 204.187 348.639C203.54 345.79 203.545 342.832 204.2 339.986C205.023 336.378 205.846 332.853 206.669 329.411Z" fill="#00B07A"/>
<path d="M292.098 82.2406L301.228 95.2377L290.358 86.8835C289.967 86.6146 289.495 86.4867 289.022 86.5207C288.548 86.5547 288.1 86.7487 287.75 87.0708C287.401 87.3929 287.172 87.8241 287.1 88.2936C287.028 88.7632 287.117 89.2433 287.354 89.6553L290.848 95.6337L233.331 13.7611L209.891 30.1511L13.7617 167.242L39.8103 204.254L46.798 214.192L57.2019 229.006L69.4304 246.405C69.0615 246.623 68.7598 246.938 68.5585 247.316C68.3571 247.694 68.2639 248.12 68.2891 248.548L69.0111 260.971L62.9396 252.321L2.16985 165.891C2.02765 165.688 1.97152 165.437 2.0137 165.193C2.05587 164.948 2.19294 164.731 2.395 164.587L234.69 2.16924C234.892 2.02745 235.141 1.97153 235.385 2.01374C235.628 2.05595 235.844 2.19285 235.986 2.3944L292.098 82.2406Z" fill="white"/>
<path d="M138.973 233.913L135.774 246.529C135.636 247.091 135.337 247.601 134.913 247.995C134.49 248.389 133.961 248.652 133.39 248.75L79.3132 255.924L72.4187 246.995C72.1238 246.619 71.7206 246.343 71.2637 246.205C70.8068 246.066 70.3183 246.071 69.8643 246.219C69.6958 246.272 69.5342 246.345 69.3829 246.436L57.1699 229.006C64.0205 232.228 71.8224 232.798 79.0683 230.604C86.3143 228.41 92.4899 223.608 96.402 217.127C115.145 221.87 128.468 207.274 128.468 191.769C128.468 168.065 98.1024 164.672 98.1024 148.639C98.1024 129.182 120.975 136.931 129.702 128.204C146.286 111.62 131.589 98.8169 148.274 85.6179C155.634 79.7948 185.247 85.7965 200.596 73.0323C210.581 64.7324 216.979 47.0225 209.913 30.151L233.353 13.761L290.87 95.6336L291.041 95.9287C291.647 96.9705 292.065 98.1112 292.275 99.2983C293.23 104.547 295.288 107.225 299.449 111.022L290.132 155.86C290.055 156.236 289.903 156.594 289.686 156.911C289.469 157.228 289.19 157.498 288.867 157.706C288.543 157.913 288.182 158.054 287.803 158.12C287.424 158.185 287.036 158.175 286.662 158.088L274.713 155.371L244.394 148.461C237.48 146.891 230.29 147.008 223.431 148.802C218.105 150.192 212.926 151.691 207.771 153.344L205.185 138.647L205.022 137.692C204.805 128.88 209.929 129.345 209.929 116.775C209.929 98.6228 197.126 98.6228 185.72 98.6228C174.315 98.6228 171.054 91.1693 165.697 91.1693H165.177C162.529 91.2424 160.014 92.3457 158.167 94.2444C156.32 96.1432 155.287 98.6875 155.287 101.336C155.287 103.985 156.32 106.53 158.167 108.428C160.014 110.327 162.529 111.43 165.177 111.503H168.391C168.476 115.518 168.531 119.097 168.857 123.398C168.976 125.068 168.521 126.727 167.568 128.103C166.953 129.011 166.292 129.887 165.588 130.727C165.442 130.898 165.351 131.108 165.326 131.331C165.301 131.554 165.344 131.779 165.448 131.977C167.933 136.807 164.944 149.004 186.512 150.324C186.912 150.342 187.289 150.514 187.565 150.803C187.842 151.092 187.996 151.477 187.995 151.877V160.549C182.902 162.622 177.708 164.928 172.304 167.498C166.412 170.287 161.212 174.347 157.078 179.387C152.944 184.427 149.98 190.321 148.398 196.645L138.973 233.913ZM123.662 148.034C123.66 146.572 123.225 145.144 122.412 143.929C121.599 142.715 120.444 141.769 119.094 141.21C117.743 140.652 116.257 140.507 114.824 140.793C113.39 141.079 112.074 141.784 111.041 142.818C110.008 143.852 109.305 145.169 109.02 146.602C108.736 148.036 108.883 149.522 109.442 150.872C110.002 152.222 110.949 153.376 112.165 154.188C113.38 155 114.809 155.433 116.27 155.433C117.242 155.433 118.203 155.241 119.101 154.869C119.998 154.498 120.813 153.952 121.5 153.265C122.186 152.578 122.73 151.762 123.101 150.865C123.472 149.967 123.663 149.005 123.662 148.034Z" fill="#E0E5F8"/>
<path d="M207.771 153.344C212.926 151.691 218.105 150.192 223.431 148.802C230.29 147.008 237.48 146.891 244.394 148.461L274.713 155.371L270.489 181.349L269.713 186.171L245.822 182.669C249.332 193.539 252.655 205.55 258.074 215.442C262.57 223.641 268.517 230.38 277.228 233.773L263.672 238.571L195.682 262.64C195.565 262.368 195.441 262.096 195.325 261.863C186.784 243.051 181.652 230.846 175.751 212.103L169.284 240.333L164.439 239.347L138.973 233.913L148.398 196.645C149.974 190.321 152.933 184.426 157.062 179.383C161.19 174.341 166.385 170.276 172.273 167.483C177.708 164.913 182.871 162.607 187.964 160.534C194.672 157.824 201.202 155.448 207.771 153.344Z" fill="#4F59C1"/>
<path d="M221.251 456.394L226.561 481.34H154.883C154.883 467.791 182.445 464.259 181.382 456.495H220.637L221.243 456.363L221.251 456.394ZM197.345 469.375C197.345 468.251 197.011 467.152 196.387 466.218C195.762 465.283 194.875 464.555 193.836 464.124C192.798 463.694 191.655 463.582 190.553 463.801C189.45 464.02 188.438 464.562 187.643 465.356C186.848 466.151 186.307 467.164 186.087 468.266C185.868 469.369 185.981 470.512 186.411 471.55C186.841 472.589 187.569 473.476 188.504 474.101C189.439 474.725 190.537 475.059 191.661 475.059C192.408 475.06 193.148 474.913 193.838 474.628C194.528 474.343 195.154 473.924 195.682 473.396C196.21 472.868 196.629 472.241 196.914 471.551C197.199 470.861 197.346 470.122 197.345 469.375Z" fill="#323433"/>
<path d="M209.891 30.1511C216.98 47.0226 210.582 64.7325 200.574 73.0324C185.225 85.7966 155.612 79.7949 148.252 85.618C131.567 98.817 146.264 111.62 129.68 128.204C120.953 136.931 98.0801 129.182 98.0801 148.639C98.0801 164.672 128.446 168.05 128.446 191.769C128.446 207.297 115.122 221.871 96.3797 217.127C98.8125 213.089 100.279 208.544 100.664 203.846C101.049 199.148 100.343 194.424 98.6008 190.044C96.8583 185.665 94.1267 181.747 90.6194 178.597C87.1121 175.448 82.9242 173.152 78.3827 171.889C73.8412 170.626 69.0692 170.431 64.4396 171.317C59.81 172.204 55.4481 174.149 51.6947 177.001C47.9413 179.853 44.8981 183.534 42.8028 187.756C40.7075 191.979 39.6169 196.628 39.6162 201.342C39.6162 202.326 39.6628 203.296 39.756 204.254L13.7617 167.242L209.891 30.1511Z" fill="white"/>
<path d="M205.186 138.647L207.756 153.344C201.188 155.448 194.658 157.816 187.95 160.565V151.892C187.95 151.492 187.796 151.108 187.52 150.818C187.244 150.529 186.867 150.358 186.467 150.34C164.898 149.02 167.887 136.822 165.403 131.993C165.298 131.795 165.255 131.569 165.28 131.347C165.305 131.124 165.397 130.913 165.543 130.743C166.263 129.904 166.939 129.028 167.569 128.119C168.522 126.743 168.977 125.083 168.858 123.414C168.532 119.112 168.478 115.533 168.392 111.519H177.235C178.574 111.519 179.858 112.051 180.804 112.997C181.75 113.944 182.282 115.227 182.282 116.566V123.406H185.675C185.675 123.406 189.456 114.982 194.099 118.282C198.742 121.581 194.223 128.903 194.223 128.903C198.028 130.65 201.925 134.586 205.186 138.647Z" fill="white"/>
<path d="M201.133 338.526L206.669 329.411C205.846 332.859 205.023 336.373 204.2 339.955C203.442 343.231 203.552 346.649 204.519 349.87L199.472 353.395L198.975 351.151C198.057 346.822 198.829 342.305 201.133 338.526Z" fill="white"/>
<path d="M205.038 137.692L205.201 138.647C201.925 134.586 198.027 130.634 194.238 128.887C194.238 128.887 198.757 121.566 194.114 118.266C189.471 114.966 185.69 123.39 185.69 123.39H182.297V116.55C182.297 115.212 181.765 113.928 180.819 112.982C179.873 112.035 178.589 111.504 177.25 111.504H165.193C162.545 111.43 160.03 110.327 158.183 108.428C156.336 106.53 155.303 103.985 155.303 101.336C155.303 98.6876 156.336 96.1432 158.183 94.2445C160.03 92.3458 162.545 91.2425 165.193 91.1693H165.713C171.07 91.1693 174.331 98.6229 185.737 98.6229C197.142 98.6229 209.945 98.6229 209.945 116.775C209.945 129.345 204.821 128.88 205.038 137.692Z" fill="#323433"/>
<path d="M195.326 261.864C195.443 262.128 195.567 262.399 195.683 262.64L194.713 262.982L195.326 261.864Z" fill="white"/>
<path d="M195.325 261.863L194.711 263.013L184.525 282.229C183.026 281.234 181.335 280.565 179.562 280.264C177.788 279.962 175.971 280.035 174.228 280.478C172.484 280.921 170.853 281.724 169.438 282.835C168.024 283.947 166.858 285.342 166.015 286.931C165.172 288.52 164.671 290.268 164.545 292.063C164.418 293.857 164.669 295.658 165.28 297.35C165.892 299.042 166.85 300.587 168.095 301.886C169.339 303.185 170.842 304.209 172.506 304.892L159.92 328.635C157.818 332.609 156.44 336.926 155.852 341.384L142.653 350.623L89.7949 275.404C108.864 274.69 131.628 273.362 147.808 271.732C150.639 271.446 153.308 270.274 155.432 268.382C157.557 266.49 159.03 263.975 159.641 261.196L164.455 239.316L169.3 240.341L175.767 212.111C181.652 230.846 186.808 243.051 195.325 261.863ZM152.622 302.237C152.622 301.008 152.258 299.807 151.575 298.786C150.893 297.765 149.923 296.968 148.788 296.498C147.653 296.028 146.404 295.905 145.199 296.145C143.994 296.385 142.887 296.976 142.019 297.845C141.15 298.713 140.559 299.82 140.319 301.025C140.079 302.23 140.202 303.479 140.672 304.614C141.143 305.749 141.939 306.719 142.96 307.401C143.982 308.084 145.182 308.448 146.411 308.448C147.228 308.45 148.037 308.291 148.793 307.98C149.548 307.669 150.235 307.211 150.813 306.634C151.391 306.057 151.85 305.372 152.163 304.617C152.477 303.863 152.638 303.054 152.638 302.237H152.622Z" fill="#E0E5F8"/>
<path d="M191.66 463.731C192.785 463.729 193.885 464.061 194.82 464.685C195.756 465.309 196.486 466.197 196.917 467.236C197.348 468.274 197.461 469.418 197.242 470.521C197.023 471.624 196.482 472.637 195.686 473.433C194.891 474.228 193.878 474.77 192.775 474.989C191.671 475.208 190.528 475.094 189.489 474.663C188.45 474.232 187.563 473.503 186.939 472.567C186.315 471.631 185.983 470.531 185.984 469.406C185.984 467.901 186.582 466.457 187.647 465.393C188.711 464.329 190.155 463.731 191.66 463.731Z" fill="white"/>
<path d="M184.526 282.229L172.507 304.892C170.843 304.209 169.34 303.185 168.096 301.886C166.851 300.587 165.892 299.042 165.281 297.35C164.67 295.659 164.419 293.857 164.546 292.063C164.672 290.269 165.173 288.521 166.016 286.931C166.859 285.342 168.025 283.947 169.439 282.835C170.854 281.724 172.485 280.921 174.229 280.478C175.972 280.035 177.789 279.962 179.562 280.264C181.336 280.565 183.027 281.235 184.526 282.229Z" fill="white"/>
<path d="M164.44 239.348L159.626 261.227C159.015 264.006 157.542 266.521 155.417 268.413C153.293 270.305 150.624 271.477 147.793 271.763C131.613 273.393 108.849 274.721 89.7799 275.435L85.1214 275.606C82.9222 275.674 80.7268 275.381 78.6229 274.736C75.3148 273.711 72.3329 271.837 69.9736 269.302L64.8649 263.867C63.9937 262.938 63.3294 261.835 62.9158 260.63C62.5023 259.426 62.3489 258.147 62.4657 256.879L62.885 252.384L68.9565 261.033L68.2345 248.61C68.2093 248.183 68.3025 247.756 68.5039 247.378C68.7052 247 69.0069 246.685 69.3758 246.467C69.5271 246.376 69.6887 246.303 69.8572 246.25C70.3112 246.102 70.7998 246.097 71.2567 246.236C71.7136 246.375 72.1167 246.651 72.4116 247.026L79.2906 255.963L133.368 248.789C133.938 248.691 134.467 248.428 134.891 248.034C135.314 247.64 135.613 247.13 135.751 246.568L138.973 233.913L164.44 239.348Z" fill="white"/>
<path d="M156.614 355.227L162.483 379.257L156.272 383.582C156.07 383.721 155.82 383.776 155.578 383.734C155.335 383.692 155.119 383.556 154.975 383.356L78.6309 274.698C80.7347 275.342 82.9302 275.636 85.1294 275.567L89.7879 275.396L142.646 350.615L155.845 341.376C155.243 346.001 155.504 350.697 156.614 355.227Z" fill="white"/>
<path d="M146.45 296.026C147.678 296.026 148.879 296.39 149.9 297.072C150.922 297.755 151.718 298.725 152.188 299.86C152.658 300.995 152.781 302.244 152.542 303.449C152.302 304.654 151.71 305.76 150.842 306.629C149.973 307.498 148.866 308.089 147.661 308.329C146.456 308.569 145.208 308.446 144.073 307.975C142.938 307.505 141.968 306.709 141.285 305.688C140.603 304.666 140.238 303.465 140.238 302.237C140.238 300.59 140.893 299.01 142.058 297.845C143.222 296.68 144.802 296.026 146.45 296.026Z" fill="white"/>
<path d="M116.288 140.642C117.752 140.641 119.184 141.074 120.402 141.886C121.62 142.699 122.569 143.854 123.13 145.206C123.691 146.559 123.838 148.047 123.553 149.483C123.268 150.919 122.563 152.238 121.528 153.274C120.492 154.309 119.173 155.014 117.737 155.299C116.301 155.584 114.813 155.437 113.461 154.876C112.108 154.315 110.953 153.365 110.14 152.147C109.328 150.929 108.895 149.498 108.896 148.034C108.896 147.063 109.088 146.102 109.459 145.205C109.831 144.308 110.375 143.494 111.061 142.807C111.748 142.121 112.563 141.576 113.459 141.205C114.356 140.834 115.317 140.642 116.288 140.642Z" fill="#323433"/>
<path d="M100.781 201.342C100.791 206.905 99.2761 212.364 96.4021 217.127C95.0438 216.784 93.7083 216.356 92.4036 215.846C77.8692 210.232 82.0696 193.33 68.0088 193.423C57.3564 193.493 50.6016 197.693 46.7661 214.192L39.7784 204.254C39.6853 203.296 39.6387 202.326 39.6387 201.342C39.7665 193.319 43.0437 185.667 48.763 180.038C54.4823 174.409 62.1853 171.254 70.2099 171.254C78.2345 171.254 85.9375 174.409 91.6568 180.038C97.3761 185.667 100.653 193.319 100.781 201.342Z" fill="white"/>
<path d="M92.4053 215.846C93.71 216.356 95.0454 216.784 96.4038 217.127C92.4917 223.608 86.316 228.41 79.0701 230.604C71.8242 232.798 64.0223 232.229 57.1717 229.006L46.7988 214.192C50.6343 197.693 57.3891 193.493 68.0415 193.423C82.0712 193.322 77.8553 210.232 92.4053 215.846Z" fill="#00B07A"/>
<path d="M315.733 131.007L362.209 197.134L346.712 207.973L268.131 262.904" stroke="#323433" stroke-width="2.61" stroke-linecap="round" stroke-linejoin="round"/>
<path d="M155.852 341.384L142.637 350.615L89.7793 275.396" stroke="#323433" stroke-width="2.61" stroke-linecap="round" stroke-linejoin="round"/>
<path d="M69.3994 246.405L57.1709 229.006L46.767 214.192L39.7793 204.254L13.7617 167.242L209.891 30.151L233.331 13.761L290.871 95.6336" stroke="#323433" stroke-width="2.61" stroke-linecap="round" stroke-linejoin="round"/>
<path d="M347.843 237.461L337.478 235.652C336.527 235.48 335.674 234.959 335.086 234.191C334.499 233.423 334.219 232.464 334.301 231.5C334.384 230.537 334.823 229.639 335.533 228.983C336.242 228.326 337.171 227.958 338.138 227.95C338.362 227.952 338.585 227.972 338.806 228.012L341.531 228.486L342.012 225.76C342.193 224.817 342.717 223.975 343.482 223.395C344.247 222.816 345.2 222.54 346.157 222.622C347.114 222.705 348.006 223.138 348.661 223.84C349.317 224.541 349.689 225.46 349.707 226.42C349.708 226.647 349.689 226.873 349.652 227.096L347.843 237.461Z" stroke="#F37C40" stroke-width="2.61" stroke-linecap="round" stroke-linejoin="round"/>
<path d="M359.413 216.886C359.808 217.448 360.027 218.114 360.044 218.801C360.06 219.487 359.872 220.163 359.504 220.743C359.136 221.323 358.604 221.78 357.976 222.057C357.348 222.335 356.651 222.42 355.975 222.301C355.299 222.183 354.673 221.866 354.176 221.392C353.68 220.917 353.335 220.306 353.186 219.636C353.037 218.965 353.09 218.266 353.339 217.626C353.588 216.986 354.021 216.434 354.583 216.04C354.956 215.778 355.376 215.592 355.821 215.492C356.265 215.393 356.725 215.382 357.174 215.461C357.622 215.54 358.051 215.706 358.435 215.951C358.819 216.195 359.152 216.513 359.413 216.886V216.886Z" stroke="#323433" stroke-width="2.61" stroke-linecap="round" stroke-linejoin="round"/>
<path d="M360.685 227.934L360.041 218.78" stroke="#323433" stroke-width="2.61" stroke-linecap="round" stroke-linejoin="round"/>
<path d="M367.597 211.133C367.859 211.505 368.045 211.926 368.144 212.37C368.243 212.815 368.254 213.274 368.175 213.723C368.097 214.171 367.93 214.6 367.686 214.984C367.441 215.369 367.124 215.701 366.75 215.962C366.189 216.357 365.522 216.577 364.836 216.593C364.149 216.609 363.473 216.421 362.894 216.053C362.314 215.685 361.856 215.153 361.579 214.525C361.302 213.897 361.217 213.201 361.335 212.524C361.454 211.848 361.77 211.222 362.245 210.725C362.719 210.229 363.33 209.884 364.001 209.735C364.671 209.586 365.371 209.64 366.011 209.888C366.651 210.137 367.203 210.57 367.597 211.133V211.133Z" stroke="#323433" stroke-width="2.61" stroke-linecap="round" stroke-linejoin="round"/>
<path d="M368.861 222.181L368.225 213.027" stroke="#323433" stroke-width="2.61" stroke-linecap="round" stroke-linejoin="round"/>
<path d="M227.213 295.606L206.669 329.411L201.134 338.526C198.829 342.305 198.057 346.822 198.975 351.151L199.457 353.426L221.196 456.37V456.425L226.507 481.371H154.883C154.883 467.822 182.445 464.29 181.382 456.526L162.484 379.257L156.606 355.227C154.414 346.256 155.594 336.793 159.922 328.635L172.507 304.9L184.526 282.237L194.713 263.02L195.326 261.871" stroke="#323433" stroke-width="2.61" stroke-linecap="round" stroke-linejoin="round"/>
<path d="M181.381 456.471H220.636" stroke="#323433" stroke-width="2.61" stroke-linecap="round" stroke-linejoin="round"/>
<path d="M338.154 401.167H344.498C344.662 401.167 344.82 401.102 344.937 400.985C345.053 400.869 345.119 400.711 345.119 400.546V332.843C345.119 332.762 345.103 332.681 345.071 332.607C345.04 332.532 344.994 332.464 344.936 332.407C344.879 332.35 344.81 332.305 344.735 332.274C344.659 332.244 344.579 332.229 344.498 332.23L338.154 332.113" stroke="#323433" stroke-width="2.61" stroke-linecap="round" stroke-linejoin="round"/>
<path d="M220.637 296.328C225.22 296.325 229.739 295.247 233.83 293.182C237.922 291.116 241.473 288.121 244.198 284.436C246.923 280.75 248.746 276.478 249.522 271.961C250.298 267.443 250.005 262.807 248.665 258.424" stroke="#323433" stroke-width="2.61" stroke-linecap="round" stroke-linejoin="round"/>
<path d="M206.669 329.411C205.846 332.859 205.023 336.373 204.2 339.955C203.545 342.802 203.54 345.759 204.187 348.608C204.833 351.456 206.115 354.122 207.935 356.407C209.755 358.691 212.067 360.535 214.7 361.802C217.332 363.068 220.216 363.724 223.137 363.721H311.601C311.754 363.713 311.907 363.713 312.059 363.721C324.171 364.614 317.758 401.144 338.154 401.144V332.113H243.921L247.376 319.9L256.375 288.106C257.319 284.833 258.964 281.805 261.197 279.232C265.139 274.645 267.562 268.949 268.13 262.927C268.208 262.027 268.254 261.103 268.254 260.179C268.256 257.339 267.845 254.515 267.035 251.793" stroke="#323433" stroke-width="2.61" stroke-linecap="round" stroke-linejoin="round"/>
<path d="M267.051 251.825L267.036 251.77L263.674 238.571" stroke="#323433" stroke-width="2.61" stroke-linecap="round" stroke-linejoin="round"/>
<path d="M138.91 233.913H138.972L164.439 239.301L169.283 240.326L175.751 212.095C181.652 230.838 186.807 243.043 195.324 261.856C195.441 262.12 195.565 262.391 195.681 262.632" stroke="#323433" stroke-width="2.61" stroke-linecap="round" stroke-linejoin="round"/>
<path d="M245.824 182.669C249.333 193.539 252.657 205.55 258.076 215.442C262.571 223.641 268.519 230.38 277.23 233.773L263.674 238.571L195.683 262.64L194.713 262.981" stroke="#323433" stroke-width="2.61" stroke-linecap="round" stroke-linejoin="round"/>
<path d="M240.389 168.251C242.498 172.937 244.313 177.75 245.824 182.662" stroke="#323433" stroke-width="2.61" stroke-linecap="round" stroke-linejoin="round"/>
<path d="M314.536 114.159L388.824 219.86C388.965 220.061 389.021 220.311 388.979 220.554C388.937 220.797 388.8 221.014 388.598 221.156L346.261 250.722L325.003 265.582L247.361 319.931" stroke="#323433" stroke-width="2.61" stroke-linecap="round" stroke-linejoin="round"/>
<path d="M204.517 349.87L199.471 353.395" stroke="#323433" stroke-width="2.61" stroke-linecap="round" stroke-linejoin="round"/>
<path d="M162.483 379.257L156.272 383.582C156.07 383.721 155.82 383.776 155.578 383.734C155.335 383.692 155.119 383.556 154.975 383.356L78.6309 274.698" stroke="#323433" stroke-width="2.61" stroke-linecap="round" stroke-linejoin="round"/>
<path d="M69.3994 246.413C69.0305 246.631 68.7288 246.946 68.5274 247.324C68.326 247.702 68.2328 248.128 68.258 248.556L68.9801 260.978L62.9085 252.329L2.16985 165.891C2.02765 165.688 1.97152 165.437 2.0137 165.193C2.05587 164.948 2.19294 164.731 2.395 164.587L234.69 2.16924C234.892 2.02745 235.141 1.97153 235.385 2.01374C235.628 2.05595 235.844 2.19285 235.986 2.3944L292.098 82.2406L301.228 95.2377L290.358 86.8835C289.967 86.6146 289.495 86.4867 289.022 86.5207C288.548 86.5547 288.1 86.7487 287.75 87.0708C287.401 87.3929 287.172 87.8241 287.1 88.2936C287.028 88.7632 287.117 89.2433 287.354 89.6553L290.848 95.6337L291.018 95.9287C291.625 96.9705 292.043 98.1113 292.253 99.2984C293.208 104.547 295.265 107.226 299.427 111.022L290.11 155.86C290.033 156.236 289.881 156.594 289.664 156.911C289.446 157.228 289.168 157.498 288.844 157.706C288.521 157.913 288.159 158.054 287.781 158.12C287.402 158.186 287.014 158.175 286.639 158.088L274.69 155.371L244.372 148.461C237.458 146.891 230.267 147.008 223.408 148.802C218.082 150.192 212.904 151.691 207.748 153.344C201.18 155.448 194.65 157.817 187.942 160.565C182.849 162.638 177.654 164.944 172.251 167.514C166.371 170.307 161.182 174.368 157.058 179.405C152.934 184.441 149.977 190.329 148.399 196.645L138.974 233.913L135.775 246.529C135.637 247.091 135.338 247.601 134.914 247.995C134.491 248.389 133.961 248.652 133.391 248.75L79.3141 255.924L72.4196 246.995C72.1248 246.62 71.7216 246.344 71.2647 246.205C70.8078 246.066 70.3192 246.071 69.8652 246.219C69.7031 246.266 69.5468 246.331 69.3994 246.413Z" stroke="#323433" stroke-width="2.61" stroke-linecap="round" stroke-linejoin="round"/>
<path d="M270.506 181.35L296.283 184.867C299.295 185.278 302.349 184.501 304.798 182.699C307.248 180.898 308.899 178.214 309.404 175.216C311.531 162.568 314.769 142.84 315.507 135.953C315.507 135.953 315.685 134.066 315.732 131.007C315.826 125.367 315.426 119.729 314.536 114.159C312.393 101.239 306.679 86.5575 292.098 82.2406" stroke="#323433" stroke-width="2.61" stroke-linecap="round" stroke-linejoin="round"/>
<path d="M245.816 182.662H245.824L269.722 186.171L270.506 181.35L274.73 155.371" stroke="#323433" stroke-width="2.61" stroke-linecap="round" stroke-linejoin="round"/>
<path d="M164.44 239.348L159.626 261.227C159.015 264.006 157.542 266.521 155.417 268.413C153.293 270.305 150.624 271.477 147.793 271.763C131.613 273.393 108.849 274.721 89.7799 275.435L85.1214 275.606C82.9222 275.674 80.7268 275.38 78.6229 274.736C75.3148 273.711 72.3329 271.837 69.9736 269.301L64.8649 263.867C63.9937 262.938 63.3294 261.835 62.9158 260.63C62.5023 259.426 62.3489 258.147 62.4657 256.879L62.885 252.383" stroke="#323433" stroke-width="2.61" stroke-linecap="round" stroke-linejoin="round"/>
<path d="M187.966 160.627V151.892C187.966 151.492 187.812 151.108 187.536 150.818C187.259 150.529 186.882 150.358 186.483 150.34C164.914 149.02 167.903 136.822 165.419 131.993C165.314 131.795 165.271 131.569 165.296 131.347C165.321 131.124 165.412 130.913 165.558 130.743C166.279 129.904 166.955 129.028 167.585 128.119C168.538 126.743 168.993 125.083 168.874 123.414C168.548 119.112 168.493 115.533 168.408 111.519" stroke="#323433" stroke-width="2.61" stroke-linecap="round" stroke-linejoin="round"/>
<path d="M205.186 138.647C201.909 134.586 198.012 130.634 194.223 128.887C194.223 128.887 198.742 121.566 194.099 118.266C189.456 114.966 185.674 123.39 185.674 123.39H182.282V116.55C182.282 115.212 181.75 113.928 180.803 112.982C179.857 112.035 178.573 111.504 177.235 111.504H165.193C162.545 111.43 160.03 110.327 158.183 108.428C156.336 106.53 155.303 103.985 155.303 101.336C155.303 98.6876 156.336 96.1432 158.183 94.2445C160.03 92.3458 162.545 91.2425 165.193 91.1693H165.713C171.07 91.1693 174.331 98.6229 185.737 98.6229C197.142 98.6229 209.945 98.6229 209.945 116.775C209.945 129.345 204.821 128.88 205.038 137.692L205.201 138.647L207.771 153.344" stroke="#323433" stroke-width="2.61" stroke-linecap="round" stroke-linejoin="round"/>
<path d="M312.061 332.113V363.737" stroke="#323433" stroke-width="2.61" stroke-linecap="round" stroke-linejoin="round"/>
<path d="M57.1701 229.006C63.159 231.831 69.9033 232.635 76.3886 231.298C82.874 229.96 88.7499 226.554 93.1328 221.59C97.5157 216.626 100.169 210.374 100.693 203.773C101.217 197.172 99.5841 190.579 96.0395 184.986C92.4949 179.393 87.2303 175.101 81.0372 172.757C74.8442 170.413 68.0576 170.143 61.6978 171.987C55.3381 173.832 49.7489 177.691 45.7709 182.985C41.7929 188.278 39.6409 194.72 39.6387 201.342C39.6387 202.326 39.6853 203.296 39.7784 204.254" stroke="#323433" stroke-width="2.61" stroke-linecap="round" stroke-linejoin="round"/>
<path d="M46.7988 214.192C50.6343 197.693 57.3891 193.493 68.0415 193.423C82.1023 193.322 77.9019 210.232 92.4363 215.846C93.741 216.356 95.0765 216.784 96.4348 217.127C115.177 221.871 128.501 207.274 128.501 191.769C128.501 168.065 98.1352 164.672 98.1352 148.639C98.1352 129.182 121.008 136.931 129.735 128.204C146.288 111.62 131.591 98.817 148.276 85.618C155.636 79.7949 185.249 85.7966 200.598 73.0324C210.583 64.7325 216.981 47.0226 209.915 30.1511" stroke="#323433" stroke-width="2.61" stroke-linecap="round" stroke-linejoin="round"/>
<path d="M123.662 148.034C123.66 146.572 123.225 145.144 122.412 143.929C121.599 142.715 120.444 141.769 119.094 141.211C117.743 140.652 116.257 140.507 114.824 140.793C113.39 141.079 112.074 141.784 111.041 142.818C110.008 143.852 109.305 145.169 109.02 146.602C108.736 148.036 108.883 149.522 109.442 150.872C110.002 152.222 110.949 153.376 112.165 154.188C113.38 155 114.809 155.433 116.27 155.433C117.242 155.433 118.203 155.242 119.101 154.87C119.998 154.498 120.813 153.953 121.5 153.265C122.186 152.578 122.73 151.762 123.101 150.865C123.472 149.967 123.663 149.005 123.662 148.034V148.034Z" stroke="#323433" stroke-width="2.61" stroke-linecap="round" stroke-linejoin="round"/>
<path d="M184.526 282.229C183.027 281.235 181.336 280.565 179.562 280.264C177.789 279.962 175.972 280.035 174.229 280.478C172.485 280.921 170.854 281.724 169.439 282.835C168.025 283.947 166.859 285.342 166.016 286.931C165.173 288.521 164.672 290.269 164.546 292.063C164.419 293.857 164.67 295.659 165.281 297.35C165.892 299.042 166.851 300.587 168.096 301.886C169.34 303.185 170.843 304.209 172.507 304.892" stroke="#323433" stroke-width="2.61" stroke-linecap="round" stroke-linejoin="round"/>
<path d="M152.639 302.237C152.639 301.008 152.275 299.808 151.593 298.786C150.91 297.765 149.94 296.969 148.805 296.498C147.67 296.028 146.421 295.905 145.216 296.145C144.011 296.385 142.905 296.976 142.036 297.845C141.167 298.714 140.576 299.82 140.336 301.025C140.096 302.23 140.219 303.479 140.69 304.614C141.16 305.749 141.956 306.719 142.977 307.401C143.999 308.084 145.2 308.448 146.428 308.448C148.075 308.448 149.655 307.794 150.82 306.629C151.985 305.464 152.639 303.884 152.639 302.237Z" stroke="#323433" stroke-width="2.61" stroke-linecap="round" stroke-linejoin="round"/>
<path d="M258.074 215.434C264.425 206.762 276.079 201.839 296.895 215.302C302.159 218.711 313.619 217.158 316.717 210.341C319.814 203.524 327.586 196.404 337.781 201.668C340.963 203.466 343.957 205.578 346.717 207.973" stroke="#323433" stroke-width="2.61" stroke-linecap="round" stroke-linejoin="round"/>
<path d="M197.345 469.375C197.345 468.251 197.012 467.152 196.387 466.218C195.763 465.283 194.875 464.554 193.837 464.124C192.798 463.694 191.656 463.582 190.553 463.801C189.451 464.02 188.438 464.561 187.643 465.356C186.848 466.151 186.307 467.164 186.088 468.266C185.868 469.369 185.981 470.511 186.411 471.55C186.841 472.588 187.57 473.476 188.504 474.101C189.439 474.725 190.538 475.058 191.662 475.058C192.408 475.059 193.148 474.913 193.838 474.628C194.528 474.343 195.155 473.924 195.683 473.396C196.211 472.868 196.629 472.241 196.915 471.551C197.2 470.861 197.346 470.122 197.345 469.375Z" stroke="#323433" stroke-width="1.74" stroke-linecap="round" stroke-linejoin="round"/>
<path d="M39.4297 318.386L53.8166 322.338L53.5837 337.269L67.9784 341.221L67.7454 356.151L82.1401 360.103" stroke="#323433" stroke-width="1.74" stroke-linecap="round" stroke-linejoin="round"/>
<path d="M33.2734 376.904L45.6417 390.057" stroke="#323433" stroke-width="1.74" stroke-linecap="round" stroke-linejoin="round"/>
<path d="M32.8848 389.661L46.0294 377.293" stroke="#323433" stroke-width="1.74" stroke-linecap="round" stroke-linejoin="round"/>
<path d="M82.8968 388.355L74.6562 396.596L82.8969 404.837L91.1374 396.596L82.8968 388.355Z" fill="#323433"/>
</svg>
