<svg width="590" height="676" viewBox="0 0 590 676" fill="none" xmlns="http://www.w3.org/2000/svg">
<path d="M305.08 675.49C400.454 675.49 477.77 657.111 477.77 634.44C477.77 611.769 400.454 593.39 305.08 593.39C209.706 593.39 132.39 611.769 132.39 634.44C132.39 657.111 209.706 675.49 305.08 675.49Z" fill="#E0E5F8"/>
<path d="M82 140.6L97.25 140L101.63 154.63L116.88 154.03L121.26 168.66L136.52 168.07" stroke="#323433" stroke-width="3" stroke-linecap="round" stroke-linejoin="round"/>
<path d="M421.85 359.55L434.46 371.2" stroke="#323433" stroke-width="3" stroke-linecap="round" stroke-linejoin="round"/>
<path d="M422.33 371.68L433.98 359.07" stroke="#323433" stroke-width="3" stroke-linecap="round" stroke-linejoin="round"/>
<path d="M570.55 315.83C570.855 316.625 570.912 317.494 570.714 318.322C570.516 319.15 570.072 319.899 569.44 320.47C556.69 332.03 538.69 331.89 517.2 324.15C515.248 323.437 513.241 322.882 511.2 322.49L438.03 308.49C431.671 307.285 425.758 304.379 420.92 300.08C408.73 289.24 398.05 279.02 388.79 269.7L418.79 245.63C426.99 255.17 434.41 263.44 439.79 268.63C442.916 271.693 446.787 273.889 451.02 275L514.66 296C516.892 296.585 519.254 296.416 521.38 295.52C524.087 294.363 527.04 293.902 529.97 294.18C532.449 294.368 534.932 293.852 537.13 292.69C540.79 290.77 544.273 288.531 547.54 286C547.862 285.721 548.264 285.552 548.688 285.517C549.112 285.483 549.537 285.584 549.899 285.807C550.262 286.03 550.543 286.363 550.704 286.758C550.864 287.152 550.894 287.587 550.79 288C549.62 293.86 546.38 298 540.37 303.64L568.44 313.45C569.42 313.947 570.174 314.798 570.55 315.83Z" fill="white"/>
<path d="M455.52 428.17L474.84 514.96C471.893 516.255 468.774 517.114 465.58 517.51L446.25 430.7L455.52 428.17Z" fill="white"/>
<path d="M446.25 430.7L465.58 517.52C449.37 519.21 447.36 501.34 433.85 495.8C432.9 491.88 430.66 488.392 427.49 485.897C424.32 483.401 420.404 482.043 416.37 482.04C415.321 482.044 414.274 482.134 413.24 482.31L404.13 442.1L446.25 430.7Z" fill="#323433"/>
<path d="M276.03 231.98C261.28 226.17 251.92 221.38 239.16 218.05L242.16 211.41L257.83 176.1C275.167 181.557 292.85 185.847 310.76 188.94C308.68 203.46 309.33 213.44 313.65 224.37C313.989 225.227 314.501 226.006 315.154 226.657C315.807 227.307 316.587 227.817 317.446 228.153C318.304 228.488 319.223 228.644 320.144 228.609C321.065 228.574 321.969 228.35 322.8 227.95C338.29 220.48 347.63 210.79 354.8 194.28C356.38 194.4 357.97 194.52 359.57 194.62C365.112 195.001 370.519 196.501 375.464 199.031C380.409 201.562 384.789 205.068 388.34 209.34C398.21 221.24 409.07 234.34 418.82 245.66L388.82 269.73L384.46 273.23C379.34 265.23 374.19 258.83 368.13 254.08C351.46 284.92 360.04 311.14 385.77 340.58C378.99 341.04 372.47 341.42 366.17 341.71C323.27 343.71 291 341.94 259.57 337.89C254.27 337.2 248.99 336.45 243.69 335.65C265.61 305.18 270.17 285.32 270.43 279.98C271.04 267.49 264.19 261.69 267.58 250.39C269.35 244.53 271.7 244.39 274.58 236.58C275.16 235.02 275.643 233.487 276.03 231.98Z" fill="#F37C40"/>
<path d="M297.67 526.4C287.46 527.97 277.48 531.94 266.48 529.58C254.33 527.15 246.13 517.97 242.54 506.7C241.693 511.587 242.513 516.616 244.87 520.98C250.37 530.41 259.41 538.27 270.8 539.05C283.67 540.26 296.34 539.3 308.91 537.29L300.13 525.39C299.18 525.49 298.66 526.25 297.67 526.4Z" fill="#323433"/>
<path d="M270.8 539.01C259.41 538.23 250.37 530.37 244.87 520.94C242.523 516.588 241.703 511.574 242.54 506.7C242.059 505.199 241.658 503.674 241.34 502.13C241.658 503.674 242.059 505.199 242.54 506.7C243.204 502.517 245.275 498.686 248.41 495.84C245.275 498.686 243.204 502.517 242.54 506.7C246.17 518.01 254.33 527.19 266.48 529.62C277.48 531.98 287.32 527.81 297.53 526.24C298.53 526.09 298.29 526.14 299.27 526.04L299.81 525.52C349.67 512.84 394.34 503.06 417.53 501.22L416.21 495.4L413.21 482.34L404.13 442.1L322.84 464.1C322.84 464.1 354.7 396.76 364.93 370.31C368.344 361.14 368.764 351.124 366.13 341.7C323.23 343.7 290.96 341.93 259.53 337.88C234.53 367.52 212.46 394.48 186.3 427.96C180.727 435.093 177.726 443.898 177.782 452.949C177.838 462 180.949 470.768 186.61 477.83C209.98 506.98 229.46 529.12 252.75 557.83C266.2 574.4 275.89 590.08 279.03 605.34L287.44 598.78L298 590.54L330.51 565.18L308.89 537.26C296.34 539.26 283.67 540.22 270.8 539.01ZM247.5 445.85L266.26 425.85L251.13 464.43L246.85 458.81C245.412 456.921 244.688 454.583 244.807 452.211C244.926 449.839 245.88 447.586 247.5 445.85Z" fill="#4F59C1"/>
<path d="M408.32 85.9401C415.82 95.6601 412.66 110.94 405.52 118.94C398.08 127.27 389.73 123.88 385.19 131.94C380.12 140.94 388.05 149.53 382.65 155.58C378.01 160.77 371.1 155.58 362.57 161.42C355.4 166.31 356.42 172.61 350.38 175.15C348.659 175.845 346.797 176.116 344.95 175.94C345.7 168 347.43 162.42 348.95 156.34C352.95 153.15 358.23 148.28 356.95 145.44C355.81 142.8 351.52 143.9 348.22 145.23C345.76 134.05 337.93 127.04 327.36 123.98C325.268 123.381 323.073 123.228 320.918 123.532C318.762 123.836 316.695 124.589 314.85 125.743C313.005 126.898 311.423 128.427 310.206 130.231C308.99 132.036 308.167 134.077 307.79 136.22C307.04 140.47 306.4 144.49 305.86 148.58C298.27 127.94 300.3 119.16 304.33 115.17C309.61 109.94 317.49 113.79 325.93 106.53C333.72 99.8301 331.87 92.3601 338.38 88.7401C345.64 84.7401 350.77 94.3801 361.51 92.8101C373.13 91.1001 373.87 79.7001 385.95 77.5501C393.83 76.1601 403.2 79.3101 408.32 85.9401Z" fill="#323433"/>
<path d="M358.77 598.46L364.99 605.79L294.65 660.17C292.224 658.049 290.116 655.59 288.39 652.87L358.77 598.47V598.46Z" fill="white"/>
<path d="M358.77 598.46L288.39 652.86C279.98 638.86 295.3 629.49 294.57 614.86C297.711 612.33 299.911 608.819 300.817 604.89C301.724 600.96 301.285 596.84 299.57 593.19C299.122 592.244 298.593 591.337 297.99 590.48L330.5 565.12L358.77 598.46Z" fill="#323433"/>
<path d="M305.911 148.57C306.451 144.48 307.091 140.46 307.841 136.21C308.218 134.067 309.041 132.026 310.257 130.221C311.473 128.416 313.055 126.887 314.901 125.733C316.746 124.579 318.813 123.826 320.968 123.522C323.123 123.218 325.318 123.371 327.411 123.97C337.981 127.03 345.811 134.04 348.271 145.22C351.571 143.89 355.861 142.79 357.001 145.43C358.241 148.27 353.001 153.14 349.001 156.33C347.471 162.41 345.741 167.99 345.001 175.93C344.801 177.93 344.671 180.16 344.621 182.56L344.451 191.14C344.438 191.751 344.656 192.344 345.062 192.8C345.469 193.256 346.032 193.542 346.641 193.6C349.307 193.84 352.034 194.07 354.821 194.29C347.681 210.8 338.341 220.49 322.821 227.96C321.99 228.36 321.086 228.584 320.164 228.619C319.243 228.654 318.325 228.498 317.466 228.162C316.607 227.827 315.827 227.317 315.174 226.667C314.521 226.016 314.009 225.237 313.671 224.38C309.351 213.45 308.671 203.47 310.781 188.95C313.201 189.37 315.637 189.77 318.091 190.15C318.866 190.271 319.659 190.108 320.324 189.691C320.989 189.274 321.482 188.631 321.711 187.88L325.401 175.81L320.941 175.15C316.213 174.501 311.922 172.041 308.972 168.289C306.023 164.538 304.646 159.787 305.131 155.04C305.391 152.84 305.641 150.7 305.911 148.57Z" fill="white"/>
<path d="M281.23 28.4301C282.161 28.4301 283.072 28.7063 283.847 29.2239C284.621 29.7414 285.225 30.477 285.581 31.3376C285.938 32.1983 286.031 33.1453 285.849 34.059C285.668 34.9726 285.219 35.8119 284.56 36.4706C283.902 37.1293 283.062 37.5778 282.149 37.7596C281.235 37.9413 280.288 37.848 279.427 37.4916C278.567 37.1351 277.831 36.5314 277.314 35.7568C276.796 34.9823 276.52 34.0716 276.52 33.1401C276.512 32.4497 276.659 31.7662 276.95 31.1401C277.308 30.3549 277.875 29.6836 278.59 29.2001L278.78 29.0801C279.523 28.6455 280.369 28.4208 281.23 28.4301Z" fill="#323433"/>
<path d="M280.07 2.00012L278.91 23.0001C278.78 25.3956 278.28 27.7566 277.43 30.0001C277.28 30.4001 277.12 30.7801 276.95 31.1701C275.222 35.0675 272.462 38.4195 268.97 40.8653C265.478 43.3111 261.384 44.7579 257.13 45.0501C256.61 45.0501 256.13 45.1101 255.56 45.1101H243.27C242.74 45.1101 242.21 45.1101 241.69 45.0501C237.455 44.7667 233.377 43.3376 229.891 40.9157C226.406 38.4939 223.644 35.1702 221.9 31.3001C221.871 31.2282 221.838 31.1581 221.8 31.0901C221.65 30.7301 221.5 30.3701 221.37 30.0001C220.517 27.7571 220.015 25.3961 219.88 23.0001L218.73 2.00012H280.07Z" fill="#F9BE3D"/>
<path d="M277.43 30.0001L278.59 29.2301C277.875 29.7136 277.308 30.3849 276.95 31.1701C277.13 30.7801 277.28 30.4001 277.43 30.0001Z" fill="white"/>
<path d="M263.39 79.62C263.57 79.94 263.77 80.24 263.96 80.54C264.913 81.9749 266.209 83.1502 267.729 83.9602C269.249 84.7701 270.947 85.1893 272.67 85.1801H275.21V91.9501H223.58V85.1801H226.13C228.847 85.1894 231.461 84.1423 233.42 82.26L238.99 83.5301C240.521 83.8796 242.128 83.6407 243.491 82.8609C244.855 82.081 245.875 80.8172 246.35 79.3201L247.13 77.0001L249.94 68.1101L250.94 64.9201C251.331 63.6892 251.31 62.3644 250.881 61.1463C250.451 59.9283 249.637 58.8835 248.56 58.1701L241.65 53.6001C241.83 49.9101 241.79 46.8601 241.73 45.1101V45.05C242.25 45.05 242.73 45.1101 243.31 45.1101H255.53C256.06 45.1101 256.53 45.11 257.1 45.05V45.1101C256.923 50.8415 257.22 56.5778 257.99 62.2601C258.85 68.2901 260.46 74.7 263.39 79.62Z" fill="#F9BE3D"/>
<path d="M270.89 49.52C271.343 49.7122 271.753 49.9945 272.095 50.3497C272.436 50.705 272.702 51.1258 272.875 51.5867C273.049 52.0477 273.128 52.5391 273.106 53.0313C273.085 53.5235 272.963 54.0061 272.75 54.45L267.24 65.92C266.705 67.0547 266.367 68.272 266.24 69.52C265.949 73.0363 264.988 76.4646 263.41 79.62C260.48 74.68 258.87 68.29 258.01 62.26C261.078 58.6898 263.885 54.9034 266.41 50.93C266.867 50.2008 267.569 49.6583 268.39 49.3999C269.211 49.1415 270.097 49.1841 270.89 49.52Z" fill="white"/>
<path d="M257.83 176.1L242.13 211.41C224.35 202.7 206.89 193.7 186.69 181.92C184.446 180.61 182.488 178.864 180.93 176.784C179.373 174.704 178.248 172.334 177.623 169.812C176.997 167.29 176.883 164.669 177.288 162.102C177.693 159.536 178.608 157.077 179.98 154.87C195.27 130.28 209.61 111.56 223.58 91.3101V91.9501H250.75C238.48 118.47 227.75 142.71 218.75 159.55C218.596 159.834 218.504 160.147 218.481 160.469C218.458 160.791 218.504 161.114 218.616 161.417C218.727 161.72 218.902 161.995 219.129 162.225C219.356 162.455 219.629 162.634 219.93 162.75C233.24 167.91 245.73 172.33 257.83 176.1Z" fill="white"/>
<path d="M248.52 58.1701C249.596 58.8835 250.411 59.9284 250.84 61.1464C251.27 62.3644 251.291 63.6892 250.9 64.9201L249.9 68.1101L233.02 61.9901L235.94 54.6101C236.119 54.1535 236.398 53.7427 236.757 53.4078C237.115 53.073 237.544 52.8226 238.012 52.675C238.48 52.5273 238.975 52.4862 239.46 52.5546C239.946 52.6229 240.411 52.7991 240.82 53.0701L241.62 53.6001L248.52 58.1701Z" fill="white"/>
<path d="M249.89 68.1102L247.08 77.0002L229.22 71.5802L233.01 61.9902L249.89 68.1102Z" fill="white"/>
<path d="M247.13 77L246.39 79.32C245.915 80.8171 244.895 82.081 243.532 82.8609C242.168 83.6407 240.562 83.8796 239.03 83.53L233.46 82.26L230.9 81.7C230.255 81.5531 229.65 81.2685 229.125 80.8658C228.601 80.463 228.169 79.9516 227.86 79.3666C227.552 78.7816 227.373 78.1367 227.337 77.4763C227.301 76.8158 227.408 76.1553 227.65 75.54L229.22 71.54L247.13 77Z" fill="white"/>
<path d="M221.9 31.3001C222.334 32.3295 222.385 33.4799 222.046 34.5441C221.707 35.6083 220.999 36.5166 220.05 37.1054C219.101 37.6942 217.973 37.9249 216.869 37.756C215.764 37.5872 214.757 37.0298 214.027 36.1842C213.297 35.3385 212.893 34.2602 212.888 33.1433C212.882 32.0263 213.275 30.9441 213.997 30.0912C214.718 29.2384 215.72 28.671 216.822 28.4911C217.925 28.3113 219.055 28.5308 220.01 29.1101L220.2 29.2301C220.888 29.6982 221.44 30.3399 221.8 31.0901C221.838 31.1581 221.871 31.2282 221.9 31.3001Z" fill="#323433"/>
<path d="M221.37 30.0001C221.5 30.3701 221.65 30.7301 221.8 31.0901C221.44 30.3399 220.888 29.6982 220.2 29.2301L221.36 30.0001H221.37Z" fill="white"/>
<path d="M388.8 269.75C398.06 279.07 408.74 289.29 420.93 300.13C425.768 304.429 431.682 307.335 438.04 308.54L511.21 322.54C513.252 322.932 515.258 323.487 517.21 324.2C538.7 331.94 556.7 332.08 569.45 320.52C570.082 319.949 570.526 319.2 570.724 318.372C570.922 317.544 570.865 316.675 570.56 315.88C570.165 314.876 569.409 314.056 568.44 313.58L540.36 303.7C546.36 298.06 549.61 293.92 550.78 288.06C550.884 287.647 550.854 287.212 550.694 286.818C550.534 286.423 550.252 286.091 549.889 285.867C549.527 285.644 549.103 285.543 548.678 285.577C548.254 285.612 547.852 285.781 547.53 286.06C544.267 288.591 540.786 290.83 537.13 292.75C534.932 293.912 532.45 294.428 529.97 294.24C527.04 293.962 524.087 294.423 521.38 295.58C519.254 296.476 516.892 296.645 514.66 296.06L451.02 275.06C446.784 273.953 442.91 271.761 439.78 268.7C434.41 263.47 426.99 255.2 418.78 245.7C409.03 234.38 398.17 221.28 388.3 209.38C384.75 205.109 380.369 201.602 375.424 199.071C370.479 196.541 365.072 195.041 359.53 194.66C357.93 194.56 356.34 194.44 354.76 194.32C352 194.1 349.274 193.87 346.58 193.63C345.972 193.572 345.408 193.287 345.002 192.83C344.596 192.374 344.377 191.781 344.39 191.17L344.56 182.59C344.61 180.19 344.74 178 344.94 175.96C345.69 168.02 347.42 162.44 348.94 156.36C352.94 153.17 358.22 148.3 356.94 145.46C355.8 142.82 351.51 143.92 348.21 145.25C345.75 134.07 337.92 127.06 327.35 124C325.258 123.401 323.063 123.249 320.908 123.552C318.753 123.856 316.686 124.609 314.84 125.764C312.995 126.918 311.413 128.447 310.197 130.251C308.981 132.056 308.157 134.097 307.78 136.24C307.03 140.49 306.39 144.51 305.85 148.6C305.58 150.72 305.33 152.87 305.11 155.07C304.627 159.807 305.997 164.547 308.934 168.295C311.871 172.043 316.145 174.507 320.86 175.17L325.32 175.83L321.63 187.9C321.401 188.651 320.909 189.294 320.244 189.711C319.579 190.128 318.786 190.291 318.01 190.17C315.564 189.79 313.127 189.39 310.7 188.97C292.81 185.865 275.147 181.565 257.83 176.1C245.73 172.33 233.24 167.91 219.91 162.75C219.609 162.634 219.336 162.455 219.109 162.225C218.883 161.996 218.708 161.72 218.596 161.417C218.485 161.114 218.439 160.791 218.462 160.469C218.485 160.147 218.577 159.834 218.73 159.55C227.73 142.71 238.48 118.47 250.73 91.9502" stroke="#323433" stroke-width="2.61" stroke-linecap="round" stroke-linejoin="round"/>
<path d="M305.92 148.58C298.33 127.94 300.36 119.16 304.39 115.17C309.67 109.94 317.55 113.79 325.99 106.53C333.78 99.8301 331.93 92.3601 338.44 88.7401C345.7 84.7401 350.83 94.3801 361.57 92.8101C373.13 91.1001 373.87 79.7001 385.95 77.5501C393.83 76.1601 403.2 79.3101 408.32 85.9401C415.82 95.6601 412.66 110.94 405.52 118.94C398.08 127.27 389.73 123.88 385.19 131.94C380.12 140.94 388.05 149.53 382.65 155.58C378.01 160.77 371.1 155.58 362.57 161.42C355.4 166.31 356.42 172.61 350.38 175.15C348.66 175.845 346.798 176.116 344.95 175.94" stroke="#323433" stroke-width="2.61" stroke-linecap="round" stroke-linejoin="round"/>
<path d="M336.73 145.77C336.376 145.181 335.876 144.693 335.279 144.353C334.682 144.013 334.007 143.833 333.32 143.83C332.396 143.77 331.477 143.99 330.68 144.46" stroke="#323433" stroke-width="2.61" stroke-linecap="round" stroke-linejoin="round"/>
<path d="M315.951 141.18C315.038 140.538 313.915 140.27 312.811 140.43C311.887 140.536 311.017 140.916 310.311 141.52" stroke="#323433" stroke-width="2.61" stroke-linecap="round" stroke-linejoin="round"/>
<path d="M322.41 140C324.03 147 322.82 150.57 316.94 152.4C314.94 153.03 318.25 154.61 320.74 155.9" stroke="#323433" stroke-width="2.61" stroke-linecap="round" stroke-linejoin="round"/>
<path d="M418.79 245.7L388.79 269.77L384.43 273.27C379.31 265.27 374.16 258.87 368.1 254.12C351.43 284.96 360.01 311.18 385.74 340.62C378.96 341.08 372.44 341.46 366.14 341.75C323.24 343.75 290.97 341.98 259.54 337.93C254.24 337.24 248.96 336.49 243.66 335.69C265.58 305.22 270.14 285.36 270.4 280.02C271.01 267.53 264.16 261.73 267.55 250.43C269.32 244.57 271.67 244.43 274.55 236.62C275.13 235.053 275.613 233.517 276 232.01C277.253 227.147 277.798 222.129 277.62 217.11" stroke="#323433" stroke-width="2.61" stroke-linecap="round" stroke-linejoin="round"/>
<path d="M223.58 91.3101C209.58 111.56 195.27 130.31 179.98 154.87C178.608 157.077 177.693 159.536 177.288 162.102C176.883 164.669 176.997 167.29 177.623 169.812C178.248 172.334 179.373 174.704 180.93 176.784C182.488 178.864 184.446 180.61 186.69 181.92C206.89 193.7 224.35 202.7 242.13 211.41" stroke="#323433" stroke-width="2.61" stroke-linecap="round" stroke-linejoin="round"/>
<path d="M257.83 176.1L242.13 211.41L239.13 218.05C251.89 221.38 261.25 226.17 276 231.98" stroke="#323433" stroke-width="2.61" stroke-linecap="round" stroke-linejoin="round"/>
<path d="M354.77 194.29C347.63 210.8 338.29 220.49 322.77 227.96C321.939 228.36 321.035 228.584 320.113 228.619C319.192 228.654 318.274 228.499 317.415 228.163C316.557 227.827 315.776 227.317 315.123 226.667C314.47 226.016 313.958 225.238 313.62 224.38C309.3 213.45 308.62 203.47 310.73 188.95" stroke="#323433" stroke-width="2.61" stroke-linecap="round" stroke-linejoin="round"/>
<path d="M241.69 45.1101C241.75 46.8601 241.79 49.9101 241.61 53.6001" stroke="#323433" stroke-width="2.61" stroke-linecap="round" stroke-linejoin="round"/>
<path d="M233.41 82.2601C231.453 84.14 228.843 85.1869 226.13 85.1801H223.59V91.9501H275.22V85.1801H272.68C270.957 85.1894 269.259 84.7702 267.739 83.9602C266.218 83.1503 264.923 81.975 263.97 80.5401C263.78 80.2401 263.58 79.9401 263.4 79.6201C260.47 74.6801 258.86 68.2901 258 62.2601C257.237 56.5773 256.946 50.841 257.13 45.1101" stroke="#323433" stroke-width="2.61" stroke-linecap="round" stroke-linejoin="round"/>
<path d="M257.99 62.26C261.058 58.6898 263.866 54.9034 266.39 50.93C266.885 50.1414 267.663 49.5722 268.564 49.3396C269.466 49.107 270.422 49.2286 271.237 49.6794C272.051 50.1302 272.662 50.8759 272.943 51.7632C273.225 52.6506 273.156 53.6121 272.75 54.45L267.24 65.92C266.705 67.0547 266.367 68.272 266.24 69.52C265.949 73.0363 264.989 76.4646 263.41 79.62" stroke="#323433" stroke-width="2.61" stroke-linecap="round" stroke-linejoin="round"/>
<path d="M241.61 53.6001L240.81 53.0701C240.401 52.7991 239.937 52.6229 239.451 52.5546C238.965 52.4862 238.47 52.5273 238.002 52.675C237.534 52.8226 237.105 53.073 236.747 53.4078C236.388 53.7427 236.109 54.1535 235.93 54.6101L233.01 61.9901L229.22 71.5801L227.65 75.5801C227.414 76.1932 227.312 76.8498 227.352 77.5055C227.392 78.1612 227.572 78.8007 227.88 79.3809C228.188 79.961 228.617 80.4683 229.138 80.8684C229.659 81.2685 230.26 81.5521 230.9 81.7001L233.41 82.2701L238.98 83.5401C240.511 83.8896 242.118 83.6508 243.481 82.8709C244.844 82.0911 245.865 80.8272 246.34 79.3301L247.13 77.0001L249.94 68.1101L250.94 64.9201C251.331 63.6892 251.31 62.3644 250.881 61.1464C250.451 59.9284 249.636 58.8835 248.56 58.1701L241.61 53.6001Z" stroke="#323433" stroke-width="2.61" stroke-linecap="round" stroke-linejoin="round"/>
<path d="M229.22 71.5801L247.08 77.0001" stroke="#323433" stroke-width="2.61" stroke-linecap="round" stroke-linejoin="round"/>
<path d="M233.01 61.9902L249.89 68.1102" stroke="#323433" stroke-width="2.61" stroke-linecap="round" stroke-linejoin="round"/>
<path d="M221.9 31.3001C223.643 35.1702 226.405 38.4939 229.891 40.9157C233.376 43.3376 237.455 44.7667 241.69 45.0501C242.21 45.0501 242.69 45.1101 243.27 45.1101H255.53C256.06 45.1101 256.53 45.1101 257.1 45.0501C261.359 44.7632 265.458 43.3188 268.956 40.8727C272.455 38.4267 275.218 35.0718 276.95 31.1701C277.12 30.7801 277.28 30.4001 277.43 30.0001C278.28 27.7566 278.779 25.3956 278.91 23.0001L280.07 2.00012H218.72L219.87 23.0001C220.004 25.3961 220.507 27.7571 221.36 30.0001" stroke="#323433" stroke-width="2.61" stroke-linecap="round" stroke-linejoin="round"/>
<path d="M221.37 30.0001C221.5 30.3701 221.65 30.7301 221.8 31.0901" stroke="#323433" stroke-width="2.61" stroke-linecap="round" stroke-linejoin="round"/>
<path d="M278.59 29.2301L277.43 30.0001" stroke="#323433" stroke-width="2.61" stroke-linecap="round" stroke-linejoin="round"/>
<path d="M280.07 2.00008H295.68C296.296 1.99629 296.905 2.13208 297.462 2.39726C298.018 2.66245 298.506 3.05014 298.891 3.53124C299.276 4.01235 299.547 4.57437 299.684 5.17515C299.82 5.77592 299.819 6.39983 299.68 7.00008L299.13 9.50008C298.063 14.1862 295.23 18.2802 291.22 20.9301L278.82 29.1101" stroke="#323433" stroke-width="2.61" stroke-linecap="round" stroke-linejoin="round"/>
<path d="M220.2 29.2301L221.36 30.0001" stroke="#323433" stroke-width="2.61" stroke-linecap="round" stroke-linejoin="round"/>
<path d="M218.72 2.00008H203.13C202.514 1.99629 201.905 2.13208 201.349 2.39726C200.793 2.66245 200.304 3.05014 199.919 3.53124C199.535 4.01235 199.264 4.57437 199.127 5.17515C198.99 5.77592 198.992 6.39983 199.13 7.00008L199.7 9.51008C200.759 14.1971 203.59 18.2929 207.6 20.9401L220 29.1201" stroke="#323433" stroke-width="2.61" stroke-linecap="round" stroke-linejoin="round"/>
<path d="M278.78 29.1101C279.67 28.5678 280.715 28.3362 281.751 28.4517C282.788 28.5672 283.756 29.0232 284.505 29.7482C285.254 30.4732 285.742 31.4263 285.891 32.458C286.041 33.4898 285.843 34.542 285.331 35.4497C284.818 36.3573 284.018 37.0692 283.057 37.4737C282.096 37.8782 281.029 37.9525 280.021 37.685C279.013 37.4174 278.123 36.8231 277.489 35.9952C276.856 35.1673 276.515 34.1526 276.52 33.1101C276.512 32.4196 276.659 31.7362 276.95 31.1101C277.308 30.3248 277.875 29.6536 278.59 29.1701L278.78 29.1101Z" stroke="#323433" stroke-width="2.61" stroke-linecap="round" stroke-linejoin="round"/>
<path d="M220.01 29.11C219.053 28.5287 217.92 28.308 216.815 28.4877C215.71 28.6674 214.705 29.2358 213.982 30.0904C213.258 30.945 212.864 32.0297 212.869 33.1494C212.875 34.269 213.279 35.3499 214.011 36.1975C214.742 37.0451 215.753 37.6038 216.859 37.7729C217.966 37.9419 219.097 37.7104 220.048 37.1198C220.999 36.5293 221.709 35.6186 222.048 34.5516C222.387 33.4847 222.335 32.3316 221.9 31.3C221.87 31.2282 221.837 31.158 221.8 31.09C221.44 30.3398 220.888 29.6982 220.2 29.23L220.01 29.11Z" stroke="#323433" stroke-width="2.61" stroke-linecap="round" stroke-linejoin="round"/>
<path d="M266.26 425.8L251.13 464.43L243.86 482.99C233.5 509.43 257.51 536.45 284.99 529.3C289.97 527.967 294.913 526.693 299.82 525.48C349.68 512.8 394.35 503.02 417.54 501.18L416.22 495.36L413.22 482.3L404.13 442.1" stroke="#323433" stroke-width="2.61" stroke-linecap="round" stroke-linejoin="round"/>
<path d="M290.35 364.31L266.26 425.8" stroke="#323433" stroke-width="2.61" stroke-linecap="round" stroke-linejoin="round"/>
<path d="M416.21 495.36C423.88 493.49 429.47 493.99 433.85 495.79C447.36 501.33 449.37 519.2 465.58 517.51C468.774 517.114 471.893 516.255 474.84 514.96L455.52 428.17L446.25 430.7L404.13 442.1L322.84 464.1C322.84 464.1 354.7 396.76 364.93 370.31C368.343 361.14 368.763 351.124 366.13 341.7" stroke="#323433" stroke-width="2.61" stroke-linecap="round" stroke-linejoin="round"/>
<path d="M465.58 517.52V517.51L446.25 430.69" stroke="#323433" stroke-width="2.61" stroke-linecap="round" stroke-linejoin="round"/>
<path d="M433.85 495.79C432.9 491.869 430.66 488.382 427.49 485.886C424.321 483.391 420.404 482.033 416.37 482.03C415.321 482.033 414.274 482.124 413.24 482.3" stroke="#323433" stroke-width="2.61" stroke-linecap="round" stroke-linejoin="round"/>
<path d="M299.81 525.48L330.53 565.17L298.02 590.53L287.46 598.77L279.05 605.33C275.91 590.07 266.22 574.39 252.77 557.82C229.48 529.14 210 507 186.63 477.82C180.969 470.758 177.858 461.99 177.802 452.939C177.745 443.888 180.747 435.082 186.32 427.95C212.48 394.47 234.51 367.51 259.55 337.87" stroke="#323433" stroke-width="2.61" stroke-linecap="round" stroke-linejoin="round"/>
<path d="M287.46 598.77C292.46 604.91 294.34 610.18 294.57 614.91C295.3 629.5 279.98 638.91 288.39 652.91C290.117 655.63 292.225 658.089 294.65 660.21L364.99 605.83L358.77 598.5L330.53 565.17" stroke="#323433" stroke-width="2.61" stroke-linecap="round" stroke-linejoin="round"/>
<path d="M288.39 652.87L358.77 598.47" stroke="#323433" stroke-width="2.61" stroke-linecap="round" stroke-linejoin="round"/>
<path d="M294.57 614.91C297.711 612.38 299.911 608.869 300.817 604.94C301.724 601.01 301.285 596.89 299.57 593.24C299.121 592.294 298.593 591.387 297.99 590.53" stroke="#323433" stroke-width="2.61" stroke-linecap="round" stroke-linejoin="round"/>
<path d="M266.26 425.8L247.5 445.8C245.868 447.537 244.905 449.798 244.784 452.179C244.664 454.56 245.392 456.906 246.84 458.8L251.12 464.42" stroke="#323433" stroke-width="2.61" stroke-linecap="round" stroke-linejoin="round"/>
<path d="M164.98 322.36C164.98 323.6 164.613 324.812 163.924 325.844C163.235 326.875 162.256 327.678 161.11 328.153C159.964 328.627 158.703 328.752 157.487 328.51C156.271 328.268 155.154 327.671 154.277 326.794C153.4 325.917 152.803 324.8 152.561 323.583C152.319 322.367 152.443 321.106 152.918 319.961C153.392 318.815 154.196 317.836 155.227 317.147C156.258 316.458 157.47 316.09 158.71 316.09C160.373 316.09 161.968 316.751 163.144 317.927C164.32 319.102 164.98 320.697 164.98 322.36V322.36Z" stroke="#323433" stroke-width="3" stroke-linecap="round" stroke-linejoin="round"/>
<path d="M41.3714 449.001C50.4272 448.371 57.0784 440.34 56.2274 431.063C55.3763 421.786 47.3453 414.776 38.2895 415.406C29.2337 416.036 22.5825 424.067 23.4335 433.344C24.2845 442.621 32.3156 449.631 41.3714 449.001Z" fill="#19B787"/>
<path d="M41.5029 450.441C31.6647 451.125 22.952 443.521 22.0275 433.442C21.1029 423.364 28.3187 414.651 38.1569 413.967C47.9951 413.282 56.7078 420.887 57.6323 430.966C58.5569 441.044 51.2942 449.76 41.5029 450.441ZM38.4211 416.846C30.1757 417.42 24.0635 424.8 24.8384 433.247C25.6132 441.693 32.9934 448.135 41.2387 447.562C49.4841 446.988 55.5963 439.608 54.8214 431.161C54.0465 422.714 46.6664 416.273 38.4211 416.846Z" fill="#323433"/>
<path d="M27.9762 430.723C15.4207 431.623 4.24802 421.92 3.11942 409.136C1.99082 396.351 11.3206 385.179 23.876 384.279C36.4314 383.379 47.6042 393.083 48.7328 405.867C49.8614 418.651 40.5316 429.824 27.9762 430.723ZM24.1296 387.152C13.126 387.94 4.95175 397.729 5.94086 408.933C6.92997 420.138 16.7189 428.639 27.7225 427.851C38.7262 427.062 46.9004 417.273 45.9113 406.069C44.9222 394.865 35.1333 386.363 24.1296 387.152Z" fill="#323433"/>
<path d="M535.835 520.897L567.747 518.678L549.202 491.572L535.835 520.897Z" fill="#4385F5"/>
<path d="M570.33 519.958L533.537 522.516L548.948 488.696L570.33 519.958ZM538.153 519.293L565.185 517.413L549.477 494.464L538.153 519.293Z" fill="#323433"/>
<path d="M573.987 505.803L527.657 509.123L547.225 466.715L573.987 505.803ZM532.3 505.896L568.837 503.277L547.733 472.468L532.3 505.896Z" fill="#323433"/>
<path d="M552.057 203.894L549.227 204.104L547.697 185.981L566.562 184.577L565.152 167.885L583.546 166.516L582.257 151.254L585.087 151.044L586.617 169.167L568.224 170.536L569.633 187.228L550.768 188.632L552.057 203.894Z" fill="#323433"/>
<path d="M128.609 612.386L87.4023 615.372L88.4134 627.057L129.62 624.071L128.609 612.386Z" fill="#EA4235"/>
<path d="M131.158 625.415L87.1323 628.594L85.8652 614.027L129.891 610.848L131.158 625.415ZM89.7192 625.476L128.064 622.706L127.304 613.966L88.959 616.735L89.7192 625.476Z" fill="#323433"/>
</svg>
