<svg width="500" height="500" viewBox="0 0 500 500" fill="none" xmlns="http://www.w3.org/2000/svg">
<path opacity="0.7" d="M127.021 444.09C150.621 469 208.561 459.88 233.661 444.09C315.121 392.84 457.901 307.52 464.371 183.92C467.121 131.38 420.791 103.8 401.441 95.7099C354.961 76.2699 303.961 70.4399 253.631 68.1899C201.061 65.8399 144.671 67.6699 97.3209 93.3199C79.3909 103.04 62.4709 115.49 50.8809 132.5C39.1109 149.78 32.3509 170.35 30.5509 191.12C27.6509 224.62 36.6709 258.21 50.3009 288.95C63.9309 319.69 82.1009 348.15 98.7909 377.35C109.661 396.4 107.141 423.09 127.021 444.09Z" fill="white"/>
<path d="M127.021 444.09C150.621 469 208.561 459.88 233.661 444.09C315.121 392.84 457.901 307.52 464.371 183.92C467.121 131.38 420.791 103.8 401.441 95.7099C354.961 76.2699 303.961 70.4399 253.631 68.1899C201.061 65.8399 144.671 67.6699 97.3209 93.3199C79.3909 103.04 62.4709 115.49 50.8809 132.5C39.1109 149.78 32.3509 170.35 30.5509 191.12C27.6509 224.62 36.6709 258.21 50.3009 288.95C63.9309 319.69 82.1009 348.15 98.7909 377.35C109.661 396.4 107.141 423.09 127.021 444.09Z" fill="#E0E5F8"/>
<path d="M332.721 384.36C333.001 298 333.001 202 332.721 116.22" stroke="#263238" stroke-miterlimit="10" stroke-linecap="round" stroke-linejoin="round"/>
<path d="M348.77 89.52C349 185 349 269 348.77 364.45" stroke="#263238" stroke-miterlimit="10" stroke-linecap="round" stroke-linejoin="round"/>
<path d="M332.721 95.74V60.74C332.721 60.74 335.591 59.31 340.751 59.31C346.401 59.31 348.781 60.74 348.781 60.74V70.48" stroke="#263238" stroke-miterlimit="10" stroke-linecap="round" stroke-linejoin="round"/>
<path d="M433.429 59.3L436.729 60.64L415.559 78.64L348.769 89.52L345.609 88.57" stroke="#263238" stroke-miterlimit="10" stroke-linecap="round" stroke-linejoin="round"/>
<path d="M345.609 71.17L410.219 56.93L433.429 59.3L413.489 77.15L345.609 88.57V71.17Z" stroke="#263238" stroke-miterlimit="10" stroke-linecap="round" stroke-linejoin="round"/>
<path d="M280.601 84.33L277.891 85.96L294.311 105.54L332.721 116.22L336.811 115.19" stroke="#263238" stroke-miterlimit="10" stroke-linecap="round" stroke-linejoin="round"/>
<path d="M336.81 97.31L296.95 81.95L280.6 84.33L297.48 104.47L336.81 115.19V97.31Z" stroke="#263238" stroke-miterlimit="10" stroke-linecap="round" stroke-linejoin="round"/>
<path d="M208.26 108.49V449.44" stroke="#263238" stroke-miterlimit="10" stroke-linecap="round" stroke-linejoin="round"/>
<path d="M114.631 82.57C146.001 90 177.001 101 208.261 108.49" stroke="#263238" stroke-miterlimit="10" stroke-linecap="round" stroke-linejoin="round"/>
<path d="M78.2109 101.76C121.001 112 165.001 123 208.261 133.96" stroke="#263238" stroke-miterlimit="10" stroke-linecap="round" stroke-linejoin="round"/>
<path d="M50.2207 124.93C102.001 137 155.001 148 208.261 159.43" stroke="#263238" stroke-miterlimit="10" stroke-linecap="round" stroke-linejoin="round"/>
<path d="M34.2207 152C92.0007 163 150.001 174 208.261 184.89" stroke="#263238" stroke-miterlimit="10" stroke-linecap="round" stroke-linejoin="round"/>
<path d="M22 180.61L208.26 210.36" stroke="#263238" stroke-miterlimit="10" stroke-linecap="round" stroke-linejoin="round"/>
<path d="M22 211.54L208.26 235.83" stroke="#263238" stroke-miterlimit="10" stroke-linecap="round" stroke-linejoin="round"/>
<path d="M26.3398 242.9C86.9998 248 147 256 208.26 261.3" stroke="#263238" stroke-miterlimit="10" stroke-linecap="round" stroke-linejoin="round"/>
<path d="M34.9395 274.31C81.9995 278 128.999 280 176.999 285C186.999 285 197.999 285 208.259 286.76" stroke="#263238" stroke-miterlimit="10" stroke-linecap="round" stroke-linejoin="round"/>
<path d="M46.5898 305.35C101 308 154 311 208.26 312.23" stroke="#263238" stroke-miterlimit="10" stroke-linecap="round" stroke-linejoin="round"/>
<path d="M61.1504 335.74C110 336 159 337 208.26 337.7" stroke="#263238" stroke-miterlimit="10" stroke-linecap="round" stroke-linejoin="round"/>
<path d="M78.1309 365.25C121.001 365 165.001 364 208.261 363.17" stroke="#263238" stroke-miterlimit="10" stroke-linecap="round" stroke-linejoin="round"/>
<path d="M92.9707 393.85C131.001 392 170.001 390 208.261 388.63" stroke="#263238" stroke-miterlimit="10" stroke-linecap="round" stroke-linejoin="round"/>
<path d="M196.49 121.21V417.83" stroke="#263238" stroke-miterlimit="10" stroke-linecap="round" stroke-linejoin="round"/>
<path d="M140.51 95.53V279.82" stroke="#263238" stroke-miterlimit="10" stroke-linecap="round" stroke-linejoin="round"/>
<path d="M76.8105 120.4V324.06" stroke="#263238" stroke-miterlimit="10" stroke-linecap="round" stroke-linejoin="round"/>
<path d="M460.619 127.76L362.789 139.06V368.39" stroke="#263238" stroke-miterlimit="10" stroke-linecap="round" stroke-linejoin="round"/>
<path d="M467.569 157.21L375.789 164.82V348.05" stroke="#263238" stroke-miterlimit="10" stroke-linecap="round" stroke-linejoin="round"/>
<path d="M467.569 201.9L378.439 208.26" stroke="#263238" stroke-miterlimit="10" stroke-linecap="round" stroke-linejoin="round"/>
<path d="M454.38 240.75L381.07 245.52" stroke="#263238" stroke-miterlimit="10" stroke-linecap="round" stroke-linejoin="round"/>
<path d="M411.711 168.71V309.37" stroke="#263238" stroke-miterlimit="10" stroke-linecap="round" stroke-linejoin="round"/>
<path d="M115.74 427.46C118.47 433.22 122.04 438.83 127.02 444.08C150.62 468.99 209.57 459.87 234.66 444.08C242.91 438.89 250.78 433.35 260.08 427.46" stroke="#263238" stroke-miterlimit="10" stroke-linecap="round" stroke-linejoin="round"/>
<path d="M350.9 258.16L341.72 293.97L357.73 387.14L357.6 387.17L357.22 387.25C350.41 388.74 277.05 404.7 273.46 404.4C269.69 404.09 210.75 395.02 210.75 395.02L158.59 401.12L116.76 382.67L78.0996 389.49L67.0996 253.02C67.0996 253.02 75.2796 186.27 71.5096 168.31C71.5096 168.31 135.89 177.55 141.83 178.19C147.77 178.83 216.97 156.96 216.97 156.96L275.38 176.31L324.31 170.13L396.72 204.03C396.71 204.02 349.73 250.86 350.9 258.16Z" fill="#F9C13D" stroke="#263238" stroke-miterlimit="10" stroke-linecap="round" stroke-linejoin="round"/>
<path d="M79.0402 174.16L141.83 183L216.03 164.74L275.38 181.35L321.95 176.31L386.44 204.02C386.44 204.02 349.72 249.52 348.31 252.43C346.9 255.33 335.13 293.98 335.13 293.98L350.66 382.68L275.37 399.25L212.04 389.11L161.85 393.53L119.18 375.22L83.7402 382.67L72.2402 255.06C72.2502 255.06 82.8102 203.14 79.0402 174.16Z" fill="#F37C40" stroke="#263238" stroke-miterlimit="10" stroke-linecap="round" stroke-linejoin="round"/>
<path d="M297.829 221.81L307.959 219.35L357.359 240.46C359.789 237.37 362.519 233.92 365.309 230.4L311.809 207.77L300.529 210.93L307.599 177.86L298.249 178.88L289.669 213.96L261.949 221.72L208.609 226.37L187.299 236.95L188.339 205.74L214.399 193.46L244.759 199.31L249.929 174.21L240.709 171.63L237.789 189.86L214.399 184.86L188.649 196.48L189.489 171.26L177.049 174.32V242.03L145.439 257.73V182.1L141.839 182.98L133.949 181.86L135.309 207.74H113.899L79.6587 180.92C79.8787 184.78 79.9087 188.89 79.8087 193.13L110.229 218.58H135.869L136.889 237.88L135.939 245.82L72.8887 261.95L73.2187 265.59L135.459 249.9L133.989 262.38L74.2587 277.12L75.3687 289.38L106.979 281.01L109.929 318.73L80.7987 349.58L81.9387 362.21L92.2187 351.33L94.4987 380.37L97.4387 379.75L95.4387 347.92L116.729 325.39L127.049 322.76L167.819 309.61L166.929 315.53L144.259 385.91L152.969 389.65L164.879 351.25L182.429 347.99L217.719 363.25L234.089 364.3L231.309 392.13L235.669 392.83L237.569 364.52L278.629 367.14L308.299 362.87L312.079 391.11L319.709 389.43L316.069 361.75L346.279 357.4L344.759 348.76L280.469 357.29L254.499 355.01L258.189 320.05L280.779 307.71H287.819L338.469 312.84L336.689 302.59L289.259 298.09H278.199L283.759 264.67L297.829 221.81ZM129.849 310.91L112.649 316.01L110.369 280.14L136.869 273.13L176.389 252.73L169.859 295.97L129.849 310.91ZM185.629 338.24L167.799 341.78L175.179 317.96L186.369 247.57L208.899 235.94L217.649 271.42L214.379 301L204.549 345.84L185.629 338.24ZM267.319 305.74L251.799 313.09L246.089 354.35L220.139 352.07L211.189 348.48L221.209 303.95L224.979 273.12H242.889L272.779 268.09L267.319 305.74ZM274.269 260.93L244.269 267.1H220.129L212.869 235.35L259.949 231.01L286.529 224.56L274.269 260.93Z" fill="#F9C13D" stroke="#263238" stroke-miterlimit="10" stroke-linecap="round" stroke-linejoin="round"/>
<path opacity="0.5" d="M286.52 289.5L289.23 268.09L323.83 275.69L321.01 293.97L286.52 289.5Z" fill="#F9C13D"/>
<path opacity="0.5" d="M307.961 267.1L315.011 247.45L341.071 257.27L335.091 277.6L307.961 267.1Z" fill="#F9C13D"/>
<path opacity="0.5" d="M302.299 224.56H305.179L316.069 229.49L305.179 262.52L294.969 259.46L291.699 258.74L302.299 224.56Z" fill="#F9C13D"/>
<path opacity="0.5" d="M323.83 233.32L349.25 243.54L345.02 250.86L321.01 243.54L323.83 233.32Z" fill="#F9C13D"/>
<path opacity="0.5" d="M307.961 204.02L312.891 181.35L321.011 180.06L333.011 184.88L324.511 208.26L313.051 204.02H307.961Z" fill="#F9C13D"/>
<path opacity="0.5" d="M329.84 210.7L335.13 197.66L370.79 213.9L363.73 224.56L329.84 210.7Z" fill="#F9C13D"/>
<path opacity="0.5" d="M253.85 180.06L272.78 185.55L267.03 215.67H264.28H247.57L253.85 180.06Z" fill="#F9C13D"/>
<path opacity="0.5" d="M277.579 186.37L291.699 183.97L286.519 210.7L272.779 214.26L277.579 186.37Z" fill="#F9C13D"/>
<path opacity="0.5" d="M243.69 204.02L241.98 217.08L211.19 218.49L192.68 228.03V210.7L215.09 199.12L243.69 204.02Z" fill="#F9C13D"/>
<path opacity="0.5" d="M194.021 174.16L216.261 168.31L214.541 181.35L192.721 189.88L194.021 174.16Z" fill="#F9C13D"/>
<path opacity="0.5" d="M219.09 181.35L235.21 184.88L237.77 172.95L221.09 170.12L219.09 181.35Z" fill="#F9C13D"/>
<path opacity="0.5" d="M149.42 184.88V204.02L172.72 197.66V180.06L149.42 184.88Z" fill="#F9C13D"/>
<path opacity="0.5" d="M151.02 211.11V248.94L163.89 243.54L161.86 220.26L172.72 217.08V204.02L151.02 211.11Z" fill="#F9C13D"/>
<path opacity="0.5" d="M111.99 223.08L113.76 247.45L130.7 243.54L133.42 235.94V223.08H111.99Z" fill="#F9C13D"/>
<path opacity="0.5" d="M84.4609 204.02L106.811 221.32V233.32L81.6309 235.26C81.6309 235.26 84.8109 214.26 84.4609 204.02Z" fill="#F9C13D"/>
<path opacity="0.5" d="M81.6301 240.03L104.66 237.91V249.53L77.5801 256.92L81.6301 240.03Z" fill="#F9C13D"/>
<path opacity="0.5" d="M111.99 183.97V200.49L130.7 201.9L129.93 184.88L111.99 183.97Z" fill="#F9C13D"/>
<path opacity="0.5" d="M190.29 250.86L206.36 243.37L211.19 270.76L187.08 275L190.29 250.86Z" fill="#F9C13D"/>
<path opacity="0.5" d="M194.021 279.16L192.721 297.93L209.441 296.17V275L194.021 279.16Z" fill="#F9C13D"/>
<path opacity="0.5" d="M241.981 237.91L239.801 262.52H248.891L269.111 259.18L280.761 229.49L258.561 235.94L241.981 237.91Z" fill="#F9C13D"/>
<path opacity="0.5" d="M219.09 239.32V246L235.92 245.52V237.91L219.09 239.32Z" fill="#F9C13D"/>
<path opacity="0.5" d="M243.69 282.07L241.98 301.82L264.17 297.93L267.03 275L243.69 282.07Z" fill="#F9C13D"/>
<path opacity="0.5" d="M224.269 307.77L239.799 308.88L235.919 348.51L221.019 348.05L215.439 346.04L224.269 307.77Z" fill="#F9C13D"/>
<path opacity="0.5" d="M229.34 279.16L239.8 280.68L237.77 293.97H227.51L229.34 279.16Z" fill="#F9C13D"/>
<path opacity="0.5" d="M312.891 316.01L333.011 317.96L337.601 342.2L312.891 342.71V316.01Z" fill="#F9C13D"/>
<path opacity="0.5" d="M267.031 324.06L286.521 322.49L289.231 350.89H263.811L267.031 324.06Z" fill="#F9C13D"/>
<path opacity="0.5" d="M321.01 367.19L323.83 380.17L337.6 377.93L335.13 364.43L321.01 367.19Z" fill="#F9C13D"/>
<path opacity="0.5" d="M276.52 372.3L303.89 368.97L305.18 384.08L275.38 391.47L258.52 389.49L264.4 370.9L276.52 372.3Z" fill="#F9C13D"/>
<path opacity="0.5" d="M134.94 328.14L157.19 324.06L155.69 339.42L149.42 354.4L133.42 358.66L134.94 328.14Z" fill="#F9C13D"/>
<path opacity="0.5" d="M115.52 284.36V296.52L132.66 293.97L141.83 290.44L141.36 275L135.12 279.16L115.52 284.36Z" fill="#F9C13D"/>
<path opacity="0.5" d="M79.8691 293.97L102.459 288.41L104.659 311.77L83.0391 316.01L79.8691 293.97Z" fill="#F9C13D"/>
<path opacity="0.5" d="M81.4395 335.48L94.3394 324.06L97.6994 327.16L84.3494 339.97L81.4395 335.48Z" fill="#F9C13D"/>
<path opacity="0.5" d="M84.8105 367.19L91.1206 365.7L92.2606 378.43L86.0106 379.34L84.8105 367.19Z" fill="#F9C13D"/>
<path opacity="0.5" d="M101.399 374.91L100.189 352.66L115.519 350.89V372.87L101.399 374.91Z" fill="#F9C13D"/>
<path opacity="0.5" d="M198.04 324.06C202.806 324.06 206.67 320.196 206.67 315.43C206.67 310.664 202.806 306.8 198.04 306.8C193.274 306.8 189.41 310.664 189.41 315.43C189.41 320.196 193.274 324.06 198.04 324.06Z" fill="#F9C13D"/>
<path opacity="0.1" d="M350.899 258.16L341.719 293.97L357.729 387.14L357.599 387.17L357.219 387.25L273.459 404.4L295.229 257.68L324.309 170.12L396.719 204.02C396.709 204.02 349.729 250.86 350.899 258.16Z" fill="black" fill-opacity="0.7"/>
<path opacity="0.1" d="M275.38 176.31L253.22 254.86L233.92 288.98L210.76 395.02L158.59 401.12L197.01 311.77L206.15 244.96L217.73 157.21L275.38 176.31Z" fill="black" fill-opacity="0.7"/>
<path opacity="0.1" d="M141.359 178.14L139.769 251.1L117.869 383.17L116.759 382.68L78.099 389.5L67.959 263.72L128.469 240.31L138.489 177.77C139.749 177.93 140.719 178.06 141.359 178.14Z" fill="black" fill-opacity="0.7"/>
<path d="M132.677 184.456L132.677 184.456L122.7 194.433L112.724 184.456C107.209 178.942 107.209 170.008 112.724 164.494C118.239 158.979 127.172 158.979 132.687 164.494C138.202 170.008 138.202 178.941 132.677 184.456ZM118.097 179.084C120.642 181.629 124.769 181.629 127.314 179.084C129.859 176.538 129.859 172.412 127.314 169.866C124.769 167.321 120.642 167.321 118.097 169.866C115.552 172.412 115.552 176.538 118.097 179.084Z" fill="#F4F8FF" stroke="#263238"/>
<path d="M112.34 180.88C113.5 183.21 115.13 185.32 117.15 186.95L112.34 180.88Z" fill="#F4F8FF"/>
<path d="M112.34 180.88C113.5 183.21 115.13 185.32 117.15 186.95" stroke="#263238" stroke-miterlimit="10" stroke-linecap="round" stroke-linejoin="round"/>
<path d="M115.89 163.98C110.91 166.99 109.59 172.77 111.23 178.1L115.89 163.98Z" fill="#F4F8FF"/>
<path d="M115.89 163.98C110.91 166.99 109.59 172.77 111.23 178.1" stroke="#263238" stroke-miterlimit="10" stroke-linecap="round" stroke-linejoin="round"/>
<path d="M122.71 162.06C121.45 162.06 120.19 162.26 118.98 162.62L122.71 162.06Z" fill="#F4F8FF"/>
<path d="M122.71 162.06C121.45 162.06 120.19 162.26 118.98 162.62" stroke="#263238" stroke-miterlimit="10" stroke-linecap="round" stroke-linejoin="round"/>
<path d="M264.478 277.316L264.478 277.316L254.501 287.293L244.525 277.316C239.01 271.802 239.01 262.868 244.525 257.354C250.039 251.839 258.973 251.839 264.488 257.354C270.002 262.868 270.002 271.801 264.478 277.316ZM249.898 271.944C252.443 274.489 256.569 274.489 259.115 271.944C261.66 269.398 261.66 265.272 259.115 262.726C256.569 260.181 252.443 260.181 249.898 262.726C247.352 265.272 247.352 269.398 249.898 271.944Z" fill="#F4F8FF" stroke="#263238"/>
<path d="M244.141 273.74C245.301 276.07 246.931 278.18 248.951 279.81" stroke="#263238" stroke-miterlimit="10" stroke-linecap="round" stroke-linejoin="round"/>
<path d="M247.691 256.85C242.711 259.86 241.391 265.64 243.031 270.97" stroke="#263238" stroke-miterlimit="10" stroke-linecap="round" stroke-linejoin="round"/>
<path d="M254.501 254.92C253.241 254.92 251.981 255.12 250.771 255.48" stroke="#263238" stroke-miterlimit="10" stroke-linecap="round" stroke-linejoin="round"/>
<path d="M350.899 258.15C349.719 258.62 339.839 259.8 339.839 259.8C340.079 257.45 345.019 253.21 345.019 250.86C345.019 248.51 342.899 248.98 342.899 248.98C342.429 252.04 334.659 257.69 333.009 258.39C331.359 259.1 326.889 274.16 324.469 276.52C305.479 295.46 287.469 306.41 280.759 319.53C274.049 332.65 262.399 339.44 262.399 339.44C262.399 339.44 258.519 389.38 273.349 367.19C288.179 345.01 293.469 346.3 300.889 336.41C308.299 326.52 322.779 303.94 334.079 285.02C339.849 280.12 344.319 282.39 347.849 278.86C348.589 278.12 348.089 275.09 349.259 273.12C350.439 271.14 352.319 267.57 352.079 265.45C351.839 263.33 353.729 262.15 353.959 260.98C354.199 259.8 352.079 257.68 350.899 258.15Z" fill="white" stroke="#263238" stroke-miterlimit="10"/>
<path d="M123.02 327.58C119.17 313.36 103.82 298.92 89.1496 276.46C87.2696 273.65 86.0096 257.98 84.5396 256.95C83.0696 255.92 76.6396 248.78 76.8196 245.69C76.8196 245.69 74.8396 244.79 74.3596 247.09C73.8696 249.39 77.8296 254.56 77.5796 256.91C77.5796 256.91 68.1496 253.71 67.0996 253.01C66.0496 252.31 63.5396 253.94 63.5196 255.14C63.5096 256.34 65.1096 257.88 64.4396 259.91C63.7696 261.93 64.8696 265.82 65.6196 268C66.3596 270.18 65.2396 273.03 65.8096 273.91C68.5296 278.09 73.3796 276.8 78.0096 282.79C85.1496 303.64 94.6396 328.73 99.8496 339.93C105.06 351.14 110.51 350.96 120.43 375.74C130.35 400.51 136.88 350.85 136.88 350.85C136.88 350.85 126.87 341.8 123.02 327.58Z" fill="white" stroke="#263238" stroke-miterlimit="10"/>
<path d="M129.24 334.35C129.24 334.35 131.8 328.28 127.01 326.35C122.22 324.42 116.22 327.89 116.22 327.89C116.22 327.89 107.39 330.11 107.04 339.44C107.04 339.44 105.06 370.78 112.4 370.9C119.76 371.02 129.24 334.35 129.24 334.35Z" fill="#00B07A" stroke="#263238" stroke-miterlimit="10" stroke-linecap="round" stroke-linejoin="round"/>
<path d="M267.029 335.44C267.029 335.44 266.639 330.52 272.639 331.18C278.639 331.83 283.589 340.38 283.229 352.35C283.229 352.35 285.979 367.62 278.599 367.2C271.229 366.78 267.029 335.44 267.029 335.44Z" fill="#00B07A" stroke="#263238" stroke-miterlimit="10" stroke-linecap="round" stroke-linejoin="round"/>
<path d="M151.19 362.49C151.19 362.49 130.75 338.66 127.02 330.42C127.02 330.42 112.94 329.96 111.05 342.31C109.17 354.66 111.05 367.19 111.05 367.19C111.05 367.19 124.92 405.06 130.7 419.4L151.19 362.49Z" fill="#00B07A"/>
<path opacity="0.2" d="M135.58 405.86L130.71 419.41C124.94 405.07 111.06 367.2 111.06 367.2C111.06 367.2 109.18 354.66 111.06 342.32C112.23 334.64 118.11 331.91 122.39 330.95C122.64 330.99 122.9 331.06 123.16 331.12C123.16 331.12 112.01 338.26 113.24 365.7L124.09 395.73C124.09 395.73 125.22 385.28 129.57 386.79C131.43 387.43 134.09 396.1 135.58 405.86Z" fill="black" fill-opacity="0.7"/>
<path d="M151.19 362.49C151.19 362.49 130.75 338.66 127.02 330.42C127.02 330.42 112.94 329.96 111.05 342.31C109.17 354.66 111.05 367.19 111.05 367.19C111.05 367.19 124.92 405.06 130.7 419.4L151.19 362.49Z" stroke="#263238" stroke-miterlimit="10" stroke-linecap="round" stroke-linejoin="round"/>
<path d="M195.221 341.21C195.131 341.63 194.711 341.96 194.021 342.21C192.801 342.65 190.721 342.8 188.071 342.65C175.331 341.95 149.461 334.38 143.281 319.32C136.691 303.25 153.601 282.27 171.691 281.82C182.101 281.57 190.871 293.87 192.971 308.26C194.001 315.22 199.911 320.97 195.221 341.21Z" fill="white" stroke="#263238" stroke-miterlimit="10"/>
<path d="M186.379 317.96C186.379 317.96 185.409 319.45 185.669 322.26" stroke="#263238" stroke-miterlimit="10" stroke-linecap="round" stroke-linejoin="round"/>
<path d="M186.48 326.34C186.48 326.34 188.32 328.84 189.66 327.69" stroke="#263238" stroke-miterlimit="10" stroke-linecap="round" stroke-linejoin="round"/>
<path d="M194.02 342.21C192.8 342.65 190.72 342.8 188.07 342.65C188.33 340.76 188.83 338.57 188.99 337.47C189.51 334 187.77 332.91 188.51 332.67C189.21 332.44 189.18 335.51 190.65 337.08C192.5 339.06 193.41 341.14 194.02 342.21Z" fill="#263238"/>
<path d="M189.009 339.57C189.009 339.57 186.749 348.26 186.989 352.67C187.229 357.08 188.819 362.68 188.819 362.68L161.359 364.27C161.359 364.27 165.469 344.49 163.269 337.58C161.079 330.66 180.819 333.18 180.819 333.18" fill="white"/>
<path d="M189.009 339.57C189.009 339.57 186.749 348.26 186.989 352.67C187.229 357.08 188.819 362.68 188.819 362.68L161.359 364.27C161.359 364.27 165.469 344.49 163.269 337.58C161.079 330.66 180.819 333.18 180.819 333.18" stroke="#263238" stroke-miterlimit="10"/>
<path d="M185.86 298.76C187.01 295.02 189.06 295.39 189.06 295.39C189.06 295.39 187.73 277.44 180.08 275.53C174.9 274.23 173.48 282.04 168.11 276.42C165.09 273.26 159.63 272.38 155.96 275.08C153.79 276.68 153.86 278.91 152.42 280.85C150.93 282.85 147.98 282.71 145.77 283.16C142.37 283.85 138.92 286.38 138.21 289.97C137.63 292.89 141.2 295.19 140.51 297.59C139.68 300.46 137.02 302.2 135.36 304.55C133.35 307.41 133.18 311.12 133.95 314.45C135.09 319.38 137.65 321.31 141.61 323.83C143.59 325.09 144.79 327.39 146.01 329.32C150.13 335.8 155.14 340.54 163 341.88C178.81 344.58 185.89 329.99 185.89 329.99C185.89 329.99 184.11 315.53 185.4 313.88C186.69 312.23 189.41 317.87 189.41 317.87C192.66 309.12 185.86 298.76 185.86 298.76Z" fill="#263238"/>
<path d="M189.529 320.15C189.059 318.39 189.389 311.13 187.199 311.81C185.279 312.4 186.199 319.87 188.169 324.86C190.129 329.85 192.609 329.84 192.679 328.42C192.749 327 191.089 326.06 190.639 323.97" fill="white"/>
<path d="M189.529 320.15C189.059 318.39 189.389 311.13 187.199 311.81C185.279 312.4 186.199 319.87 188.169 324.86C190.129 329.85 192.609 329.84 192.679 328.42C192.749 327 191.089 326.06 190.639 323.97" stroke="#263238" stroke-miterlimit="10"/>
<path d="M151.19 359.97C151.19 359.97 169.58 347.01 203.05 360.64L228.16 354.78C228.16 354.78 244.4 398.88 234.66 444.09C234.66 444.09 212.86 459.73 176.39 459.64C136.82 459.55 127.02 444.09 127.02 444.09L132.68 429.66C129.27 413.19 124.85 386.76 128.22 373.09C133.33 352.31 151.19 359.97 151.19 359.97Z" fill="#00B07A"/>
<path opacity="0.2" d="M203.239 360.58C195.869 364.77 178.139 373.88 164.959 372.87C154.379 372.06 149.919 365.03 148.959 359.24C150.329 359.6 151.179 359.96 151.179 359.96C151.179 359.96 169.569 347 203.039 360.62L203.239 360.58Z" fill="black" fill-opacity="0.7"/>
<path opacity="0.2" d="M179.46 459.6C178.45 459.63 177.43 459.64 176.39 459.64C136.83 459.54 127.02 444.08 127.02 444.08L132.69 429.65C130.72 420.15 128.42 407.35 127.47 395.58C130.57 401.97 149.8 439.03 178.27 438.86C198.44 438.75 188.78 450.97 179.46 459.6Z" fill="black" fill-opacity="0.7"/>
<path opacity="0.2" d="M237.77 413.43C237.77 420.52 237.32 427.91 236.22 435.42C225.77 422.84 229.06 400 229.06 400C230.44 408.9 235.06 412.22 237.77 413.43Z" fill="black" fill-opacity="0.7"/>
<path d="M151.19 359.97C151.19 359.97 169.58 347.01 203.05 360.64L228.16 354.78C228.16 354.78 244.4 398.88 234.66 444.09C234.66 444.09 212.86 459.73 176.39 459.64C136.82 459.55 127.02 444.09 127.02 444.09L132.68 429.66C129.27 413.19 124.85 386.76 128.22 373.09C133.33 352.31 151.19 359.97 151.19 359.97Z" stroke="#263238" stroke-miterlimit="10" stroke-linecap="round" stroke-linejoin="round"/>
<path d="M163.66 367.09C175.22 367.54 189.25 367.46 199.34 361.02" stroke="#263238" stroke-miterlimit="10" stroke-linecap="round" stroke-linejoin="round"/>
<path d="M157.189 366.66C158.229 366.77 159.269 366.85 160.309 366.91" stroke="#263238" stroke-miterlimit="10" stroke-linecap="round" stroke-linejoin="round"/>
<path d="M166.109 438.57C166.209 440.42 166.399 442.3 166.899 444.08" stroke="#263238" stroke-miterlimit="10" stroke-linecap="round" stroke-linejoin="round"/>
<path d="M163.069 369.72C161.229 374.28 160.329 378.74 161.229 384.1C165.689 401.06 168.369 417.12 166.079 434.34" stroke="#263238" stroke-miterlimit="10" stroke-linecap="round" stroke-linejoin="round"/>
<path d="M169.369 426.99C175.169 428.47 181.239 428.42 187.079 427.15" stroke="#263238" stroke-miterlimit="10" stroke-linecap="round" stroke-linejoin="round"/>
<path d="M133.08 391.07C139.36 405.89 150.7 418.52 165.21 425.65" stroke="#263238" stroke-miterlimit="10" stroke-linecap="round" stroke-linejoin="round"/>
<path d="M130.119 382.67C130.459 383.87 130.839 385.07 131.239 386.26" stroke="#263238" stroke-miterlimit="10" stroke-linecap="round" stroke-linejoin="round"/>
<path d="M228.159 354.77C228.159 354.77 225.019 373.72 228.759 397.73C232.499 421.74 238.359 421.5 238.359 421.5C238.359 421.5 271.809 380.15 280.749 363.44C280.749 363.44 278.629 339.43 269.219 334.34L228.159 354.77Z" fill="#00B07A"/>
<path opacity="0.2" d="M280.76 363.45C271.82 380.16 238.37 421.51 238.37 421.51C238.37 421.51 233.39 421.72 229.68 402.88C232.41 413.04 239.81 414.07 239.81 414.07L273.89 368.97C270.26 361.25 273.38 339.03 273.47 338.44C279.31 346.99 280.76 363.45 280.76 363.45Z" fill="black" fill-opacity="0.7"/>
<path d="M228.159 354.77C228.159 354.77 225.019 373.72 228.759 397.73C232.499 421.74 238.359 421.5 238.359 421.5C238.359 421.5 271.809 380.15 280.749 363.44C280.749 363.44 278.629 339.43 269.219 334.34L228.159 354.77Z" stroke="#263238" stroke-miterlimit="10" stroke-linecap="round" stroke-linejoin="round"/>
<path d="M203.049 360.63C203.049 360.63 189.199 350.47 170.839 348.33C152.479 346.19 152.949 357.01 152.949 357.01C152.949 357.01 150.359 357.98 151.189 361.02C152.009 364.07 176.859 367.02 203.049 360.63Z" fill="#00B07A"/>
<g opacity="0.3">
<path opacity="0.3" d="M169.74 348.21C169.33 349.19 168.88 350.41 168.45 351.9C168 353.4 167.56 355.18 167.15 357.26C166.76 359.3 166.39 361.63 166.11 364.29C164.16 364.2 162.37 364.06 160.75 363.88C161.01 361.4 161.33 359.17 161.69 357.17C162.06 355.14 162.46 353.34 162.89 351.76C163.26 350.39 163.63 349.19 164.01 348.13C165.64 348.01 167.55 348.01 169.74 348.21Z" fill="#53599A"/>
</g>
<g opacity="0.3">
<path opacity="0.3" d="M184.43 351.43C184.43 352.11 184.41 352.84 184.39 353.63C184.33 355.21 184.21 357.01 184.01 359.03C183.86 360.53 183.66 362.14 183.4 363.88C181.52 364.05 179.69 364.17 177.91 364.26C178.27 362.06 178.52 360.06 178.7 358.24C178.9 356.2 179 354.39 179.06 352.85C179.09 351.71 179.1 350.7 179.08 349.85C180.93 350.31 182.73 350.85 184.43 351.43Z" fill="#53599A"/>
</g>
<g opacity="0.3">
<path opacity="0.3" d="M203.05 360.63C201.1 361.1 199.17 361.53 197.24 361.91C192.59 360.66 188.15 359.72 184 359.04C182.17 358.73 180.4 358.47 178.69 358.25C174.46 357.71 170.59 357.42 167.14 357.29C165.17 357.21 163.35 357.18 161.68 357.2C157.3 357.22 153.97 357.49 151.93 357.72C152.43 357.23 152.96 357.03 152.96 357.03C152.96 357.03 152.84 354.45 154.87 352.06C157.04 351.9 159.73 351.78 162.88 351.79C164.6 351.8 166.46 351.83 168.45 351.92C171.66 352.08 175.21 352.37 179.05 352.86C180.77 353.07 182.55 353.33 184.39 353.65C187.67 354.19 191.12 354.87 194.72 355.74L194.73 355.75C199.94 358.35 203.05 360.63 203.05 360.63Z" fill="#53599A"/>
</g>
<path d="M203.049 360.63C203.049 360.63 189.199 350.47 170.839 348.33C152.479 346.19 152.949 357.01 152.949 357.01C152.949 357.01 150.359 357.98 151.189 361.02C152.009 364.07 176.859 367.02 203.049 360.63Z" stroke="#263238" stroke-miterlimit="10" stroke-linecap="round" stroke-linejoin="round"/>
<path d="M173.02 355.84C174.8 356.1 176.55 356.48 178.27 357.01" stroke="#263238" stroke-miterlimit="10" stroke-linecap="round" stroke-linejoin="round"/>
<path d="M152.949 357.01C158.259 355.66 163.899 355.15 169.359 355.47" stroke="#263238" stroke-miterlimit="10" stroke-linecap="round" stroke-linejoin="round"/>
<path d="M121.199 355.76C121.229 357.52 121.349 359.28 121.539 361.03" stroke="#263238" stroke-miterlimit="10" stroke-linecap="round" stroke-linejoin="round"/>
<path d="M129.239 334.35C123.669 337.99 121.699 345.88 121.289 352.04" stroke="#263238" stroke-miterlimit="10" stroke-linecap="round" stroke-linejoin="round"/>
<path d="M261.179 380.85C259.749 382.32 258.109 383.63 256.219 384.46" stroke="#263238" stroke-miterlimit="10" stroke-linecap="round" stroke-linejoin="round"/>
<path d="M277.03 345.83C273.68 356.43 270.11 368.03 263.73 377.83" stroke="#263238" stroke-miterlimit="10" stroke-linecap="round" stroke-linejoin="round"/>
<path d="M238.369 421.5C238.369 421.5 233.219 424.01 226.379 409.85" stroke="#263238" stroke-miterlimit="10" stroke-linecap="round" stroke-linejoin="round"/>
<path d="M229.799 435.06C224.849 443.75 217.719 451.83 208.199 455.51" stroke="#263238" stroke-miterlimit="10" stroke-linecap="round" stroke-linejoin="round"/>
<path d="M233.649 426.99C233.129 428.4 232.509 429.77 231.859 431.12" stroke="#263238" stroke-miterlimit="10" stroke-linecap="round" stroke-linejoin="round"/>
<path d="M420.717 383.482C419.485 380.537 416.189 379.395 413.354 380.93C410.519 382.466 409.219 386.098 410.45 389.043C411.682 391.987 414.978 393.13 417.813 391.594C420.648 390.058 421.948 386.426 420.717 383.482Z" fill="#F9BE3D"/>
<path d="M421.16 383.245C422.497 386.444 421.087 390.384 418.007 392.052C414.927 393.721 411.351 392.482 410.013 389.282C408.675 386.083 410.086 382.143 413.166 380.475C416.246 378.807 419.828 380.061 421.16 383.245ZM410.893 388.806C412.014 391.487 415.043 392.537 417.625 391.138C420.206 389.74 421.401 386.403 420.28 383.721C419.158 381.04 416.129 379.991 413.548 381.389C410.967 382.787 409.772 386.125 410.893 388.806Z" fill="#323433"/>
<path d="M416.106 390.129C417.837 394.19 416.04 399.215 412.106 401.31C408.173 403.404 403.547 401.798 401.815 397.737C400.083 393.676 401.881 388.651 405.815 386.556C409.748 384.462 414.374 386.068 416.106 390.129ZM402.699 397.267C404.217 400.826 408.27 402.233 411.717 400.397C415.164 398.562 416.739 394.158 415.222 390.599C413.704 387.04 409.651 385.633 406.204 387.469C402.756 389.304 401.181 393.708 402.699 397.267Z" fill="#323433"/>
</svg>
