<svg width="93" height="165" viewBox="0 0 93 165" fill="none" xmlns="http://www.w3.org/2000/svg">
<path d="M18.9349 120.437C18.7504 119.45 18.3473 118.517 17.7553 117.706C17.1988 116.908 16.4257 116.287 15.5272 115.914C14.6535 119.229 13.8671 121.807 13.1681 123.648C12.0681 126.717 10.4905 129.592 8.49346 132.168C7.42165 133.549 4.92416 135.988 1.00098 139.487L1.00098 150.912C4.46728 148.201 7.61802 145.108 10.3939 141.693C14.2938 136.814 16.9733 131.673 18.4325 126.27C19.0296 123.983 19.197 122.039 18.9349 120.437ZM78.6783 132.583C77.4696 133.734 76.8288 135.401 76.756 137.586C76.6541 140.295 77.4841 143.062 79.2462 145.888C80.9008 148.438 82.8921 150.752 85.166 152.769C88.9814 156.265 91.1876 158.318 91.7847 158.93V148.946C90.8809 148.061 90.0953 147.062 89.4474 145.975C88.6057 144.478 87.9649 143.356 87.5251 142.611C85.2659 138.712 82.2596 135.297 78.6783 132.561V132.583ZM73.0425 105.341C75.0485 106.984 76.8655 108.845 78.4599 110.89C81.2442 114.312 82.9044 116.308 83.4403 116.876C85.2005 118.829 87.3219 120.424 89.6877 121.573C90.3726 121.889 91.081 122.152 91.8065 122.359V114.189C91.457 114.049 91.1076 113.903 90.758 113.752C88.3697 112.61 86.191 111.074 84.3141 109.208C82.4341 107.379 80.6824 105.422 79.0715 103.353C76.4823 100.087 74.8366 98.0702 74.1347 97.3012C70.4999 93.2232 66.8592 90.5724 63.2127 89.349C62.4575 90.0264 61.9117 90.9057 61.64 91.8832C61.334 92.9467 61.334 94.0749 61.64 95.1384C61.9307 96.2142 62.4277 97.2233 63.1035 98.1095C64.12 99.3766 65.6928 100.68 67.8218 102.02C70.912 103.957 72.6595 105.079 73.0644 105.384L73.0425 105.341ZM78.4599 14.2845L78.1322 13.9568C77.1501 15.8595 76.2892 17.8222 75.5546 19.8335C74.5643 22.5424 73.3556 26.6787 71.9285 32.2423C70.5013 37.8059 69.2926 41.9494 68.3024 44.673C66.8488 48.8009 64.7873 52.6887 62.1861 56.2079C59.421 59.8878 55.7789 62.8169 51.5917 64.728C51.8451 65.0339 52.116 65.3397 52.3999 65.6456C55.1231 68.5847 58.2468 69.8081 61.771 69.3158C64.2511 68.9464 66.572 67.8693 68.4553 66.2136C70.3955 64.5201 72.0545 62.5291 73.3702 60.315C74.7682 58.043 76.3264 54.7806 78.0448 50.5278C80.0428 45.6225 81.4991 42.2946 82.4136 40.544C84.0546 37.2657 86.2579 34.3006 88.9231 31.7835L89.3819 31.3684C87.1916 25.0708 83.551 19.3762 78.4599 14.2845Z" fill="#004357" stroke="#323433" stroke-width="0.861402"/>
<path d="M15.4835 115.892C14.4216 115.512 13.2657 115.481 12.1851 115.805C11.0728 116.108 10.0377 116.644 9.14878 117.378C8.29165 118.123 7.50889 118.95 6.81148 119.847C5.90714 121.039 5.21687 121.931 4.7363 122.512C3.60206 123.904 2.35253 125.197 1.00098 126.379L1.00098 139.487C4.92416 135.991 7.42165 133.552 8.49346 132.168C10.4905 129.592 12.0681 126.716 13.1681 123.648C13.8554 121.807 14.6418 119.229 15.5272 115.914H15.4835V115.892ZM91.7847 136.144C91.0944 135.384 90.4741 134.763 89.9716 134.287C88.987 133.336 87.8684 132.533 86.6514 131.906C85.3963 131.264 83.9971 130.955 82.5884 131.01C81.2064 131.039 79.8778 131.549 78.8312 132.452L78.6783 132.583C82.2596 135.318 85.2659 138.733 87.5251 142.633C87.962 143.375 88.6028 144.497 89.4474 145.997C90.0953 147.084 90.8809 148.082 91.7847 148.968L91.7847 136.166V136.144ZM78.9404 92.473C77.2263 90.7071 75.1863 89.2901 72.9333 88.3003C70.4722 87.2517 68.1786 87.055 66.0524 87.7104C65.0308 88.0157 64.0904 88.5457 63.3001 89.2615L63.2127 89.3271C66.8563 90.5505 70.497 93.2012 74.1347 97.2792C74.8337 98.0511 76.4793 100.068 79.0715 103.331C80.6824 105.4 82.4341 107.357 84.3141 109.186C86.191 111.052 88.3697 112.588 90.758 113.73C91.1076 113.896 91.457 114.041 91.8065 114.167V103.527C90.9512 103.233 90.1249 102.86 89.3382 102.413C87.2907 101.15 85.4366 99.5974 83.8335 97.8035C81.7073 95.3858 80.0763 93.609 78.9404 92.473ZM75.5546 19.8333C76.2892 17.8221 77.1501 15.8593 78.1322 13.9566C75.541 11.3949 72.66 9.14403 69.5475 7.24976C68.9506 8.53776 68.4255 9.85785 67.9747 11.204C67.0241 14.1253 66.2221 17.093 65.5719 20.0955C64.5991 24.3337 63.8491 27.3267 63.3219 29.0744C61.5384 35.1912 58.7158 40.9554 54.9775 46.1147C52.8951 49.0101 51.7737 50.5903 51.6136 50.8554C50.5494 52.4375 49.7797 54.199 49.3418 56.0549C48.7039 59.1745 49.4466 62.0728 51.5699 64.7498C55.757 62.8386 59.3992 59.9095 62.1642 56.2296C64.7655 52.7104 66.827 48.8226 68.2805 44.6947C69.2562 41.9974 70.4649 37.8538 71.9066 32.264C73.3484 26.6742 74.5643 22.5307 75.5546 19.8333Z" fill="#00B07A" stroke="#323433" stroke-width="0.861402"/>
<path d="M89.3809 31.3466L88.9221 31.7616C86.2491 34.2769 84.0384 37.2421 82.3908 40.5221C81.485 42.2698 80.0287 45.5977 78.022 50.5059C76.3065 54.7587 74.7483 58.0211 73.3474 60.2932C72.0402 62.5134 70.3885 64.5117 68.4543 66.2136C66.5676 67.8809 64.2384 68.966 61.7482 69.3376C58.2211 69.8328 55.0974 68.6094 52.3771 65.6674C52.0931 65.3616 51.8223 65.0557 51.5689 64.7499C49.4456 62.07 48.7029 59.1717 49.3408 56.0549C49.7787 54.1991 50.5484 52.4376 51.6126 50.8555C51.7757 50.5933 52.897 49.0131 54.9765 46.1148C58.7148 40.9555 61.5374 35.1913 63.3209 29.0745C63.8452 27.3559 64.5952 24.3702 65.5709 20.1174C66.2204 17.1075 67.0224 14.1326 67.9737 11.2041C68.4245 9.85794 68.9496 8.53785 69.5465 7.24985C62.6962 3.08737 54.978 1.00467 46.3918 1.00176C40.8774 0.953243 35.4001 1.90819 30.2273 3.81996C24.2148 6.12053 18.7686 9.68968 14.2593 14.2844C11.7373 16.7958 9.50278 19.5802 7.59688 22.5861C3.98711 28.3406 1.79366 34.8694 1.1966 41.6363C1.10049 42.6587 1.03495 43.6898 1 44.7384C1 45.289 1 45.8439 1 46.3988L1 126.379C2.35155 125.197 3.60108 123.904 4.73532 122.512C5.21589 121.931 5.90616 121.04 6.8105 119.847C7.50791 118.95 8.29068 118.123 9.1478 117.378C10.0367 116.644 11.0718 116.108 12.1841 115.805C13.2647 115.481 14.4206 115.512 15.4826 115.893H15.5263C16.4247 116.265 17.1978 116.886 17.7543 117.684C18.3463 118.495 18.7494 119.428 18.9339 120.415C19.1961 122.017 19.0286 123.961 18.4315 126.248C16.9752 131.654 14.2957 136.795 10.3929 141.671C7.61704 145.087 4.46631 148.179 1 150.891L1 163.999H91.7837V158.93C91.1837 158.304 88.9775 156.25 85.165 152.769C82.8911 150.752 80.8998 148.438 79.2452 145.888C77.4977 143.059 76.6676 140.292 76.755 137.586C76.8249 135.401 77.4657 133.734 78.6773 132.583L78.0657 132.146L78.6773 132.583L78.8302 132.452C79.8768 131.549 81.2054 131.039 82.5874 131.01C83.9961 130.955 85.3953 131.264 86.6504 131.906C87.8674 132.533 88.9861 133.336 89.9706 134.287C90.4862 134.764 91.0934 135.384 91.7837 136.144L91.7837 122.359C91.0582 122.152 90.3498 121.889 89.6648 121.573C87.3009 120.431 85.1796 118.843 83.4174 116.897C82.8786 116.315 81.2185 114.32 78.437 110.912C76.8495 108.868 75.0399 107.007 73.0415 105.362C72.6483 105.057 70.9008 103.935 67.799 101.998C65.6728 100.658 64.1001 99.3547 63.0807 98.0876C62.4049 97.2015 61.9079 96.1924 61.6171 95.1165C61.3111 94.053 61.3111 92.9248 61.6171 91.8614C61.8889 90.8839 62.4346 90.0045 63.1899 89.3272L63.2773 89.2616C64.0676 88.5457 65.008 88.0158 66.0296 87.7105C68.1558 87.0551 70.4494 87.2517 72.9105 88.3004C75.1635 89.2902 77.2035 90.7072 78.9176 92.4731C80.0535 93.6091 81.6845 95.3859 83.8106 97.8036C85.4071 99.5958 87.2537 101.148 89.2935 102.413C90.0802 102.86 90.9065 103.233 91.7619 103.527V46.3988C91.8128 41.2837 91.008 36.1961 89.3809 31.3466Z" fill="#4F59C1" stroke="#323433" stroke-width="0.861402"/>
<path d="M49.4725 75.4329H43.3999C43.2908 75.427 43.1814 75.427 43.0722 75.4329C38.453 75.5931 34.4846 77.6904 31.1673 81.7247C27.7159 85.9484 25.9902 91.0314 25.9902 96.9736C25.9902 102.916 27.7159 107.992 31.1673 112.201C34.5604 116.319 38.6379 118.424 43.3999 118.514H49.3196C48.4745 118.492 47.6334 118.389 46.8076 118.208C43.2106 117.509 40.0578 115.507 37.3491 112.201C33.8832 108.006 32.1502 102.93 32.1502 96.9736C32.1502 91.0168 33.8832 85.9411 37.3491 81.7466C40.0578 78.4579 43.2106 76.4553 46.8076 75.7388C47.6931 75.562 48.5918 75.4596 49.4944 75.4329H50.2808C54.9991 75.5494 59.0402 77.654 62.4042 81.7466C65.8555 85.9557 67.5812 91.0314 67.5812 96.9736C67.5812 102.916 65.8483 107.992 62.3824 112.201C59.0184 116.279 54.9845 118.383 50.2808 118.514H49.2978" stroke="#323433" stroke-width="0.861402" stroke-linecap="round" stroke-linejoin="round"/>
<path d="M49.4727 75.4329C48.5701 75.4596 47.6714 75.5619 46.7859 75.7387C43.1889 76.4495 40.0361 78.4521 37.3274 81.7465C33.8761 85.9556 32.1504 91.0313 32.1504 96.9735C32.1504 102.916 33.8834 107.991 37.3493 112.201C40.0579 115.51 43.2107 117.512 46.8077 118.208C47.6336 118.389 48.4747 118.492 49.3198 118.514H50.3028C55.0065 118.383 59.0404 116.279 62.4044 112.201C65.8674 108.006 67.6004 102.93 67.6033 96.9735C67.6062 91.0167 65.8732 85.941 62.4044 81.7465C59.0404 77.651 54.9993 75.5465 50.2809 75.4329H49.4727Z" fill="#F9C13D" stroke="#323433" stroke-width="0.861402"/>
<path d="M25.9912 96.9736C25.9912 102.93 27.7169 108.006 31.1682 112.201C34.5613 116.319 38.6389 118.424 43.4009 118.514H49.3206C48.4754 118.492 47.6343 118.389 46.8085 118.208C43.2115 117.509 40.0587 115.507 37.3501 112.201C33.8842 108.006 32.1512 102.93 32.1512 96.9736C32.1512 91.0168 33.8842 85.9411 37.3501 81.7466C40.0587 78.4579 43.2115 76.4553 46.8085 75.7388C47.694 75.562 48.5928 75.4596 49.4953 75.4329H43.4227C43.3136 75.427 43.2042 75.427 43.095 75.4329C38.4758 75.5931 34.5074 77.6904 31.1901 81.7247C27.7242 85.9484 25.9912 91.0314 25.9912 96.9736Z" fill="#F37C40" stroke="#323433" stroke-width="0.861402"/>
<path d="M57.76 91.5559C57.7611 89.8381 57.0803 88.1902 55.867 86.9743C54.6537 85.7585 53.0073 85.0742 51.2898 85.0718H50.6301V82.3804H46.3487V85.0806H41.543V89.3712H43.5483V102.479H41.543L41.543 106.757H46.3487L46.3487 109.457H50.6301V106.757H51.2898C52.1403 106.758 52.9828 106.592 53.7689 106.267C54.555 105.942 55.2691 105.465 55.8703 104.864C56.4715 104.262 56.948 103.547 57.2723 102.761C57.5965 101.975 57.7623 101.132 57.76 100.281C57.7906 98.6723 57.1936 97.1146 56.0955 95.9383C57.1941 94.7641 57.7913 93.2074 57.76 91.5996V91.5559ZM53.4829 91.5996C53.4833 92.1663 53.2633 92.7111 52.8696 93.1187C52.4759 93.5263 51.9392 93.765 51.3728 93.7842H47.8341V89.3712H51.2898C51.5793 89.3683 51.8664 89.424 52.1337 89.5352C52.401 89.6463 52.643 89.8105 52.8451 90.0179C53.0526 90.2203 53.2164 90.4632 53.3261 90.7315C53.4358 90.9999 53.4892 91.2879 53.4829 91.5777V91.5996ZM47.8341 98.0443H51.3728C51.929 98.0598 52.4572 98.2919 52.8451 98.691C53.0533 98.8929 53.2174 99.1357 53.3272 99.4041C53.437 99.6726 53.49 99.9609 53.4829 100.251C53.4829 100.83 53.2528 101.386 52.8431 101.796C52.4335 102.205 51.8779 102.435 51.2985 102.435H47.8341V98.0443Z" fill="white" stroke="#323433" stroke-width="0.861402"/>
<path d="M51.2976 85.0847H50.6423V82.3801H46.3653V85.076H41.5596V89.371H43.5605V102.479H41.5596V106.761H46.3653V109.47H50.6423V106.774H51.2976C53.0153 106.772 54.6618 106.088 55.8764 104.874C57.0909 103.659 57.7742 102.012 57.7766 100.294C57.8028 98.6857 57.2028 97.1299 56.1033 95.9555C57.2019 94.7789 57.8016 93.2221 57.7766 91.6125V91.6125C57.7754 89.8939 57.0926 88.246 55.8779 87.0304C54.6633 85.8148 53.016 85.1307 51.2976 85.1284V85.0847ZM47.8507 89.3666H51.2976C51.877 89.3666 52.4326 89.5968 52.8422 90.0065C53.2519 90.4162 53.482 90.9719 53.482 91.5513V91.5513C53.4824 92.118 53.2625 92.6627 52.8687 93.0704C52.475 93.478 51.9383 93.7167 51.3719 93.7359H47.8332L47.8507 89.3666ZM52.8573 98.6995C53.0646 98.9023 53.2284 99.1451 53.3389 99.4133C53.4493 99.6815 53.5039 99.9693 53.4995 100.259V100.259C53.4995 100.839 53.2694 101.394 52.8597 101.804C52.4501 102.214 51.8945 102.444 51.3151 102.444H47.8681V98.031H51.3719C51.9358 98.0493 52.4696 98.2896 52.8573 98.6995Z" stroke="#323433" stroke-width="0.861402" stroke-linecap="round" stroke-linejoin="round"/>
<path d="M47.3534 110.367C46.2947 110.567 45.2667 110.905 44.2953 111.372C42.4768 112.259 40.8972 113.569 39.6886 115.192C38.4801 116.815 37.6778 118.703 37.3489 120.7C36.9237 123.552 37.5644 127.069 39.2712 131.252C39.7401 132.403 40.4828 134.136 41.4993 136.451C42.2298 138.168 42.8357 139.935 43.3123 141.738C43.9236 144.44 44.2169 147.204 44.1861 149.974C44.1861 151.821 44.1861 154.61 44.1861 158.342C44.2553 160.236 44.4303 162.125 44.7103 164H58.1007C57.6232 161.894 57.2586 159.765 57.0085 157.621C56.7027 155.203 56.3677 150.317 56.0037 142.962C55.6862 136.845 55.1692 131.995 54.4527 128.412C53.126 122.038 50.7254 115.936 47.3534 110.367Z" fill="#004357" stroke="#323433" stroke-width="0.861402"/>
<path d="M78.8079 163.999C78.1497 162.624 77.3924 161.19 76.5361 159.695C74.0896 155.708 72.2911 152.7 71.1407 150.673C69.3685 147.683 67.9396 144.502 66.8811 141.191C66.1786 138.574 65.6676 135.909 65.352 133.217C64.8132 129.241 64.3909 126.562 64.085 125.178C63.5702 122.502 62.6416 119.922 61.3327 117.532C60.0858 115.156 58.2025 113.174 55.8935 111.808C54.1458 110.789 52.1705 110.226 50.1486 110.169C49.2122 110.133 48.2746 110.199 47.3525 110.366C50.7168 115.937 53.11 122.039 54.43 128.411C55.1407 131.994 55.6576 136.844 55.9809 142.961C56.345 150.316 56.6799 155.202 56.9857 157.62C57.2358 159.764 57.6004 161.894 58.0779 163.999H78.8079Z" fill="#00B07A" stroke="#323433" stroke-width="0.861402"/>
<path d="M47.3524 110.366C48.2745 110.198 49.2121 110.132 50.1485 110.169C52.1704 110.226 54.1457 110.789 55.8934 111.807C58.2024 113.174 60.0857 115.156 61.3326 117.531C62.6415 119.922 63.5701 122.501 64.0849 125.178C64.3762 126.561 64.7985 129.241 65.3519 133.217C65.6675 135.909 66.1785 138.574 66.881 141.191C67.9395 144.502 69.3685 147.682 71.1406 150.672C72.2881 152.694 74.0866 155.701 76.536 159.695C77.3923 161.186 78.1496 162.621 78.8078 163.999H44.6875C44.4075 162.124 44.2325 160.235 44.1632 158.34C44.1632 154.615 44.1632 151.826 44.1632 149.973C44.194 147.203 43.9008 144.439 43.2895 141.737C42.8129 139.934 42.2069 138.167 41.4764 136.45C40.457 134.135 39.7143 132.401 39.2483 131.251C37.5445 127.068 36.9037 123.551 37.326 120.699C37.6549 118.702 38.4572 116.813 39.6658 115.191C40.8743 113.568 42.4539 112.258 44.2724 111.37C45.2438 110.904 46.2719 110.566 47.3306 110.366C50.6949 115.936 53.0881 122.038 54.4081 128.411C55.1187 131.994 55.6357 136.844 55.959 142.961C56.3231 150.316 56.658 155.202 56.9638 157.62C57.2139 159.764 57.5785 161.893 58.056 163.999" stroke="#323433" stroke-width="0.861402" stroke-linecap="round" stroke-linejoin="round"/>
<path d="M56.9431 44.3016C57.3721 44.0522 57.6859 43.6442 57.8169 43.1656C57.9372 42.675 57.8587 42.1567 57.5985 41.7237V41.7019C57.3483 41.2556 56.9323 40.9259 56.4407 40.7843C56.1979 40.7107 55.9425 40.6882 55.6906 40.7183C55.4387 40.7484 55.1958 40.8303 54.9772 40.9591L38.1354 50.6808L32.8492 53.7393C31.722 55.9444 31.8385 57.0294 33.1987 56.9945C34.5589 56.9595 36.3719 56.2167 38.6378 54.7661L44.5139 51.4891L56.9431 44.3016Z" fill="#4F59C1" stroke="#323433" stroke-width="0.861402"/>
<path d="M1.00098 69.8406L1.00098 82.5771C3.02228 80.876 6.00035 78.3636 9.93519 75.04C17.901 69.1852 24.7309 65.7626 30.4249 64.7722C36.1189 63.7818 39.8542 61.7428 41.6309 58.6552C43.3784 55.5704 44.4196 53.1455 44.7545 51.3803L44.5361 51.4895L38.6601 54.7665C36.397 56.2229 34.584 56.9657 33.2209 56.9948C31.8578 57.024 31.7413 55.9389 32.8714 53.7397L38.1577 50.6812C38.1373 49.3995 37.7441 48.766 36.9781 48.7805C34.7034 49.4883 32.2132 50.2967 29.5074 51.2055C24.8474 52.7668 21.4106 55.2864 19.197 58.7644L1.00098 69.8406Z" fill="white" stroke="#323433" stroke-width="0.861402"/>
<path d="M44.5351 51.4977L44.7536 51.3797C44.4332 53.1449 43.392 55.5699 41.6299 58.6546C39.8678 61.7394 36.1354 63.7784 30.4326 64.7717C24.7357 65.762 17.9029 69.1846 9.93421 75.0395C6.00229 78.3631 3.02421 80.8754 1 82.5766L1 69.84L19.1961 58.7857C21.4067 55.3077 24.8435 52.7881 29.5064 51.2268C32.2093 50.318 34.6995 49.5097 36.9771 48.8019C37.7431 48.8019 38.1363 49.4354 38.1567 50.7025L54.9984 40.959C55.217 40.8302 55.46 40.7482 55.7119 40.7181C55.9638 40.6881 56.2192 40.7105 56.462 40.7842C56.9536 40.9258 57.3695 41.2555 57.6197 41.7017V41.7454C57.8799 42.1784 57.9585 42.6967 57.8381 43.1873C57.7071 43.6659 57.3933 44.0739 56.9644 44.3233L44.557 51.5196L38.694 54.7965C36.4223 56.2384 34.6048 56.9783 33.2418 57.0161C31.8787 57.054 31.7622 55.969 32.8923 53.761L38.1785 50.7025" stroke="#323433" stroke-width="0.861402" stroke-linecap="round" stroke-linejoin="round"/>
</svg>
