<svg width="606" height="501" viewBox="0 0 606 501" fill="none" xmlns="http://www.w3.org/2000/svg">
<path d="M48.8502 198.321C58.087 197.532 65.0318 189.501 64.3619 180.384C63.6919 171.266 55.6609 164.515 46.424 165.305C37.1872 166.094 30.2423 174.125 30.9123 183.243C31.5823 192.36 39.6133 199.111 48.8502 198.321Z" fill="#19B787"/>
<path d="M48.9536 199.737C38.9187 200.594 30.206 193.27 29.4782 183.365C28.7503 173.46 36.2846 164.747 46.3195 163.89C56.3543 163.032 65.067 170.356 65.7949 180.261C66.5227 190.166 58.9407 198.883 48.9536 199.737ZM46.5274 166.72C38.1173 167.439 31.7353 174.819 32.3453 183.12C32.9553 191.422 40.3355 197.625 48.7456 196.907C57.1558 196.188 63.5378 188.808 62.9278 180.506C62.3178 172.205 54.9376 166.001 46.5274 166.72Z" fill="#323433"/>
<path d="M35.426 179.999C22.6737 181.083 11.5009 171.679 10.5693 159.078C9.63763 146.477 19.289 135.305 32.0414 134.221C44.7938 133.138 55.9665 142.542 56.8981 155.143C57.8298 167.743 48.1784 178.916 35.426 179.999ZM32.2507 137.053C21.0745 138.002 12.6185 147.791 13.435 158.835C14.2515 169.878 24.0404 178.117 35.2167 177.168C46.3929 176.218 54.8489 166.429 54.0324 155.386C53.2159 144.343 43.427 136.104 32.2507 137.053Z" fill="#323433"/>
<path d="M469.076 424.843L501.544 422.069L483.277 395.795L469.076 424.843Z" fill="#4385F5"/>
<path d="M504.127 423.264L466.694 426.462L483.065 392.961L504.127 423.264ZM471.452 423.21L498.953 420.861L483.481 398.616L471.452 423.21Z" fill="#323433"/>
<path d="M507.783 409.081L460.821 413.069L481.338 370.995L507.783 409.081ZM465.575 409.818L502.61 406.673L481.756 376.653L465.575 409.818Z" fill="#323433"/>
<path d="M539.625 109.816L536.758 110.058L535.42 92.0945L554.535 90.483L553.302 73.9376L571.939 72.3663L570.812 57.2391L573.679 56.9973L575.017 74.9609L556.38 76.5322L557.613 93.0776L538.498 94.6892L539.625 109.816Z" fill="#323433"/>
<path d="M102.583 455.339L61.2109 458.788L62.0566 470.011L103.428 466.562L102.583 455.339Z" fill="#EA4235"/>
<path d="M104.964 467.848L60.7267 471.548L59.6719 457.501L103.91 453.801L104.964 467.848ZM63.3698 468.5L101.899 465.277L101.267 456.849L62.7369 460.072L63.3698 468.5Z" fill="#323433"/>
<path d="M498.91 252.498C518.709 250.828 533.577 233.595 532.119 214.008C530.66 194.421 513.428 179.897 493.629 181.567C473.83 183.237 458.962 200.469 460.421 220.056C461.879 239.643 479.111 254.168 498.91 252.498Z" fill="#323433"/>
<path d="M501.454 252.27C521.264 250.587 536.151 233.355 534.704 213.781C533.257 194.207 516.025 179.704 496.215 181.387C476.404 183.07 461.518 200.303 462.964 219.877C464.411 239.45 481.644 253.954 501.454 252.27Z" fill="#F9C13D"/>
<path d="M501.557 253.638C481.019 255.383 463.033 240.29 461.53 219.95C460.027 199.61 475.523 181.672 496.108 179.923C516.694 178.174 534.632 193.271 536.135 213.611C537.639 233.951 522.095 251.893 501.557 253.638ZM496.321 182.802C477.359 184.413 463.011 200.971 464.399 219.754C465.788 238.537 482.342 252.469 501.351 250.854C520.313 249.243 534.661 232.684 533.273 213.902C531.885 195.119 515.283 181.191 496.321 182.802Z" fill="#323433"/>
<path d="M498.043 242.574L497.597 236.562C493.604 236.756 489.589 236 487.222 234.676L488.468 228.711C491.021 229.925 494.669 230.95 498.507 230.626C502.489 230.289 505.032 228.121 504.81 225.138C504.602 222.345 502.262 220.733 497.485 219.469C490.689 217.662 486.198 215.041 485.769 209.265C485.371 203.916 488.859 199.524 495.107 197.853L494.653 191.746L499.834 191.308L500.263 197.083C504.256 196.889 507.009 197.561 509.098 198.385L507.845 204.255C506.308 203.718 503.417 202.485 499.147 202.846C494.733 203.22 493.315 205.578 493.474 207.709C493.663 210.265 496.024 211.495 501.555 213.171C508.801 215.178 512.169 218.276 512.581 223.815C512.971 229.069 509.625 234.068 502.75 235.745L503.225 242.136L498.043 242.574Z" fill="#323433"/>
<path d="M190.895 138.356C190.895 138.356 220.246 113.262 214.233 93.1458L217.173 71.9897C217.605 68.7695 216.691 65.5203 214.585 63.0369C211.319 59.1781 204.946 54.8687 193.466 56.7874C193.466 56.7874 162.146 54.1543 146.713 106.206C143.677 116.393 138.058 116.392 117.838 129.312C106.237 136.705 95.8066 155.309 112.05 169.62C128.294 183.932 158.648 175.527 158.648 175.527L190.895 138.356Z" fill="#323433"/>
<path d="M204.666 139.036L204.711 105.809C204.711 105.809 229.612 108.172 214.231 69.0652C214.231 69.0652 207.386 72.3108 201.953 67.2975C201.953 67.2975 197.546 82.617 184.237 83.8403C184.237 83.8403 173.243 82.4874 180.565 95.4323L176.977 137.432L204.666 139.036Z" fill="white"/>
<path d="M206.123 140.525L175.438 138.795L179.095 95.79C176.37 90.8805 175.868 87.3533 177.519 84.9286C179.39 82.1998 183.352 82.3399 184.225 82.4087C196.23 81.1532 200.486 67.0368 200.523 66.8909L201.176 64.646L202.883 66.2149C207.537 70.4849 213.506 67.7894 213.551 67.738L214.949 67.0959L215.489 68.5257C221.662 84.1855 222.249 95.3686 217.282 101.834C213.807 106.318 208.662 107.135 206.068 107.259L206.123 140.525ZM178.564 136.102L203.247 137.484L203.284 104.163L204.886 104.313C204.934 104.309 211.433 104.853 215.123 100.018C219.21 94.6743 218.607 84.5872 213.392 70.7977C211.176 71.4615 206.749 72.2175 202.649 69.5665C200.901 73.9508 195.681 84.1507 184.384 85.2035L184.24 85.2157L184.093 85.1806C184.045 85.1846 181.033 84.8688 179.945 86.4366C179.378 87.2461 178.913 89.4274 181.855 94.6517L182.074 95.0139L178.564 136.102Z" fill="#323433"/>
<path d="M213.079 225.104C213.079 225.104 314.727 249.664 334.781 287.168C334.781 287.168 353.052 319.372 298.375 338.044L192.538 369.069L181.431 329.241L284.383 298.793L164.618 270.697L142.207 237.659L213.079 225.104Z" fill="white"/>
<path d="M191.52 370.862L179.635 328.303L278.784 298.983L163.705 271.959L139.736 236.682L213.119 223.677L213.412 223.746C213.657 223.82 239.22 230.043 266.94 240.775C304.296 255.241 327.56 270.619 336.03 286.493C336.252 286.901 342.124 297.496 337.12 310.294C332.316 322.553 319.456 332.32 298.812 339.382L298.765 339.386L191.52 370.862ZM183.182 330.182L193.511 367.28L297.891 336.663C317.646 329.914 329.972 320.714 334.406 309.292C338.925 297.72 333.545 287.936 333.491 287.846C314.492 252.29 219.011 228.06 212.994 226.532L144.585 238.641L165.483 269.39L289.891 298.609L183.182 330.182Z" fill="#323433"/>
<path d="M200.33 226.179L277.197 306.015L336.72 393.833L300.209 415.035L240.697 333.867C240.697 333.867 157.246 281.383 137.666 238.296L200.33 226.179Z" fill="white"/>
<path d="M299.772 416.925L239.673 334.954C237.349 333.441 217.416 320.693 195.609 303.401C164.502 278.681 144.582 257 136.371 238.933L135.624 237.287L200.846 224.667L278.391 305.252L338.775 394.325L299.772 416.925ZM139.768 239.357C160.274 281.32 240.668 332.161 241.478 332.71L241.728 332.832L241.888 333.055L300.599 413.15L334.667 393.391L276.063 306.922L199.824 227.747L139.768 239.357Z" fill="#323433"/>
<path d="M327.517 377.7C327.517 377.7 312.859 396.511 287.609 400.08L340.02 474.675C340.02 474.675 371.949 471.108 396.247 456.606L367.315 444.821L327.517 377.7Z" fill="#323433"/>
<path d="M374.796 447.301L367.509 451.688L368.963 454.115L376.25 449.728L374.796 447.301Z" fill="white"/>
<path d="M367.074 444.107L359.248 448.801L360.698 451.23L368.524 446.536L367.074 444.107Z" fill="white"/>
<path d="M362.305 436.686L352.119 442.727L353.557 445.161L363.742 439.12L362.305 436.686Z" fill="white"/>
<path d="M364.814 440.663L361.903 439.055C351.87 433.582 347.051 428.95 347.235 424.94C347.31 422.698 348.989 421.319 349.966 420.856L350.106 420.796C351.701 420.233 353.253 420.387 354.754 421.163C360.463 424.15 363.654 436.053 363.995 437.403L364.814 440.663ZM351.122 423.468C350.938 423.579 350.111 424.125 350.13 425.027C350.118 426.169 351.118 429.271 360.187 434.731C358.779 430.665 356.306 425.216 353.402 423.703C352.601 423.295 351.873 423.214 351.122 423.468Z" fill="white"/>
<path d="M363.997 441.031L362.566 438.054C356.77 425.815 355.367 418.021 358.326 414.244C359.915 412.203 362.37 412.044 363.592 412.227L363.74 412.262C365.568 412.775 366.961 413.945 367.819 415.732C371.236 422.641 365.507 437.281 365.265 437.922L363.997 441.031ZM362.448 415.04C361.919 415.085 361.161 415.292 360.585 416.008C359.705 417.178 358.357 421.153 363.732 433.57C365.338 428.525 367.084 420.799 365.209 417.048C364.699 416.042 363.973 415.389 362.983 415.091C362.88 415.004 362.688 415.02 362.448 415.04Z" fill="#323433"/>
<path d="M201.273 368.342C201.273 368.342 187.616 349.205 191.923 324.371L103.819 352.713C103.819 352.713 97.4374 383.889 103.995 410.883L124.253 386.876L201.273 368.342Z" fill="#323433"/>
<path d="M118.466 385.924L115.653 386.591L117.367 394.043L120.18 393.376L118.466 385.924Z" fill="white"/>
<path d="M123.317 378.099L120.516 378.818L122.709 387.574L125.51 386.854L123.317 378.099Z" fill="white"/>
<path d="M131.281 373.138L128.466 373.819L131.174 385.293L133.99 384.612L131.281 373.138Z" fill="white"/>
<path d="M138.935 385.788C135.839 386.05 133.247 385.985 132.668 385.939L129.351 385.794L131.769 383.511C140.095 375.625 145.988 372.387 149.825 373.717C151.939 374.436 152.755 376.399 152.88 377.428L152.887 377.522L152.894 377.616C152.921 379.267 152.356 380.686 151.103 381.878C148.417 384.421 143.173 385.43 138.935 385.788ZM136.385 383.074C140.732 382.896 146.711 382.107 149.081 379.828C149.706 379.208 149.994 378.57 150.03 377.763C149.965 377.532 149.708 376.656 148.823 376.353C147.696 376.023 144.393 376.065 136.385 383.074Z" fill="white"/>
<path d="M151.757 395.891C144.043 396.542 132.402 387.556 131.894 387.174L129.298 385.125L132.617 384.656C146.125 382.666 154.049 383.556 156.727 387.346C158.173 389.397 157.63 391.758 157.04 392.847L156.956 392.996C155.873 394.551 154.365 395.529 152.376 395.839C152.185 395.855 151.995 395.871 151.757 395.891ZM136.575 386.968C140.911 389.862 147.806 393.673 151.972 392.991C153.108 392.801 153.933 392.306 154.541 391.451C154.666 391.205 155.103 389.987 154.356 388.963C153.503 387.807 150.117 385.447 136.575 386.968Z" fill="#323433"/>
<path d="M319.198 38.1291C319.198 38.1291 316.585 42.4862 313.133 40.6881C313.133 40.6881 311.777 44.4631 307.061 42.4872C307.061 42.4872 307.013 42.4913 307.009 42.444C307.009 42.444 306.969 42.5426 306.935 42.7355C306.745 43.4171 306.098 45.088 305.167 45.4999C305.266 45.539 306.257 45.9301 307.129 46.6641C308.61 47.8216 309.819 49.8578 306.493 52.3742L304.291 81.7926L278.392 72.4425C278.392 72.4425 281.637 20.6913 304.523 25.7344C304.523 25.7344 304.745 25.4779 305.151 25.1107C306.419 24.0523 309.411 22.2297 312.793 25.0319C312.793 25.0319 315.879 21.8704 319.067 25.307C319.067 25.307 323.889 22.8536 325.002 26.8467C325.057 26.9371 326.256 37.9573 319.198 38.1291Z" fill="white"/>
<path d="M305.599 83.8235L276.885 73.4768L276.952 72.4255C277.038 70.9922 279.346 37.1447 292.976 26.9561C296.305 24.487 300.036 23.5521 304.081 24.2542C304.125 24.203 304.217 24.1476 304.262 24.0963C306.98 21.8216 310.087 21.5577 312.815 23.3222C313.549 22.8321 314.668 22.3568 315.969 22.3889C317.219 22.3778 318.361 22.8512 319.438 23.7578C320.564 23.377 322.36 22.9393 323.997 23.6082C324.841 23.9643 325.959 24.7724 326.43 26.5861L326.495 26.8182C326.516 27.1016 327.254 33.8357 324.105 37.4304C323.041 38.6615 321.649 39.3501 320.031 39.5826C318.852 41.2037 316.539 43.1112 313.803 42.5357C313.363 43.0958 312.692 43.7708 311.76 44.1826C310.641 44.658 309.35 44.7676 307.929 44.413C307.806 44.7086 307.684 45.0042 307.51 45.2566C307.712 45.3821 307.917 45.5548 308.118 45.6802L308.17 45.7234C309.856 47.0536 310.199 48.4503 310.174 49.4031C310.128 50.7379 309.406 52.035 307.957 53.2513L305.599 83.8235ZM279.914 71.5084L302.994 79.8146L305.096 51.6406L305.597 51.2653C306.6 50.5147 307.172 49.8007 307.178 49.2298C307.188 48.7062 306.664 48.1327 306.206 47.7914C305.44 47.191 304.596 46.835 304.596 46.835L301.421 45.5361L304.592 44.1736C304.776 44.0629 305.208 43.4083 305.514 42.3367C305.551 42.1909 305.596 42.1396 305.592 42.0924L306.003 40.489L307.541 41.1188C307.588 41.1148 307.64 41.158 307.64 41.158C308.832 41.6745 309.799 41.735 310.546 41.4339C311.386 41.0774 311.753 40.1906 311.753 40.1906L312.311 38.6223L313.76 39.3548C315.961 40.4986 317.852 37.4387 317.94 37.3361L318.369 36.6342L319.186 36.6124C320.34 36.6095 321.224 36.2017 321.936 35.4282C323.801 33.3211 323.807 28.8527 323.634 27.1563C323.39 26.4641 323.082 26.205 322.836 26.1309C321.893 25.7357 320.255 26.3501 319.743 26.5837L318.77 27.0941L318.038 26.3007C317.357 25.5506 316.657 25.1823 315.933 25.1487C314.778 25.1517 313.882 26.0359 313.834 26.04L312.893 26.9755L311.87 26.1592C309.972 24.5618 308.05 24.5825 306.102 26.2214C305.785 26.486 305.608 26.6912 305.608 26.6912L305.032 27.358L304.202 27.1909C300.68 26.3968 297.556 27.09 294.68 29.1879C283.377 37.6579 280.4 65.716 279.914 71.5084Z" fill="#323433"/>
<path d="M277.442 66.7842L312.355 77.3822L269.923 146.797C265.984 153.248 259.346 157.604 251.892 158.711L201.746 166.049L194.776 127.001L240.793 122.242L277.442 66.7842Z" fill="#19B787"/>
<path d="M200.52 167.673L193.051 125.774L239.928 120.942L276.839 65.1296L314.504 76.5847L271.13 147.55C266.98 154.399 260.023 158.972 252.044 160.124L200.52 167.673ZM196.405 128.287L202.876 164.486L251.647 157.36C258.723 156.332 264.949 152.248 268.674 146.147L310.118 78.2847L278.003 68.5396L241.524 123.699L196.405 128.287Z" fill="#323433"/>
<path d="M319.786 176.578L340.375 169.773L348.594 174.567C348.594 174.567 366.163 178.096 379.596 171.755C379.596 171.755 385.65 169.35 384.71 176.054C384.71 176.054 389.207 178.512 385.268 183.577C385.268 183.577 386.977 187.218 380.551 191.074C380.551 191.074 382.771 195.145 374.439 199.162C374.439 199.162 354.603 210.303 337.985 206.031L323.285 208.221L319.786 176.578Z" fill="white"/>
<path d="M349.902 208.34C345.947 208.674 341.858 208.5 337.904 207.556L322.018 209.942L318.272 175.614L340.596 168.235L349.166 173.236C351.21 173.631 366.982 176.177 379.029 170.52L379.121 170.464C379.447 170.342 382.526 169.182 384.66 170.8C385.88 171.738 386.424 173.254 386.248 175.399C386.964 176.001 387.905 177.057 388.262 178.636C388.626 180.309 388.132 182.055 386.879 183.912C387.134 185.405 386.987 188.588 382.237 191.783C382.33 192.39 382.298 193.245 381.983 194.171C381.201 196.556 378.866 198.694 375.118 200.526C374.101 201.038 362.672 207.259 349.902 208.34ZM338.072 204.655L338.365 204.725C354.253 208.823 373.548 198.103 373.731 197.993L373.823 197.938C380.533 194.672 379.32 191.888 379.262 191.751L378.5 190.537L379.796 189.907C384.89 186.825 383.983 184.299 383.925 184.162L383.58 183.387L384.106 182.727C385.156 181.36 385.596 180.187 385.376 179.164C385.143 177.953 383.991 177.294 383.987 177.247L383.139 176.798L383.26 175.841C383.485 174.355 383.316 173.375 382.808 172.992C382.147 172.48 380.732 172.789 380.126 173.03C366.413 179.491 348.995 176.09 348.262 175.916L348.021 175.889L340.152 171.301L321.292 177.536L324.46 206.659L338.072 204.655Z" fill="#323433"/>
<path d="M303.104 47.0402C301.525 47.1731 300.249 46.852 299.228 46.0808C297.34 44.6682 297.307 42.29 297.29 42.0534L297.32 41.8127L299.043 31.3341L301.868 31.763L300.183 42.0955C300.204 42.3795 300.319 43.2746 300.983 43.7901C301.747 44.3448 302.944 44.2441 303.983 43.9662C305.036 42.5917 308.645 37.383 307.858 32.6397C307.435 30.1991 305.991 28.273 303.419 26.7275L304.925 24.315C308.205 26.3246 310.137 28.9716 310.667 32.2127C311.802 39.0221 306.148 45.8791 305.882 46.1872L305.572 46.5467L305.148 46.6776C304.441 46.88 303.774 46.9838 303.104 47.0402Z" fill="#323433"/>
<path d="M219.88 226.205L218.352 205.589L225.932 211.436C228.681 213.571 232.122 214.7 235.619 214.641L330.481 213.091L324.052 172.951L242.095 171.276L204.921 116.926C204.921 116.926 187.856 118.372 179.494 109.75C179.494 109.75 157.476 120.094 147.64 154.366C141.385 176.115 136.759 198.484 135.667 241.346L219.88 226.205Z" fill="#19B787"/>
<path d="M134.208 243.085L134.273 241.374C135.361 199.741 139.68 177.113 146.318 154.051C156.232 119.533 178.043 108.97 178.968 108.512L179.894 108.055L180.621 108.798C188.413 116.853 204.723 115.566 204.866 115.554L205.677 115.485L242.95 169.877L325.343 171.562L332.216 214.462L235.676 216.06C231.841 216.101 228.055 214.858 225.055 212.555L220.065 208.667L221.45 227.355L134.208 243.085ZM179.287 111.517C175.191 113.853 157.533 125.439 149.057 154.766C142.572 177.294 138.313 199.444 137.168 239.66L218.398 225.008L216.727 202.461L226.856 210.318C229.348 212.238 232.497 213.298 235.657 213.219L328.843 211.669L322.862 174.33L241.382 172.662L204.214 118.404C200.676 118.561 187.16 118.712 179.287 111.517Z" fill="#323433"/>
<path d="M294.766 66.7549C292.455 60.8696 303.27 52.6423 305.455 51.033C306.094 50.599 307.044 49.8064 306.991 49.0983C306.928 48.2487 305.606 47.2675 304.654 46.7303C292.334 48.2918 288.693 55.4866 288.652 55.585L286.065 54.3781C286.231 54.0316 290.542 45.4978 304.777 43.8698L305.159 43.8377L305.507 43.9983C305.906 44.2022 309.588 45.9342 309.806 48.8609C309.929 50.5131 308.985 52.0178 307.021 53.371C302.376 56.7553 296.25 62.8296 297.374 65.6799L294.766 66.7549Z" fill="#323433"/>
<path d="M364.277 184.132C361.9 184.329 360.367 184.316 360.177 184.331L360.25 181.498C360.393 181.486 375.23 181.524 383.739 175.067L385.485 177.278C378.966 182.203 369.603 183.689 364.277 184.132Z" fill="#323433"/>
<path d="M362.143 191.582L361.788 188.785C369.13 187.798 381.628 185.393 383.938 183.034L385.999 184.983C382.175 188.834 364.18 191.318 362.143 191.582Z" fill="#323433"/>
<path d="M362.598 197.281L362.244 194.482C362.339 194.475 371.672 193.226 379.822 190.238L380.788 192.892C372.309 195.954 362.979 197.25 362.598 197.281Z" fill="#323433"/>
<path d="M318.987 38.1136C318.987 38.1136 316.377 42.4669 312.928 40.6704C312.928 40.6704 311.573 44.4423 306.861 42.4681C311.256 34.3063 307.985 28.4105 304.956 25.1535C306.224 24.096 309.213 22.2749 312.592 25.0746C312.592 25.0746 315.675 21.9158 318.861 25.3494C318.861 25.3494 323.678 22.8981 324.79 26.8878C324.841 26.9309 326.04 37.9418 318.987 38.1136Z" fill="white"/>
<path d="M309.849 44.4903C308.751 44.5836 307.533 44.3547 306.29 43.7955L304.9 43.2013L305.618 41.8583C309.55 34.5917 306.853 29.3128 303.931 26.1897L302.936 25.0872L304.068 24.1364C306.735 21.868 309.887 21.6002 312.612 23.363C313.345 22.8734 314.463 22.3985 315.763 22.4306C317.012 22.4194 318.152 22.8924 319.228 23.7981C320.353 23.4176 322.147 22.9803 323.782 23.6486C324.626 24.0043 325.743 24.8116 326.213 26.6235L326.278 26.8554C326.299 27.1385 327.037 33.8659 323.89 37.457C322.828 38.6869 321.437 39.3748 319.82 39.6071C318.643 41.2266 316.333 43.1323 313.599 42.5573C313.16 43.1169 312.489 43.7912 311.558 44.2026C310.988 44.2985 310.422 44.4416 309.849 44.4903ZM308.917 41.6255C309.5 41.7184 309.978 41.6778 310.397 41.4998C311.236 41.1436 311.603 40.2578 311.603 40.2578L312.16 38.691L313.607 39.4227C315.806 40.5654 317.695 37.5085 317.783 37.406L318.212 36.7048L319.027 36.6831C320.177 36.6329 321.064 36.2727 321.728 35.504C323.59 33.399 323.597 28.935 323.423 27.2404C323.18 26.5488 322.872 26.29 322.627 26.2159C321.684 25.8211 320.048 26.435 319.537 26.6684L318.565 27.1783L317.834 26.3857C317.154 25.6363 316.454 25.2684 315.73 25.2349C314.577 25.2378 313.681 26.1212 313.634 26.1252L312.693 27.0598L311.672 26.2444C310.186 24.9936 308.63 24.7459 307.099 25.4932C309.643 28.696 312.17 34.2742 308.917 41.6255Z" fill="#323433"/>
<path d="M320.408 38.1389L317.802 36.9258L319.105 37.5323L317.802 36.9258C317.847 36.8743 321.271 29.6722 317.661 26.6828L319.53 24.5234C324.843 28.9444 320.624 37.787 320.408 38.1389Z" fill="#323433"/>
<path d="M313.815 41.4332L311.554 39.6663L312.686 40.5734L311.554 39.6663C311.773 39.3618 317.209 32.5159 311.237 25.8115L313.417 23.9123C319.539 30.6995 316.342 38.3602 313.815 41.4332Z" fill="#323433"/>
<path d="M194.102 180.012L192.093 182.088L218.971 208.111L220.98 206.035L194.102 180.012Z" fill="#323433"/>
<ellipse rx="38.6671" ry="38.5452" transform="matrix(0.996765 -0.0803558 0.0776709 0.996978 496.7 215.027)" fill="#F37C40" stroke="#323433" stroke-width="2.12991"/>
<path d="M493.611 189.509L478.733 235.39L482.774 237.358L503.439 226.494L484.256 228.879L501.342 202.159L493.611 189.509Z" fill="white" stroke="#323433" stroke-width="2.12991"/>
<path d="M516.061 230.298L512.683 231.15L496.115 216.662L503.34 205.841L516.061 230.298Z" fill="white" stroke="#323433" stroke-width="2.12991"/>
</svg>
