<svg width="584" height="428" viewBox="0 0 584 428" fill="none" xmlns="http://www.w3.org/2000/svg">
<path d="M304.337 427.22C458.433 427.22 583.352 408.804 583.352 386.087C583.352 363.37 458.433 344.954 304.337 344.954C150.241 344.954 25.3223 363.37 25.3223 386.087C25.3223 408.804 150.241 427.22 304.337 427.22Z" fill="#E0E5F8"/>
<ellipse rx="77.1299" ry="82.8461" transform="matrix(-0.998873 -0.0494161 -0.10703 0.994361 448.528 299.739)" fill="#F9C13D" stroke="#323433" stroke-width="3.22696"/>
<ellipse rx="77.1299" ry="82.8461" transform="matrix(-0.998873 -0.0494161 -0.10703 0.994361 435.875 297.429)" fill="#E9761A" stroke="#323433" stroke-width="3.22696"/>
<path d="M446.994 243.447L466.919 339.627L459.264 344.288L423.372 323.474L457.887 326.369L430.968 271.318L446.994 243.447Z" fill="white" stroke="#323433" stroke-width="3.22696"/>
<path d="M395.911 331.319L402.105 332.76L435.49 299.643L423.694 277.191L395.911 331.319Z" fill="white" stroke="#323433" stroke-width="3.22696"/>
<path d="M521.441 222.484C521.593 222.571 521.711 222.708 521.775 222.872C521.838 223.036 521.842 223.216 521.788 223.383C521.733 223.55 521.623 223.693 521.475 223.788C521.327 223.883 521.151 223.924 520.976 223.904C520.45 223.852 519.915 223.816 519.363 223.781H519.222C510.287 223.29 498.572 225.158 489.804 224.991C489.299 224.975 488.805 225.136 488.408 225.447C488.01 225.758 487.735 226.199 487.631 226.693C487.526 227.187 487.599 227.702 487.836 228.147C488.073 228.593 488.459 228.941 488.927 229.13C492.122 230.254 495.017 232.096 497.389 234.514C497.545 234.655 497.653 234.842 497.698 235.047C497.743 235.253 497.722 235.467 497.639 235.661C497.556 235.854 497.415 236.017 497.234 236.125C497.054 236.234 496.845 236.284 496.635 236.268L487.138 235.873C485.493 235.805 483.919 235.188 482.666 234.119L475.388 227.929C472.824 225.753 469.553 224.587 466.19 224.649L396.042 226.105L388.659 226.263C384.824 226.341 381.059 225.226 377.886 223.07C374.712 220.915 372.287 217.826 370.946 214.232C365.115 198.589 360.31 185.296 355.566 171.74L388.58 160.166L399.734 193.697C399.734 193.697 479.273 197.642 521.441 222.484Z" fill="white"/>
<path d="M222.467 160.227L193.049 144.023C205.325 127.564 217.943 109.948 231.797 90.0611C233.937 87.0064 236.692 84.4335 239.886 82.508C243.08 80.5825 246.642 79.3471 250.342 78.8812C260.363 77.5575 270.476 77.0736 280.576 77.4344C277.472 85.9399 266.494 120.4 289.345 127.231C311.012 133.685 327.313 100.399 332.258 88.8335C334.968 89.9032 337.712 91.0431 340.501 92.2795C346.691 95.0065 353.083 98.1369 359.748 101.688C363.565 103.722 366.937 106.499 369.666 109.856C372.395 113.212 374.424 117.081 375.636 121.233L388.587 160.157L355.574 171.731C351.768 160.841 348.006 149.766 343.771 137.122C331.679 168.259 285.759 172.301 269.756 204.236H237.242C224.089 204.236 210.516 196.634 201.23 190.049C202.489 188.872 203.615 187.56 204.588 186.138C211.016 176.764 216.838 168.399 222.467 160.227Z" fill="#F9C13D"/>
<path d="M357.651 25.858C361.737 38.0112 367.726 53.9174 383.307 61.1339C378.916 69.1687 372.797 76.1297 365.392 81.5154C357.986 86.9011 349.479 90.5775 340.482 92.2797C337.693 91.0434 334.949 89.9034 332.239 88.8337C329.53 87.7639 326.785 86.7468 324.093 85.8261C326.39 75.115 329.255 64.5339 332.678 54.1278C332.678 54.1278 341.052 53.6017 342.621 46.28C344.191 38.9582 340.263 38.6952 336.86 39.7474C321.892 33.3464 318.069 24.2008 315.649 9.12766C309.386 15.4346 303.899 22.4671 299.305 30.0757C299.663 22.5874 302.85 15.5143 308.222 10.2851C313.775 4.82625 321.252 1.77106 329.039 1.77962C343.77 1.77962 353.003 12.0388 357.651 25.858Z" fill="#323433"/>
<path d="M297.306 33.5129C297.972 32.3437 298.648 31.198 299.332 30.0756C303.918 22.4684 309.396 15.436 315.65 9.12755C318.044 24.2007 321.867 33.3463 336.835 39.7297C340.237 38.6775 344.165 38.9406 342.596 46.2623C341.026 53.584 332.678 54.1277 332.678 54.1277C329.255 64.5396 326.39 75.1265 324.094 85.8435C326.789 86.7613 329.504 87.7638 332.24 88.8511C327.294 100.417 310.994 133.702 289.327 127.249C266.467 120.435 277.445 85.9575 280.558 77.452C283.136 77.566 285.697 77.7326 288.248 77.9781C290.8 78.2236 293.378 78.5218 295.929 78.855C298.621 72.4189 300.603 66.6316 301.305 61.9317L300.761 61.6949C298.282 60.5762 296.151 58.8111 294.59 56.5848C293.028 54.3586 292.095 51.7532 291.887 49.0419C291.635 46.169 292.184 43.2824 293.474 40.7031C294.1 39.4696 294.722 38.2596 295.342 37.0729C295.111 36.9164 294.915 36.7136 294.766 36.4774C294.617 36.2411 294.519 35.9766 294.478 35.7004C294.436 35.4243 294.453 35.1426 294.526 34.8732C294.6 34.6038 294.728 34.3526 294.903 34.1354C295.725 34.0171 296.531 33.8084 297.306 33.5129Z" fill="white"/>
<path d="M321.639 210.839C325.391 214.511 327.789 219.345 328.44 224.554C329.091 229.763 327.958 235.039 325.226 239.521L298.648 283.083L260.9 344.937H210.498L223.028 323.743L240.013 295L260.251 260.759H208.858C208.858 260.759 176.336 262.758 160.824 242.748C150.03 228.824 155.967 209.805 162.929 196.827L185.56 196.406C191.39 196.291 196.971 194.023 201.23 190.04C210.516 196.625 224.098 204.228 237.242 204.228H305.418C311.48 204.23 317.302 206.603 321.639 210.839Z" fill="#4F59C1"/>
<path d="M324.147 320.025C327.894 325.45 329.955 331.862 330.07 338.455C330.186 345.047 328.351 351.527 324.796 357.081L324.568 357.431C321.541 362.166 317.37 366.061 312.439 368.756C307.509 371.452 301.979 372.862 296.359 372.855H278.095C272.833 361.149 249.676 363.306 249.676 363.306L260.899 344.892L298.648 283.039L324.147 320.025Z" fill="#4F59C1"/>
<path d="M300.743 61.7215L301.287 61.9583C300.586 66.6582 298.604 72.4805 295.912 78.8816C293.357 78.5016 290.797 78.2093 288.231 78.0047C281.999 72.5198 276.93 65.8409 273.324 58.3632C280.139 56.7559 286.49 53.5926 291.878 49.1211C292.094 51.8222 293.031 54.416 294.59 56.6321C296.149 58.8483 298.274 60.6058 300.743 61.7215Z" fill="#323433"/>
<path d="M279.163 378.055C279.047 381.543 278.205 384.969 276.691 388.113H184.998L190.943 378.055H279.163Z" fill="white"/>
<path d="M279.168 378.055H190.93L196.962 367.849L210.501 344.936H260.903L249.679 363.35C249.679 363.35 272.81 361.193 278.098 372.899C278.814 374.523 279.179 376.28 279.168 378.055Z" fill="#323433"/>
<path d="M260.242 260.758L240.013 295L239.882 294.921L210.551 260.758H260.242Z" fill="#323433"/>
<path d="M223.029 323.743L210.499 344.936L196.96 367.848L196.557 367.612H167.121L182.124 323.594H222.793L223.029 323.743Z" fill="#4F59C1"/>
<path d="M222.459 160.227C216.829 168.4 211.007 176.765 204.58 186.138C202.456 189.242 199.621 191.794 196.311 193.58C193.001 195.366 189.312 196.335 185.552 196.406L162.92 196.827L99.7168 198.274L99.0767 198.186C99.6585 197.625 100.082 196.92 100.304 196.143C100.917 193.877 101.212 191.537 101.181 189.19C101.208 186.931 100.94 184.679 100.383 182.491C100.101 181.48 99.4958 180.59 98.6596 179.956C97.8234 179.323 96.8025 178.981 95.7534 178.983H83.0303C76.5503 178.255 73.5515 174.652 72.2274 172.039C72.085 171.756 72.0174 171.442 72.031 171.126C72.0447 170.81 72.1391 170.502 72.3053 170.233C72.4716 169.964 72.7041 169.742 72.9806 169.588C73.2571 169.435 73.5683 169.354 73.8847 169.355H95.1835C96.9742 169.347 98.7533 169.644 100.445 170.232C115.088 173.45 116.079 174.231 120.963 173.468L176.231 162.63C178.192 162.326 179.961 161.277 181.168 159.701C185.114 154.569 189.071 149.343 193.04 144.023L222.459 160.227Z" fill="white"/>
<path d="M182.124 323.602L167.121 367.62C148.435 367.927 134.616 387.095 116.264 384.368L159.344 317.727L182.124 323.602Z" fill="#323433"/>
<path d="M159.378 317.745L116.298 384.369L105.574 379.441L147.672 314.72L159.378 317.745Z" fill="white"/>
<path d="M100.382 182.491C100.939 184.679 101.207 186.932 101.18 189.19C101.211 191.537 100.916 193.877 100.303 196.143C100.081 196.92 99.6573 197.625 99.0755 198.186C98.3344 198.907 97.3817 199.371 96.3573 199.51C97.6733 197.474 98.7335 195.282 99.514 192.987C99.8802 192.011 99.844 190.93 99.4131 189.981C98.9823 189.032 98.1922 188.293 97.2166 187.927C96.241 187.561 95.1599 187.597 94.2111 188.028C93.2622 188.459 92.5234 189.249 92.1572 190.224C91.1217 192.736 89.512 194.971 87.4572 196.748C88.0647 195.53 88.592 194.274 89.0356 192.987C89.4018 192.011 89.3656 190.93 88.9347 189.981C88.5039 189.032 87.7138 188.293 86.7382 187.927C85.7626 187.561 84.6815 187.597 83.7327 188.028C82.7838 188.459 82.045 189.249 81.6787 190.224C80.6402 192.735 79.031 194.968 76.9788 196.748C77.5863 195.53 78.1136 194.274 78.5572 192.987C78.9234 192.011 78.8872 190.93 78.4563 189.981C78.0255 189.032 77.2354 188.293 76.2598 187.927C75.2842 187.561 74.2031 187.597 73.2543 188.028C72.3054 188.459 71.5666 189.249 71.2003 190.224C69.4752 194.369 66.2409 197.703 62.1512 199.554H30.7949C32.1365 197.993 33.3027 194.337 33.3027 189.163C33.3027 183.99 32.1891 180.526 30.8914 178.913H95.7786C96.8323 178.921 97.8542 179.275 98.6863 179.922C99.5183 180.569 100.114 181.471 100.382 182.491Z" fill="#4F59C1"/>
<path d="M95.815 187.769C96.4467 187.767 97.0697 187.917 97.631 188.207C98.1923 188.497 98.6754 188.917 99.0394 189.434C99.4034 189.95 99.6376 190.547 99.7219 191.173C99.8063 191.799 99.7384 192.436 99.5241 193.03C98.7436 195.326 97.6834 197.517 96.3674 199.554C93.9473 203.219 90.3347 206.323 85.0911 206.323C83.2541 206.344 81.4367 205.945 79.7773 205.157C83.39 203.456 85.8627 200.08 87.5112 196.748C89.566 194.97 91.1757 192.736 92.2111 190.224C92.506 189.507 93.0045 188.893 93.6451 188.456C94.2856 188.02 95.04 187.781 95.815 187.769Z" fill="white"/>
<path d="M85.3374 187.769C85.9691 187.767 86.592 187.917 87.1533 188.207C87.7147 188.497 88.1978 188.917 88.5618 189.434C88.9258 189.95 89.1599 190.547 89.2443 191.173C89.3287 191.799 89.2608 192.436 89.0464 193.03C88.6029 194.317 88.0756 195.574 87.4681 196.792C85.8196 200.124 83.3469 203.5 79.7343 205.201C78.1328 205.954 76.3829 206.337 74.6134 206.323C72.7617 206.351 70.9286 205.952 69.2559 205.157C72.8685 203.456 75.3412 200.08 76.9897 196.748C79.0419 194.968 80.6511 192.734 81.6896 190.224C81.9874 189.501 82.4927 188.881 83.1418 188.444C83.7909 188.007 84.5549 187.772 85.3374 187.769Z" fill="white"/>
<path d="M74.8501 187.769C75.4826 187.765 76.1065 187.914 76.669 188.204C77.2315 188.493 77.7158 188.914 78.0808 189.43C78.4458 189.947 78.6807 190.544 78.7655 191.17C78.8503 191.797 78.7826 192.435 78.568 193.03C78.1244 194.317 77.5971 195.574 76.9896 196.792C75.3411 200.124 72.8684 203.5 69.2558 205.201C67.6516 205.955 65.8985 206.338 64.1262 206.323C58.1373 206.323 55.2086 203.07 53.7793 199.598H62.1533C66.2462 197.749 69.4839 194.414 71.2112 190.268C71.5015 189.538 72.0025 188.91 72.6505 188.465C73.2985 188.02 74.0641 187.778 74.8501 187.769Z" fill="white"/>
<path d="M30.8831 178.939C32.1809 180.552 33.3032 184.156 33.3032 189.163C33.3032 194.17 32.1458 197.932 30.8042 199.519C30.6026 199.772 30.3558 199.986 30.0764 200.15L9.74219 211.084C12.7761 209.147 15.0647 200.089 15.0647 189.207C15.0647 178.325 12.7761 169.267 9.74219 167.329L30.0677 178.202C30.3812 178.397 30.6574 178.647 30.8831 178.939Z" fill="#4F59C1"/>
<path d="M9.74262 167.312C12.7765 169.25 15.0651 178.308 15.0651 189.19C15.0651 200.071 12.7765 209.129 9.74262 211.085C9.38612 211.329 8.96457 211.46 8.53256 211.462C4.92869 211.462 2 201.501 2 189.207C2 176.914 4.92869 166.953 8.53256 166.953C8.96207 166.954 9.38217 167.079 9.74262 167.312Z" fill="white"/>
<path d="M291.871 49.0685C286.482 53.54 280.132 56.7032 273.316 58.3105C276.922 65.7883 281.991 72.4671 288.223 77.952" stroke="#323433" stroke-width="2.28859" stroke-linecap="round" stroke-linejoin="round"/>
<path d="M340.485 92.2797C349.481 90.5784 357.988 86.9034 365.393 81.5193C372.799 76.1351 378.918 69.1759 383.31 61.1426C367.729 53.9261 361.74 38.02 357.654 25.8668C353.006 12.0388 343.773 1.77962 329.042 1.77962C321.255 1.77106 313.778 4.82625 308.225 10.2851V10.2851C302.863 15.5185 299.686 22.5911 299.334 30.0757" stroke="#323433" stroke-width="2.28859" stroke-linecap="round" stroke-linejoin="round"/>
<path d="M247.089 123.399C238.443 136.885 230.656 148.346 222.467 160.227C216.837 168.4 211.015 176.765 204.588 186.138C202.464 189.242 199.629 191.794 196.319 193.58C193.009 195.366 189.32 196.335 185.56 196.406L162.928 196.827L99.7246 198.274" stroke="#323433" stroke-width="2.28859" stroke-linecap="round" stroke-linejoin="round"/>
<path d="M519.362 223.808C519.914 223.808 520.449 223.878 520.975 223.93C521.15 223.95 521.326 223.909 521.474 223.815C521.622 223.72 521.733 223.577 521.787 223.41C521.842 223.243 521.837 223.062 521.774 222.898C521.711 222.734 521.593 222.597 521.44 222.51C479.272 197.642 399.724 193.688 399.724 193.688L388.571 160.157L375.619 121.233C374.408 117.081 372.378 113.212 369.649 109.856C366.921 106.499 363.548 103.722 359.731 101.688C353.067 98.1808 346.674 95.0066 340.484 92.2796C337.695 91.0432 334.951 89.9033 332.241 88.8336C329.532 87.7638 326.787 86.7466 324.095 85.826C326.392 75.1149 329.257 64.5338 332.68 54.1277C332.68 54.1277 341.054 53.6016 342.623 46.2798C344.193 38.9581 340.265 38.6951 336.862 39.7473C321.895 33.3462 318.071 24.2007 315.651 9.12755C309.388 15.4345 303.901 22.467 299.307 30.0756V30.0756C298.623 31.198 297.948 32.3437 297.281 33.5129" stroke="#323433" stroke-width="2.28859" stroke-linecap="round" stroke-linejoin="round"/>
<path d="M269.74 204.236C285.743 172.301 331.664 168.285 343.755 137.122C347.991 149.766 351.752 160.797 355.558 171.731C360.302 185.305 365.107 198.581 370.938 214.224C372.279 217.818 374.704 220.906 377.877 223.062C381.05 225.217 384.815 226.333 388.65 226.254L396.033 226.096L466.182 224.641C469.545 224.578 472.815 225.744 475.38 227.92L482.658 234.111C483.91 235.179 485.485 235.797 487.13 235.865L496.626 236.259C496.836 236.275 497.046 236.226 497.226 236.117C497.406 236.008 497.548 235.846 497.631 235.652C497.714 235.459 497.734 235.244 497.69 235.039C497.645 234.833 497.536 234.647 497.38 234.505C495.008 232.088 492.114 230.246 488.919 229.122C488.451 228.932 488.064 228.584 487.827 228.139C487.59 227.693 487.518 227.178 487.622 226.685C487.727 226.191 488.002 225.75 488.399 225.439C488.797 225.127 489.291 224.966 489.795 224.983C498.564 225.149 510.279 223.282 519.214 223.773" stroke="#323433" stroke-width="2.28859" stroke-linecap="round" stroke-linejoin="round"/>
<path d="M295.334 37.0991C294.714 38.2682 294.092 39.4783 293.466 40.7293C292.176 43.3086 291.627 46.1952 291.879 49.0681C292.086 51.7784 293.018 54.3832 294.578 56.6094C296.138 58.8356 298.268 60.6012 300.744 61.7211L301.288 61.9579C300.586 66.6578 298.605 72.4801 295.913 78.8812C293.358 78.5012 290.798 78.2089 288.232 78.0043C285.68 77.7588 283.12 77.5922 280.542 77.4782C270.447 77.1184 260.339 77.6023 250.325 78.925C246.629 79.389 243.07 80.6209 239.877 82.5417C236.685 84.4626 233.93 87.0298 231.789 90.0786C217.934 109.966 205.316 127.582 193.04 144.04C189.059 149.371 185.102 154.597 181.168 159.718C179.961 161.294 178.192 162.343 176.231 162.647L120.919 173.441C116.035 174.204 115.044 173.441 100.401 170.206C98.7095 169.617 96.9304 169.32 95.1396 169.329H73.8847C73.5683 169.328 73.2571 169.408 72.9806 169.562C72.7041 169.715 72.4716 169.937 72.3053 170.207C72.1391 170.476 72.0447 170.783 72.031 171.099C72.0174 171.415 72.085 171.729 72.2274 172.012C73.5515 174.642 76.5503 178.229 83.0303 178.957" stroke="#323433" stroke-width="2.28859" stroke-linecap="round" stroke-linejoin="round"/>
<path d="M355.555 171.731L388.568 160.157" stroke="#323433" stroke-width="2.28859" stroke-linecap="round" stroke-linejoin="round"/>
<path d="M193.039 144.023L222.458 160.227" stroke="#323433" stroke-width="2.28859" stroke-linecap="round" stroke-linejoin="round"/>
<path d="M201.23 190.04C210.516 196.625 224.098 204.228 237.242 204.228H305.418C309.539 204.225 313.587 205.32 317.144 207.401C320.702 209.482 323.641 212.473 325.658 216.067C327.676 219.661 328.699 223.728 328.623 227.849C328.547 231.969 327.374 235.995 325.226 239.512L298.648 283.074L260.9 344.928L249.676 363.342C249.676 363.342 272.807 361.185 278.095 372.891C278.816 374.525 279.181 376.295 279.165 378.082C279.048 381.57 278.206 384.995 276.692 388.139H184.999L190.944 378.082L196.977 367.875L210.516 344.963L223.046 323.769L240.031 295.026L260.268 260.785H208.858C208.858 260.785 176.336 262.784 160.824 242.774C150.03 228.85 155.967 209.831 162.929 196.853" stroke="#323433" stroke-width="2.28859" stroke-linecap="round" stroke-linejoin="round"/>
<path d="M298.647 283.083L324.146 320.025C327.893 325.45 329.954 331.862 330.069 338.455C330.185 345.048 328.35 351.527 324.795 357.081L324.567 357.432C321.54 362.166 317.369 366.061 312.438 368.757C307.508 371.452 301.978 372.862 296.359 372.855H278.094" stroke="#323433" stroke-width="2.28859" stroke-linecap="round" stroke-linejoin="round"/>
<path d="M196.557 367.612H167.121C148.435 367.919 134.616 387.087 116.263 384.36L105.574 379.441L147.663 314.72L159.369 317.745L182.115 323.603H222.792" stroke="#323433" stroke-width="2.28859" stroke-linecap="round" stroke-linejoin="round"/>
<path d="M239.882 294.921L210.551 260.758" stroke="#323433" stroke-width="2.28859" stroke-linecap="round" stroke-linejoin="round"/>
<path d="M116.297 384.368L159.377 317.745" stroke="#323433" stroke-width="2.28859" stroke-linecap="round" stroke-linejoin="round"/>
<path d="M190.93 378.055H279.168" stroke="#323433" stroke-width="2.28859" stroke-linecap="round" stroke-linejoin="round"/>
<path d="M210.498 344.936H260.9" stroke="#323433" stroke-width="2.28859" stroke-linecap="round" stroke-linejoin="round"/>
<path d="M182.124 323.603L167.121 367.621" stroke="#323433" stroke-width="2.28859" stroke-linecap="round" stroke-linejoin="round"/>
<path d="M280.579 77.4344C277.475 85.9398 266.497 120.4 289.347 127.231C311.015 133.685 327.315 100.399 332.261 88.8335" stroke="#323433" stroke-width="2.28859" stroke-linecap="round" stroke-linejoin="round"/>
<path d="M9.74262 211.085C9.38612 211.329 8.96457 211.46 8.53256 211.462C4.92869 211.462 2 201.501 2 189.207C2 176.914 4.92869 166.953 8.53256 166.953C8.96384 166.959 9.38408 167.09 9.74262 167.33C12.7765 169.268 15.0651 178.325 15.0651 189.207C15.0651 200.089 12.7765 209.129 9.74262 211.085Z" stroke="#323433" stroke-width="2.28859" stroke-linecap="round" stroke-linejoin="round"/>
<path d="M30.0664 178.203C30.38 178.398 30.6562 178.647 30.8819 178.939C32.1796 180.553 33.302 184.157 33.302 189.163C33.302 194.17 32.1445 197.932 30.803 199.519C30.6013 199.773 30.3546 199.987 30.0752 200.15" stroke="#323433" stroke-width="2.28859" stroke-linecap="round" stroke-linejoin="round"/>
<path d="M30.0677 178.203L9.74219 167.312" stroke="#323433" stroke-width="2.28859" stroke-linecap="round" stroke-linejoin="round"/>
<path d="M30.0677 200.177L9.74219 211.067" stroke="#323433" stroke-width="2.28859" stroke-linecap="round" stroke-linejoin="round"/>
<path d="M96.3672 199.51C97.3916 199.371 98.3444 198.907 99.0854 198.186C99.6672 197.625 100.091 196.92 100.313 196.143C100.926 193.877 101.221 191.537 101.19 189.189C101.217 186.931 100.948 184.679 100.392 182.49C100.11 181.48 99.5046 180.59 98.6683 179.956C97.8321 179.323 96.8113 178.981 95.7622 178.983H30.875" stroke="#323433" stroke-width="2.28859" stroke-linecap="round" stroke-linejoin="round"/>
<path d="M30.7949 199.554H62.1512C66.2442 197.705 69.4819 194.37 71.2091 190.224C71.5754 189.249 72.3142 188.458 73.263 188.028C74.2119 187.597 75.293 187.56 76.2686 187.927C77.2441 188.293 78.0342 189.032 78.4651 189.981C78.8959 190.93 78.9322 192.011 78.5659 192.986C78.1223 194.273 77.5951 195.53 76.9876 196.748C75.3391 200.08 72.8664 203.456 69.2537 205.157C67.6495 205.911 65.8965 206.294 64.1241 206.279C58.1352 206.279 55.2065 203.026 53.7773 199.554" stroke="#323433" stroke-width="2.28859" stroke-linecap="round" stroke-linejoin="round"/>
<path d="M76.9897 196.748C79.0419 194.968 80.6511 192.734 81.6896 190.224C81.871 189.741 82.1457 189.298 82.4982 188.922C82.8506 188.545 83.2738 188.241 83.7436 188.028C84.2134 187.814 84.7206 187.696 85.2363 187.678C85.752 187.661 86.266 187.745 86.7491 187.927C87.2321 188.108 87.6748 188.383 88.0516 188.735C88.4285 189.088 88.7323 189.511 88.9456 189.981C89.1589 190.45 89.2777 190.958 89.295 191.473C89.3123 191.989 89.2278 192.503 89.0464 192.986C88.6029 194.273 88.0756 195.53 87.4681 196.748C85.8196 200.08 83.3469 203.456 79.7343 205.157C78.1328 205.91 76.3829 206.293 74.6134 206.279C72.7652 206.321 70.9321 205.937 69.2559 205.157" stroke="#323433" stroke-width="2.28859" stroke-linecap="round" stroke-linejoin="round"/>
<path d="M87.4673 196.748C89.5222 194.97 91.1318 192.736 92.1673 190.224C92.3486 189.741 92.6234 189.298 92.9758 188.922C93.3282 188.545 93.7514 188.241 94.2212 188.028C94.691 187.814 95.1983 187.696 95.7139 187.678C96.2296 187.661 96.7437 187.745 97.2267 187.927C97.7098 188.108 98.1524 188.383 98.5293 188.735C98.9062 189.088 99.2099 189.511 99.4233 189.981C99.6366 190.45 99.7553 190.958 99.7726 191.473C99.7899 191.989 99.7055 192.503 99.5241 192.986C98.7436 195.282 97.6834 197.473 96.3674 199.51C93.9473 203.175 90.3347 206.279 85.0911 206.279C83.2576 206.314 81.4403 205.93 79.7773 205.157" stroke="#323433" stroke-width="2.28859" stroke-linecap="round" stroke-linejoin="round"/>
<path d="M304.749 28.3657C302.747 30.6882 300.184 32.4601 297.305 33.5128C296.525 33.7999 295.717 33.9999 294.893 34.1091V34.1091C294.718 34.3262 294.589 34.5775 294.516 34.8469C294.443 35.1163 294.426 35.3979 294.467 35.6741C294.509 35.9502 294.607 36.2147 294.755 36.451C294.904 36.6872 295.1 36.89 295.332 37.0465L297.875 38.8002" stroke="#323433" stroke-width="2.28859" stroke-linecap="round" stroke-linejoin="round"/>
<path d="M24.4766 284.793L35.0777 276.647L45.6175 284.881L56.2274 276.726L66.7672 284.969L77.3772 276.814" stroke="#323433" stroke-width="1.52573" stroke-linecap="round" stroke-linejoin="round"/>
<path d="M125.924 131.887L137.726 142.786" stroke="#323433" stroke-width="1.52573" stroke-linecap="round" stroke-linejoin="round"/>
<path d="M126.373 143.234L137.272 131.431" stroke="#323433" stroke-width="1.52573" stroke-linecap="round" stroke-linejoin="round"/>
<path d="M88.7149 231.041L81.4668 238.289L88.7149 245.537L95.9631 238.289L88.7149 231.041Z" fill="#323433"/>
<path d="M436.964 157.938C440.344 157.938 443.085 155.198 443.085 151.818C443.085 148.438 440.344 145.698 436.964 145.698C433.584 145.698 430.844 148.438 430.844 151.818C430.844 155.198 433.584 157.938 436.964 157.938Z" stroke="#323433" stroke-width="1.52573" stroke-linecap="round" stroke-linejoin="round"/>
<path d="M309.574 36.9938C309.048 36.7598 308.636 36.3263 308.429 35.7887C308.221 35.2512 308.236 34.6533 308.469 34.1265L309.057 32.8113C309.291 32.2848 309.724 31.8728 310.262 31.6657C310.8 31.4585 311.397 31.4732 311.924 31.7064C312.449 31.9421 312.859 32.3762 313.064 32.9137C313.27 33.4511 313.254 34.048 313.02 34.5737L312.442 35.889C312.207 36.4154 311.774 36.8274 311.236 37.0346C310.699 37.2417 310.101 37.2271 309.574 36.9938Z" fill="#323433"/>
</svg>
