<svg width="213" height="132" viewBox="0 0 213 132" fill="none" xmlns="http://www.w3.org/2000/svg">
<path d="M1 1L212.25 1.00004L212.25 25.375C212.25 83.7101 164.96 131 106.625 131C48.2899 131 0.999986 83.7101 0.999996 25.375L1 1Z" fill="#4F59C1" stroke="#323433" stroke-width="0.962537"/>
<path d="M157.547 95.6769C156.51 97.4436 156.081 99.5018 156.327 101.536C156.327 101.598 156.489 102.484 156.815 104.196C157.019 105.068 157.061 105.971 156.937 106.857C156.736 107.697 156.38 108.492 155.887 109.201C155.58 109.689 155.072 110.412 154.374 111.373C152.791 113.663 151.817 116.318 151.542 119.087C151.484 119.62 151.455 120.142 151.445 120.65C154.8 119.077 158.06 117.308 161.208 115.353C161.238 111.447 161.343 108.265 161.526 105.808C161.849 100.738 162.766 95.7236 164.259 90.8679C160.842 92.2187 158.605 93.8298 157.547 95.7014L157.547 95.6769ZM98.1851 110.739C98.7567 111.61 99.2082 112.554 99.5276 113.546C99.8794 115.12 99.8291 116.757 99.3812 118.306C99.1241 119.348 98.6603 120.91 97.9899 122.993C97.444 125.264 97.3528 127.62 97.7214 129.926C100.65 130.154 103.62 130.268 106.631 130.268C108.277 130.268 109.905 130.235 111.512 130.17C108.258 118.212 104.491 106.185 100.211 94.0902C97.4285 96.7103 95.8663 99.2003 95.5246 101.56C95.1648 103.776 95.5151 106.049 96.5254 108.054C96.6555 108.298 97.2088 109.193 98.1851 110.739ZM133.065 104.294C132.107 104.424 131.16 104.628 130.234 104.904L129.843 105.051C128.853 105.402 127.934 105.932 127.134 106.613C126.342 107.251 125.742 108.096 125.401 109.054C125.043 109.966 124.896 111.382 124.961 113.302C125.027 115.222 124.904 116.638 124.595 117.55C124.104 118.696 123.4 119.74 122.521 120.625C122.267 120.899 122.032 121.153 121.813 121.382C122.025 121.638 122.221 121.907 122.399 122.188C123.57 124.033 123.993 126.312 123.668 129.023C125.718 128.697 127.736 128.331 129.721 127.924C129.829 126.642 129.942 125.356 130.063 124.067C130.73 117.43 131.732 110.83 133.065 104.294ZM80.6597 99.9977C80.6545 98.6441 80.5812 97.2917 80.44 95.9455C76.2884 99.6354 72.4133 103.625 68.8459 107.883L68.8459 120.162C68.9582 120.01 69.0607 119.859 69.1632 119.673C69.6644 118.892 70.5432 116.915 71.7994 113.741C72.7757 111.251 73.8904 109.461 75.1434 108.371C75.3386 108.211 76.136 107.666 77.5354 106.735C78.3574 106.241 79.078 105.595 79.659 104.831C80.44 103.708 80.7818 102.081 80.6841 99.9489L80.6597 99.9977ZM57.5447 59.0353L55.0062 53.9334C53.4633 55.0625 52.0475 56.3557 50.7835 57.7904C48.9443 59.8509 47.4447 62.1911 46.3411 64.7232C46.0971 65.3091 45.5275 66.8714 44.6325 69.4102C44.1171 70.9941 43.4636 72.5298 42.6798 73.9995C41.8337 75.5131 40.2634 77.5067 37.969 79.9803C35.6388 82.5029 34.0522 84.4802 33.2093 85.9123C31.6309 88.5488 30.6708 91.8036 30.3291 95.6769C30.2803 96.2188 30.2363 96.8047 30.207 97.4345C30.8189 98.0855 31.4372 98.7202 32.0621 99.3386C33.7577 101.034 35.4744 102.662 37.2123 104.221C39.448 96.8313 42.1297 89.5841 45.2428 82.5192C48.7809 74.4293 52.8836 66.5983 57.5203 59.0842L57.5447 59.0353Z" fill="#9CC627" stroke="#323433" stroke-width="0.962537"/>
<path d="M121.813 121.431C121.179 122.113 120.584 122.83 120.031 123.58C118.958 125.343 118.407 127.374 118.445 129.438L118.445 129.731C120.208 129.549 121.95 129.329 123.668 129.072C123.993 126.377 123.57 124.099 122.399 122.237C122.221 121.956 122.025 121.687 121.813 121.431ZM54.0057 115.036C53.7746 115.407 53.555 115.773 53.3467 116.134C55.5695 117.469 57.8232 118.697 60.1079 119.82C62.1246 116.645 64.2997 113.574 66.625 110.617C67.341 109.706 68.0732 108.802 68.8218 107.907C72.3891 103.65 76.2643 99.6601 80.4159 95.9702C78.1019 95.4201 76.4015 95.2574 75.3145 95.4819C74.279 95.7075 73.2995 96.1392 72.4343 96.7513C71.2964 97.7091 70.3234 98.8472 69.554 100.12C69.2904 100.52 69.0463 100.887 68.8218 101.219C68.2624 102.108 67.6512 102.964 66.9911 103.782C65.8501 104.928 64.5711 105.929 63.1834 106.76C60.7555 108.306 59.3805 109.201 59.0583 109.445C57.0306 110.957 55.3148 112.847 54.0057 115.011L54.0057 115.036Z" fill="#004357" stroke="#323433" stroke-width="0.962537"/>
<path d="M115.943 115.223C114.93 113.595 114.377 110.772 114.283 106.752C114.185 102.785 113.599 99.9772 112.525 98.3302C111.783 97.1838 110.779 96.23 109.596 95.5473C108.413 94.8431 107.102 94.3785 105.74 94.1803C103.931 93.8795 102.088 93.8548 100.272 94.107C104.565 106.205 108.332 118.232 111.573 130.187C113.917 130.093 116.227 129.93 118.505 129.699L118.505 129.406C118.468 127.342 119.019 125.31 120.092 123.547C120.645 122.798 121.24 122.081 121.874 121.399C121.054 120.44 120.165 119.543 119.213 118.714C117.976 117.679 116.877 116.489 115.943 115.174L115.943 115.223ZM133.151 104.287C133.151 104.287 133.151 104.287 133.126 104.287C131.793 110.823 130.791 117.422 130.124 124.06C130.004 125.362 129.89 126.647 129.782 127.917L130.124 127.844C132.871 127.251 135.572 126.551 138.228 125.744C138.367 124.937 138.367 124.111 138.228 123.303C138.088 122.693 137.917 122.09 137.715 121.497C137.513 120.904 137.342 120.301 137.202 119.69C137.056 118.844 137.146 117.42 137.471 115.418C137.778 113.834 137.934 112.223 137.935 110.609C137.896 109.424 137.188 108.122 135.811 106.703L133.175 104.311L133.151 104.287ZM165.199 91.5927C164.955 91.373 164.667 91.1289 164.345 90.8604C162.852 95.7161 161.934 100.73 161.611 105.8C161.426 108.271 161.32 111.452 161.294 115.345C163.666 113.9 165.985 112.346 168.25 110.682C168.158 110.355 167.933 109.638 167.567 108.534C167.283 107.779 167.166 106.971 167.225 106.166C167.349 105.476 167.597 104.815 167.957 104.213C168.543 103.154 168.885 102.514 168.983 102.261C169.492 101.024 169.619 99.664 169.349 98.3547C169.109 97.0256 168.594 95.7615 167.835 94.6441C167.088 93.5203 166.203 92.4951 165.199 91.5927ZM68.9071 107.899C68.1585 108.791 67.4263 109.695 66.7103 110.609C64.376 113.573 62.1927 116.653 60.1688 119.837C62.2679 120.885 64.3996 121.853 66.5638 122.742C67.4384 121.994 68.2172 121.141 68.8826 120.203L68.8826 107.924L68.9071 107.899ZM61.1939 66.8639C61.2232 66.7467 61.2476 66.6247 61.2671 66.4977L57.5814 59.1255C52.9363 66.6389 48.8255 74.4699 45.2795 82.5605C42.1664 89.6254 39.4847 96.8726 37.249 104.262C39.1334 105.935 41.0454 107.522 42.9851 109.022C44.3646 107.529 45.6447 105.947 46.8172 104.287C49.3915 100.511 50.7503 96.8167 50.8935 93.2038C50.8935 92.8783 50.7796 90.9661 50.5517 87.4671C50.3923 85.1399 50.5631 83.2684 51.0643 81.8525C51.7838 80.153 52.8286 78.6106 54.1398 77.312C55.5132 76.0235 56.8168 74.6627 58.0452 73.2353C59.5466 71.3664 60.6213 69.1919 61.1939 66.8639Z" fill="#00B07A" stroke="#323433" stroke-width="0.962537"/>
<path d="M75.315 95.481C76.4052 95.2368 78.1057 95.3996 80.4164 95.9692C80.5575 97.3154 80.6308 98.6679 80.636 100.022C80.7337 102.157 80.392 103.784 79.6109 104.904C79.03 105.667 78.3093 106.313 77.4873 106.808C76.0847 107.736 75.2873 108.281 75.0953 108.443C73.8391 109.518 72.7244 111.308 71.7513 113.814C70.4951 116.987 69.6164 118.965 69.1152 119.746C69.0127 119.907 68.9101 120.058 68.7978 120.234L68.7978 123.652C69.164 123.798 69.5301 123.935 69.8962 124.067C76.9497 126.641 84.269 128.418 91.7176 129.364C93.6898 129.628 95.6832 129.831 97.6977 129.974C97.3291 127.668 97.4203 125.312 97.9662 123.042C98.6366 120.958 99.1004 119.396 99.3575 118.354C99.8054 116.805 99.8558 115.168 99.5039 113.594C99.1846 112.602 98.733 111.658 98.1615 110.787C97.1851 109.241 96.6319 108.346 96.5017 108.102C95.4914 106.097 95.1411 103.824 95.5009 101.608C95.8426 99.2517 97.4048 96.7617 100.187 94.1383C102.003 93.8861 103.847 93.9108 105.655 94.2116C107.018 94.4098 108.328 94.8743 109.511 95.5786C110.694 96.2613 111.698 97.2151 112.441 98.3615C113.515 100.008 114.1 102.816 114.198 106.783C114.296 110.803 114.849 113.627 115.858 115.254C116.792 116.569 117.891 117.759 119.129 118.794C120.08 119.623 120.969 120.52 121.789 121.479C122.009 121.25 122.243 120.991 122.497 120.722C123.376 119.837 124.08 118.793 124.572 117.647C124.897 116.768 125.019 115.352 124.938 113.399C124.856 111.446 125.003 110.03 125.377 109.151C125.718 108.193 126.318 107.348 127.11 106.71C127.911 106.029 128.829 105.499 129.819 105.148L130.21 105.001C130.301 98.674 130.423 92.2863 130.576 85.8384C130.61 84.5056 130.64 83.163 130.674 81.8106L68.8223 81.8105L68.8223 101.315C69.0468 100.99 69.2909 100.624 69.5545 100.217C70.3239 98.9439 71.2969 97.8058 72.4347 96.848C73.2919 96.2013 74.272 95.7361 75.315 95.481Z" fill="white" stroke="#323433" stroke-width="0.962537"/>
<path d="M54.9815 53.983L57.5201 59.0851L61.2058 66.4573L68.8213 81.7145L112.977 81.7145C111.888 80.8043 110.891 79.7905 109.999 78.6874C106.667 74.6252 104.688 69.6242 104.336 64.3823L95.1826 46.0493L51.0273 46.0493L54.9815 53.983ZM172.875 107.005L172.875 81.7145L130.697 81.7145C130.663 83.0669 130.634 84.4095 130.6 85.7423C130.447 92.187 130.325 98.5746 130.233 104.905C131.16 104.629 132.107 104.425 133.065 104.295C133.065 104.295 133.065 104.295 133.089 104.295L135.725 106.687C137.102 108.12 137.81 109.421 137.849 110.593C137.848 112.207 137.693 113.818 137.385 115.402C137.06 117.404 136.97 118.828 137.117 119.674C137.257 120.285 137.428 120.888 137.629 121.481C137.831 122.074 138.002 122.677 138.142 123.287C138.282 124.095 138.282 124.921 138.142 125.728C142.687 124.346 147.125 122.632 151.42 120.602C151.42 120.114 151.459 119.572 151.518 119.04C151.792 116.27 152.767 113.615 154.349 111.326C155.047 110.349 155.555 109.641 155.863 109.153C156.355 108.444 156.711 107.649 156.912 106.809C157.036 105.923 156.995 105.02 156.79 104.149C156.465 102.44 156.302 101.553 156.302 101.488C156.057 99.4539 156.485 97.3957 157.522 95.629C158.58 93.7607 160.818 92.1495 164.235 90.7955C164.557 91.064 164.845 91.3082 165.089 91.5279C166.092 92.4302 166.978 93.4554 167.725 94.5793C168.484 95.6966 168.999 96.9607 169.239 98.2898C169.509 99.5991 169.382 100.959 168.872 102.196C168.775 102.425 168.433 103.065 167.847 104.149C167.487 104.75 167.239 105.412 167.115 106.101C167.056 106.906 167.172 107.714 167.457 108.469C167.823 109.573 168.047 110.29 168.14 110.618C169.754 109.482 171.333 108.277 172.875 107.005Z" fill="white" stroke="#323433" stroke-width="0.962537"/>
<path d="M127.476 37.9436C128.466 37.7461 129.47 37.6318 130.479 37.6019L123.669 37.6019C123.547 37.5953 123.424 37.5953 123.302 37.6019C118.144 37.7842 113.71 40.1276 110 44.6324C106.143 49.3356 104.215 55.0073 104.215 61.6472C104.215 62.5602 104.254 63.4633 104.337 64.3568C104.689 69.5986 106.668 74.5998 110 78.6619C110.892 79.7651 111.889 80.7788 112.978 81.6889L119.861 81.6889C118.772 80.7788 117.775 79.7651 116.883 78.6619C113.01 73.9749 111.074 68.3034 111.074 61.6472C111.074 54.991 113.01 49.3193 116.883 44.6324C119.91 40.9739 123.441 38.7443 127.476 37.9436Z" fill="#F37C40" stroke="#323433" stroke-width="0.962537"/>
<path d="M131.331 37.6021L130.453 37.6021C129.444 37.6319 128.44 37.7462 127.45 37.9438C123.434 38.7412 119.911 40.9789 116.882 44.6569C113.009 49.3602 111.072 55.0318 111.072 61.6717C111.072 68.3116 113.009 73.9832 116.882 78.6865C117.774 79.7896 118.771 80.8034 119.859 81.7135L130.697 81.7135L147.392 48.2942C146.653 47.0165 145.812 45.8002 144.878 44.6569C141.119 40.0839 136.604 37.7323 131.331 37.6021Z" fill="#F9C13D" stroke="#323433" stroke-width="0.962537"/>
<path d="M172.876 81.7144L190.67 46.0493L148.492 46.0493L147.394 48.2952L130.698 81.7144L172.876 81.7144Z" fill="#AAADB4" stroke="#323433" stroke-width="0.962537"/>
<path d="M140.388 53.3479L140.388 48.3435L134.31 48.3435L134.31 45.7559L129.282 45.7559L129.282 48.3435L128.794 48.3435C127.792 48.3212 126.797 48.5046 125.869 48.8825C124.941 49.2604 124.101 49.8247 123.4 50.5405C121.976 51.9801 121.178 53.923 121.178 55.9476C121.178 57.9723 121.976 59.9152 123.4 61.3548C124.079 62.0541 124.89 62.6108 125.787 62.9923C126.684 63.3737 127.648 63.5723 128.623 63.5762L133.993 63.5762C134.805 63.5917 135.595 63.8465 136.263 64.3086C136.617 64.8313 136.773 65.4632 136.702 66.0906L136.702 66.2371C136.704 66.5836 136.636 66.9271 136.504 67.2475C136.372 67.568 136.178 67.8591 135.933 68.1042C135.688 68.3493 135.397 68.5434 135.077 68.6755C134.756 68.8075 134.413 68.8748 134.066 68.8735L121.569 68.8735L121.569 73.8779L129.282 73.8779L129.282 77.2955L132.577 77.2955L140.461 61.5013C140.272 61.2459 140.06 61.0089 139.827 60.7933C138.642 59.5109 136.787 58.7786 134.261 58.5963L128.721 58.5963C128.04 58.5789 127.393 58.2989 126.914 57.8151C126.661 57.5742 126.462 57.2818 126.332 56.9575C126.201 56.6332 126.142 56.2847 126.158 55.9354C126.143 55.5899 126.203 55.2453 126.334 54.9251C126.464 54.6049 126.662 54.3167 126.914 54.0802C127.162 53.8352 127.455 53.6421 127.778 53.5121C128.101 53.3821 128.446 53.318 128.794 53.3234L140.388 53.3479Z" fill="white" stroke="#323433" stroke-width="0.962537"/>
<path d="M128.795 53.3481L140.389 53.3481L140.389 48.3437L134.311 48.3437L134.311 45.7561L129.283 45.7561L129.283 48.3437L128.795 48.3437C127.793 48.3214 126.798 48.5048 125.87 48.8828C124.942 49.2607 124.102 49.825 123.401 50.5408V50.5408C121.977 51.9803 121.179 53.9233 121.179 55.9479C121.179 57.9725 121.977 59.9155 123.401 61.355V61.355C124.08 62.0543 124.891 62.6111 125.788 62.9925C126.685 63.374 127.649 63.5725 128.624 63.5765L133.994 63.5765C134.806 63.592 135.596 63.8467 136.264 64.3088C136.618 64.8316 136.774 65.4635 136.703 66.0909L136.703 66.2373C136.705 66.5839 136.637 66.9273 136.505 67.2478C136.373 67.5682 136.179 67.8594 135.934 68.1045C135.689 68.3495 135.398 68.5437 135.078 68.6757C134.757 68.8077 134.414 68.875 134.067 68.8737L121.57 68.8737L121.57 73.8781L129.283 73.8781L129.283 77.2957L132.588 77.2957L140.477 61.5113C140.281 61.2539 140.064 61.0138 139.828 60.7936C138.643 59.5112 136.788 58.7788 134.262 58.5966L128.722 58.5966C128.041 58.5791 127.394 58.2991 126.915 57.8153C126.662 57.5745 126.463 57.282 126.333 56.9577C126.202 56.6334 126.143 56.2849 126.159 55.9357C126.144 55.5902 126.204 55.2456 126.334 54.9254C126.465 54.6052 126.663 54.317 126.915 54.0804C127.165 53.8399 127.459 53.6512 127.782 53.5255C128.104 53.3997 128.449 53.3395 128.795 53.3481V53.3481Z" stroke="#323433" stroke-width="0.962537" stroke-linecap="round" stroke-linejoin="round"/>
<path d="M78.2268 18.3324C78.3657 18.1919 78.5316 18.081 78.7145 18.0063C78.8974 17.9316 79.0935 17.8947 79.291 17.8978C79.4901 17.8934 79.6881 17.9296 79.8728 18.0044C80.0574 18.0791 80.2249 18.1907 80.365 18.3324C80.5081 18.4726 80.621 18.6407 80.6965 18.8263C80.7721 19.0119 80.8088 19.211 80.8043 19.4113C80.8043 19.8127 80.6449 20.1977 80.3611 20.4816C80.0773 20.7654 79.6923 20.9248 79.291 20.9248C78.8896 20.9248 78.5047 20.7654 78.2209 20.4816C77.9371 20.1977 77.7776 19.8127 77.7776 19.4113C77.7744 19.2103 77.8127 19.0107 77.8899 18.8251C77.9672 18.6394 78.0819 18.4717 78.2268 18.3324Z" fill="white" stroke="#323433" stroke-width="0.962537"/>
<path d="M77.7731 19.4155C77.7744 19.8165 77.9343 20.2007 78.2178 20.4843C78.5013 20.7679 78.8855 20.9277 79.2865 20.929C79.5858 20.929 79.8784 20.8402 80.1272 20.6739C80.3761 20.5076 80.5701 20.2712 80.6846 19.9947C80.7992 19.7181 80.8291 19.4138 80.7707 19.1202C80.7123 18.8266 80.5682 18.5569 80.3566 18.3453C80.1449 18.1336 79.8753 17.9895 79.5817 17.9311C79.2882 17.8727 78.9839 17.9026 78.7074 18.0172C78.4308 18.1317 78.1945 18.3257 78.0282 18.5746C77.8619 18.8235 77.7731 19.1161 77.7731 19.4155V19.4155Z" stroke="#323433" stroke-width="0.962537" stroke-linecap="round" stroke-linejoin="round"/>
<path d="M192.63 22.7498C192.769 22.6094 192.935 22.4984 193.118 22.4238C193.301 22.3491 193.497 22.3122 193.694 22.3153C193.893 22.3109 194.091 22.3471 194.276 22.4218C194.461 22.4966 194.628 22.6082 194.768 22.7498C194.911 22.8901 195.024 23.0582 195.1 23.2438C195.175 23.4294 195.212 23.6285 195.208 23.8288C195.208 24.2303 195.048 24.6152 194.764 24.8991C194.481 25.1829 194.096 25.3424 193.694 25.3424C193.293 25.3424 192.908 25.1829 192.624 24.8991C192.34 24.6152 192.181 24.2303 192.181 23.8288C192.178 23.6278 192.216 23.4282 192.293 23.2426C192.371 23.057 192.485 22.8892 192.63 22.7498Z" fill="white" stroke="#323433" stroke-width="0.962537"/>
<path d="M192.196 23.8334C192.201 24.2333 192.362 24.6153 192.645 24.8981C192.927 25.1808 193.309 25.3419 193.709 25.347C193.909 25.3495 194.108 25.3109 194.293 25.2337C194.477 25.1564 194.644 25.0421 194.783 24.8978C194.925 24.7593 195.036 24.5936 195.112 24.4106C195.187 24.2277 195.225 24.0313 195.223 23.8334C195.225 23.6341 195.187 23.4365 195.111 23.2519C195.036 23.0674 194.925 22.8998 194.784 22.7589C194.643 22.6179 194.475 22.5065 194.291 22.4311C194.106 22.3558 193.908 22.318 193.709 22.3199C193.511 22.3175 193.315 22.3551 193.132 22.4307C192.949 22.5062 192.783 22.618 192.645 22.7594C192.501 22.8982 192.386 23.0651 192.309 23.2499C192.232 23.4346 192.193 23.6332 192.196 23.8334V23.8334Z" stroke="#323433" stroke-width="0.962537" stroke-linecap="round" stroke-linejoin="round"/>
<path d="M100.712 28.7663C100.303 28.3767 99.9789 27.9066 99.7605 27.3856C99.542 26.8647 99.4338 26.3041 99.4427 25.7392C99.4348 25.1709 99.5434 24.607 99.7617 24.0822C99.98 23.5574 100.303 23.0829 100.712 22.6878C101.105 22.2847 101.576 21.9664 102.097 21.7523C102.617 21.5381 103.176 21.4328 103.739 21.4428C104.304 21.4369 104.866 21.544 105.389 21.7579C105.913 21.9717 106.389 22.2879 106.789 22.6881C107.189 23.0882 107.506 23.5642 107.719 24.0881C107.933 24.612 108.04 25.1734 108.035 25.7392C108.044 26.302 107.939 26.8609 107.725 27.3815C107.511 27.9021 107.193 28.3733 106.79 28.7663C106.395 29.1749 105.92 29.4983 105.395 29.7166C104.871 29.9349 104.307 30.0435 103.739 30.0356C103.174 30.0445 102.613 29.9363 102.092 29.7178C101.571 29.4994 101.101 29.1754 100.712 28.7663Z" fill="#F9C13D" stroke="#323433" stroke-width="0.962537"/>
</svg>
