<svg width="167" height="183" viewBox="0 0 167 183" fill="none" xmlns="http://www.w3.org/2000/svg">
<path d="M136.24 15.0879C144.596 6.73617 154.462 2.04019 165.836 1L165.836 181.972L1.02572 181.972C1.02572 168.352 1.02572 154.735 1.02572 141.122L1.02571 113.401C1.02571 99.8815 5.8112 88.3435 15.3822 78.7866C24.9533 69.2297 36.4755 64.4496 49.949 64.4462C63.4595 64.4462 74.9901 69.2264 84.541 78.7866C94.0918 88.3469 98.8689 99.8849 98.8723 113.401L98.8723 147.661C98.8714 149.943 99.547 152.174 100.814 154.072C102.08 155.969 103.881 157.448 105.988 158.321C108.095 159.194 110.414 159.422 112.65 158.976C114.887 158.53 116.941 157.43 118.553 155.816C119.609 154.802 120.451 153.588 121.032 152.244C121.613 150.9 121.919 149.453 121.934 147.989L121.934 49.7019C121.917 36.1828 126.686 24.6448 136.24 15.0879Z" fill="#4F59C1" stroke="#323433" stroke-width="0.99549"/>
<path d="M33.2628 141.777C33.8311 142.234 34.3399 142.76 34.7775 143.343C35.8718 144.796 36.5211 146.536 36.6466 148.351C36.772 150.165 36.3683 151.978 35.4843 153.568C34.6686 154.863 33.6451 156.014 32.455 156.976C31.6607 157.633 30.4237 158.575 28.7441 159.804C26.2233 161.907 23.8214 164.15 21.5495 166.52C19.2953 168.874 16.9101 171.099 14.4054 173.185C11.8324 175.269 8.89698 176.861 5.74655 177.881C4.20869 178.365 2.61197 178.637 1.00061 178.689L1.00061 169.65C2.42763 168.513 3.68563 167.178 4.73678 165.687C6.23797 163.451 7.35715 161.768 8.09428 160.637C9.18067 158.97 10.4695 157.443 11.9314 156.093C13.4197 154.785 15.0751 153.682 16.854 152.81C17.1704 152.642 18.9964 151.792 22.332 150.261C26.6154 148.371 30.369 145.458 33.2628 141.777ZM1.00061 143.848L1.0006 135.112C2.68243 134.699 4.27402 133.98 5.69607 132.991C6.55094 132.331 7.36057 131.614 8.11952 130.845C8.86682 130.06 9.65915 129.318 10.4925 128.624C12.232 127.221 14.2993 126.282 16.5006 125.897C16.6117 126.048 16.7127 126.2 16.8036 126.351C17.3916 127.412 17.6134 128.636 17.4347 129.836C17.0644 132.549 15.2721 135.217 12.0576 137.839C9.69504 139.809 7.06966 141.44 4.25713 142.686C3.20037 143.15 2.11214 143.538 1.00061 143.848Z" fill="#00B07A" stroke="#323433" stroke-width="0.99549"/>
<path d="M1.00045 169.65L1.00045 154.097C1.94457 152.934 3.05961 151.921 4.30748 151.093C5.9161 150.152 7.62698 149.398 9.40682 148.846C11.1843 148.285 12.9148 147.584 14.5819 146.75C16.354 145.607 18.0567 144.359 19.6812 143.014C21.7008 141.411 23.4931 140.402 25.0583 139.984C26.8254 139.513 28.6951 139.601 30.4101 140.237C31.4425 140.582 32.4076 141.103 33.2627 141.777C30.3689 145.457 26.6153 148.37 22.3319 150.26C18.9996 151.788 17.1737 152.638 16.8539 152.81C15.0749 153.681 13.4196 154.785 11.9313 156.092C10.4694 157.442 9.18052 158.969 8.09413 160.636C7.35026 161.747 6.23109 163.43 4.73663 165.686C3.68547 167.178 2.42748 168.512 1.00045 169.65Z" fill="#4F59C1" stroke="#323433" stroke-width="0.99549"/>
<path d="M9.83549 123.22C11.0917 123.181 12.3436 123.387 13.5212 123.826C14.6879 124.224 15.7197 124.942 16.5 125.896C14.2987 126.282 12.2313 127.22 10.4919 128.623C9.65853 129.317 8.8662 130.059 8.1189 130.845C7.35995 131.613 6.55032 132.33 5.69545 132.991C4.2734 133.979 2.6818 134.698 0.999976 135.111L0.999975 127.411L1.27769 127.234C1.34501 127.184 2.15282 126.62 3.70114 125.543C4.48277 124.957 5.31983 124.45 6.20033 124.028C7.3462 123.519 8.58207 123.245 9.83549 123.22Z" fill="#9CC627" stroke="#323433" stroke-width="0.99549"/>
<path d="M66.6154 147.261C67.4017 146.608 68.3069 146.112 69.2813 145.802C71.1479 145.235 73.1522 145.325 74.9612 146.054C76.8376 146.769 78.5288 147.898 79.9091 149.357C81.2347 150.788 82.3964 152.363 83.3726 154.053C84.6618 156.338 85.6547 158.032 86.3515 159.132C89.5491 164.441 94.2782 170.102 100.539 176.114C102.915 178.386 104.819 180.343 106.249 181.986L89.4616 181.986C88.6843 180.55 87.8052 179.171 86.8311 177.861C85.4847 176.036 83.1286 173.328 79.7627 169.736C77.2427 167.161 74.9061 164.412 72.77 161.511C69.7993 157.213 67.7077 152.37 66.6154 147.261Z" fill="#4F59C1" stroke="#323433" stroke-width="0.99549"/>
<path d="M63.1778 152.845C63.5573 151.244 64.3079 149.755 65.3691 148.498C65.744 148.05 66.1579 147.636 66.606 147.261C67.7013 152.371 69.7964 157.213 72.7707 161.51C74.9037 164.41 77.2369 167.157 79.7533 169.731C83.1192 173.326 85.4753 176.034 86.8217 177.855C87.7958 179.166 88.6749 180.545 89.4522 181.981L75.2042 181.981C73.8579 180.409 72.705 178.991 71.7458 177.729C67.8514 172.545 65.1755 167.477 63.7181 162.525C62.7117 158.738 62.5316 155.512 63.1778 152.845Z" fill="#00B07A" stroke="#323433" stroke-width="0.99549"/>
<path d="M66.6053 147.28C67.3879 146.624 68.292 146.128 69.2661 145.821C71.1328 145.254 73.137 145.343 74.9461 146.073C76.8247 146.787 78.5178 147.916 79.899 149.376C81.2213 150.809 82.3811 152.384 83.3575 154.072C84.6466 156.357 85.6412 158.05 86.3414 159.151C89.5524 164.46 94.2849 170.114 100.539 176.112C102.918 178.381 104.822 180.339 106.249 181.985M75.2187 182C73.8707 180.43 72.6943 179.016 71.7754 177.743C67.8844 172.563 65.2085 167.496 63.7477 162.544C62.7379 158.757 62.5578 155.531 63.2075 152.865C63.5829 151.263 64.3321 149.773 65.3936 148.517C65.7702 148.069 66.1859 147.655 66.6356 147.28C67.7195 152.388 69.8045 157.231 72.77 161.53C74.9026 164.428 77.234 167.175 79.7475 169.75C82.2405 172.336 84.5997 175.048 86.816 177.875C87.7888 179.183 88.663 180.562 89.4313 182L75.2187 182Z" stroke="#323433" stroke-width="0.99549" stroke-linecap="round" stroke-linejoin="round"/>
<path d="M88.8254 106.103C91.526 104.125 94.3985 102.393 97.4084 100.927C98.1557 103.932 98.6206 107.001 98.7969 110.092L98.5192 110.294C97.1976 111.344 95.9571 112.492 94.8083 113.728C93.636 114.966 92.342 116.082 90.9459 117.06C89.5966 118.006 87.9985 118.533 86.3514 118.575C84.7593 118.517 83.2318 117.931 82.0094 116.909C81.1198 116.198 80.3743 115.324 79.8132 114.334C82.5023 111.257 85.5249 108.488 88.8254 106.078L88.8254 106.103ZM84.5591 78.7604L84.8115 79.0129C84.0643 79.6138 83.2615 80.1945 82.4133 80.7549C81.8226 81.1438 81.2016 81.5225 80.5452 81.8911C77.1725 83.6901 73.6504 85.1938 70.0183 86.3851C63.9597 88.4049 60.3834 89.642 59.2895 90.0964C55.4377 91.622 51.9468 93.9352 49.0403 96.8879C48.8856 96.7032 48.7423 96.5093 48.6112 96.3072C47.6014 94.7419 47.349 92.8904 47.8538 90.7528C48.3173 88.7783 49.3432 86.9805 50.8074 85.5772C52.2636 84.2607 53.9159 83.1789 55.7048 82.3708C56.4958 81.9837 58.3387 81.2262 61.2333 80.0985C66.6292 78.0724 71.7646 75.4112 76.5314 72.1709C79.4194 74.1049 82.1085 76.3207 84.5591 78.7857L84.5591 78.7604ZM18.0655 98.4028C17.1184 96.5381 16.4385 94.5493 16.046 92.4949C15.1877 88.489 14.7417 86.4188 14.708 86.2841C14.2927 84.6358 13.6105 83.0666 12.6885 81.6386C13.5367 80.6742 14.4253 79.7198 15.3644 78.7857C17.3334 76.8079 19.4518 74.9847 21.7007 73.3323C22.4814 74.7535 23.1564 76.2302 23.7202 77.7505C24.2622 79.1644 25.1373 81.95 26.3457 86.1074C27.1166 88.9443 28.0953 91.7206 29.274 94.4137C31.1367 98.3187 33.2098 102.12 35.4841 105.8C36.9437 108.453 37.9585 111.327 38.4882 114.308C37.8953 114.733 37.261 115.097 36.5949 115.394C34.2387 116.454 32.093 116.404 30.1576 115.243C28.9458 114.522 27.8519 113.251 26.8758 111.43C26.3372 110.42 25.5378 108.872 24.4776 106.785C23.4958 105.311 22.3984 103.918 21.1958 102.619C20.0134 101.322 18.9647 99.9098 18.0655 98.4028Z" fill="#9CC627" stroke="#323433" stroke-width="0.99549"/>
<path d="M86.7046 95.1719C88.6752 95.1522 90.6414 94.9834 92.5865 94.667C93.4314 94.5174 94.2661 94.315 95.0857 94.061C96.0387 96.2857 96.8153 98.5819 97.4082 100.928C94.3983 102.394 91.5258 104.126 88.8251 106.104C85.5247 108.514 82.5021 111.283 79.8129 114.36C79.5759 113.957 79.3732 113.535 79.2071 113.097C78.2338 110.465 78.1893 107.579 79.0808 104.917C79.9254 102.177 81.3945 99.6711 83.3724 97.5957C84.1643 96.7455 85.0073 95.9445 85.8968 95.1972C86.1846 95.1972 86.4522 95.1972 86.7046 95.1972L86.7046 95.1719ZM32.8332 67.4253C33.2266 68.4426 33.5389 69.4894 33.7673 70.5559C34.1945 72.8393 34.4477 75.1519 34.5246 77.4736C34.6021 79.787 34.8552 82.0911 35.2819 84.3661C35.8162 86.5975 36.5687 88.7708 37.5287 90.8547C38.148 92.2685 39.082 94.3809 40.3308 97.1917C42.5523 102.507 42.9141 106.967 41.4163 110.573C40.817 112.079 39.8121 113.39 38.5132 114.36C37.9835 111.379 36.9687 108.504 35.5091 105.852C33.2348 102.171 31.1617 98.37 29.299 94.465C28.1204 91.7719 27.1416 88.9956 26.3707 86.1587C25.1589 82.0047 24.2838 79.2191 23.7453 77.8019C23.1814 76.2816 22.5064 74.8048 21.7257 73.3836C25.1375 70.8843 28.8745 68.8627 32.8332 67.3748L32.8332 67.4253Z" fill="#00B07A" stroke="#323433" stroke-width="0.99549"/>
<path d="M92.5867 94.6679C90.6416 94.9843 88.6754 95.1531 86.7048 95.1728C86.4524 95.1728 86.1999 95.1728 85.897 95.1728C87.1715 94.1082 88.503 93.1137 89.8856 92.1937C91.0923 91.4312 92.1828 90.7293 93.1674 90.0981C93.8692 91.3959 94.5053 92.7188 95.0859 94.062C94.2663 94.3159 93.4316 94.5183 92.5867 94.6679Z" fill="#4F59C1" stroke="#323433" stroke-width="0.99549"/>
<path d="M84.8111 79.0386C85.3699 79.6075 85.9168 80.1797 86.452 80.7554C89.0395 83.6027 91.2925 86.7369 93.167 90.0968C92.1825 90.728 91.0919 91.4299 89.8852 92.1924C88.5027 93.1124 87.1712 94.1069 85.8966 95.1715C84.6193 95.2069 82.9228 95.2321 80.7973 95.2473C75.4975 95.3978 70.2383 96.2207 65.1458 97.6963C62.7577 98.4385 61.3238 98.8677 60.8543 98.9839C59.4306 99.391 57.9656 99.6366 56.487 99.716C54.9728 99.7942 53.4591 99.5533 52.044 99.0091C50.8696 98.5727 49.8267 97.8425 49.0147 96.8884C51.9235 93.9448 55.4142 91.6403 59.2639 90.1221C60.3746 89.6845 63.9509 88.4474 69.9927 86.4108C73.6248 85.2194 77.1469 83.7158 80.5196 81.9168C81.1759 81.5481 81.7969 81.1694 82.3877 80.7806C83.2611 80.2201 84.0639 79.6395 84.8111 79.0386Z" fill="#00B07A" stroke="#323433" stroke-width="0.99549"/>
<path d="M135.831 43.6167C136.874 43.6476 137.913 43.7658 138.936 43.9702C143.09 44.7949 146.733 47.1092 149.867 50.9131C153.872 55.7774 155.875 61.6432 155.875 68.5104C155.875 75.3777 153.872 81.2434 149.867 86.1077C146.737 89.9285 143.093 92.2428 138.936 93.0507C137.982 93.2599 137.01 93.3782 136.033 93.4042L134.872 93.4042C129.978 93.2695 125.711 91.2834 122.073 87.4458C122.073 75.0141 122.039 62.4242 121.972 49.676C125.644 45.7711 129.961 43.7514 134.922 43.6167L135.831 43.6167Z" fill="#F9C13D" stroke="#323433" stroke-width="0.99549"/>
<path d="M138.911 43.9704C137.888 43.7661 136.849 43.6478 135.806 43.6169L142.849 43.6169C142.976 43.6185 143.102 43.6269 143.228 43.6422C148.563 43.8273 153.149 46.2511 156.986 50.9134C160.974 55.7777 162.969 61.6434 162.969 68.5107C162.969 75.3779 160.974 81.2437 156.986 86.108C153.061 90.8713 148.357 93.3034 142.874 93.4044L136.033 93.4044C137.01 93.3785 137.982 93.2601 138.936 93.051C143.09 92.243 146.733 89.9287 149.867 86.108C153.872 81.2605 155.875 75.3947 155.875 68.5107C155.875 61.6266 153.872 55.7608 149.867 50.9134C146.737 47.1128 143.085 44.7985 138.911 43.9704Z" fill="#4F59C1" stroke="#323433" stroke-width="0.99549"/>
<path d="M136.033 93.4042C137.01 93.3782 137.982 93.2599 138.936 93.0507C143.09 92.2428 146.733 89.9285 149.867 86.1077C153.872 81.2603 155.875 75.3945 155.875 68.5104C155.875 61.6264 153.872 55.7606 149.867 50.9131C146.737 47.1126 143.085 44.7983 138.911 43.9702C137.888 43.7658 136.849 43.6476 135.806 43.6167L142.849 43.6167C142.976 43.6182 143.102 43.6267 143.228 43.642C148.563 43.8271 153.149 46.2508 156.986 50.9131C160.974 55.7774 162.969 61.6432 162.969 68.5104C162.969 75.3777 160.974 81.2434 156.986 86.1077C153.061 90.871 148.357 93.3032 142.874 93.4042L134.872 93.4042C129.978 93.2695 125.712 91.2885 122.073 87.461C122.073 75.0057 122.034 62.4141 121.957 49.6861C125.639 45.7745 129.961 43.7514 134.922 43.6167L135.831 43.6167" fill="#F37C40"/>
<path d="M136.033 93.4042C137.01 93.3782 137.982 93.2599 138.936 93.0507C143.09 92.2428 146.733 89.9285 149.867 86.1077C153.872 81.2603 155.875 75.3945 155.875 68.5104C155.875 61.6264 153.872 55.7606 149.867 50.9131C146.737 47.1126 143.085 44.7983 138.911 43.9702C137.888 43.7658 136.849 43.6476 135.806 43.6167L142.849 43.6167C142.976 43.6182 143.102 43.6267 143.228 43.642C148.563 43.8271 153.149 46.2508 156.986 50.9131C160.974 55.7774 162.969 61.6432 162.969 68.5104C162.969 75.3777 160.974 81.2434 156.986 86.1077C153.061 90.871 148.357 93.3032 142.874 93.4042L134.872 93.4042C129.978 93.2695 125.712 91.2885 122.073 87.461C122.073 75.0057 122.034 62.4141 121.957 49.6861C125.639 45.7745 129.961 43.7514 134.922 43.6167L135.831 43.6167" stroke="#323433" stroke-width="0.99549" stroke-linecap="round" stroke-linejoin="round"/>
<path d="M131.31 60.4206L141.847 60.4206L141.847 55.0531L136.293 55.0531L136.293 52.3011L131.749 52.3011L131.749 55.0531L131.31 55.0531C130.361 55.0541 129.425 55.2706 128.572 55.6861C127.72 56.1015 126.972 56.7052 126.387 57.4516C125.065 59.0983 124.345 61.1467 124.345 63.2584C124.345 65.3701 125.065 67.4186 126.387 69.0653C126.956 69.7865 127.676 70.3739 128.497 70.7857C129.318 71.1976 130.22 71.4239 131.138 71.4486L136.03 71.4486C136.793 71.4771 137.524 71.7576 138.11 72.2464C138.436 72.821 138.576 73.4827 138.509 74.14C138.509 74.1905 138.509 74.2359 138.509 74.2864C138.537 75.0221 138.291 75.742 137.818 76.3062C137.615 76.563 137.356 76.7701 137.061 76.9119C136.767 77.0536 136.443 77.1262 136.116 77.1242L124.731 77.1242L124.731 82.4917L131.749 82.4917L131.749 86.1324L136.293 86.1324L136.293 82.4917C137.206 82.4615 138.102 82.231 138.917 81.8165C139.732 81.4021 140.446 80.8138 141.008 80.0933C142.338 78.5092 143.054 76.5006 143.028 74.4328C143.142 71.8273 142.57 69.8345 141.311 68.4543C140.238 67.0708 138.555 66.283 136.263 66.0912L131.214 66.0912C130.898 66.0788 130.588 65.9979 130.307 65.854C130.025 65.7102 129.778 65.5068 129.583 65.258C129.127 64.6837 128.878 63.9718 128.878 63.2382C128.878 62.5047 129.127 61.7928 129.583 61.2185C129.792 60.9637 130.056 60.7596 130.355 60.6214C130.654 60.4832 130.98 60.4146 131.31 60.4206Z" fill="white" stroke="#323433" stroke-width="0.99549" stroke-linecap="round" stroke-linejoin="round"/>
<path d="M135.881 126.175C137.796 128.238 139.949 130.068 142.293 131.628C145.135 133.455 148.309 134.708 151.633 135.314C151.87 135.365 152.103 135.405 152.34 135.44C151.853 135.992 151.302 136.483 150.699 136.905C148.927 138.169 146.816 138.873 144.64 138.925C139.591 139.14 134.307 136.767 128.787 131.805C128.08 131.162 125.96 129.066 122.425 125.518L121.971 125.064L121.971 111.582C125.024 114.004 127.808 116.746 130.276 119.762C133.104 123.095 134.972 125.232 135.881 126.175Z" fill="#4F59C1" stroke="#323433" stroke-width="0.99549"/>
<path d="M121.971 111.607L121.971 98.8572C123.261 99.1482 124.491 99.6607 125.606 100.372C127.594 101.641 129.339 103.257 130.756 105.144L134.719 110.85C135.995 112.771 137.504 114.526 139.212 116.076C140.69 117.292 142.279 118.366 143.958 119.282C146.419 120.696 148.051 121.689 148.856 122.261C150.458 123.402 151.814 124.853 152.844 126.528C153.873 128.12 154.294 130.029 154.031 131.906C153.829 133.233 153.24 134.471 152.339 135.466C152.102 135.43 151.87 135.39 151.633 135.339C148.308 134.733 145.135 133.481 142.292 131.653C139.947 130.086 137.795 128.247 135.88 126.175C134.971 125.229 133.103 123.091 130.276 119.762C127.806 116.755 125.022 114.021 121.971 111.607Z" fill="#00B07A" stroke="#323433" stroke-width="0.99549"/>
<path d="M121.972 111.607L121.972 98.8572C123.262 99.1482 124.492 99.6607 125.607 100.372C127.595 101.641 129.34 103.257 130.757 105.144L134.72 110.85C135.996 112.771 137.505 114.526 139.213 116.076C140.691 117.292 142.28 118.366 143.959 119.282C146.42 120.696 148.052 121.689 148.857 122.261C150.459 123.402 151.815 124.853 152.845 126.528C153.874 128.12 154.295 130.029 154.032 131.906C153.83 133.233 153.241 134.471 152.34 135.466C152.103 135.43 151.871 135.39 151.634 135.339C148.309 134.733 145.136 133.481 142.293 131.653C139.948 130.086 137.796 128.247 135.881 126.175C134.972 125.229 133.104 123.091 130.277 119.762C127.807 116.755 125.023 114.021 121.972 111.607L121.972 125.114L122.426 125.569C125.96 129.117 128.081 131.212 128.788 131.855C134.324 136.787 139.609 139.152 144.641 138.95C146.817 138.898 148.928 138.194 150.7 136.93C151.302 136.508 151.853 136.017 152.34 135.466" stroke="#323433" stroke-width="0.99549" stroke-linecap="round" stroke-linejoin="round"/>
</svg>
