<svg width="710" height="499" viewBox="0 0 710 499" fill="none" xmlns="http://www.w3.org/2000/svg">
<path d="M446.302 411.108C443.127 410.65 440.877 407.874 441.283 404.692C445.225 373.747 468.603 223.183 555.191 173.475C603.87 145.53 629.308 129.85 642.569 121.169C647.365 118.028 657.01 122.752 656.849 128.483C655.782 166.446 647.763 257.432 597.66 318.677C537.624 392.065 474.107 411.062 465.238 413.425C464.519 413.617 463.809 413.638 463.073 413.532L446.302 411.108Z" fill="#00B07A"/>
<path d="M483.054 417.764C480.145 416.797 478.618 413.799 479.578 410.888C486.336 390.405 515.771 314.456 584.818 299.297C649.521 285.091 691.461 297.2 705.124 302.345C707.957 303.412 709.237 306.504 708.138 309.325C699.339 331.914 660.066 424.549 605.581 430.612C547.851 437.064 498.541 422.913 483.054 417.764Z" fill="#004357"/>
<path d="M473.051 416.693C473.388 416.693 473.759 416.558 474.029 416.288C474.298 416.052 500.117 391.852 539.788 367.584C576.358 345.204 632.545 318.172 692.439 316.386C693.214 316.352 693.855 315.711 693.821 314.902C693.787 314.127 693.147 313.487 692.338 313.521C665.576 314.296 637.331 320.093 608.412 330.71C585.29 339.204 561.662 350.799 538.237 365.157C498.33 389.593 472.31 413.962 472.074 414.198C471.501 414.738 471.467 415.648 472.006 416.221C472.31 416.558 472.68 416.693 473.051 416.693Z" fill="white"/>
<path d="M463.446 406.783C464.019 406.783 464.592 406.412 464.794 405.839C464.962 405.334 483.635 353.057 516.026 289.724C534.328 253.963 561.562 228.785 587.919 204.416C608.244 185.609 627.456 167.846 640.028 147.05C640.432 146.376 640.23 145.499 639.556 145.095C638.882 144.69 638.006 144.893 637.601 145.567C625.265 165.992 606.188 183.654 585.998 202.293C559.472 226.83 532.036 252.21 513.498 288.41C481.006 351.911 462.3 404.322 462.098 404.862C461.828 405.603 462.232 406.412 462.974 406.682C463.109 406.749 463.277 406.783 463.446 406.783Z" fill="#323433"/>
<path d="M662.812 363.842C663.318 363.842 663.79 363.607 664.059 363.135C664.464 362.461 664.228 361.584 663.554 361.18C642.319 348.709 621.928 343.822 608.547 341.934C594.02 339.878 584.65 340.754 584.245 340.788C583.47 340.855 582.897 341.563 582.964 342.339C583.032 343.114 583.74 343.687 584.515 343.619C584.616 343.619 594.02 342.709 608.243 344.765C621.355 346.619 641.308 351.405 662.104 363.64C662.307 363.775 662.576 363.842 662.812 363.842Z" fill="white"/>
<path d="M624.794 401.896C625.164 401.896 625.535 401.761 625.805 401.458C626.344 400.885 626.344 399.975 625.771 399.436C625.468 399.132 617.85 391.784 603.761 383.594C590.751 376.01 569.551 366.303 542.418 363C541.643 362.899 540.935 363.472 540.834 364.247C540.733 365.022 541.306 365.73 542.081 365.831C568.742 369.101 589.538 378.639 602.312 386.055C616.131 394.076 623.715 401.424 623.782 401.492C624.086 401.761 624.457 401.896 624.794 401.896Z" fill="white"/>
<path d="M573.696 235.729C575.752 235.729 577.943 235.695 580.268 235.594C593.784 234.987 614.479 232.156 636.354 222.112C637.062 221.775 637.399 220.932 637.062 220.224C636.725 219.516 635.882 219.179 635.174 219.516C613.738 229.392 593.413 232.156 580.167 232.762C565.809 233.403 556.472 231.684 556.371 231.684C555.596 231.549 554.855 232.055 554.686 232.83C554.551 233.605 555.057 234.347 555.832 234.515C556.169 234.515 562.843 235.729 573.696 235.729Z" fill="#323433"/>
<path d="M551.045 286.489C564.392 286.489 582.93 284.905 606.356 279.242C607.131 279.04 607.603 278.299 607.4 277.523C607.198 276.748 606.457 276.276 605.681 276.478C575.819 283.725 554.011 284.197 541.001 283.321C526.912 282.377 519.767 279.68 519.699 279.647C518.958 279.377 518.149 279.714 517.845 280.456C517.576 281.197 517.913 282.006 518.654 282.309C518.958 282.411 526.137 285.174 540.597 286.152C543.596 286.354 547.102 286.489 551.045 286.489Z" fill="#323433"/>
<path d="M176.121 426.962C179.296 426.503 181.535 423.66 181.106 420.481C177.801 395.993 161.323 298.953 104.478 266.32C76.7508 250.402 60.196 240.381 50.3253 234.12C45.484 231.048 35.8136 235.992 36.0928 241.718C37.4674 269.911 44.3234 325.818 75.8165 364.315C115.594 412.939 157.635 426.184 164.822 428.16C165.539 428.358 166.273 428.385 167.01 428.279L176.121 426.962Z" fill="#00B07A"/>
<path d="M151.484 431.733C154.404 430.804 155.949 427.782 154.947 424.886C149.461 409.032 129.38 361.093 84.4834 351.236C43.1077 342.151 15.5246 349.012 4.89955 352.71C2.04018 353.706 0.762008 356.782 1.88347 359.594C8.88691 377.157 34.8665 435.896 70.471 439.859C107.543 444.002 139.47 435.556 151.484 431.733Z" fill="#004357"/>
<path d="M159.913 430.464C159.686 430.464 159.436 430.373 159.254 430.191C159.072 430.032 141.647 413.7 114.874 397.322C90.1931 382.217 52.2734 363.974 11.8515 362.768C11.3283 362.746 10.8961 362.314 10.9188 361.768C10.9416 361.244 11.3738 360.812 11.9197 360.835C29.981 361.358 49.0432 365.271 68.5604 372.436C84.165 378.168 100.111 385.993 115.92 395.684C142.853 412.176 160.414 428.622 160.573 428.781C160.96 429.145 160.983 429.759 160.619 430.146C160.414 430.373 160.164 430.464 159.913 430.464Z" fill="white"/>
<path d="M166.397 423.776C166.01 423.776 165.624 423.526 165.487 423.139C165.373 422.798 152.771 387.517 130.911 344.774C118.559 320.64 100.18 303.647 82.3913 287.201C68.6747 274.508 55.7088 262.52 47.224 248.485C46.9511 248.03 47.0876 247.439 47.5425 247.166C47.9974 246.893 48.5889 247.029 48.8618 247.484C57.1873 261.269 70.0623 273.189 83.6879 285.768C101.59 302.328 120.106 319.457 132.617 343.887C154.546 386.743 167.17 422.115 167.307 422.479C167.489 422.98 167.216 423.526 166.715 423.707C166.624 423.753 166.511 423.776 166.397 423.776Z" fill="#323433"/>
<path d="M31.8467 394.796C31.5055 394.796 31.187 394.637 31.005 394.318C30.7321 393.863 30.8913 393.272 31.3463 392.999C45.677 384.582 59.4391 381.284 68.4698 380.01C78.2739 378.623 84.5976 379.214 84.8706 379.237C85.3938 379.282 85.7805 379.76 85.735 380.283C85.6895 380.806 85.2118 381.193 84.6886 381.148C84.6204 381.148 78.2739 380.533 68.6745 381.921C59.8258 383.172 46.3595 386.402 32.3244 394.659C32.1879 394.75 32.0059 394.796 31.8467 394.796Z" fill="white"/>
<path d="M57.5049 420.478C57.2546 420.478 57.0044 420.387 56.8224 420.182C56.4585 419.796 56.4585 419.182 56.8452 418.818C57.0499 418.613 62.1908 413.654 71.6991 408.126C80.4796 403.008 94.7876 396.457 113.099 394.228C113.622 394.16 114.1 394.546 114.168 395.069C114.237 395.593 113.85 396.07 113.327 396.139C95.3336 398.345 81.2985 404.783 72.6773 409.787C63.3509 415.201 58.2328 420.16 58.1873 420.205C57.9825 420.387 57.7323 420.478 57.5049 420.478Z" fill="white"/>
<path d="M91.9899 308.334C90.6023 308.334 89.1237 308.311 87.5542 308.243C78.4325 307.833 64.4657 305.923 49.7027 299.144C49.225 298.917 48.9976 298.348 49.225 297.87C49.4525 297.393 50.0212 297.165 50.4989 297.393C64.9661 304.057 78.6827 305.923 87.6224 306.332C97.3128 306.764 103.614 305.604 103.682 305.604C104.205 305.513 104.706 305.854 104.819 306.378C104.91 306.901 104.569 307.401 104.046 307.515C103.818 307.515 99.3145 308.334 91.9899 308.334Z" fill="#323433"/>
<path d="M107.276 342.592C98.2685 342.592 85.7576 341.523 69.9482 337.701C69.425 337.565 69.1066 337.065 69.243 336.541C69.3795 336.018 69.88 335.7 70.4032 335.836C90.5572 340.727 105.275 341.045 114.055 340.454C123.564 339.817 128.386 337.997 128.431 337.974C128.932 337.792 129.478 338.02 129.683 338.52C129.864 339.021 129.637 339.567 129.137 339.771C128.932 339.84 124.087 341.705 114.328 342.365C112.304 342.501 109.938 342.592 107.276 342.592Z" fill="#323433"/>
<path d="M374.776 498.446C536.018 498.446 666.731 485.459 666.731 469.439C666.731 453.419 536.018 440.433 374.776 440.433C213.534 440.433 82.8213 453.419 82.8213 469.439C82.8213 485.459 213.534 498.446 374.776 498.446Z" fill="#4F59C1" fill-opacity="0.12"/>
<path d="M130.881 281.728C145.463 281.728 157.284 269.907 157.284 255.326C157.284 240.744 145.463 228.923 130.881 228.923C116.299 228.923 104.479 240.744 104.479 255.326C104.479 269.907 116.299 281.728 130.881 281.728Z" fill="#F9C13D"/>
<path d="M541.28 78.5909C550.756 81.5502 561.002 80.8024 569.949 76.4986C578.895 72.1947 585.874 64.6556 589.476 55.4044C593.079 46.1533 593.035 35.8797 589.355 26.6594C585.674 17.439 578.632 9.95927 569.649 5.73129C560.667 1.5033 550.414 0.842275 540.963 3.88175C531.512 6.92123 523.567 13.4346 518.733 22.106C513.9 30.7774 512.537 40.9603 514.921 50.5975C517.306 60.2346 523.259 68.6075 531.579 74.0246C534.588 75.9841 537.852 77.5206 541.28 78.5909Z" fill="#F9C13D" stroke="#323433" stroke-width="3" stroke-linecap="round" stroke-linejoin="round"/>
<path d="M360.46 454.775H307.741C307.38 445.093 303.279 435.928 296.301 429.206C289.323 422.484 280.012 418.729 270.323 418.729C260.634 418.729 251.323 422.484 244.345 429.206C237.367 435.928 233.266 445.093 232.905 454.775H180.186C180.515 431.089 190.156 408.484 207.022 391.85C223.889 375.216 246.626 365.891 270.314 365.891C294.003 365.891 316.74 375.216 333.606 391.85C350.473 408.484 360.113 431.089 360.443 454.775H360.46Z" fill="#9CC627"/>
<path d="M307.741 454.775H270.297C270.161 448.338 268.369 442.045 265.093 436.504C261.816 430.962 257.166 426.359 251.592 423.138C257.225 419.894 263.606 418.172 270.107 418.142C276.607 418.112 283.004 419.775 288.667 422.967C294.329 426.159 299.064 430.771 302.404 436.348C305.744 441.925 307.574 448.275 307.715 454.775H307.741Z" fill="#323433"/>
<path d="M307.741 454.775H270.297C270.161 448.339 268.369 442.046 265.093 436.504C261.816 430.962 257.166 426.359 251.592 423.139" stroke="#323433" stroke-width="2.61" stroke-linecap="round" stroke-linejoin="round"/>
<path d="M203.933 365.413H270.323" stroke="#323433" stroke-width="2.61" stroke-linecap="round" stroke-linejoin="round"/>
<path d="M180.186 454.775H146.39" stroke="#323433" stroke-width="2.61" stroke-linecap="round" stroke-linejoin="round"/>
<path d="M270.323 365.413C294.095 365.412 316.905 374.802 333.787 391.539C350.669 408.276 360.256 431.004 360.46 454.775H307.741C307.38 445.093 303.279 435.928 296.301 429.206C289.323 422.484 280.012 418.729 270.323 418.729C260.634 418.729 251.323 422.484 244.345 429.206C237.367 435.928 233.266 445.093 232.905 454.775H180.186C180.363 430.995 189.941 408.251 206.829 391.508C223.717 374.766 246.543 365.385 270.323 365.413Z" stroke="#323433" stroke-width="2.61" stroke-linecap="round" stroke-linejoin="round"/>
<path d="M438.432 2H405.681V8.80098H438.432V2Z" fill="#4F59C1"/>
<path d="M460.654 16.0459H420.954V22.8469H460.654V16.0459Z" fill="#4F59C1"/>
<path d="M480.927 16.0459H467.099V22.8469H480.927V16.0459Z" fill="#4F59C1"/>
<path d="M492.692 30.101H429.35V36.9019H492.692V30.101Z" fill="#4F59C1"/>
<path d="M487.607 44.1556H449.309V50.9566H487.607V44.1556Z" fill="#4F59C1"/>
<path d="M463.72 58.2019H424.864V65.0029H463.72V58.2019Z" fill="#4F59C1"/>
<path d="M425.613 72.2566H405.681V79.0576H425.613V72.2566Z" fill="#4F59C1"/>
<path d="M476.294 72.2566H433.363V79.0576H476.294V72.2566Z" fill="#4F59C1"/>
<path d="M162.727 217.01L166.062 205.019L178.514 205.263L181.858 193.263L194.302 193.507L197.646 181.516" stroke="#323433" stroke-width="1.74" stroke-linecap="round" stroke-linejoin="round"/>
<path d="M211.701 155.218C219.203 155.218 225.285 149.136 225.285 141.633C225.285 134.131 219.203 128.049 211.701 128.049C204.198 128.049 198.116 134.131 198.116 141.633C198.116 149.136 204.198 155.218 211.701 155.218Z" stroke="#323433" stroke-width="1.74" stroke-linecap="round" stroke-linejoin="round"/>
<path d="M450.388 125.924L461.673 137.21" stroke="#323433" stroke-width="1.74" stroke-linecap="round" stroke-linejoin="round"/>
<path d="M450.388 137.21L461.673 125.924" stroke="#323433" stroke-width="1.74" stroke-linecap="round" stroke-linejoin="round"/>
<path d="M640.511 464.223V466.269C640.511 469.096 639.388 471.807 637.389 473.806C635.39 475.805 632.679 476.928 629.852 476.928H541.03C539.386 476.867 537.829 476.171 536.688 474.986C535.546 473.802 534.908 472.221 534.908 470.575C534.908 468.93 535.546 467.349 536.688 466.164C537.829 464.98 539.386 464.284 541.03 464.223L541.457 464.092V464.223H629.852V451.866C632.679 451.866 635.39 452.989 637.389 454.988C639.388 456.987 640.511 459.698 640.511 462.525V464.223Z" fill="white"/>
<path d="M629.852 451.866V464.223H560.867C558.723 459.609 555.335 455.683 551.083 452.888C546.832 450.093 541.885 448.539 536.798 448.401L528.961 421.658H531.634C532.772 421.72 533.879 422.05 534.864 422.623C535.85 423.195 536.686 423.992 537.303 424.95L540.107 429.191C540.976 430.538 542.152 431.661 543.539 432.466C544.925 433.271 546.483 433.736 548.084 433.823H575.836L578.005 438.43C578.668 439.842 579.66 441.073 580.898 442.022C582.136 442.971 583.584 443.608 585.119 443.881L629.852 451.866Z" fill="#323433"/>
<path d="M584.16 84.9701L568.59 94.3748C568.303 94.5454 567.992 94.6716 567.667 94.7493L542.179 100.845C541.279 101.056 540.475 101.561 539.895 102.28C539.315 102.999 538.991 103.892 538.974 104.816L537.294 195.562L537.18 201.806C537.112 205.565 536.224 209.264 534.58 212.646C532.935 216.027 530.574 219.009 527.659 221.385C524.745 223.761 521.348 225.472 517.705 226.401C514.061 227.33 510.259 227.454 506.563 226.763L498.404 225.239L477.348 221.268C476.919 221.189 476.511 221.024 476.148 220.782C475.784 220.541 475.474 220.229 475.235 219.864C474.996 219.5 474.833 219.091 474.756 218.662C474.679 218.232 474.69 217.792 474.787 217.367L482.416 184.042C482.516 183.6 482.708 183.185 482.979 182.823C483.25 182.46 483.594 182.158 483.988 181.937C484.383 181.715 484.82 181.579 485.27 181.536C485.721 181.494 486.175 181.546 486.604 181.69L491.115 183.214C491.559 183.365 492.031 183.416 492.497 183.366C492.964 183.316 493.414 183.166 493.816 182.925C494.219 182.684 494.564 182.358 494.828 181.971C495.093 181.583 495.27 181.143 495.347 180.68C497.959 165.006 508.583 104.267 520.095 78.5349C520.277 78.1264 520.542 77.76 520.873 77.4589C521.204 77.1578 521.593 76.9284 522.017 76.7853C522.441 76.6421 522.89 76.5883 523.335 76.6271C523.781 76.666 524.214 76.7967 524.606 77.011C526.245 77.9037 527.938 78.6947 529.674 79.3796C530.464 79.6923 531.098 80.3042 531.439 81.082C531.779 81.8599 531.799 82.7408 531.494 83.5333C531.402 83.7601 531.355 84.0026 531.355 84.2474C531.351 84.5216 531.403 84.7937 531.508 85.0471C531.613 85.3006 531.768 85.53 531.964 85.7215C532.161 85.9129 532.394 86.0624 532.65 86.1608C532.906 86.2592 533.179 86.3044 533.453 86.2938C552.82 85.51 570.219 83.8381 582.079 80.3026C582.677 80.1519 583.309 80.2176 583.863 80.488C584.417 80.7584 584.858 81.2161 585.107 81.7802C585.356 82.3442 585.398 82.9782 585.225 83.57C585.052 84.1617 584.674 84.6731 584.16 85.0137V84.9701Z" fill="white"/>
<path d="M581.505 418.271H514.244L492.474 355.573L487.511 341.283L478.167 314.375C469.886 319.643 461.979 324.45 454.359 328.83C446.74 333.21 439.616 337.068 432.589 340.595C425.945 343.93 419.466 346.926 413.083 349.625C415.695 340.046 418.438 330.337 421.286 320.401C423.663 312.119 426.145 303.655 428.757 294.895C429.413 292.689 430.078 290.465 430.752 288.225C431.091 287.11 431.422 285.987 431.762 284.863C432.169 283.535 432.446 282.17 432.589 280.788C432.742 279.341 432.742 277.881 432.589 276.434C432.496 275.579 432.353 274.73 432.162 273.891L436.421 272.628L485.02 258.112C491.03 256.321 497.486 256.775 503.186 259.387C508.887 262 513.445 266.594 516.012 272.315L581.505 418.271Z" fill="#53599A"/>
<path d="M432.589 280.797V340.569C425.945 343.904 419.466 346.9 413.083 349.599C415.695 340.021 418.438 330.311 421.286 320.375C423.663 312.094 426.145 303.63 428.757 294.869C429.413 292.663 430.078 290.44 430.752 288.199C431.091 287.084 431.422 285.961 431.762 284.838C432.167 283.521 432.444 282.167 432.589 280.797Z" fill="#323433"/>
<path d="M568.496 418.271L575.81 433.841H548.058C546.457 433.754 544.899 433.289 543.513 432.484C542.126 431.679 540.95 430.556 540.081 429.209L537.277 424.968C536.66 424.01 535.824 423.213 534.839 422.64C533.853 422.068 532.746 421.738 531.608 421.676H528.935L527.934 418.271H568.496Z" fill="white"/>
<path d="M560.866 464.223H541.456V464.092L536.841 448.418C541.918 448.563 546.854 450.118 551.098 452.909C555.341 455.701 558.723 459.618 560.866 464.223Z" fill="white"/>
<path d="M431.762 284.837C424.795 308.009 418.752 328.952 413.083 349.59C406.926 372.031 401.144 394.088 395.049 418.271H328.737C335.834 399.383 342.313 383.055 348.896 367.564C352.379 359.369 355.862 351.393 359.502 343.399C357.047 345.077 354.623 346.722 352.231 348.336C339.753 356.687 327.901 364.089 316.058 370.76C311.994 373.035 307.948 375.227 303.919 377.334C278.326 390.666 250.565 380.425 236.797 360.057C232.488 353.722 229.666 346.496 228.541 338.917C227.416 331.339 228.018 323.604 230.301 316.291C230.798 314.654 231.285 313.017 231.782 311.397H256.051C302.465 286.335 341.468 272.211 389.223 261.569C395.084 260.263 401.075 259.009 407.24 257.79C410.846 257.07 414.578 257.297 418.071 258.448C421.563 259.6 424.698 261.638 427.168 264.363C429.638 267.087 431.36 270.406 432.165 273.994C432.97 277.583 432.831 281.318 431.762 284.837Z" fill="#53599A"/>
<path d="M418.909 464.223V466.269C418.909 467.669 418.633 469.055 418.097 470.348C417.562 471.641 416.777 472.816 415.787 473.806C414.797 474.796 413.622 475.581 412.329 476.117C411.036 476.652 409.65 476.928 408.25 476.928H319.384C318.546 476.928 317.717 476.762 316.943 476.44C316.169 476.118 315.467 475.645 314.877 475.05C314.287 474.455 313.82 473.749 313.504 472.973C313.189 472.197 313.029 471.366 313.036 470.528C313.075 468.831 313.781 467.219 315 466.039C316.219 464.859 317.853 464.206 319.55 464.223H408.25V451.866C411.077 451.866 413.788 452.989 415.787 454.988C417.786 456.987 418.909 459.698 418.909 462.525V464.223Z" fill="white"/>
<path d="M408.25 451.866V464.223H337.157C336.998 460.712 335.966 457.297 334.153 454.286C332.341 451.275 329.806 448.764 326.777 446.981L336.931 421.676H338.446C339.469 421.674 340.467 421.99 341.303 422.58C342.139 423.169 342.771 424.003 343.114 424.967L344.62 429.208C345.102 430.564 345.992 431.737 347.168 432.566C348.343 433.396 349.747 433.841 351.186 433.841H373.557L371.284 440.572C371.15 440.968 371.1 441.388 371.14 441.804C371.179 442.22 371.306 442.624 371.513 442.987C371.719 443.351 372 443.667 372.338 443.914C372.675 444.161 373.061 444.334 373.47 444.421L408.25 451.866Z" fill="#323433"/>
<path d="M389.963 153.816L400.273 182.335L384.094 176.535C382.953 167.331 382.126 159.415 381.481 151.891C384.291 152.518 387.118 153.16 389.963 153.816Z" fill="white"/>
<path d="M386.993 108.935C389.937 113.202 383.266 118.845 379.391 121.614C379.992 132.429 380.558 141.808 381.438 151.883C382.091 159.407 382.918 167.322 384.05 176.527L375.725 185.949C367.313 187.581 358.602 186.561 350.794 183.032L346.814 170.118L348.983 150.307C344.054 150.96 340.275 150.42 337.462 149.044C334.726 147.701 332.564 145.42 331.366 142.617C326.708 132.499 331.21 115.823 331.21 111.634C331.21 106.723 329.355 101.481 328.075 95.4286C337.427 100.723 352.692 101.768 366.573 98.7202C369.381 103.936 371.433 109.525 372.669 115.318C372.669 115.318 378.233 109.144 382.709 107.794C384.442 107.289 385.975 107.472 386.993 108.935Z" fill="white"/>
<path d="M335.834 78.9444C332.786 72.5701 339.674 69.5049 346.057 77.0373C344.046 70.2276 351.16 67.8416 358.945 74.3117C374.115 67.7458 383.328 88.4623 382.77 107.803C378.294 109.153 372.73 115.327 372.73 115.327C371.494 109.533 369.442 103.945 366.634 98.7291C352.754 101.777 337.489 100.732 328.136 95.4374C321.823 91.8584 318.2 86.3375 319.541 78.8225C322.258 68.7211 335.538 78.7354 335.834 78.9444Z" fill="#323433" stroke="#323433" stroke-width="2.61" stroke-linecap="round" stroke-linejoin="round"/>
<path d="M378.851 418.271L373.626 433.841H351.212C349.773 433.842 348.369 433.396 347.194 432.567C346.018 431.737 345.128 430.564 344.646 429.209L343.14 424.968C342.797 424.004 342.165 423.17 341.329 422.58C340.493 421.991 339.495 421.675 338.472 421.676H336.931L338.298 418.271H378.851Z" fill="white"/>
<path d="M375.734 185.958L357.926 206.125L350.803 183.04C358.611 186.57 367.322 187.589 375.734 185.958Z" fill="white"/>
<path d="M359.502 343.382C355.862 351.385 352.379 359.352 348.896 367.564C338.446 369.097 327.631 370.124 316.058 370.76C330.173 362.792 344.315 353.805 359.502 343.382Z" fill="#4F59C1"/>
<path d="M359.502 343.382C355.862 351.385 352.379 359.352 348.896 367.564C338.446 369.097 327.631 370.124 316.058 370.76C330.173 362.792 344.315 353.805 359.502 343.382Z" fill="#323433"/>
<path d="M348.992 150.316L346.823 170.126L326.568 176.405L337.471 149.053C340.31 150.429 344.063 150.969 348.992 150.316Z" fill="white"/>
<path d="M337.157 464.223H319.854L326.821 446.964C329.843 448.754 332.372 451.27 334.177 454.283C335.981 457.297 337.006 460.713 337.157 464.223Z" fill="white"/>
<path d="M256.704 242.464C254.439 247.805 252.242 253.186 250.112 258.609C248.771 262.022 247.45 265.462 246.149 268.928L210.682 288.425C210.123 287.87 209.385 287.531 208.6 287.467L160.497 282.582C180.874 264.556 196.357 254.054 217.099 238.833C220.646 236.23 223.669 232.98 226.008 229.254L226.748 228.069L256.704 242.464Z" fill="white"/>
<path d="M208.6 287.45C209.386 287.511 210.124 287.851 210.682 288.408C211.282 289.015 211.618 289.836 211.613 290.689C211.614 291.844 211.299 292.977 210.704 293.967C210.109 294.956 209.255 295.765 208.235 296.306L161.037 321.316C159.557 322.097 157.878 322.424 156.213 322.256L137.926 320.384L119.874 318.555L113.543 308.785L158.285 313.348L206.868 287.842C207.397 287.551 207.998 287.415 208.6 287.45Z" fill="#323433"/>
<path d="M160.506 282.582L208.6 287.45C207.996 287.408 207.392 287.538 206.859 287.824L158.277 313.33L148.114 290.985L158.433 292.047L168.152 288.738L146.033 286.413L143.499 280.84L160.506 282.582Z" fill="white"/>
<path d="M168.16 288.756L158.442 292.065L148.123 291.003L146.042 286.431L168.16 288.756Z" fill="#323433"/>
<path d="M119.874 318.555L137.961 320.401C125.543 324.703 106.263 328.7 92.8094 321.525C90.1693 320.123 88.0119 317.96 86.618 315.316L86.5309 315.168L81.4019 305.502L78.1886 299.458C78.0602 299.201 77.9973 298.917 78.0056 298.629C78.0139 298.342 78.0932 298.062 78.2363 297.812C78.3794 297.563 78.5819 297.353 78.8258 297.201C79.0697 297.05 79.3474 296.96 79.6342 296.942C80.7662 296.898 81.8721 296.881 82.9519 296.881C85.9562 302.863 92.2434 314.872 96.5974 319.173L82.9519 296.872C85.6253 296.872 88.1768 296.985 90.7108 297.212C93.6715 303.125 100.055 315.359 104.461 319.713L90.7108 297.212C93.4451 297.456 96.1969 297.83 99.1315 298.335C102.031 304.17 108.527 316.622 112.977 321.046L99.1315 298.335C100.673 298.605 102.275 298.901 103.947 299.206C105.191 299.457 106.372 299.955 107.419 300.672C108.466 301.388 109.358 302.308 110.043 303.377L113.526 308.75L119.874 318.555Z" fill="white"/>
<path d="M99.1313 298.335L112.977 321.045C108.553 316.639 102.031 304.169 99.1313 298.335Z" fill="white"/>
<path d="M90.7109 297.211L104.461 319.713C100.055 315.359 93.6717 303.124 90.7109 297.211Z" fill="white"/>
<path d="M88.29 291.02L101.666 312.877C97.3987 308.654 91.2247 296.889 88.29 291.02Z" fill="white"/>
<path d="M81.0098 305.58L86.0344 315.046L69.3672 313.348C68.3804 313.247 67.4622 312.797 66.7786 312.078C66.095 311.359 65.6912 310.42 65.6402 309.429L65.3789 303.995L81.0098 305.58Z" fill="#323433"/>
<path d="M316.058 370.743C330.173 362.792 344.315 353.805 359.502 343.382" stroke="#323433" stroke-width="2.61" stroke-linecap="round" stroke-linejoin="round"/>
<path d="M231.79 311.38L230.301 316.274C217.134 360.188 263.261 398.495 303.919 377.317C307.982 375.198 312.029 373.007 316.058 370.743" stroke="#323433" stroke-width="2.61" stroke-linecap="round" stroke-linejoin="round"/>
<path d="M256.704 242.464C258.492 238.261 260.323 234.066 262.198 229.881C269.069 214.589 276.593 199.403 284.996 183.728" stroke="#323433" stroke-width="2.61" stroke-linecap="round" stroke-linejoin="round"/>
<path d="M389.223 261.552C395.086 260.246 401.092 258.986 407.24 257.773C410.848 257.055 414.581 257.283 418.074 258.437C421.567 259.591 424.702 261.63 427.172 264.356C429.643 267.082 431.365 270.401 432.171 273.991C432.977 277.58 432.839 281.317 431.77 284.838C424.76 308.01 418.752 328.952 413.083 349.599C406.926 371.996 401.179 394.01 395.014 418.236H328.737C335.834 399.383 342.313 383.056 348.896 367.564C352.379 359.361 355.862 351.393 359.502 343.399C365.938 329.214 372.765 314.924 380.576 299.101" stroke="#323433" stroke-width="2.61" stroke-linecap="round" stroke-linejoin="round"/>
<path d="M160.506 282.582C180.874 264.556 196.357 254.054 217.108 238.833C220.657 236.232 223.68 232.982 226.016 229.254L226.757 228.078" stroke="#323433" stroke-width="2.61" stroke-linecap="round" stroke-linejoin="round"/>
<path d="M210.682 288.425L246.15 268.928" stroke="#323433" stroke-width="2.61" stroke-linecap="round" stroke-linejoin="round"/>
<path d="M483.218 180.549C475.824 212.848 473.795 221.712 473.317 223.785C473.313 223.802 473.313 223.82 473.317 223.837C473.312 223.857 473.312 223.878 473.317 223.898C473.317 223.898 473.317 223.898 473.317 223.95C473.317 224.003 473.317 223.95 473.317 224.003C473.317 224.055 473.317 224.055 473.317 224.072L472.951 225.692C468.005 224.238 463.485 222.966 459.209 221.826C443.535 217.62 431.03 215.112 412.726 211.48C404.018 228.627 396.869 243.291 389.354 261.29C341.607 271.949 302.595 286.056 256.181 311.118H231.79C236.327 296.314 241.073 282.259 246.15 268.666C249.511 259.688 253.012 250.902 256.704 242.202L226.774 227.808L219.416 224.273L225.381 214.197L256.852 161.078C261.427 153.348 268.142 147.107 276.187 143.109C284.232 139.112 293.261 137.528 302.186 138.55C312.078 139.674 321.779 140.954 331.367 142.399C332.564 145.202 334.727 147.482 337.462 148.826L326.56 176.178L346.815 169.899L350.803 182.813L357.917 205.899L375.725 185.731L384.05 176.309L400.273 182.335L389.998 153.816C415.931 159.807 442.246 167.252 470.73 176.457C474.846 177.78 479.009 179.145 483.218 180.549Z" fill="#F37C40"/>
<path d="M483.218 180.549C475.824 212.848 473.795 221.712 473.317 223.785C473.313 223.802 473.313 223.82 473.317 223.837V223.837C473.312 223.857 473.312 223.878 473.317 223.898V223.898C473.317 223.898 473.317 223.898 473.317 223.95C473.317 224.003 473.317 223.95 473.317 224.003C473.317 224.055 473.317 224.055 473.317 224.072L472.951 225.692C468.005 224.238 463.485 222.966 459.209 221.826C443.535 217.62 431.03 215.112 412.726 211.48C404.018 228.627 396.869 243.291 389.354 261.29C341.607 271.949 302.595 286.056 256.181 311.118H231.79C236.327 296.314 241.073 282.259 246.15 268.666C249.511 259.688 253.012 250.902 256.704 242.202L226.774 227.808L219.416 224.273L225.381 214.197L256.852 161.078C261.427 153.348 268.142 147.107 276.187 143.109C284.232 139.112 293.261 137.528 302.186 138.55C312.078 139.674 321.779 140.954 331.367 142.399C332.564 145.202 334.727 147.482 337.462 148.826L326.56 176.178L346.815 169.899L350.803 182.813L357.917 205.899L375.725 185.731L384.05 176.309L400.273 182.335L389.998 153.816C415.931 159.807 442.246 167.252 470.73 176.457C474.846 177.78 479.009 179.145 483.218 180.549Z" stroke="#323433" stroke-width="2.61" stroke-linecap="round" stroke-linejoin="round"/>
<path d="M483.217 180.55C487.014 181.81 490.851 183.104 494.729 184.434C494.729 184.434 509.062 94.0354 523.666 71.795" stroke="#323433" stroke-width="2.61" stroke-linecap="round" stroke-linejoin="round"/>
<path d="M400.273 182.335L384.102 176.535C382.961 167.331 382.134 159.415 381.49 151.891C384.32 152.518 387.167 153.154 390.006 153.816L400.273 182.335Z" stroke="#323433" stroke-width="2.61" stroke-linecap="round" stroke-linejoin="round"/>
<path d="M225.381 214.459L262.198 229.881" stroke="#323433" stroke-width="2.61" stroke-linecap="round" stroke-linejoin="round"/>
<path d="M473.221 224.168C473.221 224.168 473.221 224.168 473.221 224.222" stroke="#323433" stroke-width="2.61" stroke-linecap="round" stroke-linejoin="round"/>
<path d="M473.281 223.943C473.276 223.923 473.276 223.901 473.281 223.881V223.881" stroke="#323433" stroke-width="2.61" stroke-linecap="round" stroke-linejoin="round"/>
<path d="M470.686 176.44L459.078 222.087" stroke="#323433" stroke-width="2.61" stroke-linecap="round" stroke-linejoin="round"/>
<path d="M474.03 220.641L506.564 226.737C510.26 227.427 514.062 227.304 517.705 226.375C521.348 225.446 524.746 223.734 527.66 221.359C530.574 218.983 532.936 216.001 534.58 212.62C536.225 209.238 537.112 205.539 537.181 201.78L538.975 104.798C538.991 103.873 539.314 102.98 539.895 102.259C540.475 101.538 541.279 101.031 542.179 100.819L565.822 95.202C567.357 94.831 568.825 94.226 570.176 93.4082L584.109 84.9875C584.623 84.6469 585 84.1355 585.173 83.5437C585.346 82.952 585.305 82.318 585.055 81.754C584.806 81.1899 584.366 80.7322 583.812 80.4618C583.257 80.1914 582.625 80.1257 582.027 80.2764C570.158 83.8119 552.768 85.5012 533.393 86.2676C533.061 86.2807 532.73 86.2112 532.431 86.0653C532.133 85.9194 531.874 85.7017 531.68 85.4317C531.486 85.1616 531.362 84.8477 531.319 84.5179C531.276 84.1881 531.315 83.8528 531.434 83.5419L533.915 77.0022" stroke="#323433" stroke-width="2.61" stroke-linecap="round" stroke-linejoin="round"/>
<path d="M328.075 95.4374C329.355 101.533 331.218 106.758 331.218 111.643C331.218 115.832 326.708 132.542 331.366 142.626" stroke="#323433" stroke-width="2.61" stroke-linecap="round" stroke-linejoin="round"/>
<path d="M346.823 170.126L348.991 150.316C344.063 150.969 340.283 150.429 337.471 149.053" stroke="#323433" stroke-width="2.61" stroke-linecap="round" stroke-linejoin="round"/>
<path d="M335.834 78.9444C335.555 78.7354 322.275 68.7211 319.498 78.8225C318.165 86.3375 321.779 91.8845 328.092 95.4374C337.445 100.732 352.71 101.777 366.591 98.729C369.398 103.945 371.451 109.533 372.686 115.327C372.686 115.327 378.251 109.153 382.727 107.803C384.425 107.289 385.957 107.463 386.985 108.944C389.928 113.211 383.249 118.845 379.374 121.623C379.975 132.438 380.541 141.808 381.421 151.892" stroke="#323433" stroke-width="2.61" stroke-linecap="round" stroke-linejoin="round"/>
<path d="M382.744 107.803C383.267 88.4623 374.088 67.7458 358.919 74.3117C351.134 67.8416 344.019 70.2276 346.031 77.0373C339.648 69.5049 332.76 72.5701 335.808 78.9444" stroke="#323433" stroke-width="2.61" stroke-linecap="round" stroke-linejoin="round"/>
<path d="M337.471 149.053L326.568 176.405L346.823 170.126" stroke="#323433" stroke-width="2.61" stroke-linecap="round" stroke-linejoin="round"/>
<path d="M389.954 153.817V153.807" stroke="#323433" stroke-width="2.61" stroke-linecap="round" stroke-linejoin="round"/>
<path d="M375.734 185.958C367.322 187.589 358.611 186.57 350.803 183.04" stroke="#323433" stroke-width="2.61" stroke-linecap="round" stroke-linejoin="round"/>
<path d="M432.162 273.909L485.02 258.121C491.03 256.33 497.486 256.783 503.186 259.396C508.887 262.008 513.445 266.603 516.012 272.324L581.505 418.271H514.244L478.176 314.384C454.002 329.745 433.112 341.187 413.083 349.634" stroke="#323433" stroke-width="2.61" stroke-linecap="round" stroke-linejoin="round"/>
<path d="M348.896 367.564C338.446 369.096 327.631 370.124 316.058 370.76" stroke="#323433" stroke-width="2.61" stroke-linecap="round" stroke-linejoin="round"/>
<path d="M338.298 418.271L336.931 421.676L326.777 446.982L319.811 464.241H408.25V451.867L373.496 444.422C373.087 444.334 372.701 444.161 372.364 443.914C372.027 443.667 371.745 443.351 371.539 442.988C371.332 442.624 371.205 442.221 371.166 441.805C371.127 441.388 371.176 440.968 371.31 440.573L373.583 433.841L378.808 418.271" stroke="#323433" stroke-width="2.61" stroke-linecap="round" stroke-linejoin="round"/>
<path d="M336.931 421.676H338.446C339.469 421.674 340.467 421.99 341.303 422.58C342.139 423.169 342.771 424.003 343.113 424.967L344.62 429.208C345.102 430.564 345.992 431.737 347.168 432.566C348.343 433.396 349.747 433.841 351.186 433.841H373.557" stroke="#323433" stroke-width="2.61" stroke-linecap="round" stroke-linejoin="round"/>
<path d="M528.935 421.676H531.608C532.746 421.737 533.853 422.068 534.838 422.64C535.824 423.212 536.659 424.01 537.277 424.967L540.081 429.208C540.95 430.556 542.126 431.678 543.512 432.483C544.899 433.289 546.456 433.754 548.057 433.841H575.81" stroke="#323433" stroke-width="2.61" stroke-linecap="round" stroke-linejoin="round"/>
<path d="M319.384 464.223C317.74 464.284 316.184 464.98 315.042 466.164C313.901 467.349 313.263 468.93 313.263 470.575C313.263 472.221 313.901 473.802 315.042 474.986C316.184 476.171 317.74 476.867 319.384 476.928H408.25C411.077 476.928 413.788 475.805 415.787 473.806C417.786 471.807 418.909 469.096 418.909 466.269V462.507C418.909 459.68 417.786 456.969 415.787 454.97C413.788 452.972 411.077 451.849 408.25 451.849" stroke="#323433" stroke-width="2.61" stroke-linecap="round" stroke-linejoin="round"/>
<path d="M337.157 464.223C336.998 460.712 335.966 457.297 334.153 454.286C332.341 451.275 329.806 448.764 326.777 446.981" stroke="#323433" stroke-width="2.61" stroke-linecap="round" stroke-linejoin="round"/>
<path d="M527.934 418.271L528.935 421.676L536.772 448.418L541.388 464.093V464.224H629.853V451.867L585.093 443.899C583.558 443.626 582.11 442.988 580.872 442.04C579.634 441.091 578.642 439.859 577.979 438.448L575.81 433.841L568.496 418.271" stroke="#323433" stroke-width="2.61" stroke-linecap="round" stroke-linejoin="round"/>
<path d="M540.987 464.223C539.343 464.284 537.786 464.98 536.645 466.164C535.503 467.349 534.865 468.93 534.865 470.575C534.865 472.221 535.503 473.802 536.645 474.986C537.786 476.171 539.343 476.867 540.987 476.928H629.809C632.636 476.928 635.347 475.805 637.346 473.806C639.345 471.807 640.468 469.096 640.468 466.269V462.507C640.468 459.68 639.345 456.969 637.346 454.97C635.347 452.972 632.636 451.849 629.809 451.849" stroke="#323433" stroke-width="2.61" stroke-linecap="round" stroke-linejoin="round"/>
<path d="M560.867 464.223C558.723 459.608 555.335 455.683 551.083 452.888C546.831 450.093 541.884 448.539 536.798 448.4" stroke="#323433" stroke-width="2.61" stroke-linecap="round" stroke-linejoin="round"/>
<path d="M148.123 291.003L146.042 286.431L143.508 280.858L130.324 251.938C129.954 251.125 129.378 250.423 128.652 249.902C127.926 249.381 127.076 249.059 126.188 248.969L39.3422 240.095C39.0388 240.068 38.7334 240.121 38.4567 240.248C38.18 240.376 37.9416 240.574 37.7653 240.822C37.5891 241.071 37.4811 241.361 37.4522 241.665C37.4233 241.968 37.4745 242.274 37.6006 242.551L65.4664 303.873" stroke="#323433" stroke-width="2.61" stroke-linecap="round" stroke-linejoin="round"/>
<path d="M38.3149 241.471L66.1807 303.299L81.8552 305.911L78.372 298.509L79.6782 296.768H84.903L100.142 298.509L108.415 301.122L114.51 308.959L155.874 312.877L156.309 312.007L128.008 249.744L38.3149 241.471Z" fill="white"/>
<path d="M113.543 308.785L158.285 313.348L148.123 291.003" stroke="#323433" stroke-width="2.61" stroke-linecap="round" stroke-linejoin="round"/>
<path d="M86.0344 315.046L69.3672 313.348C68.3804 313.247 67.4622 312.797 66.7786 312.078C66.095 311.359 65.6912 310.42 65.6402 309.429L65.3789 303.995L81.0098 305.589" stroke="#323433" stroke-width="2.61" stroke-linecap="round" stroke-linejoin="round"/>
<path d="M143.507 280.858L160.505 282.582L208.6 287.467L208.696 287.476" stroke="#323433" stroke-width="2.61" stroke-linecap="round" stroke-linejoin="round"/>
<path d="M137.935 320.401C125.517 324.703 106.237 328.7 92.7833 321.524C90.1528 320.119 88.005 317.956 86.618 315.315L86.5309 315.167L81.4019 305.502L78.1886 299.458C78.0602 299.201 77.9973 298.916 78.0056 298.629C78.0139 298.342 78.0932 298.061 78.2363 297.812C78.3794 297.563 78.5819 297.353 78.8258 297.201C79.0697 297.049 79.3474 296.96 79.6342 296.942C80.7662 296.898 81.8721 296.881 82.9519 296.881C85.6253 296.881 88.1768 296.994 90.7108 297.22C93.4451 297.464 96.1969 297.838 99.1315 298.344C100.673 298.613 102.275 298.91 103.947 299.214C105.191 299.465 106.372 299.964 107.419 300.68C108.466 301.397 109.358 302.317 110.043 303.385L113.526 308.758L119.874 318.555L137.961 320.401L156.248 322.273C157.913 322.441 159.591 322.114 161.072 321.333L208.269 296.323C209.29 295.782 210.143 294.973 210.739 293.984C211.334 292.994 211.648 291.861 211.648 290.707C211.652 289.853 211.317 289.032 210.716 288.425C210.159 287.868 209.421 287.528 208.635 287.467C208.031 287.425 207.427 287.555 206.894 287.842L158.311 313.347" stroke="#323433" stroke-width="2.61" stroke-linecap="round" stroke-linejoin="round"/>
<path d="M83.5444 297.464C86.479 303.333 92.6531 315.097 96.92 319.321" stroke="#323433" stroke-width="2.61" stroke-linecap="round" stroke-linejoin="round"/>
<path d="M90.7109 297.211C93.6717 303.124 100.055 315.359 104.461 319.713" stroke="#323433" stroke-width="2.61" stroke-linecap="round" stroke-linejoin="round"/>
<path d="M99.1313 298.335C102.031 304.169 108.527 316.622 112.977 321.045" stroke="#323433" stroke-width="2.61" stroke-linecap="round" stroke-linejoin="round"/>
<path d="M357.046 118.705C356.497 119.16 355.86 119.497 355.174 119.693C354.489 119.89 353.77 119.943 353.063 119.848C352.356 119.753 351.677 119.512 351.067 119.142C350.458 118.771 349.932 118.279 349.522 117.695" stroke="#323433" stroke-width="2.61" stroke-linecap="round" stroke-linejoin="round"/>
<path d="M335.477 116.049C334.803 116.608 333.997 116.987 333.137 117.15C332.276 117.313 331.389 117.255 330.557 116.981" stroke="#323433" stroke-width="2.61" stroke-linecap="round" stroke-linejoin="round"/>
<path d="M340.824 115.832C341.609 118.491 341.764 121.297 341.277 124.026C340.984 125.714 340.048 127.222 338.664 128.232L338.159 128.598C337.876 128.804 337.657 129.086 337.528 129.411C337.399 129.736 337.364 130.091 337.428 130.435C337.502 130.831 337.704 131.192 338.003 131.462C338.302 131.733 338.681 131.898 339.082 131.933L344.081 132.36" stroke="#323433" stroke-width="2.61" stroke-linecap="round" stroke-linejoin="round"/>
<path d="M146.042 286.431L168.16 288.756L158.442 292.065L148.123 291.003" stroke="#323433" stroke-width="2.61" stroke-linecap="round" stroke-linejoin="round"/>
<path d="M548.351 2.55918C549.97 2.2359 551.613 2.04885 553.263 2L542.121 2C541.921 2.00242 541.721 2.01576 541.522 2.03995C533.082 2.33284 525.827 6.16716 519.757 13.5429C513.447 21.2382 510.292 30.5177 510.292 41.3816C510.292 52.2455 513.447 61.5251 519.757 69.2204C525.966 76.7559 533.407 80.6035 542.081 80.7633L552.904 80.7633C551.359 80.7222 549.821 80.535 548.311 80.2041C541.74 78.926 535.976 75.2648 531.019 69.2204C524.682 61.5517 521.514 52.2722 521.514 41.3816C521.514 30.4911 524.682 21.2115 531.019 13.5429C535.971 7.53048 541.748 3.86924 548.351 2.55918Z" fill="#F37C40" stroke="#323433" stroke-width="2"/>
<path d="M569.51 28.5834L569.51 20.084L560.724 20.084L560.724 15.7305L553.536 15.7305L553.536 20.084L552.857 20.084C551.356 20.0882 549.876 20.4308 548.526 21.0864C547.177 21.742 545.992 22.6936 545.061 23.8704C542.96 26.4711 541.814 29.7134 541.814 33.0568C541.814 36.4001 542.96 39.6425 545.061 42.2432C545.959 43.3838 547.097 44.3123 548.395 44.9626C549.693 45.6129 551.118 45.9691 552.569 46.0056L560.333 46.0056C561.537 46.0536 562.693 46.494 563.624 47.2597C564.135 48.173 564.353 49.2219 564.247 50.2633C564.247 50.3432 564.247 50.4231 564.247 50.5029C564.291 51.6669 563.901 52.8057 563.152 53.6982C562.834 54.1041 562.426 54.4307 561.96 54.6524C561.495 54.8742 560.984 54.985 560.469 54.9763L542.433 54.9763L542.433 63.4757L553.536 63.4757L553.536 69.2352L560.724 69.2352L560.724 63.4757C562.17 63.431 563.589 63.0687 564.88 62.4143C566.17 61.7599 567.301 60.8296 568.192 59.6893C570.305 57.1828 571.44 53.9965 571.387 50.7186C571.579 46.6074 570.676 43.46 568.679 41.2766C566.986 39.0879 564.308 37.8417 560.644 37.5381L560.405 37.5381L552.673 37.5381C552.173 37.5217 551.683 37.3967 551.236 37.1719C550.789 36.9471 550.396 36.6277 550.085 36.2361C549.358 35.3299 548.961 34.2028 548.961 33.0408C548.961 31.8789 549.358 30.7517 550.085 29.8456C550.413 29.4348 550.828 29.1025 551.301 28.873C551.773 28.6436 552.291 28.5228 552.817 28.5195L569.51 28.5834Z" fill="white" stroke="#323433" stroke-width="2"/>
<path d="M552.865 28.5825L569.534 28.5825L569.534 20.0911L560.748 20.0911L560.748 15.7376L553.56 15.7375L553.56 20.0911L552.865 20.0911C551.364 20.0928 549.884 20.4352 548.535 21.0924C547.186 21.7497 546.004 22.7047 545.077 23.8855V23.8855C542.986 26.4905 541.847 29.7312 541.847 33.0719C541.847 36.4125 542.986 39.6532 545.077 42.2582V42.2582C545.977 43.3993 547.117 44.3284 548.416 44.98C549.715 45.6316 551.141 45.9896 552.593 46.0287L560.333 46.0287C561.539 46.0736 562.697 46.5175 563.624 47.2908C564.14 48.1997 564.36 49.2466 564.255 50.2864C564.255 50.3662 564.255 50.4381 564.255 50.518C564.299 51.6819 563.909 52.8207 563.161 53.7133C562.84 54.1195 562.431 54.4472 561.964 54.6715C561.498 54.8957 560.986 55.0106 560.469 55.0074L542.458 55.0074L542.458 63.4988L553.56 63.4988L553.56 69.2582L560.748 69.2582L560.748 63.4988C562.194 63.4509 563.611 63.0862 564.9 62.4306C566.189 61.775 567.319 60.8443 568.209 59.7044C570.311 57.1984 571.445 54.0209 571.403 50.7497C571.584 46.6278 570.679 43.4751 568.688 41.2917C566.989 39.1029 564.327 37.8568 560.701 37.5532L552.713 37.5532C552.213 37.5337 551.724 37.4057 551.278 37.1781C550.833 36.9505 550.442 36.6288 550.133 36.2352V36.2352C549.412 35.3266 549.019 34.2004 549.019 33.0399C549.019 31.8795 549.412 30.7532 550.133 29.8446V29.8446C550.464 29.4416 550.881 29.1187 551.354 28.9001C551.828 28.6815 552.344 28.5729 552.865 28.5825Z" stroke="#323433" stroke-width="2" stroke-linecap="round" stroke-linejoin="round"/>
</svg>
