<svg width="448" height="711" viewBox="0 0 448 711" fill="none" xmlns="http://www.w3.org/2000/svg">
<path d="M352.147 559.087C351.883 562.249 351.592 566.535 351.273 571.946L338.294 571.946L338.294 565.208C343.937 559.309 349.038 552.913 353.535 546.099C352.997 550.142 352.534 554.48 352.147 559.113L352.147 559.087ZM446.524 458.349L446.524 536.481C435.448 521.882 426.042 506.087 418.483 489.391C417.39 487.011 416.585 485.374 416.067 484.479C415.206 482.904 414.095 481.479 412.777 480.261C411.416 479.012 409.718 478.189 407.894 477.895C407.02 477.722 406.12 477.723 405.247 477.9C404.373 478.077 403.544 478.425 402.805 478.924C402.559 479.102 402.327 479.3 402.111 479.515C400.528 481.082 399.586 483.654 399.284 487.231C397.948 501.544 401.948 517.429 411.287 534.886C414.028 539.927 418.329 547.017 424.189 556.155C428.216 562.42 431.471 567.624 433.956 571.766L379.699 571.92L381.987 558.958C382.621 555.101 383.032 552.229 383.22 550.343C383.545 547.481 383.562 544.593 383.272 541.727C382.974 538.817 382.174 535.98 380.907 533.343C379.688 530.746 377.852 528.486 375.561 526.759C374.05 525.643 372.327 524.846 370.498 524.419C369.477 524.188 368.435 524.067 367.388 524.059C366.475 524.045 365.562 524.122 364.664 524.29C364.705 524.146 364.751 524.002 364.792 523.853C366.077 519.43 366.429 515.315 365.846 511.508C365.605 509.7 365.02 507.954 364.124 506.365C363.273 504.801 361.938 503.556 360.32 502.816L359.986 502.661C358.322 502.075 356.516 502.021 354.82 502.507C352.928 503 351.137 503.818 349.525 504.925C346.098 507.202 342.834 510.416 339.733 514.569C339.291 515.166 338.808 515.834 338.294 516.575L338.294 458.323L223.844 458.323C223.823 425.62 223.806 392.916 223.792 360.209L391.676 360.209L391.676 458.323L446.524 458.349Z" fill="#4F59C1" stroke="#323433" stroke-width="1.10311"/>
<path d="M370.498 524.394C372.328 524.822 374.05 525.618 375.562 526.735C377.853 528.461 379.688 530.721 380.908 533.318C382.174 535.956 382.974 538.792 383.272 541.703C383.563 544.568 383.545 547.456 383.221 550.318C383.029 552.204 382.618 555.076 381.987 558.934L379.777 571.87L364.227 571.87C364.69 557.046 366.78 541.212 370.498 524.369L370.498 524.394ZM354.82 502.482C356.517 501.997 358.322 502.051 359.986 502.637C354.542 516.391 347.243 529.335 338.294 541.111L338.294 516.576C338.808 515.835 339.291 515.167 339.733 514.57C342.818 510.417 346.082 507.203 349.526 504.926C351.137 503.819 352.929 503.001 354.82 502.508L354.82 502.482ZM446.576 571.69L434.033 571.69C431.528 567.551 428.273 562.347 424.267 556.079C418.407 546.937 414.106 539.847 411.364 534.81C402.026 517.356 398.025 501.471 399.361 487.155C399.66 483.595 400.602 481.023 402.189 479.439C407.362 496.107 414.145 512.231 422.442 527.583C429.464 540.582 437.535 552.985 446.576 564.669L446.576 571.69Z" fill="#9CC627" stroke="#323433" stroke-width="1.10311"/>
<path d="M364.663 524.266C365.561 524.098 366.474 524.02 367.387 524.034C368.434 524.043 369.476 524.163 370.497 524.394C366.776 541.241 364.685 557.075 364.226 571.896L351.272 571.947C351.591 566.543 351.882 562.256 352.146 559.088C352.53 554.459 352.993 550.121 353.534 546.075C355.775 542.646 357.866 539.114 359.805 535.479C361.787 531.909 363.414 528.153 364.663 524.266V524.266ZM446.575 536.456L446.575 564.669C437.534 552.985 429.463 540.582 422.441 527.583C414.138 512.249 407.346 496.142 402.162 479.491C402.377 479.276 402.609 479.078 402.856 478.899C403.594 478.4 404.424 478.052 405.297 477.875C406.171 477.699 407.071 477.697 407.945 477.87C409.769 478.165 411.466 478.987 412.828 480.236C414.146 481.455 415.257 482.879 416.118 484.454C416.632 485.346 417.437 486.983 418.534 489.366C426.093 506.062 435.499 521.857 446.575 536.456V536.456ZM396.739 175.631C398.834 175.63 400.927 175.741 403.01 175.966C414.103 177.258 423.758 182.008 431.976 190.214C436.015 194.193 439.352 198.828 441.845 203.921C445.041 210.651 446.659 218.023 446.575 225.473L446.575 458.325L391.676 458.325L391.675 175.863C393.331 175.709 395.017 175.631 396.739 175.631Z" fill="#00B07A" stroke="#323433" stroke-width="1.10311"/>
<path d="M434.033 602.164L446.576 602.164L446.576 693.72L338.294 693.72L338.294 602.421L351.273 602.421L364.227 602.369L379.777 602.369L434.033 602.164Z" fill="#F37C40" stroke="#323433" stroke-width="1.10311"/>
<path d="M361.527 190.214C370.039 181.706 380.088 176.923 391.675 175.863L391.675 360.21L223.791 360.21C223.791 346.336 223.791 332.466 223.791 318.598L223.791 290.36C223.791 276.589 228.665 264.836 238.415 255.1C248.165 245.365 259.902 240.496 273.626 240.493C287.389 240.493 299.135 245.362 308.864 255.1C318.593 264.839 323.459 276.592 323.462 290.36L323.462 325.259C323.461 327.584 324.15 329.856 325.44 331.789C326.73 333.722 328.565 335.229 330.711 336.118C332.857 337.008 335.219 337.24 337.497 336.786C339.776 336.331 341.868 335.211 343.51 333.566C344.585 332.534 345.444 331.297 346.035 329.927C346.627 328.558 346.939 327.085 346.954 325.594L346.954 225.473C346.937 211.702 351.794 199.949 361.527 190.214Z" fill="#F37C40" stroke="#323433" stroke-width="1.10311"/>
<path d="M211.363 385V385C218.272 385 223.873 390.601 223.873 397.51L223.873 450C223.873 479.823 199.696 504 169.873 504V504C140.049 504 115.873 479.823 115.873 450L115.873 398.28C115.873 391.13 121.669 385.334 128.818 385.334V385.334L141.738 385.267L157.247 385.267L211.363 385Z" fill="#F37C40" stroke="#323433" stroke-width="1.10311"/>
<path d="M129.361 384.456C129.097 387.618 128.806 391.904 128.487 397.316L115.508 397.316L115.508 390.577C121.151 384.678 126.252 378.283 130.749 371.469C130.211 375.512 129.748 379.85 129.361 384.482L129.361 384.456ZM223.738 283.719L223.738 361.85C212.662 347.251 203.256 331.456 195.697 314.76C194.604 312.381 193.799 310.743 193.281 309.848C192.42 308.273 191.309 306.849 189.991 305.631C188.63 304.381 186.932 303.559 185.108 303.265C184.234 303.091 183.334 303.093 182.461 303.27C181.587 303.446 180.757 303.794 180.019 304.293C179.773 304.472 179.541 304.67 179.325 304.885C177.742 306.452 176.799 309.024 176.498 312.6C175.161 326.913 179.162 342.798 188.501 360.256C191.242 365.297 195.543 372.386 201.403 381.525C205.43 387.79 208.685 392.993 211.17 397.135L156.913 397.29L159.201 384.328C159.835 380.47 160.246 377.598 160.434 375.712C160.759 372.851 160.776 369.962 160.486 367.097C160.187 364.186 159.387 361.35 158.121 358.713C156.901 356.115 155.066 353.855 152.775 352.129C151.264 351.012 149.541 350.216 147.712 349.789C146.691 349.558 145.649 349.437 144.602 349.428C143.688 349.414 142.776 349.492 141.878 349.66C141.919 349.516 141.965 349.372 142.006 349.223C143.291 344.799 143.642 340.684 143.06 336.878C142.818 335.069 142.234 333.324 141.338 331.734C140.487 330.171 139.152 328.925 137.534 328.185L137.2 328.031C135.536 327.445 133.73 327.391 132.034 327.877C130.142 328.369 128.351 329.187 126.739 330.294C123.312 332.571 120.048 335.786 116.947 339.938C116.505 340.535 116.022 341.204 115.508 341.944V341.944C115.508 309.083 90.1901 281.771 57.4232 279.283L52.7349 278.927C23.549 276.711 0.997843 252.394 1.00601 223.124C1.00931 211.279 1.01174 199.181 1.00604 185.579L168.89 185.579L168.89 283.693L223.738 283.719Z" fill="#4F59C1" stroke="#323433" stroke-width="1.10311"/>
<path d="M147.711 349.763C149.54 350.19 151.263 350.987 152.775 352.103C155.066 353.83 156.901 356.09 158.12 358.687C159.387 361.324 160.187 364.161 160.485 367.071C160.775 369.937 160.758 372.825 160.434 375.687C160.242 377.573 159.831 380.445 159.2 384.302L156.99 397.239L141.44 397.239C141.903 382.415 143.993 366.581 147.711 349.737L147.711 349.763ZM132.033 327.851C133.729 327.365 135.535 327.419 137.199 328.005C131.755 341.76 124.456 354.704 115.507 366.48L115.507 341.945C116.021 341.204 116.504 340.535 116.946 339.939C120.03 335.786 123.295 332.571 126.739 330.294C128.35 329.187 130.142 328.369 132.033 327.877L132.033 327.851ZM223.789 397.059L211.246 397.059C208.741 392.92 205.485 387.716 201.479 381.448C195.619 372.306 191.319 365.216 188.577 360.179C179.239 342.725 175.238 326.84 176.574 312.523C176.873 308.964 177.815 306.392 179.402 304.808C184.575 321.476 191.358 337.6 199.655 352.952C206.677 365.951 214.748 378.354 223.789 390.037L223.789 397.059Z" fill="#9CC627" stroke="#323433" stroke-width="1.10311"/>
<path d="M141.877 349.634C142.775 349.466 143.688 349.389 144.601 349.403C145.648 349.411 146.69 349.532 147.711 349.763C143.989 366.61 141.899 382.444 141.44 397.264L128.486 397.316C128.805 391.911 129.096 387.625 129.36 384.457C129.744 379.827 130.206 375.49 130.748 371.443C132.989 368.014 135.08 364.482 137.019 360.847C139.001 357.278 140.628 353.522 141.877 349.634ZM223.788 361.825L223.788 390.037C214.748 378.354 206.676 365.951 199.654 352.952C191.352 337.617 184.56 321.51 179.376 304.859C179.591 304.644 179.823 304.446 180.07 304.268C180.808 303.769 181.638 303.421 182.511 303.244C183.385 303.068 184.285 303.066 185.159 303.239C186.982 303.533 188.68 304.356 190.042 305.605C191.359 306.823 192.471 308.248 193.332 309.823C193.846 310.714 194.651 312.352 195.748 314.735C203.307 331.431 212.713 347.226 223.788 361.825ZM173.953 1.00008C176.048 0.998562 178.141 1.11017 180.224 1.33441C191.317 2.62717 200.972 7.37644 209.19 15.5822C213.229 19.5618 216.566 24.1964 219.059 29.29C222.255 36.0199 223.872 43.3912 223.788 50.8417L223.788 283.693L168.889 283.693L168.889 1.23154C170.545 1.07723 172.231 1.00008 173.953 1.00008Z" fill="#00B07A" stroke="#323433" stroke-width="1.10311"/>
<path d="M138.741 15.5823C147.254 7.07478 157.303 2.29122 168.89 1.23163L168.89 185.579L1.00556 185.579C1.00556 171.705 1.00556 157.834 1.00556 143.967L1.00555 115.729C1.00555 101.957 5.8803 90.2042 15.6298 80.4691C25.3794 70.7339 37.1165 65.8646 50.8413 65.8612C64.6038 65.8612 76.3495 70.7305 86.0785 80.469C95.8075 90.2076 100.674 101.961 100.677 115.729L100.677 150.628C100.676 152.952 101.364 155.225 102.655 157.158C103.945 159.091 105.779 160.598 107.926 161.487C110.072 162.376 112.434 162.609 114.712 162.154C116.99 161.7 119.083 160.58 120.724 158.935C121.8 157.902 122.659 156.665 123.25 155.296C123.841 153.927 124.154 152.454 124.169 150.962L124.169 50.8418C124.151 37.0706 129.009 25.3175 138.741 15.5823Z" fill="#F37C40" stroke="#323433" stroke-width="1.10311"/>
<path d="M131.309 265.233L128.783 259.796L122.89 260.887L120.36 255.451L114.467 256.541L111.942 251.105" stroke="#323433" stroke-width="1.97153" stroke-linecap="round" stroke-linejoin="round"/>
<path d="M168.191 539.759C172.058 539.759 175.194 536.625 175.194 532.759C175.194 528.893 172.058 525.758 168.191 525.758C164.323 525.758 161.188 528.893 161.188 532.759C161.188 536.625 164.323 539.759 168.191 539.759Z" fill="#F37C40" stroke="#323433" stroke-width="1.24249" stroke-linecap="round" stroke-linejoin="round"/>
<path d="M316.789 458.797L390.876 459.305V711H316.789V458.797Z" fill="#F4F8FF"/>
<path d="M302.522 411.055C304.351 411.483 306.074 412.279 307.585 413.396C309.876 415.122 311.711 417.382 312.931 419.979C314.197 422.616 314.997 425.453 315.296 428.363C315.586 431.229 315.569 434.117 315.244 436.979C315.052 438.865 314.641 441.737 314.01 445.595L311.8 458.531L296.251 458.531C296.713 443.707 298.804 427.873 302.522 411.029L302.522 411.055ZM378.599 458.351L366.057 458.351C363.552 454.212 360.296 449.008 356.29 442.74C350.43 433.598 346.129 426.508 343.388 421.471C334.049 404.017 330.048 388.132 331.385 373.815C331.683 370.256 332.625 367.684 334.212 366.1C339.385 382.768 346.168 398.892 354.465 414.244C361.487 427.243 369.559 439.646 378.599 451.33L378.599 458.351Z" fill="#9CC627" stroke="#323433" stroke-width="1.10311"/>
<path d="M296.688 410.926C297.586 410.758 298.498 410.681 299.412 410.695C300.458 410.703 301.501 410.824 302.522 411.055C298.8 427.902 296.71 443.736 296.251 458.556L283.297 458.608C283.616 453.204 283.907 448.917 284.171 445.749C284.555 441.119 285.017 436.782 285.559 432.735C287.8 429.306 289.89 425.774 291.83 422.14C293.811 418.57 295.438 414.814 296.688 410.926ZM378.599 423.117L378.599 451.33C369.559 439.646 361.487 427.243 354.465 414.244C346.163 398.909 339.371 382.802 334.186 366.151C334.402 365.936 334.634 365.739 334.88 365.56C335.619 365.061 336.449 364.713 337.322 364.536C338.195 364.36 339.095 364.358 339.969 364.531C341.793 364.825 343.491 365.648 344.853 366.897C346.17 368.116 347.281 369.54 348.142 371.115C348.657 372.006 349.462 373.644 350.558 376.027C358.118 392.723 367.523 408.518 378.599 423.117Z" fill="#00B07A" stroke="#323433" stroke-width="1.10311"/>
</svg>
