<svg width="268" height="291" viewBox="0 0 268 291" fill="none" xmlns="http://www.w3.org/2000/svg">
<path d="M180.94 123.67L169.924 119.753L204.396 106.948C206.322 106.247 208.099 105.196 209.623 103.855C211.146 102.515 212.385 100.913 213.265 99.144C214.503 96.7884 215.053 94.1913 214.856 91.6326C215.579 92.6619 216.16 93.7779 216.587 94.9554L216.738 95.3656C217.95 98.9567 217.593 102.927 215.743 106.422C213.893 109.916 210.699 112.654 206.849 114.046L180.792 123.725L180.94 123.67ZM53.5899 162.964L64.5325 166.908L56.1912 170.006L53.5899 162.964Z" fill="#5E5E5E"/>
<path fill-rule="evenodd" clip-rule="evenodd" d="M216.742 90.9576L213.897 91.9907C214.002 94.101 213.439 96.2641 212.269 98.2467L212.261 98.2604L212.253 98.2743C211.417 99.7636 210.266 101.125 208.868 102.278C207.469 103.431 205.852 104.351 204.112 104.986L204.102 104.99L165.636 119.277L180.075 123.631L180.623 122.55L181.025 123.639L207.22 113.909C211.472 112.366 215.054 109.484 217.193 105.882C219.334 102.278 219.86 98.2433 218.658 94.6468L218.653 94.6306L218.51 94.2446C218.086 93.0734 217.492 91.9695 216.742 90.9576ZM180.831 120.921L206.321 111.453L206.334 111.448C209.819 110.185 212.755 107.823 214.509 104.872C216.003 102.356 216.537 99.5835 216.052 96.9954C215.758 97.7569 215.396 98.5062 214.966 99.2357C213.943 101.055 212.535 102.719 210.825 104.128C209.113 105.54 207.133 106.667 205.003 107.445L174.147 118.905L180.831 120.921ZM50.4227 160.305L54.2691 170.719L67.898 165.657L50.4227 160.305ZM59.4362 166.01L56.29 167.178L55.402 164.774L59.4362 166.01Z" fill="#323433"/>
<path d="M170.499 121.051L137.88 107.183L196.727 85.2673C200.003 84.0722 203.594 84.0298 206.947 85.1465C210.301 86.2632 213.232 88.4773 215.291 91.4491C215.594 94.3112 215.136 97.1866 213.966 99.7648C213.138 101.703 211.938 103.44 210.437 104.875C208.937 106.309 207.165 107.412 205.228 108.117L170.499 121.051Z" fill="#5E5E5E"/>
<path fill-rule="evenodd" clip-rule="evenodd" d="M196.338 83.2325L133.324 106.701L170.034 121.213L205.537 107.99C207.681 107.208 209.649 106.009 211.326 104.463C213.001 102.92 214.351 101.063 215.297 99.0014C216.627 96.2496 217.181 93.1972 216.899 90.1724L216.86 89.7608L216.621 89.4247C214.413 86.3226 211.234 84.0366 207.572 82.9174C203.909 81.7982 199.966 81.9076 196.347 83.229L196.338 83.2325ZM197.406 86.1477C200.378 85.0638 203.615 84.9745 206.622 85.8935C209.497 86.7722 212.01 88.5265 213.811 90.9048C213.956 93.2353 213.495 95.5726 212.468 97.6905L212.461 97.7061L212.454 97.7218C211.681 99.4094 210.578 100.929 209.208 102.192C207.838 103.454 206.23 104.433 204.479 105.071L204.469 105.075L170.098 117.876L142.018 106.776L197.406 86.1477Z" fill="#323433"/>
<ellipse rx="67.3899" ry="67.38" transform="matrix(0.995214 0.0207842 -0.029532 1.0041 114.057 121.373)" fill="#F37C40" stroke="#323433" stroke-width="2.04434"/>
<path d="M113.106 76.3238L79.5576 153.595L86.1323 157.778L123.432 142.664L90.1609 143.263L124.121 99.8247L113.106 76.3238Z" fill="white" stroke="#323433" stroke-width="2.04434"/>
<path d="M144.765 151.57L138.812 152.429L112.905 124.034L127.222 106.475L144.765 151.57Z" fill="white" stroke="#323433" stroke-width="2.04434"/>
<path d="M56.5268 171.395L207.608 115.042C211.47 113.643 214.638 110.791 216.43 107.1C218.221 103.41 218.494 99.177 217.187 95.3137L258.234 206.906C258.979 208.823 259.321 210.875 259.239 212.936C259.157 214.996 258.653 217.021 257.758 218.887C256.908 220.756 255.691 222.439 254.181 223.836C252.671 225.234 250.897 226.317 248.965 227.022L97.9581 283.346L56.5268 171.395Z" fill="#F9C13D"/>
<path fill-rule="evenodd" clip-rule="evenodd" d="M219.126 94.6393L216.177 95.6962C217.338 99.135 217.071 102.912 215.434 106.212C213.796 109.512 210.919 112.072 207.423 113.34L207.409 113.345L54.029 170.553L96.0394 284.056L249.335 226.879C251.472 226.098 253.436 224.906 255.112 223.374C256.786 221.844 258.138 220.006 259.089 217.968C260.086 215.93 260.654 213.72 260.757 211.474C260.86 209.228 260.496 206.994 259.687 204.91L219.126 94.6393ZM219.4 104.459L256.761 206.03L256.766 206.043C257.427 207.742 257.725 209.564 257.641 211.395C257.557 213.227 257.093 215.029 256.278 216.692L256.271 216.706L256.265 216.72C255.488 218.388 254.383 219.892 253.014 221.143C251.645 222.395 250.04 223.368 248.295 224.005L248.284 224.009L97.9137 280.095L58.0249 172.325L208.458 116.215C212.723 114.667 216.233 111.543 218.231 107.516C218.722 106.527 219.112 105.503 219.4 104.459Z" fill="#323433"/>
<path fill-rule="evenodd" clip-rule="evenodd" d="M108.739 223.086C112.986 221.513 115.26 217.082 113.818 213.189C112.376 209.296 107.765 207.416 103.518 208.989C99.2708 210.562 96.997 214.993 98.4389 218.886C99.8809 222.779 104.493 224.659 108.739 223.086ZM110.045 226.611C116.415 224.251 119.826 217.605 117.663 211.765C115.5 205.926 108.583 203.105 102.212 205.464C95.8419 207.824 92.4311 214.471 94.5941 220.31C96.757 226.149 103.675 228.97 110.045 226.611Z" fill="#323433"/>
</svg>
