<svg width="151" height="32" viewBox="0 0 151 32" fill="none" xmlns="http://www.w3.org/2000/svg">
<path fill-rule="evenodd" clip-rule="evenodd" d="M65.4382 0.558838V10.4331L60.293 15.5878L65.4382 20.743V31.4412H150.734V0.558838H65.4382Z" fill="#53599A"/>
<path fill-rule="evenodd" clip-rule="evenodd" d="M58.3692 9.07172C56.7749 7.18985 54.3029 6.02466 50.9807 6.02466C45.3025 6.02466 40.865 10.0751 40.865 15.9825C40.865 21.8903 45.3025 25.9403 50.9498 25.9403C54.4462 25.9403 56.9777 24.685 58.5526 22.66L55.4522 19.5972C54.3528 21.0217 53.181 21.8903 50.9183 21.8903C47.8155 21.8903 45.7366 19.5756 45.7366 15.9825C45.7366 12.3894 47.7845 10.0751 50.9498 10.0751C53.0337 10.0751 54.5286 10.9222 55.4078 11.958L58.3692 9.07172ZM31.7737 10.4707H39.3136V6.39034H19.6096V10.4707H27.057V25.5747H31.7737V10.4707ZM12.6287 15.6173C15.1112 15.3433 17.0347 13.7899 17.0347 11.6585C17.0347 8.46093 14.8319 6.39034 9.86648 6.39034H0V25.5747H10.4569C15.0183 25.5747 17.6246 23.6256 17.6246 20.3065C17.6246 17.5658 15.2665 15.9825 12.6287 15.6173ZM12.287 12.2065C12.287 13.3335 11.4808 14.2467 9.46389 14.2467H4.59234V10.0751H9.46389C11.4808 10.0751 12.287 11.0188 12.287 12.2065ZM12.9074 19.6977C12.9074 20.9766 11.9464 21.8595 9.86648 21.8595H4.59234V17.5354H9.86648C11.9464 17.5354 12.9074 18.4492 12.9074 19.6977Z" fill="#53599A"/>
<path fill-rule="evenodd" clip-rule="evenodd" d="M86.0123 21.9654H75.2123V16.211H83.2307V14.2036H75.2123V9.0649H85.7671V7.08402H72.8672V23.9458H86.0123V21.9654ZM102.376 18.0311C101.749 20.7075 99.9762 22.26 96.8663 22.26C93.3759 22.26 90.812 19.6634 90.812 15.5149C90.812 11.3664 93.3489 8.77029 96.9487 8.77029C99.7304 8.77029 101.503 10.2693 102.212 12.4909L104.203 11.2061C103.085 8.47617 100.576 6.76294 96.9487 6.76294C92.0942 6.76294 88.3305 10.3227 88.3305 15.5149C88.3305 20.7075 92.0942 24.2674 96.8663 24.2674C100.903 24.2674 103.522 22.26 104.503 19.1551L102.376 18.0311ZM110.421 23.9458V16.211H120.948V23.9458H123.348V7.08402H120.948V14.2036H110.421V7.08402H108.021V23.9458H110.421ZM144.511 15.5149C144.511 10.3227 140.802 6.76294 135.784 6.76294C130.793 6.76294 127.084 10.3227 127.084 15.5149C127.084 20.7075 130.793 24.2674 135.784 24.2674C140.802 24.2674 144.511 20.7075 144.511 15.5149ZM142.029 15.5149C142.029 19.637 139.493 22.233 135.784 22.233C132.075 22.233 129.566 19.637 129.566 15.5149C129.566 11.3933 132.075 8.79725 135.784 8.79725C139.493 8.79725 142.029 11.3933 142.029 15.5149Z" fill="#F2F6FD"/>
</svg>
