<svg width="181" height="44" viewBox="0 0 181 44" fill="none" xmlns="http://www.w3.org/2000/svg">
<path d="M26.8654 31.585L19.3654 34.855V34.525C17.9254 34.885 16.3054 35.095 14.8054 35.185C7.72535 35.125 2.14535 31.405 2.05535 27.025V25.405C4.36535 28.765 9.10535 31.045 14.8054 30.955C16.7254 31.045 18.7054 30.745 20.3554 30.295L21.0154 28.675C19.0654 29.275 16.9054 29.665 14.8054 29.665C7.72535 29.665 2.14535 25.975 2.05535 21.505V20.185C4.36535 23.305 9.10535 25.555 14.8054 25.405C17.3854 25.555 19.8754 25.015 22.0054 24.085L22.3354 22.465C20.2654 23.545 17.5954 24.175 14.8354 24.085C7.75535 24.175 2.17535 20.485 2.08535 15.925V14.605C4.39535 17.785 9.13535 20.065 14.8354 20.155C18.0754 20.065 21.1354 19.195 23.6554 17.875L23.9854 15.925C21.7054 17.605 18.3754 18.715 14.8354 18.865C7.75535 18.715 2.17535 14.995 2.08535 10.375C2.14535 5.96496 7.75535 2.27496 14.8354 2.21496C19.0354 2.27496 22.9654 3.74496 25.2754 6.14496L25.5154 6.53496H27.1654L26.9254 6.14496C24.6154 2.99496 19.9654 0.924961 14.8354 0.924961C6.97535 0.894961 0.735352 5.18496 0.735352 10.345V10.675V27.325C1.00535 32.365 7.09535 36.475 14.7754 36.475C19.8454 36.505 24.4354 34.495 26.8654 31.585Z" fill="#53599A"/>
<path d="M23.8047 43.0745L26.4447 31.8545L18.8547 35.1545L23.4747 15.7145H14.5947L16.9047 6.14453H45.2547L42.9447 15.7145H33.7047L31.7247 20.9945L41.9547 16.7045L23.8047 43.0745ZM28.4247 29.5745L27.1047 36.1745L37.9947 19.7045L29.0847 23.6645L33.0447 14.4245H41.9547L43.6047 7.49453H17.8647L16.2147 14.4245H25.1247L20.8347 32.8745L28.4247 29.5745Z" fill="#53599A"/>
<path d="M64.0653 12.5654V12.5954C64.0953 13.6454 63.7653 14.4554 63.1053 15.0554C62.4453 15.6554 61.5453 15.9554 60.3753 15.9554C59.2053 15.9554 58.2453 15.5654 57.5253 14.8154C56.8053 14.0654 56.4453 13.0754 56.4453 11.8754V9.92542C56.4453 8.72542 56.8053 7.73543 57.4953 6.98543C58.2153 6.23543 59.1453 5.84543 60.2853 5.84543C61.4853 5.84543 62.4153 6.14543 63.1053 6.71543C63.7953 7.31543 64.1253 8.12542 64.0953 9.17542V9.20543H62.1753C62.1753 8.57543 62.0253 8.09543 61.7253 7.79543C61.4253 7.49543 60.9453 7.34543 60.3153 7.34543C59.7153 7.34543 59.2653 7.58543 58.9353 8.06543C58.6053 8.54543 58.4253 9.14543 58.4253 9.89543V11.8754C58.4253 12.6254 58.6053 13.2554 58.9353 13.7354C59.2953 14.2154 59.7753 14.4554 60.4053 14.4554C61.0053 14.4554 61.4253 14.3054 61.7253 14.0054C62.0253 13.7054 62.1753 13.2254 62.1753 12.5954H64.0653V12.5654ZM74.9253 11.7854C74.9253 12.9854 74.5353 14.0054 73.7853 14.7854C73.0353 15.5654 72.0453 15.9554 70.8153 15.9554C69.5853 15.9554 68.6253 15.5654 67.8453 14.7854C67.0953 14.0054 66.7053 12.9854 66.7053 11.7854V10.0154C66.7053 8.81543 67.0953 7.82543 67.8453 7.01543C68.5953 6.23543 69.5853 5.81543 70.7853 5.81543C72.0153 5.81543 73.0053 6.20543 73.7553 7.01543C74.5353 7.79543 74.8953 8.81543 74.8953 10.0154V11.7854H74.9253ZM72.9453 9.98543C72.9453 9.20543 72.7653 8.60543 72.3753 8.09543C71.9853 7.61543 71.4753 7.34543 70.7853 7.34543C70.1253 7.34543 69.5853 7.58543 69.2253 8.09543C68.8653 8.57543 68.6553 9.20543 68.6553 9.98543V11.7554C68.6553 12.5354 68.8353 13.1654 69.2253 13.6754C69.5853 14.1554 70.1253 14.4254 70.7853 14.4254C71.4753 14.4254 71.9853 14.1854 72.3753 13.6754C72.7653 13.1954 72.9453 12.5354 72.9453 11.7554V9.98543ZM80.0253 15.8054H78.0453V5.96543H80.0253V15.8054ZM91.3953 15.8054H89.4153L85.4553 9.17542H85.4253V15.8054H83.4453V5.96543H85.4253L89.3853 12.5954H89.4153V5.96543H91.3953V15.8054ZM101.325 7.49543H98.5053V15.8054H96.5253V7.49543H93.7653V5.96543H101.325V7.49543ZM109.485 11.4854H105.825V14.3054H110.175V15.8054H103.875V5.96543H110.175V7.49543H105.855V9.95543H109.515V11.4854H109.485ZM114.975 14.3054H119.385V15.8054H112.995V5.96543H114.975V14.3054ZM127.785 11.4854H124.125V14.3054H128.475V15.8054H122.175V5.96543H128.475V7.49543H124.155V9.95543H127.815V11.4854H127.785ZM138.855 14.4854C138.555 14.8754 138.105 15.2354 137.475 15.5354C136.875 15.8354 136.095 15.9854 135.135 15.9854C133.935 15.9854 132.975 15.6254 132.225 14.8754C131.475 14.1254 131.085 13.1654 131.085 11.9654V9.89543C131.085 8.69543 131.445 7.73543 132.195 6.98543C132.915 6.23543 133.875 5.84543 135.015 5.84543C136.215 5.84543 137.145 6.14543 137.775 6.71543C138.405 7.28543 138.735 8.03543 138.705 8.99543V9.02542H136.845C136.845 8.51542 136.695 8.09543 136.395 7.79543C136.095 7.49543 135.645 7.34543 135.075 7.34543C134.475 7.34543 133.995 7.58543 133.605 8.03543C133.245 8.51543 133.065 9.11543 133.065 9.83543V11.9054C133.065 12.6554 133.245 13.2554 133.635 13.7354C134.025 14.2154 134.535 14.4254 135.165 14.4254C135.645 14.4254 136.005 14.3654 136.275 14.2754C136.545 14.1854 136.755 14.0654 136.905 13.9154V11.9954H135.015V10.6154H138.885V14.4854H138.855ZM143.955 11.8754V15.8054H141.975V5.96543H145.395C146.505 5.96543 147.405 6.23543 148.035 6.74543C148.665 7.25543 148.995 7.97542 148.995 8.87542C148.995 9.38542 148.875 9.80543 148.605 10.1954C148.335 10.5554 147.945 10.8554 147.435 11.0954C148.005 11.2754 148.425 11.5454 148.695 11.9654C148.935 12.3554 149.085 12.8654 149.085 13.4654V14.1854C149.085 14.4554 149.115 14.7554 149.205 15.0554C149.265 15.3554 149.415 15.5654 149.595 15.7154V15.8654H147.555C147.375 15.7154 147.255 15.4754 147.195 15.1454C147.135 14.8154 147.105 14.4854 147.105 14.1854V13.4954C147.105 13.0154 146.985 12.6254 146.715 12.3554C146.445 12.0854 146.055 11.9354 145.575 11.9354H143.955V11.8754ZM143.955 10.3754H145.365C145.905 10.3754 146.325 10.2554 146.595 10.0154C146.865 9.77543 147.015 9.44543 147.015 8.96543C147.015 8.51543 146.865 8.15543 146.595 7.88543C146.325 7.61543 145.935 7.49543 145.395 7.49543H143.955V10.3754ZM157.365 13.7054H154.185L153.525 15.8354H151.455L154.785 5.99543H156.795L160.095 15.8354H158.025L157.365 13.7054ZM154.665 12.1454H156.885L155.805 8.66543H155.775L154.665 12.1454ZM164.475 12.2354V15.8054H162.495V5.96543H166.275C167.415 5.96543 168.285 6.26543 168.945 6.83543C169.605 7.40543 169.905 8.18543 169.905 9.11543C169.905 10.0454 169.575 10.8254 168.945 11.3954C168.285 11.9654 167.415 12.2654 166.275 12.2654H164.475V12.2354ZM164.475 10.7354H166.275C166.815 10.7354 167.235 10.5854 167.535 10.2854C167.805 9.98543 167.955 9.59543 167.955 9.14543C167.955 8.66543 167.805 8.27542 167.535 7.97542C167.265 7.67542 166.845 7.52542 166.275 7.52542H164.475V10.7354ZM180.735 15.8054H178.755V11.7254H174.735V15.8054H172.755V5.96543H174.735V10.1954H178.755V5.96543H180.735V15.8054Z" fill="#53599A"/>
<path d="M60.0447 31.8854H58.8147V25.4054H56.5947V24.3554H62.2647V25.4054H60.0447V31.8854ZM68.2947 31.8854H67.0647V28.3754C67.0647 27.9254 66.9747 27.5954 66.7947 27.3854C66.6147 27.1754 66.3447 27.0554 65.9547 27.0554C65.4447 27.0554 65.0847 27.2054 64.8447 27.5054C64.6047 27.8054 64.4847 28.3154 64.4847 29.0354V31.8554H63.2847V23.8454H64.4847V25.8854C64.4847 26.2154 64.4547 26.5454 64.4247 26.9354H64.5147C64.6647 26.6654 64.9047 26.4554 65.2047 26.3054C65.5047 26.1554 65.8347 26.0654 66.2247 26.0654C67.6047 26.0654 68.2947 26.7554 68.2947 28.1654V31.8854ZM72.4647 31.9754C71.5647 31.9754 70.8747 31.7054 70.3947 31.1954C69.8847 30.6854 69.6447 29.9654 69.6447 29.0654C69.6447 28.1354 69.8847 27.4154 70.3347 26.8754C70.7847 26.3354 71.4447 26.0654 72.2547 26.0654C73.0047 26.0654 73.6047 26.3054 74.0247 26.7554C74.4747 27.2054 74.6847 27.8354 74.6847 28.6454V29.3054H70.8747C70.9047 29.8454 71.0547 30.2954 71.3247 30.5654C71.5947 30.8654 72.0147 31.0154 72.5247 31.0154C72.8547 31.0154 73.1847 30.9854 73.4547 30.9254C73.7547 30.8654 74.0547 30.7454 74.3847 30.5954V31.5854C74.0847 31.7354 73.7847 31.8254 73.4847 31.8854C73.2147 31.9454 72.8547 31.9754 72.4647 31.9754ZM72.2547 26.9954C71.8647 26.9954 71.5647 27.1154 71.3247 27.3554C71.0847 27.5954 70.9647 27.9554 70.9047 28.4354H73.4847C73.4847 27.9554 73.3647 27.5954 73.1547 27.3554C72.9447 27.1154 72.6447 26.9954 72.2547 26.9954ZM81.6447 27.0854H80.2647V31.8854H79.0347V27.0854H78.1047V26.5154L79.0347 26.1554V25.7954C79.0347 25.1354 79.1847 24.6254 79.5147 24.2954C79.8447 23.9654 80.3247 23.8154 80.9547 23.8154C81.3747 23.8154 81.7947 23.8754 82.2147 24.0254L81.8847 24.9554C81.5847 24.8654 81.3147 24.8054 81.0147 24.8054C80.7447 24.8054 80.5347 24.8954 80.4147 25.0454C80.2947 25.2254 80.2347 25.4654 80.2347 25.7954V26.1554H81.6147V27.0854H81.6447ZM86.6547 31.8854L86.4747 31.1354H86.4147C86.2347 31.4054 85.9947 31.6154 85.6947 31.7654C85.3947 31.9154 85.0347 32.0054 84.6447 32.0054C83.9547 32.0054 83.4447 31.8254 83.0847 31.4954C82.7247 31.1654 82.5747 30.6254 82.5747 29.9354V26.1854H83.8047V29.6954C83.8047 30.1454 83.8947 30.4454 84.0747 30.6854C84.2547 30.8954 84.5247 31.0154 84.9147 31.0154C85.4247 31.0154 85.7847 30.8654 86.0247 30.5654C86.2647 30.2654 86.3847 29.7554 86.3847 29.0354V26.1854H87.6147V31.8854H86.6547ZM91.4547 30.9854C91.7547 30.9854 92.0547 30.9254 92.3547 30.8354V31.7354C92.2347 31.7954 92.0547 31.8554 91.8447 31.8854C91.6347 31.9154 91.4247 31.9454 91.1847 31.9454C90.0447 31.9454 89.4747 31.3454 89.4747 30.1454V27.0854H88.6947V26.5454L89.5347 26.0954L89.9547 24.8954H90.7047V26.1554H92.3247V27.0854H90.7047V30.1454C90.7047 30.4454 90.7647 30.6554 90.9147 30.8054C91.0047 30.9254 91.2147 30.9854 91.4547 30.9854ZM97.4847 31.8854L97.3047 31.1354H97.2447C97.0647 31.4054 96.8247 31.6154 96.5247 31.7654C96.2247 31.9154 95.8647 32.0054 95.4747 32.0054C94.7847 32.0054 94.2747 31.8254 93.9147 31.4954C93.5847 31.1654 93.4047 30.6254 93.4047 29.9354V26.1854H94.6347V29.6954C94.6347 30.1454 94.7247 30.4454 94.9047 30.6854C95.0847 30.8954 95.3547 31.0154 95.7447 31.0154C96.2547 31.0154 96.6147 30.8654 96.8547 30.5654C97.0947 30.2654 97.2147 29.7554 97.2147 29.0354V26.1854H98.4447V31.8854H97.4847ZM103.065 26.0654C103.305 26.0654 103.515 26.0954 103.665 26.1254L103.545 27.2654C103.365 27.2354 103.185 27.2054 103.005 27.2054C102.525 27.2054 102.135 27.3554 101.835 27.6854C101.535 28.0154 101.385 28.4054 101.385 28.9154V31.8854H100.185V26.1854H101.145L101.295 27.1754H101.355C101.535 26.8454 101.805 26.5754 102.105 26.3654C102.375 26.1854 102.705 26.0654 103.065 26.0654ZM106.995 31.9754C106.095 31.9754 105.405 31.7054 104.925 31.1954C104.415 30.6854 104.175 29.9654 104.175 29.0654C104.175 28.1354 104.415 27.4154 104.865 26.8754C105.315 26.3354 105.975 26.0654 106.785 26.0654C107.535 26.0654 108.135 26.3054 108.555 26.7554C109.005 27.2054 109.215 27.8354 109.215 28.6454V29.3054H105.405C105.435 29.8454 105.585 30.2954 105.855 30.5654C106.125 30.8654 106.545 31.0154 107.055 31.0154C107.385 31.0154 107.715 30.9854 107.985 30.9254C108.285 30.8654 108.585 30.7454 108.915 30.5954V31.5854C108.615 31.7354 108.315 31.8254 108.015 31.8854C107.715 31.9454 107.385 31.9754 106.995 31.9754ZM106.785 26.9954C106.395 26.9954 106.095 27.1154 105.855 27.3554C105.615 27.5954 105.495 27.9554 105.435 28.4354H108.015C108.015 27.9554 107.895 27.5954 107.685 27.3554C107.445 27.1154 107.145 26.9954 106.785 26.9954ZM118.365 29.0054C118.365 29.9354 118.125 30.6554 117.645 31.1954C117.165 31.7054 116.505 31.9754 115.665 31.9754C115.125 31.9754 114.675 31.8554 114.255 31.6154C113.835 31.3754 113.535 31.0154 113.325 30.5654C113.115 30.1154 112.995 29.6054 112.995 29.0054C112.995 28.0754 113.235 27.3554 113.715 26.8454C114.195 26.3354 114.855 26.0654 115.725 26.0654C116.535 26.0654 117.195 26.3354 117.675 26.8754C118.155 27.4154 118.365 28.1054 118.365 29.0054ZM114.225 29.0054C114.225 30.3254 114.705 30.9854 115.695 30.9854C116.655 30.9854 117.135 30.3254 117.135 29.0054C117.135 27.7154 116.655 27.0554 115.695 27.0554C115.185 27.0554 114.825 27.2354 114.585 27.5654C114.345 27.8954 114.225 28.3754 114.225 29.0054ZM122.625 27.0854H121.245V31.8854H120.015V27.0854H119.085V26.5154L120.015 26.1554V25.7954C120.015 25.1354 120.165 24.6254 120.495 24.2954C120.825 23.9654 121.305 23.8154 121.935 23.8154C122.355 23.8154 122.775 23.8754 123.195 24.0254L122.865 24.9554C122.565 24.8654 122.295 24.8054 121.995 24.8054C121.725 24.8054 121.515 24.8954 121.395 25.0454C121.275 25.1954 121.215 25.4654 121.215 25.7954V26.1554H122.595V27.0854H122.625ZM131.145 31.8854H129.915V28.3754C129.915 27.9254 129.825 27.6254 129.675 27.3854C129.525 27.1754 129.255 27.0554 128.895 27.0554C128.415 27.0554 128.085 27.2054 127.875 27.5054C127.665 27.8054 127.545 28.3154 127.545 29.0354V31.8854H126.345V26.1854H127.305L127.485 26.9354H127.545C127.695 26.6654 127.935 26.4554 128.235 26.3054C128.535 26.1554 128.865 26.0954 129.225 26.0954C130.095 26.0954 130.695 26.3954 130.965 26.9954H131.055C131.235 26.7254 131.475 26.4854 131.775 26.3354C132.075 26.1854 132.435 26.0954 132.825 26.0954C133.515 26.0954 133.995 26.2754 134.325 26.6054C134.625 26.9354 134.805 27.4754 134.805 28.1654V31.8854H133.605V28.3754C133.605 27.9254 133.515 27.6254 133.365 27.3854C133.185 27.1754 132.945 27.0554 132.585 27.0554C132.105 27.0554 131.775 27.2054 131.565 27.5054C131.355 27.8054 131.235 28.2554 131.235 28.8554V31.8854H131.145ZM141.465 29.0054C141.465 29.9354 141.225 30.6554 140.745 31.1954C140.265 31.7054 139.605 31.9754 138.765 31.9754C138.225 31.9754 137.775 31.8554 137.355 31.6154C136.935 31.3754 136.635 31.0154 136.425 30.5654C136.215 30.1154 136.095 29.6054 136.095 29.0054C136.095 28.0754 136.335 27.3554 136.815 26.8454C137.295 26.3354 137.955 26.0654 138.825 26.0654C139.635 26.0654 140.295 26.3354 140.775 26.8754C141.225 27.4154 141.465 28.1054 141.465 29.0054ZM137.325 29.0054C137.325 30.3254 137.805 30.9854 138.795 30.9854C139.755 30.9854 140.235 30.3254 140.235 29.0054C140.235 27.7154 139.755 27.0554 138.795 27.0554C138.285 27.0554 137.925 27.2354 137.685 27.5654C137.445 27.8954 137.325 28.3754 137.325 29.0054ZM147.885 31.8854H146.655V28.3754C146.655 27.9254 146.565 27.5954 146.385 27.3854C146.205 27.1754 145.935 27.0554 145.545 27.0554C145.035 27.0554 144.645 27.2054 144.435 27.5054C144.225 27.8054 144.075 28.3154 144.075 29.0354V31.8854H142.875V26.1854H143.835L144.015 26.9354H144.075C144.255 26.6654 144.495 26.4554 144.795 26.3054C145.095 26.1554 145.455 26.0954 145.845 26.0954C147.225 26.0954 147.885 26.7854 147.885 28.1954V31.8854ZM152.055 31.9754C151.155 31.9754 150.465 31.7054 149.985 31.1954C149.475 30.6854 149.235 29.9654 149.235 29.0654C149.235 28.1354 149.475 27.4154 149.925 26.8754C150.375 26.3354 151.035 26.0654 151.845 26.0654C152.595 26.0654 153.195 26.3054 153.615 26.7554C154.065 27.2054 154.275 27.8354 154.275 28.6454V29.3054H150.465C150.495 29.8454 150.645 30.2954 150.915 30.5654C151.185 30.8654 151.605 31.0154 152.115 31.0154C152.445 31.0154 152.775 30.9854 153.045 30.9254C153.315 30.8654 153.645 30.7454 153.975 30.5954V31.5854C153.675 31.7354 153.375 31.8254 153.075 31.8854C152.775 31.9454 152.445 31.9754 152.055 31.9754ZM151.815 26.9954C151.425 26.9954 151.125 27.1154 150.885 27.3554C150.645 27.5954 150.525 27.9554 150.465 28.4354H153.045C153.045 27.9554 152.925 27.5954 152.715 27.3554C152.505 27.1154 152.205 26.9954 151.815 26.9954ZM154.575 26.1854H155.895L157.065 29.4254C157.245 29.8754 157.365 30.3254 157.425 30.7154H157.455C157.485 30.5354 157.545 30.2954 157.635 30.0254C157.725 29.7554 158.145 28.4654 158.955 26.1854H160.275L157.845 32.6354C157.395 33.8054 156.675 34.4054 155.625 34.4054C155.355 34.4054 155.085 34.3754 154.845 34.3154V33.3554C155.025 33.3854 155.235 33.4154 155.475 33.4154C156.045 33.4154 156.465 33.0854 156.705 32.3954L156.915 31.8554L154.575 26.1854Z" fill="#53599A"/>
</svg>
