<svg width="85" height="83" viewBox="0 0 85 83" fill="none" xmlns="http://www.w3.org/2000/svg">
<path d="M65.144 27.1716C73.4103 40.3853 69.1932 57.9418 55.7039 66.3805C42.2145 74.8192 24.5822 70.9313 16.316 57.7176C8.04974 44.5039 12.2668 26.9474 25.7561 18.5087C39.2455 10.07 56.8778 13.958 65.144 27.1716Z" fill="#E2810E" stroke="#323433" stroke-width="0.744453"/>
<path d="M28.705 16.8474C41.9479 8.43274 60.2761 11.9969 68.8416 25.4943C77.4956 39.1108 72.7706 57.4066 59.2773 65.7176C45.9213 73.9428 27.6573 70.1226 19.2651 56.5085C10.962 43.0102 15.5993 25.1762 28.705 16.8474Z" fill="#F9C13D" stroke="#323433" stroke-width="0.744453" stroke-miterlimit="10"/>
<path d="M48.523 18.9749L26.698 32.7666C23.2764 36.7896 22.7713 42.4211 25.323 46.5001C28.3993 51.4441 35.5504 52.7233 41.3089 49.5639C41.9667 46.7078 42.4118 45.4189 43.0696 42.5628C42.3274 42.9829 40.8751 43.8831 40.1295 44.3329C38.3213 45.4253 39.7248 44.5003 36.9831 46.1628C36.0444 46.7334 32.3355 46.0443 30.6118 43.8864C29.2017 42.1191 29.2107 39.3146 30.6835 36.9204L46.0791 27.0124L48.523 18.9749Z" fill="white" stroke="#323433" stroke-width="0.744453" stroke-miterlimit="10"/>
<path d="M38.6952 62.8437L60.6309 49.2291C64.0849 45.2357 64.6256 39.6124 62.1157 35.5073C59.0792 30.5384 53.6672 27.6978 45.8035 33.2539C45.123 36.1048 44.8479 37.5725 44.1667 40.4265C44.9127 40.0125 46.9947 38.7515 47.7336 38.2865C49.0708 37.45 48.131 37.9216 50.9155 36.332C52.1882 35.605 55.1054 35.909 56.8104 38.0814C58.2019 39.8631 58.9317 41.8927 56.729 44.9787C51.5706 48.239 46.3659 51.5669 41.2068 54.8304L38.6952 62.8437Z" fill="white" stroke="#323433" stroke-width="0.744453" stroke-miterlimit="10"/>
</svg>
