<svg width="60" height="62" viewBox="0 0 60 62" fill="none" xmlns="http://www.w3.org/2000/svg">
<path d="M20.2539 11.7718C19.603 12.276 18.9964 12.8407 18.4402 13.4598C16.1771 15.9687 14.948 19.3079 14.7532 23.4773C14.5112 28.7993 16.0155 33.9156 19.2662 38.8261C22.5169 43.7366 26.5713 47.0053 31.4292 48.632C35.2364 49.9196 38.6565 49.8902 41.6893 48.544C42.3972 48.2524 43.0733 47.8877 43.7087 47.4548L44.4335 46.9297C47.8297 44.3086 49.6526 40.4145 49.9019 35.2475C50.1605 29.9313 48.6615 24.8111 45.405 19.887C42.1485 14.9629 38.0942 11.6942 33.242 10.081C28.5214 8.49368 24.3906 8.91333 20.8498 11.34L20.2539 11.7718Z" fill="#F9C13D" stroke="#323433" stroke-width="0.97592"/>
<path d="M14.5077 41.9885C17.7458 46.8632 21.7622 50.1086 26.5569 51.7247C31.2681 53.3095 35.383 52.8857 38.9016 50.4533L43.2147 47.3377C42.5867 47.7641 41.9182 48.123 41.2182 48.4095C38.2174 49.7305 34.8317 49.7511 31.061 48.4711C26.2556 46.8627 22.2339 43.6211 18.9958 38.7464C15.7577 33.8717 14.2613 28.806 14.5064 23.5493C14.6922 19.4325 15.9007 16.1343 18.1319 13.6548C18.681 13.044 19.2802 12.4873 19.9233 11.9904L15.4988 15.1865C15.416 15.2391 15.3364 15.2966 15.2601 15.3589C11.9816 17.9212 10.2303 21.7261 10.0064 26.7735C9.77707 32.054 11.2775 37.1257 14.5077 41.9885Z" fill="#F37C40" stroke="#323433" stroke-width="0.97592"/>
<path d="M26.9651 19.2414L26.4503 19.5988L24.9752 17.474L21.6152 19.8067L23.0855 21.9246L19.3101 24.5456L21.6526 27.9198L23.2246 26.8285L30.3735 37.126L28.8016 38.2173L31.137 41.5812L34.9123 38.9602L36.3898 41.0883L39.7498 38.7556L38.2795 36.6378L38.7943 36.2804C40.1424 35.3418 41.0632 33.9068 41.3549 32.2902C41.6465 30.6735 41.2852 29.0071 40.3502 27.6564C39.4934 26.3784 38.1736 25.4834 36.6694 25.1605C36.8906 23.6369 36.5127 22.0869 35.6151 20.836C34.6769 19.4865 33.2418 18.5643 31.6245 18.2718C30.0073 17.9793 28.3402 18.3403 26.9889 19.2757L26.9651 19.2414ZM26.5925 24.4852L29.3005 22.6052C29.7556 22.2893 30.3176 22.1671 30.8629 22.2655C31.4081 22.3639 31.892 22.6749 32.208 23.1301C32.5174 23.5752 32.6417 24.123 32.5547 24.658C32.4677 25.193 32.1762 25.6732 31.7418 25.9972L28.9618 27.9272L26.5925 24.4852ZM35.6158 29.0864C35.8893 29.1327 36.1504 29.2341 36.3834 29.3846C36.6164 29.5351 36.8164 29.7314 36.971 29.9616C37.2871 30.4168 37.4093 30.9788 37.3109 31.5241C37.2126 32.0694 36.9016 32.5532 36.4465 32.8692L33.7385 34.7492L31.3317 31.2823L34.0843 29.3714C34.5373 29.0783 35.0877 28.9759 35.6158 29.0864Z" fill="white" stroke="#323433" stroke-width="0.97592" stroke-linecap="round" stroke-linejoin="round"/>
</svg>
