<svg width="80" height="81" viewBox="0 0 80 81" fill="none" xmlns="http://www.w3.org/2000/svg">
<path d="M56.3686 24.5294C65.0615 33.6772 64.6927 48.1399 55.5449 56.8328C46.3971 65.5257 31.9344 65.1569 23.2415 56.0091C14.5486 46.8614 14.9174 32.3986 24.0652 23.7057C33.213 15.0129 47.6757 15.3816 56.3686 24.5294Z" fill="#E9761A" stroke="#323433" stroke-width="0.976218"/>
<path d="M24.6608 57.532L24.6732 57.546C24.7012 57.5777 24.7342 57.6122 24.7759 57.6558L24.7789 57.6589C24.8164 57.698 24.8616 57.7451 24.9035 57.7925C25.0204 57.9214 25.1451 58.0406 25.2799 58.1694C25.3275 58.2149 25.3765 58.2617 25.4268 58.3105C34.1898 66.6942 48.0789 66.7886 56.9509 58.3525L24.6608 57.532ZM24.6608 57.532L24.6473 57.5189M24.6608 57.532L24.6473 57.5189M24.6473 57.5189C24.4637 57.3406 24.2878 57.1402 24.1051 56.9319C24.0684 56.8901 24.0314 56.848 23.9941 56.8057C15.9967 47.6339 16.5797 33.7081 25.4693 25.2187C28.9949 21.8565 33.3275 19.8559 37.8135 19.1805C42.0355 18.5553 46.3958 19.118 50.3648 20.8533L50.3655 20.8536C51.6553 21.4151 52.8877 22.0916 54.0582 22.9002C54.8569 23.4598 55.6217 24.0447 56.3446 24.6898C56.4657 24.8071 56.5874 24.9195 56.7042 25.0272L56.7063 25.0292C56.8275 25.1411 56.9435 25.2482 57.0575 25.3589L57.0574 25.359L57.0659 25.3669C57.3165 25.5989 57.5457 25.8216 57.7677 26.0593L57.7694 26.0611M24.6473 57.5189L57.7694 26.0611M57.7694 26.0611C58.411 26.7407 58.9911 27.4399 59.5448 28.1711M57.7694 26.0611L59.5448 28.1711M59.5448 28.1711C66.3686 37.3137 65.4151 50.3012 56.951 58.3524L59.5448 28.1711Z" fill="#F9C13D" stroke="#323433" stroke-width="0.976218"/>
<path d="M55.011 36.7356L37.0631 31.0442L31.5271 33.9802L49.8683 39.7963L55.011 36.7356Z" fill="white" stroke="#323433" stroke-width="0.976218"/>
<path d="M49.1248 42.1404L30.8623 36.3493L33.3026 41.5376L51.6438 47.3537L49.1248 42.1404Z" fill="white" stroke="#323433" stroke-width="0.976218"/>
<path d="M32.9823 44.1885L27.7729 46.9683L45.705 52.6547L50.5212 49.7502L32.9823 44.1885Z" fill="white" stroke="#323433" stroke-width="0.976218"/>
</svg>
