<svg width="66" height="65" viewBox="0 0 66 65" fill="none" xmlns="http://www.w3.org/2000/svg">
<circle cx="34.1261" cy="32.3438" r="27.9611" transform="rotate(6.88901 34.1261 32.3438)" fill="#E9761A" stroke="#323433" stroke-width="1.14949"/>
<circle cx="31.2375" cy="32.9337" r="27.9611" transform="rotate(6.88901 31.2375 32.9337)" fill="#F9C13D" stroke="#323433" stroke-width="1.14949"/>
<mask id="path-3-inside-1_633_839" fill="white">
<path d="M32.782 15.3502C33.6403 15.0273 34.5082 16.1217 33.9818 16.8753C33.6533 17.5018 32.6875 17.5623 32.2654 17.0035C31.8122 16.4614 32.0936 15.5321 32.782 15.3502ZM23.984 15.2356C24.4989 15.0933 25.0656 15.617 24.9511 16.1448C24.9332 16.7305 24.172 17.0713 23.7053 16.7355C23.0738 16.3993 23.2793 15.3348 23.984 15.2356ZM41.5875 18.9125C40.8322 18.7274 40.8562 17.5094 41.6235 17.3563C42.2296 17.1467 42.6916 17.7329 42.7098 18.2847C42.5339 18.7328 42.0948 19.1095 41.5875 18.9125ZM25.5143 19.1652C26.3969 18.7464 27.4739 19.6591 27.2328 20.5949C27.0742 21.55 25.7296 21.952 25.0872 21.2157C24.452 20.6216 24.6989 19.4645 25.5143 19.1652ZM37.9667 21.2272C38.4463 20.33 39.9323 20.4806 40.238 21.4474C40.5634 22.2103 39.9504 23.0323 39.1878 23.1862C38.1945 23.2499 37.3985 22.0899 37.9667 21.2272ZM30.9017 22.1309C30.9915 21.3207 31.8025 20.8069 32.5794 20.8449C33.0779 21.0089 33.6085 21.2935 33.7655 21.8347C34.0881 22.5941 33.6073 23.528 32.8299 23.7647C32.4696 23.9128 32.0792 23.7937 31.7143 23.7273C31.1857 23.384 30.7779 22.7868 30.9017 22.1309ZM17.8432 21.7495C18.6479 21.3802 19.5572 22.3414 19.1754 23.1197C18.9343 23.8037 17.9536 23.9753 17.4669 23.4612C16.9403 22.9711 17.1539 21.9713 17.8432 21.7495ZM45.5788 25.0989C46.2739 24.683 47.2544 25.3749 47.0818 26.167C47.0362 26.9028 46.0628 27.3442 45.4774 26.8918C44.8202 26.496 44.8782 25.42 45.5788 25.0989ZM34.2159 25.202C35.3102 24.9525 36.5015 25.5532 36.9865 26.5591C37.6372 27.7958 37.0076 29.4833 35.7047 29.9904C34.3432 30.6118 32.571 29.7315 32.2735 28.2611C31.8948 26.9312 32.8607 25.4408 34.2159 25.202ZM28.0471 24.583C29.2757 24.1756 30.7845 24.8242 31.2025 26.0793C31.7237 27.3147 31.0184 28.8621 29.765 29.3161C28.5012 29.8439 26.894 29.1338 26.4715 27.824C25.9746 26.5466 26.7414 24.9858 28.0471 24.583ZM21.6313 25.9419C21.81 25.2048 22.5753 24.8035 23.2942 24.8393C24.051 25.0246 24.5926 25.6943 24.5823 26.4805C24.4391 27.2427 23.7538 27.9218 22.9389 27.8186C22.0325 27.7874 21.3536 26.8012 21.6313 25.9419ZM39.9665 27.0186C40.9522 26.5946 42.137 27.5284 41.9684 28.5799C41.8963 29.7069 40.3856 30.3247 39.5478 29.5573C38.6611 28.8955 38.9214 27.3647 39.9665 27.0186ZM24.9476 29.2068C26.0605 29.041 27.231 29.6968 27.6398 30.7492C28.0983 31.8142 27.6947 33.168 26.7078 33.7892C25.4257 34.7205 23.3516 34.0338 22.9146 32.4987C22.3713 31.0742 23.4446 29.3829 24.9476 29.2068ZM36.6202 30.6114C37.7035 30.4389 38.885 30.9905 39.3329 32.0111C39.9455 33.1904 39.3939 34.7723 38.201 35.3407C36.9417 36.0159 35.1955 35.3705 34.7108 34.0183C34.0959 32.6058 35.1002 30.8359 36.6202 30.6114ZM17.8699 29.6071C18.8428 29.3681 19.7504 30.5179 19.2621 31.3935C18.9305 32.2048 17.7086 32.3719 17.1714 31.6793C16.5257 31.0118 16.9469 29.7512 17.8699 29.6071ZM42.9291 33.9909C42.9952 33.2179 43.6417 32.6043 44.4374 32.6572C45.0625 32.835 45.6201 33.4232 45.486 34.1097C45.4338 35.0316 44.2547 35.52 43.526 34.9959C43.1826 34.766 43.0402 34.3686 42.9291 33.9909ZM13.2402 29.5062C13.8294 29.3299 14.4634 29.8979 14.2605 30.5032C14.1456 31.2024 13.0738 31.3471 12.7629 30.7137C12.4749 30.2651 12.7528 29.6607 13.2402 29.5062ZM48.5384 33.7566C48.9665 33.524 49.5746 33.8018 49.6752 34.2805C49.8794 34.8147 49.3106 35.444 48.7547 35.2908C47.9513 35.2671 47.8403 34.0267 48.5384 33.7566ZM27.3782 34.6231C28.8974 34.4186 30.3327 35.8363 30.159 37.3519C30.0702 38.8939 28.3467 40.0625 26.8815 39.5268C25.7386 39.1986 24.9595 37.9671 25.1394 36.7957C25.2721 35.6706 26.2485 34.728 27.3782 34.6231ZM33.2122 35.3248C34.7577 35.0881 36.2375 36.5336 36.0266 38.0801C35.9241 39.5917 34.2548 40.7205 32.8144 40.2442C31.4468 39.8969 30.6058 38.249 31.1563 36.9498C31.4605 36.0764 32.2992 35.4376 33.2122 35.3248ZM21.8518 34.898C22.9077 34.8468 23.7384 36.1164 23.2003 37.0465C22.768 38.0548 21.2103 38.1543 20.6399 37.2191C19.949 36.3037 20.7199 34.8761 21.8518 34.898ZM38.9543 37.0111C39.9234 36.7367 40.9595 37.6703 40.7678 38.6614C40.6719 39.7664 39.1822 40.3564 38.3577 39.605C37.4056 38.9049 37.7966 37.2302 38.9543 37.0111ZM43.1576 42.3777C42.8776 41.6617 43.6414 40.8499 44.374 41.0647C44.7469 41.1034 44.9718 41.4276 45.1803 41.702C45.1811 42.1063 45.2057 42.5916 44.8374 42.8586C44.319 43.3726 43.3197 43.0873 43.1576 42.3777ZM15.8991 37.8143C16.6539 37.4343 17.5757 38.2484 17.3201 39.0451C17.1494 39.7564 16.1895 40.0587 15.6395 39.577C15.0411 39.1276 15.1926 38.0726 15.8991 37.8143ZM29.5209 40.9921C30.4843 40.6996 31.5536 41.6355 31.3454 42.631C31.2789 43.7508 29.7445 44.3465 28.9308 43.5709C28.0066 42.8777 28.3759 41.2115 29.5209 40.9921ZM22.9473 41.7089C23.7759 41.3937 24.736 42.227 24.5599 43.089C24.4972 43.8067 23.7249 44.3315 23.0311 44.1406C22.4475 44.0573 22.1291 43.4874 22.0017 42.9666C22.0769 42.4249 22.3737 41.8474 22.9473 41.7089ZM35.8968 43.2862C36.7577 42.8886 37.8106 43.7362 37.6224 44.6582C37.5254 45.6337 36.1632 46.1015 35.4944 45.3722C34.8327 44.7839 35.0664 43.5901 35.8968 43.2862ZM37.4773 49.1176C37.186 48.5361 37.6839 47.9382 38.2774 47.8853C38.7314 48.036 39.1811 48.4448 39.0183 48.9716C38.8624 49.6923 37.7676 49.7869 37.4773 49.1176ZM19.6559 46.49C19.8494 46.0805 20.2444 45.6979 20.7341 45.8697C21.4612 46.0103 21.5455 47.1402 20.8626 47.4028C20.2384 47.7216 19.6331 47.1086 19.6559 46.49ZM28.2218 48.0217C28.4385 47.4074 29.294 47.1992 29.7929 47.5997C30.1309 47.7956 30.1869 48.2064 30.2375 48.5559C30.1673 48.7262 30.1022 48.8974 30.038 49.0685C29.7856 49.3032 29.4702 49.5302 29.1038 49.4764C28.4112 49.4738 27.8882 48.6284 28.2218 48.0217Z"/>
</mask>
<path d="M32.782 15.3502C33.6403 15.0273 34.5082 16.1217 33.9818 16.8753C33.6533 17.5018 32.6875 17.5623 32.2654 17.0035C31.8122 16.4614 32.0936 15.5321 32.782 15.3502ZM23.984 15.2356C24.4989 15.0933 25.0656 15.617 24.9511 16.1448C24.9332 16.7305 24.172 17.0713 23.7053 16.7355C23.0738 16.3993 23.2793 15.3348 23.984 15.2356ZM41.5875 18.9125C40.8322 18.7274 40.8562 17.5094 41.6235 17.3563C42.2296 17.1467 42.6916 17.7329 42.7098 18.2847C42.5339 18.7328 42.0948 19.1095 41.5875 18.9125ZM25.5143 19.1652C26.3969 18.7464 27.4739 19.6591 27.2328 20.5949C27.0742 21.55 25.7296 21.952 25.0872 21.2157C24.452 20.6216 24.6989 19.4645 25.5143 19.1652ZM37.9667 21.2272C38.4463 20.33 39.9323 20.4806 40.238 21.4474C40.5634 22.2103 39.9504 23.0323 39.1878 23.1862C38.1945 23.2499 37.3985 22.0899 37.9667 21.2272ZM30.9017 22.1309C30.9915 21.3207 31.8025 20.8069 32.5794 20.8449C33.0779 21.0089 33.6085 21.2935 33.7655 21.8347C34.0881 22.5941 33.6073 23.528 32.8299 23.7647C32.4696 23.9128 32.0792 23.7937 31.7143 23.7273C31.1857 23.384 30.7779 22.7868 30.9017 22.1309ZM17.8432 21.7495C18.6479 21.3802 19.5572 22.3414 19.1754 23.1197C18.9343 23.8037 17.9536 23.9753 17.4669 23.4612C16.9403 22.9711 17.1539 21.9713 17.8432 21.7495ZM45.5788 25.0989C46.2739 24.683 47.2544 25.3749 47.0818 26.167C47.0362 26.9028 46.0628 27.3442 45.4774 26.8918C44.8202 26.496 44.8782 25.42 45.5788 25.0989ZM34.2159 25.202C35.3102 24.9525 36.5015 25.5532 36.9865 26.5591C37.6372 27.7958 37.0076 29.4833 35.7047 29.9904C34.3432 30.6118 32.571 29.7315 32.2735 28.2611C31.8948 26.9312 32.8607 25.4408 34.2159 25.202ZM28.0471 24.583C29.2757 24.1756 30.7845 24.8242 31.2025 26.0793C31.7237 27.3147 31.0184 28.8621 29.765 29.3161C28.5012 29.8439 26.894 29.1338 26.4715 27.824C25.9746 26.5466 26.7414 24.9858 28.0471 24.583ZM21.6313 25.9419C21.81 25.2048 22.5753 24.8035 23.2942 24.8393C24.051 25.0246 24.5926 25.6943 24.5823 26.4805C24.4391 27.2427 23.7538 27.9218 22.9389 27.8186C22.0325 27.7874 21.3536 26.8012 21.6313 25.9419ZM39.9665 27.0186C40.9522 26.5946 42.137 27.5284 41.9684 28.5799C41.8963 29.7069 40.3856 30.3247 39.5478 29.5573C38.6611 28.8955 38.9214 27.3647 39.9665 27.0186ZM24.9476 29.2068C26.0605 29.041 27.231 29.6968 27.6398 30.7492C28.0983 31.8142 27.6947 33.168 26.7078 33.7892C25.4257 34.7205 23.3516 34.0338 22.9146 32.4987C22.3713 31.0742 23.4446 29.3829 24.9476 29.2068ZM36.6202 30.6114C37.7035 30.4389 38.885 30.9905 39.3329 32.0111C39.9455 33.1904 39.3939 34.7723 38.201 35.3407C36.9417 36.0159 35.1955 35.3705 34.7108 34.0183C34.0959 32.6058 35.1002 30.8359 36.6202 30.6114ZM17.8699 29.6071C18.8428 29.3681 19.7504 30.5179 19.2621 31.3935C18.9305 32.2048 17.7086 32.3719 17.1714 31.6793C16.5257 31.0118 16.9469 29.7512 17.8699 29.6071ZM42.9291 33.9909C42.9952 33.2179 43.6417 32.6043 44.4374 32.6572C45.0625 32.835 45.6201 33.4232 45.486 34.1097C45.4338 35.0316 44.2547 35.52 43.526 34.9959C43.1826 34.766 43.0402 34.3686 42.9291 33.9909ZM13.2402 29.5062C13.8294 29.3299 14.4634 29.8979 14.2605 30.5032C14.1456 31.2024 13.0738 31.3471 12.7629 30.7137C12.4749 30.2651 12.7528 29.6607 13.2402 29.5062ZM48.5384 33.7566C48.9665 33.524 49.5746 33.8018 49.6752 34.2805C49.8794 34.8147 49.3106 35.444 48.7547 35.2908C47.9513 35.2671 47.8403 34.0267 48.5384 33.7566ZM27.3782 34.6231C28.8974 34.4186 30.3327 35.8363 30.159 37.3519C30.0702 38.8939 28.3467 40.0625 26.8815 39.5268C25.7386 39.1986 24.9595 37.9671 25.1394 36.7957C25.2721 35.6706 26.2485 34.728 27.3782 34.6231ZM33.2122 35.3248C34.7577 35.0881 36.2375 36.5336 36.0266 38.0801C35.9241 39.5917 34.2548 40.7205 32.8144 40.2442C31.4468 39.8969 30.6058 38.249 31.1563 36.9498C31.4605 36.0764 32.2992 35.4376 33.2122 35.3248ZM21.8518 34.898C22.9077 34.8468 23.7384 36.1164 23.2003 37.0465C22.768 38.0548 21.2103 38.1543 20.6399 37.2191C19.949 36.3037 20.7199 34.8761 21.8518 34.898ZM38.9543 37.0111C39.9234 36.7367 40.9595 37.6703 40.7678 38.6614C40.6719 39.7664 39.1822 40.3564 38.3577 39.605C37.4056 38.9049 37.7966 37.2302 38.9543 37.0111ZM43.1576 42.3777C42.8776 41.6617 43.6414 40.8499 44.374 41.0647C44.7469 41.1034 44.9718 41.4276 45.1803 41.702C45.1811 42.1063 45.2057 42.5916 44.8374 42.8586C44.319 43.3726 43.3197 43.0873 43.1576 42.3777ZM15.8991 37.8143C16.6539 37.4343 17.5757 38.2484 17.3201 39.0451C17.1494 39.7564 16.1895 40.0587 15.6395 39.577C15.0411 39.1276 15.1926 38.0726 15.8991 37.8143ZM29.5209 40.9921C30.4843 40.6996 31.5536 41.6355 31.3454 42.631C31.2789 43.7508 29.7445 44.3465 28.9308 43.5709C28.0066 42.8777 28.3759 41.2115 29.5209 40.9921ZM22.9473 41.7089C23.7759 41.3937 24.736 42.227 24.5599 43.089C24.4972 43.8067 23.7249 44.3315 23.0311 44.1406C22.4475 44.0573 22.1291 43.4874 22.0017 42.9666C22.0769 42.4249 22.3737 41.8474 22.9473 41.7089ZM35.8968 43.2862C36.7577 42.8886 37.8106 43.7362 37.6224 44.6582C37.5254 45.6337 36.1632 46.1015 35.4944 45.3722C34.8327 44.7839 35.0664 43.5901 35.8968 43.2862ZM37.4773 49.1176C37.186 48.5361 37.6839 47.9382 38.2774 47.8853C38.7314 48.036 39.1811 48.4448 39.0183 48.9716C38.8624 49.6923 37.7676 49.7869 37.4773 49.1176ZM19.6559 46.49C19.8494 46.0805 20.2444 45.6979 20.7341 45.8697C21.4612 46.0103 21.5455 47.1402 20.8626 47.4028C20.2384 47.7216 19.6331 47.1086 19.6559 46.49ZM28.2218 48.0217C28.4385 47.4074 29.294 47.1992 29.7929 47.5997C30.1309 47.7956 30.1869 48.2064 30.2375 48.5559C30.1673 48.7262 30.1022 48.8974 30.038 49.0685C29.7856 49.3032 29.4702 49.5302 29.1038 49.4764C28.4112 49.4738 27.8882 48.6284 28.2218 48.0217Z" fill="#FBFFFF" stroke="#323433" stroke-width="2.29898" mask="url(#path-3-inside-1_633_839)"/>
<circle cx="31.1662" cy="32.5512" r="24.8399" transform="rotate(6.88901 31.1662 32.5512)" stroke="#323433" stroke-width="1.14949"/>
</svg>
