<svg width="325" height="325" viewBox="0 0 325 325" fill="none" xmlns="http://www.w3.org/2000/svg">
<ellipse cx="149" cy="315.5" rx="136" ry="9.5" fill="#3E48B5"/>
<path d="M21.2977 264.641C18.5827 264.149 16.9457 261.657 17.6988 258.926C25.1038 232.072 65.2768 100.958 153.495 61.0328C205.543 37.4775 231.639 24.6906 244.677 17.8696C249.127 15.5412 256.403 19.8233 255.624 24.6111C250.346 57.0327 232.111 137.867 176.492 190.109C110.322 252.261 47.3791 266.018 39.269 267.578C38.673 267.693 38.0937 267.686 37.5158 267.581L21.2977 264.641Z" fill="#00B07A"/>
<path d="M56.3287 274.438C56.3287 274.438 93.2705 191.529 170.722 180.006C248.173 168.482 288.112 189.585 288.112 189.585C288.112 189.585 234.183 288.957 174.853 292.204C107.982 295.89 56.3287 274.438 56.3287 274.438Z" fill="#004357"/>
<path d="M50.6733 271.789C50.9889 271.803 51.357 271.712 51.6513 271.51C51.9405 271.336 79.8747 253.329 120.791 235.837C158.51 219.704 215.32 200.711 271.681 201.756C272.412 201.761 273.111 201.283 273.205 200.644C273.294 200.032 272.794 199.501 272.031 199.495C246.851 199.01 219.503 202.42 190.775 209.6C167.805 215.344 143.881 223.51 119.716 233.862C78.5527 251.477 50.403 269.608 50.1454 269.784C49.5251 270.186 49.3522 270.901 49.7682 271.374C49.9999 271.652 50.3261 271.774 50.6733 271.789Z" fill="white"/>
<path d="M35.1936 259.45C35.7313 259.471 36.3273 259.177 36.6073 258.697C36.845 258.273 62.5952 214.467 102.958 161.763C125.761 132.004 155.28 111.591 183.849 91.8328C205.881 76.5835 226.705 62.1819 241.775 44.9486C242.261 44.3899 242.209 43.6362 241.64 43.2665C241.071 42.8969 240.217 43.0362 239.732 43.5949C224.941 60.5215 204.259 74.842 182.38 89.9529C153.626 109.848 123.886 130.426 100.793 160.549C60.3086 213.392 34.5055 257.312 34.2308 257.763C33.8611 258.385 34.1133 259.088 34.7667 259.346C34.8826 259.408 35.0354 259.443 35.1936 259.45Z" fill="#323433"/>
<path d="M234.767 237.134C235.238 237.158 235.714 237 236.035 236.652C236.513 236.156 236.424 235.476 235.855 235.136C217.903 224.624 199.607 219.943 187.405 217.878C174.158 215.631 165.286 215.863 164.904 215.87C164.171 215.885 163.531 216.399 163.478 216.994C163.425 217.589 164 218.059 164.734 218.044C164.828 218.049 173.737 217.792 186.7 220.025C198.656 222.052 216.558 226.636 234.136 236.947C234.305 237.059 234.546 237.123 234.767 237.134Z" fill="white"/>
<path d="M196.605 268.683C196.952 268.699 197.32 268.608 197.62 268.38C198.213 267.952 198.354 267.236 197.902 266.788C197.665 266.537 191.673 260.443 179.752 253.42C168.748 246.918 150.405 238.409 125.514 234.694C124.804 234.582 124.052 235.004 123.838 235.61C123.623 236.215 124.049 236.796 124.759 236.907C149.213 240.576 167.204 248.936 178.014 255.296C189.708 262.175 195.668 268.268 195.721 268.324C195.963 268.548 196.289 268.67 196.605 268.683Z" fill="white"/>
<path d="M160.692 114.656C162.605 114.76 164.648 114.847 166.827 114.889C179.49 115.122 199.152 114.053 220.951 107.643C221.658 107.427 222.092 106.813 221.881 106.266C221.669 105.718 220.934 105.423 220.226 105.64C198.86 111.946 179.552 112.983 167.14 112.764C153.689 112.514 145.25 110.752 145.155 110.747C144.454 110.606 143.691 110.947 143.423 111.519C143.186 112.093 143.549 112.674 144.246 112.84C144.56 112.857 150.594 114.104 160.692 114.656Z" fill="#323433"/>
<path d="M136.89 160.233C149.267 160.982 166.674 160.86 189.172 158.021C189.919 157.916 190.458 157.398 190.377 156.819C190.296 156.239 189.673 155.851 188.926 155.956C160.241 159.596 139.955 158.718 128.011 157.346C115.076 155.863 108.82 153.485 108.762 153.456C108.111 153.217 107.315 153.419 106.932 153.945C106.58 154.474 106.782 155.086 107.428 155.35C107.695 155.442 113.973 157.872 127.247 159.4C130.001 159.716 133.233 160.012 136.89 160.233Z" fill="#323433"/>
</svg>
