<svg width="305" height="359" viewBox="0 0 305 359" fill="none" xmlns="http://www.w3.org/2000/svg">
<path d="M46.3824 330.217C43.1657 330.416 40.5129 328.079 40.4777 324.812C40.1529 294.651 42.9067 154.004 119.942 92.2606C164.01 56.9402 186.647 37.6716 198.252 27.2656C202.52 23.4386 212.118 26.2557 212.771 31.8415C216.872 66.8851 221.267 151.192 180.947 216.596C132.384 295.369 73.0106 324.944 64.9159 328.707C64.2817 329.002 63.6354 329.15 62.9496 329.192L46.3824 330.217Z" fill="#00B07A"/>
<path d="M86.4053 331.104C83.303 330.775 81.2695 327.992 81.8857 324.84C85.9098 304.252 104.213 232.411 167.209 206.193C226.313 181.595 267.617 184.154 281.771 186.161C284.841 186.597 286.627 189.509 285.85 192.615C280.1 215.628 254.963 303.903 204.408 319.416C150.764 335.902 102.313 332.79 86.4053 331.104Z" fill="#004357"/>
<path d="M75.4629 331.144C75.785 331.076 76.1235 330.887 76.3496 330.603C76.5797 330.348 98.4171 304.547 133.486 275.892C165.813 249.469 216.342 215.129 273.374 201.518C274.111 201.333 274.648 200.659 274.521 199.977C274.398 199.325 273.711 198.909 272.941 199.101C247.456 205.163 221.141 215.797 194.748 230.668C173.646 242.562 152.424 257.196 131.72 274.14C96.4451 302.986 74.4341 328.971 74.2363 329.219C73.7519 329.794 73.8264 330.575 74.409 330.954C74.7384 331.179 75.1085 331.219 75.4629 331.144Z" fill="white"/>
<path d="M58.7796 323.427C59.35 323.302 59.8753 322.845 60.007 322.287C60.1133 321.797 72.3492 270.827 96.8975 206.952C110.771 170.881 134.822 142.361 158.098 114.758C176.045 93.4576 193.011 73.3373 203 51.9412C203.32 51.2483 203.012 50.506 202.292 50.2899C201.572 50.0739 200.724 50.4461 200.404 51.139C190.605 72.1511 173.761 92.1514 155.928 113.271C132.504 141.062 108.277 169.808 94.2213 206.323C69.5929 270.372 57.3399 321.469 57.2041 321.997C57.0258 322.721 57.5267 323.359 58.2976 323.439C58.44 323.47 58.6118 323.464 58.7796 323.427Z" fill="#323433"/>
<path d="M248.844 248.56C249.323 248.463 249.743 248.176 249.943 247.731C250.246 247.092 249.92 246.407 249.233 246.2C227.648 239.891 207.753 239.737 194.853 240.735C180.848 241.812 172.073 244.342 171.694 244.448C170.968 244.653 170.508 245.352 170.663 245.985C170.818 246.618 171.556 246.959 172.283 246.754C172.379 246.735 181.181 244.171 194.899 243.151C207.539 242.177 227.007 242.331 248.15 248.528C248.357 248.601 248.621 248.606 248.844 248.56Z" fill="white"/>
<path d="M219.509 289.405C219.864 289.331 220.202 289.141 220.424 288.829C220.872 288.234 220.765 287.46 220.155 287.117C219.829 286.92 211.691 282.21 197.271 278.087C183.953 274.263 162.562 270.284 136.254 272.943C135.502 273.014 134.893 273.643 134.887 274.323C134.881 275.002 135.512 275.488 136.264 275.418C162.117 272.824 183.102 276.742 196.175 280.47C210.317 284.504 218.424 289.222 218.496 289.265C218.817 289.433 219.187 289.473 219.509 289.405Z" fill="white"/>
<path d="M144.147 145.271C146.087 144.891 148.149 144.458 150.331 143.944C163.007 140.944 182.191 134.784 201.63 122.467C202.258 122.059 202.476 121.302 202.074 120.782C201.672 120.262 200.837 120.14 200.209 120.549C181.163 132.645 162.321 138.681 149.899 141.632C136.432 144.816 127.421 145.128 127.326 145.147C126.579 145.179 125.939 145.733 125.873 146.402C125.837 147.065 126.402 147.582 127.154 147.577C127.472 147.515 133.91 147.279 144.147 145.271Z" fill="#323433"/>
<path d="M131.548 196.375C144.083 194.022 161.301 189.461 182.615 180.71C183.318 180.409 183.671 179.72 183.388 179.123C183.104 178.526 182.35 178.271 181.647 178.573C154.479 189.752 134.056 193.981 121.731 195.559C108.385 197.272 101.347 196.33 101.28 196.315C100.551 196.225 99.8321 196.643 99.6371 197.302C99.4737 197.955 99.8883 198.556 100.621 198.672C100.919 198.702 107.996 199.692 121.694 197.941C124.536 197.578 127.844 197.07 131.548 196.375Z" fill="#323433"/>
</svg>
