<svg width="121" height="50" viewBox="0 0 121 50" fill="none" xmlns="http://www.w3.org/2000/svg">
<g clip-path="url(#clip0)">
<path d="M119.21 48.6207V47.3276H2.7563V2.67241H117.832V48.6207H119.21V47.3276V48.6207H120.588V0H0V50H120.588V48.6207H119.21Z" fill="#53599A"/>
<path d="M14.5565 26.7241L17.7435 34.8276H17.8296L20.8444 26.7241H24.462L25.0649 28.1897L24.5481 28.2759C24.2036 28.2759 23.9452 28.5345 24.0313 28.8793L24.6343 38.1035L25.6679 38.1897L26.2708 39.7414H21.3612V38.2759L21.9641 38.1897C22.3948 38.1897 22.3948 38.0173 22.3948 37.5L21.7918 30.1724L18.6049 37.6724L16.796 38.2759L13.7813 30.1724L13.3507 38.0173L14.3843 38.1035V39.6552H9.47461L10.0776 38.1897L10.6805 38.1035C11.025 38.0173 11.1973 37.931 11.1973 37.4138L11.8002 28.2759L10.7666 28.1897L11.3696 26.6379H14.5565V26.7241Z" fill="#53599A"/>
<path d="M27.0469 39.6552L27.6498 38.1896L28.0805 38.1034C28.5112 38.0172 28.5973 37.8448 28.7696 37.5L31.8704 28.3621L30.8368 28.2758L31.4397 26.7241H35.1435L39.1918 38.1034L39.8809 38.1896L40.4838 39.6552H35.5742V38.1896L36.1771 38.1034C36.5217 38.1034 36.6939 37.8448 36.5217 37.5L36.0049 35.9483H31.5259L30.8368 38.0172L31.8704 38.1034V39.6552H27.0469ZM31.9565 34.3103H35.5742L33.7654 28.7931H33.6792L31.9565 34.3103Z" fill="#53599A"/>
<path d="M48.7527 37.5863V34.4828L47.8052 34.3966L47.2023 32.8449H52.2842L52.0258 34.3104L51.509 34.3966C51.1645 34.4828 50.9922 34.569 50.9922 35.0001V38.707C49.8724 39.4828 48.322 39.9138 46.5993 39.9138C42.8094 39.9138 40.7422 37.7587 40.7422 33.1897C40.7422 28.1897 43.6708 26.4656 47.03 26.4656C48.5804 26.4656 50.0447 26.8104 50.906 27.2414V28.9656L49.0972 29.6552V29.0518C49.0972 28.707 49.0972 28.5345 48.7527 28.4483C48.4082 28.3621 47.7191 28.2759 47.2023 28.2759C44.446 28.2759 43.2401 30.0863 43.2401 32.9311C43.2401 36.0345 44.2737 37.8449 46.6855 37.8449C47.3745 38.0173 48.2359 37.8449 48.7527 37.5863Z" fill="#53599A"/>
<path d="M65.1184 39.0517L62.8789 39.6552L57.194 30.2586V38.1035L58.2276 38.1897V39.6552H53.4902L54.0932 38.1897L54.4377 38.1035C54.7823 38.0172 54.8684 37.931 54.8684 37.5862V28.2759L53.5764 28.1897L54.1793 26.6379H57.3663L62.8789 35.9483V28.2759L61.8453 28.1897V26.7241H66.4966L65.8936 28.1897L65.5491 28.2759C65.2045 28.3621 65.0323 28.4483 65.0323 28.8793V39.0517H65.1184Z" fill="#53599A"/>
<path d="M66.582 39.6552L67.185 38.1896L67.3572 38.1034C67.7879 38.0172 67.874 37.8448 68.0463 37.5L71.2333 28.3621L70.1997 28.2758L70.8026 26.7241H74.5064L78.3824 38.0172L79.0715 38.1034L79.6745 39.6552H74.7648V38.1896L75.3677 38.1034C75.7123 38.1034 75.8845 37.8448 75.7123 37.5L75.1955 35.9483H70.7165L70.0274 38.0172L71.061 38.1034V39.6552H66.582ZM71.1472 34.3103H74.7648L72.956 28.7931H72.8698L71.1472 34.3103Z" fill="#53599A"/>
<path d="M83.119 28.4483H81.3102C80.8795 28.4483 80.7934 28.6207 80.7934 28.9655V29.6552L78.8984 29.0517V26.7241H89.5791V29.0517L87.6842 29.6552V28.9655C87.6842 28.6207 87.598 28.4483 87.1674 28.4483H85.4447V38.1034L86.5644 38.1896L87.1674 39.7414H81.3963L81.9993 38.2758L82.6022 38.1896C83.0329 38.1896 83.119 38.0172 83.119 37.5862V28.4483Z" fill="#53599A"/>
<path d="M91.6461 38.1897L91.8184 38.1035C92.3352 38.0172 92.4213 37.931 92.4213 37.4138V28.2759L91.6461 28.1897L91.0432 26.6379H100.173V28.9655L98.2784 29.569V28.6207C98.2784 28.2759 98.1923 28.3621 97.7616 28.3621H94.7469V32.069H99.3982V33.8793H94.7469V37.931H98.02C98.4507 37.931 98.4507 37.7586 98.4507 37.4138V37.2414L100.346 36.7241V39.6552H90.957L91.6461 38.1897Z" fill="#53599A"/>
<path d="M108.616 36.1207C108.616 34.9138 107.582 34.3965 106.204 33.9655C104.395 33.4482 102.5 32.6724 102.587 30.1724C102.673 27.7586 104.481 26.3793 107.238 26.4655C108.444 26.4655 109.908 26.7241 110.855 27.2413V29.1379L108.96 29.7413V29.1379C108.96 28.7931 108.96 28.6207 108.616 28.5344C108.358 28.4482 107.668 28.362 107.238 28.362C106.204 28.362 105.171 28.7069 105.084 30C105.084 31.2069 106.118 31.6379 107.582 32.1551C109.391 32.7586 111.2 33.4482 111.114 36.0345C111.028 38.6207 109.305 40 106.204 39.9138C104.826 39.9138 103.448 39.6551 102.328 39.1379V37.2413L104.223 36.6379V37.2413C104.223 37.5862 104.309 37.7586 104.568 37.8448C104.912 37.931 105.515 38.0172 106.118 38.0172C107.496 38.0172 108.616 37.5862 108.616 36.1207Z" fill="#53599A"/>
<path d="M11.1113 10.3447H19.5525V11.2068H12.0588V15.9482H18.2605V16.8102H12.0588V23.0171H11.1113V10.3447Z" fill="#53599A"/>
<path d="M26.7873 10.3447H25.8398V23.0171H26.7873V10.3447Z" fill="#53599A"/>
<path d="M33.9375 10.3447H34.7988L43.3262 21.4654V10.3447H44.1875V23.0171H43.4123L34.885 11.8965V23.0171H33.9375V10.3447Z" fill="#53599A"/>
<path d="M55.8157 10.2585H56.6771L62.3619 23.0172H61.4145L59.7779 19.3103H52.7149L51.0783 23.0172H50.1309L55.8157 10.2585ZM59.4334 18.5344L56.2464 11.4654L53.0594 18.5344H59.4334Z" fill="#53599A"/>
<path d="M68.2188 10.3447H68.994L77.5213 21.4654V10.3447H78.4688V23.0171H77.6935L69.0801 11.8965V23.0171H68.2188V10.3447Z" fill="#53599A"/>
<path d="M85.0137 16.6379C85.0137 12.8448 87.77 10.0862 91.3876 10.0862C92.7658 10.0862 93.9717 10.431 95.0053 11.1207V12.0689C93.9717 11.3793 92.7658 10.9483 91.3876 10.9483C88.2868 10.9483 85.875 13.362 85.875 16.6379C85.875 19.9138 88.2868 22.3276 91.3876 22.3276C92.938 22.3276 94.2301 21.8965 95.2637 21.0345V22.0689C94.2301 22.8448 92.938 23.2758 91.3876 23.2758C87.8561 23.1896 85.0137 20.5172 85.0137 16.6379Z" fill="#53599A"/>
<path d="M101.467 10.3447H109.994V11.2068H102.414V15.7758H108.702V16.6378H102.414V22.1551H110.253V23.0171H101.467V10.3447Z" fill="#53599A"/>
</g>
<defs>
<clipPath id="clip0">
<rect width="120.588" height="50" fill="white"/>
</clipPath>
</defs>
</svg>
