<svg width="966" height="788" viewBox="0 0 966 788" fill="none" xmlns="http://www.w3.org/2000/svg">
<g clip-path="url(#clip0_249_365)">
<path d="M202.952 270.87L199.901 271.39L197.14 255.18L176.906 258.628L173.88 240.867L154.074 244.241L150.793 224.983L153.844 224.463L156.615 240.726L176.367 237.361L179.384 255.068L199.671 251.611L202.952 270.87Z" fill="#323433"/>
<path d="M108.894 361.859C118.709 360.187 125.311 350.88 123.64 341.071C121.968 331.262 112.657 324.666 102.842 326.338C93.027 328.01 86.425 337.318 88.0962 347.127C89.7673 356.935 99.0787 363.532 108.894 361.859Z" fill="#34A853"/>
<path d="M109.149 363.357C98.5507 365.163 88.4116 358.027 86.5979 347.382C84.7934 336.79 91.9351 326.655 102.587 324.84C113.24 323.025 123.325 330.17 125.139 340.816C126.944 351.408 119.802 361.542 109.149 363.357ZM103.098 327.836C94.1584 329.359 88.118 337.875 89.64 346.808C91.162 355.742 99.6815 361.777 108.621 360.254C117.56 358.731 123.601 350.216 122.079 341.282C120.61 332.339 112.091 326.304 103.098 327.836Z" fill="#323433"/>
<path d="M92.7525 343.415C79.2096 345.723 66.3051 336.581 63.9992 323.047C61.6934 309.512 70.8429 296.614 84.3858 294.306C97.9288 291.999 110.833 301.14 113.139 314.675C115.445 328.209 106.295 341.108 92.7525 343.415ZM84.8962 297.302C73.0127 299.327 64.9736 310.66 66.9969 322.536C69.0202 334.412 80.3586 342.444 92.2421 340.419C104.126 338.395 112.165 327.062 110.141 315.186C108.065 303.319 96.7797 295.277 84.8962 297.302Z" fill="#323433"/>
<path d="M649.006 463.182L683.479 457.309L661.175 430.502L649.006 463.182Z" fill="#F9C13D"/>
<path d="M686.418 458.404L646.646 465.18L660.664 427.506L686.418 458.404ZM651.373 461.237L680.6 456.258L661.693 433.551L651.373 461.237Z" fill="#323433"/>
<path d="M688.945 442.836L639.056 451.335L656.663 404.022L688.945 442.836ZM643.835 447.383L683.179 440.68L657.693 410.067L643.835 447.383Z" fill="#323433"/>
<path d="M809.554 552.643L765.446 560.157L767.515 572.301L811.623 564.786L809.554 552.643Z" fill="#F37C40"/>
<path d="M813.439 566.073L766.28 574.107L763.691 558.915L810.851 550.88L813.439 566.073ZM768.811 570.538L809.868 563.543L808.31 554.396L767.253 561.39L768.811 570.538Z" fill="#323433"/>
<path d="M761.314 231.341C761.314 231.341 765.871 229.959 767.297 229.276C794.612 216.31 762.993 142.262 762.993 142.262C727.678 65.596 709.72 73.9952 705.651 74.6883C702.012 75.3084 698.058 78.294 698.058 78.294L761.314 231.341Z" fill="#323433"/>
<path d="M762.3 230.992C774.009 226.112 769.23 187.937 751.626 145.726C734.021 103.514 710.258 73.2499 698.549 78.1292C686.841 83.0086 691.62 121.184 709.224 163.395C726.828 205.607 750.591 235.871 762.3 230.992Z" fill="white"/>
<path d="M761.096 232.975C753.227 234.315 743.641 224.608 736.799 215.81C726.676 202.947 716.435 184.544 707.865 163.985C699.294 143.426 693.475 123.169 691.427 106.948C689.948 95.034 689.878 80.0728 698.008 76.7061C706.191 73.3302 716.743 83.8632 724.141 93.3373C734.265 106.2 744.506 124.603 753.076 145.163C761.646 165.722 767.466 185.979 769.513 202.2C770.992 214.114 771.062 229.075 762.933 232.441C762.309 232.658 761.738 232.865 761.096 232.975ZM710.69 162.788C729.406 207.657 752.216 233.552 761.727 229.564C771.291 225.568 768.957 191.175 750.241 146.306C731.525 101.437 708.716 75.5423 699.205 79.5298C689.64 83.5264 691.974 117.919 710.69 162.788Z" fill="#323433"/>
<path d="M757.942 223.718C765.831 220.43 759.564 187.403 743.944 149.949C728.324 112.495 709.266 84.7975 701.377 88.085C693.488 91.3725 699.755 124.4 715.375 161.854C730.995 199.308 750.053 227.005 757.942 223.718Z" fill="#F37C40"/>
<path d="M757.499 225.44C752.842 226.234 746.44 220.664 738.329 208.944C730.209 197.171 721.617 180.689 713.992 162.446C706.376 144.256 700.762 126.496 698.097 112.472C695.241 97.3253 696.13 88.6413 700.863 86.6789C705.543 84.7256 712.365 90.1692 721.139 102.877C729.259 114.65 737.851 131.132 745.476 149.375C753.092 167.565 758.706 185.325 761.371 199.348C764.227 214.496 763.338 223.18 758.605 225.142C758.195 225.322 757.873 225.377 757.499 225.44ZM702.382 89.4478C702.221 89.4752 702.114 89.4934 702.016 89.5652C699.806 90.4923 698.248 96.868 701.086 111.908C703.714 125.718 709.292 143.264 716.827 161.302C724.353 179.287 732.863 195.618 740.84 207.195C749.543 219.805 755.188 223.192 757.345 222.274C759.556 221.347 761.113 214.971 758.275 199.931C755.647 186.121 750.069 168.575 742.534 150.537C735.008 132.552 726.498 116.221 718.521 104.644C710.32 92.7194 704.844 89.0283 702.382 89.4478Z" fill="#323433"/>
<path d="M752.661 210.5C757.063 208.666 750.764 183.522 738.593 154.339C726.423 125.155 712.988 102.985 708.587 104.819C704.186 106.653 710.484 131.797 722.655 160.98C734.826 190.163 748.26 212.334 752.661 210.5Z" fill="white"/>
<path d="M752.596 212.183C750.402 212.557 746.824 210.634 739.309 198.207C733.572 188.781 727.17 175.779 721.282 161.589C715.341 147.407 710.642 133.73 707.936 123.017C703.988 107.285 705.897 104.262 708.01 103.407C710.123 102.551 713.607 103.279 722.028 117.148C727.766 126.574 734.167 139.576 740.055 153.766C745.996 167.947 750.695 181.625 753.402 192.338C757.349 208.07 755.44 211.093 753.327 211.948C753.069 212.047 752.81 212.146 752.596 212.183ZM724.108 160.392C729.779 173.958 735.938 186.506 741.425 195.755C748.824 208.146 751.675 209.037 752.121 209.071C752.343 208.758 753.753 206.041 750.169 192.118C747.517 181.726 742.901 168.53 737.229 154.963C731.558 141.397 725.399 128.849 719.912 119.6C712.513 107.208 709.663 106.318 709.216 106.284C708.994 106.597 707.584 109.314 711.168 123.237C713.82 133.629 718.437 146.825 724.108 160.392Z" fill="#323433"/>
<path d="M739.294 177.496C740.568 176.965 738.719 169.628 735.166 161.108C731.613 152.589 727.7 146.112 726.427 146.643C725.154 147.173 727.002 154.51 730.555 163.03C734.108 171.55 738.021 178.026 739.294 177.496Z" fill="#F37C40"/>
<path d="M739.466 179.079C737.806 179.362 736.264 177.423 734.495 174.476C732.807 171.681 730.883 167.825 729.181 163.656C727.417 159.443 726.019 155.442 725.249 152.215C724.353 148.57 724.076 145.975 725.93 145.218C727.731 144.471 729.443 146.437 731.373 149.686C733.061 152.481 734.985 156.337 736.687 160.506C738.451 164.719 739.849 168.72 740.619 171.947C741.515 175.592 741.792 178.187 739.938 178.944C739.787 179.024 739.626 179.052 739.466 179.079ZM727.848 150.011C728.33 152.516 729.604 156.758 731.953 162.468C734.294 168.125 736.45 172.051 737.913 174.169C737.431 171.664 736.158 167.422 733.808 161.712C731.413 156.065 729.257 152.138 727.848 150.011Z" fill="#323433"/>
<path d="M727.187 208.211L575.436 354.146L577.581 356.375L729.333 210.44L727.187 208.211Z" fill="#323433"/>
<path d="M708.6 210.651L726.294 211.049L727.213 228.728L747.384 189.345L708.6 210.651Z" fill="#323433"/>
<path d="M560.107 357.826L592.751 326.667L608.073 325.103L605.823 340.349L573.188 371.562L575.767 355.984L560.107 357.826Z" fill="#323433"/>
<path d="M702.302 128.076L495.128 165.735L495.681 168.778L702.856 131.119L702.302 128.076Z" fill="#323433"/>
<path d="M685.465 119.799L699.971 129.934L690.946 145.178L729.55 123.463L685.465 119.799Z" fill="#323433"/>
<path d="M480.298 160.313L524.726 152.413L538.391 159.554L528.067 171.056L483.595 179.018L494.4 167.434L480.298 160.313Z" fill="#323433"/>
<path d="M264.804 426.027C264.804 426.027 253.543 481.178 282.721 497.896C282.721 497.896 313.345 516.955 389.212 519.002L532.921 640.232L595.42 661.127C595.42 661.127 545.1 572.044 427.749 493.335L360.844 455.63L308.537 418.577L264.804 426.027Z" fill="white"/>
<path d="M598.689 663.818L532.106 641.582L531.855 641.404L388.594 520.539C349.571 519.425 322.717 513.761 307.061 509.162C290.243 504.211 282.514 499.582 281.897 499.192C269.499 492.056 262.314 477.041 261.222 455.758C260.39 439.881 263.136 426.256 263.259 425.685L263.47 424.658L308.863 416.924L361.671 454.333L428.567 491.985L428.629 492.029C489.385 532.763 531.842 576.339 556.788 605.724C583.805 637.563 596.676 660.087 596.775 660.345L598.689 663.818ZM533.676 638.837L591.912 658.311C587.27 650.79 574.975 631.966 554.304 607.633C529.501 578.445 487.313 535.153 426.924 494.631L360.02 456.927L359.957 456.882L308.151 420.183L266.077 427.352C264.773 434.895 257.671 481.795 283.432 496.563L283.494 496.608C283.799 496.776 314.805 515.495 389.181 517.521L389.735 517.537L390.129 517.91L533.676 638.837Z" fill="#323433"/>
<path d="M464.591 567.649L415.294 569.277L401.083 467.436C401.083 467.436 281.466 508.954 273.48 443.651C272.781 437.935 269.543 420.541 269.543 420.541C269.543 420.541 372.092 402.024 432.185 416.558C440.512 418.552 446.723 425.586 447.788 434.102L464.591 567.649Z" fill="white"/>
<path d="M466.327 569.115L413.959 570.826L413.776 569.426L399.821 469.413C394.551 471.137 378.268 476.113 359.301 479.234C328.11 484.328 304.733 482.256 289.873 472.952C279.584 466.557 273.56 456.739 271.952 443.747C271.272 438.137 268.061 420.904 268.033 420.743L267.769 419.192L269.321 418.928C269.589 418.882 295.407 414.263 328.257 411.474C358.608 408.89 401.381 407.438 432.58 415.004C441.488 417.175 448.227 424.724 449.339 433.838L466.327 569.115ZM416.617 567.676L462.844 566.131L446.225 434.314C445.269 426.439 439.48 419.939 431.787 418.112C376.689 404.764 284.312 419.621 271.304 421.838C272.105 426.215 274.399 438.706 274.996 443.503C276.493 455.524 281.996 464.55 291.479 470.421C325.556 491.644 399.828 466.219 400.613 465.976L402.378 465.345L416.617 567.676Z" fill="#323433"/>
<path d="M496.219 246.008C479.258 212.731 451.398 192.43 411.072 183.997C387.14 178.992 371.276 166.061 362.207 156.155C355.979 149.345 351.976 142.98 349.882 139.098C348.777 137.14 349.617 134.63 351.72 133.721L351.31 133.901C353.102 133.1 355.211 133.842 356.172 135.605C358.086 139.077 361.812 145.103 367.699 151.532C379.868 164.762 394.931 173.315 412.574 176.97C431.254 180.889 447.067 187.058 460.917 195.928C478.605 207.282 492.631 223.004 502.706 242.701L496.219 246.008Z" fill="#323433"/>
<path d="M469.604 206.174C471.678 204.444 474.758 204.745 476.489 206.817C482.575 214.093 495.907 230.593 501.392 241.769L492.652 246.726C492.652 246.726 481.147 226.722 469.039 213.206C467.148 211.161 467.432 207.975 469.604 206.174Z" fill="#F9C13D"/>
<path d="M492.025 248.869L491.244 247.516C491.154 247.311 479.685 227.521 467.837 214.236C466.681 212.947 466.113 211.227 466.25 209.442C466.386 207.657 467.22 206.084 468.573 204.973C471.279 202.75 475.36 203.101 477.583 205.805C483.257 212.6 497.064 229.625 502.701 241.05L503.367 242.368L492.025 248.869ZM472.114 206.681C471.578 206.773 471.017 207.033 470.527 207.392C469.797 207.957 469.39 208.797 469.33 209.743C469.262 210.635 469.578 211.517 470.133 212.193C480.404 223.655 490.343 239.963 493.127 244.663L499.256 241.197C493.397 230.084 480.621 214.26 475.233 207.856C474.462 206.887 473.291 206.481 472.114 206.681Z" fill="#323433"/>
<path d="M486.518 415.393L333.773 316.787L358.184 147.097L361.239 147.568L337.098 315.285L488.223 412.791L486.518 415.393Z" fill="#323433"/>
<path d="M494.386 431.503C492.515 432.482 490.173 431.67 489.398 429.71C487.724 425.702 485.182 418.538 483.694 409.158C481.594 395.864 481.469 375.407 492.515 353.598C511.205 316.834 512.78 282.436 497.396 248.395L503.938 245.408C513.043 265.546 516.535 286.365 514.304 307.223C512.567 323.538 507.509 339.759 498.9 356.804C490.726 372.839 487.974 389.988 490.714 407.687C492.039 416.434 494.464 423.232 496.012 426.822C496.759 428.621 496.052 430.614 494.386 431.503Z" fill="#323433"/>
<path d="M512.533 288.094C515.11 287.379 516.636 284.697 515.913 282.068C513.417 272.915 507.418 252.578 501.372 241.663L492.309 246.014C492.309 246.014 502.193 266.845 506.414 284.512C507.049 287.266 509.848 288.826 512.533 288.094Z" fill="#F9C13D"/>
<path d="M512.262 289.736C510.763 289.991 509.226 289.703 507.938 288.931C506.409 288.036 505.341 286.621 504.933 284.874C500.776 267.582 491.026 246.893 490.936 246.688L490.262 245.317L502.026 239.679L502.735 240.935C508.934 252.099 515.051 273.132 517.384 281.652C518.298 285.074 516.31 288.606 512.948 289.564C512.69 289.663 512.476 289.699 512.262 289.736ZM494.365 246.765C496.65 251.77 504.352 269.174 507.948 284.14C508.157 285.041 508.722 285.77 509.518 286.24C510.314 286.71 511.269 286.822 512.161 286.56C513.945 286.036 514.956 284.212 514.486 282.421C512.279 274.319 506.578 254.758 500.772 243.636L494.365 246.765Z" fill="#323433"/>
<path d="M563.286 212.155L349.898 324.237L351.337 326.975L564.726 214.893L563.286 212.155Z" fill="#323433"/>
<path d="M214.877 388.072C202.961 373.093 209.666 340.352 245.742 318.022C245.742 318.022 264.746 307.353 263.282 287.124C263.282 287.124 264.112 248.669 303.05 250.898C303.05 250.898 322.289 251.309 315.888 281.96C315.888 281.96 329.557 295.265 319.518 314.261C309.435 333.319 265.537 451.995 214.877 388.072Z" fill="#323433"/>
<path d="M541.963 208.653L561.294 214.773L556.667 234.498L591.415 197.586L541.963 208.653Z" fill="#323433"/>
<path d="M349.539 298.742L518.626 205.198C518.626 205.198 524.597 212.768 499.988 228.686C499.988 228.686 506.062 232.33 503.712 236.639C503.712 236.639 507.904 238.292 506.377 243.231C506.377 243.231 511.601 243.827 509.197 250.733C509.197 250.733 517.418 253.075 502.802 272.685C502.802 272.685 496.753 273.716 496.336 266.741C496.336 266.741 485.215 274.856 474.728 272.789L362.152 331.714L349.539 298.742Z" fill="white"/>
<path d="M361.364 333.885L347.598 298.026L518.992 203.153L519.826 204.167C519.97 204.363 521.18 205.973 520.646 208.982C520 212.946 516.264 219.472 502.629 228.676C504.519 230.391 506.34 232.998 505.565 235.883C507.077 237.001 508.522 239.012 508.104 242.056C508.882 242.419 509.759 243.04 510.432 244.082C511.401 245.568 511.569 247.521 510.979 249.879C511.561 250.385 512.233 251.096 512.603 252.299C514.064 256.674 511.197 263.769 503.982 273.475L503.627 273.976L503.038 274.076C502.931 274.095 499.88 274.615 497.454 272.661C496.371 271.799 495.626 270.66 495.21 269.19C491.469 271.479 483.199 275.64 474.973 274.234L361.364 333.885ZM351.477 299.457L362.991 329.534L474.444 271.131L474.962 271.263C484.717 273.234 495.26 265.603 495.358 265.531L497.664 263.872L497.817 266.709C497.894 268.457 498.434 269.686 499.33 270.415C500.162 271.098 501.287 271.237 501.948 271.235C510.042 260.222 510.329 255.439 509.733 253.559C509.444 252.507 508.737 252.242 508.675 252.198L506.959 251.829L507.677 250.221C508.34 248.291 508.361 246.801 507.813 245.849C507.212 244.905 506.131 244.704 506.078 244.713L504.327 244.461L504.803 242.728C505.836 239.415 503.484 238.219 503.01 238.025L501.41 237.361L502.253 235.842C503.903 232.918 499.161 229.983 499.099 229.938L497.005 228.643L499.089 227.297C513.777 217.804 516.96 211.592 517.521 208.744C517.653 208.226 517.687 207.78 517.623 207.405L351.477 299.457Z" fill="#323433"/>
<path d="M308.214 257.285C308.214 257.285 299.409 271.887 286.032 278.074C286.032 278.074 274.293 275.45 277.088 286.038C277.088 286.038 278.903 291.84 282.712 293.833L287.533 337.326L322.32 326.83L312.548 302.127C312.548 302.127 339.171 295.444 308.214 257.285Z" fill="white"/>
<path d="M286.175 339.373L281.217 294.748C277.423 292.201 275.663 286.721 275.564 286.463L275.555 286.409C274.623 282.88 275.051 280.22 276.776 278.384C279.445 275.618 284.106 276.145 285.803 276.406C298.325 270.364 306.775 256.594 306.864 256.469L307.973 254.573L309.362 256.263C321.986 271.838 326.868 284.328 323.838 293.377C321.868 299.272 317.092 301.958 314.516 303.002L324.306 327.812L286.175 339.373ZM278.56 285.622C278.678 285.987 280.337 290.879 283.423 292.5L284.147 292.872L288.848 335.339L320.282 325.855L310.438 301.054L312.133 300.655C312.401 300.61 318.769 298.864 320.924 292.442C322.664 287.136 321.853 277.2 308.286 259.97C305.417 264.147 297.535 274.462 286.609 279.517L286.154 279.759L285.636 279.627C284.323 279.356 280.563 278.95 278.971 280.598C278.082 281.52 277.927 283.198 278.56 285.622Z" fill="#323433"/>
<path d="M223.732 357.608C222.222 357.15 168.703 387.021 157.883 415.013C155.707 420.668 156.533 427.133 160.317 431.883C165.786 438.768 177.869 445.352 204.031 434.344L275.094 402.695L262.877 340.04L223.732 357.608Z" fill="white"/>
<path d="M187.227 441.116C171.971 443.716 163.651 438.527 159.105 432.861C155.044 427.773 154.01 420.738 156.416 414.493C162.229 399.465 179.717 384.43 193.385 374.45C202.058 368.128 209.736 363.407 213.54 361.162C219.696 357.526 222.103 356.455 223.218 356.21L264.047 337.859L276.909 403.653L204.66 435.779C197.975 438.57 192.205 440.268 187.227 441.116ZM223.674 359.215C221.187 360.135 207.947 367.455 194.102 377.685C181.236 387.199 164.727 401.517 159.295 415.544C157.269 420.788 158.101 426.646 161.526 430.907C166.862 437.65 178.478 443.433 203.454 432.902L273.448 401.765L261.813 342.203L223.898 359.232L223.674 359.215Z" fill="#323433"/>
<path d="M212.283 407.121L210.881 404.387C211.032 404.306 224.452 397.396 236.644 391.686L237.948 394.491C225.854 400.13 212.434 407.04 212.283 407.121Z" fill="#323433"/>
<path d="M465.088 558.923C465.088 558.923 441.042 572.323 412.707 564.434L434.024 668.862C434.024 668.862 469.395 679.901 501.659 675.615L476.448 649.524L465.088 558.923Z" fill="#323433"/>
<path d="M474.426 656.5L474.821 659.568L483.869 658.401L483.474 655.333L474.426 656.5Z" fill="white"/>
<path d="M465.969 649.986L466.427 653.045L477.168 651.437L476.71 648.378L465.969 649.986Z" fill="white"/>
<path d="M461.668 641.051L462.058 644.119L475.686 642.388L475.297 639.32L461.668 641.051Z" fill="white"/>
<path d="M475.792 643.415L473.595 640.542C465.533 630.08 462.553 622.936 464.538 618.744C465.628 616.412 467.991 615.734 469.196 615.693L469.366 615.72C471.259 615.838 472.842 616.724 474.034 618.227C478.661 624.045 476.613 638.211 476.395 639.844L475.792 643.415ZM469.073 618.852C468.699 618.916 467.753 619.187 467.31 620.143C466.752 621.394 466.364 625.259 473.684 635.572C474.095 630.548 474.016 623.295 471.56 620.19C470.923 619.363 470.136 618.946 469.18 618.834C469.18 618.834 469.127 618.843 469.073 618.852Z" fill="white"/>
<path d="M475.016 643.382L474.896 639.769C474.404 624.274 476.47 615.06 481.21 612.491C484.435 610.73 487.415 612.7 487.54 612.788L487.666 612.877C489.331 614.245 490.203 616.133 490.309 618.372C490.724 627.274 478.067 640.275 477.551 640.803L475.016 643.382ZM483.602 614.891C483.281 614.945 483.022 615.044 482.666 615.215C481.16 616.077 477.879 619.774 477.917 635.842C481.918 631.196 487.444 623.539 487.248 618.508C487.181 617.143 486.677 616.128 485.764 615.293C485.522 615.169 484.619 614.717 483.602 614.891Z" fill="#323433"/>
<path d="M531.637 579.347C531.637 579.347 512.209 598.841 482.831 599.057L559.464 671.877C559.464 671.877 596.514 672.721 626.355 659.71L594.95 641.555L531.637 579.347Z" fill="#323433"/>
<path d="M603.061 645.444L596.127 649.821L597.78 652.436L604.713 648.06L603.061 645.444Z" fill="white"/>
<path d="M594.632 640.575L585.915 646.39L587.633 648.963L596.351 643.147L594.632 640.575Z" fill="white"/>
<path d="M585.764 632.685L574.543 639.929L576.222 642.528L587.443 635.283L585.764 632.685Z" fill="white"/>
<path d="M587.582 635.488L584.089 634.707C571.188 631.731 564.356 628.161 563.197 623.624C562.555 621.146 563.923 619.151 564.83 618.336L564.982 618.255C566.504 617.17 568.262 616.816 570.209 617.255C577.472 618.825 584.951 631.037 585.742 632.444L587.582 635.488ZM566.829 620.693C566.642 620.89 565.904 621.731 566.212 622.89C566.547 624.209 568.754 627.466 580.987 630.722C578.08 626.593 573.392 621.061 569.559 620.228C568.478 620.027 567.622 620.173 566.829 620.693Z" fill="white"/>
<path d="M587.529 635.827L584.585 633.742C571.966 624.662 565.996 617.422 566.798 612.111C567.339 608.495 570.718 607.314 570.879 607.287L571.04 607.259C573.163 606.788 575.164 607.217 577.034 608.495C584.345 613.58 586.961 631.52 587.035 632.279L587.529 635.827ZM571.764 610.219C571.452 610.327 570.026 611.01 569.8 612.59C569.538 614.286 570.483 619.189 583.265 628.902C582.03 622.947 579.373 613.821 575.195 610.955C574.13 610.201 572.986 609.955 571.764 610.219Z" fill="#323433"/>
<path d="M492.679 242.042L491.125 239.389C491.472 239.165 499.339 234.577 505.09 235.358L504.672 238.402C500.725 237.864 494.674 240.821 492.679 242.042Z" fill="#323433"/>
<path d="M495.592 247.821L494.288 245.016C495.206 244.584 503.218 240.852 507.629 241.202L507.381 244.272C504.309 244.024 497.838 246.778 495.592 247.821Z" fill="#323433"/>
<path d="M498.838 254.59L497.533 251.784C497.836 251.622 505.305 248.258 510.031 249.159L509.443 252.177C506.317 251.609 500.727 253.717 498.838 254.59Z" fill="#323433"/>
<path d="M354.987 294.18L321.691 309.872C319.347 310.987 316.533 310.31 314.973 308.264L282.454 319.144L282.428 319.313C281.467 322.725 279.156 325.651 276.029 327.34L219.987 358.246L228.203 397.417L249.173 387.624L255.633 453.022L341.061 411.604C341.061 411.604 334.517 373.194 341.89 352.451L366.371 335.784L354.987 294.18Z" fill="#F9C13D"/>
<path d="M254.328 455.391L247.806 389.949L227.04 399.652L218.144 357.459L275.246 325.987C277.964 324.478 280.052 321.865 280.917 318.855L281.199 317.927L315.545 306.46L316.245 307.332C317.374 308.791 319.385 309.274 321.123 308.483L356.103 292.009L368.247 336.456L343.276 353.481C336.375 373.759 342.611 411.01 342.675 411.384L342.866 412.508L254.328 455.391ZM250.432 385.318L256.945 450.707L339.316 410.746C338.293 404.094 333.607 371.092 340.432 351.984L340.627 351.51L364.619 335.202L353.985 296.388L322.373 311.297C319.726 312.574 316.609 312.059 314.514 310.104L283.663 320.424C282.497 323.926 279.981 326.942 276.711 328.765L221.632 359.177L229.221 395.317L250.432 385.318Z" fill="#323433"/>
<path d="M245.107 363.491L248.079 392.591L251.158 392.276L248.186 363.177L245.107 363.491Z" fill="#323433"/>
</g>
<defs>
<clipPath id="clip0_249_365">
<rect width="868.809" height="651.198" fill="white" transform="translate(0 145.916) rotate(-9.66858)"/>
</clipPath>
</defs>
</svg>
