<svg width="155" height="46" viewBox="0 0 155 46" fill="none" xmlns="http://www.w3.org/2000/svg">
<g clip-path="url(#clip0)">
<path fill-rule="evenodd" clip-rule="evenodd" d="M114.66 34.2685C109.379 34.2685 106.098 31.201 106.098 26.2604C106.098 21.1264 109.125 17.9364 114 17.9364L114.412 17.9341C115.021 17.9341 115.863 17.9534 117.013 18.0998V11.9055H120.462V33.7114C120.462 33.7114 117.187 34.2685 114.66 34.2685ZM114.63 20.6564C111.293 20.6564 109.67 22.4617 109.67 26.1749C109.67 29.5067 111.626 31.5763 114.774 31.5763C115.378 31.5763 116.07 31.5385 117.013 31.4553V20.8768C116.069 20.7265 115.312 20.6564 114.63 20.6564Z" fill="#53599A"/>
<path fill-rule="evenodd" clip-rule="evenodd" d="M67.4758 33.771L58.1689 17.4875L58.1666 33.771H54.9238V13.1594H59.4624L68.7694 29.2973L68.7655 13.1594H72.0498V33.771H67.4758Z" fill="#53599A"/>
<path fill-rule="evenodd" clip-rule="evenodd" d="M97.1152 34.087C95.5488 34.087 93.9139 33.9113 91.9678 33.5361L91.7611 33.4952V30.6158L92.0693 30.6836C93.7825 31.0488 95.2636 31.3647 96.7432 31.3647C97.9414 31.3647 100.728 31.1737 100.728 29.4091C100.728 27.9274 98.8022 27.5568 97.2543 27.2602L97.1574 27.2409C96.87 27.1839 96.5979 27.1299 96.365 27.0714C94.0961 26.4804 91.6758 25.5943 91.6758 22.5453C91.6758 19.5726 94.0239 17.8674 98.1174 17.8674C100.081 17.8674 101.508 18.0801 102.653 18.2512L103.213 18.3351V21.126L102.914 21.0744C101.618 20.8347 100.098 20.5889 98.6339 20.5889C97.0114 20.5889 95.0784 20.8933 95.0784 22.3442C95.0784 23.5462 96.6578 23.8906 98.4871 24.289C101.043 24.8469 104.215 25.5411 104.215 29.037C104.215 32.2462 101.627 34.087 97.1152 34.087Z" fill="#53599A"/>
<path fill-rule="evenodd" clip-rule="evenodd" d="M130.135 34.087C126.566 34.087 123.264 33.4583 123.264 28.8937C123.264 23.9269 128.371 23.9269 131.423 23.9269C131.728 23.9269 133.162 23.9923 133.604 24.0124C133.601 21.2262 133.563 20.5612 129.532 20.5612C127.934 20.5612 126.159 20.8794 124.593 21.1599L124.294 21.2138V18.4615L124.498 18.4199C126.313 18.0485 128.063 17.8674 129.848 17.8674C133.754 17.8674 137.065 18.2627 137.065 23.1201V33.7164L136.826 33.741C134.121 34.0454 131.971 34.087 130.135 34.087ZM131.336 26.3833C128.394 26.3833 126.571 26.8171 126.571 28.9784C126.571 31.4788 128.898 31.6876 131.08 31.6876C131.897 31.6876 133.362 31.5836 133.81 31.5497V26.468C133.178 26.4442 131.535 26.3833 131.336 26.3833Z" fill="#53599A"/>
<path fill-rule="evenodd" clip-rule="evenodd" d="M81.7931 34.087C78.2238 34.087 74.9219 33.4583 74.9219 28.8937C74.9219 23.9269 80.0292 23.9269 83.0813 23.9269C83.3857 23.9269 84.8207 23.9923 85.2626 24.0124C85.2588 21.2262 85.2211 20.5612 81.1906 20.5612C79.5927 20.5612 77.818 20.8794 76.2508 21.1599L75.9518 21.2138V18.4615L76.1562 18.4199C77.9717 18.0485 79.721 17.8674 81.5057 17.8674C85.4125 17.8674 88.7228 18.2627 88.7228 23.1201V33.7164L88.4846 33.741C85.7791 34.0454 83.6293 34.087 81.7931 34.087ZM82.9945 26.3833C80.0523 26.3833 78.2292 26.8171 78.2292 28.9784C78.2292 31.4788 80.5565 31.6876 82.7378 31.6876C83.5548 31.6876 85.0205 31.5836 85.4686 31.5497V26.468C84.836 26.4442 83.1935 26.3833 82.9945 26.3833Z" fill="#53599A"/>
<path fill-rule="evenodd" clip-rule="evenodd" d="M150.783 40.7721V34.0123C149.437 34.2018 148.721 34.2018 148.145 34.2018C146.781 34.2018 145.266 33.9044 144.09 33.4051C141.466 32.3125 139.898 29.5309 139.898 25.9633C139.898 24.1796 140.331 20.9241 143.228 19.1696C144.678 18.2989 146.397 17.9268 148.975 17.9268C149.9 17.9268 151.148 17.9984 152.353 18.0685L154.308 18.1695V39.2072L150.783 40.7721ZM148.717 20.6475C145.219 20.6475 143.443 22.4359 143.443 25.9633C143.443 30.5002 146.093 31.4526 148.317 31.4526C148.857 31.4526 149.467 31.4526 150.814 31.2823V20.7453C149.759 20.6737 149.275 20.6475 148.717 20.6475Z" fill="#53599A"/>
<path fill-rule="evenodd" clip-rule="evenodd" d="M39.5319 0.941406H51.7987L40.4027 32.3273C40.0999 33.1694 39.2928 33.7712 38.3482 33.7712H26.3027V33.7527C27.1497 33.6672 27.8561 33.1016 28.1358 32.3273L39.5319 0.941406ZM25.3229 33.2918C24.4728 33.2918 23.745 32.7771 23.4268 32.0428L20.9719 25.2907L25.1507 13.779C25.2199 13.5686 25.3829 13.3228 25.4221 13.2689C25.7971 12.7411 26.4112 12.3967 27.1061 12.3967C27.9646 12.3967 28.7017 12.9214 29.0137 13.668L31.4586 20.3932L27.2782 31.9095C27.1829 32.1722 27.0461 32.3649 27.0069 32.4196C26.6318 32.9466 26.0185 33.2918 25.3229 33.2918ZM26.2153 11.9153V11.9223C25.3107 11.96 24.5444 12.5433 24.2508 13.3585L12.8555 44.7436H0.587891L11.9832 13.3585C12.2875 12.5163 13.093 11.9153 14.0384 11.9153H26.2153Z" fill="#53599A"/>
</g>
<defs>
<clipPath id="clip0">
<rect width="154.412" height="44.1176" fill="white" transform="translate(0.587891 0.941162)"/>
</clipPath>
</defs>
</svg>
