<svg width="945" height="673" viewBox="0 0 945 673" fill="none" xmlns="http://www.w3.org/2000/svg">
<path d="M56.4933 190.385C-19.5896 303.857 -18.0688 561.666 56.4934 647.166C139.769 742.658 335.968 533.906 456.994 569.385C722.321 647.166 828.821 623.666 857.321 489.166C885.821 354.666 967.821 242.666 938.821 143.666C908.345 39.6256 808.321 7.43866e-05 701.28 0C593.787 -7.47008e-05 549.481 69.291 441.821 62.666C334.874 56.0849 335.321 0 219.016 21.8848C157.849 33.3942 103.139 80.0709 68.3213 130.666C46.692 162.096 77.7302 158.712 56.4933 190.385Z" fill="#E0E5F8"/>
</svg>
