<svg width="829" height="522" viewBox="0 0 829 522" fill="none" xmlns="http://www.w3.org/2000/svg">
<path d="M745 237V302L715 269.5L745 237Z" fill="#F9C13D"/>
<path d="M720.5 250C721.881 250 723 248.881 723 247.5C723 246.119 721.881 245 720.5 245C719.119 245 718 246.119 718 247.5C718 248.881 719.119 250 720.5 250Z" fill="#323433"/>
<path d="M720.5 261C721.881 261 723 259.881 723 258.5C723 257.119 721.881 256 720.5 256C719.119 256 718 257.119 718 258.5C718 259.881 719.119 261 720.5 261Z" fill="#323433"/>
<path d="M720.5 273C721.881 273 723 271.881 723 270.5C723 269.119 721.881 268 720.5 268C719.119 268 718 269.119 718 270.5C718 271.881 719.119 273 720.5 273Z" fill="#323433"/>
<path d="M720.5 284C721.881 284 723 282.881 723 281.5C723 280.119 721.881 279 720.5 279C719.119 279 718 280.119 718 281.5C718 282.881 719.119 284 720.5 284Z" fill="#323433"/>
<path d="M710.5 261C711.881 261 713 259.881 713 258.5C713 257.119 711.881 256 710.5 256C709.119 256 708 257.119 708 258.5C708 259.881 709.119 261 710.5 261Z" fill="#323433"/>
<path d="M710.5 273C711.881 273 713 271.881 713 270.5C713 269.119 711.881 268 710.5 268C709.119 268 708 269.119 708 270.5C708 271.881 709.119 273 710.5 273Z" fill="#323433"/>
<path d="M701 273C702.105 273 703 271.881 703 270.5C703 269.119 702.105 268 701 268C699.895 268 699 269.119 699 270.5C699 271.881 699.895 273 701 273Z" fill="#323433"/>
<path d="M710.5 284C711.881 284 713 282.881 713 281.5C713 280.119 711.881 279 710.5 279C709.119 279 708 280.119 708 281.5C708 282.881 709.119 284 710.5 284Z" fill="#323433"/>
<path d="M720.5 294C721.881 294 723 292.881 723 291.5C723 290.119 721.881 289 720.5 289C719.119 289 718 290.119 718 291.5C718 292.881 719.119 294 720.5 294Z" fill="#323433"/>
<path d="M730.5 250C731.881 250 733 248.881 733 247.5C733 246.119 731.881 245 730.5 245C729.119 245 728 246.119 728 247.5C728 248.881 729.119 250 730.5 250Z" fill="#323433"/>
<path d="M730.5 239C731.881 239 733 238.105 733 237C733 235.895 731.881 235 730.5 235C729.119 235 728 235.895 728 237C728 238.105 729.119 239 730.5 239Z" fill="#323433"/>
<path d="M730.5 261C731.881 261 733 259.881 733 258.5C733 257.119 731.881 256 730.5 256C729.119 256 728 257.119 728 258.5C728 259.881 729.119 261 730.5 261Z" fill="#323433"/>
<path d="M730.5 273C731.881 273 733 271.881 733 270.5C733 269.119 731.881 268 730.5 268C729.119 268 728 269.119 728 270.5C728 271.881 729.119 273 730.5 273Z" fill="#323433"/>
<path d="M730.5 284C731.881 284 733 282.881 733 281.5C733 280.119 731.881 279 730.5 279C729.119 279 728 280.119 728 281.5C728 282.881 729.119 284 730.5 284Z" fill="#323433"/>
<path d="M730.5 294C731.881 294 733 292.881 733 291.5C733 290.119 731.881 289 730.5 289C729.119 289 728 290.119 728 291.5C728 292.881 729.119 294 730.5 294Z" fill="#323433"/>
<path d="M730.5 305C731.881 305 733 304.105 733 303C733 301.895 731.881 301 730.5 301C729.119 301 728 301.895 728 303C728 304.105 729.119 305 730.5 305Z" fill="#323433"/>
<path d="M109.75 162H403.25C413.052 162 421 169.966 421 179.789V468.212C421 478.035 413.052 486 403.25 486H109.75C99.9483 486 92 478.035 92 468.212V179.74C92 169.966 99.9483 162 109.75 162Z" fill="#323433"/>
<path d="M402.057 487H108.944C98.5221 487 90 478.509 90 468.016V179.984C90 169.541 98.4734 161 108.944 161H402.057C412.478 161 421 169.492 421 179.984V468.016C421 478.509 412.478 487 402.057 487ZM108.944 163.489C99.837 163.489 92.4349 170.907 92.4349 180.033V468.065C92.4349 477.191 99.837 484.609 108.944 484.609H402.057C411.163 484.609 418.565 477.191 418.565 468.065V179.984C418.565 170.858 411.163 163.44 402.057 163.44H108.944V163.489Z" fill="#323433"/>
<path d="M147 474V499.281C147 501.864 149.087 504 151.72 504H181.28C183.864 504 186 501.914 186 499.281V474H147Z" fill="#323433"/>
<path d="M181.15 505H151.899C148.655 505 146 502.358 146 499.128V473H187V499.128C187 502.358 184.394 505 181.15 505ZM148.507 475.495V499.177C148.507 501.037 150.031 502.602 151.948 502.602H181.199C183.067 502.602 184.64 501.086 184.64 499.177V475.495H148.507Z" fill="#323433"/>
<path d="M393 474V499.281C393 501.864 395.033 504 397.599 504H426.401C428.918 504 431 501.914 431 499.281V474H393Z" fill="#323433"/>
<path d="M426.293 505H397.755C394.59 505 392 502.358 392 499.128V473H432V499.128C432 502.358 429.458 505 426.293 505ZM394.446 475.495V499.177C394.446 501.037 395.933 502.602 397.803 502.602H426.341C428.163 502.602 429.698 501.086 429.698 499.177V475.495H394.446Z" fill="#323433"/>
<path d="M142.75 162H436.251C446.052 162 454 169.966 454 179.788V468.212C454 478.035 446.052 486 436.251 486H142.75C132.948 486 125 478.035 125 468.212V179.74C125 169.966 132.948 162 142.75 162Z" fill="white"/>
<path d="M435.999 487H142.001C131.548 487 123 478.508 123 468.016V179.984C123 169.54 131.499 161 142.001 161H435.999C446.452 161 455 169.492 455 179.984V468.016C455 478.508 446.452 487 435.999 487ZM142.001 163.489C132.867 163.489 125.442 170.907 125.442 180.033V468.065C125.442 477.191 132.867 484.609 142.001 484.609H435.999C445.133 484.609 452.558 477.191 452.558 468.065V179.984C452.558 170.858 445.133 163.44 435.999 163.44H142.001V163.489Z" fill="#323433"/>
<path d="M147 196.477V452.523C147 460.544 153.469 467 161.398 467H415.602C423.579 467 430 460.495 430 452.523V196.477C430 188.456 423.531 182 415.602 182H161.398C153.469 182 147 188.456 147 196.477Z" fill="white"/>
<path d="M416.349 468H160.7C152.043 468 145 460.968 145 452.324V196.676C145 188.032 152.043 181 160.7 181H416.3C424.957 181 432 188.032 432 196.676V452.324C432.049 460.968 425.006 468 416.349 468ZM160.7 183.442C153.363 183.442 147.445 189.4 147.445 196.676V452.324C147.445 459.649 153.412 465.558 160.7 465.558H416.3C423.587 465.558 429.554 459.6 429.554 452.324V196.676C429.554 189.351 423.587 183.442 416.3 183.442H160.7Z" fill="#323433"/>
<path d="M141 223C144.328 223 147 225.756 147 229.189V257.811C147 261.244 144.328 264 141 264C137.672 264 135.001 261.244 135.001 257.811V229.237C134.954 225.804 137.672 223 141 223Z" fill="#00B07A"/>
<path d="M141 265C137.111 265 134 261.615 134 257.495V228.505C134 224.336 137.157 221 141 221C144.843 221 148 224.385 148 228.505V257.495C148 261.615 144.843 265 141 265ZM141 223.404C138.392 223.404 136.288 225.66 136.288 228.456V257.495C136.288 260.291 138.392 262.547 141 262.547C143.608 262.547 145.712 260.291 145.712 257.495V228.505C145.712 225.709 143.608 223.404 141 223.404Z" fill="#323433"/>
<path d="M141 386C144.328 386 147 388.759 147 392.196V420.804C147 424.241 144.328 427 141 427C137.672 427 135.001 424.241 135.001 420.804V392.196C134.954 388.808 137.672 386 141 386Z" fill="#00B07A"/>
<path d="M141 428C137.111 428 134 424.692 134 420.666V392.334C134 388.26 137.157 385 141 385C144.843 385 148 388.308 148 392.334V420.618C148 424.692 144.843 428 141 428ZM141 387.349C138.392 387.349 136.288 389.554 136.288 392.287V420.618C136.288 423.35 138.392 425.555 141 425.555C143.608 425.555 145.712 423.35 145.712 420.618V392.287C145.712 389.554 143.608 387.349 141 387.349Z" fill="#323433"/>
<path d="M288 408C334.944 408 373 369.944 373 323C373 276.056 334.944 238 288 238C241.056 238 203 276.056 203 323C203 369.944 241.056 408 288 408Z" fill="white"/>
<path d="M288.5 409C240.81 409 202 370.415 202 323C202 275.585 240.81 237 288.5 237C336.19 237 375 275.585 375 323C375 370.415 336.19 409 288.5 409ZM288.5 239.39C242.134 239.39 204.453 276.902 204.453 322.951C204.453 369 242.134 406.561 288.5 406.561C334.866 406.561 372.547 369.049 372.547 323C372.547 276.951 334.866 239.39 288.5 239.39Z" fill="#323433"/>
<path d="M288.5 398C330.197 398 364 364.198 364 322.5C364 280.803 330.197 247 288.5 247C246.802 247 213 280.803 213 322.5C213 364.198 246.802 398 288.5 398Z" fill="white"/>
<path d="M288.5 399C246.303 399 212 364.697 212 322.5C212 280.303 246.303 246 288.5 246C330.697 246 365 280.303 365 322.5C365 364.697 330.697 399 288.5 399ZM288.5 248.485C247.668 248.485 214.436 281.716 214.436 322.549C214.436 363.381 247.668 396.612 288.5 396.612C329.332 396.612 362.564 363.381 362.564 322.549C362.564 281.716 329.332 248.485 288.5 248.485Z" fill="#323433"/>
<path d="M349.051 317.051H302.336L335.397 283.99C337.689 281.698 337.689 277.943 335.397 275.603C333.106 273.311 329.351 273.311 327.01 275.603L293.949 308.664V261.949C293.949 258.682 291.316 256 288 256C284.733 256 282.051 258.633 282.051 261.949V308.664L248.99 275.603C246.698 273.311 242.943 273.311 240.603 275.603C238.311 277.894 238.311 281.649 240.603 283.99L273.664 317.051H226.949C223.682 317.051 221 319.684 221 323C221 326.267 223.633 328.949 226.949 328.949H273.664L240.603 362.01C238.311 364.302 238.311 368.057 240.603 370.397C242.894 372.689 246.649 372.689 248.99 370.397L282.051 337.336V384.051C282.051 387.318 284.684 390 288 390C291.267 390 293.949 387.367 293.949 384.051V337.287L327.01 370.349C329.302 372.64 333.057 372.64 335.397 370.349C337.689 368.057 337.689 364.302 335.397 361.961L302.336 328.9H349.051C352.318 328.9 355 326.267 355 322.951C355 319.733 352.318 317.051 349.051 317.051Z" fill="#F37C40"/>
<path d="M288.524 391C284.56 391 281.329 387.77 281.329 383.805V339.851L250.249 370.932C248.878 372.303 247.067 373.037 245.158 373.037C243.249 373.037 241.438 372.303 240.068 370.932C238.697 369.562 237.963 367.8 237.963 365.842C237.963 363.884 238.697 362.122 240.068 360.751L271.149 329.671H227.195C223.23 329.671 220 326.44 220 322.476C220 318.511 223.23 315.28 227.195 315.28H271.149L240.068 284.2C237.278 281.41 237.278 276.858 240.068 274.068C242.858 271.278 247.41 271.278 250.2 274.068L281.28 305.149V261.195C281.28 257.23 284.511 254 288.476 254C292.44 254 295.671 257.23 295.671 261.195V305.149L326.751 274.068C329.541 271.278 334.093 271.278 336.883 274.068C338.254 275.438 338.988 277.249 338.988 279.158C338.988 281.067 338.254 282.878 336.883 284.249L305.851 315.378H349.805C353.77 315.378 357 318.609 357 322.573C357 326.538 353.77 329.769 349.805 329.769H305.851L336.932 360.849C338.303 362.22 339.037 364.031 339.037 365.94C339.037 367.849 338.303 369.66 336.932 371.03C335.562 372.4 333.8 373.135 331.842 373.135C329.884 373.135 328.122 372.4 326.751 371.03L295.72 339.9V383.854C295.72 387.819 292.489 391 288.524 391ZM283.777 333.978V383.854C283.777 386.448 285.881 388.602 288.524 388.602C291.119 388.602 293.272 386.497 293.272 383.854V333.978L328.513 369.219C329.394 370.1 330.618 370.589 331.842 370.589C333.065 370.589 334.289 370.1 335.17 369.219C336.051 368.338 336.541 367.114 336.541 365.891C336.541 364.667 336.051 363.443 335.17 362.562L299.929 327.321H349.805C352.399 327.321 354.553 325.217 354.553 322.573C354.553 319.93 352.448 317.826 349.805 317.826H299.929L335.17 282.585C337.03 280.725 337.03 277.739 335.17 275.879C333.31 274.019 330.324 274.019 328.464 275.879L293.223 311.12V261.293C293.223 258.699 291.119 256.545 288.476 256.545C285.881 256.545 283.728 258.65 283.728 261.293V311.169L248.487 275.928C246.627 274.068 243.641 274.068 241.781 275.928C239.921 277.788 239.921 280.773 241.781 282.633L277.022 317.875H227.244C224.65 317.875 222.496 319.979 222.496 322.622C222.496 325.265 224.601 327.37 227.244 327.37H277.12L241.879 362.611C240.998 363.492 240.508 364.716 240.508 365.94C240.508 367.163 240.998 368.387 241.879 369.268C243.739 371.128 246.725 371.128 248.585 369.268L283.777 333.978Z" fill="#323433"/>
<path d="M287.5 374C315.39 374 338 351.39 338 323.5C338 295.61 315.39 273 287.5 273C259.61 273 237 295.61 237 323.5C237 351.39 259.61 374 287.5 374Z" fill="white"/>
<path d="M288 375C259.892 375 237 351.884 237 323.5C237 295.116 259.892 272 288 272C316.108 272 339 295.116 339 323.5C339 351.884 316.156 375 288 375ZM288 274.39C261.196 274.39 239.415 296.384 239.415 323.451C239.415 350.518 261.196 372.513 288 372.513C314.804 372.513 336.585 350.518 336.585 323.451C336.585 296.384 314.804 274.39 288 274.39Z" fill="#323433"/>
<path d="M288 350C302.912 350 315 337.912 315 323C315 308.088 302.912 296 288 296C273.088 296 261 308.088 261 323C261 337.912 273.088 350 288 350Z" fill="#F37C40"/>
<path d="M288 351C272.537 351 260 338.415 260 323C260 307.585 272.585 295 288 295C303.415 295 316 307.585 316 323C316 338.415 303.463 351 288 351ZM288 297.39C273.902 297.39 262.439 308.854 262.439 322.951C262.439 337.049 273.902 348.512 288 348.512C302.098 348.512 313.561 337.049 313.561 322.951C313.561 308.854 302.098 297.39 288 297.39Z" fill="#323433"/>
<path d="M399 295C402.889 295 406 298.184 406 302.053V347.947C406 351.865 402.84 355 399 355C395.112 355 392.001 351.816 392.001 347.947V302.053C391.952 298.184 395.112 295 399 295Z" fill="white"/>
<path d="M399.5 356C394.822 356 391 352.304 391 347.782V302.218C391 297.696 394.822 294 399.5 294C404.178 294 408 297.696 408 302.218V347.782C408 352.304 404.178 356 399.5 356ZM399.5 296.431C396.18 296.431 393.515 299.009 393.515 302.218V347.782C393.515 350.991 396.18 353.569 399.5 353.569C402.82 353.569 405.485 350.991 405.485 347.782V302.218C405.485 299.057 402.769 296.431 399.5 296.431Z" fill="#323433"/>
<path d="M399.5 340C408.06 340 415 333.284 415 325C415 316.716 408.06 310 399.5 310C390.94 310 384 316.716 384 325C384 333.284 390.94 340 399.5 340Z" fill="white"/>
<path d="M399 341C389.64 341 382 333.81 382 325C382 316.19 389.64 309 399 309C408.36 309 416 316.19 416 325C416 333.81 408.36 341 399 341ZM399 311.381C391.006 311.381 384.53 317.476 384.53 325C384.53 332.524 391.006 338.619 399 338.619C406.994 338.619 413.47 332.524 413.47 325C413.47 317.476 406.943 311.381 399 311.381Z" fill="#323433"/>
<path d="M399 332C402.866 332 406 328.866 406 325C406 321.134 402.866 318 399 318C395.134 318 392 321.134 392 325C392 328.866 395.134 332 399 332Z" fill="#F37C40"/>
<path d="M399.5 333C394.822 333 391 329.402 391 325C391 320.598 394.822 317 399.5 317C404.178 317 408 320.598 408 325C408 329.402 404.178 333 399.5 333ZM399.5 319.367C396.18 319.367 393.515 321.876 393.515 325C393.515 328.124 396.18 330.633 399.5 330.633C402.82 330.633 405.485 328.124 405.485 325C405.485 321.876 402.769 319.367 399.5 319.367Z" fill="#323433"/>
<path d="M435.5 250C473.884 250 505 218.884 505 180.5C505 142.116 473.884 111 435.5 111C397.116 111 366 142.116 366 180.5C366 218.884 397.116 250 435.5 250Z" fill="#00B07A"/>
<path d="M435.5 251C396.642 251 365 219.358 365 180.5C365 141.642 396.642 110 435.5 110C474.358 110 506 141.642 506 180.5C506 219.358 474.407 251 435.5 251ZM435.5 112.487C397.959 112.487 367.438 143.007 367.438 180.549C367.438 218.09 397.959 248.611 435.5 248.611C473.042 248.611 503.562 218.09 503.562 180.549C503.562 143.007 473.042 112.487 435.5 112.487Z" fill="#323433"/>
<path d="M435.5 235C465.047 235 489 211.047 489 181.5C489 151.953 465.047 128 435.5 128C405.953 128 382 151.953 382 181.5C382 211.047 405.953 235 435.5 235Z" fill="white"/>
<path d="M435 236C404.674 236 380 211.326 380 181C380 150.674 404.674 126 435 126C465.326 126 490 150.674 490 181C490 211.326 465.375 236 435 236ZM435 128.408C406.001 128.408 382.458 152.001 382.458 180.951C382.458 209.901 406.05 233.493 435 233.493C463.999 233.493 487.542 209.901 487.542 180.951C487.542 152.001 463.999 128.408 435 128.408Z" fill="#323433"/>
<path d="M469.993 153.185C447.941 156.304 435.388 141.488 435 141C434.612 141.488 422.108 156.255 400.007 153.185C400.007 153.185 398.649 206.406 435 224C471.351 206.406 469.993 153.185 469.993 153.185Z" fill="#00B07A"/>
<path d="M435 225C434.807 225 434.615 224.951 434.47 224.903C419.387 217.577 408.449 202.877 402.907 182.306C398.715 166.878 399.004 153.827 399.004 153.293C399.004 152.954 399.149 152.614 399.438 152.42C399.727 152.226 400.064 152.08 400.402 152.129C421.363 155.088 433.313 141.358 434.084 140.485C434.229 140.291 434.47 140.146 434.711 140.049C434.807 140 434.904 140 435 140C435.096 140 435.193 140 435.289 140.049C435.53 140.097 435.771 140.291 435.916 140.485C436.638 141.358 448.589 155.088 469.598 152.129C469.936 152.08 470.273 152.178 470.562 152.42C470.803 152.663 470.996 152.954 470.996 153.293C470.996 153.827 471.285 166.878 467.093 182.306C461.551 202.828 450.613 217.577 435.53 224.903C435.386 224.951 435.193 225 435 225ZM401.462 154.652C401.51 158.388 401.944 169.401 405.269 181.675C408.979 195.357 417.171 213.453 435.048 222.38C452.926 213.453 461.069 195.357 464.828 181.675C468.153 169.401 468.586 158.339 468.635 154.652C450.034 156.69 438.325 146.307 435.048 142.959C432.061 146.016 422.086 154.943 406.28 154.943C404.69 154.943 403.1 154.846 401.462 154.652Z" fill="#323433"/>
<path d="M430.126 199L414.302 183.911C412.642 182.289 412.544 179.635 414.156 177.963C415.767 176.292 418.404 176.194 420.065 177.816L429.979 187.253L450.882 166.216C452.494 164.595 455.18 164.595 456.791 166.216C458.403 167.838 458.403 170.542 456.791 172.164L430.126 199Z" fill="white"/>
<path d="M430.172 201L413.65 185.087C412.633 184.101 412.003 182.722 412.003 181.293C411.955 179.815 412.488 178.435 413.457 177.401C415.491 175.233 418.883 175.134 421.015 177.204L429.978 185.826L449.891 165.577C450.909 164.542 452.265 164 453.67 164C455.076 164 456.432 164.591 457.45 165.577C458.467 166.611 459 167.991 459 169.419C459 170.848 458.419 172.228 457.45 173.262L430.172 201ZM417.333 178.091C416.557 178.091 415.782 178.386 415.201 179.027C414.668 179.618 414.377 180.357 414.377 181.145C414.377 181.933 414.716 182.672 415.298 183.214L430.123 197.502L455.754 171.439C456.287 170.897 456.626 170.109 456.626 169.321C456.626 168.533 456.335 167.794 455.754 167.202C455.172 166.611 454.446 166.316 453.67 166.316C452.895 166.316 452.168 166.611 451.587 167.202L429.978 189.176L419.319 178.879C418.786 178.386 418.059 178.091 417.333 178.091Z" fill="#323433"/>
<path d="M479 434H698.252V465.828H733V505H479V434Z" fill="white"/>
<path d="M734 507H478V433H699.313V465.067H734V507ZM480.443 504.533H731.557V467.533H696.87V435.467H480.443V504.533Z" fill="#323433"/>
<path d="M423.441 474H492.559C493.926 474 495 475.048 495 476.381V486.619C495 487.952 493.926 489 492.559 489H423.441C422.074 489 421 487.952 421 486.619V476.381C421 475.048 422.074 474 423.441 474Z" fill="#F9C13D"/>
<path d="M492.36 491H423.64C421.65 491 420 489.23 420 487.096V475.904C420 473.77 421.65 472 423.64 472H492.36C494.35 472 496 473.77 496 475.904V487.096C496 489.282 494.35 491 492.36 491ZM423.64 474.603C422.96 474.603 422.427 475.175 422.427 475.904V487.096C422.427 487.825 422.96 488.397 423.64 488.397H492.36C493.04 488.397 493.573 487.825 493.573 487.096V475.904C493.573 475.175 493.04 474.603 492.36 474.603H423.64Z" fill="#323433"/>
<path d="M423.441 489H492.559C493.926 489 495 490.117 495 491.54V502.46C495 503.883 493.926 505 492.559 505H423.441C422.074 505 421 503.883 421 502.46V491.54C421 490.168 422.074 489 423.441 489Z" fill="#F9C13D"/>
<path d="M492.36 506H423.64C421.65 506 420 504.323 420 502.301V491.699C420 489.677 421.65 488 423.64 488H492.36C494.35 488 496 489.677 496 491.699V502.301C496 504.323 494.35 506 492.36 506ZM423.64 490.416C422.96 490.416 422.427 490.959 422.427 491.649V502.252C422.427 502.942 422.96 503.485 423.64 503.485H492.36C493.04 503.485 493.573 502.942 493.573 502.252V491.649C493.573 490.959 493.04 490.416 492.36 490.416H423.64Z" fill="#323433"/>
<path d="M437.441 427H506.559C507.926 427 509 428.117 509 429.54V440.46C509 441.883 507.926 443 506.559 443H437.441C436.074 443 435 441.883 435 440.46V429.54C435 428.117 436.074 427 437.441 427Z" fill="#F9C13D"/>
<path d="M506.263 444H436.688C434.672 444 433 442.323 433 440.301V429.699C433 427.677 434.672 426 436.688 426H506.312C508.328 426 510 427.677 510 429.699V440.301C509.951 442.373 508.279 444 506.263 444ZM436.688 428.466C435.999 428.466 435.458 429.008 435.458 429.699V440.301C435.458 440.992 435.999 441.534 436.688 441.534H506.312C507.001 441.534 507.542 440.992 507.542 440.301V429.699C507.542 429.008 507.001 428.466 506.312 428.466H436.688Z" fill="#323433"/>
<path d="M338.441 427H407.559C408.926 427 410 428.117 410 429.54V440.46C410 441.883 408.926 443 407.559 443H338.441C337.074 443 336 441.883 336 440.46V429.54C336 428.168 337.074 427 338.441 427Z" fill="#F9C13D"/>
<path d="M407.312 444H337.688C335.672 444 334 442.323 334 440.301V429.699C334 427.677 335.672 426 337.688 426H407.312C409.328 426 411 427.677 411 429.699V440.301C411 442.323 409.328 444 407.312 444ZM337.688 428.416C336.999 428.416 336.458 428.959 336.458 429.649V440.252C336.458 440.942 336.999 441.485 337.688 441.485H407.312C408.001 441.485 408.542 440.942 408.542 440.252V429.649C408.542 428.959 408.001 428.416 407.312 428.416H337.688Z" fill="#323433"/>
<path d="M312.441 413H381.559C382.926 413 384 413.978 384 415.222V424.778C384 426.022 382.926 427 381.559 427H312.441C311.074 427 310 426.022 310 424.778V415.222C310 413.978 311.074 413 312.441 413Z" fill="#F9C13D"/>
<path d="M381.36 429H312.64C310.65 429 309 427.323 309 425.301V414.699C309 412.677 310.65 411 312.64 411H381.36C383.35 411 385 412.677 385 414.699V425.301C385 427.373 383.35 429 381.36 429ZM312.64 413.466C311.96 413.466 311.427 414.008 311.427 414.699V425.301C311.427 425.992 311.96 426.534 312.64 426.534H381.36C382.04 426.534 382.573 425.992 382.573 425.301V414.699C382.573 414.008 382.04 413.466 381.36 413.466H312.64Z" fill="#323433"/>
<path d="M317.408 397H385.592C386.941 397 388 398.117 388 399.54V410.46C388 411.883 386.941 413 385.592 413H317.408C316.059 413 315 411.883 315 410.46V399.54C315 398.168 316.059 397 317.408 397Z" fill="#F9C13D"/>
<path d="M386.36 414H317.64C315.65 414 314 412.323 314 410.301V399.699C314 397.677 315.65 396 317.64 396H386.36C388.35 396 390 397.677 390 399.699V410.301C390 412.323 388.35 414 386.36 414ZM317.64 398.416C316.96 398.416 316.427 398.959 316.427 399.649V410.252C316.427 410.942 316.96 411.485 317.64 411.485H386.36C387.04 411.485 387.573 410.942 387.573 410.252V399.649C387.573 398.959 387.04 398.416 386.36 398.416H317.64Z" fill="#323433"/>
<path d="M316.441 443H385.559C386.926 443 388 444.117 388 445.54V456.46C388 457.883 386.926 459 385.559 459H316.441C315.074 459 314 457.883 314 456.46V445.54C314 444.117 315.123 443 316.441 443Z" fill="#F9C13D"/>
<path d="M385.36 460H316.64C314.65 460 313 458.323 313 456.301V445.699C313 443.677 314.65 442 316.64 442H385.36C387.35 442 389 443.677 389 445.699V456.301C389 458.373 387.35 460 385.36 460ZM316.64 444.466C315.96 444.466 315.427 445.008 315.427 445.699V456.301C315.427 456.992 315.96 457.534 316.64 457.534H385.36C386.04 457.534 386.573 456.992 386.573 456.301V445.699C386.573 445.008 386.04 444.466 385.36 444.466H316.64Z" fill="#323433"/>
<path d="M316.441 459H385.559C386.926 459 388 460.048 388 461.381V471.619C388 472.952 386.926 474 385.559 474H316.441C315.074 474 314 472.952 314 471.619V461.381C314 460.095 315.123 459 316.441 459Z" fill="#F9C13D"/>
<path d="M385.36 475H316.64C314.65 475 313 473.416 313 471.507V461.493C313 459.584 314.65 458 316.64 458H385.36C387.35 458 389 459.584 389 461.493V471.507C389 473.416 387.35 475 385.36 475ZM316.64 460.282C315.96 460.282 315.427 460.795 315.427 461.447V471.46C315.427 472.112 315.96 472.625 316.64 472.625H385.36C386.04 472.625 386.573 472.112 386.573 471.46V461.447C386.573 460.795 386.04 460.282 385.36 460.282H316.64Z" fill="#323433"/>
<path d="M308.408 474H376.592C377.941 474 379 475.048 379 476.381V486.619C379 487.952 377.941 489 376.592 489H308.408C307.059 489 306 487.952 306 486.619V476.381C306 475.048 307.108 474 308.408 474Z" fill="#F9C13D"/>
<path d="M376.36 491H307.64C305.65 491 304 489.23 304 487.096V475.904C304 473.77 305.65 472 307.64 472H376.36C378.35 472 380 473.77 380 475.904V487.096C380 489.282 378.35 491 376.36 491ZM307.64 474.603C306.96 474.603 306.427 475.175 306.427 475.904V487.096C306.427 487.825 306.96 488.397 307.64 488.397H376.36C377.04 488.397 377.573 487.825 377.573 487.096V475.904C377.573 475.175 377.04 474.603 376.36 474.603H307.64Z" fill="#323433"/>
<path d="M316.441 489H385.559C386.926 489 388 490.117 388 491.54V502.46C388 503.883 386.926 505 385.559 505H316.441C315.074 505 314 503.883 314 502.46V491.54C314 490.168 315.123 489 316.441 489Z" fill="#F9C13D"/>
<path d="M385.36 506H316.64C314.65 506 313 504.323 313 502.301V491.699C313 489.677 314.65 488 316.64 488H385.36C387.35 488 389 489.677 389 491.699V502.301C389 504.323 387.35 506 385.36 506ZM316.64 490.416C315.96 490.416 315.427 490.959 315.427 491.649V502.252C315.427 502.942 315.96 503.485 316.64 503.485H385.36C386.04 503.485 386.573 502.942 386.573 502.252V491.649C386.573 490.959 386.04 490.416 385.36 490.416H316.64Z" fill="#323433"/>
<path d="M424.474 443H494.526C495.912 443 497 444.117 497 445.54V456.46C497 457.883 495.912 459 494.526 459H424.474C423.088 459 422 457.883 422 456.46V445.54C422 444.117 423.088 443 424.474 443Z" fill="#F9C13D"/>
<path d="M494.312 460H424.688C422.672 460 421 458.323 421 456.301V445.699C421 443.677 422.672 442 424.688 442H494.312C496.328 442 498 443.677 498 445.699V456.301C498 458.373 496.328 460 494.312 460ZM424.688 444.466C423.999 444.466 423.458 445.008 423.458 445.699V456.301C423.458 456.992 423.999 457.534 424.688 457.534H494.312C495.001 457.534 495.542 456.992 495.542 456.301V445.699C495.542 445.008 495.001 444.466 494.312 444.466H424.688Z" fill="#323433"/>
<path d="M443.408 459H511.592C512.941 459 514 460.048 514 461.381V471.619C514 472.952 512.941 474 511.592 474H443.408C442.059 474 441 472.952 441 471.619V461.381C441 460.095 442.108 459 443.408 459Z" fill="#F9C13D"/>
<path d="M512.36 475H443.64C441.65 475 440 473.416 440 471.507V461.493C440 459.584 441.65 458 443.64 458H512.36C514.35 458 516 459.584 516 461.493V471.507C516 473.416 514.35 475 512.36 475ZM443.64 460.282C442.96 460.282 442.427 460.795 442.427 461.447V471.46C442.427 472.112 442.96 472.625 443.64 472.625H512.36C513.04 472.625 513.573 472.112 513.573 471.46V461.447C513.573 460.795 513.04 460.282 512.36 460.282H443.64Z" fill="#323433"/>
<path d="M497.408 489H565.592C566.941 489 568 490.117 568 491.54V502.46C568 503.883 566.941 505 565.592 505H497.408C496.059 505 495 503.883 495 502.46V491.54C495 490.168 496.059 489 497.408 489Z" fill="#F9C13D"/>
<path d="M565.312 506H496.64C494.65 506 493 504.323 493 502.301V491.699C493 489.677 494.65 488 496.64 488H565.36C567.35 488 569 489.677 569 491.699V502.301C568.951 504.323 567.35 506 565.312 506ZM496.64 490.416C495.96 490.416 495.427 490.959 495.427 491.649V502.252C495.427 502.942 495.96 503.485 496.64 503.485H565.36C566.04 503.485 566.573 502.942 566.573 502.252V491.649C566.573 490.959 566.04 490.416 565.36 490.416H496.64Z" fill="#323433"/>
<path d="M259.5 504C286.286 504 308 482.51 308 456C308 429.49 286.286 408 259.5 408C232.714 408 211 429.49 211 456C211 482.51 232.714 504 259.5 504Z" fill="#F9C13D"/>
<path d="M259.5 505C232.185 505 210 482.767 210 455.5C210 428.233 232.233 406 259.5 406C286.815 406 309 428.233 309 455.5C309 482.767 286.815 505 259.5 505ZM259.5 408.394C233.553 408.394 212.443 429.504 212.443 455.451C212.443 481.398 233.553 502.508 259.5 502.508C285.447 502.508 306.557 481.398 306.557 455.451C306.606 429.504 285.496 408.394 259.5 408.394Z" fill="#323433"/>
<path d="M259.5 491C279.106 491 295 475.106 295 455.5C295 435.894 279.106 420 259.5 420C239.894 420 224 435.894 224 455.5C224 475.106 239.894 491 259.5 491Z" fill="white"/>
<path d="M259.5 493C239.389 493 223 476.387 223 456C223 435.613 239.389 419 259.5 419C279.611 419 296 435.613 296 456C296 476.387 279.66 493 259.5 493ZM259.5 421.401C240.694 421.401 225.417 436.887 225.417 455.951C225.417 475.015 240.694 490.501 259.5 490.501C278.306 490.501 293.583 475.015 293.583 455.951C293.583 436.887 278.306 421.401 259.5 421.401Z" fill="#323433"/>
<path d="M270.139 468.522C268.232 470.276 265.472 471.348 261.809 471.738V477H257.844V471.786C255.485 471.64 253.227 471.202 251.069 470.519C248.961 469.837 247.255 468.96 246 467.888L248.158 463.162C249.362 464.088 250.818 464.867 252.524 465.549C254.23 466.183 255.987 466.573 257.844 466.767V457.412C255.535 456.876 253.678 456.291 252.123 455.658C250.617 455.024 249.312 454.099 248.309 452.832C247.255 451.614 246.753 449.957 246.753 447.959C246.753 445.425 247.706 443.281 249.613 441.478C251.52 439.676 254.281 438.652 257.844 438.311V433H261.809V438.214C263.615 438.311 265.372 438.604 267.078 439.091C268.784 439.578 270.29 440.26 271.595 441.04L269.638 445.766C267.178 444.402 264.569 443.574 261.809 443.233V452.686C264.117 453.221 266.024 453.806 267.58 454.44C269.085 455.073 270.39 455.999 271.444 457.217C272.498 458.435 273 460.092 273 462.09C273 464.575 272.046 466.719 270.139 468.522ZM254.23 450.054C255.084 450.688 256.288 451.224 257.844 451.662V443.33C256.188 443.574 254.983 444.061 254.18 444.841C253.377 445.571 252.976 446.497 252.976 447.618C252.976 448.641 253.428 449.47 254.23 450.054ZM265.623 465.159C266.426 464.429 266.877 463.552 266.877 462.48C266.877 461.408 266.426 460.579 265.572 459.946C264.719 459.312 263.465 458.776 261.859 458.338V466.621C263.515 466.378 264.77 465.89 265.623 465.159Z" fill="#323433"/>
<path d="M476 440H329V505H476V440Z" fill="white"/>
<path d="M477 506H328V438H476.952V506H477ZM330.423 503.531H474.529V440.469H330.423V503.531Z" fill="#323433"/>
<path d="M471 445H333V500H471V445Z" fill="white"/>
<path d="M471.951 501H332V443H472V501H471.951ZM334.426 498.536H469.574V445.464H334.426V498.536Z" fill="#323433"/>
<path d="M466 483.717V461.283C460.799 461.283 456.579 457.125 456.579 452H349.421C349.421 457.125 345.201 461.283 340 461.283V483.717C345.201 483.717 349.421 487.875 349.421 493H456.53C456.53 487.875 460.75 483.717 466 483.717Z" fill="#00B07A"/>
<path d="M456.303 494H348.697C348.007 494 347.464 493.461 347.464 492.775C347.464 488.267 343.767 484.592 339.232 484.592C338.542 484.592 338 484.053 338 483.368V460.633C338 459.947 338.542 459.408 339.232 459.408C343.767 459.408 347.464 455.733 347.464 451.225C347.464 450.539 348.007 450 348.697 450H456.303C456.993 450 457.536 450.539 457.536 451.225C457.536 455.733 461.233 459.408 465.768 459.408C466.458 459.408 467 459.947 467 460.633V483.368C467 484.053 466.458 484.592 465.768 484.592C461.233 484.592 457.536 488.267 457.536 492.775C457.536 493.412 456.993 494 456.303 494ZM349.83 491.55H455.12C455.663 486.65 459.606 482.78 464.535 482.192V461.759C459.606 461.22 455.712 457.301 455.12 452.401H349.83C349.288 457.301 345.345 461.171 340.415 461.759V482.192C345.345 482.731 349.288 486.65 349.83 491.55Z" fill="#323433"/>
<path d="M402.5 491C410.508 491 417 482.717 417 472.5C417 462.283 410.508 454 402.5 454C394.492 454 388 462.283 388 472.5C388 482.717 394.492 491 402.5 491Z" fill="white"/>
<path d="M402.5 492C393.955 492 387 483.264 387 472.5C387 461.736 393.955 453 402.5 453C411.045 453 418 461.736 418 472.5C418 483.264 411.045 492 402.5 492ZM402.5 455.413C395.346 455.413 389.484 463.088 389.484 472.5C389.484 481.912 395.296 489.587 402.5 489.587C409.704 489.587 415.516 481.912 415.516 472.5C415.516 463.088 409.704 455.413 402.5 455.413Z" fill="#323433"/>
<path d="M363 478C366.314 478 369 475.314 369 472C369 468.686 366.314 466 363 466C359.686 466 357 468.686 357 472C357 475.314 359.686 478 363 478Z" fill="white"/>
<path d="M362.5 479C358.372 479 355 475.852 355 472C355 468.148 358.372 465 362.5 465C366.627 465 369.999 468.148 369.999 472C370.05 475.852 366.677 479 362.5 479ZM362.5 467.302C359.731 467.302 357.517 469.416 357.517 471.953C357.517 474.49 359.782 476.604 362.5 476.604C365.218 476.604 367.483 474.49 367.483 471.953C367.483 469.416 365.268 467.302 362.5 467.302Z" fill="#323433"/>
<path d="M442 478C445.314 478 448 475.314 448 472C448 468.686 445.314 466 442 466C438.686 466 436 468.686 436 472C436 475.314 438.686 478 442 478Z" fill="white"/>
<path d="M442.5 479C438.372 479 435 475.852 435 472C435 468.148 438.372 465 442.5 465C446.628 465 450 468.148 450 472C450 475.852 446.628 479 442.5 479ZM442.5 467.302C439.732 467.302 437.517 469.416 437.517 471.953C437.517 474.49 439.782 476.604 442.5 476.604C445.218 476.604 447.483 474.49 447.483 471.953C447.483 469.416 445.268 467.302 442.5 467.302Z" fill="#323433"/>
<path d="M409.213 480.623C408.024 481.737 406.24 482.415 403.961 482.657V486H401.483V482.706C399.996 482.609 398.559 482.318 397.221 481.882C395.883 481.446 394.793 480.865 394 480.235L395.388 477.232C396.131 477.813 397.072 478.346 398.113 478.734C399.203 479.121 400.293 479.412 401.483 479.509V473.55C400.046 473.211 398.856 472.824 397.865 472.436C396.874 472.048 396.081 471.419 395.437 470.644C394.793 469.869 394.446 468.803 394.446 467.543C394.446 465.945 395.041 464.54 396.23 463.426C397.419 462.311 399.154 461.633 401.433 461.391V458H403.911V461.294C405.051 461.343 406.141 461.536 407.231 461.875C408.321 462.215 409.263 462.602 410.105 463.135L408.866 466.138C407.33 465.266 405.695 464.734 403.911 464.54V470.547C405.398 470.886 406.587 471.273 407.578 471.661C408.52 472.048 409.362 472.63 410.006 473.453C410.65 474.228 410.997 475.294 410.997 476.554C411.047 478.104 410.403 479.46 409.213 480.623ZM399.154 468.851C399.699 469.239 400.442 469.578 401.433 469.869V464.54C400.393 464.685 399.6 465.024 399.104 465.509C398.609 465.993 398.361 466.574 398.361 467.253C398.361 467.931 398.609 468.464 399.154 468.851ZM406.339 478.491C406.835 478.055 407.132 477.474 407.132 476.796C407.132 476.118 406.835 475.585 406.29 475.149C405.745 474.761 404.952 474.422 403.961 474.131V479.412C405.001 479.218 405.844 478.927 406.339 478.491Z" fill="#323433"/>
<path d="M671 225.138C671 225.138 632.918 248.645 588 214.364L594.103 196L667.094 206.039L671 225.138Z" fill="#F37C40"/>
<path d="M638.569 235C624.864 235 606.411 230.991 586.685 215.464L586 214.906L592.706 194L667.742 204.656L672 226.171L671.266 226.627C670.874 226.881 661.33 232.869 646.058 234.543C643.806 234.848 641.261 235 638.569 235ZM588.888 213.993C611.55 231.6 632.304 233.579 645.813 232.108C658.197 230.738 666.812 226.374 669.259 225.004L665.686 206.99L594.37 196.842L588.888 213.993Z" fill="#323433"/>
<path d="M548 412.885C548 412.885 554.741 419.829 564.852 419.981C570.293 420.083 582.667 419.981 586.037 413.899L587 405.788L550.456 403L548 412.885Z" fill="#F37C40"/>
<path d="M567.176 421C566.448 421 565.818 421 565.284 421C554.76 420.852 547.776 414.06 547.485 413.764L547 413.272L549.91 402L589 404.855L587.836 414.256L587.691 414.453C584.247 420.459 572.898 421 567.176 421ZM549.716 412.484C551.413 413.961 557.33 418.44 565.333 418.539C576.487 418.687 583.229 416.964 585.508 413.469L586.284 407.119L551.753 404.56L549.716 412.484Z" fill="#323433"/>
<path d="M670.836 412.482C670.836 412.482 676.123 415.508 691.503 406.933C691.503 406.933 701.597 400.88 704 393.818L697.319 386L668 400.628L670.836 412.482Z" fill="#F37C40"/>
<path d="M673.355 414C671.032 414 669.968 413.46 669.677 413.313L669.194 413.068L666 400.064L697.21 385L705 393.832L704.758 394.519C702.194 401.733 692.081 407.67 691.645 407.915C682.452 412.871 676.694 414 673.355 414ZM671.323 411.301C672.871 411.694 678.484 412.283 690.532 405.756C690.581 405.707 699.629 400.408 702.29 394.323L696.677 387.944L668.855 401.34L671.323 411.301Z" fill="#323433"/>
<path d="M554.068 404.913C554.068 404.913 551.849 419.433 541.299 422.462C535.136 424.192 523.796 425.923 520 434L567.823 433.952L573 404L554.068 404.913Z" fill="white"/>
<path d="M518 435L518.783 433.343C522.206 426.006 531.254 423.734 537.857 422.077C538.884 421.84 539.813 421.556 540.693 421.32C550.279 418.621 552.48 405.13 552.529 404.988L552.676 404.041L574 403L568.424 434.905L518 435ZM554.73 406.314C553.996 409.722 550.915 420.893 541.378 423.592C540.498 423.828 539.52 424.065 538.493 424.349C532.966 425.722 525.581 427.615 522.01 432.633L566.321 432.586L571.017 405.556L554.73 406.314Z" fill="#323433"/>
<path d="M676 397.453C676 397.453 681.495 412.746 681.495 419.684C681.495 426.622 681.495 426.085 681.495 426.085C681.495 426.085 672.485 428.039 671 434H695.01L706 407.322L692.931 389L676 397.453Z" fill="white"/>
<path d="M695.693 435H670L670.385 433.509C671.732 428.169 678.131 425.812 680.585 425.09V419.702C680.585 413.16 675.341 398.391 675.293 398.247L674.956 397.236L693.335 388L707 407.435L695.693 435ZM673.32 432.595H694.105L704.257 407.676L692.518 391.031L677.891 398.391C679.094 401.903 682.943 413.689 682.943 419.654V426.004H681.74L681.981 427.159C681.981 427.207 675.581 428.698 673.32 432.595Z" fill="#323433"/>
<path d="M635 197.181L587.304 414C587.304 414 567.635 402.333 546 412.542L599.105 186L635 197.181Z" fill="#323433"/>
<path d="M666.45 191L655.234 274.643L705 394.728C705 394.728 694.707 391.744 682.472 398.396C670.819 404.755 669.168 414 669.168 414L615.47 286.383C613.528 281.491 611.78 278.312 612.023 272.1L615.858 196.87L666.45 191Z" fill="#323433"/>
<path d="M642 116.755L640.47 87.7947L638.249 62.9998L613.476 63.1468C613.476 63.1468 597.586 98.4771 619.941 96.566L617.227 117L642 116.755Z" fill="white"/>
<path d="M616.157 119L618.902 98.4481C614.561 98.4976 611.317 97.111 609.321 94.3377C602.735 85.1266 612.215 63.7826 612.615 62.8912L612.964 62.1483L640.008 61.9998L642.353 88.197L644 118.802L616.157 119ZM621.796 95.7739L619.051 116.524L641.405 116.326L639.908 88.3455L637.763 64.4759L614.66 64.6244C613.064 68.3881 606.278 85.7209 611.417 92.9016C613.114 95.2786 616.008 96.2691 620.299 95.9224L621.796 95.7739Z" fill="#323433"/>
<path d="M605.006 62.6338C604.763 57.7535 612.437 57.8521 612.437 57.8521C610.154 57.0634 609.572 55.6831 609.766 54.6479C610.786 48.7817 622.152 53.8592 622.152 53.8592C620.015 51.2958 623.56 51 623.56 51C627.883 51 635.169 54.7465 640.172 57.6549C641.969 57.9014 664.216 61.5 642.649 93C642.649 93 635.898 92.4085 635.898 82.993C635.898 82.993 639.978 77.1761 634.635 75.5986C633.615 75.3028 632.498 75.6479 631.818 76.4859C630.895 77.6197 630.312 78.6056 630.021 79.2465C629.778 79.7887 629.243 80.0845 628.709 80.0352H628.223C627.495 79.9859 627.398 79.2958 627.446 78.5563L627.835 73.6268C617.926 72.3451 605.249 67.2676 605.006 62.6338Z" fill="#323433"/>
<path d="M573.15 139L563.521 155.808L557.744 143.449H551.003C551.003 143.449 550.522 180.032 561.114 183.492C566.361 185.222 572.668 183.987 590 155.808L573.15 139Z" fill="white"/>
<path d="M564.211 185C563.144 185 562.078 184.803 561.059 184.458C556.161 182.883 552.815 175.4 551.117 162.206C549.905 152.705 550.002 143.498 550.002 143.4V142.169H558.731L563.92 153.098L573.232 137L592 155.511L591.467 156.348C577.548 178.797 570.274 185 564.211 185ZM552.427 144.631C552.427 155.265 554.027 179.585 561.787 182.095C566.345 183.572 572.165 182.735 588.945 155.905L573.765 140.938L563.678 158.317L557.228 144.631H552.427Z" fill="#323433"/>
<path d="M618.281 104C618.281 104 620.728 118.172 641.775 104L666.394 114.605C669.918 116.12 672.904 118.759 674.764 122.131L687 144.318L666.932 156.047L670.848 223C670.848 223 629.734 191.723 587.641 212.737L594.494 157.513L590.578 160.934L571 140.409L588.865 118.759C590.627 116.609 592.927 114.898 595.473 113.774L618.281 104Z" fill="#F37C40"/>
<path d="M672.504 226L670.387 224.378C670.288 224.28 659.997 216.564 644.683 211.452C630.65 206.783 609.427 203.441 587.958 214.156L585.89 215.188L592.685 160.584L590.272 162.698L569 140.434L587.662 117.826C589.583 115.516 592.045 113.648 594.802 112.469L619.127 102L619.373 103.524C619.423 103.671 620.063 106.964 623.214 108.291C625.922 109.422 631.24 109.372 641.138 102.737L641.679 102.344L667.088 113.255C670.879 114.877 674.08 117.777 676.099 121.364L689 144.71L668.417 156.751L672.504 226ZM618.536 204.572C628.828 204.572 638.134 206.685 645.52 209.143C657.24 213.074 665.906 218.382 669.747 220.938L665.906 155.375L685.701 143.825L673.932 122.544C672.16 119.399 669.402 116.892 666.103 115.516L641.926 105.146C633.506 110.699 626.858 112.518 622.229 110.552C619.373 109.323 617.995 106.964 617.404 105.441L595.787 114.73C593.374 115.762 591.257 117.384 589.583 119.349L572.299 140.286L590.42 159.307L595.885 154.539L588.893 211.059C599.135 206.292 609.23 204.572 618.536 204.572Z" fill="#323433"/>
<path d="M686.627 145.269C686.627 145.269 697.563 167.954 694.439 174.177C691.997 179.077 682.769 181.33 669.05 175.647C655.183 169.914 615.83 150.169 615.83 150.169C615.83 150.169 607.042 152.129 604.112 148.699C604.112 148.699 601.671 145.269 602.648 140.859H592.883C592.883 140.859 588.977 140.859 588 137.43L606.554 134L622.178 138.9L663.191 152.129L686.627 145.269Z" fill="white"/>
<path d="M684.448 180C680.337 180 675.247 178.96 669.374 176.532C656.305 171.083 620.429 153.003 616.318 150.922C614.262 151.319 606.823 152.508 603.788 148.941L603.739 148.842C603.641 148.693 601.488 145.622 601.83 141.412H593.461C591.797 141.412 588.37 140.52 587.392 137.052L587 135.764L607.214 132L623.17 137.052L663.941 150.328L688.07 143.195L688.511 144.136C689.637 146.563 699.621 167.814 696.342 174.452C694.825 177.672 690.713 180 684.448 180ZM616.66 148.347L617.052 148.545C617.443 148.743 656.599 168.557 670.303 174.254C683.078 179.603 691.986 177.82 694.188 173.362C696.195 169.3 690.86 154.935 686.798 146.167L663.941 152.904L622.485 139.43L607.116 134.576L590.426 137.696C591.552 138.984 593.363 139.034 593.461 139.034H604.767L604.424 140.52C603.641 144.136 605.403 147.059 605.648 147.405C607.704 149.734 613.919 148.941 616.171 148.446L616.66 148.347Z" fill="#323433"/>
<path d="M566.926 154.062L564.622 154.86L569.008 167.539L571.312 166.741L566.926 154.062Z" fill="#323433"/>
<path d="M547.322 113.018L576.621 117.5C577.061 117.549 577.403 117.841 577.501 118.28L590.952 162.568C591.197 163.396 590.463 164.127 589.632 163.981L561.262 157.696C560.871 157.598 560.577 157.355 560.431 156.965L546.05 114.43C545.806 113.651 546.49 112.871 547.322 113.018Z" fill="white"/>
<path d="M589.668 166C589.519 166 589.321 166 589.123 165.951L560.406 159.599C559.614 159.402 558.92 158.811 558.673 158.073L544.116 115.09C543.868 114.302 544.017 113.465 544.562 112.825C545.106 112.185 545.899 111.889 546.74 112.037L576.398 116.567C577.29 116.715 578.032 117.355 578.28 118.192L591.896 162.947C592.143 163.735 591.945 164.621 591.351 165.212C590.955 165.754 590.311 166 589.668 166ZM561.049 157.236L589.519 163.538L576.002 119.029L546.592 114.548L561.049 157.236Z" fill="#323433"/>
<path d="M544.322 113.018L573.621 117.5C574.061 117.549 574.403 117.842 574.501 118.28L587.952 162.569C588.197 163.397 587.463 164.128 586.632 163.981L558.262 157.696C557.871 157.599 557.577 157.355 557.431 156.965L543.05 114.431C542.806 113.651 543.49 112.872 544.322 113.018Z" fill="white"/>
<path d="M586.716 165C586.571 165 586.377 165 586.183 164.952L558.064 158.718C557.288 158.525 556.609 157.945 556.367 157.22L542.114 115.033C541.871 114.26 542.017 113.438 542.55 112.81C543.083 112.182 543.859 111.892 544.683 112.037L573.723 116.483C574.596 116.627 575.323 117.256 575.566 118.077L588.898 162.004C589.14 162.777 588.946 163.647 588.365 164.227C587.977 164.758 587.347 165 586.716 165ZM558.694 156.398L586.571 162.584L573.335 118.899L544.538 114.501L558.694 156.398Z" fill="#323433"/>
<path d="M548.641 133.813C548.879 133.11 549.641 132.782 550.307 133.157L556.301 136.297C556.301 136.297 566.768 141.451 561.535 146.606C559.156 148.949 554.351 147.824 551.639 146.934C550.307 146.465 549.308 145.434 548.927 144.122C548.213 141.685 547.404 137.609 548.641 133.813Z" fill="white"/>
<path d="M557.252 149C555.255 149 553.12 148.449 551.309 147.853C549.684 147.302 548.384 145.972 547.919 144.32C547.13 141.567 546.434 137.484 547.687 133.584C547.919 132.942 548.384 132.437 549.034 132.162C549.684 131.933 550.38 131.933 550.984 132.254L556.834 135.328C557.484 135.649 563.241 138.585 563.938 142.669C564.124 143.816 563.984 145.513 562.22 147.211C560.874 148.541 559.109 149 557.252 149ZM549.87 134.318C548.755 137.805 549.544 141.659 550.148 143.678C550.427 144.641 551.123 145.375 552.052 145.697C553.955 146.339 558.552 147.624 560.502 145.651C561.338 144.825 561.709 143.953 561.57 143.081C561.152 140.604 557.206 138.126 555.72 137.392L549.87 134.318Z" fill="#323433"/>
<path d="M615.117 286C610.691 279.899 610.973 268.521 611.02 268.037L614.034 208L616.388 208.145L613.375 268.134C613.375 268.231 613.092 279.125 617 284.547L615.117 286Z" fill="white"/>
<path d="M657.142 148.303L656.382 150.621L671.67 155.643L672.43 153.325L657.142 148.303Z" fill="#323433"/>
<path d="M768 504H75V507H768V504Z" fill="#323433"/>
<path d="M268.5 139C301.913 139 329 111.69 329 78.0002C329 44.3109 301.913 17.0002 268.5 17.0002C235.087 17.0002 208 44.3109 208 78.0002C208 111.69 235.087 139 268.5 139Z" fill="white"/>
<path d="M268.5 140C234.602 140 207 112.173 207 78C207 43.8268 234.602 16 268.5 16C302.398 16 330 43.8268 330 78C330 112.173 302.398 140 268.5 140ZM268.5 18.3921C235.91 18.3921 209.421 45.0961 209.421 77.9512C209.421 110.806 235.91 137.51 268.5 137.51C301.09 137.51 327.579 110.806 327.579 77.9512C327.579 45.1449 301.09 18.3921 268.5 18.3921Z" fill="#323433"/>
<path d="M291 72.9995H282.145V62.8684C282.145 55.2454 276.048 48.9995 268.5 48.9995C260.952 48.9995 254.855 55.1962 254.855 62.8684V72.9995H246V62.8684C246 50.2782 256.113 39.9995 268.5 39.9995C280.887 39.9995 291 50.2782 291 62.8684V72.9995Z" fill="white"/>
<path d="M292 73.9998H280.826V62.7862C280.826 55.893 275.31 50.3104 268.5 50.3104C261.69 50.3104 256.174 55.893 256.174 62.7862V73.9998H245V62.7862C245 49.6794 255.551 38.9998 268.5 38.9998C281.449 38.9998 292 49.6794 292 62.7862V73.9998ZM283.176 71.5726H289.554V62.7862C289.554 50.99 280.106 41.4269 268.452 41.4269C256.798 41.4269 247.35 50.99 247.35 62.7862V71.5726H253.729V62.7862C253.729 54.5823 260.347 47.8833 268.452 47.8833C276.557 47.8833 283.176 54.5823 283.176 62.7862V71.5726Z" fill="#323433"/>
<path d="M240 112.739V73.2605C240 71.4818 241.429 69.9995 243.252 69.9995H293.749C295.522 69.9995 297 71.4324 297 73.2605V112.739C297 114.517 295.571 116 293.749 116H243.202C241.429 115.95 240 114.517 240 112.739Z" fill="#00B07A"/>
<path d="M293.552 117H243.448C241.004 117 239 114.994 239 112.547V73.4524C239 71.0059 241.004 68.9998 243.448 68.9998H293.552C295.996 68.9998 298 71.0059 298 73.4524V112.547C298 115.043 295.996 117 293.552 117ZM243.448 71.4952C242.373 71.4952 241.444 72.3759 241.444 73.5013V112.596C241.444 113.673 242.324 114.602 243.448 114.602H293.552C294.627 114.602 295.556 113.721 295.556 112.596V73.5013C295.556 72.4248 294.676 71.4952 293.552 71.4952H243.448Z" fill="#323433"/>
<path d="M275 87.1727C275 83.5879 272.086 80.7297 268.56 81.0204C265.599 81.2141 263.201 83.7332 263.013 86.7852C262.872 89.0136 263.859 90.9998 265.458 92.2109L264.189 103.45C264.094 104.273 264.706 105 265.505 105H272.509C273.308 105 273.919 104.273 273.825 103.45L272.556 92.2109C274.06 90.9998 275 89.2074 275 87.1727Z" fill="white"/>
<path d="M272.874 106H265.091C264.308 106 263.524 105.666 263.002 105.142C262.479 104.618 262.218 103.855 262.323 103.14L263.628 92.6996C261.8 91.2218 260.86 89.0289 261.017 86.7883C261.278 83.1653 264.464 80.2573 268.434 80.019C270.68 79.8759 272.821 80.5433 274.441 81.9735C276.06 83.356 277 85.3105 277 87.3127C277 89.3626 276.008 91.3648 274.336 92.6996L275.642 103.14C275.746 103.855 275.485 104.57 274.963 105.142C274.441 105.666 273.657 106 272.874 106ZM269.008 82.4025C268.904 82.4025 268.747 82.4025 268.643 82.4025C265.979 82.5932 263.837 84.5478 263.681 86.9313C263.576 88.5999 264.36 90.2207 265.874 91.2218L266.501 91.6508L264.987 103.426C264.987 103.473 264.987 103.521 265.039 103.569C265.091 103.616 265.143 103.616 265.195 103.616H272.874C272.926 103.616 272.978 103.616 273.03 103.569C273.083 103.521 273.083 103.473 273.083 103.426L271.568 91.6508L272.195 91.2218C273.605 90.2684 274.388 88.8382 274.388 87.265C274.388 85.8826 273.762 84.6431 272.665 83.6897C271.672 82.8793 270.366 82.4025 269.008 82.4025Z" fill="#323433"/>
<path d="M227.855 102.999L223.48 99.2916L241.401 99.2916C242.4 99.2983 243.39 99.117 244.313 98.7583C245.236 98.3997 246.073 97.871 246.774 97.2037C247.738 96.3261 248.428 95.2182 248.77 93.9998C248.926 94.6006 249.004 95.2172 249 95.8357L249 96.0517C248.948 97.9226 248.114 99.6994 246.678 100.999C245.242 102.299 243.32 103.017 241.325 102.999L227.778 102.999L227.855 102.999ZM163 99.2916L167.336 102.999L163 102.999L163 99.2916Z" fill="#5E5E5E"/>
<path fill-rule="evenodd" clip-rule="evenodd" d="M249.747 94.0106L248.272 93.9998C247.963 94.9948 247.341 95.8995 246.471 96.6162L246.465 96.6212L246.459 96.6263C245.825 97.1721 245.069 97.6044 244.235 97.8977C243.401 98.191 242.506 98.3392 241.604 98.3337L241.598 98.3337L221.6 98.3337L227.466 102.833L227.899 102.426L227.899 102.999L241.518 102.999C243.722 103.016 245.846 102.298 247.433 100.998C249.02 99.6977 249.942 97.9201 250 96.0482L250 96.0398L250 95.8366C250.004 95.2214 249.919 94.6082 249.747 94.0106ZM228.269 101.708L241.521 101.708L241.528 101.708C243.335 101.722 245.076 101.134 246.376 100.069C247.484 99.1609 248.196 97.969 248.412 96.6875C248.149 96.9895 247.856 97.2741 247.537 97.538C246.762 98.2044 245.837 98.7324 244.818 99.091C243.797 99.4501 242.701 99.6318 241.596 99.6254L225.554 99.6254L228.269 101.708ZM162 97.5169L162 102.999L169.085 102.999L162 97.5169ZM165.157 101.708L163.522 101.708L163.522 100.442L165.157 101.708Z" fill="#323433"/>
<path d="M223.564 99.9996L211 87.9998L241.562 87.9998C243.259 88.0114 244.906 88.6086 246.25 89.6998C247.593 90.791 248.56 92.3157 249 94.0402C248.657 95.4124 247.964 96.6599 246.996 97.6482C246.292 98.3998 245.451 98.9952 244.525 99.3991C243.598 99.8029 242.604 100.007 241.6 99.9996L223.564 99.9996Z" fill="#5E5E5E"/>
<path fill-rule="evenodd" clip-rule="evenodd" d="M241.726 86.9998L209 86.9998L223.324 99.9996L241.762 99.9996C242.872 100.007 243.973 99.7922 244.999 99.3673C246.023 98.9432 246.952 98.3184 247.731 97.53C248.802 96.4892 249.568 95.1764 249.948 93.7328L250 93.5364L249.947 93.3402C249.461 91.5301 248.394 89.9296 246.909 88.7843C245.425 87.6389 243.606 87.012 241.731 86.9998L241.726 86.9998ZM241.723 88.5279C243.263 88.5384 244.756 89.0534 245.975 89.9938C247.14 90.8931 247.993 92.1339 248.415 93.5402C248.089 94.6401 247.485 95.6389 246.66 96.4395L246.654 96.4454L246.648 96.4514C246.012 97.0971 245.252 97.6086 244.414 97.9556C243.576 98.3025 242.677 98.478 241.77 98.4715L241.765 98.4714L223.914 98.4714L212.958 88.5279L241.723 88.5279Z" fill="#323433"/>
<path d="M163 103.427L241.324 103.427C243.319 103.446 245.241 102.678 246.677 101.289C248.113 99.8993 248.947 97.9999 248.999 95.9998L248.999 154.341C249.017 155.35 248.829 156.352 248.446 157.285C248.063 158.219 247.494 159.063 246.773 159.768C246.072 160.481 245.235 161.046 244.312 161.43C243.389 161.813 242.399 162.007 241.4 162L163.115 162L163 103.427Z" fill="#F9C13D"/>
<path fill-rule="evenodd" clip-rule="evenodd" d="M249.999 96.0194L248.477 95.9998C248.43 97.7799 247.675 99.4705 246.375 100.707C245.075 101.944 243.334 102.627 241.528 102.61L241.52 102.61L162 102.61L162.119 162L241.595 162C242.7 162.007 243.796 161.796 244.817 161.379C245.836 160.963 246.761 160.35 247.536 159.576C248.333 158.809 248.962 157.891 249.386 156.876C249.809 155.861 250.018 154.771 249.999 153.674L249.999 96.0194ZM248.477 100.581L248.477 153.687L248.477 153.694C248.494 154.589 248.324 155.478 247.978 156.305C247.633 157.133 247.119 157.882 246.469 158.507L246.463 158.512L246.458 158.517C245.824 159.151 245.068 159.653 244.234 159.994C243.4 160.334 242.506 160.506 241.603 160.5L241.597 160.5L163.637 160.5L163.525 104.11L241.517 104.11C243.721 104.13 245.845 103.295 247.432 101.786C247.821 101.416 248.171 101.012 248.477 100.581Z" fill="#323433"/>
<path d="M180.376 63.273C181.835 61.6574 183.365 61.5793 184.981 63.0388L211.829 87.4291L224.551 98.9803L229 103L167.576 103L163.166 98.9803L157.273 93.6339C155.658 92.1744 155.58 90.6446 157.039 89.029L180.376 63.273Z" fill="#00B07A"/>
<path fill-rule="evenodd" clip-rule="evenodd" d="M179.649 62.5073C179.649 62.5074 179.649 62.5073 179.649 62.5073L156.241 87.9372C155.43 88.821 154.951 89.7861 155.004 90.816C155.057 91.8457 155.633 92.7578 156.531 93.556C156.531 93.5562 156.531 93.5558 156.531 93.556L162.441 98.8341L167.084 103L231 103L225.051 97.7092L225.05 97.7079L212.291 86.3044L185.36 62.2231L185.358 62.2217C184.46 61.4233 183.48 60.9513 182.433 61.0037C181.387 61.0561 180.46 61.6237 179.649 62.5073ZM184.322 63.3479C184.323 63.3482 184.323 63.3486 184.323 63.349L211.253 87.4289L224.013 98.8339L226.989 101.481L167.682 101.481L163.478 97.709L157.568 92.4304L157.566 92.4293C156.844 91.7866 156.571 91.2231 156.546 90.7388C156.521 90.2546 156.734 89.6669 157.387 88.9555L180.795 63.5257C181.448 62.8142 182.02 62.5456 182.512 62.521C183.004 62.4964 183.6 62.7061 184.322 63.3479Z" fill="#323433"/>
<path d="M184 132.5C184 135.538 181.314 138 178 138C174.686 138 172 135.538 172 132.5C172 129.462 174.686 127 178 127C181.314 127 184 129.462 184 132.5Z" fill="#F37C40"/>
<path fill-rule="evenodd" clip-rule="evenodd" d="M178 136.167C180.209 136.167 182 134.525 182 132.5C182 130.475 180.209 128.833 178 128.833C175.791 128.833 174 130.475 174 132.5C174 134.525 175.791 136.167 178 136.167ZM178 138C181.314 138 184 135.538 184 132.5C184 129.462 181.314 127 178 127C174.686 127 172 129.462 172 132.5C172 135.538 174.686 138 178 138Z" fill="#323433"/>
</svg>
