<svg width="137" height="50" viewBox="0 0 137 50" fill="none" xmlns="http://www.w3.org/2000/svg">
<path d="M49.332 15.0508V30.1016H53.0344H56.7367L56.7474 24.049L56.7635 18.0019L56.8869 17.5995C57.3377 16.1346 58.4001 15.3888 59.7791 15.5605C60.8093 15.6946 61.4317 16.2312 61.7912 17.3043L61.9146 17.6799L61.9307 23.8881L61.9414 30.1016H65.6438H69.3461V23.373C69.3461 19.0965 69.3247 16.3868 69.2871 15.9522C68.9652 12.0352 66.9369 9.49724 63.6316 8.87482C62.9019 8.73531 61.3727 8.73531 60.6912 8.86946C59.2747 9.15384 58.1694 9.74407 57.1713 10.7421L56.6831 11.2357V5.61784V-5.88838e-05H53.0075H49.332V15.0508Z" fill="#53599A"/>
<path d="M128.106 0.118447C128.015 0.349173 124.908 7.86116 121.716 15.561C120.997 17.2887 120.401 18.7428 120.39 18.7911C120.364 18.8823 120.594 18.8877 124.726 18.8877L129.094 18.8823L130.07 16.5107C130.607 15.2068 132.34 11.0108 133.923 7.19045C135.506 3.37007 136.826 0.188202 136.852 0.118447L136.901 0.000401825H132.528H128.155L128.106 0.118447Z" fill="#53599A"/>
<path d="M33.1117 8.79995C30.6917 9.10579 28.5723 10.238 26.984 12.0891C26.3241 12.8564 25.9055 13.4896 25.428 14.4608C24.6017 16.1295 24.2207 17.7929 24.2207 19.7192C24.2207 24.5644 26.9358 28.7121 31.0298 30.1286C32.7844 30.7296 34.8663 30.7994 36.5189 30.3111C37.7477 29.9462 38.7725 29.3184 39.513 28.4706L39.7813 28.1648V29.1306V30.1018H43.3495H46.9176L46.9069 19.6762L46.8908 9.25603L43.3387 9.23994L39.7813 9.22921V10.195V11.1609L39.3359 10.7155C38.4291 9.8087 37.2003 9.18628 35.7731 8.90726C35.1238 8.77849 33.7341 8.71946 33.1117 8.79995ZM36.7818 15.5554C38.9066 16.1027 40.2266 18.1738 39.8832 20.4006C39.5237 22.7293 37.3238 24.3015 34.9521 23.9312C32.1673 23.4913 30.6005 20.6528 31.6737 17.9807C32.1727 16.7412 33.4229 15.7485 34.8233 15.4803C35.3653 15.3783 36.2345 15.4105 36.7818 15.5554Z" fill="#53599A"/>
<path d="M80.7476 8.81045C80.0501 8.88021 79.0306 9.09484 78.3438 9.3202C74.3839 10.5972 71.6152 13.8703 71.0089 17.9858C70.8104 19.3272 70.8908 21.2213 71.1967 22.434C72.1196 26.0988 74.7059 28.8728 78.317 30.064C80.8657 30.9064 83.9778 30.8099 86.4621 29.8065C89.5742 28.5509 91.8654 26.0075 92.7668 22.8096C93.1424 21.4628 93.2712 19.6653 93.0888 18.2434C92.74 15.4639 91.4522 13.0601 89.3864 11.3323C87.0899 9.40605 83.9402 8.48851 80.7476 8.81045ZM82.9315 15.5873C83.7095 15.7483 84.3641 16.1025 84.9383 16.6605C85.6895 17.3956 86.1026 18.3078 86.1777 19.4024C86.3173 21.4843 85.0134 23.3086 83.0495 23.7754C82.3681 23.9364 81.3164 23.8988 80.694 23.6949C78.9018 23.094 77.8019 21.436 77.8931 19.4775C77.9843 17.5029 79.3096 15.9361 81.2091 15.5659C81.5847 15.4908 82.5398 15.5015 82.9315 15.5873Z" fill="#53599A"/>
<path d="M104.305 8.80996C103.017 8.93874 101.52 9.368 100.388 9.93676C97.0987 11.584 95.0061 14.5566 94.5393 18.2429C94.4266 19.1282 94.4534 20.8399 94.5876 21.5964C95.1134 24.4725 96.5246 26.8065 98.7514 28.4592C101.531 30.5303 105.464 31.1903 108.973 30.1762C112.708 29.0923 115.476 26.2163 116.431 22.4335C116.85 20.7862 116.823 18.4038 116.372 16.7512C115.17 12.3084 111.49 9.26068 106.778 8.8046C106.097 8.73484 104.997 8.74021 104.305 8.80996ZM106.827 15.6673C108.174 16.0966 109.102 17.0141 109.553 18.3609C109.708 18.8331 109.719 18.9082 109.719 19.6916C109.719 20.4857 109.714 20.5448 109.547 21.033C109.456 21.3121 109.29 21.6984 109.177 21.8862C108.764 22.5891 107.991 23.2652 107.256 23.5657C106.655 23.8125 106.44 23.85 105.566 23.85C104.772 23.85 104.713 23.8393 104.251 23.6783C103.575 23.4476 103.141 23.174 102.663 22.7018C101.799 21.8379 101.375 20.6843 101.45 19.4233C101.574 17.5024 102.824 16.0107 104.68 15.5815C105.179 15.4688 106.349 15.5117 106.827 15.6673Z" fill="#53599A"/>
<path d="M0.412519 9.29383C0.782753 10.1631 2.12955 13.3342 3.03635 15.4805C3.6856 17.0151 4.76411 19.5477 5.42409 21.1145C6.08944 22.6759 7.02844 24.8973 7.51672 26.0509C8.005 27.1992 8.60595 28.6211 8.85278 29.206L9.30886 30.263L7.72061 34.0137C6.85137 36.0795 6.13773 37.7804 6.13773 37.7965C6.13773 37.8126 7.89232 37.8233 10.0386 37.8179L13.9448 37.8018L15.2916 34.5556C16.0321 32.7688 17.2233 29.8982 17.9423 28.1704C18.6559 26.4426 20.2442 22.6169 21.4676 19.6657C24.7728 11.6977 25.7762 9.27774 25.7762 9.25091C25.7762 9.24018 24.027 9.22945 21.8968 9.22945H18.012L15.6028 15.341C14.2775 18.7053 13.1775 21.4364 13.1614 21.4203C13.1453 21.3989 12.1205 18.7965 10.8864 15.6415C9.65763 12.4811 8.58449 9.74992 8.51474 9.56212L8.38059 9.22945H4.38314C1.20664 9.22945 0.391056 9.24554 0.412519 9.29383Z" fill="#53599A"/>
<path d="M121.666 20.8195C119.805 21.2112 118.372 22.5473 117.841 24.3984C117.674 24.9672 117.664 26.3301 117.819 26.9096C118.19 28.2886 119.129 29.4261 120.389 30.0217C121.092 30.3544 121.527 30.4456 122.466 30.4402C123.459 30.4402 123.866 30.349 124.693 29.9466C125.642 29.4797 126.383 28.7393 126.866 27.7681C127.279 26.9418 127.365 26.5447 127.365 25.5145C127.37 24.7311 127.354 24.613 127.22 24.1784C126.732 22.5741 125.642 21.458 124.076 20.9536C123.668 20.8195 123.523 20.8034 122.761 20.7873C122.289 20.7766 121.795 20.7927 121.666 20.8195Z" fill="#53599A"/>
<path d="M61.3237 32.044C60.3793 32.2211 59.5691 33.0635 59.4189 34.0186C59.3116 34.7376 59.5638 35.5103 60.0789 36.0254C61.3774 37.3239 63.5398 36.798 64.1139 35.0435C64.2641 34.5874 64.2105 33.8791 63.9958 33.4123C63.7597 32.9186 63.3627 32.5055 62.8851 32.2747C62.3217 31.9957 61.8925 31.9313 61.3237 32.044Z" fill="#53599A"/>
<path d="M55.208 32.1621C53.4427 32.4572 52.2622 33.2621 51.57 34.6357C51.1783 35.4137 51.0174 36.0952 50.9637 37.1683L50.9262 37.882H50.1589H49.3916L49.3755 39.599L49.3594 41.316H50.1535H50.9423V45.5013V49.6865H53.0885H55.2348V45.5013V41.316H56.6836H58.1323V39.599V37.882H56.6782H55.2187L55.2456 37.4366C55.2831 36.8571 55.4334 36.503 55.7821 36.1918C56.3133 35.7142 57.1128 35.6445 58.2021 35.9879C58.2879 36.0147 58.2933 35.9074 58.2933 34.244V32.4733L58.0733 32.3875C57.4401 32.1353 56.0397 32.0226 55.208 32.1621Z" fill="#53599A"/>
<path d="M72.822 37.5654C72.2586 37.6244 72.0225 37.6942 71.5074 37.941C71.0674 38.1503 70.4987 38.6332 70.2143 39.0356L70.1016 39.1966L70.0962 38.5366V37.882H67.9231H65.75L65.7607 43.7681L65.7768 49.6597L67.9338 49.6758L70.0909 49.6865L70.107 46.1881L70.1231 42.6843L70.2787 42.3516C70.4557 41.9653 70.783 41.6326 71.0942 41.5253C71.3947 41.4233 71.9045 41.4341 72.1996 41.5467C72.5054 41.6648 72.8381 42.0189 72.9776 42.3784C73.0635 42.6092 73.0742 42.9043 73.0903 46.1559L73.1064 49.6865H75.2527H77.399L77.3775 45.3832C77.3614 41.1282 77.3614 41.0692 77.2433 40.6238C77.0931 40.0551 76.7819 39.4005 76.4653 38.9712C75.7088 37.9571 74.2815 37.4044 72.822 37.5654Z" fill="#53599A"/>
<path d="M83.5925 37.5602C81.2263 37.8177 79.3858 39.583 78.7741 42.1961C78.6185 42.8669 78.6078 44.541 78.7527 45.2331C79.3161 47.8677 81.0921 49.6384 83.4906 49.9603C84.9608 50.1535 86.5598 49.6276 87.37 48.6833L87.59 48.4257V49.0535V49.6867H89.7094H91.8289V43.7844V37.8821H89.7094H87.59V38.4723V39.0679L87.2841 38.7514C86.9354 38.4079 86.4954 38.1021 86.0715 37.9143C85.4169 37.6246 84.3759 37.4743 83.5925 37.5602ZM86.1412 41.5254C86.8495 41.7991 87.3915 42.3625 87.5953 43.0439C87.8153 43.7683 87.6705 44.6214 87.2251 45.2063C86.7851 45.7858 86.2003 46.0863 85.4115 46.1292C84.612 46.1775 84.0003 45.9414 83.4852 45.3834C82.793 44.6375 82.6428 43.661 83.0774 42.7327C83.3672 42.1103 83.9735 41.6166 84.6657 41.4396C85.0466 41.343 85.7764 41.3859 86.1412 41.5254Z" fill="#53599A"/>
<path d="M100.703 37.56C99.7371 37.662 98.8624 38.1127 98.3098 38.778C98.1649 38.9497 98.0522 39.1053 98.0522 39.1268C98.0522 39.1536 98.0308 39.1697 97.9986 39.1697C97.9664 39.1697 97.9449 38.9175 97.9449 38.5259V37.882H95.7986H93.6523V43.7842V49.6865H95.7986H97.9449V46.4778C97.9449 43.1243 97.9664 42.7809 98.181 42.3087C98.4386 41.7453 98.8785 41.4609 99.501 41.4555C100 41.4555 100.381 41.6272 100.628 41.9706C100.977 42.4482 100.971 42.3838 100.993 46.2095L101.009 49.6865H103.155H105.296V45.7535C105.296 41.6004 105.28 41.2033 105.044 40.4038C104.475 38.4346 102.796 37.3347 100.703 37.56Z" fill="#53599A"/>
<path d="M112.192 37.5654C110.416 37.7049 108.731 38.5903 107.749 39.8941C107.175 40.6614 106.826 41.4502 106.606 42.4965C106.467 43.1565 106.477 44.4335 106.628 45.1525C107.084 47.3686 108.468 48.9461 110.566 49.649C112.025 50.1373 113.839 50.0997 115.143 49.5578C115.658 49.3431 115.604 49.5739 115.61 47.4383C115.61 46.4027 115.599 45.5388 115.588 45.5228C115.572 45.5067 115.406 45.5818 115.218 45.6837C114.644 45.9949 114.161 46.113 113.48 46.113C112.793 46.113 112.369 46.0003 111.859 45.6676C111.135 45.2008 110.759 44.3262 110.883 43.414C111.017 42.4697 111.741 41.7185 112.755 41.4716C113.158 41.3751 113.941 41.3858 114.365 41.4985C114.558 41.5468 114.918 41.6809 115.159 41.7989C115.406 41.917 115.615 42.0136 115.615 42.0136C115.62 42.0136 115.62 41.2248 115.615 40.259C115.604 39.2878 115.599 38.4132 115.599 38.3005V38.1073L115.132 37.9356C114.247 37.6137 113.211 37.4849 112.192 37.5654Z" fill="#53599A"/>
<path d="M122.118 37.5659C120.578 37.6893 119.21 38.3332 118.163 39.4278C117.037 40.6083 116.457 42.0946 116.457 43.8223C116.457 46.6447 117.906 48.8125 120.347 49.628C121.973 50.17 124.023 50.111 125.659 49.4778C126.185 49.2793 126.936 48.7964 127.398 48.3671C127.746 48.0452 128.369 47.2618 128.369 47.1437C128.369 47.1115 128.074 46.9666 127.714 46.8325C127.349 46.693 126.609 46.4086 126.062 46.194C124.597 45.6306 124.779 45.6574 124.479 45.9794C123.669 46.8486 122.037 46.8754 121.184 46.033C120.932 45.7862 120.728 45.3945 120.669 45.0618L120.632 44.8579H124.709H128.787L128.83 44.4984C128.879 44.0048 128.814 43.0014 128.685 42.3629C128.417 41.0483 127.865 40.0073 126.963 39.1381C125.761 37.9737 124.033 37.4103 122.118 37.5659ZM123.293 40.8605C123.915 41.0214 124.355 41.4024 124.559 41.9443C124.742 42.4326 124.919 42.3897 122.66 42.3897H120.653L120.701 42.1697C120.771 41.8746 120.878 41.6761 121.109 41.4239C121.603 40.8712 122.472 40.6458 123.293 40.8605Z" fill="#53599A"/>
<path d="M59.6348 43.7842V49.6865L61.7971 49.6758L63.9542 49.6597L63.9703 43.7681L63.981 37.882H61.8079H59.6348V43.7842Z" fill="#53599A"/>
</svg>
