<svg width="32" height="31" viewBox="0 0 32 31" fill="none" xmlns="http://www.w3.org/2000/svg">
<circle cx="16" cy="14.8027" r="14" fill="url(#paint0_radial_663_1437)"/>
<g style="mix-blend-mode:screen">
<path d="M29.5 14.8027C29.5 22.2586 23.4558 28.3027 16 28.3027C8.54416 28.3027 2.5 22.2586 2.5 14.8027C2.5 7.34689 8.54416 1.30273 16 1.30273C23.4558 1.30273 29.5 7.34689 29.5 14.8027Z" fill="url(#paint1_radial_663_1437)"/>
</g>
<path d="M26 14.8027C26 20.3256 21.5228 24.8027 16 24.8027C10.4772 24.8027 6 20.3256 6 14.8027C6 9.27989 10.4772 4.80273 16 4.80273C21.5228 4.80273 26 9.27989 26 14.8027Z" fill="url(#paint2_radial_663_1437)"/>
<g style="mix-blend-mode:screen">
<path d="M25 14.8027C25 19.7733 20.9706 23.8027 16 23.8027C11.0294 23.8027 7 19.7733 7 14.8027C7 9.83217 11.0294 5.80273 16 5.80273C20.9706 5.80273 25 9.83217 25 14.8027Z" fill="url(#paint3_linear_663_1437)"/>
</g>
<path fill-rule="evenodd" clip-rule="evenodd" d="M30.1063 26.1177C29.5505 26.051 25.9792 25.5323 25.9792 24.6877C25.9829 24.6272 25.9994 24.5683 26.0275 24.5146C26.0556 24.461 26.0947 24.4139 26.1422 24.3765C24.6826 25.2428 23.4527 26.4473 22.5561 27.8885C22.4763 27.9924 22.422 28.1136 22.3975 28.2422C22.3731 28.3709 22.3792 28.5035 22.4153 28.6295C22.4946 28.8475 22.6534 29.0275 22.8598 29.1333C24.2952 29.9144 25.8383 30.4787 27.4389 30.8078C27.6499 29.9178 27.7149 28.9994 27.6315 28.0886C28.6434 27.7203 29.5124 27.0406 30.1137 26.1473L30.1063 26.1177Z" fill="url(#paint4_linear_663_1437)"/>
<path fill-rule="evenodd" clip-rule="evenodd" d="M23.0328 27.9181C23.2476 28.7627 26.3374 29.5926 27.5747 29.889C27.5747 30.0421 27.5525 30.1952 27.508 30.3483C26.3966 30.089 22.9735 29.1703 22.7142 28.2737C22.686 28.1579 22.6839 28.0373 22.7083 27.9207C22.7326 27.804 22.7828 27.6943 22.855 27.5995L23.181 27.2809C23.1091 27.3686 23.0584 27.4717 23.0327 27.5822C23.007 27.6927 23.0071 27.8076 23.0328 27.9181ZM29.3974 26.9622C28.4268 26.8066 25.3519 26.2213 25.3 25.4285C25.2975 25.3563 25.3108 25.2844 25.339 25.2178C25.3671 25.1513 25.4095 25.0917 25.463 25.0432L25.789 24.7246C25.7383 24.7674 25.6975 24.8207 25.6694 24.8809C25.6412 24.941 25.6265 25.0065 25.6261 25.0729C25.6261 25.9027 29.0121 26.4584 29.7679 26.5547C29.6518 26.6947 29.5281 26.8283 29.3974 26.9548V26.9622Z" fill="white"/>
<path fill-rule="evenodd" clip-rule="evenodd" d="M24.3955 27.9848C23.9287 28.3034 22.2394 27.7329 22.3801 28.5924C22.344 28.4665 22.3379 28.3339 22.3624 28.2052C22.3868 28.0765 22.4411 27.9554 22.5209 27.8515C23.6388 26.1546 25.0848 24.6985 26.7739 23.5688C26.7263 23.6063 26.6872 23.6534 26.6591 23.707C26.631 23.7607 26.6146 23.8196 26.6109 23.88C26.6109 24.1245 26.8999 24.3394 27.3519 24.5098C26.5388 25.7956 25.5401 26.9541 24.3881 27.9478L24.3955 27.9848Z" fill="#995F06"/>
<path fill-rule="evenodd" clip-rule="evenodd" d="M1.95273 26.1177C2.50843 26.051 6.07977 25.5323 6.07977 24.6877C6.07605 24.6272 6.05961 24.5683 6.03152 24.5146C6.00342 24.461 5.96432 24.4139 5.91676 24.3765C7.37637 25.2428 8.60631 26.4473 9.50291 27.8885C9.58269 27.9924 9.63699 28.1136 9.66144 28.2422C9.68589 28.3709 9.67982 28.5035 9.64369 28.6295C9.56443 28.8475 9.40561 29.0275 9.19912 29.1333C7.76381 29.9144 6.22074 30.4787 4.62012 30.8078C4.40909 29.9178 4.34402 28.9994 4.42746 28.0886C3.41558 27.7203 2.54654 27.0406 1.94531 26.1473L1.95273 26.1177Z" fill="url(#paint5_linear_663_1437)"/>
<path fill-rule="evenodd" clip-rule="evenodd" d="M8.99881 27.9181C8.78394 28.7627 5.69422 29.5926 4.45685 29.889C4.45685 30.0421 4.47907 30.1952 4.52353 30.3483C5.63494 30.089 9.05808 29.1703 9.31741 28.2737C9.34563 28.1579 9.34762 28.0373 9.32326 27.9207C9.29891 27.804 9.24882 27.6943 9.17663 27.5995L8.85061 27.2809C8.92244 27.3686 8.97316 27.4717 8.99886 27.5822C9.02455 27.6927 9.02453 27.8076 8.99881 27.9181ZM2.63414 26.9622C3.60477 26.8066 6.67967 26.2213 6.73154 25.4285C6.73404 25.3563 6.72075 25.2844 6.6926 25.2178C6.66444 25.1513 6.6221 25.0917 6.56853 25.0432L6.24251 24.7246C6.29323 24.7674 6.33406 24.8207 6.3622 24.8809C6.39034 24.941 6.40512 25.0065 6.40552 25.0729C6.40552 25.9027 3.01943 26.4584 2.26367 26.5547C2.37979 26.6947 2.50347 26.8283 2.63414 26.9548V26.9622Z" fill="white"/>
<path fill-rule="evenodd" clip-rule="evenodd" d="M7.62822 27.9848C8.09501 28.3034 9.78435 27.7329 9.64357 28.5924C9.6797 28.4665 9.68577 28.3339 9.66132 28.2052C9.63687 28.0765 9.58258 27.9554 9.50279 27.8515C8.38495 26.1546 6.93891 24.6985 5.24981 23.5688C5.29736 23.6063 5.33647 23.6534 5.36456 23.707C5.39265 23.7607 5.4091 23.8196 5.41281 23.88C5.41281 24.1245 5.12385 24.3394 4.67188 24.5098C5.48496 25.7956 6.48367 26.9541 7.63563 27.9478L7.62822 27.9848Z" fill="#995F06"/>
<path style="mix-blend-mode:screen" fill-rule="evenodd" clip-rule="evenodd" d="M23.3366 21.3682C23.0328 21.8572 21.8547 23.8355 21.5065 24.2875C21.1583 24.7395 21.1286 24.9025 20.3803 24.9544C19.6319 25.0062 18.0463 25.0581 17.4165 25.0655C17.1275 25.0655 16.8756 24.9543 16.8979 24.6209C16.9201 24.2875 17.2016 24.2875 17.4239 24.2801C17.9944 24.2801 19.3281 24.206 19.9653 24.1615C20.1863 24.162 20.406 24.1296 20.6174 24.0652C20.8432 23.9298 21.0376 23.7479 21.1879 23.5317C21.5139 23.1613 22.6698 21.3978 22.9365 21.0718C23.2032 20.7458 23.5441 21.0718 23.3514 21.3682H23.3366Z" fill="url(#paint6_radial_663_1437)"/>
<path style="mix-blend-mode:screen" fill-rule="evenodd" clip-rule="evenodd" d="M23.3366 21.3682C23.0328 21.8572 21.8547 23.8355 21.5065 24.2875C21.1583 24.7395 21.1286 24.9025 20.3803 24.9544C19.6319 25.0062 18.0463 25.0581 17.4165 25.0655C17.1275 25.0655 16.8756 24.9543 16.8979 24.6209C16.9201 24.2875 17.2016 24.2875 17.4239 24.2801C17.9944 24.2801 19.3281 24.206 19.9653 24.1615C20.1863 24.162 20.406 24.1296 20.6174 24.0652C20.8432 23.9298 21.0376 23.7479 21.1879 23.5317C21.5139 23.1613 22.6698 21.3978 22.9365 21.0718C23.2032 20.7458 23.5441 21.0718 23.3514 21.3682H23.3366Z" fill="url(#paint7_radial_663_1437)"/>
<path fill-rule="evenodd" clip-rule="evenodd" d="M8.10725 25.4356C6.34052 24.3786 4.91549 22.8352 4.00244 20.99C2.6317 18.1966 2.35757 14.3808 4.15805 11.7949C3.52093 13.2032 3.22321 14.7413 3.28884 16.2855C3.35447 17.8298 3.78161 19.3371 4.53592 20.6862C5.43874 22.4002 6.81117 23.8214 8.49253 24.7836C8.579 24.8327 8.64241 24.9142 8.66881 25.0101C8.69521 25.1059 8.68244 25.2084 8.63331 25.2948C8.58419 25.3813 8.50273 25.4447 8.40686 25.4711C8.31098 25.4975 8.20853 25.4847 8.12206 25.4356H8.10725Z" fill="#68440C"/>
<path fill-rule="evenodd" clip-rule="evenodd" d="M1.8935 19.1525C1.61871 19.1232 1.3598 19.0093 1.15256 18.8265C0.839233 18.5536 0.586792 18.2178 0.411623 17.841C0.134669 17.1627 0.0650359 16.4176 0.211555 15.6997C0.256011 15.6997 0.381978 15.7368 0.589441 15.8405C0.796904 15.9442 0.870988 15.9516 1.01918 16.0109C1.30073 16.122 1.58971 16.2332 1.86386 16.3666C2.55293 16.7 3.19755 17.1816 3.21237 17.8484C3.21237 18.2411 2.98268 18.5301 3.09382 18.945C2.79004 18.945 2.25656 19.1969 1.88609 19.1451L1.8935 19.1525Z" fill="url(#paint8_linear_663_1437)"/>
<path style="mix-blend-mode:multiply" fill-rule="evenodd" clip-rule="evenodd" d="M2.5736 17.2113C3.03299 18.3375 1.74376 19.3674 0.587891 18.1597C0.75167 18.4054 0.945852 18.6295 1.16582 18.8265C1.37306 19.0093 1.63197 19.1233 1.90676 19.1525C2.28464 19.2044 2.81812 18.9451 3.1145 18.9525C3.00336 18.5376 3.24046 18.2116 3.23305 17.8559C3.23305 17.1891 2.60324 16.7223 1.9438 16.374C2.24512 16.5696 2.47413 16.8585 2.59583 17.1965L2.5736 17.2113Z" fill="url(#paint9_radial_663_1437)"/>
<path fill-rule="evenodd" clip-rule="evenodd" d="M0.300781 15.8555C0.631029 16.441 1.01555 16.9942 1.44925 17.5078C1.97808 18.0914 2.59269 18.5911 3.27196 18.9896C3.30448 19.0212 3.3299 19.0593 3.34651 19.1015C3.36312 19.1437 3.37054 19.1889 3.36828 19.2342C3.08856 18.984 2.78591 18.7607 2.46433 18.5673C2.05322 18.2763 1.67989 17.9353 1.35293 17.5522C0.93715 17.0323 0.583999 16.4653 0.300781 15.8629V15.8555Z" fill="#68440C"/>
<path fill-rule="evenodd" clip-rule="evenodd" d="M5.87803 19.7676C6.03275 19.4848 6.12142 19.1707 6.13736 18.8488C6.15295 18.0843 6.00121 17.3257 5.6928 16.626C5.04732 16.9888 4.4945 17.496 4.07755 18.1079C3.90914 18.3595 3.78392 18.6374 3.70708 18.9303C3.66968 19.187 3.72203 19.4487 3.85528 19.6712C4.01196 19.9441 4.18261 20.2087 4.36653 20.464C4.6674 20.4067 4.9625 20.3224 5.24825 20.2121C5.49964 20.111 5.71956 19.9448 5.88545 19.7305L5.87803 19.7676Z" fill="url(#paint10_linear_663_1437)"/>
<path style="mix-blend-mode:multiply" fill-rule="evenodd" clip-rule="evenodd" d="M4.79782 19.9233C5.07634 19.8534 5.33793 19.7281 5.56705 19.555C5.79617 19.3819 5.98815 19.1645 6.13153 18.9157C6.11729 19.2275 6.03105 19.5318 5.87959 19.8048C5.7137 20.019 5.49378 20.1853 5.24239 20.2864C4.95664 20.3966 4.66154 20.481 4.36067 20.5383C4.17675 20.283 4.0061 20.0184 3.84942 19.7455C3.71617 19.523 3.66382 19.2612 3.70122 19.0046C3.75962 18.776 3.8494 18.5565 3.96797 18.3525C3.78274 18.9453 3.842 20.1678 4.79041 19.9456L4.79782 19.9233Z" fill="url(#paint11_radial_663_1437)"/>
<path fill-rule="evenodd" clip-rule="evenodd" d="M2.60475 15.1664C2.74553 14.707 3.3457 14.4773 3.23456 13.7734C3.1517 13.3785 2.93754 13.0233 2.62698 12.7657C2.30127 12.5222 2.00532 12.2411 1.74526 11.9285C1.66376 11.7877 1.63413 11.6765 1.58967 11.6839C1.54521 11.6914 1.2266 12.2545 1.18214 12.3582C1.0495 12.7214 0.981788 13.1052 0.982095 13.4918C0.952948 13.8072 1.00926 14.1245 1.1451 14.4106C1.31065 14.648 1.53298 14.8401 1.79182 14.9695C2.05066 15.099 2.33776 15.1615 2.62698 15.1515L2.60475 15.1664Z" fill="url(#paint12_linear_663_1437)"/>
<path style="mix-blend-mode:multiply" fill-rule="evenodd" clip-rule="evenodd" d="M2.28527 14.6775C2.4436 14.6113 2.58531 14.5108 2.70024 14.3834C2.81518 14.2559 2.90048 14.1046 2.95006 13.9403C2.99963 13.776 3.01225 13.6028 2.98698 13.433C2.96172 13.2633 2.89919 13.1012 2.80392 12.9585C3.02905 13.1814 3.17925 13.4688 3.23367 13.7809C3.32259 14.5219 2.74465 14.7145 2.60387 15.1739C2.31465 15.1839 2.02755 15.1213 1.76871 14.9919C1.50987 14.8625 1.28754 14.6703 1.12199 14.433C1.01733 14.2287 0.961527 14.003 0.958984 13.7735C1.00992 14.0049 1.11964 14.2193 1.27758 14.3959C1.39034 14.5399 1.54475 14.6456 1.71978 14.6987C1.8948 14.7517 2.08192 14.7495 2.25563 14.6923L2.28527 14.6775Z" fill="url(#paint13_radial_663_1437)"/>
<path fill-rule="evenodd" clip-rule="evenodd" d="M1.59669 11.8844C1.49035 12.5481 1.56194 13.2282 1.80415 13.8553C2.04125 14.4406 2.68589 15.1667 2.9304 15.7447C2.97485 15.3742 2.88594 15.4779 2.5377 14.937C1.86302 14.065 1.52855 12.9774 1.59669 11.877V11.8844Z" fill="#68440C"/>
<path fill-rule="evenodd" clip-rule="evenodd" d="M3.69302 12.6844C3.69302 12.4695 3.35959 12.0546 3.32995 11.8323C3.31344 11.5789 3.35117 11.325 3.44061 11.0873C3.53005 10.8497 3.66915 10.6338 3.84861 10.4542C4.10838 10.1908 4.42296 9.98794 4.77 9.85988C5.11703 9.73183 5.48799 9.68176 5.85655 9.71325C5.91583 9.71325 5.95289 9.71326 5.96771 9.75771C5.98253 9.80217 5.9677 9.80957 5.8862 9.89108C5.76186 10.1184 5.69567 10.3729 5.69355 10.632C5.69355 10.7728 5.69356 10.9284 5.63428 11.1062C5.61567 11.3556 5.57853 11.6033 5.52315 11.8472C5.46804 12.0729 5.34576 12.2766 5.17246 12.4314C4.99916 12.5861 4.78301 12.6847 4.55252 12.7141C4.27 12.6779 3.98516 12.663 3.70042 12.6696L3.69302 12.6844Z" fill="url(#paint14_linear_663_1437)"/>
<path style="mix-blend-mode:multiply" fill-rule="evenodd" clip-rule="evenodd" d="M3.93692 12.062C3.76976 11.8573 3.66428 11.6092 3.6328 11.3468C3.60131 11.0844 3.64512 10.8185 3.7591 10.5801C3.60853 10.7499 3.49356 10.9483 3.42101 11.1634C3.34847 11.3784 3.31982 11.6059 3.33676 11.8323C3.33676 12.0545 3.685 12.4695 3.69982 12.6843C3.98456 12.6778 4.2694 12.6926 4.55192 12.7288C4.78241 12.6994 4.99856 12.6009 5.17186 12.4461C5.34516 12.2913 5.46744 12.0876 5.52254 11.8619C5.55429 11.7428 5.57659 11.6214 5.58923 11.4988C5.56013 11.6765 5.48326 11.8429 5.36686 11.9803C5.25046 12.1177 5.09892 12.2208 4.92842 12.2786C4.75792 12.3365 4.5749 12.3469 4.39895 12.3087C4.22299 12.2705 4.06074 12.1852 3.92953 12.062H3.93692Z" fill="url(#paint15_radial_663_1437)"/>
<path fill-rule="evenodd" clip-rule="evenodd" d="M5.85845 9.77246C5.22979 9.99978 4.71603 10.4656 4.42844 11.0691C4.25061 11.4025 3.99869 12.4398 3.6875 12.6844C3.95497 12.1504 4.178 11.5953 4.35434 11.0247C4.48732 10.7153 4.69044 10.4411 4.94763 10.2238C5.20482 10.0065 5.50903 9.85196 5.83622 9.77246H5.85845Z" fill="#68440C"/>
<path fill-rule="evenodd" clip-rule="evenodd" d="M3.25615 16.8928C3.27342 16.7898 3.27342 16.6847 3.25615 16.5816C3.18947 16.1445 2.94495 15.4035 3.31542 14.9812C3.65593 14.61 4.08016 14.3255 4.55279 14.1514C4.85732 14.0056 5.14336 13.824 5.40487 13.6105C5.51601 13.5142 5.54566 13.3511 5.61975 13.6105C5.72794 13.893 5.79287 14.1903 5.81238 14.4922C5.78452 15.1161 5.57602 15.7184 5.21222 16.226C4.76766 16.6335 4.00449 16.552 3.73034 16.6039C3.57093 16.6663 3.42123 16.7511 3.28577 16.8558L3.25615 16.8928Z" fill="url(#paint16_linear_663_1437)"/>
<path style="mix-blend-mode:multiply" fill-rule="evenodd" clip-rule="evenodd" d="M4.1289 16.4261C3.8873 16.3212 3.69269 16.1311 3.58204 15.892C3.47139 15.653 3.45243 15.3816 3.52875 15.1295C3.68464 14.8075 3.91594 14.5279 4.203 14.3145C3.86481 14.4678 3.56396 14.6928 3.32128 14.9739C2.95081 15.3962 3.19531 16.1372 3.262 16.5743C3.27927 16.6773 3.27927 16.7825 3.262 16.8855C3.39745 16.7808 3.54715 16.696 3.70656 16.6336C4.14089 16.6321 4.57181 16.557 4.98098 16.4113C4.70718 16.5191 4.40271 16.5191 4.1289 16.4113V16.4261Z" fill="url(#paint17_radial_663_1437)"/>
<path fill-rule="evenodd" clip-rule="evenodd" d="M3.21081 22.7316C2.91052 22.7099 2.61963 22.6174 2.36204 22.4615C2.10444 22.3057 1.88748 22.091 1.72893 21.835C1.46014 21.436 1.21281 21.023 0.987994 20.5976C0.899082 20.4198 0.81016 20.3087 0.839797 20.2642C0.869435 20.2198 0.973176 20.2642 1.151 20.2642C1.65484 20.2642 2.36614 20.0716 2.8848 20.116C3.25023 20.1744 3.58061 20.3673 3.81097 20.6569H3.97398C4.14213 20.7589 4.27622 20.9084 4.35926 21.0867C4.46716 21.3997 4.55622 21.7188 4.62599 22.0425C4.66188 22.1594 4.71697 22.2696 4.789 22.3685C4.23939 22.4658 3.6953 22.5919 3.15894 22.7464L3.21081 22.7316Z" fill="url(#paint18_linear_663_1437)"/>
<path style="mix-blend-mode:multiply" fill-rule="evenodd" clip-rule="evenodd" d="M4.08515 20.8199C4.36671 20.9459 4.24816 21.8128 4.08515 21.9684C3.82635 22.2607 3.46707 22.4451 3.07864 22.4849C2.69021 22.5248 2.301 22.4171 1.98828 22.1832C2.13986 22.3565 2.32512 22.497 2.53275 22.5964C2.74037 22.6957 2.96603 22.7518 3.19602 22.7612C3.73237 22.6067 4.27649 22.4806 4.82609 22.3833C4.75407 22.2844 4.69898 22.1742 4.66308 22.0573C4.59332 21.7336 4.50423 21.4145 4.39633 21.1015C4.31329 20.9232 4.17921 20.7737 4.01105 20.6717H3.84805C3.72966 20.5517 3.60072 20.4426 3.46277 20.3457C3.58064 20.4782 3.68488 20.6221 3.77395 20.7754C3.88509 20.931 3.95177 20.7754 4.07032 20.8199H4.08515Z" fill="url(#paint19_radial_663_1437)"/>
<path fill-rule="evenodd" clip-rule="evenodd" d="M1.00391 20.3828C1.46747 20.7499 2.01044 21.0037 2.58951 21.1237C2.94952 21.2088 3.3035 21.3177 3.64907 21.4497C4.11832 21.6353 4.52815 21.9453 4.83457 22.3462C4.47442 22.0172 4.06101 21.7516 3.61201 21.5609C3.26376 21.4275 2.87107 21.3386 2.55247 21.22C1.95721 21.0986 1.41535 20.7927 1.00391 20.3457V20.3828Z" fill="#68440C"/>
<path fill-rule="evenodd" clip-rule="evenodd" d="M5.49449 13.6772C5.18657 14.5668 4.65601 15.3626 3.95335 15.989C3.80516 16.1149 3.41245 16.4409 3.38281 16.6484C3.5707 16.4335 3.77915 16.2374 4.0052 16.0631C4.73257 15.442 5.25015 14.6113 5.48708 13.6847L5.49449 13.6772Z" fill="#68440C"/>
<path fill-rule="evenodd" clip-rule="evenodd" d="M5.65786 16.8037C5.60237 17.7978 5.3075 18.7637 4.79837 19.6193C4.69464 19.7823 4.40566 20.2046 4.44271 20.4121C4.56136 20.1516 4.70531 19.9035 4.87247 19.6711C5.40847 18.8125 5.68149 17.8157 5.65786 16.8037Z" fill="#68440C"/>
<path style="mix-blend-mode:screen" fill-rule="evenodd" clip-rule="evenodd" d="M4.9662 9.87602C4.61159 9.9727 4.28835 10.1603 4.02845 10.4202C3.76855 10.6801 3.581 11.0033 3.48432 11.3579C3.42675 11.6085 3.46093 11.8713 3.58065 12.0988C3.59542 12.1289 3.61619 12.1555 3.64168 12.1772C3.66717 12.1989 3.69682 12.2151 3.72882 12.2248C3.75713 12.2292 3.78611 12.2244 3.81147 12.2111C3.83682 12.1977 3.85721 12.1765 3.8696 12.1507C3.95847 11.6865 4.11315 11.2375 4.32898 10.817C4.51356 10.4609 4.79643 10.1652 5.14402 9.96494C5.37371 9.80935 5.07734 9.8538 4.94397 9.88344L4.9662 9.87602Z" fill="url(#paint20_radial_663_1437)"/>
<path style="mix-blend-mode:screen" fill-rule="evenodd" clip-rule="evenodd" d="M1.47106 12.2766C1.47121 12.2572 1.46734 12.2379 1.45969 12.2201C1.45204 12.2022 1.44077 12.1861 1.42661 12.1729C1.3365 12.2162 1.26722 12.2934 1.23396 12.3877C1.06264 12.9504 1.06264 13.5514 1.23396 14.1141C1.28215 14.2231 1.3525 14.3209 1.44051 14.4013C1.52853 14.4816 1.63228 14.5428 1.74521 14.5809C1.94526 14.6328 2.14532 14.5809 2.00454 14.329C1.9008 14.1578 1.8092 13.9795 1.7304 13.7955C1.66279 13.6201 1.6107 13.4391 1.57478 13.2546C1.51542 12.9321 1.48813 12.6045 1.49329 12.2766H1.47106Z" fill="url(#paint21_radial_663_1437)"/>
<path style="mix-blend-mode:screen" fill-rule="evenodd" clip-rule="evenodd" d="M2.79742 17.5446C2.50105 16.6481 1.9231 16.411 1.11547 16.0627C0.715367 15.9071 0.55237 15.8923 0.500504 15.9516C0.448638 16.0109 0.722773 16.3887 0.996921 16.737C1.27107 17.0852 1.56004 17.3964 1.85641 17.715C1.98526 17.8507 2.1213 17.9793 2.26394 18.1003C2.49364 18.3004 2.66404 18.4337 2.76036 18.3522C2.85668 18.2707 2.84927 17.7002 2.76036 17.5224L2.79742 17.5446Z" fill="url(#paint22_radial_663_1437)"/>
<path style="mix-blend-mode:screen" fill-rule="evenodd" clip-rule="evenodd" d="M3.76043 21.0787C3.68634 20.9527 3.64187 20.8045 3.56778 20.6786C3.51482 20.5843 3.45011 20.4972 3.37515 20.4193C3.11661 20.2587 2.80648 20.203 2.50824 20.2636C2.20446 20.3007 1.89326 20.4118 1.58207 20.4563C1.51538 20.4563 1.44128 20.4563 1.36719 20.4563C1.53123 20.6709 1.76405 20.8226 2.02663 20.886C2.4712 21.049 2.97503 21.1157 3.41219 21.2713C3.53074 21.3158 3.64929 21.3602 3.76043 21.4195C3.87157 21.4788 4.07162 21.627 3.94567 21.3084C3.8916 21.2213 3.82959 21.1395 3.76043 21.0639V21.0787Z" fill="url(#paint23_radial_663_1437)"/>
<path style="mix-blend-mode:screen" fill-rule="evenodd" clip-rule="evenodd" d="M3.71601 15.6629C3.69797 15.3958 3.75852 15.1293 3.89018 14.8962C4.02185 14.6632 4.21888 14.4738 4.45695 14.3514C4.69385 14.2211 4.94179 14.112 5.19789 14.0254C5.19789 14.0254 5.26457 14.0254 5.29421 14.0254C5.04188 14.6835 4.64423 15.2762 4.13093 15.7592C3.87901 15.9592 3.75305 16.0704 3.73082 15.6777L3.71601 15.6629Z" fill="url(#paint24_radial_663_1437)"/>
<path style="mix-blend-mode:screen" fill-rule="evenodd" clip-rule="evenodd" d="M5.07869 17.2854C4.97924 17.3682 4.88519 17.4573 4.79713 17.5521C4.61043 17.7631 4.44421 17.9914 4.30071 18.2338C4.09 18.5523 4.01036 18.9398 4.07842 19.3156C4.13028 19.6861 4.32293 20.1529 4.63412 19.6416C4.79525 19.3823 4.93884 19.1125 5.06388 18.834C5.2434 18.3946 5.36543 17.9339 5.42693 17.4632C5.50102 16.8853 5.42692 16.9816 5.07127 17.2854H5.07869Z" fill="url(#paint25_radial_663_1437)"/>
<path style="mix-blend-mode:screen" fill-rule="evenodd" clip-rule="evenodd" d="M5.2199 11.9655C5.30206 11.8837 5.36971 11.7885 5.41994 11.6839C5.4692 11.5676 5.50405 11.4457 5.52368 11.3209C5.52368 11.1505 5.58295 10.9801 5.60518 10.8096C5.6274 10.6392 5.60518 10.5207 5.49404 10.7578C5.38337 11.0961 5.24715 11.4255 5.08653 11.7432C5.04208 11.8247 4.9902 11.8988 4.93834 11.9729C4.88647 12.047 4.82721 12.1063 4.83462 12.1359C4.84202 12.1656 4.88647 12.1359 5.02724 12.0915C5.09398 12.0544 5.15615 12.0096 5.21248 11.9581L5.2199 11.9655Z" fill="url(#paint26_radial_663_1437)"/>
<path style="mix-blend-mode:screen" fill-rule="evenodd" clip-rule="evenodd" d="M2.90739 13.4254C2.88428 13.3104 2.84167 13.2001 2.78142 13.0994C2.71198 12.9935 2.62988 12.8965 2.53692 12.8105C2.41837 12.6845 2.28499 12.5734 2.15903 12.4622C2.03307 12.3511 1.90712 12.314 2.05531 12.5289C2.27512 12.8098 2.47326 13.1071 2.64805 13.418C2.69251 13.4995 2.72214 13.581 2.75919 13.67C2.79624 13.7589 2.81106 13.8404 2.83329 13.8478C2.85552 13.8552 2.89257 13.8478 2.90739 13.6625C2.91641 13.5862 2.91641 13.5091 2.90739 13.4328V13.4254Z" fill="url(#paint27_radial_663_1437)"/>
<path style="mix-blend-mode:screen" fill-rule="evenodd" clip-rule="evenodd" d="M4.96804 16.3297C5.19643 16.2111 5.37699 16.0175 5.47929 15.7814C5.5682 15.5813 5.69415 15.1516 5.63488 15.1368C5.5756 15.1219 5.45705 15.4183 5.37554 15.5443C5.20885 15.8385 4.97847 16.0916 4.70129 16.2852C4.61978 16.3371 4.5531 16.3741 4.5457 16.4038C4.53829 16.4334 4.58275 16.4556 4.73835 16.4038C4.81529 16.3925 4.89016 16.37 4.96062 16.3371L4.96804 16.3297Z" fill="url(#paint28_radial_663_1437)"/>
<path style="mix-blend-mode:screen" fill-rule="evenodd" clip-rule="evenodd" d="M1.17566 18.5159C0.895474 18.3608 0.670244 18.1226 0.531027 17.8342C0.427295 17.6045 0.286524 17.0933 0.353208 17.0933C0.419893 17.0933 0.553273 17.4119 0.642186 17.5526C0.856793 17.8952 1.1392 18.1902 1.47203 18.4195C1.56095 18.4788 1.64244 18.5233 1.64985 18.5529C1.65726 18.5826 1.60541 18.6122 1.42758 18.5529C1.34045 18.5406 1.25558 18.5156 1.17566 18.4788V18.5159Z" fill="url(#paint29_radial_663_1437)"/>
<path style="mix-blend-mode:screen" fill-rule="evenodd" clip-rule="evenodd" d="M6.06435 18.6931C6.06435 18.4486 6.01251 17.9521 5.94582 17.9521C5.87914 17.9521 5.87912 18.3226 5.85689 18.4856C5.80437 18.8859 5.68412 19.2742 5.50125 19.6341C5.4568 19.7304 5.39752 19.8045 5.40493 19.8341C5.41234 19.8638 5.47161 19.8341 5.61239 19.76C5.75855 19.6256 5.87443 19.4616 5.95236 19.2789C6.03028 19.0962 6.06846 18.8991 6.06435 18.7005V18.6931Z" fill="url(#paint30_radial_663_1437)"/>
<path style="mix-blend-mode:screen" fill-rule="evenodd" clip-rule="evenodd" d="M2.07092 22.1387C1.9005 21.9609 1.59672 21.5533 1.65599 21.5163C1.71527 21.4792 1.95236 21.7386 2.08573 21.8497C2.43505 22.1198 2.82524 22.3324 3.24159 22.4795C3.33791 22.524 3.43423 22.5314 3.44905 22.561C3.46387 22.5907 3.44905 22.6277 3.24159 22.6425C2.80296 22.6327 2.38553 22.4519 2.07833 22.1387H2.07092Z" fill="url(#paint31_radial_663_1437)"/>
<path fill-rule="evenodd" clip-rule="evenodd" d="M23.9149 25.4356C25.6816 24.3786 27.1066 22.8352 28.0197 20.99C29.3904 18.1966 29.6645 14.3808 27.8641 11.7949C28.5012 13.2032 28.7989 14.7413 28.7333 16.2855C28.6677 17.8298 28.2405 19.3371 27.4862 20.6862C26.5834 22.4002 25.2109 23.8214 23.5296 24.7836C23.4431 24.8327 23.3797 24.9142 23.3533 25.0101C23.3269 25.1059 23.3397 25.2084 23.3888 25.2948C23.4379 25.3813 23.5194 25.4447 23.6153 25.4711C23.7112 25.4975 23.8136 25.4847 23.9 25.4356H23.9149Z" fill="#68440C"/>
<path fill-rule="evenodd" clip-rule="evenodd" d="M30.108 19.1525C30.3827 19.1232 30.6417 19.0093 30.8489 18.8265C31.1622 18.5536 31.4147 18.2178 31.5898 17.841C31.8668 17.1627 31.9364 16.4176 31.7899 15.6997C31.7454 15.6997 31.6195 15.7368 31.412 15.8405C31.2046 15.9442 31.1304 15.9516 30.9823 16.0109C30.7007 16.122 30.4117 16.2332 30.1376 16.3666C29.4485 16.7 28.8039 17.1816 28.7891 17.8484C28.7891 18.2411 29.0188 18.5301 28.9076 18.945C29.2114 18.945 29.7449 19.1969 30.1154 19.1451L30.108 19.1525Z" fill="url(#paint32_radial_663_1437)"/>
<path style="mix-blend-mode:multiply" fill-rule="evenodd" clip-rule="evenodd" d="M29.4408 17.2113C28.9814 18.3375 30.2707 19.3674 31.4266 18.1597C31.2628 18.4054 31.0686 18.6295 30.8486 18.8265C30.6414 19.0093 30.3825 19.1233 30.1077 19.1525C29.7298 19.2044 29.1963 18.9451 28.9 18.9525C29.0111 18.5376 28.774 18.2116 28.7814 17.8559C28.7814 17.1891 29.4112 16.7223 30.0706 16.374C29.7693 16.5696 29.5403 16.8585 29.4186 17.1965L29.4408 17.2113Z" fill="url(#paint33_radial_663_1437)"/>
<path fill-rule="evenodd" clip-rule="evenodd" d="M31.7161 15.8555C31.3859 16.4409 31.0014 16.9941 30.5677 17.5078C30.0389 18.0914 29.4242 18.5911 28.745 18.9896C28.7128 19.0215 28.6877 19.0597 28.6711 19.1018C28.6545 19.1439 28.6469 19.1889 28.6487 19.2342C28.9284 18.984 29.2311 18.7608 29.5526 18.5673C29.9637 18.2763 30.3371 17.9353 30.664 17.5522C31.0798 17.0323 31.4329 16.4653 31.7161 15.8629V15.8555Z" fill="#68440C"/>
<path fill-rule="evenodd" clip-rule="evenodd" d="M26.1354 19.7676C25.981 19.4847 25.8923 19.1707 25.8761 18.8488C25.8605 18.0843 26.0123 17.3257 26.3207 16.626C26.9662 16.9888 27.519 17.496 27.9359 18.1079C28.1043 18.3595 28.2296 18.6374 28.3064 18.9303C28.3438 19.187 28.2914 19.4487 28.1582 19.6712C28.0015 19.9441 27.8309 20.2087 27.6469 20.464C27.3461 20.4067 27.051 20.3224 26.7652 20.2121C26.5138 20.111 26.2939 19.9448 26.128 19.7305L26.1354 19.7676Z" fill="url(#paint34_linear_663_1437)"/>
<path style="mix-blend-mode:multiply" fill-rule="evenodd" clip-rule="evenodd" d="M27.2184 19.9233C26.9399 19.8534 26.6784 19.7281 26.4492 19.555C26.2201 19.3819 26.0281 19.1645 25.8848 18.9157C25.899 19.2275 25.9852 19.5318 26.1367 19.8048C26.3026 20.019 26.5225 20.1853 26.7739 20.2864C27.0597 20.3966 27.3548 20.481 27.6556 20.5383C27.8395 20.283 28.0102 20.0184 28.1669 19.7455C28.3001 19.523 28.3525 19.2612 28.3151 19.0046C28.2567 18.776 28.1669 18.5565 28.0483 18.3525C28.2335 18.9453 28.1743 20.1678 27.2259 19.9456L27.2184 19.9233Z" fill="url(#paint35_radial_663_1437)"/>
<path fill-rule="evenodd" clip-rule="evenodd" d="M29.4189 15.1664C29.2781 14.707 28.6779 14.4773 28.789 13.7734C28.8719 13.3785 29.0861 13.0233 29.3966 12.7657C29.7223 12.5222 30.0183 12.2411 30.2783 11.9285C30.3598 11.7877 30.3895 11.6765 30.4339 11.6839C30.4784 11.6914 30.797 12.2545 30.8415 12.3582C30.9741 12.7214 31.0418 13.1052 31.0415 13.4918C31.0707 13.8072 31.0143 14.1245 30.8785 14.4106C30.7129 14.648 30.4906 14.8401 30.2318 14.9695C29.973 15.099 29.6858 15.1615 29.3966 15.1515L29.4189 15.1664Z" fill="url(#paint36_radial_663_1437)"/>
<path style="mix-blend-mode:multiply" fill-rule="evenodd" clip-rule="evenodd" d="M29.7389 14.6775C29.5806 14.6113 29.4389 14.5108 29.324 14.3834C29.209 14.2559 29.1237 14.1046 29.0741 13.9403C29.0246 13.776 29.0119 13.6028 29.0372 13.433C29.0625 13.2633 29.125 13.1012 29.2203 12.9585C28.9951 13.1814 28.8449 13.4688 28.7905 13.7809C28.7016 14.5219 29.2795 14.7145 29.4203 15.1739C29.7095 15.1839 29.9967 15.1213 30.2555 14.9919C30.5143 14.8625 30.7367 14.6703 30.9022 14.433C31.0069 14.2287 31.0626 14.003 31.0652 13.7735C31.0143 14.0049 30.9045 14.2193 30.7466 14.3959C30.6338 14.5399 30.4794 14.6456 30.3044 14.6987C30.1294 14.7517 29.9423 14.7495 29.7685 14.6923L29.7389 14.6775Z" fill="url(#paint37_radial_663_1437)"/>
<path fill-rule="evenodd" clip-rule="evenodd" d="M30.4185 11.8844C30.5248 12.5481 30.4533 13.2282 30.2111 13.8553C29.9739 14.4406 29.3293 15.1667 29.0848 15.7447C29.0404 15.3742 29.1293 15.4779 29.4775 14.937C30.1522 14.065 30.4866 12.9774 30.4185 11.877V11.8844Z" fill="#68440C"/>
<path fill-rule="evenodd" clip-rule="evenodd" d="M28.3227 12.6844C28.3227 12.4695 28.6562 12.0546 28.6858 11.8323C28.7023 11.5789 28.6646 11.325 28.5751 11.0873C28.4857 10.8497 28.3466 10.6338 28.1671 10.4542C27.9074 10.1908 27.5928 9.98794 27.2457 9.85988C26.8987 9.73183 26.5277 9.68176 26.1592 9.71325C26.0999 9.71325 26.0629 9.71326 26.0481 9.75771C26.0332 9.80217 26.048 9.80957 26.1295 9.89108C26.2539 10.1184 26.3201 10.3729 26.3222 10.632C26.3222 10.7728 26.3222 10.9284 26.3814 11.1062C26.4 11.3556 26.4372 11.6033 26.4926 11.8472C26.5477 12.0729 26.67 12.2766 26.8433 12.4314C27.0166 12.5861 27.2327 12.6847 27.4632 12.7141C27.7457 12.6779 28.0306 12.663 28.3153 12.6696L28.3227 12.6844Z" fill="url(#paint38_radial_663_1437)"/>
<path style="mix-blend-mode:multiply" fill-rule="evenodd" clip-rule="evenodd" d="M28.0859 12.062C28.2531 11.8573 28.3586 11.6092 28.39 11.3468C28.4215 11.0844 28.3777 10.8185 28.2637 10.5801C28.4143 10.7499 28.5293 10.9483 28.6018 11.1634C28.6744 11.3784 28.703 11.6059 28.6861 11.8323C28.6861 12.0545 28.3378 12.4695 28.323 12.6843C28.0383 12.6778 27.7534 12.6926 27.4709 12.7288C27.2404 12.6994 27.0243 12.6009 26.851 12.4461C26.6777 12.2913 26.5554 12.0876 26.5003 11.8619C26.4685 11.7428 26.4462 11.6214 26.4336 11.4988C26.4627 11.6765 26.5396 11.8429 26.656 11.9803C26.7724 12.1177 26.9239 12.2208 27.0944 12.2786C27.2649 12.3365 27.4479 12.3469 27.6239 12.3087C27.7998 12.2705 27.9621 12.1852 28.0933 12.062H28.0859Z" fill="url(#paint39_radial_663_1437)"/>
<path fill-rule="evenodd" clip-rule="evenodd" d="M26.1602 9.77246C26.7888 9.99978 27.3026 10.4656 27.5902 11.0691C27.768 11.4025 28.0199 12.4398 28.3311 12.6844C28.0636 12.1504 27.8406 11.5953 27.6643 11.0247C27.5313 10.7153 27.3282 10.4411 27.071 10.2238C26.8138 10.0065 26.5096 9.85196 26.1824 9.77246H26.1602Z" fill="#68440C"/>
<path fill-rule="evenodd" clip-rule="evenodd" d="M28.7594 16.8928C28.7421 16.7898 28.7421 16.6847 28.7594 16.5816C28.8261 16.1445 29.0706 15.4035 28.7001 14.9812C28.3596 14.61 27.9354 14.3255 27.4627 14.1514C27.1582 14.0056 26.8722 13.824 26.6107 13.6105C26.4995 13.5142 26.4699 13.3511 26.3958 13.6105C26.2876 13.893 26.2226 14.1903 26.2031 14.4922C26.231 15.1161 26.4395 15.7184 26.8033 16.226C27.2478 16.6335 28.011 16.552 28.2852 16.6039C28.4446 16.6663 28.5943 16.7511 28.7298 16.8558L28.7594 16.8928Z" fill="url(#paint40_radial_663_1437)"/>
<path style="mix-blend-mode:multiply" fill-rule="evenodd" clip-rule="evenodd" d="M27.8853 16.4261C28.1269 16.3212 28.3215 16.1311 28.4322 15.892C28.5428 15.653 28.5618 15.3816 28.4855 15.1295C28.3296 14.8075 28.0983 14.5279 27.8112 14.3145C28.1494 14.4678 28.4503 14.6928 28.6929 14.9739C29.0634 15.3962 28.8189 16.1372 28.7522 16.5743C28.7349 16.6773 28.7349 16.7825 28.7522 16.8855C28.6167 16.7808 28.4671 16.696 28.3076 16.6336C27.8733 16.6321 27.4424 16.557 27.0332 16.4113C27.307 16.5191 27.6115 16.5191 27.8853 16.4113V16.4261Z" fill="url(#paint41_radial_663_1437)"/>
<path fill-rule="evenodd" clip-rule="evenodd" d="M28.8126 22.7316C29.1129 22.7099 29.4037 22.6174 29.6613 22.4615C29.9189 22.3057 30.1359 22.091 30.2945 21.835C30.5632 21.436 30.8106 21.023 31.0354 20.5976C31.1243 20.4198 31.2132 20.3087 31.1836 20.2642C31.154 20.2198 31.0502 20.2642 30.8724 20.2642C30.3686 20.2642 29.6573 20.0716 29.1386 20.116C28.7732 20.1744 28.4428 20.3673 28.2124 20.6569H28.0494C27.8812 20.7589 27.7472 20.9084 27.6641 21.0867C27.5562 21.3997 27.4672 21.7188 27.3974 22.0425C27.3615 22.1594 27.3064 22.2696 27.2344 22.3685C27.784 22.4658 28.3281 22.5919 28.8645 22.7464L28.8126 22.7316Z" fill="url(#paint42_linear_663_1437)"/>
<path style="mix-blend-mode:multiply" fill-rule="evenodd" clip-rule="evenodd" d="M27.9363 20.8199C27.6547 20.9459 27.7732 21.8128 27.9363 21.9684C28.1951 22.2607 28.5543 22.4451 28.9427 22.4849C29.3312 22.5248 29.7204 22.4171 30.0331 22.1832C29.8815 22.3565 29.6963 22.497 29.4886 22.5964C29.281 22.6957 29.0554 22.7518 28.8254 22.7612C28.289 22.6067 27.7449 22.4806 27.1953 22.3833C27.2673 22.2844 27.3224 22.1742 27.3583 22.0573C27.4281 21.7336 27.5172 21.4145 27.6251 21.1015C27.7081 20.9232 27.8422 20.7737 28.0103 20.6717H28.1734C28.2917 20.5517 28.4207 20.4426 28.5586 20.3457C28.4407 20.4782 28.3365 20.6221 28.2474 20.7754C28.1363 20.931 28.0696 20.7754 27.9511 20.8199H27.9363Z" fill="url(#paint43_radial_663_1437)"/>
<path fill-rule="evenodd" clip-rule="evenodd" d="M31.0103 20.3828C30.5468 20.7499 30.0038 21.0037 29.4248 21.1237C29.0647 21.2087 28.7108 21.3176 28.3652 21.4497C27.896 21.6353 27.4861 21.9453 27.1797 22.3462C27.5398 22.0172 27.9532 21.7516 28.4023 21.5609C28.7505 21.4275 29.1432 21.3386 29.4618 21.22C30.0571 21.0986 30.5989 20.7927 31.0103 20.3457V20.3828Z" fill="#68440C"/>
<path fill-rule="evenodd" clip-rule="evenodd" d="M26.5312 13.6772C26.8392 14.5668 27.3698 15.3626 28.0724 15.989C28.2206 16.1149 28.6133 16.4409 28.643 16.6484C28.4551 16.4335 28.2466 16.2374 28.0205 16.0631C27.2932 15.442 26.7756 14.6113 26.5387 13.6847L26.5312 13.6772Z" fill="#68440C"/>
<path fill-rule="evenodd" clip-rule="evenodd" d="M26.4038 16.8037C26.4593 17.7978 26.7541 18.7637 27.2632 19.6193C27.367 19.7823 27.656 20.2046 27.6189 20.4121C27.5003 20.1516 27.3563 19.9035 27.1892 19.6711C26.6531 18.8125 26.3801 17.8157 26.4038 16.8037Z" fill="#68440C"/>
<path style="mix-blend-mode:screen" fill-rule="evenodd" clip-rule="evenodd" d="M27.0554 9.87602C27.41 9.9727 27.7332 10.1603 27.9931 10.4202C28.253 10.6801 28.4406 11.0033 28.5373 11.3579C28.5948 11.6085 28.5607 11.8713 28.4409 12.0988C28.4262 12.1289 28.4054 12.1555 28.3799 12.1772C28.3544 12.1989 28.3248 12.2151 28.2927 12.2248C28.2644 12.2292 28.2355 12.2244 28.2101 12.2111C28.1848 12.1977 28.1644 12.1765 28.152 12.1507C28.0631 11.6865 27.9084 11.2375 27.6926 10.817C27.508 10.4609 27.2252 10.1652 26.8776 9.96494C26.6479 9.80935 26.9442 9.8538 27.0776 9.88344L27.0554 9.87602Z" fill="url(#paint44_radial_663_1437)"/>
<path style="mix-blend-mode:screen" fill-rule="evenodd" clip-rule="evenodd" d="M30.5456 12.2766C30.5454 12.2572 30.5493 12.2379 30.5569 12.2201C30.5646 12.2022 30.5758 12.1861 30.59 12.1729C30.6801 12.2162 30.7494 12.2934 30.7826 12.3877C30.9539 12.9504 30.9539 13.5514 30.7826 14.1141C30.7344 14.2231 30.6641 14.3209 30.5761 14.4013C30.4881 14.4816 30.3843 14.5428 30.2714 14.5809C30.0713 14.6328 29.8713 14.5809 30.0121 14.329C30.1158 14.1578 30.2074 13.9795 30.2862 13.7955C30.3538 13.6201 30.4059 13.4391 30.4418 13.2546C30.5012 12.9321 30.5285 12.6045 30.5233 12.2766H30.5456Z" fill="url(#paint45_radial_663_1437)"/>
<path style="mix-blend-mode:screen" fill-rule="evenodd" clip-rule="evenodd" d="M29.2278 17.5446C29.5241 16.6481 30.1021 16.411 30.9097 16.0627C31.3098 15.9071 31.4728 15.8923 31.5247 15.9516C31.5765 16.0109 31.3024 16.3887 31.0282 16.737C30.7541 17.0852 30.4651 17.3964 30.1688 17.715C30.0399 17.8507 29.9039 17.9793 29.7613 18.1003C29.5316 18.3004 29.3611 18.4337 29.2648 18.3522C29.1685 18.2707 29.1759 17.7002 29.2648 17.5224L29.2278 17.5446Z" fill="url(#paint46_radial_663_1437)"/>
<path style="mix-blend-mode:screen" fill-rule="evenodd" clip-rule="evenodd" d="M28.2631 21.0787C28.3372 20.9527 28.3816 20.8045 28.4557 20.6786C28.5087 20.5843 28.5734 20.4972 28.6484 20.4193C28.9069 20.2587 29.217 20.203 29.5153 20.2636C29.8191 20.3007 30.1302 20.4118 30.4414 20.4563C30.5081 20.4563 30.5822 20.4563 30.6563 20.4563C30.4923 20.6709 30.2594 20.8226 29.9968 20.886C29.5523 21.049 29.0485 21.1157 28.6113 21.2713C28.4927 21.3158 28.3742 21.3602 28.2557 21.4195C28.1371 21.4788 27.9445 21.627 28.0704 21.3084C28.1245 21.2213 28.1865 21.1395 28.2557 21.0639L28.2631 21.0787Z" fill="url(#paint47_radial_663_1437)"/>
<path style="mix-blend-mode:screen" fill-rule="evenodd" clip-rule="evenodd" d="M28.3009 15.6629C28.3189 15.3958 28.2583 15.1293 28.1267 14.8962C27.995 14.6632 27.798 14.4738 27.5599 14.3514C27.323 14.2211 27.0751 14.112 26.819 14.0254C26.819 14.0254 26.7523 14.0254 26.7227 14.0254C26.975 14.6835 27.3726 15.2762 27.8859 15.7592C28.1379 15.9592 28.2638 16.0704 28.286 15.6777L28.3009 15.6629Z" fill="url(#paint48_radial_663_1437)"/>
<path style="mix-blend-mode:screen" fill-rule="evenodd" clip-rule="evenodd" d="M26.9367 17.2854C27.0362 17.3682 27.1302 17.4573 27.2183 17.5521C27.405 17.7631 27.5712 17.9914 27.7147 18.2338C27.9254 18.5523 28.0051 18.9398 27.937 19.3156C27.8851 19.6861 27.6851 20.1529 27.3813 19.6416C27.2202 19.3823 27.0766 19.1125 26.9515 18.834C26.772 18.3946 26.65 17.9339 26.5885 17.4632C26.5144 16.8853 26.5885 16.9816 26.9441 17.2854H26.9367Z" fill="url(#paint49_radial_663_1437)"/>
<path style="mix-blend-mode:screen" fill-rule="evenodd" clip-rule="evenodd" d="M26.7954 11.9655C26.7132 11.8837 26.6456 11.7885 26.5953 11.6839C26.5461 11.5676 26.5112 11.4457 26.4916 11.3209C26.4916 11.1505 26.4323 10.9801 26.4101 10.8096C26.3879 10.6392 26.4101 10.5207 26.5212 10.7578C26.6319 11.0961 26.7681 11.4255 26.9288 11.7432C26.9732 11.8247 27.025 11.8988 27.0769 11.9729C27.1288 12.047 27.1881 12.1063 27.1807 12.1359C27.1732 12.1656 27.1288 12.1359 26.988 12.0915C26.9213 12.0544 26.8591 12.0096 26.8028 11.9581L26.7954 11.9655Z" fill="url(#paint50_radial_663_1437)"/>
<path style="mix-blend-mode:screen" fill-rule="evenodd" clip-rule="evenodd" d="M29.1079 13.4254C29.1287 13.3108 29.1688 13.2006 29.2265 13.0994C29.2959 12.9935 29.378 12.8965 29.471 12.8105C29.5895 12.6845 29.7229 12.5734 29.8489 12.4622C29.9748 12.3511 30.1008 12.314 29.9526 12.5289C29.7328 12.8098 29.5346 13.1071 29.3598 13.418C29.3154 13.4995 29.2858 13.581 29.2487 13.67C29.2117 13.7589 29.1968 13.8404 29.1746 13.8478C29.1524 13.8552 29.1153 13.8478 29.1005 13.6625C29.0915 13.5862 29.0915 13.5091 29.1005 13.4328L29.1079 13.4254Z" fill="url(#paint51_radial_663_1437)"/>
<path style="mix-blend-mode:screen" fill-rule="evenodd" clip-rule="evenodd" d="M27.0494 16.3297C26.821 16.2111 26.6404 16.0175 26.5381 15.7814C26.4492 15.5813 26.3232 15.1516 26.3825 15.1368C26.4418 15.1219 26.5603 15.4183 26.6418 15.5443C26.8085 15.8385 27.0389 16.0916 27.3161 16.2852C27.3976 16.3371 27.4643 16.3741 27.4717 16.4038C27.4791 16.4334 27.4346 16.4556 27.279 16.4038C27.2021 16.3925 27.1272 16.37 27.0568 16.3371L27.0494 16.3297Z" fill="url(#paint52_radial_663_1437)"/>
<path style="mix-blend-mode:screen" fill-rule="evenodd" clip-rule="evenodd" d="M30.8479 18.5159C31.1281 18.3608 31.3533 18.1226 31.4926 17.8342C31.5963 17.6045 31.7371 17.0933 31.6704 17.0933C31.6037 17.0933 31.4703 17.4119 31.3814 17.5526C31.1668 17.8952 30.8844 18.1902 30.5515 18.4195C30.4626 18.4788 30.3811 18.5233 30.3737 18.5529C30.3663 18.5826 30.4182 18.6122 30.596 18.5529C30.6831 18.5406 30.768 18.5156 30.8479 18.4788V18.5159Z" fill="url(#paint53_radial_663_1437)"/>
<path style="mix-blend-mode:screen" fill-rule="evenodd" clip-rule="evenodd" d="M25.9573 18.6931C25.9573 18.4486 26.0092 17.9521 26.0759 17.9521C26.1425 17.9521 26.1425 18.3226 26.1648 18.4856C26.2173 18.8859 26.3375 19.2742 26.5204 19.6341C26.5649 19.7304 26.6241 19.8045 26.6167 19.8341C26.6093 19.8638 26.5501 19.8341 26.4093 19.76C26.2631 19.6256 26.1472 19.4616 26.0693 19.2789C25.9914 19.0962 25.9532 18.8991 25.9573 18.7005V18.6931Z" fill="url(#paint54_radial_663_1437)"/>
<path style="mix-blend-mode:screen" fill-rule="evenodd" clip-rule="evenodd" d="M29.9449 22.1387C30.1153 21.9609 30.4191 21.5533 30.3598 21.5163C30.3005 21.4792 30.0634 21.7386 29.93 21.8497C29.5807 22.1198 29.1905 22.3324 28.7742 22.4795C28.6778 22.524 28.5815 22.5314 28.5667 22.561C28.5519 22.5907 28.5667 22.6277 28.7742 22.6425C29.2128 22.6327 29.6302 22.4519 29.9375 22.1387H29.9449Z" fill="url(#paint55_radial_663_1437)"/>
<path fill-rule="evenodd" clip-rule="evenodd" d="M16.0296 19.9599C18.1621 19.9442 20.2912 20.1352 22.3868 20.5304C23.4316 20.7453 27.5067 21.7974 27.9216 22.8273C27.9671 22.9313 27.9907 23.0436 27.9907 23.157C27.9907 23.2705 27.9671 23.3828 27.9216 23.4867C27.12 25.2387 25.9229 26.7807 24.4244 27.9917C24.9505 27.5619 24.5356 26.9099 24.054 26.5913C23.079 26.0474 22.011 25.6906 20.905 25.5392C19.2951 25.259 17.6636 25.1227 16.0296 25.1316C15.9851 24.1832 15.9629 23.2768 15.9629 22.4124C15.9629 21.548 15.9851 20.7329 16.0296 19.9673V19.9599Z" fill="url(#paint56_radial_663_1437)"/>
<path fill-rule="evenodd" clip-rule="evenodd" d="M16.0294 19.9599C13.8969 19.9442 11.7678 20.1352 9.67217 20.5304C8.62744 20.7453 4.55227 21.7974 4.13735 22.8273C4.09185 22.9313 4.06836 23.0436 4.06836 23.157C4.06836 23.2705 4.09185 23.3828 4.13735 23.4867C4.93899 25.2387 6.13611 26.7807 7.63458 27.9917C7.10852 27.5619 7.52344 26.9099 8.00505 26.5913C8.97999 26.0474 10.048 25.6906 11.154 25.5392C12.7639 25.259 14.3954 25.1227 16.0294 25.1316C16.0739 24.1832 16.0961 23.2768 16.0961 22.4124C16.0961 21.548 16.0739 20.7329 16.0294 19.9673V19.9599Z" fill="url(#paint57_radial_663_1437)"/>
<path fill-rule="evenodd" clip-rule="evenodd" d="M7.32431 25.7695C7.06972 25.8962 6.86992 26.1111 6.7622 26.3742C6.65449 26.6374 6.64622 26.9308 6.73896 27.1996L6.96865 27.4218C6.95017 27.1716 7.00389 26.9213 7.1234 26.7006C7.24291 26.48 7.42321 26.2983 7.64291 26.1771C8.67773 25.6046 9.80715 25.2231 10.9771 25.0508C12.6377 24.7561 14.3216 24.6123 16.0081 24.6211C16.0081 24.4581 16.0081 24.2926 16.0081 24.1247C14.269 24.1148 12.5327 24.2661 10.8215 24.5766C9.58861 24.7651 8.39776 25.1662 7.30208 25.7621L7.32431 25.7695ZM4.43465 24.095C4.46069 23.8718 4.5421 23.6586 4.6715 23.4749C4.80091 23.2911 4.97419 23.1426 5.17559 23.0429C6.67717 22.2847 8.27873 21.7433 9.93241 21.435C11.938 21.0374 13.9783 20.8414 16.0229 20.8497C16.0229 20.7015 16.0229 20.5533 16.0229 20.4051C13.9334 20.3952 11.8482 20.5962 9.79904 21.0053C8.08769 21.3315 6.42961 21.8925 4.8718 22.6724C4.69789 22.76 4.54292 22.8809 4.41579 23.0284C4.28865 23.1759 4.19184 23.347 4.13086 23.5319L4.20496 23.6801L4.43465 24.095Z" fill="white"/>
<path fill-rule="evenodd" clip-rule="evenodd" d="M16.0308 20.3385C14.1472 20.3337 12.2672 20.5023 10.4145 20.8423C8.82398 21.1234 7.27211 21.591 5.79102 22.2353C7.27863 21.612 8.8322 21.1596 10.4219 20.8868C12.2732 20.5569 14.1503 20.3932 16.0308 20.3978V20.3385ZM8.31762 25.288C9.39678 24.8835 10.5175 24.6002 11.6593 24.4433C13.1042 24.2309 14.563 24.1269 16.0234 24.1321C14.5584 24.0863 13.0923 24.1781 11.6444 24.4062C10.5048 24.5691 9.3883 24.8651 8.31762 25.288Z" fill="white"/>
<path style="mix-blend-mode:screen" fill-rule="evenodd" clip-rule="evenodd" d="M8.02016 26.5545C7.37382 25.86 6.78179 25.1169 6.2493 24.3317C5.77283 23.6321 5.36586 22.8876 5.03417 22.1089C4.78404 22.235 4.55223 22.3945 4.3451 22.5831L4.24878 22.6942C4.2452 22.7361 4.2452 22.7783 4.24878 22.8202C4.59665 23.5863 5.02379 24.3139 5.52319 24.9911C6.06613 25.7949 6.71121 26.5246 7.44222 27.1621C7.5656 26.9513 7.73536 26.7714 7.93864 26.636L8.02016 26.5545Z" fill="url(#paint58_radial_663_1437)"/>
<path fill-rule="evenodd" clip-rule="evenodd" d="M24.6986 25.7695C24.9532 25.8962 25.153 26.1111 25.2607 26.3742C25.3684 26.6374 25.3767 26.9308 25.284 27.1996L25.0543 27.4218C25.0728 27.1716 25.019 26.9213 24.8995 26.7006C24.78 26.48 24.5997 26.2983 24.38 26.1771C23.3452 25.6046 22.2158 25.2231 21.0458 25.0508C19.3852 24.7561 17.7014 24.6123 16.0148 24.6211C16.0148 24.4581 16.0148 24.2926 16.0148 24.1247C17.7539 24.1148 19.4902 24.2661 21.2014 24.5766C22.4343 24.7651 23.6252 25.1662 24.7208 25.7621L24.6986 25.7695ZM27.5883 24.095C27.5622 23.8718 27.4808 23.6586 27.3514 23.4749C27.222 23.2911 27.0487 23.1426 26.8473 23.0429C25.3458 22.2847 23.7442 21.7433 22.0905 21.435C20.0849 21.0374 18.0446 20.8414 16 20.8497C16 20.7015 16 20.5533 16 20.4051C18.0895 20.3952 20.1747 20.5962 22.2239 21.0053C23.9352 21.3315 25.5933 21.8925 27.1512 22.6724C27.3251 22.76 27.48 22.8809 27.6071 23.0284C27.7343 23.1759 27.8311 23.347 27.8921 23.5319L27.818 23.6801L27.5883 24.095Z" fill="white"/>
<path fill-rule="evenodd" clip-rule="evenodd" d="M16.0293 20.3385C17.9129 20.3337 19.793 20.5023 21.6456 20.8423C23.2361 21.1234 24.788 21.591 26.2691 22.2353C24.7815 21.612 23.2279 21.1596 21.6382 20.8868C19.7869 20.5569 17.9098 20.3932 16.0293 20.3978V20.3385ZM23.7425 25.288C22.6633 24.8835 21.5426 24.6002 20.4009 24.4433C18.9559 24.2309 17.4971 24.1269 16.0367 24.1321C17.5017 24.0863 18.9678 24.1781 20.4156 24.4062C21.5552 24.5692 22.6718 24.8651 23.7425 25.288Z" fill="white"/>
<path style="mix-blend-mode:screen" fill-rule="evenodd" clip-rule="evenodd" d="M24.0039 26.5545C24.6502 25.86 25.2423 25.1169 25.7748 24.3317C26.2512 23.6321 26.6582 22.8876 26.9899 22.1089C27.24 22.235 27.4718 22.3945 27.6789 22.5831L27.7753 22.6942C27.7788 22.7361 27.7788 22.7783 27.7753 22.8202C27.4274 23.5863 27.0003 24.3139 26.5009 24.9911C25.9579 25.7949 25.3128 26.5246 24.5818 27.1621C24.4584 26.9513 24.2887 26.7714 24.0854 26.636L24.0039 26.5545Z" fill="url(#paint59_radial_663_1437)"/>
<path d="M14.6016 13.2666H15.6543C15.9915 13.2666 16.2695 13.2096 16.4883 13.0957C16.707 12.9772 16.8688 12.8132 16.9736 12.6035C17.083 12.3893 17.1377 12.141 17.1377 11.8584C17.1377 11.6032 17.0876 11.3776 16.9873 11.1816C16.8916 10.9811 16.7435 10.8262 16.543 10.7168C16.3424 10.6029 16.0895 10.5459 15.7842 10.5459C15.5426 10.5459 15.3193 10.5938 15.1143 10.6895C14.9092 10.7852 14.7451 10.9196 14.6221 11.0928C14.499 11.266 14.4375 11.4756 14.4375 11.7217H12.4619C12.4619 11.1748 12.6077 10.6986 12.8994 10.293C13.1956 9.88737 13.5921 9.57064 14.0889 9.34277C14.5856 9.11491 15.1325 9.00098 15.7295 9.00098C16.404 9.00098 16.9941 9.11035 17.5 9.3291C18.0059 9.54329 18.4001 9.86003 18.6826 10.2793C18.9652 10.6986 19.1064 11.2181 19.1064 11.8379C19.1064 12.1523 19.0335 12.4577 18.8877 12.7539C18.7419 13.0456 18.5322 13.3099 18.2588 13.5469C17.9899 13.7793 17.6618 13.9661 17.2744 14.1074C16.887 14.2441 16.4518 14.3125 15.9688 14.3125H14.6016V13.2666ZM14.6016 14.7637V13.7451H15.9688C16.5111 13.7451 16.9873 13.8066 17.3975 13.9297C17.8076 14.0527 18.1517 14.2305 18.4297 14.4629C18.7077 14.6908 18.9173 14.9619 19.0586 15.2764C19.1999 15.5863 19.2705 15.9303 19.2705 16.3086C19.2705 16.7734 19.1816 17.1882 19.0039 17.5527C18.8262 17.9128 18.5755 18.2181 18.252 18.4688C17.9329 18.7194 17.5592 18.9108 17.1309 19.043C16.7025 19.1706 16.2354 19.2344 15.7295 19.2344C15.3102 19.2344 14.8978 19.1774 14.4922 19.0635C14.0911 18.945 13.7266 18.7695 13.3984 18.5371C13.0749 18.3001 12.8151 18.0039 12.6191 17.6484C12.4277 17.2884 12.332 16.8623 12.332 16.3701H14.3076C14.3076 16.6253 14.3714 16.8532 14.499 17.0537C14.6266 17.2542 14.8021 17.4115 15.0254 17.5254C15.2533 17.6393 15.5062 17.6963 15.7842 17.6963C16.0986 17.6963 16.3675 17.6393 16.5908 17.5254C16.8187 17.4069 16.9919 17.2428 17.1104 17.0332C17.2334 16.819 17.2949 16.5706 17.2949 16.2881C17.2949 15.9235 17.2288 15.6318 17.0967 15.4131C16.9645 15.1898 16.7754 15.0257 16.5293 14.9209C16.2832 14.8161 15.9915 14.7637 15.6543 14.7637H14.6016Z" fill="#669FEB"/>
<defs>
<radialGradient id="paint0_radial_663_1437" cx="0" cy="0" r="1" gradientUnits="userSpaceOnUse" gradientTransform="translate(16 14.8027) scale(33.0924)">
<stop stop-color="#BBDBFD"/>
<stop offset="0.473958" stop-color="#649CE9"/>
<stop offset="1" stop-color="#008EF5"/>
</radialGradient>
<radialGradient id="paint1_radial_663_1437" cx="0" cy="0" r="1" gradientUnits="userSpaceOnUse" gradientTransform="translate(16 14.8027) scale(31.9105)">
<stop stop-color="#3A64C0"/>
<stop offset="1" stop-color="#111102"/>
</radialGradient>
<radialGradient id="paint2_radial_663_1437" cx="0" cy="0" r="1" gradientUnits="userSpaceOnUse" gradientTransform="translate(21.6689 14.8027) scale(23.6374)">
<stop stop-color="#7DBCFF"/>
<stop offset="0.510417" stop-color="#649CE9"/>
<stop offset="1" stop-color="#2E9BFF"/>
</radialGradient>
<linearGradient id="paint3_linear_663_1437" x1="16" y1="-2.30727" x2="16" y2="25.7946" gradientUnits="userSpaceOnUse">
<stop stop-color="#A2DDFD"/>
<stop offset="1" stop-color="#111102"/>
</linearGradient>
<linearGradient id="paint4_linear_663_1437" x1="30.0766" y1="27.5773" x2="22.356" y2="27.5773" gradientUnits="userSpaceOnUse">
<stop stop-color="#FFE18E"/>
<stop offset="1" stop-color="#F39D1A"/>
</linearGradient>
<linearGradient id="paint5_linear_663_1437" x1="1.94531" y1="27.5773" x2="9.67331" y2="27.5773" gradientUnits="userSpaceOnUse">
<stop stop-color="#FFE18E"/>
<stop offset="1" stop-color="#F39D1A"/>
</linearGradient>
<radialGradient id="paint6_radial_663_1437" cx="0" cy="0" r="1" gradientUnits="userSpaceOnUse" gradientTransform="translate(28.7751 30.2224) rotate(180) scale(12.9442 12.9442)">
<stop stop-color="#BFE8FD"/>
<stop offset="0.98" stop-color="#111102"/>
</radialGradient>
<radialGradient id="paint7_radial_663_1437" cx="0" cy="0" r="1" gradientUnits="userSpaceOnUse" gradientTransform="translate(28.7751 30.2224) rotate(180) scale(12.9442 12.9442)">
<stop stop-color="#BFE8FD"/>
<stop offset="0.98" stop-color="#111102"/>
</radialGradient>
<linearGradient id="paint8_linear_663_1437" x1="-0.0220748" y1="16.4029" x2="2.90042" y2="18.5888" gradientUnits="userSpaceOnUse">
<stop stop-color="#FFE18E"/>
<stop offset="0.96" stop-color="#F39D1A"/>
</linearGradient>
<radialGradient id="paint9_radial_663_1437" cx="0" cy="0" r="1" gradientUnits="userSpaceOnUse" gradientTransform="translate(1.90677 17.7744) scale(1.82272 1.82271)">
<stop stop-color="white"/>
<stop offset="1" stop-color="#BCBCBC"/>
</radialGradient>
<linearGradient id="paint10_linear_663_1437" x1="4.60976" y1="17.1076" x2="5.63145" y2="19.8007" gradientUnits="userSpaceOnUse">
<stop stop-color="#FFE18E"/>
<stop offset="0.96" stop-color="#F39D1A"/>
</linearGradient>
<radialGradient id="paint11_radial_663_1437" cx="0" cy="0" r="1" gradientUnits="userSpaceOnUse" gradientTransform="translate(4.79042 18.8638) scale(2.03019 2.03017)">
<stop stop-color="white"/>
<stop offset="1" stop-color="#BCBCBC"/>
</radialGradient>
<linearGradient id="paint12_linear_663_1437" x1="0.974609" y1="13.0766" x2="3.58946" y2="13.1003" gradientUnits="userSpaceOnUse">
<stop stop-color="#FFE18E"/>
<stop offset="0.96" stop-color="#F39D1A"/>
</linearGradient>
<radialGradient id="paint13_radial_663_1437" cx="0" cy="0" r="1" gradientUnits="userSpaceOnUse" gradientTransform="translate(2.11485 14.0625) scale(1.60784)">
<stop stop-color="white"/>
<stop offset="1" stop-color="#BCBCBC"/>
</radialGradient>
<linearGradient id="paint14_linear_663_1437" x1="3.82701" y1="10.2912" x2="7.18286" y2="10.2912" gradientUnits="userSpaceOnUse">
<stop stop-color="#FFE18E"/>
<stop offset="0.96" stop-color="#F39D1A"/>
</linearGradient>
<radialGradient id="paint15_radial_663_1437" cx="0" cy="0" r="1" gradientUnits="userSpaceOnUse" gradientTransform="translate(4.44077 11.4099) scale(1.75603 1.75602)">
<stop stop-color="white"/>
<stop offset="1" stop-color="#BCBCBC"/>
</radialGradient>
<linearGradient id="paint16_linear_663_1437" x1="4.23128" y1="14.1514" x2="4.15999" y2="16.8928" gradientUnits="userSpaceOnUse">
<stop stop-color="#FFE18E"/>
<stop offset="0.96" stop-color="#F39D1A"/>
</linearGradient>
<radialGradient id="paint17_radial_663_1437" cx="0" cy="0" r="1" gradientUnits="userSpaceOnUse" gradientTransform="translate(4.0474 15.6037) scale(1.77084 1.77085)">
<stop stop-color="white"/>
<stop offset="1" stop-color="#BCBCBC"/>
</radialGradient>
<linearGradient id="paint18_linear_663_1437" x1="-0.427205" y1="20.242" x2="6.00413" y2="20.242" gradientUnits="userSpaceOnUse">
<stop stop-color="#FFE18E"/>
<stop offset="0.96" stop-color="#F39D1A"/>
</linearGradient>
<radialGradient id="paint19_radial_663_1437" cx="0" cy="0" r="1" gradientUnits="userSpaceOnUse" gradientTransform="translate(3.13674 20.894) scale(2.50439 2.50438)">
<stop stop-color="white"/>
<stop offset="1" stop-color="#BCBCBC"/>
</radialGradient>
<radialGradient id="paint20_radial_663_1437" cx="0" cy="0" r="1" gradientUnits="userSpaceOnUse" gradientTransform="translate(3.77329 9.63152) scale(3.58613 3.58615)">
<stop stop-color="white"/>
<stop offset="0.96" stop-color="#111102"/>
</radialGradient>
<radialGradient id="paint21_radial_663_1437" cx="0" cy="0" r="1" gradientUnits="userSpaceOnUse" gradientTransform="translate(0.7968 12.1284) scale(4.81614 4.81611)">
<stop stop-color="white"/>
<stop offset="0.96" stop-color="#111102"/>
</radialGradient>
<radialGradient id="paint22_radial_663_1437" cx="0" cy="0" r="1" gradientUnits="userSpaceOnUse" gradientTransform="translate(1.81937 15.9442) scale(4.0307 4.0307)">
<stop stop-color="white"/>
<stop offset="0.96" stop-color="#111102"/>
</radialGradient>
<radialGradient id="paint23_radial_663_1437" cx="0" cy="0" r="1" gradientUnits="userSpaceOnUse" gradientTransform="translate(2.3971 19.9154) scale(3.86031 3.86029)">
<stop stop-color="white"/>
<stop offset="0.96" stop-color="#111102"/>
</radialGradient>
<radialGradient id="paint24_radial_663_1437" cx="0" cy="0" r="1" gradientUnits="userSpaceOnUse" gradientTransform="translate(4.31617 13.7883) scale(3.09713 3.09712)">
<stop stop-color="white"/>
<stop offset="0.96" stop-color="#111102"/>
</radialGradient>
<radialGradient id="paint25_radial_663_1437" cx="0" cy="0" r="1" gradientUnits="userSpaceOnUse" gradientTransform="translate(4.50075 17.3002) scale(3.53429 3.53429)">
<stop stop-color="white"/>
<stop offset="0.96" stop-color="#111102"/>
</radialGradient>
<radialGradient id="paint26_radial_663_1437" cx="0" cy="0" r="1" gradientUnits="userSpaceOnUse" gradientTransform="translate(6.07937 11.3579) scale(2.1635 2.16354)">
<stop stop-color="white"/>
<stop offset="0.96" stop-color="#111102"/>
</radialGradient>
<radialGradient id="paint27_radial_663_1437" cx="0" cy="0" r="1" gradientUnits="userSpaceOnUse" gradientTransform="translate(3.04076 12.7808) scale(2.01535)">
<stop stop-color="white"/>
<stop offset="0.96" stop-color="#111102"/>
</radialGradient>
<radialGradient id="paint28_radial_663_1437" cx="0" cy="0" r="1" gradientUnits="userSpaceOnUse" gradientTransform="translate(6.13131 15.648) scale(2.24505 2.24506)">
<stop stop-color="white"/>
<stop offset="0.96" stop-color="#111102"/>
</radialGradient>
<radialGradient id="paint29_radial_663_1437" cx="0" cy="0" r="1" gradientUnits="userSpaceOnUse" gradientTransform="translate(0.101288 17.4711) scale(2.71184)">
<stop stop-color="white"/>
<stop offset="0.96" stop-color="#111102"/>
</radialGradient>
<radialGradient id="paint30_radial_663_1437" cx="0" cy="0" r="1" gradientUnits="userSpaceOnUse" gradientTransform="translate(6.65709 18.4486) scale(2.2376 2.23763)">
<stop stop-color="white"/>
<stop offset="0.96" stop-color="#111102"/>
</radialGradient>
<radialGradient id="paint31_radial_663_1437" cx="0" cy="0" r="1" gradientUnits="userSpaceOnUse" gradientTransform="translate(1.73749 21.4274) scale(2.31912 2.31917)">
<stop stop-color="white"/>
<stop offset="0.96" stop-color="#111102"/>
</radialGradient>
<radialGradient id="paint32_radial_663_1437" cx="0" cy="0" r="1" gradientUnits="userSpaceOnUse" gradientTransform="translate(30.0413 16.3369) rotate(180) scale(3.30463 3.30459)">
<stop stop-color="#FFE18E"/>
<stop offset="0.96" stop-color="#F39D1A"/>
</radialGradient>
<radialGradient id="paint33_radial_663_1437" cx="0" cy="0" r="1" gradientUnits="userSpaceOnUse" gradientTransform="translate(30.1151 17.7744) rotate(180) scale(1.82272 1.82271)">
<stop stop-color="white"/>
<stop offset="1" stop-color="#BCBCBC"/>
</radialGradient>
<linearGradient id="paint34_linear_663_1437" x1="31.4628" y1="17.1076" x2="23.3865" y2="17.1076" gradientUnits="userSpaceOnUse">
<stop stop-color="#FFE18E"/>
<stop offset="0.96" stop-color="#F39D1A"/>
</linearGradient>
<radialGradient id="paint35_radial_663_1437" cx="0" cy="0" r="1" gradientUnits="userSpaceOnUse" gradientTransform="translate(27.2333 18.8638) rotate(180) scale(2.03019 2.03017)">
<stop stop-color="white"/>
<stop offset="1" stop-color="#BCBCBC"/>
</radialGradient>
<radialGradient id="paint36_radial_663_1437" cx="0" cy="0" r="1" gradientUnits="userSpaceOnUse" gradientTransform="translate(30.7155 13.3436) rotate(180) scale(2.76374 2.7637)">
<stop stop-color="#FFE18E"/>
<stop offset="0.96" stop-color="#F39D1A"/>
</radialGradient>
<radialGradient id="paint37_radial_663_1437" cx="0" cy="0" r="1" gradientUnits="userSpaceOnUse" gradientTransform="translate(29.9019 14.0625) rotate(128.328) scale(1.80705)">
<stop stop-color="white"/>
<stop offset="1" stop-color="#BCBCBC"/>
</radialGradient>
<radialGradient id="paint38_radial_663_1437" cx="0" cy="0" r="1" gradientUnits="userSpaceOnUse" gradientTransform="translate(27.7744 10.2912) rotate(180) scale(2.94153 2.94153)">
<stop stop-color="#FFE18E"/>
<stop offset="1" stop-color="#F39D1A"/>
</radialGradient>
<radialGradient id="paint39_radial_663_1437" cx="0" cy="0" r="1" gradientUnits="userSpaceOnUse" gradientTransform="translate(27.5747 11.4099) rotate(180) scale(1.75605 1.75602)">
<stop stop-color="white"/>
<stop offset="1" stop-color="#BCBCBC"/>
</radialGradient>
<radialGradient id="paint40_radial_663_1437" cx="0" cy="0" r="1" gradientUnits="userSpaceOnUse" gradientTransform="translate(27.3886 14.1514) rotate(180) scale(3.28236 3.28236)">
<stop stop-color="#FFE18E"/>
<stop offset="0.96" stop-color="#F39D1A"/>
</radialGradient>
<radialGradient id="paint41_radial_663_1437" cx="0" cy="0" r="1" gradientUnits="userSpaceOnUse" gradientTransform="translate(27.9668 15.6037) rotate(180) scale(1.77087 1.77085)">
<stop stop-color="white"/>
<stop offset="1" stop-color="#BCBCBC"/>
</radialGradient>
<linearGradient id="paint42_linear_663_1437" x1="32.4432" y1="20.242" x2="26.0118" y2="20.242" gradientUnits="userSpaceOnUse">
<stop stop-color="#FFE18E"/>
<stop offset="0.96" stop-color="#F39D1A"/>
</linearGradient>
<radialGradient id="paint43_radial_663_1437" cx="0" cy="0" r="1" gradientUnits="userSpaceOnUse" gradientTransform="translate(28.8773 20.894) rotate(180) scale(2.50439 2.50438)">
<stop stop-color="white"/>
<stop offset="1" stop-color="#BCBCBC"/>
</radialGradient>
<radialGradient id="paint44_radial_663_1437" cx="0" cy="0" r="1" gradientUnits="userSpaceOnUse" gradientTransform="translate(28.2409 9.63152) rotate(180) scale(3.58614 3.58615)">
<stop stop-color="white"/>
<stop offset="0.96" stop-color="#111102"/>
</radialGradient>
<radialGradient id="paint45_radial_663_1437" cx="0" cy="0" r="1" gradientUnits="userSpaceOnUse" gradientTransform="translate(31.2272 12.1284) rotate(180) scale(4.81604 4.81611)">
<stop stop-color="white"/>
<stop offset="0.96" stop-color="#111102"/>
</radialGradient>
<radialGradient id="paint46_radial_663_1437" cx="0" cy="0" r="1" gradientUnits="userSpaceOnUse" gradientTransform="translate(30.2058 15.9442) rotate(180) scale(4.0307 4.0307)">
<stop stop-color="white"/>
<stop offset="0.0001" stop-color="white"/>
<stop offset="0.96" stop-color="#111102"/>
</radialGradient>
<radialGradient id="paint47_radial_663_1437" cx="0" cy="0" r="1" gradientUnits="userSpaceOnUse" gradientTransform="translate(29.6264 19.9154) rotate(180) scale(3.86028 3.86029)">
<stop stop-color="white"/>
<stop offset="0.96" stop-color="#111102"/>
</radialGradient>
<radialGradient id="paint48_radial_663_1437" cx="0" cy="0" r="1" gradientUnits="userSpaceOnUse" gradientTransform="translate(27.7007 13.7883) rotate(180) scale(3.09713 3.09712)">
<stop stop-color="white"/>
<stop offset="0.96" stop-color="#111102"/>
</radialGradient>
<radialGradient id="paint49_radial_663_1437" cx="0" cy="0" r="1" gradientUnits="userSpaceOnUse" gradientTransform="translate(27.5221 17.3002) rotate(180) scale(3.5343 3.53429)">
<stop stop-color="white"/>
<stop offset="0.96" stop-color="#111102"/>
</radialGradient>
<radialGradient id="paint50_radial_663_1437" cx="0" cy="0" r="1" gradientUnits="userSpaceOnUse" gradientTransform="translate(25.9359 11.3579) rotate(180) scale(2.16351 2.16354)">
<stop stop-color="white"/>
<stop offset="0.96" stop-color="#111102"/>
</radialGradient>
<radialGradient id="paint51_radial_663_1437" cx="0" cy="0" r="1" gradientUnits="userSpaceOnUse" gradientTransform="translate(28.9746 12.7808) rotate(180) scale(2.01531 2.01535)">
<stop stop-color="white"/>
<stop offset="0.96" stop-color="#111102"/>
</radialGradient>
<radialGradient id="paint52_radial_663_1437" cx="0" cy="0" r="1" gradientUnits="userSpaceOnUse" gradientTransform="translate(25.886 15.648) rotate(180) scale(2.24509 2.24506)">
<stop stop-color="white"/>
<stop offset="0.96" stop-color="#111102"/>
</radialGradient>
<radialGradient id="paint53_radial_663_1437" cx="0" cy="0" r="1" gradientUnits="userSpaceOnUse" gradientTransform="translate(31.9223 17.4711) rotate(180) scale(2.71184)">
<stop stop-color="white"/>
<stop offset="0.96" stop-color="#111102"/>
</radialGradient>
<radialGradient id="paint54_radial_663_1437" cx="0" cy="0" r="1" gradientUnits="userSpaceOnUse" gradientTransform="translate(26.2872 18.8988) rotate(90) scale(0.94667 0.330167)">
<stop stop-color="white"/>
<stop offset="1" stop-color="#111102"/>
</radialGradient>
<radialGradient id="paint55_radial_663_1437" cx="0" cy="0" r="1" gradientUnits="userSpaceOnUse" gradientTransform="translate(29.4649 22.0776) rotate(90) scale(0.564916 0.902423)">
<stop stop-color="white"/>
<stop offset="1" stop-color="#111102"/>
</radialGradient>
<radialGradient id="paint56_radial_663_1437" cx="0" cy="0" r="1" gradientUnits="userSpaceOnUse" gradientTransform="translate(16.2222 18.1075) scale(14.9145)">
<stop offset="0.542908" stop-color="#FFE18E"/>
<stop offset="1" stop-color="#F39D1A"/>
</radialGradient>
<radialGradient id="paint57_radial_663_1437" cx="0" cy="0" r="1" gradientUnits="userSpaceOnUse" gradientTransform="translate(15.8071 18.1075) rotate(-178.706) scale(13.6343 13.6344)">
<stop offset="0.5334" stop-color="#FFE18E"/>
<stop offset="1" stop-color="#F39D1A"/>
</radialGradient>
<radialGradient id="paint58_radial_663_1437" cx="0" cy="0" r="1" gradientUnits="userSpaceOnUse" gradientTransform="translate(5.04899 20.9752) scale(8.38002 8.38004)">
<stop stop-color="white"/>
<stop offset="1"/>
</radialGradient>
<radialGradient id="paint59_radial_663_1437" cx="0" cy="0" r="1" gradientUnits="userSpaceOnUse" gradientTransform="translate(26.9825 20.9752) rotate(180) scale(8.37997 8.38004)">
<stop stop-color="white"/>
<stop offset="1"/>
</radialGradient>
</defs>
</svg>
