<svg width="36" height="35" viewBox="0 0 36 35" fill="none" xmlns="http://www.w3.org/2000/svg">
<g filter="url(#filter0_d_663_1167)">
<circle cx="18" cy="14.8027" r="14" fill="url(#paint0_radial_663_1167)"/>
<g style="mix-blend-mode:screen">
<path d="M31.5 14.8027C31.5 22.2586 25.4558 28.3027 18 28.3027C10.5442 28.3027 4.5 22.2586 4.5 14.8027C4.5 7.34689 10.5442 1.30273 18 1.30273C25.4558 1.30273 31.5 7.34689 31.5 14.8027Z" fill="url(#paint1_radial_663_1167)"/>
</g>
<path d="M28 14.8027C28 20.3256 23.5228 24.8027 18 24.8027C12.4772 24.8027 8 20.3256 8 14.8027C8 9.27989 12.4772 4.80273 18 4.80273C23.5228 4.80273 28 9.27989 28 14.8027Z" fill="url(#paint2_radial_663_1167)"/>
<g style="mix-blend-mode:screen">
<path d="M27 14.8027C27 19.7733 22.9706 23.8027 18 23.8027C13.0294 23.8027 9 19.7733 9 14.8027C9 9.83217 13.0294 5.80273 18 5.80273C22.9706 5.80273 27 9.83217 27 14.8027Z" fill="url(#paint3_linear_663_1167)"/>
</g>
<path d="M19.4434 8.91406V19.1367H17.1215V11.2403L14.332 12.011V10.4205L19.1934 8.91406H19.4434Z" fill="#669FEB"/>
<path fill-rule="evenodd" clip-rule="evenodd" d="M32.1063 26.1177C31.5505 26.051 27.9792 25.5323 27.9792 24.6877C27.9829 24.6272 27.9994 24.5683 28.0275 24.5146C28.0556 24.461 28.0947 24.4139 28.1422 24.3765C26.6826 25.2428 25.4527 26.4473 24.5561 27.8885C24.4763 27.9924 24.422 28.1136 24.3975 28.2422C24.3731 28.3709 24.3792 28.5035 24.4153 28.6295C24.4946 28.8475 24.6534 29.0275 24.8598 29.1333C26.2952 29.9144 27.8383 30.4787 29.4389 30.8078C29.6499 29.9178 29.7149 28.9994 29.6315 28.0886C30.6434 27.7203 31.5124 27.0406 32.1137 26.1473L32.1063 26.1177Z" fill="url(#paint4_linear_663_1167)"/>
<path fill-rule="evenodd" clip-rule="evenodd" d="M25.0328 27.9181C25.2476 28.7627 28.3374 29.5926 29.5747 29.889C29.5747 30.0421 29.5525 30.1952 29.508 30.3483C28.3966 30.089 24.9735 29.1703 24.7142 28.2737C24.686 28.1579 24.6839 28.0373 24.7083 27.9207C24.7326 27.804 24.7828 27.6943 24.855 27.5995L25.181 27.2809C25.1091 27.3686 25.0584 27.4717 25.0327 27.5822C25.007 27.6927 25.0071 27.8076 25.0328 27.9181ZM31.3974 26.9622C30.4268 26.8066 27.3519 26.2213 27.3 25.4285C27.2975 25.3563 27.3108 25.2844 27.339 25.2178C27.3671 25.1513 27.4095 25.0917 27.463 25.0432L27.789 24.7246C27.7383 24.7674 27.6975 24.8207 27.6694 24.8809C27.6412 24.941 27.6265 25.0065 27.6261 25.0729C27.6261 25.9027 31.0121 26.4584 31.7679 26.5547C31.6518 26.6947 31.5281 26.8283 31.3974 26.9548V26.9622Z" fill="white"/>
<path fill-rule="evenodd" clip-rule="evenodd" d="M26.3955 27.9848C25.9287 28.3034 24.2394 27.7329 24.3801 28.5924C24.344 28.4665 24.3379 28.3339 24.3624 28.2052C24.3868 28.0765 24.4411 27.9554 24.5209 27.8515C25.6388 26.1546 27.0848 24.6985 28.7739 23.5688C28.7263 23.6063 28.6872 23.6534 28.6591 23.707C28.631 23.7607 28.6146 23.8196 28.6109 23.88C28.6109 24.1245 28.8999 24.3394 29.3519 24.5098C28.5388 25.7956 27.5401 26.9541 26.3881 27.9478L26.3955 27.9848Z" fill="#753107"/>
<path fill-rule="evenodd" clip-rule="evenodd" d="M3.95273 26.1177C4.50843 26.051 8.07977 25.5323 8.07977 24.6877C8.07605 24.6272 8.05961 24.5683 8.03152 24.5146C8.00342 24.461 7.96432 24.4139 7.91676 24.3765C9.37637 25.2428 10.6063 26.4473 11.5029 27.8885C11.5827 27.9924 11.637 28.1136 11.6614 28.2422C11.6859 28.3709 11.6798 28.5035 11.6437 28.6295C11.5644 28.8475 11.4056 29.0275 11.1991 29.1333C9.76381 29.9144 8.22074 30.4787 6.62012 30.8078C6.40909 29.9178 6.34402 28.9994 6.42746 28.0886C5.41558 27.7203 4.54654 27.0406 3.94531 26.1473L3.95273 26.1177Z" fill="url(#paint5_linear_663_1167)"/>
<path fill-rule="evenodd" clip-rule="evenodd" d="M10.9988 27.9181C10.7839 28.7627 7.69422 29.5926 6.45685 29.889C6.45685 30.0421 6.47907 30.1952 6.52353 30.3483C7.63494 30.089 11.0581 29.1703 11.3174 28.2737C11.3456 28.1579 11.3476 28.0373 11.3233 27.9207C11.2989 27.804 11.2488 27.6943 11.1766 27.5995L10.8506 27.2809C10.9224 27.3686 10.9732 27.4717 10.9989 27.5822C11.0245 27.6927 11.0245 27.8076 10.9988 27.9181ZM4.63414 26.9622C5.60477 26.8066 8.67967 26.2213 8.73154 25.4285C8.73404 25.3563 8.72075 25.2844 8.6926 25.2178C8.66444 25.1513 8.6221 25.0917 8.56853 25.0432L8.24251 24.7246C8.29323 24.7674 8.33406 24.8207 8.3622 24.8809C8.39034 24.941 8.40512 25.0065 8.40552 25.0729C8.40552 25.9027 5.01943 26.4584 4.26367 26.5547C4.37979 26.6947 4.50347 26.8283 4.63414 26.9548V26.9622Z" fill="white"/>
<path fill-rule="evenodd" clip-rule="evenodd" d="M9.62822 27.9848C10.095 28.3034 11.7844 27.7329 11.6436 28.5924C11.6797 28.4665 11.6858 28.3339 11.6613 28.2052C11.6369 28.0765 11.5826 27.9554 11.5028 27.8515C10.3849 26.1546 8.93891 24.6985 7.24981 23.5688C7.29736 23.6063 7.33647 23.6534 7.36456 23.707C7.39265 23.7607 7.4091 23.8196 7.41281 23.88C7.41281 24.1245 7.12385 24.3394 6.67188 24.5098C7.48496 25.7956 8.48367 26.9541 9.63563 27.9478L9.62822 27.9848Z" fill="#753107"/>
<path style="mix-blend-mode:screen" fill-rule="evenodd" clip-rule="evenodd" d="M25.3366 21.3682C25.0328 21.8572 23.8547 23.8355 23.5065 24.2875C23.1583 24.7395 23.1286 24.9025 22.3803 24.9544C21.6319 25.0062 20.0463 25.0581 19.4165 25.0655C19.1275 25.0655 18.8756 24.9543 18.8979 24.6209C18.9201 24.2875 19.2016 24.2875 19.4239 24.2801C19.9944 24.2801 21.3281 24.206 21.9653 24.1615C22.1863 24.162 22.406 24.1296 22.6174 24.0652C22.8432 23.9298 23.0376 23.7479 23.1879 23.5317C23.5139 23.1613 24.6698 21.3978 24.9365 21.0718C25.2032 20.7458 25.5441 21.0718 25.3514 21.3682H25.3366Z" fill="url(#paint6_radial_663_1167)"/>
<path style="mix-blend-mode:screen" fill-rule="evenodd" clip-rule="evenodd" d="M25.3366 21.3682C25.0328 21.8572 23.8547 23.8355 23.5065 24.2875C23.1583 24.7395 23.1286 24.9025 22.3803 24.9544C21.6319 25.0062 20.0463 25.0581 19.4165 25.0655C19.1275 25.0655 18.8756 24.9543 18.8979 24.6209C18.9201 24.2875 19.2016 24.2875 19.4239 24.2801C19.9944 24.2801 21.3281 24.206 21.9653 24.1615C22.1863 24.162 22.406 24.1296 22.6174 24.0652C22.8432 23.9298 23.0376 23.7479 23.1879 23.5317C23.5139 23.1613 24.6698 21.3978 24.9365 21.0718C25.2032 20.7458 25.5441 21.0718 25.3514 21.3682H25.3366Z" fill="url(#paint7_radial_663_1167)"/>
<path fill-rule="evenodd" clip-rule="evenodd" d="M10.1073 25.4356C8.34052 24.3786 6.91549 22.8352 6.00244 20.99C4.6317 18.1966 4.35757 14.3808 6.15805 11.7949C5.52093 13.2032 5.22321 14.7413 5.28884 16.2855C5.35447 17.8298 5.78161 19.3371 6.53592 20.6862C7.43874 22.4002 8.81117 23.8214 10.4925 24.7836C10.579 24.8327 10.6424 24.9142 10.6688 25.0101C10.6952 25.1059 10.6824 25.2084 10.6333 25.2948C10.5842 25.3813 10.5027 25.4447 10.4069 25.4711C10.311 25.4975 10.2085 25.4847 10.1221 25.4356H10.1073Z" fill="#8C4010"/>
<path fill-rule="evenodd" clip-rule="evenodd" d="M3.8935 19.1525C3.61871 19.1232 3.3598 19.0093 3.15256 18.8265C2.83923 18.5536 2.58679 18.2178 2.41162 17.841C2.13467 17.1627 2.06504 16.4176 2.21155 15.6997C2.25601 15.6997 2.38198 15.7368 2.58944 15.8405C2.7969 15.9442 2.87099 15.9516 3.01918 16.0109C3.30073 16.122 3.58971 16.2332 3.86386 16.3666C4.55293 16.7 5.19755 17.1816 5.21237 17.8484C5.21237 18.2411 4.98268 18.5301 5.09382 18.945C4.79004 18.945 4.25656 19.1969 3.88609 19.1451L3.8935 19.1525Z" fill="url(#paint8_linear_663_1167)"/>
<path style="mix-blend-mode:multiply" fill-rule="evenodd" clip-rule="evenodd" d="M4.5736 17.2113C5.03299 18.3375 3.74376 19.3674 2.58789 18.1597C2.75167 18.4054 2.94585 18.6295 3.16582 18.8265C3.37306 19.0093 3.63197 19.1233 3.90676 19.1525C4.28464 19.2044 4.81812 18.9451 5.1145 18.9525C5.00336 18.5376 5.24046 18.2116 5.23305 17.8559C5.23305 17.1891 4.60324 16.7223 3.9438 16.374C4.24512 16.5696 4.47413 16.8585 4.59583 17.1965L4.5736 17.2113Z" fill="url(#paint9_radial_663_1167)"/>
<path fill-rule="evenodd" clip-rule="evenodd" d="M2.30078 15.8555C2.63103 16.441 3.01555 16.9942 3.44925 17.5078C3.97808 18.0914 4.59269 18.5911 5.27196 18.9896C5.30448 19.0212 5.3299 19.0593 5.34651 19.1015C5.36312 19.1437 5.37054 19.1889 5.36828 19.2342C5.08856 18.984 4.78591 18.7607 4.46433 18.5673C4.05322 18.2763 3.67989 17.9353 3.35293 17.5522C2.93715 17.0323 2.584 16.4653 2.30078 15.8629V15.8555Z" fill="#8C4010"/>
<path fill-rule="evenodd" clip-rule="evenodd" d="M7.87803 19.7676C8.03275 19.4848 8.12142 19.1707 8.13736 18.8488C8.15295 18.0843 8.00121 17.3257 7.6928 16.626C7.04732 16.9888 6.4945 17.496 6.07755 18.1079C5.90914 18.3595 5.78392 18.6374 5.70708 18.9303C5.66968 19.187 5.72203 19.4487 5.85528 19.6712C6.01196 19.9441 6.18261 20.2087 6.36653 20.464C6.6674 20.4067 6.9625 20.3224 7.24825 20.2121C7.49964 20.111 7.71956 19.9448 7.88545 19.7305L7.87803 19.7676Z" fill="url(#paint10_linear_663_1167)"/>
<path style="mix-blend-mode:multiply" fill-rule="evenodd" clip-rule="evenodd" d="M6.79782 19.9233C7.07634 19.8534 7.33793 19.7281 7.56705 19.555C7.79617 19.3819 7.98815 19.1645 8.13153 18.9157C8.11729 19.2275 8.03105 19.5318 7.87959 19.8048C7.7137 20.019 7.49378 20.1853 7.24239 20.2864C6.95664 20.3966 6.66154 20.481 6.36067 20.5383C6.17675 20.283 6.0061 20.0184 5.84942 19.7455C5.71617 19.523 5.66382 19.2612 5.70122 19.0046C5.75962 18.776 5.8494 18.5565 5.96797 18.3525C5.78274 18.9453 5.842 20.1678 6.79041 19.9456L6.79782 19.9233Z" fill="url(#paint11_radial_663_1167)"/>
<path fill-rule="evenodd" clip-rule="evenodd" d="M4.60475 15.1664C4.74553 14.707 5.3457 14.4773 5.23456 13.7734C5.1517 13.3785 4.93754 13.0233 4.62698 12.7657C4.30127 12.5222 4.00532 12.2411 3.74526 11.9285C3.66376 11.7877 3.63413 11.6765 3.58967 11.6839C3.54521 11.6914 3.2266 12.2545 3.18214 12.3582C3.0495 12.7214 2.98179 13.1052 2.98209 13.4918C2.95295 13.8072 3.00926 14.1245 3.1451 14.4106C3.31065 14.648 3.53298 14.8401 3.79182 14.9695C4.05066 15.099 4.33776 15.1615 4.62698 15.1515L4.60475 15.1664Z" fill="url(#paint12_linear_663_1167)"/>
<path style="mix-blend-mode:multiply" fill-rule="evenodd" clip-rule="evenodd" d="M4.28527 14.6775C4.4436 14.6113 4.58531 14.5108 4.70024 14.3834C4.81518 14.2559 4.90048 14.1046 4.95006 13.9403C4.99963 13.776 5.01225 13.6028 4.98698 13.433C4.96172 13.2633 4.89919 13.1012 4.80392 12.9585C5.02905 13.1814 5.17925 13.4688 5.23367 13.7809C5.32259 14.5219 4.74465 14.7145 4.60387 15.1739C4.31465 15.1839 4.02755 15.1213 3.76871 14.9919C3.50987 14.8625 3.28754 14.6703 3.12199 14.433C3.01733 14.2287 2.96153 14.003 2.95898 13.7735C3.00992 14.0049 3.11964 14.2193 3.27758 14.3959C3.39034 14.5399 3.54475 14.6456 3.71978 14.6987C3.8948 14.7517 4.08192 14.7495 4.25563 14.6923L4.28527 14.6775Z" fill="url(#paint13_radial_663_1167)"/>
<path fill-rule="evenodd" clip-rule="evenodd" d="M3.59669 11.8844C3.49035 12.5481 3.56194 13.2282 3.80415 13.8553C4.04125 14.4406 4.68589 15.1667 4.9304 15.7447C4.97485 15.3742 4.88594 15.4779 4.5377 14.937C3.86302 14.065 3.52855 12.9774 3.59669 11.877V11.8844Z" fill="#8C4010"/>
<path fill-rule="evenodd" clip-rule="evenodd" d="M5.69302 12.6844C5.69302 12.4695 5.35959 12.0546 5.32995 11.8323C5.31344 11.5789 5.35117 11.325 5.44061 11.0873C5.53005 10.8497 5.66915 10.6338 5.84861 10.4542C6.10838 10.1908 6.42296 9.98794 6.77 9.85988C7.11703 9.73183 7.48799 9.68176 7.85655 9.71325C7.91583 9.71325 7.95289 9.71326 7.96771 9.75771C7.98253 9.80217 7.9677 9.80957 7.8862 9.89108C7.76186 10.1184 7.69567 10.3729 7.69355 10.632C7.69355 10.7728 7.69356 10.9284 7.63428 11.1062C7.61567 11.3556 7.57853 11.6033 7.52315 11.8472C7.46804 12.0729 7.34576 12.2766 7.17246 12.4314C6.99916 12.5861 6.78301 12.6847 6.55252 12.7141C6.27 12.6779 5.98516 12.663 5.70042 12.6696L5.69302 12.6844Z" fill="url(#paint14_linear_663_1167)"/>
<path style="mix-blend-mode:multiply" fill-rule="evenodd" clip-rule="evenodd" d="M5.93692 12.062C5.76976 11.8573 5.66428 11.6092 5.6328 11.3468C5.60131 11.0844 5.64512 10.8185 5.7591 10.5801C5.60853 10.7499 5.49356 10.9483 5.42101 11.1634C5.34847 11.3784 5.31982 11.6059 5.33676 11.8323C5.33676 12.0545 5.685 12.4695 5.69982 12.6843C5.98456 12.6778 6.2694 12.6926 6.55192 12.7288C6.78241 12.6994 6.99856 12.6009 7.17186 12.4461C7.34516 12.2913 7.46744 12.0876 7.52254 11.8619C7.55429 11.7428 7.57659 11.6214 7.58923 11.4988C7.56013 11.6765 7.48326 11.8429 7.36686 11.9803C7.25046 12.1177 7.09892 12.2208 6.92842 12.2786C6.75792 12.3365 6.5749 12.3469 6.39895 12.3087C6.22299 12.2705 6.06074 12.1852 5.92953 12.062H5.93692Z" fill="url(#paint15_radial_663_1167)"/>
<path fill-rule="evenodd" clip-rule="evenodd" d="M7.85845 9.77246C7.22979 9.99978 6.71603 10.4656 6.42844 11.0691C6.25061 11.4025 5.99869 12.4398 5.6875 12.6844C5.95497 12.1504 6.178 11.5953 6.35434 11.0247C6.48732 10.7153 6.69044 10.4411 6.94763 10.2238C7.20482 10.0065 7.50903 9.85196 7.83622 9.77246H7.85845Z" fill="#8C4010"/>
<path fill-rule="evenodd" clip-rule="evenodd" d="M5.25615 16.8928C5.27342 16.7898 5.27342 16.6847 5.25615 16.5816C5.18947 16.1445 4.94495 15.4035 5.31542 14.9812C5.65593 14.61 6.08016 14.3255 6.55279 14.1514C6.85732 14.0056 7.14336 13.824 7.40487 13.6105C7.51601 13.5142 7.54566 13.3511 7.61975 13.6105C7.72794 13.893 7.79287 14.1903 7.81238 14.4922C7.78452 15.1161 7.57602 15.7184 7.21222 16.226C6.76766 16.6335 6.00449 16.552 5.73034 16.6039C5.57093 16.6663 5.42123 16.7511 5.28577 16.8558L5.25615 16.8928Z" fill="url(#paint16_linear_663_1167)"/>
<path style="mix-blend-mode:multiply" fill-rule="evenodd" clip-rule="evenodd" d="M6.1289 16.4261C5.8873 16.3212 5.69269 16.1311 5.58204 15.892C5.47139 15.653 5.45243 15.3816 5.52875 15.1295C5.68464 14.8075 5.91594 14.5279 6.203 14.3145C5.86481 14.4678 5.56396 14.6928 5.32128 14.9739C4.95081 15.3962 5.19531 16.1372 5.262 16.5743C5.27927 16.6773 5.27927 16.7825 5.262 16.8855C5.39745 16.7808 5.54715 16.696 5.70656 16.6336C6.14089 16.6321 6.57181 16.557 6.98098 16.4113C6.70718 16.5191 6.40271 16.5191 6.1289 16.4113V16.4261Z" fill="url(#paint17_radial_663_1167)"/>
<path fill-rule="evenodd" clip-rule="evenodd" d="M5.21081 22.7316C4.91052 22.7099 4.61963 22.6174 4.36204 22.4615C4.10444 22.3057 3.88748 22.091 3.72893 21.835C3.46014 21.436 3.21281 21.023 2.98799 20.5976C2.89908 20.4198 2.81016 20.3087 2.8398 20.2642C2.86943 20.2198 2.97318 20.2642 3.151 20.2642C3.65484 20.2642 4.36614 20.0716 4.8848 20.116C5.25023 20.1744 5.58061 20.3673 5.81097 20.6569H5.97398C6.14213 20.7589 6.27622 20.9084 6.35926 21.0867C6.46716 21.3997 6.55622 21.7188 6.62599 22.0425C6.66188 22.1594 6.71697 22.2696 6.789 22.3685C6.23939 22.4658 5.6953 22.5919 5.15894 22.7464L5.21081 22.7316Z" fill="url(#paint18_linear_663_1167)"/>
<path style="mix-blend-mode:multiply" fill-rule="evenodd" clip-rule="evenodd" d="M6.08515 20.8199C6.36671 20.9459 6.24816 21.8128 6.08515 21.9684C5.82635 22.2607 5.46707 22.4451 5.07864 22.4849C4.69021 22.5248 4.301 22.4171 3.98828 22.1832C4.13986 22.3565 4.32512 22.497 4.53275 22.5964C4.74037 22.6957 4.96603 22.7518 5.19602 22.7612C5.73237 22.6067 6.27649 22.4806 6.82609 22.3833C6.75407 22.2844 6.69898 22.1742 6.66308 22.0573C6.59332 21.7336 6.50423 21.4145 6.39633 21.1015C6.31329 20.9232 6.17921 20.7737 6.01105 20.6717H5.84805C5.72966 20.5517 5.60072 20.4426 5.46277 20.3457C5.58064 20.4782 5.68488 20.6221 5.77395 20.7754C5.88509 20.931 5.95177 20.7754 6.07032 20.8199H6.08515Z" fill="url(#paint19_radial_663_1167)"/>
<path fill-rule="evenodd" clip-rule="evenodd" d="M3.00391 20.3828C3.46747 20.7499 4.01044 21.0037 4.58951 21.1237C4.94952 21.2088 5.3035 21.3177 5.64907 21.4497C6.11832 21.6353 6.52815 21.9453 6.83457 22.3462C6.47442 22.0172 6.06101 21.7516 5.61201 21.5609C5.26376 21.4275 4.87107 21.3386 4.55247 21.22C3.95721 21.0986 3.41535 20.7927 3.00391 20.3457V20.3828Z" fill="#8C4010"/>
<path fill-rule="evenodd" clip-rule="evenodd" d="M7.49449 13.6772C7.18657 14.5668 6.65601 15.3626 5.95335 15.989C5.80516 16.1149 5.41245 16.4409 5.38281 16.6484C5.5707 16.4335 5.77915 16.2374 6.0052 16.0631C6.73257 15.442 7.25015 14.6113 7.48708 13.6847L7.49449 13.6772Z" fill="#8C4010"/>
<path fill-rule="evenodd" clip-rule="evenodd" d="M7.65786 16.8037C7.60237 17.7978 7.3075 18.7637 6.79837 19.6193C6.69464 19.7823 6.40566 20.2046 6.44271 20.4121C6.56136 20.1516 6.70531 19.9035 6.87247 19.6711C7.40847 18.8125 7.68149 17.8157 7.65786 16.8037Z" fill="#8C4010"/>
<path style="mix-blend-mode:screen" fill-rule="evenodd" clip-rule="evenodd" d="M6.9662 9.87602C6.61159 9.9727 6.28835 10.1603 6.02845 10.4202C5.76855 10.6801 5.581 11.0033 5.48432 11.3579C5.42675 11.6085 5.46093 11.8713 5.58065 12.0988C5.59542 12.1289 5.61619 12.1555 5.64168 12.1772C5.66717 12.1989 5.69682 12.2151 5.72882 12.2248C5.75713 12.2292 5.78611 12.2244 5.81147 12.2111C5.83682 12.1977 5.85721 12.1765 5.8696 12.1507C5.95847 11.6865 6.11315 11.2375 6.32898 10.817C6.51356 10.4609 6.79643 10.1652 7.14402 9.96494C7.37371 9.80935 7.07734 9.8538 6.94397 9.88344L6.9662 9.87602Z" fill="url(#paint20_radial_663_1167)"/>
<path style="mix-blend-mode:screen" fill-rule="evenodd" clip-rule="evenodd" d="M3.47106 12.2766C3.47121 12.2572 3.46734 12.2379 3.45969 12.2201C3.45204 12.2022 3.44077 12.1861 3.42661 12.1729C3.3365 12.2162 3.26722 12.2934 3.23396 12.3877C3.06264 12.9504 3.06264 13.5514 3.23396 14.1141C3.28215 14.2231 3.3525 14.3209 3.44051 14.4013C3.52853 14.4816 3.63228 14.5428 3.74521 14.5809C3.94526 14.6328 4.14532 14.5809 4.00454 14.329C3.9008 14.1578 3.8092 13.9795 3.7304 13.7955C3.66279 13.6201 3.6107 13.4391 3.57478 13.2546C3.51542 12.9321 3.48813 12.6045 3.49329 12.2766H3.47106Z" fill="url(#paint21_radial_663_1167)"/>
<path style="mix-blend-mode:screen" fill-rule="evenodd" clip-rule="evenodd" d="M4.79742 17.5446C4.50105 16.6481 3.9231 16.411 3.11547 16.0627C2.71537 15.9071 2.55237 15.8923 2.5005 15.9516C2.44864 16.0109 2.72277 16.3887 2.99692 16.737C3.27107 17.0852 3.56004 17.3964 3.85641 17.715C3.98526 17.8507 4.1213 17.9793 4.26394 18.1003C4.49364 18.3004 4.66404 18.4337 4.76036 18.3522C4.85668 18.2707 4.84927 17.7002 4.76036 17.5224L4.79742 17.5446Z" fill="url(#paint22_radial_663_1167)"/>
<path style="mix-blend-mode:screen" fill-rule="evenodd" clip-rule="evenodd" d="M5.76043 21.0787C5.68634 20.9527 5.64187 20.8045 5.56778 20.6786C5.51482 20.5843 5.45011 20.4972 5.37515 20.4193C5.11661 20.2587 4.80648 20.203 4.50824 20.2636C4.20446 20.3007 3.89326 20.4118 3.58207 20.4563C3.51538 20.4563 3.44128 20.4563 3.36719 20.4563C3.53123 20.6709 3.76405 20.8226 4.02663 20.886C4.4712 21.049 4.97503 21.1157 5.41219 21.2713C5.53074 21.3158 5.64929 21.3602 5.76043 21.4195C5.87157 21.4788 6.07162 21.627 5.94567 21.3084C5.8916 21.2213 5.82959 21.1395 5.76043 21.0639V21.0787Z" fill="url(#paint23_radial_663_1167)"/>
<path style="mix-blend-mode:screen" fill-rule="evenodd" clip-rule="evenodd" d="M5.71601 15.6629C5.69797 15.3958 5.75852 15.1293 5.89018 14.8962C6.02185 14.6632 6.21888 14.4738 6.45695 14.3514C6.69385 14.2211 6.94179 14.112 7.19789 14.0254C7.19789 14.0254 7.26457 14.0254 7.29421 14.0254C7.04188 14.6835 6.64423 15.2762 6.13093 15.7592C5.87901 15.9592 5.75305 16.0704 5.73082 15.6777L5.71601 15.6629Z" fill="url(#paint24_radial_663_1167)"/>
<path style="mix-blend-mode:screen" fill-rule="evenodd" clip-rule="evenodd" d="M7.07869 17.2854C6.97924 17.3682 6.88519 17.4573 6.79713 17.5521C6.61043 17.7631 6.44421 17.9914 6.30071 18.2338C6.09 18.5523 6.01036 18.9398 6.07842 19.3156C6.13028 19.6861 6.32293 20.1529 6.63412 19.6416C6.79525 19.3823 6.93884 19.1125 7.06388 18.834C7.2434 18.3946 7.36543 17.9339 7.42693 17.4632C7.50102 16.8853 7.42692 16.9816 7.07127 17.2854H7.07869Z" fill="url(#paint25_radial_663_1167)"/>
<path style="mix-blend-mode:screen" fill-rule="evenodd" clip-rule="evenodd" d="M7.2199 11.9655C7.30206 11.8837 7.36971 11.7885 7.41994 11.6839C7.4692 11.5676 7.50405 11.4457 7.52368 11.3209C7.52368 11.1505 7.58295 10.9801 7.60518 10.8096C7.6274 10.6392 7.60518 10.5207 7.49404 10.7578C7.38337 11.0961 7.24715 11.4255 7.08653 11.7432C7.04208 11.8247 6.9902 11.8988 6.93834 11.9729C6.88647 12.047 6.82721 12.1063 6.83462 12.1359C6.84202 12.1656 6.88647 12.1359 7.02724 12.0915C7.09398 12.0544 7.15615 12.0096 7.21248 11.9581L7.2199 11.9655Z" fill="url(#paint26_radial_663_1167)"/>
<path style="mix-blend-mode:screen" fill-rule="evenodd" clip-rule="evenodd" d="M4.90739 13.4254C4.88428 13.3104 4.84167 13.2001 4.78142 13.0994C4.71198 12.9935 4.62988 12.8965 4.53692 12.8105C4.41837 12.6845 4.28499 12.5734 4.15903 12.4622C4.03307 12.3511 3.90712 12.314 4.05531 12.5289C4.27512 12.8098 4.47326 13.1071 4.64805 13.418C4.69251 13.4995 4.72214 13.581 4.75919 13.67C4.79624 13.7589 4.81106 13.8404 4.83329 13.8478C4.85552 13.8552 4.89257 13.8478 4.90739 13.6625C4.91641 13.5862 4.91641 13.5091 4.90739 13.4328V13.4254Z" fill="url(#paint27_radial_663_1167)"/>
<path style="mix-blend-mode:screen" fill-rule="evenodd" clip-rule="evenodd" d="M6.96804 16.3297C7.19643 16.2111 7.37699 16.0175 7.47929 15.7814C7.5682 15.5813 7.69415 15.1516 7.63488 15.1368C7.5756 15.1219 7.45705 15.4183 7.37554 15.5443C7.20885 15.8385 6.97847 16.0916 6.70129 16.2852C6.61978 16.3371 6.5531 16.3741 6.5457 16.4038C6.53829 16.4334 6.58275 16.4556 6.73835 16.4038C6.81529 16.3925 6.89016 16.37 6.96062 16.3371L6.96804 16.3297Z" fill="url(#paint28_radial_663_1167)"/>
<path style="mix-blend-mode:screen" fill-rule="evenodd" clip-rule="evenodd" d="M3.17566 18.5159C2.89547 18.3608 2.67024 18.1226 2.53103 17.8342C2.4273 17.6045 2.28652 17.0933 2.35321 17.0933C2.41989 17.0933 2.55327 17.4119 2.64219 17.5526C2.85679 17.8952 3.1392 18.1902 3.47203 18.4195C3.56095 18.4788 3.64244 18.5233 3.64985 18.5529C3.65726 18.5826 3.60541 18.6122 3.42758 18.5529C3.34045 18.5406 3.25558 18.5156 3.17566 18.4788V18.5159Z" fill="url(#paint29_radial_663_1167)"/>
<path style="mix-blend-mode:screen" fill-rule="evenodd" clip-rule="evenodd" d="M8.06435 18.6931C8.06435 18.4486 8.01251 17.9521 7.94582 17.9521C7.87914 17.9521 7.87912 18.3226 7.85689 18.4856C7.80437 18.8859 7.68412 19.2742 7.50125 19.6341C7.4568 19.7304 7.39752 19.8045 7.40493 19.8341C7.41234 19.8638 7.47161 19.8341 7.61239 19.76C7.75855 19.6256 7.87443 19.4616 7.95236 19.2789C8.03028 19.0962 8.06846 18.8991 8.06435 18.7005V18.6931Z" fill="url(#paint30_radial_663_1167)"/>
<path style="mix-blend-mode:screen" fill-rule="evenodd" clip-rule="evenodd" d="M4.07092 22.1387C3.9005 21.9609 3.59672 21.5533 3.65599 21.5163C3.71527 21.4792 3.95236 21.7386 4.08573 21.8497C4.43505 22.1198 4.82524 22.3324 5.24159 22.4795C5.33791 22.524 5.43423 22.5314 5.44905 22.561C5.46387 22.5907 5.44905 22.6277 5.24159 22.6425C4.80296 22.6327 4.38553 22.4519 4.07833 22.1387H4.07092Z" fill="url(#paint31_radial_663_1167)"/>
<path fill-rule="evenodd" clip-rule="evenodd" d="M25.9149 25.4356C27.6816 24.3786 29.1066 22.8352 30.0197 20.99C31.3904 18.1966 31.6645 14.3808 29.8641 11.7949C30.5012 13.2032 30.7989 14.7413 30.7333 16.2855C30.6677 17.8298 30.2405 19.3371 29.4862 20.6862C28.5834 22.4002 27.2109 23.8214 25.5296 24.7836C25.4431 24.8327 25.3797 24.9142 25.3533 25.0101C25.3269 25.1059 25.3397 25.2084 25.3888 25.2948C25.4379 25.3813 25.5194 25.4447 25.6153 25.4711C25.7112 25.4975 25.8136 25.4847 25.9 25.4356H25.9149Z" fill="#8C4010"/>
<path fill-rule="evenodd" clip-rule="evenodd" d="M32.108 19.1525C32.3827 19.1232 32.6417 19.0093 32.8489 18.8265C33.1622 18.5536 33.4147 18.2178 33.5898 17.841C33.8668 17.1627 33.9364 16.4176 33.7899 15.6997C33.7454 15.6997 33.6195 15.7368 33.412 15.8405C33.2046 15.9442 33.1304 15.9516 32.9823 16.0109C32.7007 16.122 32.4117 16.2332 32.1376 16.3666C31.4485 16.7 30.8039 17.1816 30.7891 17.8484C30.7891 18.2411 31.0188 18.5301 30.9076 18.945C31.2114 18.945 31.7449 19.1969 32.1154 19.1451L32.108 19.1525Z" fill="url(#paint32_radial_663_1167)"/>
<path style="mix-blend-mode:multiply" fill-rule="evenodd" clip-rule="evenodd" d="M31.4408 17.2113C30.9814 18.3375 32.2707 19.3674 33.4266 18.1597C33.2628 18.4054 33.0686 18.6295 32.8486 18.8265C32.6414 19.0093 32.3825 19.1233 32.1077 19.1525C31.7298 19.2044 31.1963 18.9451 30.9 18.9525C31.0111 18.5376 30.774 18.2116 30.7814 17.8559C30.7814 17.1891 31.4112 16.7223 32.0706 16.374C31.7693 16.5696 31.5403 16.8585 31.4186 17.1965L31.4408 17.2113Z" fill="url(#paint33_radial_663_1167)"/>
<path fill-rule="evenodd" clip-rule="evenodd" d="M33.7161 15.8555C33.3859 16.4409 33.0014 16.9941 32.5677 17.5078C32.0389 18.0914 31.4242 18.5911 30.745 18.9896C30.7128 19.0215 30.6877 19.0597 30.6711 19.1018C30.6545 19.1439 30.6469 19.1889 30.6487 19.2342C30.9284 18.984 31.2311 18.7608 31.5526 18.5673C31.9637 18.2763 32.3371 17.9353 32.664 17.5522C33.0798 17.0323 33.4329 16.4653 33.7161 15.8629V15.8555Z" fill="#8C4010"/>
<path fill-rule="evenodd" clip-rule="evenodd" d="M28.1354 19.7676C27.981 19.4847 27.8923 19.1707 27.8761 18.8488C27.8605 18.0843 28.0123 17.3257 28.3207 16.626C28.9662 16.9888 29.519 17.496 29.9359 18.1079C30.1043 18.3595 30.2296 18.6374 30.3064 18.9303C30.3438 19.187 30.2914 19.4487 30.1582 19.6712C30.0015 19.9441 29.8309 20.2087 29.6469 20.464C29.3461 20.4067 29.051 20.3224 28.7652 20.2121C28.5138 20.111 28.2939 19.9448 28.128 19.7305L28.1354 19.7676Z" fill="url(#paint34_linear_663_1167)"/>
<path style="mix-blend-mode:multiply" fill-rule="evenodd" clip-rule="evenodd" d="M29.2184 19.9233C28.9399 19.8534 28.6784 19.7281 28.4492 19.555C28.2201 19.3819 28.0281 19.1645 27.8848 18.9157C27.899 19.2275 27.9852 19.5318 28.1367 19.8048C28.3026 20.019 28.5225 20.1853 28.7739 20.2864C29.0597 20.3966 29.3548 20.481 29.6556 20.5383C29.8395 20.283 30.0102 20.0184 30.1669 19.7455C30.3001 19.523 30.3525 19.2612 30.3151 19.0046C30.2567 18.776 30.1669 18.5565 30.0483 18.3525C30.2335 18.9453 30.1743 20.1678 29.2259 19.9456L29.2184 19.9233Z" fill="url(#paint35_radial_663_1167)"/>
<path fill-rule="evenodd" clip-rule="evenodd" d="M31.4189 15.1664C31.2781 14.707 30.6779 14.4773 30.789 13.7734C30.8719 13.3785 31.0861 13.0233 31.3966 12.7657C31.7223 12.5222 32.0183 12.2411 32.2783 11.9285C32.3598 11.7877 32.3895 11.6765 32.4339 11.6839C32.4784 11.6914 32.797 12.2545 32.8415 12.3582C32.9741 12.7214 33.0418 13.1052 33.0415 13.4918C33.0707 13.8072 33.0143 14.1245 32.8785 14.4106C32.7129 14.648 32.4906 14.8401 32.2318 14.9695C31.973 15.099 31.6858 15.1615 31.3966 15.1515L31.4189 15.1664Z" fill="url(#paint36_radial_663_1167)"/>
<path style="mix-blend-mode:multiply" fill-rule="evenodd" clip-rule="evenodd" d="M31.7389 14.6775C31.5806 14.6113 31.4389 14.5108 31.324 14.3834C31.209 14.2559 31.1237 14.1046 31.0741 13.9403C31.0246 13.776 31.0119 13.6028 31.0372 13.433C31.0625 13.2633 31.125 13.1012 31.2203 12.9585C30.9951 13.1814 30.8449 13.4688 30.7905 13.7809C30.7016 14.5219 31.2795 14.7145 31.4203 15.1739C31.7095 15.1839 31.9967 15.1213 32.2555 14.9919C32.5143 14.8625 32.7367 14.6703 32.9022 14.433C33.0069 14.2287 33.0626 14.003 33.0652 13.7735C33.0143 14.0049 32.9045 14.2193 32.7466 14.3959C32.6338 14.5399 32.4794 14.6456 32.3044 14.6987C32.1294 14.7517 31.9423 14.7495 31.7685 14.6923L31.7389 14.6775Z" fill="url(#paint37_radial_663_1167)"/>
<path fill-rule="evenodd" clip-rule="evenodd" d="M32.4185 11.8844C32.5248 12.5481 32.4533 13.2282 32.2111 13.8553C31.9739 14.4406 31.3293 15.1667 31.0848 15.7447C31.0404 15.3742 31.1293 15.4779 31.4775 14.937C32.1522 14.065 32.4866 12.9774 32.4185 11.877V11.8844Z" fill="#8C4010"/>
<path fill-rule="evenodd" clip-rule="evenodd" d="M30.3227 12.6844C30.3227 12.4695 30.6562 12.0546 30.6858 11.8323C30.7023 11.5789 30.6646 11.325 30.5751 11.0873C30.4857 10.8497 30.3466 10.6338 30.1671 10.4542C29.9074 10.1908 29.5928 9.98794 29.2457 9.85988C28.8987 9.73183 28.5277 9.68176 28.1592 9.71325C28.0999 9.71325 28.0629 9.71326 28.0481 9.75771C28.0332 9.80217 28.048 9.80957 28.1295 9.89108C28.2539 10.1184 28.3201 10.3729 28.3222 10.632C28.3222 10.7728 28.3222 10.9284 28.3814 11.1062C28.4 11.3556 28.4372 11.6033 28.4926 11.8472C28.5477 12.0729 28.67 12.2766 28.8433 12.4314C29.0166 12.5861 29.2327 12.6847 29.4632 12.7141C29.7457 12.6779 30.0306 12.663 30.3153 12.6696L30.3227 12.6844Z" fill="url(#paint38_radial_663_1167)"/>
<path style="mix-blend-mode:multiply" fill-rule="evenodd" clip-rule="evenodd" d="M30.0859 12.062C30.2531 11.8573 30.3586 11.6092 30.39 11.3468C30.4215 11.0844 30.3777 10.8185 30.2637 10.5801C30.4143 10.7499 30.5293 10.9483 30.6018 11.1634C30.6744 11.3784 30.703 11.6059 30.6861 11.8323C30.6861 12.0545 30.3378 12.4695 30.323 12.6843C30.0383 12.6778 29.7534 12.6926 29.4709 12.7288C29.2404 12.6994 29.0243 12.6009 28.851 12.4461C28.6777 12.2913 28.5554 12.0876 28.5003 11.8619C28.4685 11.7428 28.4462 11.6214 28.4336 11.4988C28.4627 11.6765 28.5396 11.8429 28.656 11.9803C28.7724 12.1177 28.9239 12.2208 29.0944 12.2786C29.2649 12.3365 29.4479 12.3469 29.6239 12.3087C29.7998 12.2705 29.9621 12.1852 30.0933 12.062H30.0859Z" fill="url(#paint39_radial_663_1167)"/>
<path fill-rule="evenodd" clip-rule="evenodd" d="M28.1602 9.77246C28.7888 9.99978 29.3026 10.4656 29.5902 11.0691C29.768 11.4025 30.0199 12.4398 30.3311 12.6844C30.0636 12.1504 29.8406 11.5953 29.6643 11.0247C29.5313 10.7153 29.3282 10.4411 29.071 10.2238C28.8138 10.0065 28.5096 9.85196 28.1824 9.77246H28.1602Z" fill="#8C4010"/>
<path fill-rule="evenodd" clip-rule="evenodd" d="M30.7594 16.8928C30.7421 16.7898 30.7421 16.6847 30.7594 16.5816C30.8261 16.1445 31.0706 15.4035 30.7001 14.9812C30.3596 14.61 29.9354 14.3255 29.4627 14.1514C29.1582 14.0056 28.8722 13.824 28.6107 13.6105C28.4995 13.5142 28.4699 13.3511 28.3958 13.6105C28.2876 13.893 28.2226 14.1903 28.2031 14.4922C28.231 15.1161 28.4395 15.7184 28.8033 16.226C29.2478 16.6335 30.011 16.552 30.2852 16.6039C30.4446 16.6663 30.5943 16.7511 30.7298 16.8558L30.7594 16.8928Z" fill="url(#paint40_radial_663_1167)"/>
<path style="mix-blend-mode:multiply" fill-rule="evenodd" clip-rule="evenodd" d="M29.8853 16.4261C30.1269 16.3212 30.3215 16.1311 30.4322 15.892C30.5428 15.653 30.5618 15.3816 30.4855 15.1295C30.3296 14.8075 30.0983 14.5279 29.8112 14.3145C30.1494 14.4678 30.4503 14.6928 30.6929 14.9739C31.0634 15.3962 30.8189 16.1372 30.7522 16.5743C30.7349 16.6773 30.7349 16.7825 30.7522 16.8855C30.6167 16.7808 30.4671 16.696 30.3076 16.6336C29.8733 16.6321 29.4424 16.557 29.0332 16.4113C29.307 16.5191 29.6115 16.5191 29.8853 16.4113V16.4261Z" fill="url(#paint41_radial_663_1167)"/>
<path fill-rule="evenodd" clip-rule="evenodd" d="M30.8126 22.7316C31.1129 22.7099 31.4037 22.6174 31.6613 22.4615C31.9189 22.3057 32.1359 22.091 32.2945 21.835C32.5632 21.436 32.8106 21.023 33.0354 20.5976C33.1243 20.4198 33.2132 20.3087 33.1836 20.2642C33.154 20.2198 33.0502 20.2642 32.8724 20.2642C32.3686 20.2642 31.6573 20.0716 31.1386 20.116C30.7732 20.1744 30.4428 20.3673 30.2124 20.6569H30.0494C29.8812 20.7589 29.7472 20.9084 29.6641 21.0867C29.5562 21.3997 29.4672 21.7188 29.3974 22.0425C29.3615 22.1594 29.3064 22.2696 29.2344 22.3685C29.784 22.4658 30.3281 22.5919 30.8645 22.7464L30.8126 22.7316Z" fill="url(#paint42_linear_663_1167)"/>
<path style="mix-blend-mode:multiply" fill-rule="evenodd" clip-rule="evenodd" d="M29.9363 20.8199C29.6547 20.9459 29.7732 21.8128 29.9363 21.9684C30.1951 22.2607 30.5543 22.4451 30.9427 22.4849C31.3312 22.5248 31.7204 22.4171 32.0331 22.1832C31.8815 22.3565 31.6963 22.497 31.4886 22.5964C31.281 22.6957 31.0554 22.7518 30.8254 22.7612C30.289 22.6067 29.7449 22.4806 29.1953 22.3833C29.2673 22.2844 29.3224 22.1742 29.3583 22.0573C29.4281 21.7336 29.5172 21.4145 29.6251 21.1015C29.7081 20.9232 29.8422 20.7737 30.0103 20.6717H30.1734C30.2917 20.5517 30.4207 20.4426 30.5586 20.3457C30.4407 20.4782 30.3365 20.6221 30.2474 20.7754C30.1363 20.931 30.0696 20.7754 29.9511 20.8199H29.9363Z" fill="url(#paint43_radial_663_1167)"/>
<path fill-rule="evenodd" clip-rule="evenodd" d="M33.0103 20.3828C32.5468 20.7499 32.0038 21.0037 31.4248 21.1237C31.0647 21.2087 30.7108 21.3176 30.3652 21.4497C29.896 21.6353 29.4861 21.9453 29.1797 22.3462C29.5398 22.0172 29.9532 21.7516 30.4023 21.5609C30.7505 21.4275 31.1432 21.3386 31.4618 21.22C32.0571 21.0986 32.5989 20.7927 33.0103 20.3457V20.3828Z" fill="#8C4010"/>
<path fill-rule="evenodd" clip-rule="evenodd" d="M28.5312 13.6772C28.8392 14.5668 29.3698 15.3626 30.0724 15.989C30.2206 16.1149 30.6133 16.4409 30.643 16.6484C30.4551 16.4335 30.2466 16.2374 30.0205 16.0631C29.2932 15.442 28.7756 14.6113 28.5387 13.6847L28.5312 13.6772Z" fill="#8C4010"/>
<path fill-rule="evenodd" clip-rule="evenodd" d="M28.4038 16.8037C28.4593 17.7978 28.7541 18.7637 29.2632 19.6193C29.367 19.7823 29.656 20.2046 29.6189 20.4121C29.5003 20.1516 29.3563 19.9035 29.1892 19.6711C28.6531 18.8125 28.3801 17.8157 28.4038 16.8037Z" fill="#8C4010"/>
<path style="mix-blend-mode:screen" fill-rule="evenodd" clip-rule="evenodd" d="M29.0554 9.87602C29.41 9.9727 29.7332 10.1603 29.9931 10.4202C30.253 10.6801 30.4406 11.0033 30.5373 11.3579C30.5948 11.6085 30.5607 11.8713 30.4409 12.0988C30.4262 12.1289 30.4054 12.1555 30.3799 12.1772C30.3544 12.1989 30.3248 12.2151 30.2927 12.2248C30.2644 12.2292 30.2355 12.2244 30.2101 12.2111C30.1848 12.1977 30.1644 12.1765 30.152 12.1507C30.0631 11.6865 29.9084 11.2375 29.6926 10.817C29.508 10.4609 29.2252 10.1652 28.8776 9.96494C28.6479 9.80935 28.9442 9.8538 29.0776 9.88344L29.0554 9.87602Z" fill="url(#paint44_radial_663_1167)"/>
<path style="mix-blend-mode:screen" fill-rule="evenodd" clip-rule="evenodd" d="M32.5456 12.2766C32.5454 12.2572 32.5493 12.2379 32.5569 12.2201C32.5646 12.2022 32.5758 12.1861 32.59 12.1729C32.6801 12.2162 32.7494 12.2934 32.7826 12.3877C32.9539 12.9504 32.9539 13.5514 32.7826 14.1141C32.7344 14.2231 32.6641 14.3209 32.5761 14.4013C32.4881 14.4816 32.3843 14.5428 32.2714 14.5809C32.0713 14.6328 31.8713 14.5809 32.0121 14.329C32.1158 14.1578 32.2074 13.9795 32.2862 13.7955C32.3538 13.6201 32.4059 13.4391 32.4418 13.2546C32.5012 12.9321 32.5285 12.6045 32.5233 12.2766H32.5456Z" fill="url(#paint45_radial_663_1167)"/>
<path style="mix-blend-mode:screen" fill-rule="evenodd" clip-rule="evenodd" d="M31.2278 17.5446C31.5241 16.6481 32.1021 16.411 32.9097 16.0627C33.3098 15.9071 33.4728 15.8923 33.5247 15.9516C33.5765 16.0109 33.3024 16.3887 33.0282 16.737C32.7541 17.0852 32.4651 17.3964 32.1688 17.715C32.0399 17.8507 31.9039 17.9793 31.7613 18.1003C31.5316 18.3004 31.3611 18.4337 31.2648 18.3522C31.1685 18.2707 31.1759 17.7002 31.2648 17.5224L31.2278 17.5446Z" fill="url(#paint46_radial_663_1167)"/>
<path style="mix-blend-mode:screen" fill-rule="evenodd" clip-rule="evenodd" d="M30.2631 21.0787C30.3372 20.9527 30.3816 20.8045 30.4557 20.6786C30.5087 20.5843 30.5734 20.4972 30.6484 20.4193C30.9069 20.2587 31.217 20.203 31.5153 20.2636C31.8191 20.3007 32.1302 20.4118 32.4414 20.4563C32.5081 20.4563 32.5822 20.4563 32.6563 20.4563C32.4923 20.6709 32.2594 20.8226 31.9968 20.886C31.5523 21.049 31.0485 21.1157 30.6113 21.2713C30.4927 21.3158 30.3742 21.3602 30.2557 21.4195C30.1371 21.4788 29.9445 21.627 30.0704 21.3084C30.1245 21.2213 30.1865 21.1395 30.2557 21.0639L30.2631 21.0787Z" fill="url(#paint47_radial_663_1167)"/>
<path style="mix-blend-mode:screen" fill-rule="evenodd" clip-rule="evenodd" d="M30.3009 15.6629C30.3189 15.3958 30.2583 15.1293 30.1267 14.8962C29.995 14.6632 29.798 14.4738 29.5599 14.3514C29.323 14.2211 29.0751 14.112 28.819 14.0254C28.819 14.0254 28.7523 14.0254 28.7227 14.0254C28.975 14.6835 29.3726 15.2762 29.8859 15.7592C30.1379 15.9592 30.2638 16.0704 30.286 15.6777L30.3009 15.6629Z" fill="url(#paint48_radial_663_1167)"/>
<path style="mix-blend-mode:screen" fill-rule="evenodd" clip-rule="evenodd" d="M28.9367 17.2854C29.0362 17.3682 29.1302 17.4573 29.2183 17.5521C29.405 17.7631 29.5712 17.9914 29.7147 18.2338C29.9254 18.5523 30.0051 18.9398 29.937 19.3156C29.8851 19.6861 29.6851 20.1529 29.3813 19.6416C29.2202 19.3823 29.0766 19.1125 28.9515 18.834C28.772 18.3946 28.65 17.9339 28.5885 17.4632C28.5144 16.8853 28.5885 16.9816 28.9441 17.2854H28.9367Z" fill="url(#paint49_radial_663_1167)"/>
<path style="mix-blend-mode:screen" fill-rule="evenodd" clip-rule="evenodd" d="M28.7954 11.9655C28.7132 11.8837 28.6456 11.7885 28.5953 11.6839C28.5461 11.5676 28.5112 11.4457 28.4916 11.3209C28.4916 11.1505 28.4323 10.9801 28.4101 10.8096C28.3879 10.6392 28.4101 10.5207 28.5212 10.7578C28.6319 11.0961 28.7681 11.4255 28.9288 11.7432C28.9732 11.8247 29.025 11.8988 29.0769 11.9729C29.1288 12.047 29.1881 12.1063 29.1807 12.1359C29.1732 12.1656 29.1288 12.1359 28.988 12.0915C28.9213 12.0544 28.8591 12.0096 28.8028 11.9581L28.7954 11.9655Z" fill="url(#paint50_radial_663_1167)"/>
<path style="mix-blend-mode:screen" fill-rule="evenodd" clip-rule="evenodd" d="M31.1079 13.4254C31.1287 13.3108 31.1688 13.2006 31.2265 13.0994C31.2959 12.9935 31.378 12.8965 31.471 12.8105C31.5895 12.6845 31.7229 12.5734 31.8489 12.4622C31.9748 12.3511 32.1008 12.314 31.9526 12.5289C31.7328 12.8098 31.5346 13.1071 31.3598 13.418C31.3154 13.4995 31.2858 13.581 31.2487 13.67C31.2117 13.7589 31.1968 13.8404 31.1746 13.8478C31.1524 13.8552 31.1153 13.8478 31.1005 13.6625C31.0915 13.5862 31.0915 13.5091 31.1005 13.4328L31.1079 13.4254Z" fill="url(#paint51_radial_663_1167)"/>
<path style="mix-blend-mode:screen" fill-rule="evenodd" clip-rule="evenodd" d="M29.0494 16.3297C28.821 16.2111 28.6404 16.0175 28.5381 15.7814C28.4492 15.5813 28.3232 15.1516 28.3825 15.1368C28.4418 15.1219 28.5603 15.4183 28.6418 15.5443C28.8085 15.8385 29.0389 16.0916 29.3161 16.2852C29.3976 16.3371 29.4643 16.3741 29.4717 16.4038C29.4791 16.4334 29.4346 16.4556 29.279 16.4038C29.2021 16.3925 29.1272 16.37 29.0568 16.3371L29.0494 16.3297Z" fill="url(#paint52_radial_663_1167)"/>
<path style="mix-blend-mode:screen" fill-rule="evenodd" clip-rule="evenodd" d="M32.8479 18.5159C33.1281 18.3608 33.3533 18.1226 33.4926 17.8342C33.5963 17.6045 33.7371 17.0933 33.6704 17.0933C33.6037 17.0933 33.4703 17.4119 33.3814 17.5526C33.1668 17.8952 32.8844 18.1902 32.5515 18.4195C32.4626 18.4788 32.3811 18.5233 32.3737 18.5529C32.3663 18.5826 32.4182 18.6122 32.596 18.5529C32.6831 18.5406 32.768 18.5156 32.8479 18.4788V18.5159Z" fill="url(#paint53_radial_663_1167)"/>
<path style="mix-blend-mode:screen" fill-rule="evenodd" clip-rule="evenodd" d="M27.9573 18.6931C27.9573 18.4486 28.0092 17.9521 28.0759 17.9521C28.1425 17.9521 28.1425 18.3226 28.1648 18.4856C28.2173 18.8859 28.3375 19.2742 28.5204 19.6341C28.5649 19.7304 28.6241 19.8045 28.6167 19.8341C28.6093 19.8638 28.5501 19.8341 28.4093 19.76C28.2631 19.6256 28.1472 19.4616 28.0693 19.2789C27.9914 19.0962 27.9532 18.8991 27.9573 18.7005V18.6931Z" fill="url(#paint54_radial_663_1167)"/>
<path style="mix-blend-mode:screen" fill-rule="evenodd" clip-rule="evenodd" d="M31.9449 22.1387C32.1153 21.9609 32.4191 21.5533 32.3598 21.5163C32.3005 21.4792 32.0634 21.7386 31.93 21.8497C31.5807 22.1198 31.1905 22.3324 30.7742 22.4795C30.6778 22.524 30.5815 22.5314 30.5667 22.561C30.5519 22.5907 30.5667 22.6277 30.7742 22.6425C31.2128 22.6327 31.6302 22.4519 31.9375 22.1387H31.9449Z" fill="url(#paint55_radial_663_1167)"/>
<path fill-rule="evenodd" clip-rule="evenodd" d="M18.0296 19.9599C20.1621 19.9442 22.2912 20.1352 24.3868 20.5304C25.4316 20.7453 29.5067 21.7974 29.9216 22.8273C29.9671 22.9313 29.9907 23.0436 29.9907 23.157C29.9907 23.2705 29.9671 23.3828 29.9216 23.4867C29.12 25.2387 27.9229 26.7807 26.4244 27.9917C26.9505 27.5619 26.5356 26.9099 26.054 26.5913C25.079 26.0474 24.011 25.6906 22.905 25.5392C21.2951 25.259 19.6636 25.1227 18.0296 25.1316C17.9851 24.1832 17.9629 23.2768 17.9629 22.4124C17.9629 21.548 17.9851 20.7329 18.0296 19.9673V19.9599Z" fill="url(#paint56_radial_663_1167)"/>
<path fill-rule="evenodd" clip-rule="evenodd" d="M18.0294 19.9599C15.8969 19.9442 13.7678 20.1352 11.6722 20.5304C10.6274 20.7453 6.55227 21.7974 6.13735 22.8273C6.09185 22.9313 6.06836 23.0436 6.06836 23.157C6.06836 23.2705 6.09185 23.3828 6.13735 23.4867C6.93899 25.2387 8.13611 26.7807 9.63458 27.9917C9.10852 27.5619 9.52344 26.9099 10.0051 26.5913C10.98 26.0474 12.048 25.6906 13.154 25.5392C14.7639 25.259 16.3954 25.1227 18.0294 25.1316C18.0739 24.1832 18.0961 23.2768 18.0961 22.4124C18.0961 21.548 18.0739 20.7329 18.0294 19.9673V19.9599Z" fill="url(#paint57_radial_663_1167)"/>
<path fill-rule="evenodd" clip-rule="evenodd" d="M9.32431 25.7695C9.06972 25.8962 8.86992 26.1111 8.7622 26.3742C8.65449 26.6374 8.64622 26.9308 8.73896 27.1996L8.96865 27.4218C8.95017 27.1716 9.00389 26.9213 9.1234 26.7006C9.24291 26.48 9.42321 26.2983 9.64291 26.1771C10.6777 25.6046 11.8072 25.2231 12.9771 25.0508C14.6377 24.7561 16.3216 24.6123 18.0081 24.6211C18.0081 24.4581 18.0081 24.2926 18.0081 24.1247C16.269 24.1148 14.5327 24.2661 12.8215 24.5766C11.5886 24.7651 10.3978 25.1662 9.30208 25.7621L9.32431 25.7695ZM6.43465 24.095C6.46069 23.8718 6.5421 23.6586 6.6715 23.4749C6.80091 23.2911 6.97419 23.1426 7.17559 23.0429C8.67717 22.2847 10.2787 21.7433 11.9324 21.435C13.938 21.0374 15.9783 20.8414 18.0229 20.8497C18.0229 20.7015 18.0229 20.5533 18.0229 20.4051C15.9334 20.3952 13.8482 20.5962 11.799 21.0053C10.0877 21.3315 8.42961 21.8925 6.8718 22.6724C6.69789 22.76 6.54292 22.8809 6.41579 23.0284C6.28865 23.1759 6.19184 23.347 6.13086 23.5319L6.20496 23.6801L6.43465 24.095Z" fill="white"/>
<path fill-rule="evenodd" clip-rule="evenodd" d="M18.0308 20.3385C16.1472 20.3337 14.2672 20.5023 12.4145 20.8423C10.824 21.1234 9.27211 21.591 7.79102 22.2353C9.27863 21.612 10.8322 21.1596 12.4219 20.8868C14.2732 20.5569 16.1503 20.3932 18.0308 20.3978V20.3385ZM10.3176 25.288C11.3968 24.8835 12.5175 24.6002 13.6593 24.4433C15.1042 24.2309 16.563 24.1269 18.0234 24.1321C16.5584 24.0863 15.0923 24.1781 13.6444 24.4062C12.5048 24.5691 11.3883 24.8651 10.3176 25.288Z" fill="white"/>
<path style="mix-blend-mode:screen" fill-rule="evenodd" clip-rule="evenodd" d="M10.0202 26.5545C9.37382 25.86 8.78179 25.1169 8.2493 24.3317C7.77283 23.6321 7.36586 22.8876 7.03417 22.1089C6.78404 22.235 6.55223 22.3945 6.3451 22.5831L6.24878 22.6942C6.2452 22.7361 6.2452 22.7783 6.24878 22.8202C6.59665 23.5863 7.02379 24.3139 7.52319 24.9911C8.06613 25.7949 8.71121 26.5246 9.44222 27.1621C9.5656 26.9513 9.73536 26.7714 9.93864 26.636L10.0202 26.5545Z" fill="url(#paint58_radial_663_1167)"/>
<path fill-rule="evenodd" clip-rule="evenodd" d="M26.6986 25.7695C26.9532 25.8962 27.153 26.1111 27.2607 26.3742C27.3684 26.6374 27.3767 26.9308 27.284 27.1996L27.0543 27.4218C27.0728 27.1716 27.019 26.9213 26.8995 26.7006C26.78 26.48 26.5997 26.2983 26.38 26.1771C25.3452 25.6046 24.2158 25.2231 23.0458 25.0508C21.3852 24.7561 19.7014 24.6123 18.0148 24.6211C18.0148 24.4581 18.0148 24.2926 18.0148 24.1247C19.7539 24.1148 21.4902 24.2661 23.2014 24.5766C24.4343 24.7651 25.6252 25.1662 26.7208 25.7621L26.6986 25.7695ZM29.5883 24.095C29.5622 23.8718 29.4808 23.6586 29.3514 23.4749C29.222 23.2911 29.0487 23.1426 28.8473 23.0429C27.3458 22.2847 25.7442 21.7433 24.0905 21.435C22.0849 21.0374 20.0446 20.8414 18 20.8497C18 20.7015 18 20.5533 18 20.4051C20.0895 20.3952 22.1747 20.5962 24.2239 21.0053C25.9352 21.3315 27.5933 21.8925 29.1512 22.6724C29.3251 22.76 29.48 22.8809 29.6071 23.0284C29.7343 23.1759 29.8311 23.347 29.8921 23.5319L29.818 23.6801L29.5883 24.095Z" fill="white"/>
<path fill-rule="evenodd" clip-rule="evenodd" d="M18.0293 20.3385C19.9129 20.3337 21.793 20.5023 23.6456 20.8423C25.2361 21.1234 26.788 21.591 28.2691 22.2353C26.7815 21.612 25.2279 21.1596 23.6382 20.8868C21.7869 20.5569 19.9098 20.3932 18.0293 20.3978V20.3385ZM25.7425 25.288C24.6633 24.8835 23.5426 24.6002 22.4009 24.4433C20.9559 24.2309 19.4971 24.1269 18.0367 24.1321C19.5017 24.0863 20.9678 24.1781 22.4156 24.4062C23.5552 24.5692 24.6718 24.8651 25.7425 25.288Z" fill="white"/>
<path style="mix-blend-mode:screen" fill-rule="evenodd" clip-rule="evenodd" d="M26.0039 26.5545C26.6502 25.86 27.2423 25.1169 27.7748 24.3317C28.2512 23.6321 28.6582 22.8876 28.9899 22.1089C29.24 22.235 29.4718 22.3945 29.6789 22.5831L29.7753 22.6942C29.7788 22.7361 29.7788 22.7783 29.7753 22.8202C29.4274 23.5863 29.0003 24.3139 28.5009 24.9911C27.9579 25.7949 27.3128 26.5246 26.5818 27.1621C26.4584 26.9513 26.2887 26.7714 26.0854 26.636L26.0039 26.5545Z" fill="url(#paint59_radial_663_1167)"/>
</g>
<defs>
<filter id="filter0_d_663_1167" x="0.136719" y="0.802734" width="35.7285" height="34.0051" filterUnits="userSpaceOnUse" color-interpolation-filters="sRGB">
<feFlood flood-opacity="0" result="BackgroundImageFix"/>
<feColorMatrix in="SourceAlpha" type="matrix" values="0 0 0 0 0 0 0 0 0 0 0 0 0 0 0 0 0 0 127 0" result="hardAlpha"/>
<feOffset dy="2"/>
<feGaussianBlur stdDeviation="1"/>
<feComposite in2="hardAlpha" operator="out"/>
<feColorMatrix type="matrix" values="0 0 0 0 0 0 0 0 0 0 0 0 0 0 0 0 0 0 0.25 0"/>
<feBlend mode="normal" in2="BackgroundImageFix" result="effect1_dropShadow_663_1167"/>
<feBlend mode="normal" in="SourceGraphic" in2="effect1_dropShadow_663_1167" result="shape"/>
</filter>
<radialGradient id="paint0_radial_663_1167" cx="0" cy="0" r="1" gradientUnits="userSpaceOnUse" gradientTransform="translate(18 14.8027) scale(33.0924)">
<stop stop-color="#BBDBFD"/>
<stop offset="0.473958" stop-color="#649CE9"/>
<stop offset="1" stop-color="#008EF5"/>
</radialGradient>
<radialGradient id="paint1_radial_663_1167" cx="0" cy="0" r="1" gradientUnits="userSpaceOnUse" gradientTransform="translate(18 14.8027) scale(31.9105)">
<stop stop-color="#3A64C0"/>
<stop offset="1" stop-color="#111102"/>
</radialGradient>
<radialGradient id="paint2_radial_663_1167" cx="0" cy="0" r="1" gradientUnits="userSpaceOnUse" gradientTransform="translate(23.6689 14.8027) scale(23.6374)">
<stop stop-color="#7DBCFF"/>
<stop offset="0.510417" stop-color="#649CE9"/>
<stop offset="1" stop-color="#2E9BFF"/>
</radialGradient>
<linearGradient id="paint3_linear_663_1167" x1="18" y1="-2.30727" x2="18" y2="25.7946" gradientUnits="userSpaceOnUse">
<stop stop-color="#A2DDFD"/>
<stop offset="1" stop-color="#111102"/>
</linearGradient>
<linearGradient id="paint4_linear_663_1167" x1="32.0766" y1="27.5773" x2="24.356" y2="27.5773" gradientUnits="userSpaceOnUse">
<stop stop-color="#EE9843"/>
<stop offset="1" stop-color="#974715"/>
</linearGradient>
<linearGradient id="paint5_linear_663_1167" x1="3.94531" y1="27.5773" x2="11.6733" y2="27.5773" gradientUnits="userSpaceOnUse">
<stop stop-color="#EE9843"/>
<stop offset="1" stop-color="#974715"/>
</linearGradient>
<radialGradient id="paint6_radial_663_1167" cx="0" cy="0" r="1" gradientUnits="userSpaceOnUse" gradientTransform="translate(30.7751 30.2224) rotate(180) scale(12.9442 12.9442)">
<stop stop-color="#BFE8FD"/>
<stop offset="0.98" stop-color="#111102"/>
</radialGradient>
<radialGradient id="paint7_radial_663_1167" cx="0" cy="0" r="1" gradientUnits="userSpaceOnUse" gradientTransform="translate(30.7751 30.2224) rotate(180) scale(12.9442 12.9442)">
<stop stop-color="#BFE8FD"/>
<stop offset="0.98" stop-color="#111102"/>
</radialGradient>
<linearGradient id="paint8_linear_663_1167" x1="1.97793" y1="16.4029" x2="4.90042" y2="18.5888" gradientUnits="userSpaceOnUse">
<stop stop-color="#FFB56B"/>
<stop offset="0.96" stop-color="#974715"/>
</linearGradient>
<radialGradient id="paint9_radial_663_1167" cx="0" cy="0" r="1" gradientUnits="userSpaceOnUse" gradientTransform="translate(3.90677 17.7744) scale(1.82272 1.82271)">
<stop stop-color="white"/>
<stop offset="1" stop-color="#BCBCBC"/>
</radialGradient>
<linearGradient id="paint10_linear_663_1167" x1="6.60976" y1="17.1076" x2="7.63145" y2="19.8007" gradientUnits="userSpaceOnUse">
<stop stop-color="#FFB56B"/>
<stop offset="0.96" stop-color="#974715"/>
</linearGradient>
<radialGradient id="paint11_radial_663_1167" cx="0" cy="0" r="1" gradientUnits="userSpaceOnUse" gradientTransform="translate(6.79042 18.8638) scale(2.03019 2.03017)">
<stop stop-color="white"/>
<stop offset="1" stop-color="#BCBCBC"/>
</radialGradient>
<linearGradient id="paint12_linear_663_1167" x1="2.97461" y1="13.0766" x2="5.58946" y2="13.1003" gradientUnits="userSpaceOnUse">
<stop stop-color="#FFB56B"/>
<stop offset="0.96" stop-color="#974715"/>
</linearGradient>
<radialGradient id="paint13_radial_663_1167" cx="0" cy="0" r="1" gradientUnits="userSpaceOnUse" gradientTransform="translate(4.11485 14.0625) scale(1.60784)">
<stop stop-color="white"/>
<stop offset="1" stop-color="#BCBCBC"/>
</radialGradient>
<linearGradient id="paint14_linear_663_1167" x1="5.82701" y1="10.2912" x2="9.18286" y2="10.2912" gradientUnits="userSpaceOnUse">
<stop stop-color="#FFB56B"/>
<stop offset="0.96" stop-color="#974715"/>
</linearGradient>
<radialGradient id="paint15_radial_663_1167" cx="0" cy="0" r="1" gradientUnits="userSpaceOnUse" gradientTransform="translate(6.44077 11.4099) scale(1.75603 1.75602)">
<stop stop-color="white"/>
<stop offset="1" stop-color="#BCBCBC"/>
</radialGradient>
<linearGradient id="paint16_linear_663_1167" x1="6.23128" y1="14.1514" x2="6.15999" y2="16.8928" gradientUnits="userSpaceOnUse">
<stop stop-color="#FFB56B"/>
<stop offset="0.96" stop-color="#974715"/>
</linearGradient>
<radialGradient id="paint17_radial_663_1167" cx="0" cy="0" r="1" gradientUnits="userSpaceOnUse" gradientTransform="translate(6.0474 15.6037) scale(1.77084 1.77085)">
<stop stop-color="white"/>
<stop offset="1" stop-color="#BCBCBC"/>
</radialGradient>
<linearGradient id="paint18_linear_663_1167" x1="1.57279" y1="20.242" x2="8.00413" y2="20.242" gradientUnits="userSpaceOnUse">
<stop stop-color="#FFB56B"/>
<stop offset="0.96" stop-color="#974715"/>
</linearGradient>
<radialGradient id="paint19_radial_663_1167" cx="0" cy="0" r="1" gradientUnits="userSpaceOnUse" gradientTransform="translate(5.13674 20.894) scale(2.50439 2.50438)">
<stop stop-color="white"/>
<stop offset="1" stop-color="#BCBCBC"/>
</radialGradient>
<radialGradient id="paint20_radial_663_1167" cx="0" cy="0" r="1" gradientUnits="userSpaceOnUse" gradientTransform="translate(5.77329 9.63152) scale(3.58613 3.58615)">
<stop stop-color="white"/>
<stop offset="0.96" stop-color="#111102"/>
</radialGradient>
<radialGradient id="paint21_radial_663_1167" cx="0" cy="0" r="1" gradientUnits="userSpaceOnUse" gradientTransform="translate(2.7968 12.1284) scale(4.81614 4.81611)">
<stop stop-color="white"/>
<stop offset="0.96" stop-color="#111102"/>
</radialGradient>
<radialGradient id="paint22_radial_663_1167" cx="0" cy="0" r="1" gradientUnits="userSpaceOnUse" gradientTransform="translate(3.81937 15.9442) scale(4.0307 4.0307)">
<stop stop-color="white"/>
<stop offset="0.96" stop-color="#111102"/>
</radialGradient>
<radialGradient id="paint23_radial_663_1167" cx="0" cy="0" r="1" gradientUnits="userSpaceOnUse" gradientTransform="translate(4.3971 19.9154) scale(3.86031 3.86029)">
<stop stop-color="white"/>
<stop offset="0.96" stop-color="#111102"/>
</radialGradient>
<radialGradient id="paint24_radial_663_1167" cx="0" cy="0" r="1" gradientUnits="userSpaceOnUse" gradientTransform="translate(6.31617 13.7883) scale(3.09713 3.09712)">
<stop stop-color="white"/>
<stop offset="0.96" stop-color="#111102"/>
</radialGradient>
<radialGradient id="paint25_radial_663_1167" cx="0" cy="0" r="1" gradientUnits="userSpaceOnUse" gradientTransform="translate(6.50075 17.3002) scale(3.53429 3.53429)">
<stop stop-color="white"/>
<stop offset="0.96" stop-color="#111102"/>
</radialGradient>
<radialGradient id="paint26_radial_663_1167" cx="0" cy="0" r="1" gradientUnits="userSpaceOnUse" gradientTransform="translate(8.07937 11.3579) scale(2.1635 2.16354)">
<stop stop-color="white"/>
<stop offset="0.96" stop-color="#111102"/>
</radialGradient>
<radialGradient id="paint27_radial_663_1167" cx="0" cy="0" r="1" gradientUnits="userSpaceOnUse" gradientTransform="translate(5.04076 12.7808) scale(2.01535)">
<stop stop-color="white"/>
<stop offset="0.96" stop-color="#111102"/>
</radialGradient>
<radialGradient id="paint28_radial_663_1167" cx="0" cy="0" r="1" gradientUnits="userSpaceOnUse" gradientTransform="translate(8.13131 15.648) scale(2.24505 2.24506)">
<stop stop-color="white"/>
<stop offset="0.96" stop-color="#111102"/>
</radialGradient>
<radialGradient id="paint29_radial_663_1167" cx="0" cy="0" r="1" gradientUnits="userSpaceOnUse" gradientTransform="translate(2.10129 17.4711) scale(2.71184)">
<stop stop-color="white"/>
<stop offset="0.96" stop-color="#111102"/>
</radialGradient>
<radialGradient id="paint30_radial_663_1167" cx="0" cy="0" r="1" gradientUnits="userSpaceOnUse" gradientTransform="translate(8.65709 18.4486) scale(2.2376 2.23763)">
<stop stop-color="white"/>
<stop offset="0.96" stop-color="#111102"/>
</radialGradient>
<radialGradient id="paint31_radial_663_1167" cx="0" cy="0" r="1" gradientUnits="userSpaceOnUse" gradientTransform="translate(3.73749 21.4274) scale(2.31912 2.31917)">
<stop stop-color="white"/>
<stop offset="0.96" stop-color="#111102"/>
</radialGradient>
<radialGradient id="paint32_radial_663_1167" cx="0" cy="0" r="1" gradientUnits="userSpaceOnUse" gradientTransform="translate(32.0413 16.3369) rotate(180) scale(3.30463 3.30459)">
<stop stop-color="#FFB56B"/>
<stop offset="0.96" stop-color="#974715"/>
</radialGradient>
<radialGradient id="paint33_radial_663_1167" cx="0" cy="0" r="1" gradientUnits="userSpaceOnUse" gradientTransform="translate(32.1151 17.7744) rotate(180) scale(1.82272 1.82271)">
<stop stop-color="white"/>
<stop offset="1" stop-color="#BCBCBC"/>
</radialGradient>
<linearGradient id="paint34_linear_663_1167" x1="33.4628" y1="17.1076" x2="25.3865" y2="17.1076" gradientUnits="userSpaceOnUse">
<stop stop-color="#FFB56B"/>
<stop offset="0.96" stop-color="#974715"/>
</linearGradient>
<radialGradient id="paint35_radial_663_1167" cx="0" cy="0" r="1" gradientUnits="userSpaceOnUse" gradientTransform="translate(29.2333 18.8638) rotate(180) scale(2.03019 2.03017)">
<stop stop-color="white"/>
<stop offset="1" stop-color="#BCBCBC"/>
</radialGradient>
<radialGradient id="paint36_radial_663_1167" cx="0" cy="0" r="1" gradientUnits="userSpaceOnUse" gradientTransform="translate(32.7155 13.3436) rotate(180) scale(2.76374 2.7637)">
<stop stop-color="#FFB56B"/>
<stop offset="0.96" stop-color="#974715"/>
</radialGradient>
<radialGradient id="paint37_radial_663_1167" cx="0" cy="0" r="1" gradientUnits="userSpaceOnUse" gradientTransform="translate(31.9019 14.0625) rotate(128.328) scale(1.80705)">
<stop stop-color="white"/>
<stop offset="1" stop-color="#BCBCBC"/>
</radialGradient>
<radialGradient id="paint38_radial_663_1167" cx="0" cy="0" r="1" gradientUnits="userSpaceOnUse" gradientTransform="translate(29.7744 10.2912) rotate(180) scale(2.94153 2.94153)">
<stop stop-color="#FFB56B"/>
<stop offset="1" stop-color="#974715"/>
</radialGradient>
<radialGradient id="paint39_radial_663_1167" cx="0" cy="0" r="1" gradientUnits="userSpaceOnUse" gradientTransform="translate(29.5747 11.4099) rotate(180) scale(1.75605 1.75602)">
<stop stop-color="white"/>
<stop offset="1" stop-color="#BCBCBC"/>
</radialGradient>
<radialGradient id="paint40_radial_663_1167" cx="0" cy="0" r="1" gradientUnits="userSpaceOnUse" gradientTransform="translate(29.3886 14.1514) rotate(180) scale(3.28236 3.28236)">
<stop stop-color="#FFB56B"/>
<stop offset="0.96" stop-color="#974715"/>
</radialGradient>
<radialGradient id="paint41_radial_663_1167" cx="0" cy="0" r="1" gradientUnits="userSpaceOnUse" gradientTransform="translate(29.9668 15.6037) rotate(180) scale(1.77087 1.77085)">
<stop stop-color="white"/>
<stop offset="1" stop-color="#BCBCBC"/>
</radialGradient>
<linearGradient id="paint42_linear_663_1167" x1="34.4432" y1="20.242" x2="28.0118" y2="20.242" gradientUnits="userSpaceOnUse">
<stop stop-color="#FFB56B"/>
<stop offset="0.96" stop-color="#974715"/>
</linearGradient>
<radialGradient id="paint43_radial_663_1167" cx="0" cy="0" r="1" gradientUnits="userSpaceOnUse" gradientTransform="translate(30.8773 20.894) rotate(180) scale(2.50439 2.50438)">
<stop stop-color="white"/>
<stop offset="1" stop-color="#BCBCBC"/>
</radialGradient>
<radialGradient id="paint44_radial_663_1167" cx="0" cy="0" r="1" gradientUnits="userSpaceOnUse" gradientTransform="translate(30.2409 9.63152) rotate(180) scale(3.58614 3.58615)">
<stop stop-color="white"/>
<stop offset="0.96" stop-color="#111102"/>
</radialGradient>
<radialGradient id="paint45_radial_663_1167" cx="0" cy="0" r="1" gradientUnits="userSpaceOnUse" gradientTransform="translate(33.2272 12.1284) rotate(180) scale(4.81604 4.81611)">
<stop stop-color="white"/>
<stop offset="0.96" stop-color="#111102"/>
</radialGradient>
<radialGradient id="paint46_radial_663_1167" cx="0" cy="0" r="1" gradientUnits="userSpaceOnUse" gradientTransform="translate(32.2058 15.9442) rotate(180) scale(4.0307 4.0307)">
<stop stop-color="white"/>
<stop offset="0.0001" stop-color="white"/>
<stop offset="0.96" stop-color="#111102"/>
</radialGradient>
<radialGradient id="paint47_radial_663_1167" cx="0" cy="0" r="1" gradientUnits="userSpaceOnUse" gradientTransform="translate(31.6264 19.9154) rotate(180) scale(3.86028 3.86029)">
<stop stop-color="white"/>
<stop offset="0.96" stop-color="#111102"/>
</radialGradient>
<radialGradient id="paint48_radial_663_1167" cx="0" cy="0" r="1" gradientUnits="userSpaceOnUse" gradientTransform="translate(29.7007 13.7883) rotate(180) scale(3.09713 3.09712)">
<stop stop-color="white"/>
<stop offset="0.96" stop-color="#111102"/>
</radialGradient>
<radialGradient id="paint49_radial_663_1167" cx="0" cy="0" r="1" gradientUnits="userSpaceOnUse" gradientTransform="translate(29.5221 17.3002) rotate(180) scale(3.5343 3.53429)">
<stop stop-color="white"/>
<stop offset="0.96" stop-color="#111102"/>
</radialGradient>
<radialGradient id="paint50_radial_663_1167" cx="0" cy="0" r="1" gradientUnits="userSpaceOnUse" gradientTransform="translate(27.9359 11.3579) rotate(180) scale(2.16351 2.16354)">
<stop stop-color="white"/>
<stop offset="0.96" stop-color="#111102"/>
</radialGradient>
<radialGradient id="paint51_radial_663_1167" cx="0" cy="0" r="1" gradientUnits="userSpaceOnUse" gradientTransform="translate(30.9746 12.7808) rotate(180) scale(2.01531 2.01535)">
<stop stop-color="white"/>
<stop offset="0.96" stop-color="#111102"/>
</radialGradient>
<radialGradient id="paint52_radial_663_1167" cx="0" cy="0" r="1" gradientUnits="userSpaceOnUse" gradientTransform="translate(27.886 15.648) rotate(180) scale(2.24509 2.24506)">
<stop stop-color="white"/>
<stop offset="0.96" stop-color="#111102"/>
</radialGradient>
<radialGradient id="paint53_radial_663_1167" cx="0" cy="0" r="1" gradientUnits="userSpaceOnUse" gradientTransform="translate(33.9223 17.4711) rotate(180) scale(2.71184)">
<stop stop-color="white"/>
<stop offset="0.96" stop-color="#111102"/>
</radialGradient>
<radialGradient id="paint54_radial_663_1167" cx="0" cy="0" r="1" gradientUnits="userSpaceOnUse" gradientTransform="translate(28.2872 18.8988) rotate(90) scale(0.94667 0.330167)">
<stop stop-color="white"/>
<stop offset="1" stop-color="#111102"/>
</radialGradient>
<radialGradient id="paint55_radial_663_1167" cx="0" cy="0" r="1" gradientUnits="userSpaceOnUse" gradientTransform="translate(31.4649 22.0776) rotate(90) scale(0.564916 0.902423)">
<stop stop-color="white"/>
<stop offset="1" stop-color="#111102"/>
</radialGradient>
<radialGradient id="paint56_radial_663_1167" cx="0" cy="0" r="1" gradientUnits="userSpaceOnUse" gradientTransform="translate(18.2222 18.1075) scale(14.9145)">
<stop offset="0.542908" stop-color="#EE9843"/>
<stop offset="1" stop-color="#974715"/>
</radialGradient>
<radialGradient id="paint57_radial_663_1167" cx="0" cy="0" r="1" gradientUnits="userSpaceOnUse" gradientTransform="translate(17.8071 18.1075) rotate(-178.706) scale(13.6343 13.6344)">
<stop offset="0.5334" stop-color="#EE9843"/>
<stop offset="1" stop-color="#974715"/>
</radialGradient>
<radialGradient id="paint58_radial_663_1167" cx="0" cy="0" r="1" gradientUnits="userSpaceOnUse" gradientTransform="translate(7.04899 20.9752) scale(8.38002 8.38004)">
<stop stop-color="white"/>
<stop offset="1"/>
</radialGradient>
<radialGradient id="paint59_radial_663_1167" cx="0" cy="0" r="1" gradientUnits="userSpaceOnUse" gradientTransform="translate(28.9825 20.9752) rotate(180) scale(8.37997 8.38004)">
<stop stop-color="white"/>
<stop offset="1"/>
</radialGradient>
</defs>
</svg>
