<svg width="34" height="19" viewBox="0 0 34 19" fill="none" xmlns="http://www.w3.org/2000/svg">
<path fill-rule="evenodd" clip-rule="evenodd" d="M0.713327 0.697433C0.938871 0.476356 1.20681 0.300955 1.50179 0.181278C1.79678 0.0616008 2.11301 0 2.43238 0C2.75175 0 3.06799 0.0616008 3.36297 0.181278C3.65795 0.300955 3.92589 0.476356 4.15144 0.697433L17.0006 13.2651L29.8498 0.697433C30.3058 0.25167 30.9241 0.00124291 31.5689 0.00124292C32.2137 0.00124292 32.832 0.25167 33.2879 0.697433C33.7439 1.14319 34 1.74778 34 2.37818C34 3.00858 33.7439 3.61317 33.2879 4.05893L18.7197 18.3026C18.4941 18.5236 18.2262 18.699 17.9312 18.8187C17.6362 18.9384 17.32 19 17.0006 19C16.6813 19 16.365 18.9384 16.07 18.8187C15.7751 18.699 15.5071 18.5236 15.2816 18.3026L0.713327 4.05893C0.487212 3.83841 0.307814 3.57644 0.185409 3.28803C0.0630047 2.99962 0 2.69044 0 2.37818C0 2.06593 0.0630047 1.75674 0.185409 1.46833C0.307814 1.17992 0.487212 0.917951 0.713327 0.697433Z" fill="#53599A"/>
</svg>
