<svg width="38" height="34" viewBox="0 0 38 34" fill="none" xmlns="http://www.w3.org/2000/svg">
<g filter="url(#filter0_d_663_1768)">
<path fill-rule="evenodd" clip-rule="evenodd" d="M33.7411 24.975C33.1581 24.9036 29.4115 24.3479 29.4115 23.4429C29.4154 23.3781 29.4327 23.315 29.4621 23.2575C29.4916 23.2 29.5326 23.1496 29.5825 23.1095C28.0513 24.0376 26.761 25.3282 25.8204 26.8723C25.7367 26.9836 25.6798 27.1135 25.6541 27.2513C25.6285 27.3892 25.6348 27.5313 25.6727 27.6662C25.7559 27.8998 25.9225 28.0927 26.1391 28.206C27.6449 29.043 29.2636 29.6476 30.9428 30.0002C31.1642 29.0466 31.2324 28.0626 31.1449 27.0867C32.2064 26.6921 33.1181 25.9639 33.7488 25.0068L33.7411 24.975Z" fill="url(#paint0_linear_663_1768)"/>
<path fill-rule="evenodd" clip-rule="evenodd" d="M26.3483 26.8642C26.5738 27.7692 29.8151 28.6583 31.1132 28.9758C31.1132 29.1399 31.0899 29.304 31.0432 29.468C29.8773 29.1902 26.2862 28.2058 26.0141 27.2452C25.9845 27.1212 25.9824 26.9919 26.008 26.8669C26.0335 26.742 26.0861 26.6244 26.1618 26.5228L26.5038 26.1814C26.4285 26.2755 26.3753 26.386 26.3483 26.5043C26.3213 26.6227 26.3214 26.7458 26.3483 26.8642ZM33.0253 25.8401C32.0071 25.6734 28.7813 25.0462 28.7269 24.1968C28.7242 24.1194 28.7382 24.0424 28.7677 23.9711C28.7973 23.8998 28.8417 23.8359 28.8979 23.784L29.2399 23.4426C29.1867 23.4885 29.1439 23.5456 29.1143 23.61C29.0848 23.6744 29.0693 23.7446 29.0689 23.8157C29.0689 24.7049 32.6211 25.3003 33.414 25.4035C33.2921 25.5535 33.1624 25.6965 33.0253 25.8321V25.8401Z" fill="white"/>
<path fill-rule="evenodd" clip-rule="evenodd" d="M27.7655 26.9755C27.2758 27.3169 25.5036 26.7056 25.6513 27.6265C25.6134 27.4916 25.607 27.3495 25.6326 27.2116C25.6583 27.0738 25.7153 26.944 25.799 26.8327C26.9717 25.0145 28.4886 23.4544 30.2606 22.2441C30.2107 22.2843 30.1697 22.3347 30.1402 22.3922C30.1108 22.4496 30.0935 22.5128 30.0896 22.5776C30.0896 22.8395 30.3928 23.0697 30.8669 23.2523C30.0139 24.63 28.9662 25.8712 27.7577 26.9359L27.7655 26.9755Z" fill="#763A0E"/>
<path fill-rule="evenodd" clip-rule="evenodd" d="M4.23825 24.975C4.82122 24.9035 8.56777 24.3478 8.56777 23.4428C8.56387 23.3781 8.54662 23.3149 8.51715 23.2574C8.48768 23.2 8.44665 23.1495 8.39676 23.1094C9.92799 24.0376 11.2183 25.3281 12.1589 26.8723C12.2426 26.9836 12.2996 27.1134 12.3252 27.2513C12.3509 27.3891 12.3445 27.5312 12.3066 27.6661C12.2234 27.8998 12.0568 28.0926 11.8402 28.206C10.3345 29.0429 8.71566 29.6475 7.03649 30.0001C6.81512 29.0465 6.74688 28.0625 6.83441 27.0866C5.77288 26.6921 4.86119 25.9639 4.23047 25.0067L4.23825 24.975Z" fill="url(#paint1_linear_663_1768)"/>
<path fill-rule="evenodd" clip-rule="evenodd" d="M11.6281 26.8642C11.4027 27.7692 8.16137 28.6583 6.86329 28.9758C6.86329 29.1399 6.88663 29.304 6.93327 29.468C8.09921 29.1902 11.6903 28.2058 11.9624 27.2452C11.992 27.1212 11.9941 26.9919 11.9685 26.8669C11.943 26.742 11.8904 26.6244 11.8147 26.5228L11.4727 26.1814C11.548 26.2755 11.6012 26.386 11.6282 26.5043C11.6551 26.6227 11.6551 26.7458 11.6281 26.8642ZM4.95115 25.8401C5.9694 25.6734 9.19518 25.0462 9.24959 24.1968C9.25222 24.1194 9.23828 24.0424 9.20874 23.9711C9.17921 23.8998 9.13479 23.8359 9.07858 23.784L8.73657 23.4426C8.78978 23.4885 8.83263 23.5456 8.86215 23.61C8.89167 23.6744 8.90716 23.7446 8.90758 23.8157C8.90758 24.7049 5.35534 25.3003 4.5625 25.4035C4.68435 25.5534 4.81409 25.6965 4.95115 25.8321V25.8401Z" fill="white"/>
<path fill-rule="evenodd" clip-rule="evenodd" d="M10.1874 26.9756C10.6771 27.3169 12.4493 26.7056 12.3016 27.6265C12.3395 27.4916 12.3459 27.3495 12.3202 27.2116C12.2946 27.0738 12.2376 26.944 12.1539 26.8327C10.9812 25.0146 9.46421 23.4544 7.69223 22.2442C7.74212 22.2843 7.78314 22.3347 7.81261 22.3922C7.84208 22.4497 7.85933 22.5128 7.86323 22.5776C7.86323 22.8396 7.56009 23.0698 7.08594 23.2523C7.93891 24.63 8.98664 25.8712 10.1951 26.9359L10.1874 26.9756Z" fill="#763A0E"/>
<path fill-rule="evenodd" clip-rule="evenodd" d="M4.44441 12.4636C5.29943 10.6774 6.28659 8.78803 7.3748 6.86688C8.46302 4.94574 9.56678 3.1278 10.655 1.47657C10.889 1.10935 11.2046 0.803664 11.576 0.584348C11.9474 0.365032 12.3642 0.238268 12.7926 0.214333C14.7358 0.0793773 16.8267 0 19.0109 0C21.1951 0 23.2783 0.0714387 25.2293 0.214333C25.6577 0.238268 26.0745 0.365032 26.4459 0.584348C26.8173 0.803664 27.1328 1.10935 27.3668 1.47657C28.4551 3.1278 29.5588 4.9378 30.647 6.86688C31.7352 8.79596 32.7146 10.6774 33.5697 12.4636C33.7642 12.8547 33.8656 13.2871 33.8656 13.7258C33.8656 14.1645 33.7642 14.597 33.5697 14.9881C32.7146 16.7742 31.7275 18.6636 30.647 20.5848C29.5666 22.5059 28.4551 24.3239 27.3668 25.9751C27.1328 26.3423 26.8173 26.648 26.4459 26.8673C26.0745 27.0866 25.6577 27.2134 25.2293 27.2373C23.286 27.3723 21.1951 27.4517 19.0109 27.4517C16.8267 27.4517 14.7436 27.3802 12.7926 27.2373C12.3642 27.2134 11.9474 27.0866 11.576 26.8673C11.2046 26.648 10.889 26.3423 10.655 25.9751C9.56678 24.3239 8.46302 22.5139 7.3748 20.5848C6.28659 18.6557 5.3072 16.7742 4.44441 14.9881C4.24984 14.597 4.14844 14.1645 4.14844 13.7258C4.14844 13.2871 4.24984 12.8547 4.44441 12.4636Z" fill="#ADD432"/>
<path style="mix-blend-mode:screen" fill-rule="evenodd" clip-rule="evenodd" d="M4.84451 12.7604C4.69509 13.059 4.61719 13.3896 4.61719 13.7249C4.61719 14.0603 4.69509 14.3909 4.84451 14.6895C5.76172 16.6106 6.7489 18.5 7.79824 20.3576C8.84759 22.2153 9.94356 24.0332 11.1095 25.8115C11.2863 26.0941 11.5267 26.3294 11.8107 26.4979C12.0946 26.6664 12.4139 26.7631 12.7418 26.78C14.825 26.9229 16.9159 26.9943 19.0068 26.9943C21.0978 26.9943 23.1887 26.9308 25.2718 26.78C25.5998 26.7631 25.9191 26.6664 26.203 26.4979C26.487 26.3294 26.7274 26.0941 26.9042 25.8115C28.0701 24.0332 29.1739 22.2153 30.2154 20.3576C31.257 18.5 32.252 16.6106 33.1692 14.6895C33.3186 14.3909 33.3965 14.0603 33.3965 13.7249C33.3965 13.3896 33.3186 13.059 33.1692 12.7604C32.252 10.8393 31.2648 8.94986 30.2154 7.09222C29.1661 5.23459 28.0701 3.41666 26.9042 1.63841C26.7274 1.35578 26.487 1.12042 26.203 0.951947C25.9191 0.783472 25.5998 0.686757 25.2718 0.6699C23.1887 0.527005 21.0978 0.455566 19.0068 0.455566C16.9159 0.455566 14.825 0.519066 12.7418 0.6699C12.4139 0.686757 12.0946 0.783472 11.8107 0.951947C11.5267 1.12042 11.2863 1.35578 11.1095 1.63841C9.94356 3.41666 8.83982 5.23459 7.79824 7.09222C6.75667 8.94986 5.76172 10.8393 4.84451 12.7604Z" fill="url(#paint2_radial_663_1768)"/>
<path fill-rule="evenodd" clip-rule="evenodd" d="M7.38006 14.3681C8.16772 15.9558 9.00202 17.5435 9.88295 19.1313C10.7639 20.719 11.6863 22.2458 12.6501 23.7118C12.768 23.9001 12.9283 24.0567 13.1176 24.1686C13.307 24.2805 13.5198 24.3443 13.7383 24.3549C15.4898 24.4607 17.2465 24.5136 19.0084 24.5136C20.7703 24.5136 22.527 24.4607 24.2785 24.3549C24.497 24.3443 24.7098 24.2805 24.8992 24.1686C25.0885 24.0567 25.2489 23.9001 25.3667 23.7118C26.3357 22.2141 27.2581 20.6872 28.1339 19.1313C29.0096 17.5753 29.8439 15.9876 30.6368 14.3681C30.7376 14.1694 30.7902 13.9489 30.7902 13.7251C30.7902 13.5013 30.7376 13.2807 30.6368 13.0821C29.8491 11.4943 29.0148 9.90661 28.1339 8.31889C27.2529 6.73117 26.3305 5.2043 25.3667 3.73831C25.2489 3.55007 25.0885 3.39345 24.8992 3.28156C24.7098 3.16967 24.497 3.1058 24.2785 3.09528C22.527 2.98943 20.7703 2.93652 19.0084 2.93652C17.2465 2.93652 15.4898 2.98943 13.7383 3.09528C13.5198 3.1058 13.307 3.16967 13.1176 3.28156C12.9283 3.39345 12.768 3.55007 12.6501 3.73831C11.6811 5.23605 10.7587 6.76293 9.88295 8.31889C9.0072 9.87486 8.1729 11.4626 7.38006 13.0821C7.27921 13.2807 7.22656 13.5013 7.22656 13.7251C7.22656 13.9489 7.27921 14.1694 7.38006 14.3681Z" fill="url(#paint3_radial_663_1768)"/>
<path style="mix-blend-mode:screen" opacity="0.65" fill-rule="evenodd" clip-rule="evenodd" d="M8.03875 14.1229C8.80568 15.7106 9.61926 17.2507 10.4795 18.7431C11.3397 20.2356 12.2387 21.7254 13.1767 23.2126C13.2502 23.3339 13.3517 23.4349 13.4723 23.5069C13.5929 23.5788 13.7289 23.6195 13.8685 23.6254C15.5785 23.7312 17.2912 23.7815 19.0064 23.7762C20.7216 23.7709 22.4343 23.7206 24.1443 23.6254C24.2839 23.6195 24.4199 23.5788 24.5405 23.5069C24.6611 23.4349 24.7626 23.3339 24.8361 23.2126C25.7792 21.7519 26.6783 20.2621 27.5333 18.7431C28.3884 17.2242 29.2019 15.6841 29.974 14.1229C30.0354 14 30.0675 13.8639 30.0675 13.7259C30.0675 13.588 30.0354 13.4519 29.974 13.329C29.2071 11.7413 28.3935 10.2012 27.5333 8.70874C26.6731 7.21628 25.7741 5.72647 24.8361 4.2393C24.7626 4.11802 24.6611 4.01699 24.5405 3.94502C24.4199 3.87306 24.2839 3.83237 24.1443 3.82651C22.4343 3.72066 20.7216 3.67038 19.0064 3.67567C17.2912 3.68096 15.5785 3.73124 13.8685 3.82651C13.7289 3.83237 13.5929 3.87306 13.4723 3.94502C13.3517 4.01699 13.2502 4.11802 13.1767 4.2393C12.2336 5.70001 11.3345 7.18982 10.4795 8.70874C9.62444 10.2277 8.81086 11.7678 8.03875 13.329C7.97734 13.4519 7.94531 13.588 7.94531 13.7259C7.94531 13.8639 7.97734 14 8.03875 14.1229Z" fill="url(#paint4_linear_663_1768)"/>
<path style="mix-blend-mode:screen" fill-rule="evenodd" clip-rule="evenodd" d="M26.6682 19.8864C26.3496 20.4103 25.1137 22.5299 24.7483 23.0142C24.383 23.4984 24.3519 23.6731 23.5668 23.7287C22.7818 23.7842 21.1184 23.8398 20.4577 23.8477C20.1545 23.8477 19.8902 23.7287 19.9135 23.3714C19.9369 23.0142 20.2322 23.0142 20.4654 23.0062C21.0639 23.0062 22.4631 22.9268 23.1316 22.8792C23.3633 22.8797 23.5939 22.845 23.8156 22.776C24.0525 22.6309 24.2565 22.4361 24.4141 22.2045C24.7561 21.8075 25.9687 19.9181 26.2485 19.5688C26.5283 19.2195 26.8859 19.5688 26.6838 19.8864H26.6682Z" fill="url(#paint5_radial_663_1768)"/>
<g style="mix-blend-mode:multiply" opacity="0.75">
<path style="mix-blend-mode:multiply" opacity="0.75" fill-rule="evenodd" clip-rule="evenodd" d="M18.9823 26.6736C16.9225 26.6736 14.9559 26.6101 13.1215 26.4911C12.7181 26.4721 12.3238 26.3627 11.9664 26.1706C11.6091 25.9785 11.2976 25.7085 11.0539 25.3797C9.94235 23.9031 8.78417 22.2042 7.61822 20.4419C6.73988 19.0923 5.90819 17.7427 5.13867 16.417C5.81492 17.7665 6.56111 19.1637 7.36173 20.5768C8.44994 22.4979 9.5537 24.3159 10.6419 25.9671C10.8759 26.3343 11.1915 26.64 11.5629 26.8593C11.9343 27.0787 12.3511 27.2054 12.7795 27.2294C14.7227 27.3643 16.8136 27.4437 18.9978 27.4437C21.182 27.4437 23.2652 27.3722 25.2162 27.2294C25.6446 27.2054 26.0614 27.0787 26.4328 26.8593C26.8042 26.64 27.1197 26.3343 27.3538 25.9671C28.442 24.3159 29.5457 22.5059 30.634 20.5768C31.4734 19.0923 32.2507 17.6236 32.9658 16.2106C32.1885 17.5998 31.2869 19.0129 30.3619 20.426C29.196 22.228 28.03 23.8872 26.9263 25.3717C26.683 25.7016 26.3717 25.9729 26.0144 26.1663C25.6571 26.3598 25.2625 26.4706 24.8587 26.4911C23.0242 26.6101 21.0499 26.6736 19.0056 26.6736H18.9823Z" fill="url(#paint6_linear_663_1768)"/>
</g>
<path fill-rule="evenodd" clip-rule="evenodd" d="M11.7976 20.8706C9.54824 20.1134 7.6349 18.5657 6.39802 16.503C5.16113 14.4402 4.68093 11.9961 5.04287 9.60571C3.39501 11.5507 3.85361 14.7341 5.2372 16.9331C5.92219 18.0971 6.87952 19.0691 8.02322 19.762C9.16692 20.4548 10.4612 20.8466 11.7898 20.9024L11.7976 20.8706Z" fill="url(#paint7_linear_663_1768)"/>
<path fill-rule="evenodd" clip-rule="evenodd" d="M5.05113 9.6057C4.68918 11.9961 5.16938 14.4402 6.40627 16.5029C7.64315 18.5657 9.55649 20.1134 11.8058 20.8706C8.36241 17.7904 7.35192 15.9725 6.36476 12.932C5.95279 11.6856 5.75069 10.4551 5.07444 9.62951L5.05113 9.6057Z" fill="url(#paint8_linear_663_1768)"/>
<path fill-rule="evenodd" clip-rule="evenodd" d="M5.05122 9.60588C5.00458 10.1298 4.98905 10.63 4.98905 11.1142C5.09598 10.8314 5.1868 10.5425 5.26108 10.2489C5.21109 10.5942 5.12241 10.9325 4.9968 11.2571C4.9968 11.6382 4.9968 12.0113 5.06676 12.3685C5.25432 11.6468 5.36893 10.9072 5.40877 10.1616C5.42785 10.9985 5.32303 11.8335 5.09786 12.6384V12.8369C5.25124 12.3972 5.37078 11.946 5.4554 11.4873C5.41266 12.0009 5.30017 12.5058 5.12117 12.9877C5.17299 13.2682 5.23777 13.5461 5.3155 13.8213C5.54731 13.0458 5.69844 12.2475 5.76634 11.4397C5.75885 12.2973 5.62252 13.1488 5.36213 13.9642L5.40877 14.1071C5.57039 13.6553 5.69519 13.1906 5.78188 12.7178C5.73985 13.2341 5.62735 13.7417 5.44765 14.2262C5.50983 14.4061 5.57718 14.5887 5.64973 14.7739C5.8514 13.995 5.97383 13.1969 6.01506 12.3923C6.04406 13.2579 5.94181 14.1229 5.71193 14.9565C5.78447 15.1259 5.86219 15.2952 5.9451 15.4646C6.04214 15.125 6.10721 14.7768 6.13943 14.4246C6.14494 14.811 6.09519 15.1961 5.99174 15.5678L6.11611 15.8059C6.2435 14.9792 6.28519 14.141 6.24048 13.3053C6.35816 14.1813 6.3398 15.0707 6.18606 15.9409C6.27934 16.1102 6.3804 16.2796 6.48922 16.449C6.54775 16.0097 6.57374 15.5665 6.56696 15.1232C6.62327 15.5978 6.62327 16.0776 6.56696 16.5522L6.70686 16.7744C6.75462 15.8564 6.70773 14.9357 6.56696 14.0277C6.79296 14.9724 6.87164 15.9476 6.80013 16.9173L7.05663 17.2746C7.09282 16.8334 7.09282 16.39 7.05663 15.9488C7.11616 16.4232 7.11616 16.9034 7.05663 17.3778L7.181 17.5366C7.21388 16.7103 7.16179 15.8828 7.02556 15.0676C7.23859 15.9093 7.3225 16.7797 7.2743 17.6477L7.36757 17.7668C7.40121 17.413 7.40121 17.0567 7.36757 16.703C7.44563 17.0812 7.4692 17.469 7.43752 17.8541L7.74066 18.1955C7.75291 17.4561 7.66396 16.7186 7.47638 16.0044C7.74576 16.7395 7.86735 17.5225 7.83393 18.3066C7.9295 17.8942 7.9295 17.4647 7.83393 17.0523C7.98006 17.502 8.02784 17.9789 7.97386 18.4495L8.16818 18.64C8.20021 18.093 8.1689 17.5441 8.07491 17.0047C8.25885 17.5555 8.31991 18.1414 8.25367 18.7194L8.64232 19.0528C8.65438 18.5641 8.60474 18.0758 8.49463 17.6001C8.69006 18.082 8.77256 18.604 8.73559 19.1243L9.09317 19.4021C9.09243 18.9681 9.03756 18.5359 8.92992 18.1161C9.10654 18.54 9.19395 18.9971 9.18644 19.4577C9.31858 19.5609 9.45849 19.6562 9.5984 19.7435C9.58461 19.3915 9.5191 19.0436 9.40408 18.7115C9.59155 19.0453 9.69317 19.4222 9.69945 19.807C10.3427 20.2019 11.0099 20.5546 11.6971 20.8628C10.9682 20.6448 10.2685 20.3355 9.61394 19.942C9.32639 20.0826 9.00508 20.135 8.68896 20.0928C8.97376 20.0711 9.25264 19.9986 9.51289 19.8784L9.0776 19.5927C8.73266 19.745 8.3512 19.7892 7.98161 19.7197C8.32452 19.7202 8.66454 19.6555 8.98433 19.5291L8.62678 19.2592C8.22964 19.3871 7.80357 19.3871 7.40642 19.2592C7.78305 19.2963 8.16315 19.2586 8.52573 19.1481L8.1293 18.8067C7.69595 18.958 7.22571 18.958 6.79235 18.8067C7.20818 18.8862 7.63631 18.8671 8.04381 18.7512L7.7329 18.4574C7.24078 18.5609 6.72922 18.5025 6.27158 18.2907C6.71903 18.4193 7.1886 18.4464 7.64738 18.3701L7.46084 18.1796C7.15871 18.25 6.84314 18.2307 6.55139 18.124C6.82656 18.1729 7.10794 18.1729 7.38311 18.124C6.82177 18.1538 6.26304 18.0276 5.76634 17.7588C6.24252 17.9415 6.75097 18.0199 7.25874 17.989L6.9556 17.6239C6.40828 17.6517 5.86574 17.5077 5.40101 17.2111C5.87087 17.4236 6.37954 17.5318 6.89341 17.5286L6.80791 17.4175C6.48556 17.4462 6.16188 17.3801 5.87515 17.2269C6.15939 17.3287 6.46059 17.3719 6.76128 17.354L6.58249 17.1158C5.9917 17.103 5.4223 16.8877 4.96573 16.5045C5.43988 16.7899 5.9716 16.961 6.52032 17.0047L6.27934 16.6395C5.90818 16.6182 5.549 16.4978 5.23776 16.2902C5.5541 16.4326 5.88941 16.5263 6.2327 16.568C5.6661 16.4509 5.13391 16.2009 4.67811 15.8377C5.11624 16.1103 5.60195 16.2936 6.10835 16.3775C6.01508 16.224 5.92696 16.0653 5.84405 15.9012C5.29119 15.7697 4.79005 15.4708 4.40607 15.0438C4.81316 15.3792 5.28053 15.63 5.78188 15.7821C5.41392 15.6271 5.07275 15.4126 4.7714 15.147C5.06287 15.3449 5.37588 15.5074 5.70414 15.6313C5.6316 15.4831 5.56165 15.3296 5.49428 15.1708C4.9572 15.0052 4.48428 14.6721 4.14177 14.2182C4.51734 14.574 4.96239 14.8445 5.44765 15.0121L5.36213 14.7977C5.05729 14.6595 4.79037 14.4468 4.58484 14.1785C4.79412 14.3792 5.03277 14.5452 5.29218 14.6707L5.23776 14.5199C4.70575 14.1838 4.27319 13.7063 3.98633 13.1386C4.31763 13.6147 4.72489 14.0307 5.19113 14.369C5.12376 14.1626 5.06159 13.9536 5.00458 13.7419C4.51266 13.2583 4.17187 12.6368 4.02518 11.9557C4.23427 12.5408 4.55087 13.0797 4.95795 13.5434C4.91649 13.3741 4.88281 13.2047 4.8569 13.0354C4.58618 12.6758 4.39281 12.2619 4.28946 11.8208C4.42189 12.1764 4.59963 12.5127 4.81804 12.821V12.7099C4.47433 12.167 4.28339 11.5382 4.26614 10.892C4.34658 11.4484 4.52291 11.986 4.78694 12.4797C4.74998 12.1476 4.7318 11.8136 4.73253 11.4794C4.57594 11.0455 4.53832 10.5761 4.62372 10.1219C4.59809 10.496 4.63488 10.8718 4.73253 11.2333C4.74891 10.6798 4.81923 10.1293 4.94241 9.59001L5.05122 9.60588Z" fill="#4C6017" fill-opacity="0.5" style="mix-blend-mode:screen"/>
<path fill-rule="evenodd" clip-rule="evenodd" d="M11.8041 20.8876C10.1233 21.4265 8.30988 21.3394 6.68607 20.6417C5.06226 19.9441 4.0408 19.1955 2.93359 17.5215C2.97304 18.0482 3.11206 18.5163 3.50281 18.9422C3.77621 19.1506 3.98301 19.442 4.31092 19.5381C4.07844 19.5402 3.84726 19.5027 3.62692 19.4269C3.99787 19.9511 4.45556 20.4051 4.97941 20.7685C5.36569 20.8304 5.75906 20.8304 6.14535 20.7685C5.86097 20.8898 5.55895 20.9622 5.25146 20.9829C6.24135 21.5991 7.38018 21.9204 8.53941 21.9106C9.69864 21.9008 10.8321 21.5602 11.8118 20.9273L11.8041 20.8876Z" fill="url(#paint9_linear_663_1768)"/>
<path fill-rule="evenodd" clip-rule="evenodd" d="M2.92969 17.0602C3.72779 18.6641 5.05683 19.9272 6.68065 20.6248C8.30446 21.3225 10.1179 21.4096 11.7986 20.8707C8.40962 20.5373 7.01826 19.8863 5.11389 18.4891C4.47107 17.8889 3.73232 17.4056 2.92969 17.0602Z" fill="url(#paint10_linear_663_1768)"/>
<g opacity="0.5">
<path fill-rule="evenodd" clip-rule="evenodd" d="M2.92969 17.0601C3.12401 17.3935 3.32611 17.7111 3.53598 17.9968C3.48079 17.7787 3.41333 17.564 3.3339 17.3538C3.45178 17.5858 3.54307 17.8309 3.60595 18.0842C3.76919 18.3144 3.94017 18.5208 4.11895 18.7272C3.92563 18.2082 3.68082 17.7108 3.38831 17.2427C3.75489 17.7403 4.04576 18.2917 4.2511 18.878L4.35215 18.9892C4.25807 18.6547 4.13852 18.3282 3.9946 18.0127C4.19409 18.3491 4.34586 18.7125 4.44542 19.0924C4.5957 19.2406 4.75374 19.3808 4.91956 19.5131C4.73218 18.9601 4.48997 18.4281 4.19668 17.9254C4.55789 18.4475 4.8384 19.0231 5.02839 19.6322L5.11389 19.6957C5.01916 19.3526 4.897 19.0181 4.74858 18.6954C4.94066 19.0252 5.08714 19.3805 5.18386 19.7513L5.53363 19.9894C5.32801 19.4346 5.06757 18.9026 4.75634 18.4017C5.14267 18.9114 5.44946 19.4792 5.66578 20.0847L6.02333 20.2911C5.93717 20.0428 5.82783 19.8036 5.69686 19.5766C5.86755 19.8192 6.00122 20.0869 6.09329 20.3705L6.27207 20.4578C5.99906 19.8943 5.66813 19.3621 5.28489 18.8701C5.72609 19.3385 6.09324 19.8741 6.37312 20.4578L6.76953 20.6325C6.61924 20.3419 6.44775 20.0632 6.25651 19.7989C6.48982 20.0642 6.69081 20.3574 6.85504 20.6722L7.03381 20.7436C6.67213 20.1712 6.2527 19.639 5.78237 19.1559C6.32288 19.6262 6.7872 20.1808 7.15818 20.7992L7.46133 20.9024C7.30144 20.6231 7.11946 20.3576 6.91722 20.1085C7.16161 20.3632 7.37318 20.6486 7.54682 20.958L7.68676 20.9976C7.35558 20.4845 6.97261 20.0082 6.54413 19.5766C7.03253 19.9917 7.45472 20.4818 7.79556 21.0294H7.9044C7.77474 20.8007 7.62375 20.5854 7.45355 20.3864C7.66067 20.5811 7.83874 20.8058 7.98211 21.0532L8.30858 21.1247C8.00249 20.6728 7.63624 20.2666 7.22037 19.918C7.69621 20.2419 8.1033 20.6604 8.41739 21.1485C8.30358 20.8437 8.11964 20.5714 7.88108 20.3546C8.16163 20.5644 8.39268 20.8357 8.55732 21.1485H8.7594C8.53806 20.8031 8.27711 20.4859 7.98211 20.2038C8.32875 20.4558 8.61563 20.7841 8.8216 21.1643H9.19469C8.99273 20.8702 8.75507 20.6035 8.48737 20.3705C8.8022 20.5713 9.06804 20.8428 9.26466 21.1643H9.5989C9.41413 20.9018 9.19732 20.6644 8.95373 20.4578C9.24275 20.6355 9.49175 20.8736 9.68439 21.1564H10.0497C9.89023 20.9516 9.70158 20.7723 9.49006 20.6245C9.74563 20.7434 9.96758 20.9264 10.1352 21.1564C10.6918 21.1077 11.2448 21.0229 11.7909 20.9024C11.2584 21.0929 10.7049 21.2155 10.143 21.2675C10.028 21.4799 9.85523 21.6536 9.64553 21.7677C9.80734 21.629 9.94412 21.4624 10.0497 21.2755H9.66885C9.52566 21.5204 9.3147 21.7165 9.06256 21.8391C9.26812 21.6882 9.44465 21.4998 9.58333 21.2834H9.2491C9.07068 21.5428 8.81824 21.7397 8.52622 21.8471C8.76972 21.7024 8.98351 21.511 9.15583 21.2834H8.76718C8.56456 21.5626 8.27785 21.7662 7.95103 21.8629C8.23525 21.7266 8.48517 21.5256 8.68169 21.2755L8.37076 21.2358C8.11676 21.517 7.78206 21.7088 7.4147 21.7836C7.73907 21.6621 8.03353 21.4698 8.27748 21.2199H8.08316C7.93058 21.3982 7.73086 21.5278 7.50797 21.593C7.69198 21.4932 7.85766 21.3616 7.99767 21.2041C7.67168 21.4678 7.28253 21.6378 6.87058 21.6962C7.23711 21.5954 7.57876 21.4169 7.8733 21.1723L7.53129 21.0929C7.20953 21.3563 6.81582 21.5116 6.4042 21.5375C6.77726 21.4575 7.12958 21.2979 7.43801 21.0691H7.33696C7.15443 21.2303 6.93061 21.335 6.69182 21.3708C6.9074 21.306 7.1082 21.198 7.28255 21.0532L7.07269 20.9897C6.71076 21.2445 6.27546 21.3675 5.83679 21.339C6.24093 21.3016 6.63156 21.1714 6.97941 20.958L6.67626 20.8468C6.44315 20.9979 6.17486 21.0828 5.89896 21.0929C6.15168 21.04 6.3953 20.949 6.62184 20.823C6.23077 20.9991 5.80517 21.0807 5.37819 21.0612C5.7597 21.0314 6.13191 20.9263 6.47415 20.7515L6.1166 20.5848C5.72582 20.7509 5.295 20.7924 4.88071 20.7039C5.26857 20.7248 5.65671 20.6682 6.02333 20.5372C5.73575 20.6061 5.43921 20.6276 5.14498 20.6007C5.40806 20.5896 5.66895 20.547 5.92228 20.4737L5.60359 20.2911C5.20676 20.4211 4.78008 20.4211 4.38325 20.2911C4.76531 20.3482 5.15491 20.3212 5.52588 20.2117L5.38594 20.1165C5.14528 20.1615 4.89761 20.1479 4.66306 20.0768C4.87422 20.1108 5.0893 20.1108 5.30045 20.0768L5.22272 19.8862C4.75809 19.92 4.29321 19.824 3.87799 19.6084C4.28043 19.7509 4.70349 19.8234 5.12945 19.8227L4.75634 19.529C4.25235 19.4535 3.78165 19.227 3.40385 18.878C3.77977 19.1429 4.20197 19.3315 4.64753 19.4337L4.36769 19.1718C4.05238 19.0739 3.76096 18.9088 3.51266 18.6875C3.75395 18.8474 4.01545 18.9729 4.28995 19.0606C3.83273 18.8606 3.43188 18.5467 3.12401 18.1477C3.40687 18.4427 3.73841 18.6846 4.10341 18.8622C3.93977 18.6781 3.78665 18.4847 3.64481 18.2827C3.36468 18.0832 3.14407 17.8084 3.00742 17.4888C3.15073 17.7246 3.33207 17.934 3.54376 18.108C3.31976 17.7656 3.12968 17.4013 2.97632 17.0204L2.92969 17.0601Z" fill="#4C6017" style="mix-blend-mode:screen"/>
</g>
<path style="mix-blend-mode:multiply" fill-rule="evenodd" clip-rule="evenodd" d="M11.7916 20.8707C8.41041 20.5373 7.02681 19.8863 5.12243 18.4891C4.47961 17.8889 3.74086 17.4056 2.93823 17.0602C2.92684 17.2134 2.92684 17.3673 2.93823 17.5206C3.84315 19.0027 5.2044 20.1359 6.80825 20.7423C8.4121 21.3487 10.1677 21.3938 11.7994 20.8707H11.7916Z" fill="url(#paint11_radial_663_1768)"/>
<path style="mix-blend-mode:multiply" fill-rule="evenodd" clip-rule="evenodd" d="M4.37737 10.7169C3.60007 12.6222 4.09754 15.1149 5.24793 16.9407C5.93292 18.1048 6.89024 19.0768 8.03394 19.7696C9.17764 20.4624 10.4719 20.8543 11.8005 20.91C7.91405 19.2747 4.15195 16.1469 4.37737 10.7566V10.7169Z" fill="url(#paint12_radial_663_1768)"/>
<path fill-rule="evenodd" clip-rule="evenodd" d="M11.7999 20.8705C9.72834 20.8433 7.73316 20.0678 6.16805 18.6815C4.60295 17.2952 3.56904 15.3877 3.24964 13.2971C3.15291 13.5269 3.07997 13.7663 3.032 14.0116C3.09346 14.2607 3.20169 14.4953 3.35069 14.7022C3.18794 14.5949 3.06062 14.44 2.98536 14.2577C2.87956 15.6249 3.28199 16.9826 4.11245 18.0603C4.48544 18.2751 4.90468 18.3924 5.33281 18.4016C5.01897 18.482 4.69056 18.482 4.37673 18.4016C5.25888 19.4901 6.42578 20.3002 7.74143 20.7373C9.05708 21.1744 10.4673 21.2206 11.8077 20.8705H11.7999Z" fill="url(#paint13_linear_663_1768)"/>
<path fill-rule="evenodd" clip-rule="evenodd" d="M3.23429 13.2893C3.55369 15.3799 4.5876 17.2874 6.1527 18.6737C7.71781 20.06 9.71299 20.8355 11.7845 20.8627C8.10793 19.2274 6.7943 17.981 5.15421 15.6947C4.64585 14.7946 3.99138 13.9892 3.21875 13.3131L3.23429 13.2893Z" fill="url(#paint14_linear_663_1768)"/>
<g opacity="0.5">
<path fill-rule="evenodd" clip-rule="evenodd" d="M3.23366 13.2893C3.33471 13.7418 3.44353 14.1625 3.57567 14.5674C3.59066 14.303 3.59066 14.0379 3.57567 13.7735C3.6236 14.0779 3.63663 14.3869 3.61452 14.6944C3.71557 15.0119 3.83218 15.3136 3.96432 15.6073C3.93356 14.9533 3.83719 14.3043 3.67672 13.6703C3.90899 14.3638 4.03739 15.0891 4.05759 15.8217L4.13532 15.9804C4.15131 15.5697 4.13572 15.1582 4.08869 14.75C4.18597 15.1925 4.22258 15.6467 4.1975 16.0995C4.3115 16.3218 4.43588 16.5362 4.57061 16.7426C4.56413 16.0402 4.48596 15.3405 4.3374 14.6547C4.55385 15.372 4.66133 16.119 4.6561 16.8696L4.72605 16.9728C4.74448 16.5514 4.72889 16.1292 4.67942 15.7105C4.77669 16.1531 4.81333 16.6073 4.78825 17.0601C4.88671 17.1977 4.99034 17.33 5.09916 17.457C5.0658 16.7411 4.95898 16.0306 4.78047 15.3374C5.02903 16.0523 5.16798 16.8021 5.19243 17.5602L5.51891 17.9175C5.51162 17.6076 5.47516 17.2993 5.41007 16.9966C5.5167 17.3167 5.57694 17.651 5.58886 17.9889L5.75209 18.1556C5.64408 17.4315 5.46172 16.7211 5.20799 16.036C5.53566 16.7351 5.75338 17.4826 5.85314 18.2509L6.23401 18.5922C6.18199 18.2245 6.10407 17.861 6.00083 17.5047C6.16682 17.8881 6.28687 18.2906 6.35838 18.7034L6.53716 18.8463C6.33807 18.0671 6.0593 17.3114 5.70545 16.5917C6.1436 17.329 6.46373 18.133 6.65375 18.9733L6.95691 19.2035C6.88396 18.8222 6.77994 18.4478 6.64597 18.0842C6.82941 18.4593 6.96525 18.8568 7.05018 19.267L7.19787 19.3702C7.00877 18.6721 6.74824 17.9962 6.42057 17.3538C6.81732 17.9992 7.11363 18.7035 7.29892 19.4417L7.40773 19.5131C7.34528 19.2085 7.25417 18.9107 7.13567 18.624C7.29947 18.9193 7.41995 19.2376 7.49324 19.5687L7.83523 19.7751C7.65763 19.1536 7.39601 18.5604 7.05794 18.0127C7.47288 18.5539 7.7769 19.1749 7.95185 19.8386C7.92455 19.4681 7.81274 19.1092 7.62537 18.7907C7.86466 19.126 8.02915 19.5108 8.10729 19.918L8.32493 20.0291C8.21131 19.5635 8.04435 19.1132 7.82748 18.6875C8.12548 19.0965 8.32998 19.5685 8.42598 20.0688L8.83795 20.2435C8.72217 19.8317 8.55498 19.4368 8.34049 19.0686C8.62641 19.4185 8.82864 19.8316 8.93122 20.2752L9.30433 20.4102C9.19182 20.0501 9.03511 19.706 8.83795 19.3861C9.09704 19.6908 9.29039 20.0479 9.40538 20.434C9.5453 20.4816 9.68522 20.5213 9.82513 20.561C9.71931 20.2759 9.5726 20.0083 9.38982 19.7672C9.62649 19.984 9.80792 20.2565 9.9184 20.561C10.5584 20.7169 11.2074 20.8309 11.8616 20.9024C11.1977 20.9168 10.5346 20.8475 9.8873 20.696C9.68489 20.8924 9.43111 21.0247 9.15664 21.077C9.38807 20.9807 9.60117 20.8437 9.78625 20.6721L9.35097 20.5531C9.10277 20.7707 8.79725 20.9088 8.47262 20.95C8.75523 20.8569 9.0187 20.7116 9.24992 20.5213L8.88459 20.3943C8.59157 20.6164 8.23883 20.741 7.87411 20.7515C8.1996 20.6807 8.50847 20.5459 8.78353 20.3546L8.36381 20.18C8.03547 20.418 7.63906 20.5381 7.23672 20.5213C7.60329 20.4732 7.95424 20.3401 8.26276 20.1323L7.92853 19.9735C7.5432 20.1931 7.09955 20.2821 6.66153 20.2276C7.06762 20.2123 7.46554 20.1067 7.82748 19.918L7.62537 19.8068C7.39024 19.9477 7.12044 20.0166 6.84808 20.0053C7.0909 19.9649 7.325 19.8816 7.53988 19.7592C7.07909 19.9383 6.57904 19.985 6.0941 19.8942C6.53928 19.917 6.98419 19.844 7.39995 19.6798L7.05018 19.4575C6.5981 19.6332 6.10371 19.661 5.6355 19.5369C6.08346 19.5858 6.53648 19.5371 6.96467 19.394L6.86361 19.3226C6.60106 19.4352 6.31237 19.4682 6.03193 19.4179C6.29723 19.4261 6.56147 19.3802 6.80922 19.2829L6.59934 19.1321C6.10283 19.2797 5.57237 19.2545 5.09138 19.0606C5.55693 19.1694 6.04052 19.1694 6.50606 19.0606L6.21069 18.8225C5.89745 18.9077 5.56786 18.9077 5.25463 18.8225C5.55354 18.8679 5.85739 18.8679 6.1563 18.8225C5.65562 18.8731 5.15022 18.8052 4.67942 18.624C5.11436 18.7322 5.56567 18.7538 6.00861 18.6875L5.6666 18.362C5.17119 18.402 4.67547 18.2886 4.24413 18.0366C4.67229 18.2077 5.12917 18.2913 5.58886 18.2826C5.24086 18.254 4.89966 18.1682 4.57839 18.0286C4.87475 18.1149 5.17995 18.1655 5.48781 18.1794L5.19243 17.854C4.70106 17.8627 4.21954 17.7127 3.81663 17.4253C4.2231 17.6328 4.66834 17.7492 5.12248 17.7666L4.99811 17.6079C4.71805 17.5663 4.45165 17.4575 4.22081 17.2903C4.44641 17.402 4.6877 17.477 4.93594 17.5126L4.85042 17.4015C4.31991 17.2713 3.83377 16.997 3.44352 16.6076C3.84275 16.9141 4.28939 17.1502 4.76493 17.3062C4.65611 17.1527 4.54988 16.9939 4.44624 16.8299C3.909 16.5582 3.46269 16.13 3.1637 15.5994C3.4905 16.0372 3.89695 16.4065 4.36075 16.687C4.28302 16.5547 4.21045 16.4224 4.14308 16.2901C3.82752 16.0604 3.5627 15.7656 3.36578 15.4247C3.56839 15.6852 3.8036 15.9174 4.06537 16.1154C3.62716 15.719 3.29313 15.2168 3.09375 14.6547C3.30498 15.0883 3.58911 15.4806 3.93322 15.8137C3.81774 15.5551 3.71654 15.2901 3.63009 15.0199C3.38674 14.7001 3.23353 14.3186 3.18702 13.9164C3.26345 14.2353 3.39222 14.5386 3.56789 14.8135C3.43883 14.3467 3.3555 13.8681 3.31915 13.3845L3.23366 13.2893Z" fill="#4C6017" style="mix-blend-mode:screen"/>
</g>
<path fill-rule="evenodd" clip-rule="evenodd" d="M26.1621 20.8706C28.4114 20.1134 30.3248 18.5657 31.5617 16.5029C32.7986 14.4402 33.2788 11.9961 32.9168 9.6057C34.5647 11.5507 34.1061 14.734 32.7225 16.933C32.0375 18.0971 31.0802 19.0691 29.9365 19.7619C28.7928 20.4547 27.4985 20.8466 26.1699 20.9023L26.1621 20.8706Z" fill="url(#paint15_linear_663_1768)"/>
<path fill-rule="evenodd" clip-rule="evenodd" d="M32.9168 9.6057C33.2788 11.9961 32.7986 14.4402 31.5617 16.5029C30.3248 18.5657 28.4114 20.1134 26.1621 20.8706C29.6055 17.7904 30.616 15.9725 31.6032 12.932C32.0151 11.6856 32.2172 10.4551 32.8935 9.62951L32.9168 9.6057Z" fill="url(#paint16_linear_663_1768)"/>
<g opacity="0.5">
<path fill-rule="evenodd" clip-rule="evenodd" d="M32.9174 9.60596C32.964 10.1299 32.9795 10.6301 32.9795 11.1143C32.8726 10.8315 32.7817 10.5425 32.7075 10.249C32.7575 10.5943 32.8462 10.9326 32.9718 11.2572C32.9718 11.6383 32.9718 12.0114 32.9018 12.3686C32.7143 11.6468 32.5997 10.9073 32.5598 10.1617C32.5407 10.9986 32.6456 11.8336 32.8707 12.6385V12.837C32.7174 12.3973 32.5979 11.9461 32.5132 11.4874C32.5559 12.001 32.6684 12.5059 32.8474 12.9878C32.7956 13.2683 32.7308 13.5461 32.6531 13.8214C32.4212 13.0459 32.2701 12.2476 32.2023 11.4398C32.2097 12.2974 32.3461 13.1488 32.6065 13.9643L32.5598 14.1072C32.3982 13.6554 32.2734 13.1907 32.1867 12.7179C32.2287 13.2341 32.3412 13.7418 32.5209 14.2262C32.4588 14.4062 32.3914 14.5888 32.3188 14.774C32.1172 13.9951 31.9948 13.197 31.9535 12.3924C31.9245 13.258 32.0268 14.1229 32.2567 14.9566C32.1841 15.1259 32.1064 15.2953 32.0235 15.4646C31.9265 15.1251 31.8614 14.7769 31.8292 14.4247C31.8237 14.8111 31.8734 15.1962 31.9769 15.5679L31.8525 15.806C31.7251 14.9792 31.6834 14.141 31.7281 13.3053C31.6106 14.1813 31.6289 15.0708 31.7825 15.941C31.6893 16.1103 31.5882 16.2797 31.4794 16.4491C31.4208 16.0098 31.3949 15.5666 31.4016 15.1233C31.3453 15.5979 31.3453 16.0777 31.4016 16.5522L31.2617 16.7745C31.2139 15.8564 31.2608 14.9358 31.4016 14.0278C31.1756 14.9725 31.097 15.9477 31.1685 16.9174L30.9119 17.2746C30.8757 16.8335 30.8757 16.3901 30.9119 15.9489C30.8524 16.4233 30.8524 16.9035 30.9119 17.3779L30.7876 17.5366C30.7546 16.7104 30.8067 15.8829 30.943 15.0677C30.73 15.9094 30.6461 16.7798 30.6943 17.6478L30.601 17.7668C30.5674 17.4131 30.5674 17.0568 30.601 16.7031C30.523 17.0812 30.4994 17.469 30.5311 17.8542L30.2279 18.1955C30.2157 17.4562 30.3046 16.7187 30.4922 16.0045C30.223 16.7396 30.1014 17.5226 30.1346 18.3067C30.0391 17.8943 30.0391 17.4648 30.1346 17.0524C29.9885 17.502 29.9408 17.979 29.9947 18.4496L29.8004 18.6401C29.7683 18.0931 29.7996 17.5442 29.8937 17.0047C29.7097 17.5556 29.6487 18.1414 29.7149 18.7195L29.3263 19.0529C29.3142 18.5642 29.3639 18.0759 29.474 17.6001C29.2785 18.0821 29.196 18.6041 29.233 19.1244L28.8754 19.4022C28.8762 18.9682 28.931 18.536 29.0387 18.1161C28.8618 18.54 28.7744 18.9971 28.7822 19.4578C28.65 19.561 28.5101 19.6562 28.3702 19.7436C28.384 19.3916 28.4495 19.0437 28.5645 18.7115C28.377 19.0454 28.2754 19.4223 28.2691 19.8071C27.6259 20.202 26.9586 20.5547 26.2715 20.8629C27.0004 20.6448 27.7001 20.3355 28.3547 19.942C28.6422 20.0826 28.9635 20.135 29.2796 20.0929C28.9948 20.0714 28.7159 19.9988 28.4557 19.8785L28.891 19.5927C29.2359 19.745 29.6174 19.7892 29.987 19.7198C29.644 19.7202 29.3041 19.6556 28.9843 19.5292L29.3418 19.2593C29.739 19.3872 30.165 19.3872 30.5622 19.2593C30.1855 19.2964 29.8054 19.2587 29.4429 19.1482L29.8393 18.8068C30.2726 18.958 30.7429 18.958 31.1762 18.8068C30.7604 18.8862 30.3323 18.8672 29.9248 18.7512L30.2357 18.4575C30.7278 18.561 31.2394 18.5026 31.697 18.2908C31.2496 18.4194 30.78 18.4465 30.3212 18.3702L30.5078 18.1797C30.8099 18.2501 31.1255 18.2308 31.4172 18.1241C31.142 18.173 30.8607 18.173 30.5855 18.1241C31.1468 18.1539 31.7056 18.0277 32.2023 17.7589C31.7261 17.9416 31.2176 18.02 30.7099 17.9891L31.013 17.6239C31.5603 17.6518 32.1029 17.5077 32.5676 17.2111C32.0977 17.4237 31.5891 17.5319 31.0752 17.5287L31.1607 17.4176C31.483 17.4463 31.8067 17.3802 32.0934 17.227C31.8092 17.3288 31.508 17.372 31.2073 17.354L31.3861 17.1159C31.9769 17.103 32.5463 16.8877 33.0029 16.5046C32.5287 16.79 31.997 16.9611 31.4483 17.0047L31.6892 16.6396C32.0604 16.6183 32.4196 16.4979 32.7308 16.2903C32.4145 16.4327 32.0792 16.5263 31.7359 16.5681C32.3025 16.451 32.8347 16.2009 33.2905 15.8378C32.8523 16.1103 32.3666 16.2937 31.8602 16.3776C31.9535 16.2241 32.0416 16.0653 32.1245 15.9013C32.6774 15.7697 33.1785 15.4709 33.5625 15.0439C33.1554 15.3793 32.6881 15.6301 32.1867 15.7822C32.5547 15.6271 32.8958 15.4127 33.1972 15.1471C32.9057 15.345 32.5927 15.5075 32.2644 15.6314C32.337 15.4832 32.4069 15.3297 32.4743 15.1709C33.0114 15.0052 33.4843 14.6721 33.8268 14.2183C33.4511 14.5738 33.0061 14.8444 32.5209 15.0121L32.6065 14.7978C32.9113 14.6595 33.1782 14.4469 33.3838 14.1786C33.1746 14.3793 32.9359 14.5454 32.6764 14.6708L32.7308 14.52C33.2628 14.1839 33.6954 13.7064 33.9823 13.1386C33.6509 13.6147 33.2436 14.0306 32.7775 14.3691C32.8448 14.1627 32.907 13.9537 32.964 13.742C33.4559 13.2584 33.7967 12.6369 33.9434 11.9558C33.7343 12.5409 33.4177 13.0798 33.0106 13.5435C33.0521 13.3742 33.0858 13.2048 33.1117 13.0354C33.3824 12.6759 33.5758 12.262 33.6791 11.8208C33.5466 12.1765 33.3689 12.5128 33.1506 12.8211V12.71C33.4943 12.1671 33.6852 11.5382 33.7025 10.892C33.622 11.4485 33.4457 11.9861 33.1817 12.4798C33.2187 12.1477 33.2368 11.8137 33.2361 11.4795C33.3927 11.0455 33.4303 10.5762 33.3449 10.122C33.3705 10.4961 33.3337 10.8719 33.2361 11.2334C33.2197 10.6799 33.1494 10.1294 33.0262 9.59009L32.9174 9.60596Z" fill="#4C6017" style="mix-blend-mode:screen"/>
</g>
<path fill-rule="evenodd" clip-rule="evenodd" d="M26.164 20.8703C27.8448 21.4092 29.6582 21.3221 31.282 20.6244C32.9058 19.9268 34.1579 19.0255 35.0576 17.51C35.1103 18.2102 34.9226 18.4595 34.5666 19.0603C34.2932 19.2687 33.9851 19.4247 33.6571 19.5207C33.8896 19.5229 34.1208 19.4854 34.3412 19.4096C33.9702 19.9338 33.5125 20.3878 32.9887 20.7512C32.6024 20.8131 32.209 20.8131 31.8227 20.7512C32.1071 20.8725 32.4091 20.9449 32.7166 20.9656C31.7267 21.5818 30.5879 21.9031 29.4287 21.8933C28.2695 21.8834 27.136 21.5429 26.1562 20.91L26.164 20.8703Z" fill="url(#paint17_linear_663_1768)"/>
<path fill-rule="evenodd" clip-rule="evenodd" d="M35.0314 17.0596C34.8371 17.393 34.635 17.7106 34.4252 17.9963C34.4803 17.7782 34.5478 17.5635 34.6272 17.3533C34.5093 17.5852 34.418 17.8303 34.3552 18.0837C34.192 18.3139 34.021 18.5203 33.8422 18.7267C34.0355 18.2077 34.2803 17.7103 34.5728 17.2422C34.2063 17.7398 33.9154 18.2912 33.71 18.8775L33.609 18.9887C33.7031 18.6542 33.8226 18.3277 33.9666 18.0122C33.7745 18.342 33.628 18.6973 33.5313 19.0681C33.3836 19.2189 33.2203 19.3538 33.0571 19.4888C33.2444 18.9358 33.4866 18.4038 33.78 17.9011C33.4188 18.4231 33.1383 18.9988 32.9483 19.6079L32.8628 19.6714C32.9575 19.3283 33.0797 18.9937 33.2281 18.6711C33.036 19.0009 32.8896 19.3562 32.7928 19.727L32.443 19.9651C32.6487 19.4103 32.9091 18.8783 33.2203 18.3774C32.8341 18.8872 32.5273 19.4549 32.3109 20.0604L31.9534 20.2668C32.0395 20.0185 32.1488 19.7792 32.2798 19.5523C32.109 19.7949 31.9753 20.0625 31.8834 20.3462L31.7046 20.4335C31.9776 19.87 32.3085 19.3378 32.6918 18.8458C32.2506 19.3142 31.8835 19.8498 31.6036 20.4335L31.2071 20.6081C31.3574 20.3175 31.5289 20.0389 31.7202 19.7746C31.4869 20.0399 31.2859 20.3332 31.1216 20.6478L30.9429 20.7193C31.3046 20.1469 31.724 19.6147 32.1943 19.1316C31.6805 19.5772 31.2351 20.099 30.8729 20.6796L30.5698 20.7828C30.7296 20.5035 30.9116 20.238 31.1139 19.9889C30.8694 20.2435 30.6578 20.529 30.4843 20.8384L30.3444 20.8781C30.6755 20.3649 31.0585 19.8886 31.487 19.457C30.9986 19.8721 30.5764 20.3622 30.2355 20.9098H30.1267C30.2564 20.6812 30.4073 20.4658 30.5775 20.2668C30.3704 20.4615 30.1923 20.6862 30.049 20.9336L29.7225 21.0051C30.0286 20.5532 30.3949 20.1471 30.8107 19.7984C30.3349 20.1224 29.9278 20.5408 29.6137 21.0289C29.7275 20.7242 29.9115 20.4519 30.15 20.235C29.8695 20.4448 29.6384 20.7161 29.4738 21.0289H29.2717C29.493 20.6835 29.754 20.3664 30.049 20.0842C29.7023 20.3362 29.4155 20.6645 29.2095 21.0448H28.8364C29.0384 20.7507 29.276 20.4839 29.5437 20.2509C29.2289 20.4517 28.9631 20.7232 28.7664 21.0448H28.4322C28.617 20.7822 28.8338 20.5448 29.0774 20.3382C28.7883 20.5159 28.5393 20.754 28.3467 21.0368H27.9814C28.1409 20.832 28.3295 20.6527 28.541 20.5049C28.2855 20.6238 28.0635 20.8068 27.8959 21.0368C27.3393 20.9882 26.7863 20.9033 26.2402 20.7828C26.7727 20.9733 27.3262 21.096 27.8881 21.148C28.0031 21.3603 28.1759 21.534 28.3856 21.6481C28.2239 21.5093 28.0871 21.3427 27.9814 21.1559H28.3622C28.5054 21.4008 28.7164 21.5969 28.9685 21.7195C28.763 21.5686 28.5864 21.3802 28.4478 21.1638H28.782C28.9604 21.4232 29.2128 21.6201 29.5049 21.7275C29.2614 21.5828 29.0476 21.3914 28.8753 21.1638H29.2639C29.4665 21.443 29.7533 21.6466 30.0801 21.7434C29.7959 21.607 29.5459 21.4061 29.3494 21.1559L29.6603 21.1162C29.9143 21.3974 30.249 21.5892 30.6164 21.664C30.2915 21.5437 29.9967 21.3512 29.7536 21.1003H29.9479C30.1005 21.2786 30.3002 21.4082 30.5231 21.4735C30.3391 21.3737 30.1734 21.2421 30.0334 21.0845C30.3594 21.3483 30.7486 21.5182 31.1605 21.5767C30.794 21.4758 30.4523 21.2973 30.1578 21.0527L30.4998 20.9733C30.8216 21.2368 31.2153 21.3921 31.6269 21.4179C31.2538 21.3379 30.9015 21.1783 30.5931 20.9495H30.6941C30.8767 21.1108 31.1005 21.2154 31.3393 21.2512C31.1237 21.1864 30.9229 21.0784 30.7485 20.9336L30.9584 20.8701C31.3206 21.1243 31.7557 21.2473 32.1943 21.2194C31.7902 21.1821 31.3995 21.0518 31.0517 20.8384L31.3548 20.7272C31.5879 20.8783 31.8562 20.9632 32.1321 20.9733C31.8794 20.9204 31.6358 20.8295 31.4092 20.7034C31.8003 20.8796 32.2259 20.961 32.6529 20.9416C32.2714 20.9118 31.8992 20.8067 31.5569 20.632L31.9145 20.4653C32.3053 20.6313 32.7361 20.6728 33.1504 20.5843C32.7625 20.6052 32.3744 20.5486 32.0078 20.4176C32.2953 20.4867 32.5919 20.5081 32.8861 20.4811C32.623 20.4701 32.3621 20.4274 32.1088 20.3541L32.4275 20.1715C32.8243 20.3015 33.251 20.3015 33.6479 20.1715C33.2658 20.2286 32.8762 20.2016 32.5052 20.0921L32.6451 19.9969C32.8858 20.0419 33.1335 20.0283 33.368 19.9572C33.1569 19.9912 32.9418 19.9912 32.7307 19.9572L32.8239 19.8937C33.2886 19.9275 33.7534 19.8314 34.1686 19.6158C33.7662 19.7584 33.3432 19.8308 32.9172 19.8302L33.2903 19.5364C33.7943 19.461 34.265 19.2344 34.6428 18.8855C34.2669 19.1503 33.8447 19.3389 33.3991 19.4412L33.6789 19.1792C33.9942 19.0813 34.2857 18.9163 34.534 18.6949C34.2927 18.8548 34.0312 18.9804 33.7567 19.0681C34.2139 18.868 34.6147 18.5541 34.9226 18.1551C34.6397 18.4502 34.3082 18.692 33.9432 18.8696C34.1069 18.6856 34.26 18.4921 34.4018 18.2901C34.682 18.0906 34.9026 17.8158 35.0392 17.4962C34.8959 17.732 34.7146 17.9414 34.5029 18.1154C34.7269 17.773 34.9169 17.4087 35.0703 17.0278L35.0314 17.0596Z" fill="#4C6017" fill-opacity="0.5" style="mix-blend-mode:screen"/>
<path fill-rule="evenodd" clip-rule="evenodd" d="M26.2109 20.8383C29.5921 20.5048 30.9757 19.8539 32.8801 18.4567C33.5229 17.8565 34.2617 17.3732 35.0643 17.0277C35.0757 17.181 35.0757 17.3349 35.0643 17.4882C34.1594 18.9703 32.7981 20.1035 31.1943 20.7099C29.5905 21.3162 27.8348 21.3614 26.2031 20.8383H26.2109Z" fill="url(#paint18_linear_663_1768)" style="mix-blend-mode:multiply"/>
<path style="mix-blend-mode:multiply" fill-rule="evenodd" clip-rule="evenodd" d="M33.5853 10.7169C34.3626 12.6222 33.8651 15.1149 32.7147 16.9407C32.0297 18.1048 31.0724 19.0768 29.9287 19.7696C28.785 20.4624 27.4907 20.8543 26.1621 20.91C30.0486 19.2747 33.8107 16.1469 33.5853 10.7566V10.7169Z" fill="url(#paint19_radial_663_1768)"/>
<path fill-rule="evenodd" clip-rule="evenodd" d="M26.164 20.8705C28.2356 20.8433 30.2308 20.0678 31.7959 18.6815C33.361 17.2952 34.3949 15.3877 34.7143 13.2971C34.811 13.5269 34.884 13.7663 34.9319 14.0116C34.8705 14.2607 34.7622 14.4953 34.6132 14.7022C34.776 14.5949 34.9033 14.44 34.9786 14.2577C35.0844 15.6249 34.6819 16.9826 33.8515 18.0603C33.4785 18.2751 33.0593 18.3924 32.6311 18.4016C32.945 18.482 33.2734 18.482 33.5872 18.4016C32.705 19.4901 31.5381 20.3002 30.2225 20.7373C28.9068 21.1744 27.4966 21.2206 26.1562 20.8705H26.164Z" fill="url(#paint20_linear_663_1768)"/>
<path fill-rule="evenodd" clip-rule="evenodd" d="M34.7592 13.2893C34.4398 15.3798 33.4059 17.2874 31.8408 18.6737C30.2757 20.06 28.2805 20.8355 26.209 20.8627C29.8856 19.2273 31.1992 17.981 32.8393 15.6947C33.3477 14.7945 34.0021 13.9892 34.7748 13.3131L34.7592 13.2893Z" fill="url(#paint21_linear_663_1768)"/>
<g opacity="0.5">
<path fill-rule="evenodd" clip-rule="evenodd" d="M34.7611 13.2893C34.66 13.7418 34.5512 14.1625 34.4191 14.5674C34.4041 14.303 34.4041 14.0379 34.4191 13.7735C34.3711 14.0779 34.3581 14.387 34.3802 14.6944C34.2792 15.012 34.1625 15.3136 34.0304 15.6074C34.0612 14.9533 34.1575 14.3043 34.318 13.6704C34.0858 14.3638 33.9575 15.0891 33.9371 15.8217L33.8594 15.9805C33.8434 15.5697 33.859 15.1583 33.906 14.75C33.8089 15.1926 33.7722 15.6467 33.7972 16.0996C33.6832 16.3219 33.5588 16.5362 33.4241 16.7426C33.4305 16.0403 33.5087 15.3405 33.6573 14.6547C33.4409 15.3721 33.3334 16.119 33.3386 16.8696L33.2686 16.9728C33.2501 16.5515 33.2658 16.1293 33.3153 15.7106C33.2181 16.1531 33.1815 16.6073 33.2065 17.0601C33.108 17.1977 33.0044 17.3301 32.8956 17.4571C32.929 16.7411 33.0359 16.0307 33.2143 15.3375C32.9656 16.0523 32.8266 16.8021 32.8023 17.5603L32.4758 17.9175C32.4831 17.6077 32.5196 17.2993 32.5846 16.9966C32.478 17.3167 32.4178 17.651 32.4059 17.9889L32.2426 18.1557C32.3506 17.4316 32.533 16.7211 32.7867 16.0361C32.4616 16.7355 32.2465 17.483 32.1494 18.2509L31.7685 18.5923C31.8339 18.2099 31.9274 17.8331 32.0483 17.465C31.8822 17.8484 31.7622 18.2509 31.6907 18.6637L31.512 18.8066C31.7111 18.0274 31.9898 17.2717 32.3437 16.5521C31.9055 17.2893 31.5854 18.0933 31.3954 18.9336L31.0922 19.1639C31.1652 18.7826 31.2692 18.4082 31.4031 18.0445C31.2196 18.4196 31.0838 18.8171 30.999 19.2274L30.8513 19.3306C31.0404 18.6324 31.3009 17.9566 31.6286 17.3142C31.2318 17.9595 30.9355 18.6639 30.7502 19.402L30.6414 19.4735C30.7038 19.1688 30.7949 18.8711 30.9134 18.5843C30.7497 18.8797 30.6292 19.198 30.5559 19.529L30.2139 19.7354C30.3916 19.114 30.6532 18.5208 30.9912 17.9731C30.5762 18.5143 30.2722 19.1352 30.0973 19.799C30.1246 19.4284 30.2364 19.0696 30.4238 18.7511C30.1845 19.0864 30.02 19.4712 29.9418 19.8783L29.7242 19.9895C29.8377 19.5238 30.0047 19.0735 30.2217 18.6479C29.9239 19.057 29.7194 19.5289 29.6232 20.0292L29.2112 20.2038C29.3269 19.792 29.4942 19.3971 29.7086 19.0289C29.4227 19.3789 29.2205 19.792 29.1179 20.2356L28.7448 20.3705C28.8573 20.0104 29.014 19.6663 29.2112 19.3465C28.9521 19.6512 28.7588 20.0082 28.6438 20.3944C28.5038 20.442 28.3639 20.4817 28.224 20.5214C28.3298 20.2362 28.4765 19.9687 28.6593 19.7275C28.4226 19.9444 28.2412 20.2168 28.1307 20.5214C27.4908 20.6772 26.8417 20.7913 26.1875 20.8627C26.8514 20.8772 27.5146 20.8078 28.1618 20.6563C28.364 20.8531 28.6179 20.9855 28.8925 21.0374C28.6611 20.9411 28.448 20.804 28.2629 20.6325L28.6982 20.5134C28.9464 20.7311 29.2519 20.8691 29.5765 20.9104C29.2939 20.8173 29.0304 20.672 28.7992 20.4817L29.1645 20.3547C29.4575 20.5767 29.8103 20.7014 30.175 20.7119C29.8496 20.6409 29.5407 20.5061 29.2656 20.315L29.6853 20.1403C30.0134 20.3789 30.41 20.4991 30.8124 20.4817C30.4459 20.4336 30.0949 20.3005 29.7864 20.0927L30.1206 19.9339C30.5059 20.1535 30.9496 20.2425 31.3876 20.188C30.9815 20.1727 30.5836 20.067 30.2217 19.8783L30.4238 19.7672C30.6589 19.9081 30.9287 19.9769 31.2011 19.9657C30.9582 19.9252 30.7241 19.8419 30.5093 19.7196C30.97 19.8987 31.4701 19.9453 31.955 19.8545C31.5099 19.8774 31.0649 19.8043 30.6492 19.6402L30.999 19.4179C31.451 19.5936 31.9454 19.6213 32.4136 19.4973C31.9657 19.5462 31.5126 19.4974 31.0845 19.3544L31.1855 19.2829C31.4481 19.3955 31.7368 19.4286 32.0172 19.3782C31.7519 19.3864 31.4877 19.3405 31.2399 19.2433L31.4498 19.0924C31.9463 19.24 32.4767 19.2149 32.9577 19.021C32.4922 19.1298 32.0086 19.1298 31.5431 19.021L31.8384 18.7828C32.1517 18.868 32.4813 18.868 32.7945 18.7828C32.4956 18.8282 32.1918 18.8282 31.8928 18.7828C32.3935 18.8335 32.8989 18.7656 33.3697 18.5843C32.9348 18.6926 32.4835 18.7141 32.0405 18.6479L32.3825 18.3224C32.878 18.3624 33.3737 18.249 33.805 17.9969C33.3768 18.168 32.92 18.2516 32.4603 18.243C32.8083 18.2143 33.1495 18.1285 33.4708 17.9889C33.1744 18.0753 32.8692 18.1259 32.5613 18.1398L32.8567 17.8143C33.3481 17.8231 33.8296 17.673 34.2325 17.3856C33.826 17.5932 33.3808 17.7096 32.9267 17.727L33.051 17.5682C33.3311 17.5267 33.5975 17.4178 33.8283 17.2507C33.6027 17.3623 33.3614 17.4373 33.1132 17.4729L33.1987 17.3618C33.7292 17.2317 34.2153 16.9574 34.6056 16.568C34.2064 16.8745 33.7597 17.1106 33.2842 17.2666C33.393 17.1131 33.4993 16.9543 33.6029 16.7902C34.1401 16.5186 34.5865 16.0904 34.8854 15.5597C34.5585 15.9974 34.1521 16.3667 33.6884 16.6473C33.7661 16.515 33.8387 16.3827 33.906 16.2504C34.2216 16.0207 34.4864 15.7259 34.6833 15.3851C34.4807 15.6456 34.2455 15.8778 33.9838 16.0758C34.422 15.6794 34.756 15.1772 34.9554 14.615C34.744 15.0485 34.4599 15.4408 34.1159 15.7741C34.2314 15.5154 34.3326 15.2504 34.4191 14.9802C34.6624 14.6605 34.8156 14.2789 34.8621 13.8768C34.7858 14.1957 34.657 14.499 34.4813 14.7738C34.6103 14.3071 34.6936 13.8284 34.73 13.3449L34.7611 13.2893Z" fill="#4C6017" style="mix-blend-mode:screen"/>
</g>
<path fill-rule="evenodd" clip-rule="evenodd" d="M18.9762 18.3696C21.2134 18.3528 23.4469 18.5575 25.6454 18.9809C26.7414 19.2111 31.0165 20.3384 31.4518 21.4418C31.4995 21.5532 31.5242 21.6735 31.5242 21.7951C31.5242 21.9167 31.4995 22.037 31.4518 22.1484C30.6111 24.0256 29.3552 25.6778 27.783 26.9751C28.3348 26.5146 27.8995 25.816 27.3943 25.4747C26.3716 24.8918 25.2512 24.5094 24.0908 24.3474C22.402 24.0472 20.6904 23.9011 18.9762 23.9108C18.9296 22.8946 18.9062 21.9235 18.9062 20.9973C18.9062 20.0711 18.9296 19.1979 18.9762 18.3776V18.3696Z" fill="url(#paint22_radial_663_1768)"/>
<path fill-rule="evenodd" clip-rule="evenodd" d="M18.9952 18.3696C16.758 18.3527 14.5245 18.5574 12.326 18.9808C11.2301 19.211 6.95492 20.3383 6.51964 21.4418C6.47191 21.5532 6.44727 21.6735 6.44727 21.7951C6.44727 21.9167 6.47191 22.0369 6.51964 22.1483C7.36037 24.0255 8.61627 25.6778 10.1885 26.975C9.63659 26.5146 10.0719 25.816 10.5771 25.4746C11.5998 24.8917 12.7203 24.5094 13.8806 24.3473C15.5694 24.0472 17.2811 23.9011 18.9952 23.9107C19.0419 22.8946 19.0652 21.9234 19.0652 20.9972C19.0652 20.0711 19.0419 19.1978 18.9952 18.3775V18.3696Z" fill="url(#paint23_radial_663_1768)"/>
<path fill-rule="evenodd" clip-rule="evenodd" d="M9.8892 24.5931C9.62212 24.7288 9.41252 24.9591 9.29952 25.241C9.18652 25.523 9.17785 25.8373 9.27513 26.1253L9.51609 26.3634C9.49671 26.0953 9.55306 25.8272 9.67844 25.5908C9.80382 25.3544 9.99296 25.1597 10.2234 25.0298C11.309 24.4165 12.4939 24.0077 13.7213 23.8231C15.4633 23.5073 17.2298 23.3532 18.9991 23.3627C18.9991 23.188 18.9991 23.0107 18.9991 22.8308C17.1747 22.8202 15.3532 22.9823 13.558 23.315C12.2646 23.5169 11.0153 23.9467 9.86589 24.5852L9.8892 24.5931ZM6.85776 22.799C6.88508 22.5599 6.97049 22.3314 7.10624 22.1346C7.24199 21.9377 7.42378 21.7786 7.63505 21.6717C9.21031 20.8593 10.8905 20.2793 12.6253 19.949C14.7293 19.523 16.8697 19.313 19.0146 19.3219C19.0146 19.1631 19.0146 19.0044 19.0146 18.8456C16.8226 18.8349 14.6351 19.0504 12.4854 19.4886C10.69 19.838 8.95057 20.4391 7.31636 21.2748C7.13391 21.3686 6.97135 21.4982 6.83797 21.6563C6.7046 21.8143 6.60303 21.9976 6.53906 22.1957L6.6168 22.3544L6.85776 22.799Z" fill="white"/>
<path fill-rule="evenodd" clip-rule="evenodd" d="M18.9805 18.7831C17.0045 18.7779 15.0322 18.9586 13.0886 19.3229C11.42 19.6241 9.79205 20.125 8.23828 20.8154C9.79891 20.1476 11.4287 19.6629 13.0964 19.3705C15.0385 19.0171 17.0078 18.8417 18.9805 18.8466V18.7831ZM10.8889 24.0861C12.021 23.6527 13.1967 23.3492 14.3944 23.1811C15.9103 22.9535 17.4406 22.8421 18.9727 22.8476C17.4358 22.7986 15.8978 22.8969 14.3789 23.1414C13.1834 23.3159 12.0121 23.633 10.8889 24.0861Z" fill="white"/>
<path style="mix-blend-mode:screen" fill-rule="evenodd" clip-rule="evenodd" d="M10.5921 25.4425C9.91401 24.6984 9.29292 23.9022 8.73431 23.061C8.23446 22.3114 7.80753 21.5137 7.45956 20.6794C7.19721 20.8146 6.95403 20.9855 6.73668 21.1875L6.63563 21.3065C6.63187 21.3514 6.63187 21.3966 6.63563 21.4415C7.00057 22.2623 7.44866 23.042 7.97257 23.7675C8.54215 24.6286 9.21888 25.4105 9.98577 26.0935C10.1152 25.8677 10.2933 25.6749 10.5065 25.5299L10.5921 25.4425Z" fill="url(#paint24_radial_663_1768)"/>
<path fill-rule="evenodd" clip-rule="evenodd" d="M28.0981 24.5931C28.3652 24.7288 28.5748 24.9591 28.6878 25.241C28.8008 25.523 28.8095 25.8373 28.7122 26.1253L28.4712 26.3634C28.4906 26.0953 28.4342 25.8272 28.3089 25.5908C28.1835 25.3544 27.9943 25.1597 27.7639 25.0298C26.6783 24.4165 25.4934 24.0077 24.266 23.8231C22.524 23.5073 20.7575 23.3532 18.9882 23.3627C18.9882 23.188 18.9882 23.0107 18.9882 22.8308C20.8126 22.8202 22.6341 22.9823 24.4293 23.315C25.7227 23.5169 26.972 23.9467 28.1214 24.5852L28.0981 24.5931ZM31.1295 22.799C31.1022 22.5599 31.0168 22.3314 30.8811 22.1346C30.7453 21.9377 30.5635 21.7786 30.3523 21.6717C28.777 20.8593 27.0968 20.2793 25.362 19.949C23.258 19.523 21.1176 19.313 18.9727 19.3219C18.9727 19.1631 18.9727 19.0044 18.9727 18.8456C21.1647 18.8349 23.3522 19.0504 25.5019 19.4886C27.2973 19.838 29.0367 20.4391 30.6709 21.2748C30.8534 21.3686 31.016 21.4982 31.1493 21.6563C31.2827 21.8143 31.3843 21.9976 31.4482 22.1957L31.3705 22.3544L31.1295 22.799Z" fill="white"/>
<path fill-rule="evenodd" clip-rule="evenodd" d="M18.9805 18.7831C20.9565 18.7779 22.9288 18.9586 24.8724 19.3229C26.5409 19.6241 28.1689 20.125 29.7227 20.8154C28.1621 20.1475 26.5323 19.6628 24.8646 19.3705C22.9224 19.0171 20.9532 18.8417 18.9805 18.8466V18.7831ZM27.0721 24.0861C25.94 23.6527 24.7643 23.3492 23.5665 23.1811C22.0507 22.9535 20.5203 22.8421 18.9882 22.8476C20.5251 22.7986 22.0631 22.8969 23.582 23.1414C24.7775 23.3159 25.9489 23.633 27.0721 24.0861Z" fill="white"/>
<path style="mix-blend-mode:screen" fill-rule="evenodd" clip-rule="evenodd" d="M27.3672 25.4425C28.0452 24.6984 28.6663 23.9022 29.2249 23.061C29.7248 22.3114 30.1517 21.5137 30.4997 20.6794C30.7621 20.8145 31.0053 20.9854 31.2226 21.1875L31.3236 21.3065C31.3274 21.3514 31.3274 21.3966 31.3236 21.4415C30.9587 22.2623 30.5106 23.042 29.9867 23.7675C29.4171 24.6286 28.7404 25.4105 27.9735 26.0935C27.8441 25.8677 27.666 25.6749 27.4527 25.5299L27.3672 25.4425Z" fill="url(#paint25_radial_663_1768)"/>
</g>
<path d="M20.4219 6.79785V17.0205H18.1V9.12405L15.3105 9.89478V8.30427L20.172 6.79785H20.4219Z" fill="#89A628"/>
<defs>
<filter id="filter0_d_663_1768" x="0.929688" y="0" width="36.1426" height="34.0002" filterUnits="userSpaceOnUse" color-interpolation-filters="sRGB">
<feFlood flood-opacity="0" result="BackgroundImageFix"/>
<feColorMatrix in="SourceAlpha" type="matrix" values="0 0 0 0 0 0 0 0 0 0 0 0 0 0 0 0 0 0 127 0" result="hardAlpha"/>
<feOffset dy="2"/>
<feGaussianBlur stdDeviation="1"/>
<feComposite in2="hardAlpha" operator="out"/>
<feColorMatrix type="matrix" values="0 0 0 0 0 0 0 0 0 0 0 0 0 0 0 0 0 0 0.25 0"/>
<feBlend mode="normal" in2="BackgroundImageFix" result="effect1_dropShadow_663_1768"/>
<feBlend mode="normal" in="SourceGraphic" in2="effect1_dropShadow_663_1768" result="shape"/>
</filter>
<linearGradient id="paint0_linear_663_1768" x1="33.7411" y1="26.531" x2="25.6417" y2="26.531" gradientUnits="userSpaceOnUse">
<stop stop-color="#EE9843"/>
<stop offset="1" stop-color="#974715"/>
</linearGradient>
<linearGradient id="paint1_linear_663_1768" x1="4.23824" y1="26.5309" x2="12.3377" y2="26.5309" gradientUnits="userSpaceOnUse">
<stop stop-color="#EE9843"/>
<stop offset="1" stop-color="#974715"/>
</linearGradient>
<radialGradient id="paint2_radial_663_1768" cx="0" cy="0" r="1" gradientUnits="userSpaceOnUse" gradientTransform="translate(19.2556 0.185655) scale(27.4696 28.055)">
<stop stop-color="#A1BF38"/>
<stop offset="0.98" stop-color="#111102"/>
</radialGradient>
<radialGradient id="paint3_radial_663_1768" cx="0" cy="0" r="1" gradientUnits="userSpaceOnUse" gradientTransform="translate(19.0861 2.71424) scale(21.9353 22.4027)">
<stop stop-color="#ADD432"/>
<stop offset="0.74" stop-color="#86A327"/>
<stop offset="1" stop-color="#53802B"/>
</radialGradient>
<linearGradient id="paint4_linear_663_1768" x1="19.0064" y1="23.7683" x2="19.0064" y2="3.65186" gradientUnits="userSpaceOnUse">
<stop offset="0.02"/>
<stop offset="0.98" stop-color="#AFCA40"/>
</linearGradient>
<radialGradient id="paint5_radial_663_1768" cx="0" cy="0" r="1" gradientUnits="userSpaceOnUse" gradientTransform="translate(32.3736 29.365) rotate(180) scale(13.5793 13.8687)">
<stop stop-color="#F6DFEB"/>
<stop offset="0.98" stop-color="#111102"/>
</radialGradient>
<linearGradient id="paint6_linear_663_1768" x1="19.0367" y1="27.4357" x2="19.0367" y2="16.2185" gradientUnits="userSpaceOnUse">
<stop stop-color="#86A327"/>
<stop offset="1" stop-color="white"/>
</linearGradient>
<linearGradient id="paint7_linear_663_1768" x1="5.19655" y1="16.9083" x2="8.94075" y2="15.0589" gradientUnits="userSpaceOnUse">
<stop offset="0.01" stop-color="#974715" stop-opacity="0.5"/>
<stop offset="1" stop-color="#FFD7BE"/>
</linearGradient>
<linearGradient id="paint8_linear_663_1768" x1="6.29353" y1="16.3434" x2="8.93196" y2="15.0401" gradientUnits="userSpaceOnUse">
<stop stop-color="#FFCFB1" stop-opacity="0.5"/>
<stop offset="1" stop-color="#974715" stop-opacity="0.5"/>
</linearGradient>
<linearGradient id="paint9_linear_663_1768" x1="2.61894" y1="18.1596" x2="7.51871" y2="20.7912" gradientUnits="userSpaceOnUse">
<stop offset="0.01" stop-color="#974715" stop-opacity="0.5"/>
<stop offset="1" stop-color="#974715" stop-opacity="0.5"/>
</linearGradient>
<linearGradient id="paint10_linear_663_1768" x1="8.72802" y1="20.4778" x2="-0.238027" y2="15.2551" gradientUnits="userSpaceOnUse">
<stop stop-color="#53802B"/>
<stop offset="0.38" stop-color="#86A327"/>
<stop offset="1" stop-color="#ADD432"/>
</linearGradient>
<radialGradient id="paint11_radial_663_1768" cx="0" cy="0" r="1" gradientUnits="userSpaceOnUse" gradientTransform="translate(2.7851 17.0602) rotate(30.1443) scale(7.56581 7.64657)">
<stop offset="0.383217" stop-color="#F2AB7F"/>
<stop offset="1" stop-color="#974715"/>
</radialGradient>
<radialGradient id="paint12_radial_663_1768" cx="0" cy="0" r="1" gradientUnits="userSpaceOnUse" gradientTransform="translate(5.72689 6.69558) rotate(-27.2589) scale(13.3419 13.5082)">
<stop offset="0.44" stop-color="white"/>
<stop offset="1" stop-color="#6A9122"/>
</radialGradient>
<linearGradient id="paint13_linear_663_1768" x1="4.34312" y1="18.7185" x2="9.12341" y2="19.9109" gradientUnits="userSpaceOnUse">
<stop offset="0.01" stop-color="#974715" stop-opacity="0.5"/>
<stop offset="1" stop-color="#974715"/>
</linearGradient>
<linearGradient id="paint14_linear_663_1768" x1="3.21875" y1="14.7549" x2="7.07954" y2="18.852" gradientUnits="userSpaceOnUse">
<stop stop-color="#F2AB7F" stop-opacity="0.5"/>
<stop offset="1" stop-color="#974715" stop-opacity="0.5"/>
</linearGradient>
<linearGradient id="paint15_linear_663_1768" x1="33.8074" y1="16.3501" x2="30.0749" y2="14.5023" gradientUnits="userSpaceOnUse">
<stop offset="0.01" stop-color="#974715"/>
<stop offset="1" stop-color="#FFCFB1" stop-opacity="0.5"/>
</linearGradient>
<linearGradient id="paint16_linear_663_1768" x1="32.7143" y1="15.7857" x2="30.0841" y2="14.4835" gradientUnits="userSpaceOnUse">
<stop stop-color="#FFCFB1" stop-opacity="0.5"/>
<stop offset="1" stop-color="#974715" stop-opacity="0.5"/>
</linearGradient>
<linearGradient id="paint17_linear_663_1768" x1="34.8156" y1="20.072" x2="28.7948" y2="17.0913" gradientUnits="userSpaceOnUse">
<stop offset="0.01" stop-color="#974715"/>
<stop offset="1" stop-color="#FFBF97"/>
</linearGradient>
<linearGradient id="paint18_linear_663_1768" x1="35.073" y1="17.3434" x2="31.1765" y2="20.3456" gradientUnits="userSpaceOnUse">
<stop stop-color="#FFBF97"/>
<stop offset="0.780475" stop-color="#974715"/>
</linearGradient>
<radialGradient id="paint19_radial_663_1768" cx="0" cy="0" r="1" gradientUnits="userSpaceOnUse" gradientTransform="translate(33.2904 6.1645) rotate(-152.688) scale(13.306 13.4714)">
<stop offset="0.44" stop-color="white"/>
<stop offset="1" stop-color="#6A9122"/>
</radialGradient>
<linearGradient id="paint20_linear_663_1768" x1="30.8149" y1="20.0187" x2="34.2777" y2="14.9073" gradientUnits="userSpaceOnUse">
<stop offset="0.01" stop-color="#974715"/>
<stop offset="1" stop-color="#FFCFB1" stop-opacity="0.5"/>
</linearGradient>
<linearGradient id="paint21_linear_663_1768" x1="34.5485" y1="14.063" x2="27.9024" y2="19.8792" gradientUnits="userSpaceOnUse">
<stop stop-color="#FFCFB1" stop-opacity="0.5"/>
<stop offset="1" stop-color="#974715"/>
</linearGradient>
<radialGradient id="paint22_radial_663_1768" cx="0" cy="0" r="1" gradientUnits="userSpaceOnUse" gradientTransform="translate(32.7411 16.385) rotate(180) scale(11.015 11.2497)">
<stop stop-color="#974715"/>
<stop offset="1" stop-color="#EE9843"/>
</radialGradient>
<radialGradient id="paint23_radial_663_1768" cx="0" cy="0" r="1" gradientUnits="userSpaceOnUse" gradientTransform="translate(6.44727 16.3849) scale(12.6177 12.8866)">
<stop stop-color="#974715"/>
<stop offset="0.717939" stop-color="#EE9843"/>
</radialGradient>
<radialGradient id="paint24_radial_663_1768" cx="0" cy="0" r="1" gradientUnits="userSpaceOnUse" gradientTransform="translate(7.48288 19.4568) scale(8.79121 8.97857)">
<stop stop-color="#E8A2D6"/>
<stop offset="1"/>
</radialGradient>
<radialGradient id="paint25_radial_663_1768" cx="0" cy="0" r="1" gradientUnits="userSpaceOnUse" gradientTransform="translate(30.4919 19.4568) rotate(180) scale(8.79121 8.97857)">
<stop stop-color="#E8A2D6"/>
<stop offset="1"/>
</radialGradient>
</defs>
</svg>
