<svg width="297" height="60" viewBox="0 0 297 60" fill="none" xmlns="http://www.w3.org/2000/svg">
<g clip-path="url(#clip0_622_74)">
<path d="M18.1659 25.2113L29.7027 13.5629L41.2441 25.2208L47.9532 18.4393L29.7027 0L11.4521 18.4346L18.1659 25.2113Z" fill="#53599A"/>
<path d="M-0.00244141 30.001L6.70885 23.2221L13.4201 30.001L6.70885 36.78L-0.00244141 30.001Z" fill="#53599A"/>
<path d="M18.166 34.7887L29.7028 46.4418L41.2442 34.784L47.958 41.556L47.9533 41.5607L29.7028 60L11.4523 41.5702L11.4429 41.5607L18.166 34.7887Z" fill="#53599A"/>
<path d="M45.9736 30.0027L52.6849 23.2237L59.3962 30.0027L52.6849 36.7817L45.9736 30.0027Z" fill="#53599A"/>
<path d="M36.5103 29.9976L29.7027 23.1166L24.6686 28.2015L24.0868 28.7844L22.8951 29.9881L22.8857 29.9976L22.8951 30.0118L29.7027 36.8833L36.5103 30.0024L36.515 29.9976H36.5103Z" fill="#53599A"/>
<path d="M69.8682 14.5391H84.4686C88.0905 14.5391 90.8304 15.4869 92.6883 17.3825C93.3883 18.0827 93.9401 18.9193 94.3103 19.8414C94.6805 20.7636 94.8613 21.7521 94.8418 22.747V22.837C94.8544 23.6521 94.742 24.4641 94.5087 25.2444C94.3008 25.9162 93.9991 26.5545 93.6126 27.14C93.2523 27.6922 92.8163 28.19 92.3177 28.6186C91.8305 29.0421 91.2969 29.4078 90.7272 29.7085C92.37 30.2865 93.8473 31.2629 95.0295 32.5519C96.0741 33.7525 96.5965 35.4111 96.5965 37.5278V37.6179C96.6262 38.9398 96.3414 40.2497 95.7661 41.4375C95.2086 42.5319 94.3913 43.4697 93.3874 44.1671C92.2524 44.9357 90.9886 45.4897 89.6575 45.8021C88.0761 46.1809 86.455 46.3639 84.8298 46.347H69.8682V14.5391ZM83.0048 27.4007C84.268 27.4623 85.525 27.1878 86.6502 26.6045C87.089 26.3456 87.4472 25.9678 87.6844 25.5139C87.9215 25.0599 88.0281 24.548 87.992 24.036V23.946C88.0152 23.4742 87.9204 23.0042 87.7162 22.5793C87.512 22.1544 87.2051 21.7883 86.8238 21.5149C86.045 20.9557 84.9205 20.6761 83.4505 20.6761H76.6194V27.4007H83.0048ZM84.8486 40.2196C86.1071 40.2908 87.3598 39.9999 88.4612 39.3808C88.8902 39.1023 89.2375 38.7128 89.4669 38.2527C89.6963 37.7926 89.7994 37.2788 89.7654 36.7649V36.6748C89.7823 36.1863 89.6804 35.701 89.4686 35.2615C89.2567 34.8219 88.9414 34.4416 88.5503 34.1537C87.7433 33.5218 86.4391 33.2059 84.6375 33.2059H76.6194V40.2196H84.8486Z" fill="#53599A"/>
<path d="M105.295 14.5391H112.224V46.3565H105.295V14.5391Z" fill="#53599A"/>
<path d="M122.71 14.5391H129.1L143.869 34.1205V14.5391H150.71V46.3565H144.812L129.56 26.1306V46.3565H122.71V14.5391Z" fill="#53599A"/>
<path d="M171.691 14.3116H178.072L191.57 46.3565H184.335L181.454 39.2196H168.135L165.254 46.3565H158.188L171.691 14.3116ZM178.982 33.04L174.788 22.7186L170.612 33.04H178.982Z" fill="#53599A"/>
<path d="M199.062 14.5391H205.453L220.212 34.1205V14.5391H227.053V46.3565H221.155L205.903 26.1306V46.3565H199.062V14.5391Z" fill="#53599A"/>
<path d="M251.994 46.9157C249.785 46.9348 247.596 46.5028 245.557 45.6457C243.637 44.8451 241.896 43.6645 240.435 42.1734C238.974 40.6824 237.823 38.9111 237.051 36.9639C236.236 34.9271 235.823 32.7489 235.836 30.5521V30.462C235.799 26.1317 237.449 21.9603 240.429 18.8468C241.895 17.326 243.65 16.1203 245.589 15.3021C247.699 14.4195 249.964 13.9794 252.247 14.0084C253.597 13.9982 254.945 14.1204 256.272 14.3733C257.408 14.5901 258.518 14.9252 259.585 15.3732C260.553 15.7848 261.473 16.3029 262.329 16.9181C263.165 17.5181 263.949 18.187 264.675 18.9179L260.27 24.055C259.144 23.0059 257.881 22.1178 256.516 21.4154C255.176 20.7678 253.705 20.4434 252.219 20.4676C250.982 20.4542 249.757 20.7068 248.625 21.2085C247.492 21.7102 246.478 22.4495 245.65 23.3773C244.83 24.3028 244.187 25.3747 243.755 26.5382C243.303 27.7677 243.076 29.0699 243.084 30.3815V30.4715C243.08 31.7812 243.307 33.0811 243.755 34.3101C244.181 35.4777 244.818 36.5558 245.632 37.4899C246.453 38.4293 247.464 39.1794 248.598 39.6896C249.731 40.1998 250.959 40.4581 252.2 40.447C253.78 40.4973 255.348 40.1539 256.765 39.4471C258.114 38.7043 259.362 37.7867 260.476 36.7175L264.886 41.2195C264.108 42.0732 263.265 42.8653 262.367 43.589C261.484 44.2939 260.526 44.8964 259.51 45.385C258.427 45.8998 257.286 46.2801 256.113 46.5176C254.757 46.7922 253.377 46.9256 251.994 46.9157V46.9157Z" fill="#53599A"/>
<path d="M273.063 14.5391H296.77V20.7661H279.88V27.2206H294.753V33.4476H279.904V40.1295H297.005V46.3565H273.078L273.063 14.5391Z" fill="#53599A"/>
</g>
<defs>
<clipPath id="clip0_622_74">
<rect width="297" height="60" fill="white"/>
</clipPath>
</defs>
</svg>
