<svg width="278" height="76" viewBox="0 0 278 76" fill="none" xmlns="http://www.w3.org/2000/svg">
<path d="M277.93 40.6207C273.559 40.6207 269.241 40.6819 264.896 40.7867C264.021 40.7867 262.623 40.2364 262.36 41.6603C262.159 42.7085 263.104 43.486 263.995 44.0014C265.108 44.6954 266.383 45.0871 267.694 45.1377C269.005 45.1882 270.307 44.896 271.47 44.2897C273.568 43.2327 275.063 44.1499 275.753 45.7224C276.698 47.8801 274.337 48.0984 273.131 48.6225C264.66 52.3002 256.678 47.2598 256.888 38.4543C257.001 33.772 259.423 30.3826 263.645 28.9849C268.471 27.395 273.349 28.749 276.225 32.3481C276.82 33.0906 276.741 34.3398 277.974 34.6106L277.93 40.6207ZM261.871 36.7683C265.368 36.7683 268.069 36.7683 270.779 36.7683C271.478 36.7683 272.449 36.8557 272.528 35.9908C272.474 35.2921 272.163 34.6381 271.653 34.1563C269.319 31.7104 265.105 32.5839 261.871 36.7246V36.7683Z" fill="#53599A"/>
<path d="M74.9988 38.3931C74.9988 57.9522 58.6423 74.2092 38.8763 74.2092C19.1103 74.2092 2.4828 57.6901 2.70135 38.3931C2.91116 18.8078 19.5562 2.51586 39.1473 2.70804C58.7384 2.90023 74.9813 19.1136 74.9988 38.3931ZM49.1046 23.3503C50.5208 19.8561 49.2882 17.8906 45.8001 17.5848C43.2998 17.3664 42.583 16.2308 42.8452 13.977C42.9589 12.9899 42.8452 11.9765 42.8452 10.9719C42.8452 9.74022 42.3644 9.12873 41.0531 9.11999C39.7418 9.11126 39.2173 9.66161 39.2522 10.9283C39.2872 12.1949 39.2522 13.217 39.2522 14.3701C39.2522 15.5232 39.3309 16.8773 37.6699 16.8423C36.0089 16.8074 36.8744 15.3572 36.682 14.5361C36.5509 13.9945 36.7695 13.3655 36.6296 12.789C36.2974 11.4874 37.7398 9.2947 35.0298 9.13746C32.04 8.97148 32.8442 11.365 32.9754 12.8239C33.2901 16.1696 32.2498 17.9954 28.9889 19.7338C20.7276 24.154 17.834 31.7628 18.4284 40.6993C18.9617 48.9021 22.5023 55.2791 30.545 58.4327C32.3896 59.1577 33.0628 60.0837 32.9229 61.9269C32.853 62.9315 32.9229 63.9361 32.9229 64.9407C32.9229 66.2336 32.7655 67.5614 34.7588 67.6749C36.752 67.7885 36.6733 66.4519 36.6645 65.1154C36.6645 63.971 36.6645 62.8179 36.6645 61.6735C36.6645 60.8961 36.4023 59.7954 37.6699 59.6906C39.1124 59.5683 39.226 60.6428 39.2347 61.7085C39.1646 62.4231 39.1646 63.1428 39.2347 63.8574C39.5582 65.2552 38.0546 67.7536 41.158 67.6138C43.7807 67.5003 42.7666 65.2639 42.7316 63.9623C42.6616 61.1931 42.784 58.9218 46.3771 58.5112C48.6413 58.2579 50.3985 56.834 49.4368 54.4142C48.3091 51.5926 46.4208 54.2395 45.2231 54.5715C34.7325 57.4455 25.9904 53.1127 23.7961 43.6345C20.9724 31.4046 28.2634 21.3761 39.8467 21.4023C43.1512 21.446 46.0623 22.7039 49.1046 23.3503ZM47.8632 31.7103C47.4349 29.6662 49.0347 27.526 46.0274 26.4689C40.6947 24.5384 32.7218 26.4689 29.3736 30.8368C27.7203 32.8492 26.6921 35.3009 26.4156 37.8898C26.1391 40.4788 26.6264 43.0921 27.8175 45.4078C30.0817 50.2823 34.4178 51.8809 39.5757 51.9246C47.6709 51.9857 48.956 50.9724 48.956 44.211C48.956 36.5149 48.956 36.5499 40.7209 37.1439C39.2522 37.2487 38.2294 37.3361 38.2993 39.2055C38.3518 40.6818 38.5179 41.8262 40.3887 41.5554C43.2386 41.1623 43.396 42.9094 43.2823 44.9798C43.1512 47.3908 41.3328 47.1375 39.7855 47.12C35.1347 47.0588 32.276 43.8004 32.3984 38.8648C32.5208 33.6234 36.175 30.1292 41.3154 30.4961C43.518 30.7662 45.7018 31.1718 47.8545 31.7103H47.8632Z" fill="#53599A"/>
<path d="M201.025 23.7958C199.417 26.7572 197.59 27.0804 194.416 25.4207C192.45 24.4331 190.197 24.1747 188.059 24.6914C185.92 25.2081 184.034 26.4664 182.737 28.2423C181.341 30.0854 180.57 32.3251 180.536 34.6359C180.501 36.9467 181.205 39.2084 182.544 41.0924C184.931 44.1935 189.94 45.3991 194.005 44.0276C196.479 43.154 197.222 41.6166 197.083 39.1182C196.908 36.0432 194.696 37.4147 193.271 37.1788C191.846 36.943 189.774 37.8515 189.774 34.8814C189.774 31.7627 191.767 32.3393 193.568 32.3043C202.249 32.1471 202.074 32.1559 202.31 40.7342C202.407 44.1149 201.086 46.028 198.315 47.5917C191.741 51.2956 182.002 49.5485 177.911 43.7917C173.435 37.5108 174.711 27.5696 180.621 22.634C186.531 17.6984 195.255 18.2662 201.025 23.7958Z" fill="#53599A"/>
<path d="M231.605 42.857C231.605 39.1269 231.544 35.4055 231.605 31.6754C231.667 28.3384 233.467 27.3075 236.125 29.4652C237.401 30.5048 237.873 30.1379 238.931 29.6575C243.617 27.5172 248.18 28.3558 251.17 31.754C254.029 35.0036 254.562 40.8478 252.35 44.6828C251.242 46.667 249.466 48.1946 247.337 48.9942C245.209 49.7939 242.865 49.8138 240.723 49.0506C236.108 47.3034 236.44 49.6184 236.615 52.5448C236.667 53.4184 236.615 54.2919 236.615 55.1655C236.676 57.1398 235.286 56.9126 233.992 57.0175C232.427 57.1048 231.553 56.7292 231.597 54.9296C231.675 50.8763 231.605 46.8666 231.605 42.857ZM248.696 39.1356C248.705 37.6241 248.122 36.1691 247.072 35.0812C246.021 33.9934 244.587 33.359 243.075 33.3134C241.563 33.2678 240.093 33.8146 238.979 34.8371C237.865 35.8597 237.195 37.2769 237.113 38.7862C237.104 40.2977 237.687 41.7527 238.737 42.8406C239.788 43.9284 241.222 44.5628 242.734 44.6084C244.246 44.654 245.716 44.1072 246.83 43.0846C247.944 42.0621 248.614 40.6449 248.696 39.1356Z" fill="#53599A"/>
<path d="M104.976 19.8299C107.95 19.7405 110.866 20.6647 113.246 22.4506C114.076 23.0271 115.798 23.5425 114.557 24.9665C113.683 26.006 112.896 27.9453 110.78 26.9145C110.133 26.6 109.522 26.1982 108.857 25.9274C104.486 24.1802 99.6342 25.2023 96.9503 28.4432C94.2665 31.6841 94.1354 37.4759 96.6531 40.9352C99.0397 44.1936 104.049 45.4777 108.455 43.8703C109.39 43.5296 110.203 42.8133 111.13 42.4726C113.202 41.7301 113.954 43.5995 114.854 44.7002C116.026 46.1241 114.312 46.6483 113.499 47.2161C108.455 50.7103 100.063 50.5793 95.0358 46.9278C90.0091 43.2763 87.9984 35.9296 90.2538 29.4565C92.352 23.3503 97.6672 19.8212 104.976 19.8299Z" fill="#53599A"/>
<path d="M227.444 38.9959C227.444 41.4331 227.444 43.8791 227.444 46.3164C227.392 49.0943 225.189 50.5531 223.135 48.7448C221.57 47.3559 220.923 48.0198 219.699 48.5701C215.188 50.6055 209.838 49.4 207.198 45.8184C204.339 41.9398 204.496 35.2745 207.521 31.7104C210.432 28.2773 215.896 27.3425 220.206 29.5177C220.966 29.9108 221.622 31.6143 222.575 29.4041C223.257 27.8405 225.198 28.5306 226.492 28.7839C228.074 29.1072 227.366 30.6709 227.427 31.6929C227.506 34.1214 227.444 36.5587 227.444 38.9959ZM222.199 38.9959C222.229 37.4089 221.627 35.8749 220.526 34.7314C219.424 33.5879 217.913 32.9285 216.324 32.8984C214.736 32.8683 213.201 33.4699 212.057 34.5708C210.912 35.6717 210.253 37.1817 210.222 38.7688C210.164 39.5912 210.282 40.4166 210.567 41.1901C210.853 41.9636 211.3 42.6675 211.879 43.255C212.458 43.8425 213.155 44.3002 213.924 44.5976C214.694 44.8949 215.518 45.0252 216.342 44.9798C217.131 45.016 217.919 44.8852 218.655 44.5961C219.39 44.3069 220.056 43.8659 220.609 43.3019C221.161 42.7378 221.589 42.0635 221.863 41.323C222.137 40.5825 222.252 39.7925 222.199 39.0046V38.9959Z" fill="#53599A"/>
<path d="M127.574 49.4699C121.314 49.4087 117.083 45.1021 117.153 38.8037C117.223 32.5053 121.725 28.4083 127.976 28.4869C129.38 28.4694 130.773 28.7371 132.07 29.2737C133.368 29.8103 134.543 30.6047 135.524 31.6086C136.505 32.6125 137.271 33.8051 137.777 35.114C138.283 36.4229 138.517 37.8208 138.466 39.223C138.353 45.3816 133.947 49.5223 127.574 49.4699ZM133.317 39.2055C133.396 36.0258 130.878 33.143 127.906 33.0033C124.934 32.8635 122.32 35.423 122.18 38.8124C122.04 42.2018 124.33 44.7701 127.53 44.8575C128.288 44.8911 129.045 44.769 129.753 44.4986C130.462 44.2282 131.108 43.8152 131.65 43.2854C132.193 42.7555 132.621 42.1201 132.907 41.4183C133.194 40.7165 133.334 39.9634 133.317 39.2055V39.2055Z" fill="#53599A"/>
<path d="M171.556 42.1319C171.556 43.7044 171.46 45.2943 171.556 46.858C171.696 48.8322 170.682 49.234 168.933 49.2515C167.001 49.2515 166.415 48.5352 166.477 46.7182C166.564 43.8529 166.477 40.9876 166.433 38.1136C166.363 35.0648 164.728 33.1255 161.686 33.0731C158.644 33.0207 156.825 34.8814 156.607 37.869C156.42 40.7304 156.382 43.5995 156.493 46.4648C156.554 48.4216 156.021 49.3126 153.87 49.2777C151.921 49.2777 151.405 48.5527 151.431 46.7444C151.519 41.5816 151.571 36.4188 151.431 31.2648C151.344 27.8404 154.797 27.9715 155.234 28.9149C156.703 32.0685 158.005 29.9283 159.395 29.3605C165.043 27.0455 170.638 30.3127 171.46 36.5412C171.582 38.4028 171.582 40.2704 171.46 42.1319H171.556Z" fill="#53599A"/>
<path d="M147.06 39.1007C147.06 41.5292 146.982 43.9664 147.06 46.3861C147.156 48.4303 146.361 49.1379 144.289 49.1379C142.217 49.1379 141.867 48.2643 141.885 46.5172C141.946 41.3719 141.955 36.2266 141.885 31.0814C141.885 29.2818 142.436 28.5131 144.359 28.5655C146.107 28.5655 147.113 28.976 147.051 30.9328C147.016 33.6321 147.06 36.3839 147.06 39.1007Z" fill="#53599A"/>
<path d="M147.27 23.6037C147.229 23.9864 147.106 24.3558 146.91 24.6873C146.715 25.0187 146.45 25.3045 146.135 25.5254C145.819 25.7463 145.46 25.8972 145.081 25.968C144.703 26.0389 144.313 26.028 143.939 25.9361C142.06 25.6391 141.317 24.2851 141.588 22.503C141.623 22.1443 141.732 21.7968 141.908 21.4823C142.084 21.1677 142.324 20.8927 142.611 20.6747C142.898 20.4566 143.227 20.3 143.577 20.2148C143.928 20.1296 144.292 20.1175 144.647 20.1793C146.475 20.3977 147.419 21.5508 147.27 23.6037Z" fill="#53599A"/>
<path d="M261.871 36.7246C265.105 32.5839 269.319 31.7103 271.627 34.1039C272.136 34.5857 272.448 35.2396 272.501 35.9384C272.422 36.812 271.452 36.7159 270.753 36.7159C268.069 36.7333 265.359 36.7246 261.871 36.7246Z" fill="#F4F8FF"/>
<path d="M248.696 39.1356C248.614 40.6449 247.944 42.0621 246.83 43.0847C245.716 44.1072 244.246 44.654 242.734 44.6084C241.222 44.5628 239.788 43.9284 238.737 42.8406C237.687 41.7527 237.104 40.2977 237.113 38.7862C237.195 37.2769 237.865 35.8597 238.979 34.8371C240.093 33.8146 241.563 33.2678 243.075 33.3134C244.587 33.359 246.021 33.9934 247.072 35.0812C248.122 36.1691 248.705 37.6241 248.696 39.1356V39.1356Z" fill="#F4F8FF"/>
<path d="M222.199 39.0046C222.253 39.7931 222.139 40.5841 221.866 41.3256C221.592 42.0672 221.165 42.7426 220.612 43.3076C220.059 43.8726 219.392 44.3144 218.656 44.6041C217.92 44.8938 217.132 45.0248 216.342 44.9885C215.518 45.0339 214.694 44.9036 213.924 44.6062C213.155 44.3089 212.457 43.8512 211.878 43.2637C211.299 42.6762 210.852 41.9722 210.567 41.1987C210.281 40.4252 210.164 39.5999 210.222 38.7775C210.252 37.1904 210.912 35.6804 212.056 34.5795C213.201 33.4786 214.736 32.877 216.324 32.9071C217.912 32.9372 219.424 33.5966 220.525 34.7401C221.627 35.8836 222.229 37.4176 222.199 39.0046V39.0046Z" fill="#F4F8FF"/>
<path d="M133.318 39.2055C133.334 39.9634 133.194 40.7165 132.908 41.4183C132.621 42.1201 132.193 42.7555 131.65 43.2854C131.108 43.8152 130.462 44.2282 129.754 44.4986C129.045 44.769 128.288 44.8911 127.53 44.8575C124.331 44.7701 122.049 42.1931 122.18 38.8124C122.311 35.4317 124.855 32.8635 127.906 33.0032C130.957 33.143 133.396 36.0258 133.318 39.2055Z" fill="#F4F8FF"/>
<circle cx="38.5" cy="38.5" r="32.5" fill="#53599A"/>
<path fill-rule="evenodd" clip-rule="evenodd" d="M32.0002 9H37.0002V17.2055C37.6624 17.1143 38.3297 17.0532 39.0002 17.0227V9H44.0002V17.3667C46.4536 17.8204 48.822 18.69 51 19.9474L48.6334 24.0465C45.9913 22.521 42.9921 21.7229 39.9412 21.7333C36.8903 21.7437 33.8967 22.5622 31.265 24.1056C28.6333 25.649 26.4575 27.8621 24.9591 30.5197C23.4607 33.1773 22.6932 36.1845 22.7348 39.2351C22.7763 42.2857 23.6254 45.2709 25.1956 47.8867C26.7658 50.5025 29.001 52.6555 31.6738 54.1267C34.3466 55.5979 37.3614 56.3346 40.4114 56.2619C43.4614 56.1892 46.4378 55.3097 49.0374 53.7129L51.5147 57.746C49.2003 59.1676 46.6516 60.143 44.0002 60.6333V68H39.0002V60.9773C38.3299 60.9468 37.6626 60.8857 37.0002 60.7945V68H32.0002V59.494C31.1077 59.1456 30.2362 58.7382 29.3914 58.2732C25.986 56.3988 23.138 53.6555 21.1374 50.3227C19.1368 46.9898 18.055 43.1864 18.002 39.2995C17.9491 35.4127 18.927 31.5812 20.8361 28.1951C22.7452 24.809 25.5174 21.9892 28.8705 20.0228C29.8758 19.4332 30.9225 18.9267 32.0002 18.506V9Z" fill="#F4F8FF"/>
<path fill-rule="evenodd" clip-rule="evenodd" d="M46.7352 26.8958C44.6248 25.6773 42.2293 25.0398 39.7925 25.0481C37.3556 25.0564 34.9645 25.7102 32.8625 26.943C30.7605 28.1757 29.0226 29.9434 27.8258 32.0662C26.629 34.1889 26.0159 36.5908 26.0491 39.0274C26.0823 41.464 26.7605 43.8483 28.0147 45.9377C29.2688 48.027 31.0542 49.7467 33.189 50.9218C35.3238 52.0969 37.7319 52.6853 40.168 52.6273C42.3479 52.5753 44.8344 51.9343 46.821 50.8863C48.0788 50.5292 49 49.3722 49 48V40C49 38.4709 47.856 37.209 46.3773 37.0235C46.2536 37.008 46.1276 37 45.9998 37H37.9998V43H43V46.1746C42.0639 46.5779 41.0558 46.7998 40.0297 46.8243C38.6189 46.8579 37.2244 46.5171 35.9881 45.8366C34.7517 45.1561 33.7178 44.1602 32.9915 42.9502C32.2652 41.7402 31.8725 40.3594 31.8532 38.9484C31.834 37.5373 32.189 36.1463 32.8821 34.917C33.5752 33.6877 34.5816 32.664 35.799 31.9501C37.0163 31.2362 38.401 30.8575 39.8122 30.8527C41.2234 30.8479 42.6107 31.2171 43.8329 31.9227L46.7352 26.8958Z" fill="#F4F8FF"/>
</svg>
