<svg width="85" height="98" viewBox="0 0 85 98" fill="none" xmlns="http://www.w3.org/2000/svg">
<path d="M68.8117 84.5387L52.6579 83.9572L51.0425 85.1202V78.0771H60.7348L68.8117 84.5387Z" fill="#3B4185"/>
<path d="M17.1196 84.5387L33.2735 83.9572L34.8889 85.1202V78.0771H25.1966L17.1196 84.5387Z" fill="#3B4185"/>
<path d="M73.658 52.2314H70.4272V55.4622H73.658V52.2314Z" fill="#2486FC"/>
<path d="M72.0427 32.8468C71.6142 32.8468 71.2034 32.6765 70.9004 32.3736C70.5975 32.0707 70.4273 31.6598 70.4273 31.2314C70.4273 23.9481 67.534 16.9632 62.384 11.8131C57.2339 6.6631 50.249 3.76983 42.9657 3.76983C35.6825 3.76983 28.6975 6.6631 23.5475 11.8131C18.3975 16.9632 15.5042 23.9481 15.5042 31.2314C15.5042 31.6598 15.334 32.0707 15.0311 32.3736C14.7281 32.6765 14.3172 32.8468 13.8888 32.8468C13.4604 32.8468 13.0495 32.6765 12.7466 32.3736C12.4436 32.0707 12.2734 31.6598 12.2734 31.2314C12.2734 23.0913 15.5071 15.2846 21.263 9.52863C27.0189 3.77271 34.8256 0.539062 42.9657 0.539062C51.1059 0.539062 58.9126 3.77271 64.6685 9.52863C70.4244 15.2846 73.6581 23.0913 73.6581 31.2314C73.6581 31.6598 73.4879 32.0707 73.1849 32.3736C72.882 32.6765 72.4711 32.8468 72.0427 32.8468Z" fill="#53599A"/>
<path d="M51.9635 70.4039C51.7466 70.254 51.4962 70.1593 51.2344 70.1284C50.9725 70.0974 50.707 70.131 50.4611 70.2263C45.6344 72.0705 40.2971 72.0705 35.4704 70.2263C35.2245 70.131 34.959 70.0974 34.6971 70.1284C34.4353 70.1593 34.1849 70.254 33.968 70.4039C33.7541 70.5524 33.5792 70.7504 33.4582 70.981C33.3373 71.2117 33.2739 71.4681 33.2734 71.7286V88.3508C33.2728 88.6057 33.3325 88.8572 33.4476 89.0846C33.5627 89.312 33.73 89.509 33.9358 89.6593L42.0127 95.5393C42.2893 95.7415 42.6231 95.8504 42.9658 95.8504C43.3084 95.8504 43.6422 95.7415 43.9188 95.5393L51.9957 89.6593C52.2015 89.509 52.3688 89.312 52.4839 89.0846C52.599 88.8572 52.6587 88.6057 52.6581 88.3508V71.7286C52.6576 71.4681 52.5942 71.2117 52.4733 70.981C52.3523 70.7504 52.1774 70.5524 51.9635 70.4039Z" fill="#E5C3B7"/>
<path d="M75.2736 29.6162H65.5813C65.1529 29.6162 64.742 29.7864 64.439 30.0894C64.1361 30.3923 63.9659 30.8032 63.9659 31.2316V50.6162C63.9679 51.6215 63.8977 52.6256 63.7559 53.6208C63.7235 53.8514 63.7415 54.0863 63.8084 54.3094C63.8753 54.5324 63.9896 54.7384 64.1436 54.9131C64.295 55.0855 64.4813 55.2236 64.6902 55.3183C64.8991 55.413 65.1258 55.4621 65.3551 55.4624H75.2736C76.5589 55.4624 77.7915 54.9518 78.7003 54.0429C79.6092 53.1341 80.1197 51.9015 80.1197 50.6162V34.4624C80.1197 33.1771 79.6092 31.9445 78.7003 31.0356C77.7915 30.1268 76.5589 29.6162 75.2736 29.6162Z" fill="#666EC6"/>
<path d="M21.9659 31.2316C21.9659 30.8032 21.7957 30.3923 21.4927 30.0894C21.1898 29.7864 20.7789 29.6162 20.3505 29.6162H10.6582C9.37289 29.6162 8.14024 30.1268 7.23141 31.0356C6.32258 31.9445 5.81201 33.1771 5.81201 34.4624V50.6162C5.81201 51.9015 6.32258 53.1341 7.23141 54.0429C8.14024 54.9518 9.37289 55.4624 10.6582 55.4624H20.5766C20.806 55.4621 21.0327 55.413 21.2416 55.3183C21.4505 55.2236 21.6368 55.0855 21.7882 54.9131C21.9421 54.7384 22.0565 54.5324 22.1234 54.3094C22.1903 54.0863 22.2082 53.8514 22.1759 53.6208C22.034 52.6256 21.9639 51.6215 21.9659 50.6162V31.2316Z" fill="#666EC6"/>
<path d="M51.6081 24.7691C51.0266 24.1715 50.6873 23.7514 50.6873 23.7514C50.5517 23.5868 50.3848 23.4506 50.1963 23.3508C50.0077 23.251 49.8013 23.1895 49.5889 23.1699C49.1643 23.128 48.7404 23.2558 48.4096 23.5253C48.4096 23.5253 47.7473 24.0261 46.552 24.7691H25.1966C23.4829 24.7691 21.8393 25.4499 20.6276 26.6617C19.4158 27.8735 18.735 29.517 18.735 31.2307V49.9207C18.6627 56.2293 21.0072 62.3264 25.2876 66.9613C29.568 71.5962 35.4598 74.4174 41.7543 74.8461C45.0367 75.0104 48.3184 74.5052 51.3995 73.3613C54.4806 72.2174 57.2967 70.4586 59.6767 68.192C62.0566 65.9254 63.9506 63.1983 65.2434 60.1766C66.5361 57.155 67.2007 53.9019 67.1966 50.6153V31.2307C67.1966 29.517 66.5158 27.8735 65.304 26.6617C64.0923 25.4499 62.4487 24.7691 60.735 24.7691H51.6081Z" fill="#F2DBD1"/>
<path d="M84.9658 90.5802V95.8464C84.9658 96.2748 84.7956 96.6857 84.4927 96.9886C84.1897 97.2915 83.7789 97.4618 83.3504 97.4618H2.5812C2.15278 97.4618 1.7419 97.2915 1.43895 96.9886C1.13601 96.6857 0.96582 96.2748 0.96582 95.8464V90.5802C0.968245 90.2355 1.08086 89.9006 1.28722 89.6245C1.49357 89.3484 1.78286 89.1456 2.11275 89.0456L17.1197 84.5387L25.1966 78.0771L42.9658 91.0002L60.7351 78.0771L68.812 84.5387L83.8189 89.0456C84.1488 89.1456 84.4381 89.3484 84.6444 89.6245C84.8508 89.9006 84.9634 90.2355 84.9658 90.5802Z" fill="#666EC6"/>
<path d="M60.7351 78.0771L42.9658 91.0002L50.0735 96.6864C50.356 96.9038 50.7024 97.0217 51.0589 97.0217C51.4154 97.0217 51.7618 96.9038 52.0443 96.6864L68.812 84.5387L60.7351 78.0771Z" fill="#53599A"/>
<path d="M67.1968 31.2317V34.4625C60.7913 34.1961 54.6672 31.7578 49.8314 27.5487L49.2014 26.9186C48.8299 27.1771 48.3776 27.4517 47.8445 27.7748C43.6445 30.2786 32.8537 34.4625 18.7676 34.4625V31.2317C18.7676 24.8053 21.3204 18.6422 25.8646 14.098C30.4087 9.55386 36.5719 7.00098 42.9983 7.00098C49.4247 7.00098 55.5879 9.55386 60.1321 14.098C64.6762 18.6422 67.2291 24.8053 67.2291 31.2317H67.1968Z" fill="#38383F"/>
<path d="M38.1194 45.7701C37.691 45.7701 37.2801 45.5999 36.9772 45.297C36.6742 44.994 36.504 44.5832 36.504 44.1547C36.504 43.7263 36.3338 43.3155 36.0309 43.0125C35.7279 42.7096 35.3171 42.5394 34.8886 42.5394C34.4602 42.5394 34.0493 42.7096 33.7464 43.0125C33.4434 43.3155 33.2732 43.7263 33.2732 44.1547C33.2732 44.5832 33.1031 44.994 32.8001 45.297C32.4972 45.5999 32.0863 45.7701 31.6579 45.7701C31.2294 45.7701 30.8186 45.5999 30.5156 45.297C30.2127 44.994 30.0425 44.5832 30.0425 44.1547C30.0425 42.8695 30.5531 41.6369 31.4619 40.728C32.3707 39.8192 33.6034 39.3086 34.8886 39.3086C36.1739 39.3086 37.4066 39.8192 38.3154 40.728C39.2242 41.6369 39.7348 42.8695 39.7348 44.1547C39.7348 44.5832 39.5646 44.994 39.2617 45.297C38.9587 45.5999 38.5478 45.7701 38.1194 45.7701Z" fill="#E5C3B7"/>
<path d="M54.2737 45.7701C53.8453 45.7701 53.4344 45.5999 53.1314 45.297C52.8285 44.994 52.6583 44.5832 52.6583 44.1547C52.6583 43.7263 52.4881 43.3155 52.1852 43.0125C51.8822 42.7096 51.4714 42.5394 51.0429 42.5394C50.6145 42.5394 50.2036 42.7096 49.9007 43.0125C49.5977 43.3155 49.4275 43.7263 49.4275 44.1547C49.4275 44.5832 49.2574 44.994 48.9544 45.297C48.6515 45.5999 48.2406 45.7701 47.8122 45.7701C47.3837 45.7701 46.9729 45.5999 46.6699 45.297C46.367 44.994 46.1968 44.5832 46.1968 44.1547C46.1968 42.8695 46.7073 41.6369 47.6162 40.728C48.525 39.8192 49.7577 39.3086 51.0429 39.3086C52.3282 39.3086 53.5609 39.8192 54.4697 40.728C55.3785 41.6369 55.8891 42.8695 55.8891 44.1547C55.8891 44.5832 55.7189 44.994 55.416 45.297C55.113 45.5999 54.7021 45.7701 54.2737 45.7701Z" fill="#E5C3B7"/>
<path d="M42.9659 58.6937C41.729 58.6962 40.5039 58.4534 39.3615 57.9793C38.2191 57.5051 37.1821 56.8091 36.3105 55.9314L35.3574 54.9945C35.0532 54.6903 34.8823 54.2778 34.8823 53.8476C34.8823 53.4174 35.0532 53.0049 35.3574 52.7007C35.6616 52.3965 36.0741 52.2256 36.5043 52.2256C36.9345 52.2256 37.3471 52.3965 37.6512 52.7007L38.5882 53.6537C39.7506 54.8122 41.3247 55.4627 42.9659 55.463C44.6056 55.4557 46.1772 54.8062 47.3436 53.6537L48.2805 52.7007C48.5846 52.3965 48.9972 52.2256 49.4274 52.2256C49.8576 52.2256 50.2701 52.3965 50.5743 52.7007C50.8785 53.0049 51.0494 53.4174 51.0494 53.8476C51.0494 54.2778 50.8785 54.6903 50.5743 54.9945L49.6212 55.9314C47.8547 57.6951 45.4621 58.6881 42.9659 58.6937Z" fill="#E5C3B7"/>
<path d="M73.658 55.4619V61.9235C73.658 63.2087 73.1474 64.4413 72.2386 65.3502C71.3297 66.259 70.0971 66.7696 68.8118 66.7696H46.1964C45.768 66.7696 45.3571 66.5994 45.0542 66.2964C44.7512 65.9935 44.5811 65.5826 44.5811 65.1542C44.5811 64.7258 44.7512 64.3149 45.0542 64.012C45.3571 63.7091 45.768 63.5388 46.1964 63.5388H68.8118C69.2402 63.5388 69.6511 63.3686 69.9541 63.0657C70.257 62.7627 70.4272 62.3519 70.4272 61.9235V55.4619H73.658Z" fill="#53599A"/>
<path d="M25.1966 78.0771L42.9658 91.0002L35.8581 96.6864C35.5756 96.9038 35.2292 97.0217 34.8727 97.0217C34.5162 97.0217 34.1698 96.9038 33.8873 96.6864L17.1196 84.5387L25.1966 78.0771Z" fill="#53599A"/>
<path d="M42.9658 70.0009C45.6422 70.0009 47.8119 67.8312 47.8119 65.1547C47.8119 62.4783 45.6422 60.3086 42.9658 60.3086C40.2893 60.3086 38.1196 62.4783 38.1196 65.1547C38.1196 67.8312 40.2893 70.0009 42.9658 70.0009Z" fill="#666EC6"/>
</svg>
