<svg width="241" height="43" viewBox="0 0 241 43" fill="none" xmlns="http://www.w3.org/2000/svg">
<path d="M48.6403 12.0316C39.8347 12.0316 33.0209 18.6229 33.0209 27.5158C33.0209 36.4088 39.7299 43 48.6403 43C57.5507 43 64.3645 36.3041 64.3645 27.5158C64.3645 18.7275 57.6555 12.0316 48.6403 12.0316ZM48.7451 36.5134C43.7134 36.5134 40.1492 32.6423 40.1492 27.4112C40.1492 22.1801 43.7134 18.309 48.7451 18.309C53.7769 18.309 57.4458 22.1801 57.4458 27.4112C57.4458 32.6423 53.672 36.5134 48.7451 36.5134ZM66.2514 18.7275H70.5494V42.3723H77.5729V12.5547H66.2514V18.7275ZM15.5146 18.4136C19.1836 18.4136 22.1187 20.6107 23.167 23.9586H30.505C29.1422 16.8443 23.2719 11.927 15.5146 11.927C6.81383 12.0316 0 18.6229 0 27.5158C0 36.4088 6.709 43 15.6194 43C23.167 43 29.1422 38.1874 30.505 30.9684H23.167C22.1187 34.3163 19.1836 36.618 15.6194 36.618C10.5876 36.618 7.02349 32.747 7.02349 27.5158C7.02349 22.2847 10.4828 18.4136 15.5146 18.4136ZM198.44 24.5864L193.303 23.854C190.892 23.5401 189.11 22.7032 189.11 20.82C189.11 18.7275 191.416 17.6813 194.456 17.6813C197.811 17.6813 200.012 19.146 200.431 21.4477H207.141C206.407 15.4842 201.794 11.927 194.666 11.927C187.328 11.927 182.401 15.6934 182.401 21.0292C182.401 26.0511 185.546 29.0852 192.045 29.9221L197.182 30.6545C199.698 30.9684 201.06 32.0146 201.06 33.7932C201.06 36.1995 198.649 37.1411 195.295 37.1411C191.207 37.1411 188.9 35.4672 188.481 32.9562H181.667C182.296 38.8151 186.909 42.8954 195.19 42.8954C202.738 42.8954 207.874 39.4428 207.874 33.4793C207.874 28.2482 204.205 25.528 198.44 24.5864ZM74.1135 0.313869C71.5977 0.313869 69.6059 2.19708 69.6059 4.70803C69.6059 7.21898 71.4928 9.10219 74.1135 9.10219C76.6294 9.10219 78.6211 7.21898 78.6211 4.70803C78.6211 2.19708 76.6294 0.313869 74.1135 0.313869ZM176.216 22.8078C176.216 16.3212 172.233 12.0316 163.951 12.0316C156.089 12.0316 151.686 16.0073 150.743 22.0754H157.662C157.976 19.6691 159.863 17.7859 163.846 17.7859C167.411 17.7859 169.088 19.3552 169.088 21.2384C169.088 23.7494 165.943 24.3771 161.96 24.7956C156.613 25.4234 150.009 27.2019 150.009 34.1071C150.009 39.4428 153.993 42.8954 160.387 42.8954C165.419 42.8954 168.459 40.8029 170.031 37.5596C170.241 40.4891 172.442 42.3723 175.587 42.3723H179.676V36.1995H176.216V22.8078ZM169.298 30.236C169.298 34.2117 165.838 37.1411 161.54 37.1411C158.92 37.1411 156.718 36.0949 156.718 33.6886C156.718 30.7591 160.282 29.9221 163.532 29.6083C166.677 29.2944 168.354 28.6667 169.298 27.3066V30.236ZM132.398 12.0316C128.519 12.0316 125.27 13.601 122.963 16.3212V0H116.045V42.3723H122.859V38.5012C125.165 41.326 128.519 43 132.398 43C140.784 43 147.074 36.4088 147.074 27.5158C147.074 18.6229 140.679 12.0316 132.398 12.0316ZM131.35 36.5134C126.318 36.5134 122.754 32.6423 122.754 27.4112C122.754 22.1801 126.423 18.309 131.455 18.309C136.486 18.309 140.05 22.1801 140.05 27.4112C140.05 32.747 136.381 36.5134 131.35 36.5134ZM99.3771 12.0316C94.8695 12.0316 91.9343 13.9148 90.1522 16.4258V12.5547H83.2336V42.3723H90.1522V26.1557C90.1522 21.5523 93.0874 18.4136 97.3854 18.4136C101.369 18.4136 103.885 21.2384 103.885 25.3187V42.3723H110.803V24.7956C110.803 17.2628 106.925 12.0316 99.3771 12.0316ZM241 26.5742C241 17.9951 234.71 12.0316 226.324 12.0316C217.414 12.0316 210.809 18.7275 210.809 27.5158C210.809 36.8273 217.833 43 226.429 43C233.662 43 239.323 38.7105 240.79 32.6423H233.557C232.509 35.2579 229.993 36.8273 226.534 36.8273C222.026 36.8273 218.672 34.1071 217.938 29.1898H241V26.5742ZM218.357 24.2725C219.51 20.0876 222.55 18.0998 226.219 18.0998C230.203 18.0998 233.138 20.2968 233.872 24.2725H218.357V24.2725Z" fill="#53599A"/>
</svg>
