<svg width="34" height="34" viewBox="0 0 34 34" fill="none" xmlns="http://www.w3.org/2000/svg">
<g filter="url(#filter0_d_663_1386)">
<path fill-rule="evenodd" clip-rule="evenodd" d="M17.0025 5.26053C18.9781 5.26053 20.9093 5.84636 22.5519 6.94394C24.1946 8.04152 25.4749 9.60156 26.2309 11.4268C26.9869 13.252 27.1847 15.2604 26.7993 17.198C26.4139 19.1357 25.4626 20.9155 24.0656 22.3125C22.6687 23.7094 20.8888 24.6608 18.9512 25.0462C17.0135 25.4316 15.0051 25.2338 13.1799 24.4778C11.3547 23.7217 9.79467 22.4414 8.69709 20.7988C7.5995 19.1561 7.01367 17.2249 7.01367 15.2493C7.01367 12.6001 8.06606 10.0594 9.93933 8.18617C11.8126 6.31291 14.3533 5.26053 17.0025 5.26053Z" fill="url(#paint0_radial_663_1386)"/>
<path fill-rule="evenodd" clip-rule="evenodd" d="M17.0018 5.67766C18.8949 5.67766 20.7455 6.23903 22.3195 7.29077C23.8936 8.34251 25.1204 9.83738 25.8448 11.5864C26.5693 13.3353 26.7588 15.2599 26.3895 17.1166C26.0202 18.9733 25.1086 20.6788 23.77 22.0174C22.4314 23.356 20.7259 24.2676 18.8692 24.6369C17.0125 25.0062 15.0879 24.8167 13.339 24.0922C11.59 23.3678 10.0951 22.141 9.04337 20.5669C7.99164 18.9929 7.43027 17.1423 7.43027 15.2492C7.43027 13.9923 7.67784 12.7476 8.15886 11.5864C8.63987 10.4251 9.34492 9.36991 10.2337 8.48111C11.1225 7.59231 12.1777 6.88727 13.339 6.40626C14.5002 5.92524 15.7449 5.67766 17.0018 5.67766ZM27.9314 15.2492C27.9355 13.0867 27.2979 10.9716 26.0994 9.17152C24.9009 7.37147 23.1954 5.96742 21.1986 5.13705C19.2018 4.30668 17.0036 4.08731 14.8822 4.50672C12.7607 4.92613 10.8113 5.96545 9.28071 7.49317C7.75014 9.02088 6.70716 10.9683 6.28378 13.089C5.8604 15.2097 6.07564 17.4083 6.90227 19.4066C7.7289 21.4049 9.12976 23.1131 10.9276 24.315C12.7254 25.5168 14.8393 26.1584 17.0018 26.1584C18.4371 26.1584 19.8584 25.8757 21.1844 25.3264C22.5104 24.7771 23.7153 23.9721 24.7302 22.9572C25.7451 21.9423 26.5502 20.7374 27.0995 19.4114C27.6487 18.0853 27.9314 16.6641 27.9314 15.2288V15.2492Z" fill="url(#paint1_linear_663_1386)"/>
<path fill-rule="evenodd" clip-rule="evenodd" d="M17.0017 26.1582C19.1634 26.1582 21.2765 25.5172 23.0739 24.3163C24.8712 23.1153 26.2721 21.4083 27.0993 19.4112C27.9266 17.4141 28.143 15.2165 27.7213 13.0964C27.2996 10.9763 26.2586 9.02879 24.7301 7.50026C23.2016 5.97173 21.2541 4.93078 19.134 4.50906C17.0138 4.08734 14.8163 4.30378 12.8191 5.13102C10.822 5.95825 9.11506 7.35912 7.9141 9.15648C6.71314 10.9538 6.07214 13.067 6.07214 15.2286C6.07214 16.6639 6.35484 18.0852 6.9041 19.4112C7.45337 20.7373 8.25844 21.9421 9.27334 22.957C10.2882 23.9719 11.4931 24.777 12.8191 25.3263C14.1452 25.8755 15.5664 26.1582 17.0017 26.1582ZM29.273 15.2286C29.273 17.6557 28.5533 20.0282 27.2049 22.0462C25.8565 24.0642 23.94 25.637 21.6977 26.5658C19.4554 27.4946 16.9881 27.7376 14.6077 27.2641C12.2273 26.7906 10.0408 25.6219 8.32464 23.9057C6.60847 22.1896 5.43975 20.003 4.96626 17.6226C4.49277 15.2423 4.73579 12.7749 5.66457 10.5326C6.59335 8.29036 8.16619 6.37385 10.1842 5.02547C12.2022 3.67709 14.5747 2.9574 17.0017 2.9574C20.2563 2.9574 23.3775 4.25026 25.6788 6.55156C27.9801 8.85287 29.273 11.9741 29.273 15.2286Z" fill="url(#paint2_linear_663_1386)"/>
<path style="mix-blend-mode:screen" fill-rule="evenodd" clip-rule="evenodd" d="M17.0033 26.1583C14.1972 26.1618 11.498 25.0818 9.46875 23.1436C10.45 24.148 11.6219 24.9464 12.9157 25.4922C14.2094 26.0379 15.5991 26.32 17.0033 26.3219C18.1788 26.3226 19.346 26.1248 20.4556 25.7369C20.5225 25.8347 20.6208 25.9066 20.7342 25.9408C20.8475 25.975 20.9692 25.9695 21.079 25.9251C21.1888 25.8807 21.2801 25.8001 21.3378 25.6967C21.3955 25.5933 21.4162 25.4733 21.3964 25.3565C22.5695 24.8124 23.6351 24.0614 24.5419 23.1395C22.5123 25.0802 19.8114 26.1617 17.0033 26.1583Z" fill="url(#paint3_radial_663_1386)"/>
<path style="mix-blend-mode:screen" fill-rule="evenodd" clip-rule="evenodd" d="M17.0019 24.8207C14.4634 24.8207 12.0288 23.8123 10.2338 22.0173C8.43881 20.2223 7.43037 17.7877 7.43037 15.2491C6.98005 15.3144 6.52268 15.3144 6.07236 15.2491C6.04425 16.702 6.30612 18.1458 6.84266 19.4962C7.37919 20.8466 8.17961 22.0765 9.19712 23.1138C10.2146 24.1512 11.4288 24.9753 12.7685 25.5379C14.1083 26.1004 15.5468 26.3902 16.9999 26.3902C18.453 26.3902 19.8915 26.1004 21.2313 25.5379C22.571 24.9753 23.7852 24.1512 24.8027 23.1138C25.8202 22.0765 26.6206 20.8466 27.1571 19.4962C27.6937 18.1458 27.9555 16.702 27.9274 15.2491C27.4771 15.3144 27.0197 15.3144 26.5694 15.2491C26.5694 17.7877 25.561 20.2223 23.766 22.0173C21.971 23.8123 19.5364 24.8207 16.9978 24.8207H17.0019Z" fill="url(#paint4_linear_663_1386)"/>
<path style="mix-blend-mode:screen" fill-rule="evenodd" clip-rule="evenodd" d="M6.07676 15.249C6.13212 12.3875 7.30775 9.66183 9.35104 7.65769C11.3943 5.65356 14.1422 4.53089 17.0043 4.53089C19.8664 4.53089 22.6143 5.65356 24.6576 7.65769C26.7009 9.66183 27.8765 12.3875 27.9319 15.249C28.3822 15.1838 28.8395 15.1838 29.2899 15.249C29.2899 11.9907 27.9955 8.86583 25.6915 6.56184C23.3875 4.25785 20.2626 2.96349 17.0043 2.96349C13.746 2.96349 10.6211 4.25785 8.3171 6.56184C6.01311 8.86583 4.71875 11.9907 4.71875 15.249C5.16907 15.1838 5.62644 15.1838 6.07676 15.249Z" fill="url(#paint5_linear_663_1386)"/>
<path style="mix-blend-mode:screen" fill-rule="evenodd" clip-rule="evenodd" d="M17.0013 24.8207C14.4627 24.8207 12.0282 23.8123 10.2331 22.0173C8.43813 20.2223 7.42969 17.7877 7.42969 15.2491C7.42969 20.7671 11.7165 25.2379 17.0013 25.2379C22.2861 25.2379 26.5728 20.7671 26.5728 15.2491C26.5728 17.7877 25.5644 20.2223 23.7694 22.0173C21.9744 23.8123 19.5398 24.8207 17.0013 24.8207Z" fill="url(#paint6_radial_663_1386)"/>
<g style="mix-blend-mode:multiply" opacity="0.35">
<path fill-rule="evenodd" clip-rule="evenodd" d="M17.0014 6.1889C21.37 6.1889 25.0554 8.93357 26.2253 12.6927C25.6649 10.6764 24.4594 8.89924 22.7933 7.63303C21.1271 6.36681 19.092 5.68127 16.9994 5.68127C14.9067 5.68127 12.8716 6.36681 11.2055 7.63303C9.5393 8.89924 8.33384 10.6764 7.77344 12.6927C8.9433 8.93357 12.6328 6.1889 16.9973 6.1889H17.0014Z" fill="#85603C"/>
</g>
<path fill-rule="evenodd" clip-rule="evenodd" d="M12.119 8.5246L13.4483 6.36485C13.062 6.5201 12.6862 6.70046 12.3235 6.90478L11.6895 7.93557L12.119 8.52868V8.5246ZM15.4772 3.0598L16.8884 0.760987C16.8988 0.739966 16.9153 0.722525 16.9357 0.710874C16.9561 0.699223 16.9795 0.693886 17.0029 0.695539V0.0165284C16.8637 0.0149825 16.7266 0.0500768 16.6052 0.118283C16.4839 0.18649 16.3827 0.285407 16.3116 0.405117L14.5936 3.20296C14.8827 3.1457 15.1772 3.09798 15.4772 3.0598Z" fill="url(#paint7_linear_663_1386)"/>
<path fill-rule="evenodd" clip-rule="evenodd" d="M17.1165 0.756772L21.8859 8.52856L22.3154 7.93545L17.6932 0.388637C17.6222 0.268928 17.5209 0.170004 17.3996 0.101798C17.2783 0.0335911 17.1411 -0.00149697 17.002 4.89613e-05V0.679059C17.0254 0.677406 17.0488 0.682744 17.0691 0.694394C17.0895 0.706045 17.106 0.723481 17.1165 0.744501V0.756772Z" fill="url(#paint8_linear_663_1386)"/>
<path fill-rule="evenodd" clip-rule="evenodd" d="M30.9098 10.0051L27.7193 9.23615C27.8665 9.50884 28.0029 9.77336 28.1283 10.0297L30.7503 10.6637C30.7738 10.6672 30.7957 10.6776 30.8132 10.6936C30.8307 10.7097 30.843 10.7306 30.8485 10.7537L31.4907 10.5451C31.4497 10.412 31.3744 10.2921 31.2725 10.1973C31.1705 10.1026 31.0455 10.0363 30.9098 10.0051ZM23.4939 8.21764L22.324 7.93539L21.8945 8.5285L24.3488 9.12162C24.0823 8.80206 23.7953 8.50011 23.4898 8.21764H23.4939Z" fill="url(#paint9_linear_663_1386)"/>
<path fill-rule="evenodd" clip-rule="evenodd" d="M30.8149 10.8805L24.9043 17.8342L25.5997 18.0592L31.3263 11.3346C31.418 11.23 31.4807 11.1032 31.508 10.9668C31.5352 10.8304 31.5262 10.6892 31.4817 10.5574L30.8395 10.766C30.849 10.7878 30.8517 10.8119 30.8473 10.8352C30.843 10.8585 30.8317 10.88 30.8149 10.8969V10.8805Z" fill="url(#paint10_linear_663_1386)"/>
<path fill-rule="evenodd" clip-rule="evenodd" d="M26.2867 26.8536L26.0331 23.5813C25.8313 23.7994 25.6213 24.0108 25.4031 24.2153L25.6118 26.9109C25.615 26.9341 25.6113 26.9577 25.6011 26.9789C25.5909 27 25.5747 27.0176 25.5545 27.0295L25.9635 27.5776C26.077 27.4972 26.1673 27.3883 26.2255 27.262C26.2836 27.1356 26.3076 26.9962 26.2949 26.8577L26.2867 26.8536ZM25.6976 19.2495L25.6036 18.0429L24.9082 17.8179L25.1045 20.3458C25.3259 19.9937 25.524 19.6275 25.6976 19.2495Z" fill="url(#paint11_linear_663_1386)"/>
<path fill-rule="evenodd" clip-rule="evenodd" d="M25.4282 27.0418L17.002 23.5649V24.2971L25.1828 27.6676C25.311 27.7228 25.4515 27.7431 25.5901 27.7266C25.7287 27.7101 25.8605 27.6573 25.9722 27.5735L25.5632 27.0254C25.5438 27.0383 25.521 27.0451 25.4977 27.0451C25.4745 27.0451 25.4517 27.0383 25.4323 27.0254L25.4282 27.0418Z" fill="url(#paint12_linear_663_1386)"/>
<path fill-rule="evenodd" clip-rule="evenodd" d="M8.83864 27.6676L11.8737 26.4159C11.601 26.2905 11.3352 26.1541 11.0761 26.0069L8.58095 27.0376C8.56154 27.0505 8.53878 27.0573 8.51551 27.0573C8.49223 27.0573 8.46947 27.0505 8.45006 27.0376L8.04102 27.5858C8.1527 27.6695 8.2845 27.7223 8.42311 27.7388C8.56171 27.7553 8.70223 27.735 8.83046 27.6798L8.83864 27.6676ZM15.8905 24.7552L17.0072 24.293V23.5608L14.6593 24.522C15.063 24.6238 15.4729 24.6989 15.8864 24.747L15.8905 24.7552Z" fill="url(#paint13_linear_663_1386)"/>
<path fill-rule="evenodd" clip-rule="evenodd" d="M8.39113 26.9068L9.09468 17.8179L8.39932 18.0429L7.71621 26.8495C7.7035 26.988 7.72742 27.1274 7.78557 27.2538C7.84372 27.3801 7.93406 27.489 8.04753 27.5694L8.45658 27.0213C8.43638 27.0094 8.42016 26.9918 8.40996 26.9707C8.39977 26.9496 8.39607 26.9259 8.39932 26.9027L8.39113 26.9068Z" fill="url(#paint14_linear_663_1386)"/>
<path fill-rule="evenodd" clip-rule="evenodd" d="M2.66958 11.3182L4.80068 13.8174C4.83613 13.5202 4.88113 13.2257 4.93567 12.9339L3.18497 10.8887C3.16825 10.8718 3.15697 10.8504 3.15259 10.827C3.14822 10.8037 3.15095 10.7796 3.16043 10.7578L2.51823 10.5492C2.47375 10.681 2.46469 10.8222 2.49197 10.9586C2.51925 11.095 2.58192 11.2218 2.67367 11.3264L2.66958 11.3182ZM7.61489 17.1225L8.40025 18.0428L9.09561 17.8179L7.45945 15.8913C7.48747 16.3034 7.54212 16.7133 7.62306 17.1184L7.61489 17.1225Z" fill="url(#paint15_linear_663_1386)"/>
<path fill-rule="evenodd" clip-rule="evenodd" d="M3.25404 10.6595L12.1139 8.52024L11.6844 7.92712L3.09452 10.001C2.95885 10.0321 2.83376 10.0984 2.73181 10.1932C2.62986 10.288 2.55463 10.4079 2.51367 10.5409L3.15587 10.7495C3.16135 10.7264 3.17363 10.7055 3.19113 10.6894C3.20864 10.6734 3.23055 10.663 3.25404 10.6595Z" fill="url(#paint16_linear_663_1386)"/>
<path fill-rule="evenodd" clip-rule="evenodd" d="M12.1182 8.52454L3.25832 10.6638C3.23483 10.6673 3.21292 10.6777 3.19542 10.6937C3.17792 10.7098 3.16563 10.7307 3.16016 10.7538L4.27274 11.1138L12.5476 9.11764L12.1182 8.52454Z" fill="url(#paint17_linear_663_1386)"/>
<path fill-rule="evenodd" clip-rule="evenodd" d="M9.7949 17.593L7.44291 14.8319C7.44291 14.971 7.44291 15.1074 7.44291 15.241C7.44291 15.4564 7.44974 15.6705 7.46337 15.8832L9.09954 17.8098L9.7949 17.5848V17.593ZM5.12365 12.1118L4.27284 11.1138L3.16026 10.7538C3.15078 10.7756 3.14804 10.7997 3.15242 10.823C3.1568 10.8464 3.16808 10.8678 3.1848 10.8847L4.9355 12.9299C4.99004 12.6572 5.05275 12.3845 5.12365 12.1118Z" fill="url(#paint18_linear_663_1386)"/>
<path fill-rule="evenodd" clip-rule="evenodd" d="M9.09532 17.818L8.39177 26.9069C8.38852 26.9301 8.39223 26.9538 8.40243 26.9749C8.41262 26.996 8.42884 27.0136 8.44904 27.0255L9.13622 26.0806L9.79478 17.593L9.09941 17.818H9.09532Z" fill="url(#paint19_linear_663_1386)"/>
<path fill-rule="evenodd" clip-rule="evenodd" d="M17.0023 22.8286L13.6481 24.2152C13.9788 24.3389 14.3161 24.4441 14.6585 24.5302L17.0023 23.5608V22.8286ZM10.3635 25.5773L9.13641 26.0805L8.44922 27.0254C8.46863 27.0382 8.49139 27.045 8.51467 27.045C8.53794 27.045 8.5607 27.0382 8.58011 27.0254L11.0753 25.9946C10.8298 25.8582 10.5885 25.7137 10.3513 25.561L10.3635 25.5773Z" fill="url(#paint20_linear_663_1386)"/>
<path fill-rule="evenodd" clip-rule="evenodd" d="M17.002 23.5609L25.4282 27.0378C25.4476 27.0506 25.4704 27.0575 25.4936 27.0575C25.5169 27.0575 25.5397 27.0506 25.5591 27.0378L24.8719 26.0929L17.002 22.8451V23.5773V23.5609Z" fill="url(#paint21_linear_663_1386)"/>
<path fill-rule="evenodd" clip-rule="evenodd" d="M24.2129 17.593L24.4951 21.2089C24.7154 20.9328 24.9202 20.6446 25.1087 20.3459L24.9124 17.818L24.217 17.593H24.2129ZM24.7692 24.7717L24.8715 26.0806L25.5586 27.0255C25.5788 27.0136 25.5951 26.996 25.6053 26.9749C25.6154 26.9538 25.6192 26.9301 25.6159 26.9069L25.4073 24.2113C25.2028 24.4049 24.9914 24.5904 24.7733 24.7676L24.7692 24.7717Z" fill="url(#paint22_linear_663_1386)"/>
<path fill-rule="evenodd" clip-rule="evenodd" d="M24.9084 17.8179L30.8191 10.8642C30.8358 10.8473 30.8471 10.8258 30.8515 10.8025C30.8559 10.7792 30.8531 10.755 30.8436 10.7333L29.731 11.0932L24.209 17.5724L24.9043 17.7974L24.9084 17.8179Z" fill="url(#paint23_linear_663_1386)"/>
<path fill-rule="evenodd" clip-rule="evenodd" d="M21.4609 9.11764L24.9869 9.96845C24.7914 9.67339 24.5797 9.38935 24.3529 9.11764L21.8986 8.52454L21.4691 9.11764H21.4609ZM28.4637 10.807L29.7358 11.1138L30.8484 10.7538C30.843 10.7307 30.8307 10.7098 30.8132 10.6937C30.7957 10.6777 30.7738 10.6673 30.7503 10.6638L28.1283 10.0298C28.2483 10.2834 28.3587 10.5425 28.4596 10.807H28.4637Z" fill="url(#paint24_linear_663_1386)"/>
<path fill-rule="evenodd" clip-rule="evenodd" d="M21.8898 8.5243L17.1204 0.75251C17.1099 0.73149 17.0935 0.714048 17.0731 0.702397C17.0527 0.690746 17.0293 0.685409 17.0059 0.687062V1.85692L21.4603 9.10923L21.8898 8.51611V8.5243Z" fill="url(#paint25_linear_663_1386)"/>
<path fill-rule="evenodd" clip-rule="evenodd" d="M12.5469 9.11771L14.4448 6.02535C14.1047 6.1198 13.7701 6.23314 13.4427 6.36486L12.1133 8.5246L12.5428 9.11771H12.5469ZM16.3141 2.98208L17.0013 1.86132V0.691456C16.9779 0.689804 16.9545 0.695141 16.9341 0.706792C16.9137 0.718442 16.8973 0.735878 16.8868 0.756898L15.4756 3.05572C15.7483 3.02027 16.0292 2.99572 16.3182 2.98208H16.3141Z" fill="url(#paint26_linear_663_1386)"/>
<path style="mix-blend-mode:multiply" opacity="0.5" fill-rule="evenodd" clip-rule="evenodd" d="M18.7129 26.0437L21.4371 26.7104C21.6716 26.6204 21.9034 26.5223 22.1325 26.4159L20.3163 25.6674C19.7921 25.8341 19.2561 25.9613 18.7129 26.0478V26.0437Z" fill="url(#paint27_linear_663_1386)"/>
<path fill-rule="evenodd" clip-rule="evenodd" d="M4.06836 10.4674L11.9874 8.34861L13.145 6.85561L12.1183 8.5245L4.06836 10.4674Z" fill="white"/>
<path fill-rule="evenodd" clip-rule="evenodd" d="M16.9968 28.2639C16.8642 27.8284 15.9869 25.6697 14.6992 25.1079C12.2249 24.0475 9.83901 23.2143 8.31152 22.2865C6.9292 21.4344 5.6605 20.456 5.54688 19.1305C5.54516 20.482 5.85169 21.8161 6.44317 23.0313C7.65506 24.4893 10.5901 25.3856 14.2952 26.749C15.265 27.1123 16.1771 27.614 17.0031 28.2386L16.9968 28.2639Z" fill="url(#paint28_radial_663_1386)"/>
<path fill-rule="evenodd" clip-rule="evenodd" d="M16.9965 28.2639C17.1291 27.8284 18.0065 25.6697 19.2941 25.1079C21.7684 24.0475 24.1543 23.2143 25.6818 22.2865C27.0641 21.4344 28.3328 20.456 28.4464 19.1305C28.4481 20.482 28.1416 21.8161 27.5501 23.0313C26.3382 24.4893 23.4032 25.3856 19.698 26.749C18.7283 27.1123 17.8162 27.614 16.9902 28.2386L16.9965 28.2639Z" fill="url(#paint29_radial_663_1386)"/>
<path style="mix-blend-mode:multiply" fill-rule="evenodd" clip-rule="evenodd" d="M7.13117 23.2018C6.74027 22.4296 6.46386 21.6046 6.31062 20.7527C5.88593 20.3199 5.61726 19.7581 5.54688 19.1558C5.54516 20.5073 5.85169 21.8414 6.44317 23.0566C7.09918 23.7506 7.89527 24.297 8.7786 24.6598C8.13594 24.2935 7.57695 23.7968 7.13749 23.2018H7.13117Z" fill="url(#paint30_radial_663_1386)"/>
<path style="mix-blend-mode:multiply" fill-rule="evenodd" clip-rule="evenodd" d="M26.8681 23.2018C27.259 22.4296 27.5354 21.6046 27.6887 20.7528C28.1134 20.32 28.382 19.7582 28.4524 19.1559C28.4541 20.5074 28.1476 21.8415 27.5561 23.0567C26.9001 23.7506 26.104 24.2971 25.2207 24.6599C25.8634 24.2935 26.4223 23.7969 26.8618 23.2018H26.8681Z" fill="url(#paint31_radial_663_1386)"/>
<path fill-rule="evenodd" clip-rule="evenodd" d="M16.9977 28.3458C14.5928 27.3422 11.7335 26.3828 9.61901 25.5875C8.94235 25.3209 8.36322 24.854 7.95898 24.2494C8.32508 25.6317 8.99414 26.4838 9.56852 26.73C11.4621 27.5505 14.7254 28.4721 16.9977 29.5767V28.3143V28.3458Z" fill="url(#paint32_radial_663_1386)"/>
<path style="mix-blend-mode:multiply" opacity="0.3" fill-rule="evenodd" clip-rule="evenodd" d="M9.9788 26.8689C9.29711 26.3897 8.78804 25.7035 8.52706 24.9122C8.31298 24.7254 8.12224 24.5135 7.95898 24.281C8.32508 25.6633 8.99414 26.5154 9.56852 26.7616C9.821 26.8689 10.105 26.9825 10.4017 27.0961C10.2565 27.033 10.1177 26.9699 9.9788 26.8942V26.8689Z" fill="url(#paint33_radial_663_1386)"/>
<path fill-rule="evenodd" clip-rule="evenodd" d="M16.9082 28.3459C19.3131 27.3423 22.1724 26.3829 24.2869 25.5876C24.9635 25.3209 25.5427 24.854 25.9469 24.2494C25.5808 25.6317 24.9118 26.4838 24.3374 26.73C22.4438 27.5506 19.1805 28.4721 16.9082 29.5767V28.3143V28.3459Z" fill="url(#paint34_radial_663_1386)"/>
<path style="mix-blend-mode:multiply" opacity="0.3" fill-rule="evenodd" clip-rule="evenodd" d="M23.9288 26.8689C24.6105 26.3897 25.1195 25.7035 25.3805 24.9122C25.5946 24.7254 25.7853 24.5135 25.9486 24.281C25.5825 25.6633 24.9134 26.5154 24.339 26.7616C24.0866 26.8689 23.8025 26.9825 23.5059 27.0961C23.651 27.033 23.7899 26.9699 23.9288 26.8942V26.8689Z" fill="url(#paint35_radial_663_1386)"/>
<path opacity="0.35" fill-rule="evenodd" clip-rule="evenodd" d="M14.6992 25.1207C12.2249 24.0603 9.83901 23.2271 8.31151 22.2992C6.93551 21.4534 5.67311 20.4814 5.54688 19.1812C5.72992 21.1568 7.78761 22.2361 9.46027 23.0567C11.1329 23.8772 12.8624 24.4516 14.5666 25.1838C15.829 25.7203 16.5802 27.2668 16.9967 28.2641C16.8642 27.8285 15.9868 25.6698 14.6992 25.1081V25.1207Z" fill="url(#paint36_linear_663_1386)"/>
<path opacity="0.35" fill-rule="evenodd" clip-rule="evenodd" d="M19.3014 25.1207C21.7757 24.0603 24.1617 23.2271 25.6892 22.2992C27.0652 21.4534 28.3275 20.4814 28.4538 19.1812C28.2707 21.1568 26.213 22.2361 24.5404 23.0567C22.8677 23.8772 21.1382 24.4516 19.434 25.1838C18.1716 25.7203 17.4205 27.2668 17.0039 28.2641C17.1365 27.8285 18.0138 25.6698 19.3014 25.1081V25.1207Z" fill="url(#paint37_linear_663_1386)"/>
<path fill-rule="evenodd" clip-rule="evenodd" d="M16.9969 24.7483C17.5162 24.7483 18.0239 24.9023 18.4557 25.1908C18.8875 25.4793 19.224 25.8894 19.4228 26.3692C19.6215 26.849 19.6735 27.3769 19.5722 27.8863C19.4709 28.3956 19.2208 28.8635 18.8536 29.2307C18.4863 29.598 18.0185 29.848 17.5091 29.9494C16.9998 30.0507 16.4718 29.9987 15.992 29.7999C15.5122 29.6012 15.1022 29.2646 14.8136 28.8328C14.5251 28.401 14.3711 27.8934 14.3711 27.374C14.3711 26.6776 14.6477 26.0098 15.1402 25.5173C15.6326 25.0249 16.3005 24.7483 16.9969 24.7483ZM16.9969 25.329C16.5907 25.334 16.1951 25.4596 15.8603 25.6897C15.5256 25.9199 15.2667 26.2442 15.1165 26.6217C14.9662 26.9991 14.9315 27.4127 15.0166 27.8099C15.1017 28.2071 15.3028 28.5702 15.5945 28.8529C15.8861 29.1357 16.2552 29.3256 16.6548 29.3984C17.0545 29.4712 17.4668 29.4237 17.8394 29.2619C18.2121 29.1001 18.5283 28.8313 18.748 28.4896C18.9677 28.1479 19.081 27.7486 19.0735 27.3425C19.0735 26.7984 18.8574 26.2766 18.4727 25.8919C18.088 25.5072 17.5662 25.2911 17.0221 25.2911L16.9969 25.329Z" fill="url(#paint38_linear_663_1386)"/>
<path fill-rule="evenodd" clip-rule="evenodd" d="M19.6285 27.3424C19.6285 26.8231 19.4745 26.3155 19.186 25.8836C18.8975 25.4518 18.4874 25.1153 18.0076 24.9165C17.5278 24.7178 16.9998 24.6658 16.4905 24.7671C15.9811 24.8684 15.5133 25.1185 15.146 25.4857C14.7788 25.853 14.5287 26.3208 14.4274 26.8302C14.3261 27.3395 14.3781 27.8675 14.5768 28.3473C14.7756 28.8271 15.1121 29.2372 15.5439 29.5257C15.9757 29.8142 16.4834 29.9682 17.0027 29.9682C17.3476 29.9682 17.689 29.9003 18.0076 29.7683C18.3261 29.6364 18.6156 29.443 18.8594 29.1991C19.1033 28.9553 19.2967 28.6659 19.4286 28.3473C19.5606 28.0287 19.6285 27.6873 19.6285 27.3424ZM17.0027 25.007C17.4641 25.0095 17.9144 25.1486 18.2968 25.4067C18.6792 25.6649 18.9765 26.0305 19.1514 26.4574C19.3262 26.8844 19.3706 27.3536 19.2791 27.8057C19.1876 28.2579 18.9642 28.6729 18.637 28.9983C18.3099 29.3236 17.8938 29.5448 17.4411 29.6339C16.9884 29.723 16.5195 29.676 16.0935 29.4989C15.6675 29.3217 15.3035 29.0224 15.0474 28.6386C14.7913 28.2548 14.6547 27.8038 14.6547 27.3424C14.6547 26.7231 14.9007 26.129 15.3387 25.691C15.7767 25.2531 16.3707 25.007 16.9901 25.007H17.0027Z" fill="url(#paint39_linear_663_1386)"/>
<path style="mix-blend-mode:screen" fill-rule="evenodd" clip-rule="evenodd" d="M17.0039 24.7482C17.4984 24.7482 17.9817 24.8948 18.3928 25.1695C18.804 25.4442 19.1244 25.8346 19.3136 26.2915C19.5028 26.7483 19.5523 27.2509 19.4559 27.7359C19.3594 28.2208 19.1213 28.6663 18.7717 29.0159C18.422 29.3656 17.9766 29.6037 17.4916 29.7001C17.0067 29.7966 16.504 29.7471 16.0472 29.5579C15.5904 29.3686 15.1999 29.0482 14.9252 28.6371C14.6505 28.226 14.5039 27.7426 14.5039 27.2482C14.5039 26.5851 14.7673 25.9492 15.2361 25.4804C15.705 25.0116 16.3409 24.7482 17.0039 24.7482ZM17.0039 25.3011C16.6172 25.3059 16.2405 25.4254 15.9218 25.6445C15.6031 25.8637 15.3566 26.1725 15.2136 26.5319C15.0706 26.8912 15.0375 27.285 15.1185 27.6632C15.1995 28.0414 15.391 28.387 15.6687 28.6562C15.9464 28.9255 16.2977 29.1062 16.6783 29.1755C17.0588 29.2449 17.4513 29.1996 17.8061 29.0456C18.1609 28.8915 18.4619 28.6356 18.6711 28.3103C18.8803 27.985 18.9882 27.6048 18.9811 27.2181C18.9811 26.7001 18.7753 26.2033 18.409 25.8371C18.0427 25.4708 17.5459 25.265 17.0279 25.265L17.0039 25.3011Z" fill="url(#paint40_radial_663_1386)"/>
<path fill-rule="evenodd" clip-rule="evenodd" d="M15.9867 29.1791C16.4623 29.4482 17.0247 29.5196 17.5525 29.3779C18.0803 29.2362 18.5312 28.8928 18.8081 28.4216C19.0629 27.9429 19.1264 27.3853 18.9858 26.8615C18.8452 26.3378 18.511 25.887 18.0507 25.6002C17.8186 25.4538 17.5588 25.357 17.2875 25.3159C17.0161 25.2748 16.7392 25.2903 16.4742 25.3614C16.2092 25.4326 15.9618 25.5578 15.7475 25.7293C15.5332 25.9007 15.3568 26.1147 15.2293 26.3576C15.091 26.5919 15.0008 26.8514 14.9641 27.121C14.9273 27.3905 14.9447 27.6647 15.0152 27.9275C15.0858 28.1902 15.208 28.4363 15.3748 28.6512C15.5416 28.8661 15.7497 29.0456 15.9867 29.1791Z" fill="url(#paint41_radial_663_1386)"/>
<path style="mix-blend-mode:multiply" fill-rule="evenodd" clip-rule="evenodd" d="M18.5176 28.0366C18.3962 28.2467 18.2344 28.4307 18.0416 28.5781C17.8488 28.7255 17.6288 28.8334 17.3942 28.8955C17.1596 28.9577 16.9151 28.9729 16.6746 28.9403C16.4341 28.9078 16.2024 28.828 15.9929 28.7056C15.7796 28.5873 15.5924 28.4271 15.4426 28.2346C15.2927 28.0422 15.1833 27.8215 15.1208 27.5857C15.0583 27.3499 15.0441 27.104 15.079 26.8626C15.1139 26.6212 15.1971 26.3893 15.3238 26.1809C15.3739 26.0904 15.4309 26.0039 15.4942 25.9221C15.3824 26.0475 15.285 26.1851 15.2039 26.3323C15.0656 26.5666 14.9754 26.8261 14.9387 27.0957C14.9019 27.3652 14.9193 27.6394 14.9899 27.9022C15.0604 28.1649 15.1826 28.411 15.3495 28.6259C15.5163 28.8408 15.7243 29.0203 15.9613 29.1538C16.4369 29.4229 16.9993 29.4943 17.5271 29.3526C18.0549 29.2109 18.5058 28.8675 18.7828 28.3963C19.0375 27.9176 19.101 27.36 18.9604 26.8363C18.8198 26.3125 18.4856 25.8617 18.0253 25.5749C17.8284 25.4617 17.6157 25.3787 17.3941 25.3287C17.5438 25.373 17.6878 25.4344 17.8233 25.5118C18.2377 25.7662 18.5383 26.1703 18.6628 26.6404C18.7874 27.1104 18.7264 27.6103 18.4924 28.0366H18.5176Z" fill="url(#paint42_radial_663_1386)"/>
<path style="mix-blend-mode:screen" fill-rule="evenodd" clip-rule="evenodd" d="M15.9168 25.6948C15.5562 25.9602 15.3012 26.3449 15.1973 26.7805C15.1973 26.9572 15.2478 27.3549 15.4624 27.3485C16.0734 27.21 16.6936 27.1151 17.3181 27.0645C17.6062 27.0885 17.8915 27.1392 18.1702 27.216C18.4479 27.2917 18.5994 27.1592 18.6184 26.8373C18.6249 26.579 18.5592 26.324 18.4288 26.101C18.2983 25.878 18.1082 25.6958 17.8798 25.5749C17.5767 25.4056 17.2316 25.3264 16.885 25.3466C16.5383 25.3667 16.2047 25.4853 15.9232 25.6885L15.9168 25.6948Z" fill="url(#paint43_radial_663_1386)"/>
<path style="mix-blend-mode:screen" fill-rule="evenodd" clip-rule="evenodd" d="M16.0252 25.72C16.2004 25.6027 16.3979 25.523 16.6055 25.4861C16.813 25.4491 17.0259 25.4557 17.2308 25.5054C17.3318 25.5054 17.4012 25.5812 17.4075 25.6254C17.4138 25.6695 17.3507 25.7074 17.2434 25.739C17.1361 25.7705 16.8332 25.8526 16.6122 25.922C16.4618 25.9698 16.3161 26.031 16.1767 26.1051C15.8106 26.3134 15.5455 26.0483 16.0252 25.7137V25.72ZM17.9567 25.72C18.1019 25.8021 18.2786 26.0483 18.0072 26.0104C17.9037 25.9934 17.8021 25.9659 17.7042 25.9283C17.6285 25.9283 17.5401 25.8147 17.5653 25.739C17.5906 25.6632 17.8557 25.6632 17.9567 25.739V25.72Z" fill="url(#paint44_radial_663_1386)"/>
</g>
<path d="M20.4131 18.6914V20.2295H13.6045V18.917L16.8242 15.4648C17.1478 15.1048 17.403 14.7881 17.5898 14.5146C17.7767 14.2367 17.9111 13.9883 17.9932 13.7695C18.0798 13.5462 18.123 13.3343 18.123 13.1338C18.123 12.833 18.0729 12.5755 17.9727 12.3613C17.8724 12.1426 17.7243 11.974 17.5283 11.8555C17.3369 11.737 17.0999 11.6777 16.8174 11.6777C16.5166 11.6777 16.2568 11.7507 16.0381 11.8965C15.8239 12.0423 15.6598 12.2451 15.5459 12.5049C15.4365 12.7646 15.3818 13.0586 15.3818 13.3867H13.4062C13.4062 12.7943 13.5475 12.252 13.8301 11.7598C14.1126 11.263 14.5114 10.8688 15.0264 10.5771C15.5413 10.2809 16.152 10.1328 16.8584 10.1328C17.5557 10.1328 18.1436 10.2467 18.6221 10.4746C19.1051 10.6979 19.4697 11.0215 19.7158 11.4453C19.9665 11.8646 20.0918 12.3659 20.0918 12.9492C20.0918 13.2773 20.0394 13.5986 19.9346 13.9131C19.8298 14.223 19.6794 14.5329 19.4834 14.8428C19.292 15.1481 19.0596 15.458 18.7861 15.7725C18.5127 16.0869 18.2096 16.4128 17.877 16.75L16.1475 18.6914H20.4131Z" fill="#C6403C"/>
<defs>
<filter id="filter0_d_663_1386" x="0.476562" y="0" width="33.0469" height="33.9998" filterUnits="userSpaceOnUse" color-interpolation-filters="sRGB">
<feFlood flood-opacity="0" result="BackgroundImageFix"/>
<feColorMatrix in="SourceAlpha" type="matrix" values="0 0 0 0 0 0 0 0 0 0 0 0 0 0 0 0 0 0 127 0" result="hardAlpha"/>
<feOffset dy="2"/>
<feGaussianBlur stdDeviation="1"/>
<feComposite in2="hardAlpha" operator="out"/>
<feColorMatrix type="matrix" values="0 0 0 0 0 0 0 0 0 0 0 0 0 0 0 0 0 0 0.25 0"/>
<feBlend mode="normal" in2="BackgroundImageFix" result="effect1_dropShadow_663_1386"/>
<feBlend mode="normal" in="SourceGraphic" in2="effect1_dropShadow_663_1386" result="shape"/>
</filter>
<radialGradient id="paint0_radial_663_1386" cx="0" cy="0" r="1" gradientUnits="userSpaceOnUse" gradientTransform="translate(17.3665 6.45493) scale(18.0224 18.0224)">
<stop stop-color="#FFA9A6"/>
<stop offset="1" stop-color="#DA5652"/>
</radialGradient>
<linearGradient id="paint1_linear_663_1386" x1="17.0018" y1="26.1788" x2="17.0018" y2="4.31965" gradientUnits="userSpaceOnUse">
<stop stop-color="#F1635E"/>
<stop offset="1" stop-color="#AC2C27"/>
</linearGradient>
<linearGradient id="paint2_linear_663_1386" x1="17.0017" y1="27.9999" x2="17.0017" y2="14.9999" gradientUnits="userSpaceOnUse">
<stop stop-color="#650704"/>
<stop offset="1" stop-color="#F1635E"/>
</linearGradient>
<radialGradient id="paint3_radial_663_1386" cx="0" cy="0" r="1" gradientUnits="userSpaceOnUse" gradientTransform="translate(21.4905 27.9908) scale(21.5156 21.5156)">
<stop stop-color="#A48457"/>
<stop offset="1" stop-color="#070D0D"/>
</radialGradient>
<linearGradient id="paint4_linear_663_1386" x1="17.0019" y1="26.1787" x2="17.0019" y2="15.2491" gradientUnits="userSpaceOnUse">
<stop stop-color="#F1635E"/>
<stop offset="1" stop-color="#070D0D"/>
</linearGradient>
<linearGradient id="paint5_linear_663_1386" x1="17.0023" y1="15.249" x2="17.0023" y2="2.96553" gradientUnits="userSpaceOnUse">
<stop stop-color="#650704"/>
<stop offset="1" stop-color="#F1635E"/>
</linearGradient>
<radialGradient id="paint6_radial_663_1386" cx="0" cy="0" r="1" gradientUnits="userSpaceOnUse" gradientTransform="translate(17.9216 21.9165) scale(18.0878 18.0878)">
<stop stop-color="#A48457"/>
<stop offset="1" stop-color="#070D0D"/>
</radialGradient>
<linearGradient id="paint7_linear_663_1386" x1="11.8899" y1="8.32007" x2="16.7861" y2="0.327393" gradientUnits="userSpaceOnUse">
<stop offset="0.06" stop-color="#DADADA"/>
<stop offset="0.56" stop-color="#686868"/>
<stop offset="1" stop-color="#DADADA"/>
</linearGradient>
<linearGradient id="paint8_linear_663_1386" x1="22.2009" y1="8.48765" x2="17.0592" y2="0.040955" gradientUnits="userSpaceOnUse">
<stop stop-color="#686868"/>
<stop offset="1" stop-color="#DADADA"/>
</linearGradient>
<linearGradient id="paint9_linear_663_1386" x1="21.8086" y1="8.26672" x2="31.7647" y2="10.5083" gradientUnits="userSpaceOnUse">
<stop offset="0.06" stop-color="#DADADA"/>
<stop offset="0.56" stop-color="#686868"/>
<stop offset="1" stop-color="#DADADA"/>
</linearGradient>
<linearGradient id="paint10_linear_663_1386" x1="25.297" y1="17.8465" x2="31.6412" y2="10.3897" gradientUnits="userSpaceOnUse">
<stop stop-color="#686868"/>
<stop offset="1" stop-color="#DADADA"/>
</linearGradient>
<linearGradient id="paint11_linear_663_1386" x1="25.2723" y1="17.6706" x2="25.9963" y2="28.0357" gradientUnits="userSpaceOnUse">
<stop stop-color="#686868"/>
<stop offset="1" stop-color="#DADADA"/>
</linearGradient>
<linearGradient id="paint12_linear_663_1386" x1="17.002" y1="25.647" x2="25.9559" y2="25.647" gradientUnits="userSpaceOnUse">
<stop stop-color="#686868"/>
<stop offset="1" stop-color="#DADADA"/>
</linearGradient>
<linearGradient id="paint13_linear_663_1386" x1="7.73014" y1="27.6676" x2="17.2731" y2="23.8921" gradientUnits="userSpaceOnUse">
<stop stop-color="#DADADA"/>
<stop offset="0.73" stop-color="#686868"/>
<stop offset="1" stop-color="#DADADA"/>
</linearGradient>
<linearGradient id="paint14_linear_663_1386" x1="8.75927" y1="17.777" x2="8.04753" y2="27.3976" gradientUnits="userSpaceOnUse">
<stop stop-color="#DADADA"/>
<stop offset="0.22" stop-color="#686868"/>
<stop offset="1" stop-color="#DADADA"/>
</linearGradient>
<linearGradient id="paint15_linear_663_1386" x1="8.68248" y1="18.1615" x2="3.00499" y2="10.8723" gradientUnits="userSpaceOnUse">
<stop stop-color="#DADADA"/>
<stop offset="0.65" stop-color="#686868"/>
<stop offset="1" stop-color="#DADADA"/>
</linearGradient>
<linearGradient id="paint16_linear_663_1386" x1="2.51367" y1="9.34241" x2="12.118" y2="9.34241" gradientUnits="userSpaceOnUse">
<stop stop-color="#DADADA"/>
<stop offset="1" stop-color="#686868"/>
</linearGradient>
<linearGradient id="paint17_linear_663_1386" x1="3.16016" y1="9.8171" x2="12.5476" y2="9.8171" gradientUnits="userSpaceOnUse">
<stop stop-color="#757575"/>
<stop offset="1" stop-color="#EFEFEF"/>
</linearGradient>
<linearGradient id="paint18_linear_663_1386" x1="9.64765" y1="17.7525" x2="3.60201" y2="11.0483" gradientUnits="userSpaceOnUse">
<stop stop-color="#757575"/>
<stop offset="1" stop-color="#EFEFEF"/>
</linearGradient>
<linearGradient id="paint19_linear_663_1386" x1="9.47981" y1="17.4376" x2="8.70672" y2="27.0255" gradientUnits="userSpaceOnUse">
<stop stop-color="#757575"/>
<stop offset="1" stop-color="#EFEFEF"/>
</linearGradient>
<linearGradient id="paint20_linear_663_1386" x1="8.19561" y1="26.8617" x2="17.1045" y2="23.1313" gradientUnits="userSpaceOnUse">
<stop stop-color="#EFEFEF"/>
<stop offset="0.484375" stop-color="#757575"/>
<stop offset="1" stop-color="#EFEFEF"/>
</linearGradient>
<linearGradient id="paint21_linear_663_1386" x1="16.5111" y1="23.0578" x2="26.5817" y2="27.0787" gradientUnits="userSpaceOnUse">
<stop stop-color="#EFEFEF"/>
<stop offset="1" stop-color="#757575"/>
</linearGradient>
<linearGradient id="paint22_linear_663_1386" x1="24.5401" y1="17.6748" x2="25.3296" y2="27.3323" gradientUnits="userSpaceOnUse">
<stop stop-color="#757575"/>
<stop offset="1" stop-color="#EFEFEF"/>
</linearGradient>
<linearGradient id="paint23_linear_663_1386" x1="24.2131" y1="14.2838" x2="30.8559" y2="14.2838" gradientUnits="userSpaceOnUse">
<stop stop-color="#757575"/>
<stop offset="1" stop-color="#EFEFEF"/>
</linearGradient>
<linearGradient id="paint24_linear_663_1386" x1="21.4609" y1="9.8171" x2="30.8484" y2="9.8171" gradientUnits="userSpaceOnUse">
<stop stop-color="#EFEFEF"/>
<stop offset="1" stop-color="#757575"/>
</linearGradient>
<linearGradient id="paint25_linear_663_1386" x1="21.7753" y1="9.09696" x2="16.8054" y2="0.768871" gradientUnits="userSpaceOnUse">
<stop stop-color="#EFEFEF"/>
<stop offset="1" stop-color="#757575"/>
</linearGradient>
<linearGradient id="paint26_linear_663_1386" x1="12.2074" y1="9.04408" x2="17.0709" y2="1.07595" gradientUnits="userSpaceOnUse">
<stop stop-color="#757575"/>
<stop offset="1" stop-color="#EFEFEF"/>
</linearGradient>
<linearGradient id="paint27_linear_663_1386" x1="20.4268" y1="26.7063" x2="20.4268" y2="25.6633" gradientUnits="userSpaceOnUse">
<stop stop-color="#85603C"/>
<stop offset="0.1" stop-color="#8B6845"/>
<stop offset="0.27" stop-color="#9A7C5E"/>
<stop offset="0.49" stop-color="#B49D87"/>
<stop offset="0.75" stop-color="#D7CBBF"/>
<stop offset="1" stop-color="white"/>
</linearGradient>
<radialGradient id="paint28_radial_663_1386" cx="0" cy="0" r="1" gradientUnits="userSpaceOnUse" gradientTransform="translate(5.47559 18.8265) scale(11 10.5644)">
<stop stop-color="#848484"/>
<stop offset="1" stop-color="#D9D9D9"/>
</radialGradient>
<radialGradient id="paint29_radial_663_1386" cx="0" cy="0" r="1" gradientUnits="userSpaceOnUse" gradientTransform="translate(27.4756 18.8265) rotate(180) scale(9 8.64357)">
<stop stop-color="#848484"/>
<stop offset="1" stop-color="#D9D9D9"/>
</radialGradient>
<radialGradient id="paint30_radial_663_1386" cx="0" cy="0" r="1" gradientUnits="userSpaceOnUse" gradientTransform="translate(7.97559 24.0001) rotate(-110.556) scale(4.272 4.10282)">
<stop stop-color="white"/>
<stop offset="0.953125" stop-color="#848484"/>
</radialGradient>
<radialGradient id="paint31_radial_663_1386" cx="0" cy="0" r="1" gradientUnits="userSpaceOnUse" gradientTransform="translate(25.9756 23.5001) rotate(-54.4623) scale(4.30116 4.13082)">
<stop stop-color="white"/>
<stop offset="1" stop-color="#848484"/>
</radialGradient>
<radialGradient id="paint32_radial_663_1386" cx="0" cy="0" r="1" gradientUnits="userSpaceOnUse" gradientTransform="translate(7.47656 21.5163) scale(8.5)">
<stop stop-color="#848484"/>
<stop offset="1" stop-color="#D9D9D9"/>
</radialGradient>
<radialGradient id="paint33_radial_663_1386" cx="0" cy="0" r="1" gradientUnits="userSpaceOnUse" gradientTransform="translate(12.5415 22.9239) scale(5.89536 5.89537)">
<stop offset="0.380208" stop-color="white"/>
<stop offset="0.76" stop-color="#848484"/>
</radialGradient>
<radialGradient id="paint34_radial_663_1386" cx="0" cy="0" r="1" gradientUnits="userSpaceOnUse" gradientTransform="translate(26.4756 21.5163) rotate(180) scale(8 7.99998)">
<stop stop-color="#848484"/>
<stop offset="1" stop-color="#D9D9D9"/>
</radialGradient>
<radialGradient id="paint35_radial_663_1386" cx="0" cy="0" r="1" gradientUnits="userSpaceOnUse" gradientTransform="translate(21.3661 22.9239) rotate(180) scale(5.8954 5.89537)">
<stop offset="0.46" stop-color="white"/>
<stop offset="0.76" stop-color="#848484"/>
</radialGradient>
<linearGradient id="paint36_linear_663_1386" x1="5.54688" y1="23.7258" x2="16.9967" y2="23.7258" gradientUnits="userSpaceOnUse">
<stop stop-color="#E8A2D6"/>
<stop offset="1" stop-color="#F0CAE8"/>
</linearGradient>
<linearGradient id="paint37_linear_663_1386" x1="16.9976" y1="23.7258" x2="28.4538" y2="23.7258" gradientUnits="userSpaceOnUse">
<stop stop-color="#F0CAE8"/>
<stop offset="1" stop-color="#E8A2D6"/>
</linearGradient>
<linearGradient id="paint38_linear_663_1386" x1="16.9969" y1="29.9998" x2="16.9969" y2="24.7483" gradientUnits="userSpaceOnUse">
<stop stop-color="#E0E0E0"/>
<stop offset="0.99" stop-color="#646564"/>
</linearGradient>
<linearGradient id="paint39_linear_663_1386" x1="16.9964" y1="29.9998" x2="16.9964" y2="24.7482" gradientUnits="userSpaceOnUse">
<stop offset="0.01" stop-color="#7F8882"/>
<stop offset="1" stop-color="#E0E0E0"/>
</linearGradient>
<radialGradient id="paint40_radial_663_1386" cx="0" cy="0" r="1" gradientUnits="userSpaceOnUse" gradientTransform="translate(17.0039 27.2482) scale(2.5)">
<stop offset="0.79"/>
<stop offset="0.91" stop-color="#A2A7A4"/>
<stop offset="1"/>
</radialGradient>
<radialGradient id="paint41_radial_663_1386" cx="0" cy="0" r="1" gradientUnits="userSpaceOnUse" gradientTransform="translate(17.1165 25.9663) scale(2.82144 2.82144)">
<stop stop-color="#EEEAE1"/>
<stop offset="0.93" stop-color="#757472"/>
</radialGradient>
<radialGradient id="paint42_radial_663_1386" cx="0" cy="0" r="1" gradientUnits="userSpaceOnUse" gradientTransform="translate(16.9965 27.3991) scale(2.5879 2.5879)">
<stop offset="0.53" stop-color="white"/>
<stop offset="1" stop-color="#A3A3A3"/>
</radialGradient>
<radialGradient id="paint43_radial_663_1386" cx="0" cy="0" r="1" gradientUnits="userSpaceOnUse" gradientTransform="translate(16.3713 23.675) scale(4.75291 4.75288)">
<stop stop-color="#EBE3D2"/>
<stop offset="1" stop-color="#121212"/>
</radialGradient>
<radialGradient id="paint44_radial_663_1386" cx="0" cy="0" r="1" gradientUnits="userSpaceOnUse" gradientTransform="translate(16.7259 24.9437) scale(2.84668 2.84667)">
<stop stop-color="white"/>
<stop offset="1" stop-color="#121212"/>
</radialGradient>
</defs>
</svg>
