<svg width="34" height="35" viewBox="0 0 34 35" fill="none" xmlns="http://www.w3.org/2000/svg">
<g filter="url(#filter0_d_663_1660)">
<path fill-rule="evenodd" clip-rule="evenodd" d="M17.1861 6.15164C19.1617 6.15164 21.0929 6.73747 22.7355 7.83506C24.3782 8.93264 25.6585 10.4927 26.4145 12.3179C27.1705 14.1431 27.3683 16.1515 26.9829 18.0892C26.5975 20.0268 25.6462 21.8066 24.2492 23.2036C22.8522 24.6005 21.0724 25.5519 19.1348 25.9373C17.1971 26.3227 15.1887 26.1249 13.3635 25.3689C11.5383 24.6128 9.97826 23.3326 8.88068 21.6899C7.7831 20.0473 7.19727 18.116 7.19727 16.1404C7.19727 13.4912 8.24966 10.9505 10.1229 9.07728C11.9962 7.20402 14.5369 6.15164 17.1861 6.15164Z" fill="url(#paint0_radial_663_1660)"/>
<path fill-rule="evenodd" clip-rule="evenodd" d="M17.1854 6.56866C19.0785 6.56866 20.9291 7.13002 22.5031 8.18176C24.0772 9.2335 25.304 10.7284 26.0284 12.4773C26.7529 14.2263 26.9424 16.1508 26.5731 18.0075C26.2038 19.8643 25.2922 21.5697 23.9536 22.9084C22.615 24.247 20.9095 25.1586 19.0527 25.5279C17.196 25.8972 15.2715 25.7077 13.5226 24.9832C11.7736 24.2588 10.2787 23.0319 9.22697 21.4579C8.17523 19.8839 7.61386 18.0333 7.61386 16.1402C7.61386 14.8833 7.86144 13.6386 8.34245 12.4773C8.82347 11.3161 9.52852 10.2609 10.4173 9.3721C11.3061 8.4833 12.3613 7.77826 13.5226 7.29725C14.6838 6.81623 15.9285 6.56866 17.1854 6.56866ZM28.115 16.1402C28.1191 13.9777 27.4815 11.8626 26.283 10.0625C25.0845 8.26246 23.379 6.85841 21.3822 6.02804C19.3854 5.19767 17.1872 4.9783 15.0657 5.39771C12.9443 5.81712 10.9949 6.85645 9.46431 8.38416C7.93373 9.91187 6.89076 11.8593 6.46737 13.98C6.04399 16.1007 6.25924 18.2993 7.08587 20.2976C7.9125 22.2959 9.31336 24.0041 11.1112 25.206C12.909 26.4078 15.0229 27.0494 17.1854 27.0494C18.6207 27.0494 20.042 26.7667 21.368 26.2174C22.694 25.6681 23.8989 24.8631 24.9138 23.8482C25.9287 22.8333 26.7338 21.6284 27.283 20.3024C27.8323 18.9763 28.115 17.5551 28.115 16.1198V16.1402Z" fill="url(#paint1_linear_663_1660)"/>
<path fill-rule="evenodd" clip-rule="evenodd" d="M17.1853 27.0495C19.347 27.0495 21.4601 26.4084 23.2575 25.2075C25.0548 24.0065 26.4557 22.2996 27.2829 20.3025C28.1102 18.3053 28.3266 16.1078 27.9049 13.9876C27.4832 11.8675 26.4422 9.92002 24.9137 8.39149C23.3852 6.86296 21.4377 5.82202 19.3176 5.4003C17.1974 4.97857 14.9999 5.19502 13.0027 6.02225C11.0056 6.84949 9.29865 8.25036 8.09769 10.0477C6.89673 11.8451 6.25573 13.9582 6.25573 16.1199C6.25573 17.5552 6.53843 18.9764 7.0877 20.3025C7.63696 21.6285 8.44203 22.8334 9.45694 23.8483C10.4718 24.8632 11.6767 25.6682 13.0027 26.2175C14.3288 26.7668 15.75 27.0495 17.1853 27.0495ZM29.4565 16.1199C29.4565 18.5469 28.7369 20.9194 27.3885 22.9374C26.0401 24.9554 24.1236 26.5282 21.8813 27.457C19.639 28.3858 17.1717 28.6288 14.7913 28.1553C12.4109 27.6818 10.2244 26.5131 8.50823 24.797C6.79207 23.0808 5.62334 20.8943 5.14986 18.5139C4.67637 16.1335 4.91938 13.6662 5.84816 11.4239C6.77695 9.1816 8.34978 7.26509 10.3678 5.91671C12.3858 4.56833 14.7583 3.84863 17.1853 3.84863C20.4399 3.84863 23.5611 5.1415 25.8624 7.4428C28.1637 9.7441 29.4565 12.8653 29.4565 16.1199Z" fill="url(#paint2_linear_663_1660)"/>
<path style="mix-blend-mode:screen" fill-rule="evenodd" clip-rule="evenodd" d="M17.1869 27.0492C14.3808 27.0528 11.6816 25.9728 9.65234 24.0346C10.6336 25.039 11.8055 25.8374 13.0993 26.3832C14.393 26.9289 15.7827 27.211 17.1869 27.2129C18.3624 27.2136 19.5296 27.0158 20.6392 26.6279C20.7061 26.7256 20.8044 26.7976 20.9177 26.8318C21.0311 26.866 21.1528 26.8604 21.2626 26.8161C21.3723 26.7717 21.4637 26.6911 21.5214 26.5877C21.5791 26.4843 21.5998 26.3643 21.58 26.2475C22.7531 25.7034 23.8187 24.9524 24.7255 24.0305C22.6959 25.9712 19.995 27.0527 17.1869 27.0492Z" fill="url(#paint3_radial_663_1660)"/>
<path style="mix-blend-mode:screen" fill-rule="evenodd" clip-rule="evenodd" d="M17.1855 25.712C14.647 25.712 12.2124 24.7035 10.4174 22.9085C8.6224 21.1135 7.61396 18.6789 7.61396 16.1404C7.16364 16.2057 6.70627 16.2057 6.25595 16.1404C6.22784 17.5932 6.48971 19.037 7.02625 20.3874C7.56279 21.7378 8.36321 22.9677 9.38071 24.0051C10.3982 25.0425 11.6124 25.8665 12.9521 26.4291C14.2919 26.9917 15.7304 27.2814 17.1835 27.2814C18.6366 27.2814 20.0751 26.9917 21.4148 26.4291C22.7546 25.8665 23.9688 25.0425 24.9863 24.0051C26.0038 22.9677 26.8042 21.7378 27.3407 20.3874C27.8773 19.037 28.1391 17.5932 28.111 16.1404C27.6607 16.2057 27.2033 16.2057 26.753 16.1404C26.753 18.6789 25.7446 21.1135 23.9496 22.9085C22.1545 24.7035 19.72 25.712 17.1814 25.712H17.1855Z" fill="url(#paint4_linear_663_1660)"/>
<path style="mix-blend-mode:screen" fill-rule="evenodd" clip-rule="evenodd" d="M6.26035 16.1402C6.31572 13.2786 7.49135 10.5529 9.53463 8.54881C11.5779 6.54467 14.3258 5.422 17.1879 5.422C20.05 5.422 22.7979 6.54467 24.8412 8.54881C26.8844 10.5529 28.0601 13.2786 28.1154 16.1402C28.5658 16.0749 29.0231 16.0749 29.4735 16.1402C29.4735 12.8818 28.1791 9.75694 25.8751 7.45295C23.5711 5.14896 20.4462 3.8546 17.1879 3.8546C13.9296 3.8546 10.8047 5.14896 8.50069 7.45295C6.1967 9.75694 4.90234 12.8818 4.90234 16.1402C5.35267 16.0749 5.81003 16.0749 6.26035 16.1402Z" fill="url(#paint5_linear_663_1660)"/>
<path style="mix-blend-mode:screen" fill-rule="evenodd" clip-rule="evenodd" d="M17.1849 25.712C14.6463 25.712 12.2118 24.7035 10.4167 22.9085C8.62172 21.1135 7.61328 18.6789 7.61328 16.1404C7.61328 21.6583 11.9 26.1292 17.1849 26.1292C22.4697 26.1292 26.7564 21.6583 26.7564 16.1404C26.7564 18.6789 25.748 21.1135 23.953 22.9085C22.158 24.7035 19.7234 25.712 17.1849 25.712Z" fill="url(#paint6_radial_663_1660)"/>
<g style="mix-blend-mode:multiply" opacity="0.35">
<path fill-rule="evenodd" clip-rule="evenodd" d="M17.185 7.07989C21.5536 7.07989 25.239 9.82456 26.4089 13.5836C25.8485 11.5674 24.643 9.79023 22.9769 8.52402C21.3107 7.25781 19.2756 6.57227 17.183 6.57227C15.0903 6.57227 13.0552 7.25781 11.389 8.52402C9.7229 9.79023 8.51743 11.5674 7.95703 13.5836C9.12689 9.82456 12.8164 7.07989 17.1809 7.07989H17.185Z" fill="#85603C"/>
</g>
<path fill-rule="evenodd" clip-rule="evenodd" d="M12.3025 9.41559L13.6319 7.25584C13.2456 7.41109 12.8698 7.59145 12.5071 7.79578L11.873 8.82656L12.3025 9.41967V9.41559ZM15.6608 3.95079L17.072 1.65198C17.0824 1.63096 17.0989 1.61352 17.1193 1.60187C17.1397 1.59021 17.1631 1.58488 17.1865 1.58653V0.90752C17.0473 0.905974 16.9102 0.941068 16.7888 1.00927C16.6675 1.07748 16.5662 1.1764 16.4952 1.29611L14.7772 4.09396C15.0663 4.03669 15.3608 3.98897 15.6608 3.95079Z" fill="url(#paint7_linear_663_1660)"/>
<path fill-rule="evenodd" clip-rule="evenodd" d="M17.3001 1.64789L22.0695 9.41967L22.499 8.82656L17.8768 1.27975C17.8058 1.16004 17.7045 1.06112 17.5832 0.992911C17.4619 0.924704 17.3247 0.889616 17.1855 0.891162V1.57017C17.209 1.56852 17.2324 1.57386 17.2527 1.58551C17.2731 1.59716 17.2896 1.61459 17.3001 1.63561V1.64789Z" fill="url(#paint8_linear_663_1660)"/>
<path fill-rule="evenodd" clip-rule="evenodd" d="M31.0934 10.8963L27.9029 10.1273C28.0501 10.4 28.1865 10.6645 28.3119 10.9208L30.9339 11.5548C30.9574 11.5583 30.9793 11.5687 30.9968 11.5847C31.0143 11.6008 31.0266 11.6217 31.032 11.6448L31.6742 11.4362C31.6333 11.3032 31.558 11.1832 31.4561 11.0885C31.3541 10.9937 31.2291 10.9274 31.0934 10.8963ZM23.6775 9.10875L22.5076 8.82651L22.0781 9.41962L24.5324 10.0127C24.2659 9.69318 23.9789 9.39122 23.6734 9.10875H23.6775Z" fill="url(#paint9_linear_663_1660)"/>
<path fill-rule="evenodd" clip-rule="evenodd" d="M30.9985 11.7716L25.0879 18.7253L25.7833 18.9503L31.5098 12.2257C31.6016 12.1211 31.6643 11.9943 31.6915 11.8579C31.7188 11.7215 31.7098 11.5803 31.6653 11.4485L31.0231 11.6571C31.0326 11.6789 31.0353 11.703 31.0309 11.7263C31.0265 11.7497 31.0153 11.7711 30.9985 11.788V11.7716Z" fill="url(#paint10_linear_663_1660)"/>
<path fill-rule="evenodd" clip-rule="evenodd" d="M26.4703 27.7447L26.2167 24.4724C26.0149 24.6905 25.8049 24.9019 25.5867 25.1064L25.7953 27.802C25.7986 27.8252 25.7949 27.8489 25.7847 27.87C25.7745 27.8911 25.7583 27.9087 25.7381 27.9206L26.1471 28.4687C26.2606 28.3883 26.3509 28.2794 26.4091 28.1531C26.4672 28.0267 26.4912 27.8873 26.4785 27.7488L26.4703 27.7447ZM25.8812 20.1406L25.7872 18.934L25.0918 18.709L25.2881 21.2369C25.5095 20.8848 25.7076 20.5186 25.8812 20.1406Z" fill="url(#paint11_linear_663_1660)"/>
<path fill-rule="evenodd" clip-rule="evenodd" d="M25.6118 27.9329L17.1855 24.4561V25.1882L25.3664 28.5587C25.4946 28.6139 25.6351 28.6342 25.7737 28.6177C25.9123 28.6012 26.0441 28.5484 26.1558 28.4647L25.7468 27.9165C25.7274 27.9294 25.7046 27.9362 25.6813 27.9362C25.6581 27.9362 25.6353 27.9294 25.6159 27.9165L25.6118 27.9329Z" fill="url(#paint12_linear_663_1660)"/>
<path fill-rule="evenodd" clip-rule="evenodd" d="M9.02223 28.5587L12.0573 27.307C11.7846 27.1816 11.5187 27.0452 11.2597 26.898L8.76455 27.9288C8.74514 27.9416 8.72237 27.9484 8.6991 27.9484C8.67582 27.9484 8.65306 27.9416 8.63365 27.9288L8.22461 28.4769C8.3363 28.5606 8.46809 28.6134 8.6067 28.6299C8.74531 28.6464 8.88582 28.6261 9.01406 28.571L9.02223 28.5587ZM16.0741 25.6463L17.1908 25.1841V24.4519L14.8429 25.4132C15.2466 25.5149 15.6565 25.59 16.07 25.6381L16.0741 25.6463Z" fill="url(#paint13_linear_663_1660)"/>
<path fill-rule="evenodd" clip-rule="evenodd" d="M8.57472 27.7979L9.27827 18.709L8.58291 18.934L7.89981 27.7406C7.88709 27.8791 7.91101 28.0185 7.96916 28.1449C8.02731 28.2713 8.11765 28.3801 8.23113 28.4605L8.64017 27.9124C8.61997 27.9005 8.60375 27.8829 8.59356 27.8618C8.58337 27.8407 8.57967 27.817 8.58291 27.7938L8.57472 27.7979Z" fill="url(#paint14_linear_663_1660)"/>
<path fill-rule="evenodd" clip-rule="evenodd" d="M2.85317 12.2093L4.98427 14.7085C5.01972 14.4113 5.06473 14.1168 5.11926 13.825L3.36857 11.7798C3.35185 11.763 3.34056 11.7415 3.33619 11.7181C3.33181 11.6948 3.33455 11.6707 3.34403 11.6489L2.70183 11.4403C2.65735 11.5721 2.64828 11.7133 2.67556 11.8497C2.70285 11.9861 2.76551 12.1129 2.85727 12.2175L2.85317 12.2093ZM7.79848 18.0136L8.58385 18.9339L9.27921 18.709L7.64304 16.7824C7.67107 17.1945 7.72572 17.6044 7.80666 18.0095L7.79848 18.0136Z" fill="url(#paint15_linear_663_1660)"/>
<path fill-rule="evenodd" clip-rule="evenodd" d="M3.43763 11.5508L12.2975 9.41147L11.868 8.81836L3.27811 10.8922C3.14244 10.9234 3.01736 10.9896 2.91541 11.0844C2.81345 11.1792 2.73822 11.2991 2.69727 11.4321L3.33946 11.6407C3.34494 11.6176 3.35723 11.5967 3.37473 11.5807C3.39223 11.5646 3.41414 11.5542 3.43763 11.5508Z" fill="url(#paint16_linear_663_1660)"/>
<path fill-rule="evenodd" clip-rule="evenodd" d="M12.3018 9.41565L3.44192 11.5549C3.41843 11.5584 3.39652 11.5688 3.37901 11.5848C3.36151 11.6009 3.34923 11.6218 3.34375 11.6449L4.45633 12.0049L12.7312 10.0088L12.3018 9.41565Z" fill="url(#paint17_linear_663_1660)"/>
<path fill-rule="evenodd" clip-rule="evenodd" d="M9.97849 18.4841L7.62651 15.7231C7.62651 15.8621 7.62651 15.9985 7.62651 16.1321C7.62651 16.3475 7.63333 16.5616 7.64696 16.7743L9.28313 18.7009L9.97849 18.4759V18.4841ZM5.30725 13.0029L4.45643 12.0049L3.34385 11.6449C3.33438 11.6667 3.33164 11.6908 3.33601 11.7141C3.34039 11.7375 3.35167 11.759 3.36839 11.7758L5.11909 13.821C5.17363 13.5483 5.23635 13.2756 5.30725 13.0029Z" fill="url(#paint18_linear_663_1660)"/>
<path fill-rule="evenodd" clip-rule="evenodd" d="M9.27891 18.7091L8.57536 27.798C8.57211 27.8212 8.57583 27.8449 8.58602 27.866C8.59621 27.8871 8.61243 27.9047 8.63263 27.9166L9.31982 26.9717L9.97837 18.4841L9.28301 18.7091H9.27891Z" fill="url(#paint19_linear_663_1660)"/>
<path fill-rule="evenodd" clip-rule="evenodd" d="M17.1859 23.7197L13.8317 25.1064C14.1624 25.2301 14.4997 25.3352 14.8421 25.4213L17.1859 24.4519V23.7197ZM10.5471 26.4685L9.32 26.9716L8.63281 27.9165C8.65222 27.9293 8.67499 27.9362 8.69826 27.9362C8.72154 27.9362 8.7443 27.9293 8.76371 27.9165L11.2589 26.8857C11.0134 26.7493 10.7721 26.6048 10.5349 26.4521L10.5471 26.4685Z" fill="url(#paint20_linear_663_1660)"/>
<path fill-rule="evenodd" clip-rule="evenodd" d="M17.1855 24.4519L25.6118 27.9288C25.6312 27.9416 25.654 27.9484 25.6772 27.9484C25.7005 27.9484 25.7233 27.9416 25.7427 27.9288L25.0555 26.9839L17.1855 23.7361V24.4683V24.4519Z" fill="url(#paint21_linear_663_1660)"/>
<path fill-rule="evenodd" clip-rule="evenodd" d="M24.3965 18.4841L24.6787 22.1001C24.899 21.8239 25.1038 21.5358 25.2923 21.237L25.096 18.7091L24.4006 18.4841H24.3965ZM24.9528 25.6628L25.055 26.9717L25.7422 27.9166C25.7624 27.9047 25.7787 27.8871 25.7888 27.866C25.799 27.8449 25.8028 27.8212 25.7995 27.798L25.5909 25.1024C25.3864 25.296 25.175 25.4815 24.9569 25.6587L24.9528 25.6628Z" fill="url(#paint22_linear_663_1660)"/>
<path fill-rule="evenodd" clip-rule="evenodd" d="M25.092 18.7089L31.0027 11.7552C31.0194 11.7383 31.0307 11.7168 31.0351 11.6935C31.0394 11.6701 31.0367 11.646 31.0272 11.6243L29.9146 11.9842L24.3926 18.4634L25.0879 18.6884L25.092 18.7089Z" fill="url(#paint23_linear_663_1660)"/>
<path fill-rule="evenodd" clip-rule="evenodd" d="M21.6445 10.0088L25.1705 10.8596C24.975 10.5645 24.7633 10.2805 24.5365 10.0088L22.0822 9.41565L21.6527 10.0088H21.6445ZM28.6473 11.6981L29.9194 12.0049L31.032 11.6449C31.0266 11.6218 31.0143 11.6009 30.9968 11.5848C30.9793 11.5688 30.9574 11.5584 30.9339 11.5549L28.3119 10.9209C28.4319 11.1745 28.5423 11.4336 28.6432 11.6981H28.6473Z" fill="url(#paint24_linear_663_1660)"/>
<path fill-rule="evenodd" clip-rule="evenodd" d="M22.0734 9.41542L17.304 1.64362C17.2935 1.6226 17.2771 1.60516 17.2567 1.59351C17.2363 1.58186 17.2129 1.57652 17.1895 1.57818V2.74803L21.6439 10.0003L22.0734 9.40723V9.41542Z" fill="url(#paint25_linear_663_1660)"/>
<path fill-rule="evenodd" clip-rule="evenodd" d="M12.7305 10.0088L14.6284 6.91647C14.2883 7.01091 13.9537 7.12425 13.6263 7.25597L12.2969 9.41572L12.7264 10.0088H12.7305ZM16.4977 3.8732L17.1849 2.75243V1.58257C17.1615 1.58092 17.1381 1.58625 17.1177 1.5979C17.0973 1.60956 17.0809 1.62699 17.0704 1.64801L15.6592 3.94683C15.9319 3.91138 16.2128 3.88683 16.5018 3.8732H16.4977Z" fill="url(#paint26_linear_663_1660)"/>
<path style="mix-blend-mode:multiply" opacity="0.5" fill-rule="evenodd" clip-rule="evenodd" d="M18.8965 26.9347L21.6207 27.6014C21.8552 27.5114 22.087 27.4133 22.3161 27.3069L20.4999 26.5583C19.9757 26.7251 19.4397 26.8523 18.8965 26.9388V26.9347Z" fill="url(#paint27_linear_663_1660)"/>
<path fill-rule="evenodd" clip-rule="evenodd" d="M17.1803 29.1549C17.0478 28.7194 16.1704 26.5607 14.8828 25.9989C12.4085 24.9385 10.0226 24.1053 8.49511 23.1775C7.1128 22.3253 5.84409 21.347 5.73048 20.0215C5.72875 21.373 6.03528 22.7071 6.62676 23.9223C7.83866 25.3803 10.7737 26.2766 14.4788 27.64C15.4486 28.0033 16.3607 28.505 17.1867 29.1296L17.1803 29.1549Z" fill="url(#paint28_radial_663_1660)"/>
<path fill-rule="evenodd" clip-rule="evenodd" d="M17.1801 29.1549C17.3127 28.7194 18.19 26.5607 19.4777 25.9989C21.952 24.9385 24.3379 24.1053 25.8654 23.1775C27.2477 22.3253 28.5164 21.347 28.63 20.0215C28.6317 21.373 28.3252 22.7071 27.7337 23.9223C26.5218 25.3803 23.5868 26.2766 19.8816 27.64C18.9119 28.0033 17.9998 28.505 17.1738 29.1296L17.1801 29.1549Z" fill="url(#paint29_radial_663_1660)"/>
<path style="mix-blend-mode:multiply" fill-rule="evenodd" clip-rule="evenodd" d="M7.31476 24.0928C6.92386 23.3206 6.64745 22.4956 6.49422 21.6437C6.06953 21.2109 5.80085 20.6491 5.73048 20.0468C5.72875 21.3983 6.03528 22.7324 6.62676 23.9476C7.28277 24.6415 8.07886 25.188 8.96219 25.5508C8.31954 25.1845 7.76055 24.6878 7.32108 24.0928H7.31476Z" fill="url(#paint30_radial_663_1660)"/>
<path style="mix-blend-mode:multiply" fill-rule="evenodd" clip-rule="evenodd" d="M27.0517 24.0928C27.4425 23.3206 27.7189 22.4956 27.8723 21.6438C28.297 21.211 28.5656 20.6492 28.636 20.0469C28.6377 21.3984 28.3312 22.7325 27.7397 23.9477C27.0837 24.6416 26.2876 25.1881 25.4043 25.5509C26.047 25.1845 26.6059 24.6879 27.0454 24.0928H27.0517Z" fill="url(#paint31_radial_663_1660)"/>
<path fill-rule="evenodd" clip-rule="evenodd" d="M17.1813 29.2368C14.7764 28.2332 11.9171 27.2738 9.80261 26.4785C9.12595 26.2118 8.54682 25.745 8.14258 25.1404C8.50867 26.5227 9.17773 27.3748 9.75212 27.621C11.6457 28.4415 14.909 29.3631 17.1813 30.4677V29.2053V29.2368Z" fill="url(#paint32_radial_663_1660)"/>
<path style="mix-blend-mode:multiply" opacity="0.3" fill-rule="evenodd" clip-rule="evenodd" d="M10.1624 27.76C9.48071 27.2808 8.97163 26.5947 8.71065 25.8033C8.49657 25.6166 8.30584 25.4046 8.14258 25.1721C8.50867 26.5544 9.17773 27.4066 9.75212 27.6527C10.0046 27.76 10.2886 27.8736 10.5853 27.9873C10.4401 27.9241 10.3013 27.861 10.1624 27.7853V27.76Z" fill="url(#paint33_radial_663_1660)"/>
<path fill-rule="evenodd" clip-rule="evenodd" d="M17.0918 29.2369C19.4967 28.2333 22.356 27.2738 24.4705 26.4785C25.1471 26.2119 25.7263 25.745 26.1305 25.1404C25.7644 26.5227 25.0953 27.3748 24.521 27.621C22.6274 28.4416 19.3641 29.3631 17.0918 30.4677V29.2053V29.2369Z" fill="url(#paint34_radial_663_1660)"/>
<path style="mix-blend-mode:multiply" opacity="0.3" fill-rule="evenodd" clip-rule="evenodd" d="M24.1124 27.76C24.794 27.2808 25.3031 26.5947 25.5641 25.8033C25.7782 25.6166 25.9689 25.4046 26.1322 25.1721C25.7661 26.5544 25.097 27.4066 24.5226 27.6527C24.2702 27.76 23.9861 27.8736 23.6895 27.9873C23.8346 27.9241 23.9735 27.861 24.1124 27.7853V27.76Z" fill="url(#paint35_radial_663_1660)"/>
<path opacity="0.35" fill-rule="evenodd" clip-rule="evenodd" d="M14.8828 26.0117C12.4085 24.9513 10.0226 24.1181 8.49511 23.1902C7.1191 22.3444 5.85671 21.3724 5.73047 20.0721C5.91352 22.0478 7.9712 23.1271 9.64387 23.9477C11.3165 24.7682 13.046 25.3426 14.7502 26.0748C16.0126 26.6113 16.7638 28.1578 17.1803 29.155C17.0478 28.7195 16.1704 26.5608 14.8828 25.9991V26.0117Z" fill="url(#paint36_linear_663_1660)"/>
<path opacity="0.35" fill-rule="evenodd" clip-rule="evenodd" d="M19.485 26.0118C21.9593 24.9514 24.3453 24.1182 25.8728 23.1904C27.2488 22.3446 28.5111 21.3725 28.6374 20.0723C28.4543 22.0479 26.3966 23.1273 24.724 23.9478C23.0513 24.7684 21.3218 25.3427 19.6176 26.0749C18.3552 26.6114 17.6041 28.1579 17.1875 29.1552C17.3201 28.7196 18.1974 26.561 19.485 25.9992V26.0118Z" fill="url(#paint37_linear_663_1660)"/>
<path fill-rule="evenodd" clip-rule="evenodd" d="M17.1805 25.6393C17.6998 25.6393 18.2075 25.7933 18.6393 26.0818C19.0711 26.3703 19.4076 26.7804 19.6064 27.2602C19.8051 27.74 19.8571 28.268 19.7558 28.7773C19.6545 29.2867 19.4044 29.7545 19.0372 30.1217C18.6699 30.489 18.2021 30.739 17.6927 30.8404C17.1834 30.9417 16.6554 30.8897 16.1756 30.6909C15.6958 30.4922 15.2857 30.1556 14.9972 29.7238C14.7087 29.292 14.5547 28.7844 14.5547 28.265C14.5547 27.5686 14.8313 26.9008 15.3238 26.4083C15.8162 25.9159 16.4841 25.6393 17.1805 25.6393ZM17.1805 26.22C16.7743 26.225 16.3787 26.3506 16.0439 26.5807C15.7092 26.8109 15.4503 27.1352 15.3001 27.5127C15.1498 27.8901 15.1151 28.3037 15.2002 28.7009C15.2853 29.0981 15.4864 29.4612 15.7781 29.744C16.0697 30.0267 16.4388 30.2166 16.8384 30.2894C17.2381 30.3622 17.6504 30.3147 18.023 30.1529C18.3957 29.9911 18.7119 29.7223 18.9316 29.3806C19.1513 29.0389 19.2646 28.6397 19.2571 28.2335C19.2571 27.6894 19.041 27.1676 18.6563 26.7829C18.2716 26.3982 17.7498 26.1821 17.2057 26.1821L17.1805 26.22Z" fill="url(#paint38_linear_663_1660)"/>
<path fill-rule="evenodd" clip-rule="evenodd" d="M19.8121 28.2334C19.8121 27.7141 19.6581 27.2064 19.3696 26.7746C19.0811 26.3428 18.671 26.0063 18.1912 25.8075C17.7114 25.6088 17.1834 25.5568 16.6741 25.6581C16.1647 25.7594 15.6969 26.0095 15.3296 26.3767C14.9624 26.744 14.7123 27.2118 14.611 27.7212C14.5097 28.2305 14.5617 28.7585 14.7604 29.2383C14.9592 29.7181 15.2957 30.1282 15.7275 30.4167C16.1593 30.7052 16.667 30.8592 17.1863 30.8592C17.5311 30.8592 17.8726 30.7913 18.1912 30.6593C18.5097 30.5274 18.7992 30.334 19.043 30.0901C19.2869 29.8463 19.4803 29.5569 19.6122 29.2383C19.7442 28.9197 19.8121 28.5783 19.8121 28.2334ZM17.1863 25.898C17.6477 25.9005 18.098 26.0396 18.4804 26.2977C18.8628 26.5559 19.1601 26.9215 19.3349 27.3484C19.5098 27.7754 19.5542 28.2445 19.4627 28.6967C19.3712 29.1489 19.1478 29.5639 18.8206 29.8892C18.4935 30.2146 18.0774 30.4358 17.6247 30.5249C17.172 30.614 16.7031 30.567 16.2771 30.3899C15.8511 30.2127 15.4871 29.9134 15.231 29.5296C14.9749 29.1458 14.8383 28.6948 14.8383 28.2334C14.8383 27.614 15.0843 27.02 15.5223 26.582C15.9603 26.1441 16.5543 25.898 17.1737 25.898H17.1863Z" fill="url(#paint39_linear_663_1660)"/>
<path style="mix-blend-mode:screen" fill-rule="evenodd" clip-rule="evenodd" d="M17.1738 25.7332C17.6683 25.7332 18.1516 25.8798 18.5628 26.1545C18.9739 26.4292 19.2943 26.8196 19.4835 27.2764C19.6727 27.7333 19.7223 28.2359 19.6258 28.7209C19.5293 29.2058 19.2912 29.6513 18.9416 30.0009C18.592 30.3505 18.1465 30.5887 17.6616 30.6851C17.1766 30.7816 16.6739 30.7321 16.2171 30.5429C15.7603 30.3536 15.3699 30.0332 15.0952 29.6221C14.8205 29.211 14.6738 28.7276 14.6738 28.2332C14.6738 27.5701 14.9372 26.9342 15.4061 26.4654C15.8749 25.9965 16.5108 25.7332 17.1738 25.7332ZM17.1738 26.286C16.7871 26.2909 16.4105 26.4104 16.0917 26.6295C15.773 26.8486 15.5265 27.1575 15.3835 27.5168C15.2405 27.8762 15.2074 28.2699 15.2884 28.6482C15.3694 29.0264 15.5609 29.372 15.8386 29.6412C16.1163 29.9105 16.4677 30.0912 16.8482 30.1605C17.2287 30.2298 17.6212 30.1846 17.976 30.0306C18.3308 29.8765 18.6319 29.6206 18.841 29.2953C19.0502 28.9699 19.1581 28.5898 19.151 28.2031C19.151 27.6851 18.9452 27.1883 18.5789 26.822C18.2127 26.4558 17.7159 26.25 17.1979 26.25L17.1738 26.286Z" fill="url(#paint40_radial_663_1660)"/>
<path fill-rule="evenodd" clip-rule="evenodd" d="M16.1703 30.0701C16.6459 30.3392 17.2083 30.4106 17.7361 30.2689C18.2639 30.1272 18.7148 29.7838 18.9917 29.3126C19.2465 28.8339 19.31 28.2763 19.1694 27.7525C19.0288 27.2288 18.6946 26.7779 18.2343 26.4912C18.0022 26.3448 17.7424 26.248 17.471 26.2069C17.1997 26.1658 16.9228 26.1813 16.6578 26.2524C16.3928 26.3236 16.1454 26.4488 15.9311 26.6203C15.7168 26.7917 15.5404 27.0057 15.4129 27.2486C15.2746 27.4829 15.1844 27.7424 15.1477 28.012C15.1109 28.2815 15.1283 28.5557 15.1988 28.8185C15.2694 29.0812 15.3916 29.3273 15.5584 29.5422C15.7252 29.7571 15.9332 29.9365 16.1703 30.0701Z" fill="url(#paint41_radial_663_1660)"/>
<path style="mix-blend-mode:multiply" fill-rule="evenodd" clip-rule="evenodd" d="M18.7012 28.9276C18.5798 29.1376 18.418 29.3217 18.2252 29.4691C18.0324 29.6165 17.8124 29.7244 17.5778 29.7865C17.3432 29.8487 17.0987 29.8639 16.8582 29.8313C16.6177 29.7987 16.386 29.719 16.1765 29.5966C15.9632 29.4783 15.776 29.3181 15.6262 29.1256C15.4763 28.9332 15.3669 28.7125 15.3044 28.4767C15.2419 28.2409 15.2277 27.9949 15.2626 27.7535C15.2975 27.5121 15.3807 27.2803 15.5074 27.0718C15.5575 26.9814 15.6145 26.8949 15.6778 26.8131C15.5659 26.9385 15.4686 27.0761 15.3875 27.2233C15.2492 27.4576 15.159 27.7171 15.1223 27.9867C15.0855 28.2562 15.1029 28.5304 15.1735 28.7932C15.244 29.0559 15.3662 29.302 15.5331 29.5169C15.6999 29.7318 15.9079 29.9113 16.1449 30.0448C16.6205 30.3139 17.1829 30.3853 17.7107 30.2436C18.2385 30.1019 18.6894 29.7585 18.9664 29.2873C19.2211 28.8086 19.2846 28.251 19.144 27.7272C19.0034 27.2035 18.6692 26.7527 18.2089 26.4659C18.012 26.3527 17.7993 26.2697 17.5777 26.2197C17.7274 26.264 17.8714 26.3254 18.0069 26.4028C18.4213 26.6572 18.7219 27.0613 18.8464 27.5313C18.971 28.0014 18.91 28.5013 18.676 28.9276H18.7012Z" fill="url(#paint42_radial_663_1660)"/>
<path style="mix-blend-mode:screen" fill-rule="evenodd" clip-rule="evenodd" d="M16.1004 26.5857C15.7397 26.8511 15.4848 27.2358 15.3809 27.6713C15.3809 27.8481 15.4314 28.2457 15.646 28.2394C16.257 28.1008 16.8772 28.0059 17.5017 27.9554C17.7898 27.9794 18.0751 28.0301 18.3538 28.1069C18.6315 28.1826 18.783 28.0501 18.8019 27.7281C18.8085 27.4699 18.7428 27.2149 18.6124 26.9919C18.4819 26.7688 18.2918 26.5866 18.0634 26.4658C17.7603 26.2965 17.4152 26.2173 17.0685 26.2374C16.7219 26.2576 16.3883 26.3762 16.1067 26.5794L16.1004 26.5857Z" fill="url(#paint43_radial_663_1660)"/>
<path style="mix-blend-mode:screen" fill-rule="evenodd" clip-rule="evenodd" d="M16.2088 26.611C16.3839 26.4937 16.5815 26.414 16.7891 26.3771C16.9966 26.3401 17.2095 26.3467 17.4144 26.3964C17.5154 26.3964 17.5848 26.4722 17.5911 26.5163C17.5974 26.5605 17.5343 26.5984 17.427 26.63C17.3197 26.6615 17.0168 26.7436 16.7958 26.813C16.6454 26.8608 16.4997 26.922 16.3603 26.9961C15.9942 27.2043 15.7291 26.9392 16.2088 26.6047V26.611ZM18.1403 26.611C18.2855 26.6931 18.4622 26.9392 18.1908 26.9014C18.0873 26.8844 17.9857 26.8569 17.8878 26.8193C17.812 26.8193 17.7237 26.7057 17.7489 26.63C17.7742 26.5542 18.0393 26.5542 18.1403 26.63V26.611Z" fill="url(#paint44_radial_663_1660)"/>
</g>
<path d="M18.6484 11.0239V21.2466H16.3266V13.3501L13.5371 14.1209V12.5303L18.3985 11.0239H18.6484Z" fill="#C6403C"/>
<defs>
<filter id="filter0_d_663_1660" x="0.660156" y="0.891113" width="33.0469" height="33.9997" filterUnits="userSpaceOnUse" color-interpolation-filters="sRGB">
<feFlood flood-opacity="0" result="BackgroundImageFix"/>
<feColorMatrix in="SourceAlpha" type="matrix" values="0 0 0 0 0 0 0 0 0 0 0 0 0 0 0 0 0 0 127 0" result="hardAlpha"/>
<feOffset dy="2"/>
<feGaussianBlur stdDeviation="1"/>
<feComposite in2="hardAlpha" operator="out"/>
<feColorMatrix type="matrix" values="0 0 0 0 0 0 0 0 0 0 0 0 0 0 0 0 0 0 0.25 0"/>
<feBlend mode="normal" in2="BackgroundImageFix" result="effect1_dropShadow_663_1660"/>
<feBlend mode="normal" in="SourceGraphic" in2="effect1_dropShadow_663_1660" result="shape"/>
</filter>
<radialGradient id="paint0_radial_663_1660" cx="0" cy="0" r="1" gradientUnits="userSpaceOnUse" gradientTransform="translate(17.5501 7.34604) scale(18.0224 18.0224)">
<stop stop-color="#FFA9A6"/>
<stop offset="1" stop-color="#DA5652"/>
</radialGradient>
<linearGradient id="paint1_linear_663_1660" x1="17.1854" y1="27.0698" x2="17.1854" y2="5.21064" gradientUnits="userSpaceOnUse">
<stop stop-color="#F1635E"/>
<stop offset="1" stop-color="#AC2C27"/>
</linearGradient>
<linearGradient id="paint2_linear_663_1660" x1="17.1853" y1="28.8911" x2="17.1853" y2="15.8911" gradientUnits="userSpaceOnUse">
<stop stop-color="#650704"/>
<stop offset="1" stop-color="#F1635E"/>
</linearGradient>
<radialGradient id="paint3_radial_663_1660" cx="0" cy="0" r="1" gradientUnits="userSpaceOnUse" gradientTransform="translate(21.6741 28.8817) scale(21.5156 21.5156)">
<stop stop-color="#A48457"/>
<stop offset="1" stop-color="#070D0D"/>
</radialGradient>
<linearGradient id="paint4_linear_663_1660" x1="17.1855" y1="27.07" x2="17.1855" y2="16.1404" gradientUnits="userSpaceOnUse">
<stop stop-color="#F1635E"/>
<stop offset="1" stop-color="#070D0D"/>
</linearGradient>
<linearGradient id="paint5_linear_663_1660" x1="17.1859" y1="16.1402" x2="17.1859" y2="3.85664" gradientUnits="userSpaceOnUse">
<stop stop-color="#650704"/>
<stop offset="1" stop-color="#F1635E"/>
</linearGradient>
<radialGradient id="paint6_radial_663_1660" cx="0" cy="0" r="1" gradientUnits="userSpaceOnUse" gradientTransform="translate(18.1052 22.8078) scale(18.0878 18.0878)">
<stop stop-color="#A48457"/>
<stop offset="1" stop-color="#070D0D"/>
</radialGradient>
<linearGradient id="paint7_linear_663_1660" x1="12.0735" y1="9.21106" x2="16.9697" y2="1.21838" gradientUnits="userSpaceOnUse">
<stop offset="0.06" stop-color="#D79C63"/>
<stop offset="0.56" stop-color="#612B0A"/>
<stop offset="1" stop-color="#D79C63"/>
</linearGradient>
<linearGradient id="paint8_linear_663_1660" x1="22.3845" y1="9.37877" x2="17.2428" y2="0.932068" gradientUnits="userSpaceOnUse">
<stop stop-color="#612B0A"/>
<stop offset="1" stop-color="#D79C63"/>
</linearGradient>
<linearGradient id="paint9_linear_663_1660" x1="21.9922" y1="9.15783" x2="31.9483" y2="11.3994" gradientUnits="userSpaceOnUse">
<stop offset="0.06" stop-color="#D79C63"/>
<stop offset="0.56" stop-color="#612B0A"/>
<stop offset="1" stop-color="#D79C63"/>
</linearGradient>
<linearGradient id="paint10_linear_663_1660" x1="25.4806" y1="18.7376" x2="31.8248" y2="11.2808" gradientUnits="userSpaceOnUse">
<stop stop-color="#612B0A"/>
<stop offset="1" stop-color="#D79C63"/>
</linearGradient>
<linearGradient id="paint11_linear_663_1660" x1="25.4558" y1="18.5617" x2="26.1798" y2="28.9268" gradientUnits="userSpaceOnUse">
<stop stop-color="#612B0A"/>
<stop offset="1" stop-color="#FFC287"/>
</linearGradient>
<linearGradient id="paint12_linear_663_1660" x1="17.1855" y1="26.5381" x2="26.1395" y2="26.5381" gradientUnits="userSpaceOnUse">
<stop stop-color="#612B0A"/>
<stop offset="1" stop-color="#D79C63"/>
</linearGradient>
<linearGradient id="paint13_linear_663_1660" x1="7.91374" y1="28.5587" x2="17.4567" y2="24.7832" gradientUnits="userSpaceOnUse">
<stop stop-color="#D79C63"/>
<stop offset="0.73" stop-color="#612B0A"/>
<stop offset="1" stop-color="#D79C63"/>
</linearGradient>
<linearGradient id="paint14_linear_663_1660" x1="8.94286" y1="18.6681" x2="8.23113" y2="28.2887" gradientUnits="userSpaceOnUse">
<stop stop-color="#D79C63"/>
<stop offset="0.22" stop-color="#612B0A"/>
<stop offset="1" stop-color="#D79C63"/>
</linearGradient>
<linearGradient id="paint15_linear_663_1660" x1="8.86608" y1="19.0526" x2="3.18858" y2="11.7635" gradientUnits="userSpaceOnUse">
<stop stop-color="#D79C63"/>
<stop offset="0.65" stop-color="#612B0A"/>
<stop offset="1" stop-color="#D79C63"/>
</linearGradient>
<linearGradient id="paint16_linear_663_1660" x1="2.69727" y1="10.2336" x2="12.3016" y2="10.2336" gradientUnits="userSpaceOnUse">
<stop stop-color="#D79C63"/>
<stop offset="1" stop-color="#612B0A"/>
</linearGradient>
<linearGradient id="paint17_linear_663_1660" x1="3.34375" y1="10.7082" x2="12.7312" y2="10.7082" gradientUnits="userSpaceOnUse">
<stop stop-color="#864923"/>
<stop offset="1" stop-color="#F8AD64"/>
</linearGradient>
<linearGradient id="paint18_linear_663_1660" x1="9.83124" y1="18.6436" x2="3.78561" y2="11.9394" gradientUnits="userSpaceOnUse">
<stop stop-color="#864923"/>
<stop offset="1" stop-color="#F8AD64"/>
</linearGradient>
<linearGradient id="paint19_linear_663_1660" x1="9.66341" y1="18.3287" x2="8.89032" y2="27.9166" gradientUnits="userSpaceOnUse">
<stop stop-color="#864923"/>
<stop offset="1" stop-color="#F8AD64"/>
</linearGradient>
<linearGradient id="paint20_linear_663_1660" x1="8.37921" y1="27.7528" x2="17.2881" y2="24.0224" gradientUnits="userSpaceOnUse">
<stop stop-color="#F8AD64"/>
<stop offset="0.484375" stop-color="#864923"/>
<stop offset="1" stop-color="#F8AD64"/>
</linearGradient>
<linearGradient id="paint21_linear_663_1660" x1="16.6947" y1="23.9488" x2="26.7653" y2="27.9697" gradientUnits="userSpaceOnUse">
<stop stop-color="#F8AD64"/>
<stop offset="1" stop-color="#864923"/>
</linearGradient>
<linearGradient id="paint22_linear_663_1660" x1="24.7237" y1="18.5659" x2="25.5132" y2="28.2234" gradientUnits="userSpaceOnUse">
<stop stop-color="#864923"/>
<stop offset="1" stop-color="#F8AD64"/>
</linearGradient>
<linearGradient id="paint23_linear_663_1660" x1="24.3967" y1="15.1747" x2="31.0395" y2="15.1747" gradientUnits="userSpaceOnUse">
<stop stop-color="#864923"/>
<stop offset="1" stop-color="#F8AD64"/>
</linearGradient>
<linearGradient id="paint24_linear_663_1660" x1="21.6445" y1="10.7082" x2="31.032" y2="10.7082" gradientUnits="userSpaceOnUse">
<stop stop-color="#F8AD64"/>
<stop offset="1" stop-color="#864923"/>
</linearGradient>
<linearGradient id="paint25_linear_663_1660" x1="21.9589" y1="9.98807" x2="16.989" y2="1.65998" gradientUnits="userSpaceOnUse">
<stop stop-color="#F8AD64"/>
<stop offset="1" stop-color="#864923"/>
</linearGradient>
<linearGradient id="paint26_linear_663_1660" x1="12.391" y1="9.93519" x2="17.2545" y2="1.96706" gradientUnits="userSpaceOnUse">
<stop stop-color="#864923"/>
<stop offset="1" stop-color="#F8AD64"/>
</linearGradient>
<linearGradient id="paint27_linear_663_1660" x1="20.6104" y1="27.5973" x2="20.6104" y2="26.5543" gradientUnits="userSpaceOnUse">
<stop stop-color="#85603C"/>
<stop offset="0.1" stop-color="#8B6845"/>
<stop offset="0.27" stop-color="#9A7C5E"/>
<stop offset="0.49" stop-color="#B49D87"/>
<stop offset="0.75" stop-color="#D7CBBF"/>
<stop offset="1" stop-color="white"/>
</linearGradient>
<radialGradient id="paint28_radial_663_1660" cx="0" cy="0" r="1" gradientUnits="userSpaceOnUse" gradientTransform="translate(5.65918 19.7175) scale(11 10.5644)">
<stop stop-color="#974715"/>
<stop offset="1" stop-color="#EE9843"/>
</radialGradient>
<radialGradient id="paint29_radial_663_1660" cx="0" cy="0" r="1" gradientUnits="userSpaceOnUse" gradientTransform="translate(27.6592 19.7175) rotate(180) scale(9 8.64357)">
<stop stop-color="#974715"/>
<stop offset="1" stop-color="#EE9843"/>
</radialGradient>
<radialGradient id="paint30_radial_663_1660" cx="0" cy="0" r="1" gradientUnits="userSpaceOnUse" gradientTransform="translate(8.15918 24.8911) rotate(-110.556) scale(4.272 4.10282)">
<stop stop-color="white"/>
<stop offset="0.953125" stop-color="#AB7B4B"/>
</radialGradient>
<radialGradient id="paint31_radial_663_1660" cx="0" cy="0" r="1" gradientUnits="userSpaceOnUse" gradientTransform="translate(26.1592 24.3911) rotate(-54.4623) scale(4.30116 4.13082)">
<stop stop-color="white"/>
<stop offset="1" stop-color="#AB7B4B"/>
</radialGradient>
<radialGradient id="paint32_radial_663_1660" cx="0" cy="0" r="1" gradientUnits="userSpaceOnUse" gradientTransform="translate(7.66016 22.4073) scale(8.5)">
<stop stop-color="#974715"/>
<stop offset="1" stop-color="#EE9843"/>
</radialGradient>
<radialGradient id="paint33_radial_663_1660" cx="0" cy="0" r="1" gradientUnits="userSpaceOnUse" gradientTransform="translate(12.7251 23.815) scale(5.89536 5.89537)">
<stop offset="0.380208" stop-color="white"/>
<stop offset="0.76" stop-color="#AB7B4B"/>
</radialGradient>
<radialGradient id="paint34_radial_663_1660" cx="0" cy="0" r="1" gradientUnits="userSpaceOnUse" gradientTransform="translate(26.6592 22.4073) rotate(180) scale(8 7.99998)">
<stop stop-color="#974715"/>
<stop offset="1" stop-color="#EE9843"/>
</radialGradient>
<radialGradient id="paint35_radial_663_1660" cx="0" cy="0" r="1" gradientUnits="userSpaceOnUse" gradientTransform="translate(21.5497 23.815) rotate(180) scale(5.8954 5.89537)">
<stop offset="0.46" stop-color="white"/>
<stop offset="0.76" stop-color="#AB7B4B"/>
</radialGradient>
<linearGradient id="paint36_linear_663_1660" x1="5.73047" y1="24.6167" x2="17.1803" y2="24.6167" gradientUnits="userSpaceOnUse">
<stop stop-color="#E8A2D6"/>
<stop offset="1" stop-color="#F0CAE8"/>
</linearGradient>
<linearGradient id="paint37_linear_663_1660" x1="17.1812" y1="24.6169" x2="28.6374" y2="24.6169" gradientUnits="userSpaceOnUse">
<stop stop-color="#F0CAE8"/>
<stop offset="1" stop-color="#E8A2D6"/>
</linearGradient>
<linearGradient id="paint38_linear_663_1660" x1="17.1805" y1="30.8908" x2="17.1805" y2="25.6393" gradientUnits="userSpaceOnUse">
<stop stop-color="#FFC892"/>
<stop offset="0.99" stop-color="#974715"/>
</linearGradient>
<linearGradient id="paint39_linear_663_1660" x1="17.18" y1="30.8908" x2="17.18" y2="25.6392" gradientUnits="userSpaceOnUse">
<stop offset="0.01" stop-color="#974715"/>
<stop offset="1" stop-color="#FFC892"/>
</linearGradient>
<radialGradient id="paint40_radial_663_1660" cx="0" cy="0" r="1" gradientUnits="userSpaceOnUse" gradientTransform="translate(17.1738 28.2332) scale(2.5)">
<stop offset="0.79"/>
<stop offset="0.91" stop-color="#974715"/>
<stop offset="1"/>
</radialGradient>
<radialGradient id="paint41_radial_663_1660" cx="0" cy="0" r="1" gradientUnits="userSpaceOnUse" gradientTransform="translate(17.3001 26.8573) scale(2.82144 2.82144)">
<stop stop-color="#EEEAE1"/>
<stop offset="0.93" stop-color="#AF7F61"/>
</radialGradient>
<radialGradient id="paint42_radial_663_1660" cx="0" cy="0" r="1" gradientUnits="userSpaceOnUse" gradientTransform="translate(17.1801 28.29) scale(2.5879 2.5879)">
<stop offset="0.53" stop-color="white"/>
<stop offset="1" stop-color="#F4BC99"/>
</radialGradient>
<radialGradient id="paint43_radial_663_1660" cx="0" cy="0" r="1" gradientUnits="userSpaceOnUse" gradientTransform="translate(16.5549 24.5659) scale(4.75291 4.75288)">
<stop stop-color="#EDBA4A"/>
<stop offset="1" stop-color="#121212"/>
</radialGradient>
<radialGradient id="paint44_radial_663_1660" cx="0" cy="0" r="1" gradientUnits="userSpaceOnUse" gradientTransform="translate(16.9095 25.8347) scale(2.84668 2.84667)">
<stop stop-color="white"/>
<stop offset="1" stop-color="#121212"/>
</radialGradient>
</defs>
</svg>
