<svg width="32" height="32" viewBox="0 0 32 32" fill="none" xmlns="http://www.w3.org/2000/svg">
<path d="M30.946 19.5063C28.915 27.6537 20.6604 32.6064 12.5247 30.5754C4.37707 28.5445 -0.575626 20.2902 1.4554 12.1546C3.48631 4.0072 11.7289 -0.945499 19.8765 1.08553C28.0123 3.10456 32.977 11.3588 30.946 19.5063Z" fill="url(#paint0_linear)"/>
<path d="M16.3086 5.86319L22.1676 15.6292L16.3086 19.1082V5.86319Z" fill="white"/>
<path d="M15.9474 19.0266L10.2264 15.6294L15.9474 6.09333V12.8328V19.0266Z" fill="#E6E6E6" />
<path d="M16.3691 25.1811V20.8552L21.6343 17.7321L16.3691 25.1811Z" fill="#CCCCCC" />
<path d="M10.7635 17.7323L15.9474 20.809V25.0708L10.7635 17.7323Z" fill="#B4B4B4" />
<path d="M16.4473 13.2222L21.9734 15.7455L16.4473 19.0269V13.2222Z" fill="#CCCCCC" />
<path d="M15.9473 13.2222V19.027L10.4212 15.7455L15.9473 13.2222Z" fill="#B0B0B0" />
<defs>
<linearGradient id="paint0_linear" x1="16.1921" y1="0.622831" x2="16.1921" y2="31.0277" gradientUnits="userSpaceOnUse">
<stop stop-color="#6873FF"/>
<stop offset="1" stop-color="#626DFF"/>
</linearGradient>
</defs>
</svg>
