<svg width="40" height="35" viewBox="0 0 40 35" fill="none" xmlns="http://www.w3.org/2000/svg">
<g filter="url(#filter0_d_663_1525)">
<path fill-rule="evenodd" clip-rule="evenodd" d="M13.2492 20.6981C11.812 19.8202 10.872 19.7037 9.04631 20.6515C7.49256 21.4672 5.88442 22.2052 5.2163 22.1353C5.51453 22.5629 5.89995 22.9224 6.3472 23.1902C6.79445 23.458 7.29334 23.628 7.81106 23.6891C8.58935 23.6913 9.34923 23.4525 9.98631 23.0054C11.6488 22.0576 12.317 21.5604 13.459 21.5138L13.2492 20.6903V20.6981Z" fill="url(#paint0_linear_663_1525)"/>
<path style="mix-blend-mode:screen" fill-rule="evenodd" clip-rule="evenodd" d="M5.20793 22.127C6.91706 22.9893 8.26105 22.4222 10.2421 21.3967C11.4696 20.7597 12.3008 20.6198 13.3496 21.1015L13.2486 20.6898C11.8114 19.8119 10.8714 19.6954 9.04571 20.6432C7.49196 21.4589 5.88382 22.1969 5.2157 22.127H5.20793Z" fill="url(#paint1_linear_663_1525)"/>
<path style="mix-blend-mode:multiply" fill-rule="evenodd" clip-rule="evenodd" d="M13.2487 20.6981C11.8115 19.8202 10.8715 19.7037 9.04579 20.6515C8.26891 21.0321 7.56972 21.4283 6.91714 21.6692C7.49732 21.6839 8.07696 21.6238 8.64179 21.4905C10.9724 21.001 11.8892 20.6748 13.3652 21.1564L13.2487 20.6981Z" fill="url(#paint2_linear_663_1525)"/>
<path fill-rule="evenodd" clip-rule="evenodd" d="M12.9762 19.6255C11.6089 18.1883 10.56 17.7687 8.19055 18.2892C6.13959 18.7398 4.1042 19.0661 3.36616 18.8098C3.5737 19.3915 3.90274 19.9224 4.33138 20.3671C4.76003 20.8118 5.27841 21.1602 5.85214 21.389C6.74115 21.63 7.68304 21.5893 8.54794 21.2725C10.8786 20.6587 11.7797 20.2936 13.248 20.7054L12.9762 19.6333V19.6255Z" fill="url(#paint3_linear_663_1525)"/>
<path style="mix-blend-mode:screen" fill-rule="evenodd" clip-rule="evenodd" d="M3.36732 18.8019C4.70356 20.0993 6.10194 20.1615 8.32382 19.7963C10.5457 19.4312 11.5245 19.0195 13.1094 20.1537L12.9773 19.6177C11.61 18.1804 10.5612 17.7609 8.19171 18.2814C6.14075 18.732 4.10536 19.0583 3.36732 18.8019Z" fill="url(#paint4_linear_663_1525)"/>
<path style="mix-blend-mode:multiply" fill-rule="evenodd" clip-rule="evenodd" d="M12.9775 19.6255C11.6102 18.1883 10.5614 17.7687 8.19191 18.2892C7.41503 18.4602 6.63814 18.6155 5.95449 18.7243C6.39586 18.8093 6.84218 18.8664 7.29075 18.8952C10.3361 19.105 11.3849 19.004 13.1406 20.2936L13.0241 19.8197L12.9775 19.6333V19.6255Z" fill="url(#paint5_linear_663_1525)"/>
<path fill-rule="evenodd" clip-rule="evenodd" d="M12.5881 18.0871C11.4927 16.075 10.4517 15.2981 7.66269 15.1661C5.24659 15.0573 2.87711 14.8398 2.13131 14.3037C2.18682 15.0157 2.39365 15.7076 2.73796 16.3333C3.08227 16.9589 3.55613 17.5039 4.12789 17.9317C5.04374 18.4647 6.10222 18.7008 7.15774 18.6076C10.1876 18.6076 11.2286 18.4523 12.9766 19.6331L12.5881 18.0794V18.0871Z" fill="url(#paint6_linear_663_1525)"/>
<path style="mix-blend-mode:screen" fill-rule="evenodd" clip-rule="evenodd" d="M2.13217 14.3037C3.22757 16.1371 4.68034 16.3236 6.99544 16.5411C9.62906 16.7975 11.2838 16.8985 12.7832 18.8718L12.589 18.0949C11.4936 16.0828 10.4525 15.3059 7.66355 15.1738C5.24745 15.0651 2.87797 14.8475 2.13217 14.3115V14.3037Z" fill="url(#paint7_linear_663_1525)"/>
<path style="mix-blend-mode:screen" fill-rule="evenodd" clip-rule="evenodd" d="M2.13202 14.3041C3.08759 15.182 4.46267 15.2286 5.68237 15.2908C7.7411 15.3918 9.24046 15.2442 10.6699 15.8579C9.73882 15.3857 8.7073 15.1459 7.6634 15.1587C5.24731 15.0499 2.87783 14.8324 2.13202 14.2964V14.3041Z" fill="url(#paint8_linear_663_1525)"/>
<path fill-rule="evenodd" clip-rule="evenodd" d="M26.7488 20.6981C28.1861 19.8202 29.1261 19.7037 30.9517 20.6515C32.5055 21.4672 34.1136 22.2052 34.7817 22.1353C34.4835 22.5629 34.0981 22.9224 33.6508 23.1902C33.2036 23.458 32.7047 23.628 32.187 23.6891C31.4087 23.6913 30.6488 23.4525 30.0117 23.0054C28.3492 22.0576 27.6811 21.5604 26.5391 21.5138L26.7488 20.6903V20.6981Z" fill="url(#paint9_linear_663_1525)"/>
<path style="mix-blend-mode:screen" fill-rule="evenodd" clip-rule="evenodd" d="M34.7901 22.127C33.081 22.9893 31.737 22.4222 29.756 21.3967C28.5285 20.7597 27.6972 20.6198 26.6484 21.1015L26.7494 20.6898C28.1867 19.8119 29.1267 19.6954 30.9523 20.6432C32.5061 21.4589 34.1142 22.1969 34.7823 22.127H34.7901Z" fill="url(#paint10_linear_663_1525)"/>
<path style="mix-blend-mode:multiply" fill-rule="evenodd" clip-rule="evenodd" d="M26.7494 20.6981C28.1866 19.8202 29.1266 19.7037 30.9523 20.6515C31.7291 21.0321 32.4283 21.4283 33.0809 21.6692C32.5007 21.6839 31.9211 21.6238 31.3563 21.4905C29.0256 21.001 28.1089 20.6748 26.6328 21.1564L26.7494 20.6981Z" fill="url(#paint11_linear_663_1525)"/>
<path fill-rule="evenodd" clip-rule="evenodd" d="M27.0219 19.6255C28.3892 18.1883 29.438 17.7687 31.8075 18.2892C33.8585 18.7398 35.8938 19.0661 36.6319 18.8098C36.4243 19.3915 36.0953 19.9224 35.6667 20.3671C35.238 20.8118 34.7196 21.1602 34.1459 21.389C33.2569 21.63 32.315 21.5893 31.4501 21.2725C29.1195 20.6587 28.2183 20.2936 26.75 20.7054L27.0219 19.6333V19.6255Z" fill="url(#paint12_linear_663_1525)"/>
<path style="mix-blend-mode:screen" fill-rule="evenodd" clip-rule="evenodd" d="M36.6307 18.8019C35.2945 20.0993 33.8961 20.1615 31.6742 19.7963C29.4524 19.4312 28.4735 19.0195 26.8887 20.1537L27.0207 19.6177C28.388 18.1804 29.4368 17.7609 31.8063 18.2814C33.8573 18.732 35.8927 19.0583 36.6307 18.8019Z" fill="url(#paint13_linear_663_1525)"/>
<path style="mix-blend-mode:multiply" fill-rule="evenodd" clip-rule="evenodd" d="M27.0205 19.6255C28.3878 18.1883 29.4367 17.7687 31.8061 18.2892C32.583 18.4602 33.3599 18.6155 34.0436 18.7243C33.6022 18.8093 33.1559 18.8664 32.7073 18.8952C29.6619 19.105 28.6132 19.004 26.8574 20.2936L26.9739 19.8197L27.0205 19.6333V19.6255Z" fill="url(#paint14_linear_663_1525)"/>
<path fill-rule="evenodd" clip-rule="evenodd" d="M27.4099 18.0871C28.5053 16.075 29.5464 15.2981 32.3354 15.1661C34.7515 15.0573 37.1209 14.8398 37.8667 14.3037C37.8112 15.0157 37.6044 15.7076 37.2601 16.3333C36.9158 16.9589 36.4419 17.5039 35.8702 17.9317C34.9543 18.4647 33.8958 18.7008 32.8403 18.6076C29.8105 18.6076 28.7695 18.4523 27.0215 19.6331L27.4099 18.0794V18.0871Z" fill="url(#paint15_linear_663_1525)"/>
<path style="mix-blend-mode:screen" fill-rule="evenodd" clip-rule="evenodd" d="M37.8659 14.3037C36.7705 16.1371 35.3177 16.3236 33.0026 16.5411C30.369 16.7975 28.7142 16.8985 27.2148 18.8718L27.4091 18.0949C28.5045 16.0828 29.5455 15.3059 32.3345 15.1738C34.7506 15.0651 37.1201 14.8475 37.8659 14.3115V14.3037Z" fill="url(#paint16_linear_663_1525)"/>
<path style="mix-blend-mode:screen" fill-rule="evenodd" clip-rule="evenodd" d="M37.866 14.3041C36.9105 15.182 35.5354 15.2286 34.3157 15.2908C32.2569 15.3918 30.7576 15.2442 29.3281 15.8579C30.2592 15.3857 31.2907 15.1459 32.3346 15.1587C34.7507 15.0499 37.1202 14.8324 37.866 14.2964V14.3041Z" fill="url(#paint17_linear_663_1525)"/>
<path fill-rule="evenodd" clip-rule="evenodd" d="M20.0539 29.4374C17.2793 28.4819 14.4529 27.3306 12.3058 25.2641C9.01312 22.0923 8.21875 17.4642 8.21875 13.0893V3.77547L8.46051 3.68337C12.2144 2.22761 16.1398 1.26029 20.1402 0.805176H20.2208C24.2213 1.26029 28.1466 2.22761 31.9005 3.68337L32.1423 3.77547V13.0893C32.1423 17.4699 31.3421 22.0981 28.0495 25.2641C25.9024 27.3306 23.076 28.4819 20.3014 29.4374L20.1805 29.4777L20.0596 29.4374H20.0539Z" fill="url(#paint18_radial_663_1525)"/>
<g style="mix-blend-mode:screen">
<path fill-rule="evenodd" clip-rule="evenodd" d="M20.062 28.6308C17.4439 27.7291 14.777 26.6428 12.751 24.6928C9.64408 21.7 8.89453 17.3329 8.89453 13.2049V4.4165L9.12265 4.32959C12.6647 2.95596 16.3687 2.04321 20.1435 1.61377H20.2195C23.9943 2.04321 27.6982 2.95596 31.2403 4.32959L31.4684 4.4165V13.2049C31.4684 17.3384 30.7134 21.7054 27.6065 24.6928C25.5805 26.6428 22.9136 27.7291 20.2955 28.6308L20.1815 28.6688L20.0674 28.6308H20.062Z" fill="url(#paint19_radial_663_1525)"/>
</g>
<path fill-rule="evenodd" clip-rule="evenodd" d="M20.0811 26.3349C17.9086 25.5867 15.6956 24.6853 14.0145 23.0672C11.4364 20.5838 10.8145 16.9601 10.8145 13.5347V6.24217L11.0037 6.17006C13.9429 5.03023 17.0164 4.27285 20.1487 3.9165H20.2118C23.344 4.27285 26.4175 5.03023 29.3567 6.17006L29.546 6.24217V13.5347C29.546 16.9646 28.9195 20.5883 26.3414 23.0672C24.6603 24.6853 22.4473 25.5867 20.2749 26.3349L20.1802 26.3664L20.0856 26.3349H20.0811Z" fill="url(#paint20_radial_663_1525)"/>
<g style="mix-blend-mode:screen">
<path fill-rule="evenodd" clip-rule="evenodd" d="M20.0863 25.7604C18.0253 25.0506 15.9258 24.1954 14.3309 22.6603C11.885 20.3043 11.2949 16.8664 11.2949 13.6166V6.6981L11.4745 6.62969C14.263 5.54831 17.1788 4.82977 20.1505 4.4917H20.2103C23.1819 4.82977 26.0978 5.54831 28.8863 6.62969L29.0659 6.6981V13.6166C29.0659 16.8706 28.4715 20.3085 26.0256 22.6603C24.4307 24.1954 22.3312 25.0506 20.2702 25.7604L20.1804 25.7903L20.0906 25.7604H20.0863Z" fill="url(#paint21_linear_663_1525)"/>
</g>
<path fill-rule="evenodd" clip-rule="evenodd" d="M34.9418 25.8875C34.3592 25.8176 30.6146 25.2738 30.6146 24.3882C30.6185 24.3248 30.6357 24.263 30.6652 24.2068C30.6946 24.1505 30.7357 24.1012 30.7855 24.0619C29.2551 24.9702 27.9655 26.2332 27.0254 27.7443C26.9418 27.8532 26.8848 27.9802 26.8592 28.1152C26.8335 28.2501 26.8399 28.3892 26.8778 28.5212C26.9609 28.7498 27.1274 28.9385 27.3439 29.0494C28.8489 29.8685 30.4668 30.4601 32.1451 30.8052C32.3663 29.872 32.4345 28.9091 32.347 27.954C33.408 27.5679 34.3192 26.8553 34.9496 25.9186L34.9418 25.8875Z" fill="url(#paint22_linear_663_1525)"/>
<path fill-rule="evenodd" clip-rule="evenodd" d="M27.561 27.744C27.7863 28.6297 31.0259 29.4998 32.3233 29.8105C32.3233 29.9711 32.3 30.1316 32.2534 30.2922C31.0881 30.0203 27.4989 29.057 27.227 28.1169C27.1974 27.9955 27.1953 27.8691 27.2208 27.7468C27.2464 27.6245 27.2989 27.5094 27.3746 27.41L27.7164 27.0759C27.6411 27.168 27.5879 27.2761 27.561 27.3919C27.5341 27.5077 27.5341 27.6282 27.561 27.744ZM34.2345 26.7419C33.2168 26.5787 29.9927 25.965 29.9383 25.1337C29.9357 25.058 29.9496 24.9826 29.9791 24.9128C30.0086 24.8431 30.0531 24.7806 30.1092 24.7297L30.451 24.3957C30.3978 24.4406 30.3551 24.4965 30.3256 24.5595C30.296 24.6226 30.2805 24.6912 30.2801 24.7608C30.2801 25.6309 33.8305 26.2136 34.6229 26.3146C34.5011 26.4614 34.3715 26.6014 34.2345 26.7341V26.7419Z" fill="white"/>
<path fill-rule="evenodd" clip-rule="evenodd" d="M28.9909 27.845C28.5015 28.1791 26.7302 27.5808 26.8778 28.482C26.8399 28.35 26.8335 28.211 26.8592 28.076C26.8848 27.9411 26.9418 27.8141 27.0254 27.7051C28.1975 25.9259 29.7137 24.3992 31.4847 23.2148C31.4348 23.2541 31.3939 23.3034 31.3644 23.3597C31.3349 23.4159 31.3177 23.4777 31.3138 23.5411C31.3138 23.7975 31.6168 24.0228 32.0907 24.2014C31.2382 25.5496 30.191 26.7643 28.9832 27.8061L28.9909 27.845Z" fill="#995F06"/>
<path fill-rule="evenodd" clip-rule="evenodd" d="M5.41989 25.8875C6.00255 25.8176 9.74711 25.2738 9.74711 24.3882C9.74321 24.3248 9.72597 24.263 9.69652 24.2068C9.66706 24.1505 9.62604 24.1012 9.57617 24.0619C11.1066 24.9702 12.3962 26.2332 13.3363 27.7443C13.4199 27.8532 13.4769 27.9802 13.5025 28.1152C13.5282 28.2501 13.5218 28.3892 13.4839 28.5212C13.4008 28.7498 13.2343 28.9385 13.0178 29.0494C11.5129 29.8685 9.8949 30.4601 8.21663 30.8052C7.99537 29.872 7.9272 28.9091 8.01468 27.954C6.95372 27.5679 6.0425 26.8553 5.41211 25.9186L5.41989 25.8875Z" fill="url(#paint23_linear_663_1525)"/>
<path fill-rule="evenodd" clip-rule="evenodd" d="M12.8471 27.744C12.6218 28.6296 9.38223 29.4997 8.08485 29.8105C8.08485 29.971 8.10817 30.1316 8.15478 30.2921C9.3201 30.0202 12.9093 29.0569 13.1812 28.1169C13.2108 27.9955 13.2129 27.869 13.1873 27.7467C13.1618 27.6244 13.1093 27.5093 13.0336 27.4099L12.6917 27.0759C12.767 27.1679 12.8202 27.276 12.8472 27.3918C12.8741 27.5077 12.8741 27.6282 12.8471 27.744ZM6.19703 26.7418C7.21475 26.5787 10.4388 25.9649 10.4932 25.1337C10.4958 25.0579 10.4819 24.9826 10.4524 24.9128C10.4229 24.843 10.3784 24.7805 10.3223 24.7297L9.98043 24.3956C10.0336 24.4405 10.0764 24.4964 10.1059 24.5595C10.1355 24.6225 10.151 24.6912 10.1514 24.7608C10.1514 25.6309 6.60101 26.2135 5.80859 26.3145C5.93034 26.4613 6.06001 26.6014 6.19703 26.734V26.7418Z" fill="white"/>
<path fill-rule="evenodd" clip-rule="evenodd" d="M11.4103 27.8451C11.8998 28.1791 13.671 27.5809 13.5234 28.4821C13.5613 28.3501 13.5677 28.211 13.5421 28.0761C13.5164 27.9412 13.4595 27.8141 13.3758 27.7052C12.2037 25.926 10.6876 24.3992 8.91654 23.2148C8.9664 23.2541 9.00743 23.3035 9.03688 23.3597C9.06633 23.416 9.08353 23.4778 9.08743 23.5411C9.08743 23.7975 8.78444 24.0228 8.31055 24.2015C9.16307 25.5497 10.2102 26.7644 11.4181 27.8062L11.4103 27.8451Z" fill="#995F06"/>
<path style="mix-blend-mode:screen" fill-rule="evenodd" clip-rule="evenodd" d="M27.8795 20.9075C27.561 21.4203 26.3257 23.4945 25.9606 23.9684C25.5955 24.4423 25.5644 24.6133 24.7797 24.6677C23.9951 24.722 22.3326 24.7764 21.6722 24.7842C21.3692 24.7842 21.1051 24.6676 21.1284 24.318C21.1517 23.9685 21.4469 23.9685 21.68 23.9607C22.2782 23.9607 23.6766 23.883 24.3447 23.8364C24.5763 23.8369 24.8067 23.8028 25.0283 23.7354C25.2651 23.5934 25.469 23.4027 25.6266 23.176C25.9684 22.7876 27.1803 20.9386 27.46 20.5968C27.7397 20.255 28.097 20.5968 27.895 20.9075H27.8795Z" fill="url(#paint24_radial_663_1525)"/>
<path fill-rule="evenodd" clip-rule="evenodd" d="M20.1813 19.4311C22.4173 19.4146 24.6496 19.615 26.8469 20.0293C27.9423 20.2546 32.2151 21.3578 32.6502 22.4376C32.6979 22.5466 32.7225 22.6644 32.7225 22.7834C32.7225 22.9023 32.6979 23.0201 32.6502 23.1291C31.8099 24.9661 30.5547 26.583 28.9833 27.8525C29.5349 27.4019 29.0999 26.7183 28.5949 26.3842C27.5727 25.8138 26.4529 25.4396 25.2931 25.281C23.6052 24.9873 21.8945 24.8443 20.1813 24.8537C20.1347 23.8593 20.1113 22.9089 20.1113 22.0026C20.1113 21.0962 20.1347 20.2417 20.1813 19.4389V19.4311Z" fill="url(#paint25_radial_663_1525)"/>
<path fill-rule="evenodd" clip-rule="evenodd" d="M20.1819 19.4311C17.9459 19.4146 15.7136 19.615 13.5163 20.0293C12.4209 20.2546 8.14804 21.3578 7.71298 22.4376C7.66528 22.5466 7.64062 22.6644 7.64062 22.7834C7.64062 22.9023 7.66528 23.0201 7.71298 23.1291C8.55326 24.9661 9.80847 26.583 11.3798 27.8525C10.8282 27.4019 11.2633 26.7183 11.7683 26.3842C12.7904 25.8138 13.9103 25.4396 15.07 25.281C16.7579 24.9873 18.4686 24.8443 20.1819 24.8537C20.2285 23.8593 20.2518 22.9089 20.2518 22.0026C20.2518 21.0962 20.2285 20.2417 20.1819 19.4389V19.4311Z" fill="url(#paint26_radial_663_1525)"/>
<path fill-rule="evenodd" clip-rule="evenodd" d="M11.0905 25.5221C10.8236 25.6548 10.6141 25.8802 10.5012 26.1561C10.3883 26.432 10.3796 26.7396 10.4768 27.0215L10.7176 27.2545C10.6983 26.9921 10.7546 26.7297 10.8799 26.4984C11.0052 26.267 11.1942 26.0765 11.4246 25.9494C12.5096 25.3492 13.6938 24.9492 14.9205 24.7685C16.6617 24.4595 18.4273 24.3087 20.1956 24.3179C20.1956 24.147 20.1956 23.9735 20.1956 23.7974C18.3721 23.7871 16.5516 23.9457 14.7574 24.2713C13.4647 24.4689 12.2161 24.8895 11.0673 25.5143L11.0905 25.5221ZM8.06073 23.7663C8.08805 23.5323 8.17338 23.3088 8.30906 23.1161C8.44473 22.9234 8.62645 22.7677 8.83761 22.6632C10.412 21.8681 12.0913 21.3006 13.8252 20.9773C15.928 20.5604 18.0673 20.3548 20.2111 20.3636C20.2111 20.2082 20.2111 20.0528 20.2111 19.8975C18.0202 19.887 15.8339 20.0978 13.6853 20.5267C11.8909 20.8686 10.1524 21.4568 8.51907 22.2747C8.33672 22.3665 8.17426 22.4934 8.04096 22.648C7.90766 22.8026 7.80613 22.982 7.74219 23.1759L7.8199 23.3313L8.06073 23.7663Z" fill="white"/>
<path fill-rule="evenodd" clip-rule="evenodd" d="M20.1798 19.8278C18.2049 19.8228 16.2336 19.9996 14.2911 20.3561C12.6234 20.6509 10.9963 21.1411 9.44336 21.8166C11.0032 21.1632 12.6321 20.6888 14.2989 20.4027C16.24 20.0568 18.2082 19.8852 20.1798 19.8899V19.8278ZM12.0925 25.0174C13.2241 24.5933 14.3991 24.2963 15.5962 24.1317C17.1112 23.9091 18.6408 23.8 20.1721 23.8054C18.636 23.7574 17.0988 23.8536 15.5807 24.0929C14.3859 24.2637 13.2152 24.574 12.0925 25.0174Z" fill="white"/>
<path style="mix-blend-mode:screen" fill-rule="evenodd" clip-rule="evenodd" d="M11.8204 26.3455C11.1427 25.6173 10.5219 24.8381 9.96363 24.0148C9.46409 23.2813 9.03741 22.5007 8.68958 21.6842C8.42737 21.8165 8.18433 21.9838 7.96709 22.1814L7.86609 22.2979C7.86234 22.3419 7.86234 22.3861 7.86609 22.43C8.23084 23.2333 8.67867 23.9962 9.2023 24.7063C9.77158 25.549 10.448 26.3141 11.2144 26.9825C11.3438 26.7615 11.5218 26.5729 11.7349 26.431L11.8204 26.3455Z" fill="url(#paint27_radial_663_1525)"/>
<path fill-rule="evenodd" clip-rule="evenodd" d="M29.3159 25.5221C29.5828 25.6549 29.7923 25.8803 29.9052 26.1562C30.0182 26.4321 30.0268 26.7397 29.9296 27.0215L29.6888 27.2546C29.7081 26.9922 29.6518 26.7298 29.5265 26.4984C29.4012 26.2671 29.2122 26.0765 28.9818 25.9494C27.8968 25.3492 26.7126 24.9492 25.4859 24.7686C23.7447 24.4595 21.9791 24.3087 20.2108 24.318C20.2108 24.1471 20.2108 23.9735 20.2108 23.7975C22.0343 23.7871 23.8548 23.9458 25.649 24.2714C26.9417 24.469 28.1903 24.8895 29.3392 25.5144L29.3159 25.5221ZM32.3457 23.7664C32.3184 23.5323 32.233 23.3088 32.0973 23.1162C31.9617 22.9235 31.78 22.7678 31.5688 22.6632C29.9944 21.8682 28.3151 21.3006 26.5812 20.9774C24.4784 20.5605 22.3391 20.3549 20.1953 20.3637C20.1953 20.2083 20.1953 20.0529 20.1953 19.8975C22.3862 19.8871 24.5725 20.0979 26.7211 20.5268C28.5155 20.8687 30.254 21.4569 31.8873 22.2748C32.0697 22.3666 32.2321 22.4934 32.3654 22.6481C32.4987 22.8027 32.6003 22.9821 32.6642 23.176L32.5865 23.3313L32.3457 23.7664Z" fill="white"/>
<path fill-rule="evenodd" clip-rule="evenodd" d="M20.1797 19.8279C22.1547 19.8228 24.1259 19.9997 26.0684 20.3561C27.7361 20.651 29.3632 21.1412 30.9162 21.8167C29.3564 21.1633 27.7274 20.6889 26.0607 20.4027C24.1195 20.0569 22.1514 19.8853 20.1797 19.89V19.8279ZM28.267 25.0174C27.1355 24.5934 25.9604 24.2963 24.7633 24.1318C23.2483 23.9091 21.7187 23.8001 20.1875 23.8055C21.7235 23.7575 23.2607 23.8537 24.7788 24.0929C25.9737 24.2637 27.1444 24.574 28.267 25.0174Z" fill="white"/>
<path style="mix-blend-mode:screen" fill-rule="evenodd" clip-rule="evenodd" d="M28.5859 26.3455C29.2636 25.6173 29.8844 24.8381 30.4427 24.0148C30.9422 23.2813 31.3689 22.5007 31.7167 21.6842C31.9789 21.8165 32.222 21.9838 32.4393 22.1814L32.5402 22.2979C32.544 22.3419 32.544 22.3861 32.5402 22.43C32.1755 23.2333 31.7276 23.9962 31.204 24.7063C30.6347 25.549 29.9584 26.3141 29.1919 26.9825C29.0625 26.7615 28.8845 26.5729 28.6714 26.431L28.5859 26.3455Z" fill="url(#paint28_radial_663_1525)"/>
<path d="M18.9805 12.3604H20.0332C20.3704 12.3604 20.6484 12.3034 20.8672 12.1895C21.0859 12.071 21.2477 11.9069 21.3525 11.6973C21.4619 11.4831 21.5166 11.2347 21.5166 10.9521C21.5166 10.6969 21.4665 10.4714 21.3662 10.2754C21.2705 10.0749 21.1224 9.91992 20.9219 9.81055C20.7214 9.69661 20.4684 9.63965 20.1631 9.63965C19.9215 9.63965 19.6982 9.6875 19.4932 9.7832C19.2881 9.87891 19.124 10.0133 19.001 10.1865C18.8779 10.3597 18.8164 10.5693 18.8164 10.8154H16.8408C16.8408 10.2686 16.9867 9.79232 17.2783 9.38672C17.5745 8.98112 17.971 8.66439 18.4678 8.43652C18.9645 8.20866 19.5114 8.09473 20.1084 8.09473C20.7829 8.09473 21.373 8.2041 21.8789 8.42285C22.3848 8.63704 22.779 8.95378 23.0615 9.37305C23.3441 9.79232 23.4854 10.3118 23.4854 10.9316C23.4854 11.2461 23.4124 11.5514 23.2666 11.8477C23.1208 12.1393 22.9111 12.4036 22.6377 12.6406C22.3688 12.873 22.0407 13.0599 21.6533 13.2012C21.266 13.3379 20.8307 13.4062 20.3477 13.4062H18.9805V12.3604ZM18.9805 13.8574V12.8389H20.3477C20.89 12.8389 21.3662 12.9004 21.7764 13.0234C22.1865 13.1465 22.5306 13.3242 22.8086 13.5566C23.0866 13.7845 23.2962 14.0557 23.4375 14.3701C23.5788 14.68 23.6494 15.0241 23.6494 15.4023C23.6494 15.8672 23.5605 16.2819 23.3828 16.6465C23.2051 17.0065 22.9544 17.3118 22.6309 17.5625C22.3118 17.8132 21.9382 18.0046 21.5098 18.1367C21.0814 18.2643 20.6143 18.3281 20.1084 18.3281C19.6891 18.3281 19.2767 18.2712 18.8711 18.1572C18.4701 18.0387 18.1055 17.8633 17.7773 17.6309C17.4538 17.3939 17.194 17.0977 16.998 16.7422C16.8066 16.3822 16.7109 15.9561 16.7109 15.4639H18.6865C18.6865 15.7191 18.7503 15.9469 18.8779 16.1475C19.0055 16.348 19.181 16.5052 19.4043 16.6191C19.6322 16.7331 19.8851 16.79 20.1631 16.79C20.4775 16.79 20.7464 16.7331 20.9697 16.6191C21.1976 16.5007 21.3708 16.3366 21.4893 16.127C21.6123 15.9128 21.6738 15.6644 21.6738 15.3818C21.6738 15.0173 21.6077 14.7256 21.4756 14.5068C21.3434 14.2835 21.1543 14.1195 20.9082 14.0146C20.6621 13.9098 20.3704 13.8574 20.0332 13.8574H18.9805Z" fill="#ECB42E"/>
</g>
<defs>
<filter id="filter0_d_663_1525" x="0.130859" y="0.805176" width="39.7363" height="34" filterUnits="userSpaceOnUse" color-interpolation-filters="sRGB">
<feFlood flood-opacity="0" result="BackgroundImageFix"/>
<feColorMatrix in="SourceAlpha" type="matrix" values="0 0 0 0 0 0 0 0 0 0 0 0 0 0 0 0 0 0 127 0" result="hardAlpha"/>
<feOffset dy="2"/>
<feGaussianBlur stdDeviation="1"/>
<feComposite in2="hardAlpha" operator="out"/>
<feColorMatrix type="matrix" values="0 0 0 0 0 0 0 0 0 0 0 0 0 0 0 0 0 0 0.25 0"/>
<feBlend mode="normal" in2="BackgroundImageFix" result="effect1_dropShadow_663_1525"/>
<feBlend mode="normal" in="SourceGraphic" in2="effect1_dropShadow_663_1525" result="shape"/>
</filter>
<linearGradient id="paint0_linear_663_1525" x1="5.20854" y1="21.8401" x2="13.459" y2="21.8401" gradientUnits="userSpaceOnUse">
<stop stop-color="#F5DE66"/>
<stop offset="0.62" stop-color="#EBB12A"/>
<stop offset="1" stop-color="#E38023"/>
</linearGradient>
<linearGradient id="paint1_linear_663_1525" x1="5.20793" y1="21.2724" x2="13.3496" y2="21.2724" gradientUnits="userSpaceOnUse">
<stop stop-color="#F5DE66"/>
<stop offset="1"/>
</linearGradient>
<linearGradient id="paint2_linear_663_1525" x1="6.91714" y1="20.8301" x2="13.3652" y2="20.8301" gradientUnits="userSpaceOnUse">
<stop stop-color="#F5DE66"/>
<stop offset="1" stop-color="#D58924"/>
</linearGradient>
<linearGradient id="paint3_linear_663_1525" x1="3.36616" y1="19.8042" x2="13.248" y2="19.8042" gradientUnits="userSpaceOnUse">
<stop stop-color="#F5DE66"/>
<stop offset="0.62" stop-color="#EBB12A"/>
<stop offset="1" stop-color="#E38023"/>
</linearGradient>
<linearGradient id="paint4_linear_663_1525" x1="3.36732" y1="19.1127" x2="13.1094" y2="19.1127" gradientUnits="userSpaceOnUse">
<stop stop-color="#F5DE66"/>
<stop offset="1"/>
</linearGradient>
<linearGradient id="paint5_linear_663_1525" x1="5.95449" y1="19.1749" x2="13.1406" y2="19.1749" gradientUnits="userSpaceOnUse">
<stop stop-color="#F5DE66"/>
<stop offset="1" stop-color="#D58924"/>
</linearGradient>
<linearGradient id="paint6_linear_663_1525" x1="2.13131" y1="16.9606" x2="12.9766" y2="16.9606" gradientUnits="userSpaceOnUse">
<stop stop-color="#F5DE66"/>
<stop offset="0.62" stop-color="#EBB12A"/>
<stop offset="1" stop-color="#E38023"/>
</linearGradient>
<linearGradient id="paint7_linear_663_1525" x1="2.13217" y1="16.58" x2="12.7832" y2="16.58" gradientUnits="userSpaceOnUse">
<stop stop-color="#F5DE66"/>
<stop offset="1"/>
</linearGradient>
<linearGradient id="paint8_linear_663_1525" x1="2.13202" y1="15.0888" x2="10.6622" y2="15.0888" gradientUnits="userSpaceOnUse">
<stop stop-color="#F5DE66"/>
<stop offset="1"/>
</linearGradient>
<linearGradient id="paint9_linear_663_1525" x1="34.7895" y1="21.8401" x2="26.5391" y2="21.8401" gradientUnits="userSpaceOnUse">
<stop stop-color="#F5DE66"/>
<stop offset="0.62" stop-color="#EBB12A"/>
<stop offset="1" stop-color="#E38023"/>
</linearGradient>
<linearGradient id="paint10_linear_663_1525" x1="34.7901" y1="21.2724" x2="26.6484" y2="21.2724" gradientUnits="userSpaceOnUse">
<stop stop-color="#F5DE66"/>
<stop offset="1"/>
</linearGradient>
<linearGradient id="paint11_linear_663_1525" x1="33.0809" y1="20.8301" x2="26.6328" y2="20.8301" gradientUnits="userSpaceOnUse">
<stop stop-color="#F5DE66"/>
<stop offset="1" stop-color="#D58924"/>
</linearGradient>
<linearGradient id="paint12_linear_663_1525" x1="36.6319" y1="19.8042" x2="26.75" y2="19.8042" gradientUnits="userSpaceOnUse">
<stop stop-color="#F5DE66"/>
<stop offset="0.62" stop-color="#EBB12A"/>
<stop offset="1" stop-color="#E38023"/>
</linearGradient>
<linearGradient id="paint13_linear_663_1525" x1="36.6307" y1="19.1127" x2="26.8887" y2="19.1127" gradientUnits="userSpaceOnUse">
<stop stop-color="#F5DE66"/>
<stop offset="1"/>
</linearGradient>
<linearGradient id="paint14_linear_663_1525" x1="34.0436" y1="19.1749" x2="26.8574" y2="19.1749" gradientUnits="userSpaceOnUse">
<stop stop-color="#F5DE66"/>
<stop offset="1" stop-color="#D58924"/>
</linearGradient>
<linearGradient id="paint15_linear_663_1525" x1="37.8667" y1="16.9606" x2="27.0215" y2="16.9606" gradientUnits="userSpaceOnUse">
<stop stop-color="#F5DE66"/>
<stop offset="0.62" stop-color="#EBB12A"/>
<stop offset="1" stop-color="#E38023"/>
</linearGradient>
<linearGradient id="paint16_linear_663_1525" x1="37.8659" y1="16.58" x2="27.2148" y2="16.58" gradientUnits="userSpaceOnUse">
<stop stop-color="#F5DE66"/>
<stop offset="1"/>
</linearGradient>
<linearGradient id="paint17_linear_663_1525" x1="37.866" y1="15.0888" x2="29.3359" y2="15.0888" gradientUnits="userSpaceOnUse">
<stop stop-color="#F5DE66"/>
<stop offset="1"/>
</linearGradient>
<radialGradient id="paint18_radial_663_1525" cx="0" cy="0" r="1" gradientUnits="userSpaceOnUse" gradientTransform="translate(20.405 15.1415) rotate(90) scale(27.5294 27.5294)">
<stop stop-color="#F5DE66"/>
<stop offset="0.536458" stop-color="#EBB12A"/>
<stop offset="1" stop-color="#E38023"/>
</radialGradient>
<radialGradient id="paint19_radial_663_1525" cx="0" cy="0" r="1" gradientUnits="userSpaceOnUse" gradientTransform="translate(20.3933 15.1413) rotate(90) scale(25.9763 25.9763)">
<stop stop-color="#EBB12A"/>
<stop offset="1" stop-color="#111102"/>
</radialGradient>
<radialGradient id="paint20_radial_663_1525" cx="0" cy="0" r="1" gradientUnits="userSpaceOnUse" gradientTransform="translate(20.356 15.1415) rotate(90) scale(21.5548 21.5548)">
<stop stop-color="#F5DE66"/>
<stop offset="0.536458" stop-color="#EBB12A"/>
<stop offset="1" stop-color="#E38023"/>
</radialGradient>
<linearGradient id="paint21_linear_663_1525" x1="27.5147" y1="13.6443" x2="12.2535" y2="13.6443" gradientUnits="userSpaceOnUse">
<stop stop-color="#EBB12A"/>
<stop offset="1" stop-color="#111102"/>
</linearGradient>
<linearGradient id="paint22_linear_663_1525" x1="34.9496" y1="27.418" x2="26.8545" y2="27.418" gradientUnits="userSpaceOnUse">
<stop stop-color="#FFE18E"/>
<stop offset="1" stop-color="#F39D1A"/>
</linearGradient>
<linearGradient id="paint23_linear_663_1525" x1="5.45872" y1="27.418" x2="13.5538" y2="27.418" gradientUnits="userSpaceOnUse">
<stop stop-color="#FFE18E"/>
<stop offset="1" stop-color="#F39D1A"/>
</linearGradient>
<radialGradient id="paint24_radial_663_1525" cx="0" cy="0" r="1" gradientUnits="userSpaceOnUse" gradientTransform="translate(33.5818 30.1835) rotate(180) scale(13.5721 13.5721)">
<stop stop-color="#F6DFEB"/>
<stop offset="0.98" stop-color="#111102"/>
</radialGradient>
<radialGradient id="paint25_radial_663_1525" cx="0" cy="0" r="1" gradientUnits="userSpaceOnUse" gradientTransform="translate(20.4221 17.4889) scale(12.3006 12.3006)">
<stop stop-color="#FFE18E"/>
<stop offset="1" stop-color="#F39D1A"/>
</radialGradient>
<radialGradient id="paint26_radial_663_1525" cx="0" cy="0" r="1" gradientUnits="userSpaceOnUse" gradientTransform="translate(19.9877 17.4889) rotate(-180) scale(12.3471 12.347)">
<stop stop-color="#FFE18E"/>
<stop offset="1" stop-color="#F39D1A"/>
</radialGradient>
<radialGradient id="paint27_radial_663_1525" cx="0" cy="0" r="1" gradientUnits="userSpaceOnUse" gradientTransform="translate(8.70512 20.4956) scale(8.78645 8.78652)">
<stop stop-color="#7BD7FD"/>
<stop offset="1" stop-color="#151515"/>
</radialGradient>
<radialGradient id="paint28_radial_663_1525" cx="0" cy="0" r="1" gradientUnits="userSpaceOnUse" gradientTransform="translate(31.7012 20.4956) rotate(180) scale(8.78645 8.78652)">
<stop stop-color="#7BD7FD"/>
<stop offset="1" stop-color="#151515"/>
</radialGradient>
</defs>
</svg>
