<svg width="40" height="34" viewBox="0 0 40 34" fill="none" xmlns="http://www.w3.org/2000/svg">
<g filter="url(#filter0_d_663_1618)">
<path fill-rule="evenodd" clip-rule="evenodd" d="M13.2492 19.8929C11.812 19.015 10.872 18.8985 9.04631 19.8463C7.49256 20.662 5.88442 21.4 5.2163 21.3301C5.51453 21.7577 5.89995 22.1172 6.3472 22.385C6.79445 22.6528 7.29334 22.8229 7.81106 22.8839C8.58935 22.8861 9.34923 22.6473 9.98631 22.2002C11.6488 21.2524 12.317 20.7552 13.459 20.7086L13.2492 19.8851V19.8929Z" fill="url(#paint0_linear_663_1618)"/>
<path style="mix-blend-mode:screen" fill-rule="evenodd" clip-rule="evenodd" d="M5.20793 21.3218C6.91706 22.1842 8.26105 21.617 10.2421 20.5915C11.4696 19.9545 12.3008 19.8147 13.3496 20.2963L13.2486 19.8846C11.8114 19.0067 10.8714 18.8902 9.04571 19.838C7.49196 20.6537 5.88382 21.3917 5.2157 21.3218H5.20793Z" fill="url(#paint1_linear_663_1618)"/>
<path style="mix-blend-mode:multiply" fill-rule="evenodd" clip-rule="evenodd" d="M13.2487 19.8929C11.8115 19.015 10.8715 18.8985 9.04579 19.8463C8.26891 20.2269 7.56972 20.6232 6.91714 20.864C7.49732 20.8787 8.07696 20.8187 8.64179 20.6853C10.9724 20.1959 11.8892 19.8696 13.3652 20.3512L13.2487 19.8929Z" fill="url(#paint2_linear_663_1618)"/>
<path fill-rule="evenodd" clip-rule="evenodd" d="M12.9762 18.8203C11.6089 17.3831 10.56 16.9636 8.19055 17.4841C6.13959 17.9347 4.1042 18.261 3.36616 18.0046C3.5737 18.5863 3.90274 19.1172 4.33138 19.562C4.76003 20.0067 5.27841 20.355 5.85214 20.5838C6.74115 20.8248 7.68304 20.7841 8.54794 20.4673C10.8786 19.8536 11.7797 19.4884 13.248 19.9002L12.9762 18.8281V18.8203Z" fill="url(#paint3_linear_663_1618)"/>
<path style="mix-blend-mode:screen" fill-rule="evenodd" clip-rule="evenodd" d="M3.36732 17.9968C4.70356 19.2941 6.10194 19.3563 8.32382 18.9912C10.5457 18.626 11.5245 18.2143 13.1094 19.3485L12.9773 18.8125C11.61 17.3753 10.5612 16.9558 8.19171 17.4763C6.14075 17.9268 4.10536 18.2531 3.36732 17.9968Z" fill="url(#paint4_linear_663_1618)"/>
<path style="mix-blend-mode:multiply" fill-rule="evenodd" clip-rule="evenodd" d="M12.9775 18.8203C11.6102 17.3831 10.5614 16.9636 8.19191 17.4841C7.41503 17.655 6.63814 17.8104 5.95449 17.9191C6.39586 18.0042 6.84218 18.0613 7.29075 18.09C10.3361 18.2998 11.3849 18.1988 13.1406 19.4884L13.0241 19.0145L12.9775 18.8281V18.8203Z" fill="url(#paint5_linear_663_1618)"/>
<path fill-rule="evenodd" clip-rule="evenodd" d="M12.5881 17.282C11.4927 15.2698 10.4517 14.493 7.66269 14.3609C5.24659 14.2521 2.87711 14.0346 2.13131 13.4985C2.18682 14.2105 2.39365 14.9025 2.73796 15.5281C3.08227 16.1537 3.55613 16.6987 4.12789 17.1266C5.04374 17.6595 6.10222 17.8956 7.15774 17.8025C10.1876 17.8025 11.2286 17.6471 12.9766 18.8279L12.5881 17.2742V17.282Z" fill="url(#paint6_linear_663_1618)"/>
<path style="mix-blend-mode:screen" fill-rule="evenodd" clip-rule="evenodd" d="M2.13217 13.4985C3.22757 15.332 4.68034 15.5184 6.99544 15.736C9.62906 15.9923 11.2838 16.0933 12.7832 18.0666L12.589 17.2897C11.4936 15.2776 10.4525 14.5007 7.66355 14.3687C5.24745 14.2599 2.87797 14.0424 2.13217 13.5063V13.4985Z" fill="url(#paint7_linear_663_1618)"/>
<path style="mix-blend-mode:screen" fill-rule="evenodd" clip-rule="evenodd" d="M2.13202 13.499C3.08759 14.3768 4.46267 14.4235 5.68237 14.4856C7.7411 14.5866 9.24046 14.439 10.6699 15.0527C9.73882 14.5806 8.7073 14.3407 7.6634 14.3535C5.24731 14.2448 2.87783 14.0273 2.13202 13.4912V13.499Z" fill="url(#paint8_linear_663_1618)"/>
<path fill-rule="evenodd" clip-rule="evenodd" d="M26.7488 19.8929C28.1861 19.015 29.1261 18.8985 30.9517 19.8463C32.5055 20.662 34.1136 21.4 34.7817 21.3301C34.4835 21.7577 34.0981 22.1172 33.6508 22.385C33.2036 22.6528 32.7047 22.8229 32.187 22.8839C31.4087 22.8861 30.6488 22.6473 30.0117 22.2002C28.3492 21.2524 27.6811 20.7552 26.5391 20.7086L26.7488 19.8851V19.8929Z" fill="url(#paint9_linear_663_1618)"/>
<path style="mix-blend-mode:screen" fill-rule="evenodd" clip-rule="evenodd" d="M34.7901 21.3218C33.081 22.1842 31.737 21.617 29.756 20.5915C28.5285 19.9545 27.6972 19.8147 26.6484 20.2963L26.7494 19.8846C28.1867 19.0067 29.1267 18.8902 30.9523 19.838C32.5061 20.6537 34.1142 21.3917 34.7823 21.3218H34.7901Z" fill="url(#paint10_linear_663_1618)"/>
<path style="mix-blend-mode:multiply" fill-rule="evenodd" clip-rule="evenodd" d="M26.7494 19.8929C28.1866 19.015 29.1266 18.8985 30.9523 19.8463C31.7291 20.2269 32.4283 20.6232 33.0809 20.864C32.5007 20.8787 31.9211 20.8187 31.3563 20.6853C29.0256 20.1959 28.1089 19.8696 26.6328 20.3512L26.7494 19.8929Z" fill="url(#paint11_linear_663_1618)"/>
<path fill-rule="evenodd" clip-rule="evenodd" d="M27.0219 18.8203C28.3892 17.3831 29.438 16.9636 31.8075 17.4841C33.8585 17.9347 35.8938 18.261 36.6319 18.0046C36.4243 18.5863 36.0953 19.1172 35.6667 19.562C35.238 20.0067 34.7196 20.355 34.1459 20.5838C33.2569 20.8248 32.315 20.7841 31.4501 20.4673C29.1195 19.8536 28.2183 19.4884 26.75 19.9002L27.0219 18.8281V18.8203Z" fill="url(#paint12_linear_663_1618)"/>
<path style="mix-blend-mode:screen" fill-rule="evenodd" clip-rule="evenodd" d="M36.6307 17.9968C35.2945 19.2941 33.8961 19.3563 31.6742 18.9912C29.4524 18.626 28.4735 18.2143 26.8887 19.3485L27.0207 18.8125C28.388 17.3753 29.4368 16.9558 31.8063 17.4763C33.8573 17.9268 35.8927 18.2531 36.6307 17.9968Z" fill="url(#paint13_linear_663_1618)"/>
<path style="mix-blend-mode:multiply" fill-rule="evenodd" clip-rule="evenodd" d="M27.0205 18.8203C28.3878 17.3831 29.4367 16.9636 31.8061 17.4841C32.583 17.655 33.3599 17.8104 34.0436 17.9191C33.6022 18.0042 33.1559 18.0613 32.7073 18.09C29.6619 18.2998 28.6132 18.1988 26.8574 19.4884L26.9739 19.0145L27.0205 18.8281V18.8203Z" fill="url(#paint14_linear_663_1618)"/>
<path fill-rule="evenodd" clip-rule="evenodd" d="M27.4099 17.282C28.5053 15.2698 29.5464 14.493 32.3354 14.3609C34.7515 14.2521 37.1209 14.0346 37.8667 13.4985C37.8112 14.2105 37.6044 14.9025 37.2601 15.5281C36.9158 16.1537 36.4419 16.6987 35.8702 17.1266C34.9543 17.6595 33.8958 17.8956 32.8403 17.8025C29.8105 17.8025 28.7695 17.6471 27.0215 18.8279L27.4099 17.2742V17.282Z" fill="url(#paint15_linear_663_1618)"/>
<path style="mix-blend-mode:screen" fill-rule="evenodd" clip-rule="evenodd" d="M37.8659 13.4985C36.7705 15.332 35.3177 15.5184 33.0026 15.736C30.369 15.9923 28.7142 16.0933 27.2148 18.0666L27.4091 17.2897C28.5045 15.2776 29.5455 14.5007 32.3345 14.3687C34.7506 14.2599 37.1201 14.0424 37.8659 13.5063V13.4985Z" fill="url(#paint16_linear_663_1618)"/>
<path style="mix-blend-mode:screen" fill-rule="evenodd" clip-rule="evenodd" d="M37.866 13.499C36.9105 14.3768 35.5354 14.4235 34.3157 14.4856C32.2569 14.5866 30.7576 14.439 29.3281 15.0527C30.2592 14.5806 31.2907 14.3407 32.3346 14.3535C34.7507 14.2448 37.1202 14.0273 37.866 13.4912V13.499Z" fill="url(#paint17_linear_663_1618)"/>
<path fill-rule="evenodd" clip-rule="evenodd" d="M20.0539 28.6323C17.2793 27.6767 14.4529 26.5254 12.3058 24.4589C9.01312 21.2871 8.21875 16.659 8.21875 12.2841V2.9703L8.46051 2.87819C12.2144 1.42243 16.1398 0.455113 20.1402 0H20.2208C24.2213 0.455113 28.1466 1.42243 31.9005 2.87819L32.1423 2.9703V12.2841C32.1423 16.6647 31.3421 21.2929 28.0495 24.4589C25.9024 26.5254 23.076 27.6767 20.3014 28.6323L20.1805 28.6726L20.0596 28.6323H20.0539Z" fill="url(#paint18_radial_663_1618)"/>
<g style="mix-blend-mode:screen">
<path fill-rule="evenodd" clip-rule="evenodd" d="M20.06 27.8256C17.442 26.9239 14.775 25.8376 12.749 23.8876C9.64213 20.8948 8.89258 16.5278 8.89258 12.3997V3.61132L9.1207 3.52441C12.6628 2.15078 16.3667 1.23803 20.1415 0.808594H20.2175C23.9923 1.23803 27.6963 2.15078 31.2383 3.52441L31.4665 3.61132V12.3997C31.4665 16.5332 30.7115 20.9002 27.6046 23.8876C25.5786 25.8376 22.9116 26.9239 20.2936 27.8256L20.1795 27.8636L20.0655 27.8256H20.06Z" fill="url(#paint19_radial_663_1618)"/>
</g>
<path fill-rule="evenodd" clip-rule="evenodd" d="M20.0811 25.5297C17.9086 24.7815 15.6956 23.8801 14.0145 22.262C11.4364 19.7786 10.8145 16.1549 10.8145 12.7295V5.437L11.0037 5.36488C13.9429 4.22506 17.0164 3.46767 20.1487 3.11133H20.2118C23.344 3.46767 26.4175 4.22506 29.3567 5.36488L29.546 5.437V12.7295C29.546 16.1594 28.9195 19.7831 26.3414 22.262C24.6603 23.8801 22.4473 24.7815 20.2749 25.5297L20.1802 25.5612L20.0856 25.5297H20.0811Z" fill="url(#paint20_radial_663_1618)"/>
<g style="mix-blend-mode:screen">
<path fill-rule="evenodd" clip-rule="evenodd" d="M20.0863 24.9552C18.0253 24.2454 15.9258 23.3902 14.3309 21.8551C11.885 19.4991 11.2949 16.0612 11.2949 12.8115V5.89293L11.4745 5.82451C14.263 4.74314 17.1788 4.02459 20.1505 3.68652H20.2103C23.1819 4.02459 26.0978 4.74314 28.8863 5.82451L29.0659 5.89293V12.8115C29.0659 16.0655 28.4715 19.5034 26.0256 21.8551C24.4307 23.3902 22.3312 24.2454 20.2702 24.9552L20.1804 24.9852L20.0906 24.9552H20.0863Z" fill="url(#paint21_linear_663_1618)"/>
</g>
<path fill-rule="evenodd" clip-rule="evenodd" d="M34.9418 25.0823C34.3592 25.0124 30.6146 24.4686 30.6146 23.583C30.6185 23.5196 30.6357 23.4578 30.6652 23.4016C30.6946 23.3454 30.7357 23.296 30.7855 23.2567C29.2551 24.165 27.9655 25.428 27.0254 26.9391C26.9418 27.048 26.8848 27.175 26.8592 27.31C26.8335 27.4449 26.8399 27.584 26.8778 27.716C26.9609 27.9446 27.1274 28.1333 27.3439 28.2443C28.8489 29.0633 30.4668 29.655 32.1451 30C32.3663 29.0668 32.4345 28.1039 32.347 27.1488C33.408 26.7627 34.3192 26.0501 34.9496 25.1134L34.9418 25.0823Z" fill="url(#paint22_linear_663_1618)"/>
<path fill-rule="evenodd" clip-rule="evenodd" d="M27.561 26.9388C27.7863 27.8245 31.0259 28.6946 32.3233 29.0054C32.3233 29.1659 32.3 29.3265 32.2534 29.487C31.0881 29.2151 27.4989 28.2518 27.227 27.3117C27.1974 27.1903 27.1953 27.0639 27.2208 26.9416C27.2464 26.8193 27.2989 26.7042 27.3746 26.6048L27.7164 26.2707C27.6411 26.3628 27.5879 26.4709 27.561 26.5867C27.5341 26.7025 27.5341 26.823 27.561 26.9388ZM34.2345 25.9367C33.2168 25.7735 29.9927 25.1598 29.9383 24.3285C29.9357 24.2528 29.9496 24.1774 29.9791 24.1077C30.0086 24.0379 30.0531 23.9754 30.1092 23.9246L30.451 23.5905C30.3978 23.6354 30.3551 23.6913 30.3256 23.7543C30.296 23.8174 30.2805 23.886 30.2801 23.9556C30.2801 24.8257 33.8305 25.4084 34.6229 25.5094C34.5011 25.6562 34.3715 25.7962 34.2345 25.9289V25.9367Z" fill="white"/>
<path fill-rule="evenodd" clip-rule="evenodd" d="M28.9909 27.0399C28.5015 27.3739 26.7302 26.7757 26.8778 27.6769C26.8399 27.5449 26.8335 27.4058 26.8592 27.2709C26.8848 27.136 26.9418 27.0089 27.0254 26.9C28.1975 25.1208 29.7137 23.594 31.4847 22.4096C31.4348 22.4489 31.3939 22.4983 31.3644 22.5545C31.3349 22.6108 31.3177 22.6726 31.3138 22.7359C31.3138 22.9923 31.6168 23.2176 32.0907 23.3963C31.2382 24.7444 30.191 25.9591 28.9832 27.001L28.9909 27.0399Z" fill="#753107"/>
<path fill-rule="evenodd" clip-rule="evenodd" d="M5.41989 25.0823C6.00255 25.0124 9.74711 24.4686 9.74711 23.583C9.74321 23.5196 9.72597 23.4578 9.69652 23.4016C9.66706 23.3454 9.62604 23.296 9.57617 23.2567C11.1066 24.165 12.3962 25.428 13.3363 26.9391C13.4199 27.048 13.4769 27.175 13.5025 27.31C13.5282 27.4449 13.5218 27.584 13.4839 27.716C13.4008 27.9446 13.2343 28.1333 13.0178 28.2443C11.5129 29.0633 9.8949 29.655 8.21663 30C7.99537 29.0668 7.9272 28.1039 8.01468 27.1488C6.95372 26.7627 6.0425 26.0501 5.41211 25.1134L5.41989 25.0823Z" fill="url(#paint23_linear_663_1618)"/>
<path fill-rule="evenodd" clip-rule="evenodd" d="M12.8471 26.9389C12.6218 27.8246 9.38223 28.6947 8.08485 29.0054C8.08485 29.166 8.10817 29.3265 8.15478 29.4871C9.3201 29.2152 12.9093 28.2518 13.1812 27.3118C13.2108 27.1904 13.2129 27.064 13.1873 26.9417C13.1618 26.8193 13.1093 26.7043 13.0336 26.6049L12.6917 26.2708C12.767 26.3628 12.8202 26.4709 12.8472 26.5868C12.8741 26.7026 12.8741 26.8231 12.8471 26.9389ZM6.19703 25.9367C7.21475 25.7736 10.4388 25.1599 10.4932 24.3286C10.4958 24.2529 10.4819 24.1775 10.4524 24.1077C10.4229 24.038 10.3784 23.9755 10.3223 23.9246L9.98043 23.5906C10.0336 23.6355 10.0764 23.6914 10.1059 23.7544C10.1355 23.8174 10.151 23.8861 10.1514 23.9557C10.1514 24.8258 6.60101 25.4085 5.80859 25.5095C5.93034 25.6563 6.06001 25.7963 6.19703 25.929V25.9367Z" fill="white"/>
<path fill-rule="evenodd" clip-rule="evenodd" d="M11.4103 27.0399C11.8998 27.3739 13.671 26.7757 13.5234 27.6769C13.5613 27.5449 13.5677 27.4059 13.5421 27.2709C13.5164 27.136 13.4595 27.009 13.3758 26.9C12.2037 25.1208 10.6876 23.5941 8.91654 22.4097C8.9664 22.4489 9.00743 22.4983 9.03688 22.5546C9.06633 22.6108 9.08353 22.6726 9.08743 22.736C9.08743 22.9923 8.78444 23.2176 8.31055 23.3963C9.16307 24.7445 10.2102 25.9592 11.4181 27.001L11.4103 27.0399Z" fill="#753107"/>
<path style="mix-blend-mode:screen" fill-rule="evenodd" clip-rule="evenodd" d="M27.8795 20.1023C27.561 20.6151 26.3257 22.6894 25.9606 23.1633C25.5955 23.6371 25.5644 23.8081 24.7797 23.8625C23.9951 23.9168 22.3326 23.9712 21.6722 23.979C21.3692 23.979 21.1051 23.8625 21.1284 23.5129C21.1517 23.1633 21.4469 23.1633 21.68 23.1555C22.2782 23.1555 23.6766 23.0778 24.3447 23.0312C24.5763 23.0317 24.8067 22.9976 25.0283 22.9302C25.2651 22.7882 25.469 22.5975 25.6266 22.3708C25.9684 21.9824 27.1803 20.1334 27.46 19.7916C27.7397 19.4498 28.097 19.7916 27.895 20.1023H27.8795Z" fill="url(#paint24_radial_663_1618)"/>
<path fill-rule="evenodd" clip-rule="evenodd" d="M20.1813 18.6259C22.4173 18.6095 24.6496 18.8098 26.8469 19.2242C27.9423 19.4494 32.2151 20.5526 32.6502 21.6325C32.6979 21.7415 32.7225 21.8592 32.7225 21.9782C32.7225 22.0972 32.6979 22.2149 32.6502 22.3239C31.8099 24.1609 30.5547 25.7778 28.9833 27.0473C29.5349 26.5967 29.0999 25.9131 28.5949 25.579C27.5727 25.0086 26.4529 24.6344 25.2931 24.4758C23.6052 24.1821 21.8945 24.0391 20.1813 24.0486C20.1347 23.0542 20.1113 22.1038 20.1113 21.1974C20.1113 20.2911 20.1347 19.4365 20.1813 18.6337V18.6259Z" fill="url(#paint25_radial_663_1618)"/>
<path fill-rule="evenodd" clip-rule="evenodd" d="M20.1819 18.6259C17.9459 18.6095 15.7136 18.8098 13.5163 19.2242C12.4209 19.4494 8.14804 20.5526 7.71298 21.6325C7.66528 21.7415 7.64062 21.8592 7.64062 21.9782C7.64062 22.0972 7.66528 22.2149 7.71298 22.3239C8.55326 24.1609 9.80847 25.7778 11.3798 27.0473C10.8282 26.5967 11.2633 25.9131 11.7683 25.579C12.7904 25.0086 13.9103 24.6344 15.07 24.4758C16.7579 24.1821 18.4686 24.0391 20.1819 24.0486C20.2285 23.0542 20.2518 22.1038 20.2518 21.1974C20.2518 20.2911 20.2285 19.4365 20.1819 18.6337V18.6259Z" fill="url(#paint26_radial_663_1618)"/>
<path fill-rule="evenodd" clip-rule="evenodd" d="M11.0905 24.717C10.8236 24.8498 10.6141 25.0752 10.5012 25.3511C10.3883 25.627 10.3796 25.9346 10.4768 26.2164L10.7176 26.4495C10.6983 26.1871 10.7546 25.9246 10.8799 25.6933C11.0052 25.462 11.1942 25.2714 11.4246 25.1443C12.5096 24.5441 13.6938 24.1441 14.9205 23.9634C16.6617 23.6544 18.4273 23.5036 20.1956 23.5129C20.1956 23.3419 20.1956 23.1684 20.1956 22.9923C18.3721 22.982 16.5516 23.1407 14.7574 23.4662C13.4647 23.6638 12.2161 24.0844 11.0673 24.7093L11.0905 24.717ZM8.06073 22.9613C8.08805 22.7272 8.17338 22.5037 8.30906 22.3111C8.44473 22.1184 8.62645 21.9627 8.83761 21.8581C10.412 21.0631 12.0913 20.4955 13.8252 20.1723C15.928 19.7554 18.0673 19.5498 20.2111 19.5585C20.2111 19.4032 20.2111 19.2478 20.2111 19.0924C18.0202 19.082 15.8339 19.2928 13.6853 19.7217C11.8909 20.0636 10.1524 20.6518 8.51907 21.4697C8.33672 21.5615 8.17426 21.6883 8.04096 21.843C7.90766 21.9976 7.80613 22.177 7.74219 22.3708L7.8199 22.5262L8.06073 22.9613Z" fill="white"/>
<path fill-rule="evenodd" clip-rule="evenodd" d="M20.1798 19.0227C18.2049 19.0176 16.2336 19.1945 14.2911 19.5509C12.6234 19.8457 10.9963 20.336 9.44336 21.0115C11.0032 20.358 12.6321 19.8837 14.2989 19.5975C16.24 19.2517 18.2082 19.0801 20.1798 19.0848V19.0227ZM12.0925 24.2122C13.2241 23.7881 14.3991 23.4911 15.5962 23.3266C17.1112 23.1039 18.6408 22.9949 20.1721 23.0003C18.636 22.9523 17.0988 23.0485 15.5807 23.2877C14.3859 23.4586 13.2152 23.7689 12.0925 24.2122Z" fill="white"/>
<path style="mix-blend-mode:screen" fill-rule="evenodd" clip-rule="evenodd" d="M11.8204 25.5402C11.1427 24.812 10.5219 24.0328 9.96363 23.2095C9.46409 22.476 9.03741 21.6954 8.68958 20.8789C8.42737 21.0112 8.18433 21.1785 7.96709 21.3761L7.86609 21.4926C7.86234 21.5366 7.86234 21.5808 7.86609 21.6247C8.23084 22.428 8.67867 23.1909 9.2023 23.901C9.77158 24.7437 10.448 25.5088 11.2144 26.1772C11.3438 25.9562 11.5218 25.7676 11.7349 25.6257L11.8204 25.5402Z" fill="url(#paint27_radial_663_1618)"/>
<path fill-rule="evenodd" clip-rule="evenodd" d="M29.3159 24.7169C29.5828 24.8497 29.7923 25.0751 29.9052 25.351C30.0182 25.6269 30.0268 25.9345 29.9296 26.2163L29.6888 26.4494C29.7081 26.187 29.6518 25.9246 29.5265 25.6932C29.4012 25.4619 29.2122 25.2714 28.9818 25.1442C27.8968 24.544 26.7126 24.144 25.4859 23.9634C23.7447 23.6544 21.9791 23.5036 20.2108 23.5128C20.2108 23.3419 20.2108 23.1684 20.2108 22.9923C22.0343 22.9819 23.8548 23.1406 25.649 23.4662C26.9417 23.6638 28.1903 24.0844 29.3392 24.7092L29.3159 24.7169ZM32.3457 22.9612C32.3184 22.7271 32.233 22.5036 32.0973 22.311C31.9617 22.1183 31.78 21.9626 31.5688 21.858C29.9944 21.063 28.3151 20.4954 26.5812 20.1722C24.4784 19.7553 22.3391 19.5497 20.1953 19.5585C20.1953 19.4031 20.1953 19.2477 20.1953 19.0923C22.3862 19.0819 24.5725 19.2927 26.7211 19.7216C28.5155 20.0635 30.254 20.6517 31.8873 21.4696C32.0697 21.5614 32.2321 21.6882 32.3654 21.8429C32.4987 21.9975 32.6003 22.1769 32.6642 22.3708L32.5865 22.5262L32.3457 22.9612Z" fill="white"/>
<path fill-rule="evenodd" clip-rule="evenodd" d="M20.1797 19.0226C22.1547 19.0175 24.1259 19.1944 26.0684 19.5508C27.7361 19.8457 29.3632 20.3359 30.9162 21.0114C29.3564 20.358 27.7274 19.8836 26.0607 19.5974C24.1195 19.2516 22.1514 19.08 20.1797 19.0847V19.0226ZM28.267 24.2121C27.1355 23.7881 25.9604 23.491 24.7633 23.3265C23.2483 23.1039 21.7187 22.9948 20.1875 23.0002C21.7235 22.9522 23.2607 23.0484 24.7788 23.2876C25.9737 23.4584 27.1444 23.7687 28.267 24.2121Z" fill="white"/>
<path style="mix-blend-mode:screen" fill-rule="evenodd" clip-rule="evenodd" d="M28.5859 25.5402C29.2636 24.812 29.8844 24.0328 30.4427 23.2095C30.9422 22.476 31.3689 21.6954 31.7167 20.8789C31.9789 21.0112 32.222 21.1785 32.4393 21.3761L32.5402 21.4926C32.544 21.5366 32.544 21.5808 32.5402 21.6247C32.1755 22.428 31.7276 23.1909 31.204 23.901C30.6347 24.7437 29.9584 25.5088 29.1919 26.1772C29.0625 25.9562 28.8845 25.7676 28.6714 25.6257L28.5859 25.5402Z" fill="url(#paint28_radial_663_1618)"/>
<path d="M21.6973 7.29541V17.5181H19.3754V9.62161L16.5859 10.3923V8.80183L21.4473 7.29541H21.6973Z" fill="#ECB42E"/>
</g>
<defs>
<filter id="filter0_d_663_1618" x="0.130859" y="0" width="39.7363" height="34" filterUnits="userSpaceOnUse" color-interpolation-filters="sRGB">
<feFlood flood-opacity="0" result="BackgroundImageFix"/>
<feColorMatrix in="SourceAlpha" type="matrix" values="0 0 0 0 0 0 0 0 0 0 0 0 0 0 0 0 0 0 127 0" result="hardAlpha"/>
<feOffset dy="2"/>
<feGaussianBlur stdDeviation="1"/>
<feComposite in2="hardAlpha" operator="out"/>
<feColorMatrix type="matrix" values="0 0 0 0 0 0 0 0 0 0 0 0 0 0 0 0 0 0 0.25 0"/>
<feBlend mode="normal" in2="BackgroundImageFix" result="effect1_dropShadow_663_1618"/>
<feBlend mode="normal" in="SourceGraphic" in2="effect1_dropShadow_663_1618" result="shape"/>
</filter>
<linearGradient id="paint0_linear_663_1618" x1="5.20854" y1="21.0349" x2="13.459" y2="21.0349" gradientUnits="userSpaceOnUse">
<stop stop-color="#FFAF61"/>
<stop offset="1" stop-color="#974715"/>
</linearGradient>
<linearGradient id="paint1_linear_663_1618" x1="5.20793" y1="20.4672" x2="13.3496" y2="20.4672" gradientUnits="userSpaceOnUse">
<stop stop-color="#F8BC81"/>
<stop offset="1"/>
</linearGradient>
<linearGradient id="paint2_linear_663_1618" x1="6.91714" y1="20.025" x2="13.3652" y2="20.025" gradientUnits="userSpaceOnUse">
<stop stop-color="#F5DE66"/>
<stop offset="1" stop-color="#D58924"/>
</linearGradient>
<linearGradient id="paint3_linear_663_1618" x1="3.36616" y1="18.999" x2="13.248" y2="18.999" gradientUnits="userSpaceOnUse">
<stop stop-color="#FFAF61"/>
<stop offset="1" stop-color="#974715"/>
</linearGradient>
<linearGradient id="paint4_linear_663_1618" x1="3.36732" y1="18.3075" x2="13.1094" y2="18.3075" gradientUnits="userSpaceOnUse">
<stop stop-color="#F8BC81"/>
<stop offset="1"/>
</linearGradient>
<linearGradient id="paint5_linear_663_1618" x1="5.95449" y1="18.3697" x2="13.1406" y2="18.3697" gradientUnits="userSpaceOnUse">
<stop stop-color="white"/>
<stop offset="1" stop-color="#D58924"/>
</linearGradient>
<linearGradient id="paint6_linear_663_1618" x1="2.13131" y1="16.1555" x2="12.9766" y2="16.1555" gradientUnits="userSpaceOnUse">
<stop stop-color="#FFAF61"/>
<stop offset="1" stop-color="#974715"/>
</linearGradient>
<linearGradient id="paint7_linear_663_1618" x1="2.13217" y1="15.7748" x2="12.7832" y2="15.7748" gradientUnits="userSpaceOnUse">
<stop stop-color="#F8BC81"/>
<stop offset="1"/>
</linearGradient>
<linearGradient id="paint8_linear_663_1618" x1="2.13202" y1="14.2836" x2="10.6622" y2="14.2836" gradientUnits="userSpaceOnUse">
<stop stop-color="white"/>
<stop offset="1"/>
</linearGradient>
<linearGradient id="paint9_linear_663_1618" x1="34.7895" y1="21.0349" x2="26.5391" y2="21.0349" gradientUnits="userSpaceOnUse">
<stop stop-color="#FFAF61"/>
<stop offset="1" stop-color="#974715"/>
</linearGradient>
<linearGradient id="paint10_linear_663_1618" x1="34.7901" y1="20.4672" x2="26.6484" y2="20.4672" gradientUnits="userSpaceOnUse">
<stop stop-color="#F8BC81"/>
<stop offset="1"/>
</linearGradient>
<linearGradient id="paint11_linear_663_1618" x1="33.0809" y1="20.025" x2="26.6328" y2="20.025" gradientUnits="userSpaceOnUse">
<stop stop-color="white"/>
<stop offset="1" stop-color="#D58924"/>
</linearGradient>
<linearGradient id="paint12_linear_663_1618" x1="36.6319" y1="18.999" x2="26.75" y2="18.999" gradientUnits="userSpaceOnUse">
<stop stop-color="#FFAF61"/>
<stop offset="1" stop-color="#974715"/>
</linearGradient>
<linearGradient id="paint13_linear_663_1618" x1="36.6307" y1="18.3075" x2="26.8887" y2="18.3075" gradientUnits="userSpaceOnUse">
<stop stop-color="#F8BC81"/>
<stop offset="1"/>
</linearGradient>
<linearGradient id="paint14_linear_663_1618" x1="34.0436" y1="18.3697" x2="26.8574" y2="18.3697" gradientUnits="userSpaceOnUse">
<stop stop-color="white"/>
<stop offset="1" stop-color="#D58924"/>
</linearGradient>
<linearGradient id="paint15_linear_663_1618" x1="37.8667" y1="16.1555" x2="27.0215" y2="16.1555" gradientUnits="userSpaceOnUse">
<stop stop-color="#FFAF61"/>
<stop offset="1" stop-color="#974715"/>
</linearGradient>
<linearGradient id="paint16_linear_663_1618" x1="37.8659" y1="15.7748" x2="27.2148" y2="15.7748" gradientUnits="userSpaceOnUse">
<stop stop-color="#F8BC81"/>
<stop offset="1"/>
</linearGradient>
<linearGradient id="paint17_linear_663_1618" x1="37.866" y1="14.2836" x2="29.3359" y2="14.2836" gradientUnits="userSpaceOnUse">
<stop stop-color="white"/>
<stop offset="1"/>
</linearGradient>
<radialGradient id="paint18_radial_663_1618" cx="0" cy="0" r="1" gradientUnits="userSpaceOnUse" gradientTransform="translate(20.405 14.3363) rotate(90) scale(27.5294 27.5294)">
<stop stop-color="#F5DE66"/>
<stop offset="0.536458" stop-color="#EBB12A"/>
<stop offset="1" stop-color="#E38023"/>
</radialGradient>
<radialGradient id="paint19_radial_663_1618" cx="0" cy="0" r="1" gradientUnits="userSpaceOnUse" gradientTransform="translate(20.3914 14.3361) rotate(90) scale(25.9763 25.9763)">
<stop stop-color="#EBB12A"/>
<stop offset="1" stop-color="#111102"/>
</radialGradient>
<radialGradient id="paint20_radial_663_1618" cx="0" cy="0" r="1" gradientUnits="userSpaceOnUse" gradientTransform="translate(20.356 14.3363) rotate(90) scale(21.5548 21.5548)">
<stop stop-color="#F5DE66"/>
<stop offset="0.536458" stop-color="#EBB12A"/>
<stop offset="1" stop-color="#E38023"/>
</radialGradient>
<linearGradient id="paint21_linear_663_1618" x1="27.5147" y1="12.8392" x2="12.2535" y2="12.8392" gradientUnits="userSpaceOnUse">
<stop stop-color="#EBB12A"/>
<stop offset="1" stop-color="#111102"/>
</linearGradient>
<linearGradient id="paint22_linear_663_1618" x1="34.9496" y1="26.6128" x2="26.8545" y2="26.6128" gradientUnits="userSpaceOnUse">
<stop stop-color="#EE9843"/>
<stop offset="1" stop-color="#974715"/>
</linearGradient>
<linearGradient id="paint23_linear_663_1618" x1="5.45872" y1="26.6128" x2="13.5538" y2="26.6128" gradientUnits="userSpaceOnUse">
<stop stop-color="#EE9843"/>
<stop offset="1" stop-color="#974715"/>
</linearGradient>
<radialGradient id="paint24_radial_663_1618" cx="0" cy="0" r="1" gradientUnits="userSpaceOnUse" gradientTransform="translate(33.5818 29.3783) rotate(180) scale(13.5721 13.5721)">
<stop stop-color="#F6DFEB"/>
<stop offset="0.98" stop-color="#111102"/>
</radialGradient>
<radialGradient id="paint25_radial_663_1618" cx="0" cy="0" r="1" gradientUnits="userSpaceOnUse" gradientTransform="translate(20.4221 16.6837) scale(16.1262 16.1261)">
<stop offset="0.495243" stop-color="#EE9843"/>
<stop offset="1" stop-color="#974715"/>
</radialGradient>
<radialGradient id="paint26_radial_663_1618" cx="0" cy="0" r="1" gradientUnits="userSpaceOnUse" gradientTransform="translate(19.9877 16.6837) rotate(180) scale(13.6372 13.6372)">
<stop offset="0.625154" stop-color="#EE9843"/>
<stop offset="1" stop-color="#974715"/>
</radialGradient>
<radialGradient id="paint27_radial_663_1618" cx="0" cy="0" r="1" gradientUnits="userSpaceOnUse" gradientTransform="translate(8.70512 19.6903) scale(8.78645 8.78652)">
<stop stop-color="#7BD7FD"/>
<stop offset="1" stop-color="#151515"/>
</radialGradient>
<radialGradient id="paint28_radial_663_1618" cx="0" cy="0" r="1" gradientUnits="userSpaceOnUse" gradientTransform="translate(31.7012 19.6903) rotate(180) scale(8.78645 8.78652)">
<stop stop-color="#7BD7FD"/>
<stop offset="1" stop-color="#151515"/>
</radialGradient>
</defs>
</svg>
