<svg width="33" height="33" viewBox="0 0 33 33" fill="none" xmlns="http://www.w3.org/2000/svg">
<path d="M16.7003 0.538716V0.530762H16.2003C13.0951 0.530762 10.0596 1.45157 7.4777 3.17674C4.89579 4.90192 2.88344 7.35397 1.69512 10.2228C0.506802 13.0917 0.195884 16.2485 0.801684 19.2941C1.40748 22.3396 2.9028 25.1372 5.09853 27.3329C7.29426 29.5286 10.0918 31.0239 13.1374 31.6297C16.1829 32.2355 19.3397 31.9246 22.2086 30.7363C25.0774 29.548 27.5295 27.5356 29.2547 24.9537C30.9798 22.3718 31.9007 19.3363 31.9007 16.2311C31.9007 12.0671 30.2465 8.07366 27.3021 5.12928C24.4758 2.30296 20.6829 0.665485 16.7003 0.538716ZM17.1343 15.4818L18.6592 15.016L18.4821 15.6172L16.3076 16.2501L16.0455 16.3264L15.9679 16.5882L14.3871 21.926L14.197 22.568H14.8665H23.2333L22.5214 25.0144C22.5214 25.0144 22.5214 25.0144 22.5214 25.0145C22.5164 25.0313 22.5061 25.0461 22.4921 25.0567C22.478 25.0672 22.4609 25.0729 22.4433 25.073H10.1981L12.1906 18.3402L12.4542 17.4495L11.5656 17.7199L10.0523 18.1804L10.2283 17.6102L12.3935 16.9527L12.6512 16.8745L12.7277 16.6162L15.7956 6.25469L15.7957 6.25471L15.798 6.2465C15.8025 6.23022 15.8122 6.21586 15.8256 6.2056C15.8388 6.19548 15.855 6.1899 15.8716 6.18966H19.0535L16.5084 14.8629L16.2473 15.7528L17.1343 15.4818Z" fill="#00B07A"/>
</svg>
