<svg width="124" height="89" viewBox="0 0 124 89" fill="none" xmlns="http://www.w3.org/2000/svg">
<path d="M110.683 0.183594H13.2819C5.94653 0.183594 0 6.12678 0 13.4581V75.4056C0 82.7369 5.94653 88.6801 13.2819 88.6801H110.683C118.018 88.6801 123.965 82.7369 123.965 75.4056V13.4581C123.965 6.12678 118.018 0.183594 110.683 0.183594Z" fill="#E6ECFF"/>
<path d="M123.965 74.6101V75.4066C123.965 78.9272 122.565 82.3036 120.075 84.7931C117.584 87.2825 114.205 88.6811 110.683 88.6811H13.2819C9.75935 88.6811 6.38103 87.2825 3.89018 84.7931C1.39933 82.3036 0 78.9272 0 75.4066V13.459C0.05579 10.1667 1.3339 7.01264 3.58611 4.60938C14.1231 33.946 43.5205 79.3004 123.965 74.6101Z" fill="#B7C6E2"/>
<path d="M123.965 20.4943L81.463 43.3707L123.965 73.1055V75.4064C123.968 77.9111 123.262 80.3655 121.929 82.4861L72.7412 48.061L63.8866 52.7513C63.246 53.0922 62.5315 53.2705 61.8058 53.2705C61.0801 53.2705 60.3655 53.0922 59.725 52.7513L50.8703 48.061L2.03711 82.4861C0.703561 80.3655 -0.00251198 77.9111 0.00051673 75.4064V73.1055L42.5027 43.3707L0.00051673 20.5386V13.4588C-0.00830082 12.506 0.0957587 11.5554 0.310461 10.627L61.9829 43.8132L123.655 10.627C123.87 11.5554 123.974 12.506 123.965 13.4588V20.4943Z" fill="#666EC6"/>
<path d="M15.9831 29.1227L0.00051673 20.5386V13.4588C-0.00830082 12.506 0.0957587 11.5554 0.310461 10.627L7.83687 14.6978C10.183 19.7053 12.9062 24.5275 15.9831 29.1227Z" fill="#3B4185"/>
<path d="M41.2626 55.0505L2.0366 82.4844C0.703054 80.3638 -0.003019 77.9094 9.70293e-06 75.4047V73.1038L33.9132 49.3867C36.2154 51.3336 38.6505 53.2806 41.2626 55.0505Z" fill="#3B4185"/>
<path d="M123.965 74.6094V75.4058C123.968 77.9105 123.262 80.3649 121.928 82.4856L111.125 74.9191C115.11 75.0076 119.537 74.9191 123.965 74.6094Z" fill="#3B4185"/>
</svg>
