<svg width="40" height="40" viewBox="0 0 40 40" fill="none" xmlns="http://www.w3.org/2000/svg">
<g clip-path="url(#clip0_417_639)">
<path fill-rule="evenodd" clip-rule="evenodd" d="M36.1337 31.6092C37.3438 30.9251 38.3337 29.2459 38.3337 27.8777V12.1223C38.3337 10.7541 37.3438 9.07489 36.1337 8.39077L22.2003 0.513086C20.9902 -0.171029 19.0104 -0.171029 17.8004 0.513086L3.86694 8.39077C2.65688 9.07489 1.66699 10.7541 1.66699 12.1223V27.8777C1.66699 29.2459 2.65688 30.9251 3.86694 31.6092L17.8004 39.4869C19.0104 40.171 20.9902 40.171 22.2003 39.4869L36.1337 31.6092Z" fill="url(#paint0_linear_417_639)"/>
<path d="M27.3925 17.7598C27.7292 15.5138 26.0153 14.3064 23.6717 13.501L24.4319 10.4585L22.5757 9.99699L21.8356 12.9593C21.3476 12.838 20.8464 12.7235 20.3484 12.6101L21.0939 9.62829L19.2388 9.16675L18.478 12.2082C18.0741 12.1164 17.6776 12.0256 17.2927 11.9302L17.2948 11.9207L14.735 11.283L14.2412 13.261C14.2412 13.261 15.6184 13.5759 15.5893 13.5954C16.3411 13.7827 16.477 14.279 16.4542 14.6725L15.5883 18.1385C15.6401 18.1517 15.7072 18.1707 15.7812 18.2002C15.7194 18.1849 15.6533 18.1681 15.5851 18.1517L14.3713 23.0071C14.2793 23.235 14.0461 23.5768 13.5206 23.447C13.5391 23.4739 12.1715 23.111 12.1715 23.111L11.25 25.2309L13.6655 25.8317C14.1149 25.9441 14.5553 26.0617 14.9888 26.1725L14.2206 29.2497L16.0747 29.7113L16.8354 26.6667C17.3419 26.8038 17.8335 26.9304 18.3146 27.0497L17.5565 30.08L19.4127 30.5415L20.1808 27.47C23.346 28.0677 25.7261 27.8266 26.7279 24.9704C27.5352 22.6706 26.6877 21.344 25.0224 20.4789C26.2352 20.1999 27.1487 19.4039 27.3925 17.7598ZM23.1514 23.6933C22.5778 25.9931 18.6969 24.7499 17.4386 24.4381L18.4579 20.3613C19.7161 20.6746 23.751 21.2949 23.1514 23.6933ZM23.7256 17.7266C23.2022 19.8185 19.972 18.7557 18.9242 18.4951L19.8483 14.7975C20.8961 15.0581 24.2706 15.5444 23.7256 17.7266Z" fill="white"/>
<g clip-path="url(#clip1_417_639)">
<path d="M36.1337 31.6092C37.3438 30.9251 38.3337 29.2459 38.3337 27.8777V12.1223C38.3337 10.7541 37.3438 9.07489 36.1337 8.39077L22.2003 0.513086C20.9902 -0.171029 19.0104 -0.171029 17.8004 0.513086L3.86694 8.39077C2.65688 9.07489 1.66699 10.7541 1.66699 12.1223V27.8777C1.66699 29.2459 2.65688 30.9251 3.86694 31.6092L17.8004 39.4869C19.0104 40.171 20.9902 40.171 22.2003 39.4869L36.1337 31.6092Z" fill="url(#paint1_linear_417_639)"/>
<path fill-rule="evenodd" clip-rule="evenodd" d="M23.1794 6.66675L20.9923 7.90811V18.4534L22.1864 19.1318V11.101L26.2872 13.4291L26.291 13.427L27.0872 13.8782L27.7521 13.5032V12.8694L22.1864 9.71454V8.61682L23.1794 8.05354L28.9436 11.3259V14.2383L26.1762 15.7997L26.0834 15.7539C25.9145 15.6709 25.74 15.6284 25.565 15.6284C24.906 15.6284 24.3706 16.1712 24.3706 16.8382C24.3706 17.505 24.906 18.0478 25.565 18.0478C26.1759 18.0478 26.6834 17.5806 26.7462 16.9617L26.7565 16.8573L29.5492 15.2807L32.1392 16.7517V23.2568L29.5462 24.7272L19.0084 18.7437V7.90841L16.821 6.66675L9.86321 10.6172V14.2217L6.66699 16.0338V23.9575L9.86321 25.7722V29.383L16.821 33.3334L19.0084 32.0918V21.5235L17.814 20.8454V28.8991L12.9132 26.1217L12.2486 26.4967V27.1305L17.814 30.2856V31.383L16.821 31.9466L11.0573 28.6743V25.7615L13.8245 24.2008L13.9173 24.2463C14.0865 24.3295 14.2606 24.3715 14.4357 24.3715C15.0944 24.3715 15.6301 23.829 15.6301 23.1619C15.6301 22.4948 15.0944 21.9524 14.4357 21.9524C13.8251 21.9524 13.3176 22.4193 13.255 23.0388L13.2442 23.1432L10.4515 24.7191L7.86143 23.2488V16.7434L10.4544 15.273L20.9923 21.2565V32.0918L23.1794 33.3334L30.1377 29.383V25.7782L33.3337 23.9661V16.043L30.1377 14.2288V10.6172L23.1794 6.66675ZM11.0573 11.3259L16.821 8.05354L17.814 8.61742V9.71424L11.0573 13.5445V11.3259ZM11.677 14.5804L17.814 11.1004V18.065L11.677 14.5804ZM22.1864 21.9345L28.3239 25.4201L22.1864 28.8997V21.9345ZM22.1864 31.383V30.2862L28.9436 26.4557V28.6743L23.1794 31.9466L22.1864 31.383Z" fill="white"/>
</g>
</g>
<defs>
<linearGradient id="paint0_linear_417_639" x1="20.0003" y1="0" x2="20.0003" y2="40" gradientUnits="userSpaceOnUse">
<stop stop-color="#FCC538"/>
<stop offset="1" stop-color="#F7931A"/>
</linearGradient>
<linearGradient id="paint1_linear_417_639" x1="20.0003" y1="0" x2="20.0003" y2="40" gradientUnits="userSpaceOnUse">
<stop stop-color="#13E5BF"/>
<stop offset="1" stop-color="#01C38D"/>
</linearGradient>
<clipPath id="clip0_417_639">
<rect width="40" height="40" fill="white"/>
</clipPath>
<clipPath id="clip1_417_639">
<rect width="40" height="40" fill="white"/>
</clipPath>
</defs>
</svg>
