<svg width="40" height="40" viewBox="0 0 40 40" fill="none" xmlns="http://www.w3.org/2000/svg">
<g clip-path="url(#clip0_417_673)">
<path fill-rule="evenodd" clip-rule="evenodd" d="M36.1337 31.6092C37.3438 30.9251 38.3337 29.2459 38.3337 27.8777V12.1223C38.3337 10.7541 37.3438 9.07489 36.1337 8.39077L22.2003 0.513086C20.9902 -0.171029 19.0104 -0.171029 17.8004 0.513086L3.86694 8.39077C2.65688 9.07489 1.66699 10.7541 1.66699 12.1223V27.8777C1.66699 29.2459 2.65688 30.9251 3.86694 31.6092L17.8004 39.4869C19.0104 40.171 20.9902 40.171 22.2003 39.4869L36.1337 31.6092Z" fill="url(#paint0_linear_417_673)"/>
<path d="M27.3925 17.7598C27.7292 15.5138 26.0153 14.3064 23.6717 13.501L24.4319 10.4585L22.5757 9.99699L21.8356 12.9593C21.3476 12.838 20.8464 12.7235 20.3484 12.6101L21.0939 9.62829L19.2388 9.16675L18.478 12.2082C18.0741 12.1164 17.6776 12.0256 17.2927 11.9302L17.2948 11.9207L14.735 11.283L14.2412 13.261C14.2412 13.261 15.6184 13.5759 15.5893 13.5954C16.3411 13.7827 16.477 14.279 16.4542 14.6725L15.5883 18.1385C15.6401 18.1517 15.7072 18.1707 15.7812 18.2002C15.7194 18.1849 15.6533 18.1681 15.5851 18.1517L14.3713 23.0071C14.2793 23.235 14.0461 23.5768 13.5206 23.447C13.5391 23.4739 12.1715 23.111 12.1715 23.111L11.25 25.2309L13.6655 25.8317C14.1149 25.9441 14.5553 26.0617 14.9888 26.1725L14.2206 29.2497L16.0747 29.7113L16.8354 26.6667C17.3419 26.8038 17.8335 26.9304 18.3146 27.0497L17.5565 30.08L19.4127 30.5415L20.1808 27.47C23.346 28.0677 25.7261 27.8266 26.7279 24.9704C27.5352 22.6706 26.6877 21.344 25.0224 20.4789C26.2352 20.1999 27.1487 19.4039 27.3925 17.7598ZM23.1514 23.6933C22.5778 25.9931 18.6969 24.7499 17.4386 24.4381L18.4579 20.3613C19.7161 20.6746 23.751 21.2949 23.1514 23.6933ZM23.7256 17.7266C23.2022 19.8185 19.972 18.7557 18.9242 18.4951L19.8483 14.7975C20.8961 15.0581 24.2706 15.5444 23.7256 17.7266Z" fill="white"/>
<g clip-path="url(#clip1_417_673)">
<path fill-rule="evenodd" clip-rule="evenodd" d="M36.1337 31.6092C37.3438 30.9251 38.3337 29.2459 38.3337 27.8777V12.1223C38.3337 10.7541 37.3438 9.07489 36.1337 8.39077L22.2003 0.513086C20.9902 -0.171029 19.0104 -0.171029 17.8004 0.513086L3.86694 8.39077C2.65688 9.07489 1.66699 10.7541 1.66699 12.1223V27.8777C1.66699 29.2459 2.65688 30.9251 3.86694 31.6092L17.8004 39.4869C19.0104 40.171 20.9902 40.171 22.2003 39.4869L36.1337 31.6092Z" fill="url(#paint1_linear_417_673)"/>
<path d="M24.2531 6.73694C29.6691 8.64634 33.3236 13.984 33.3337 19.9996C33.3388 26.0228 29.6888 31.3756 24.2682 33.2942C24.0525 33.3707 23.8151 33.3339 23.6295 33.1952C23.4439 33.0564 23.3325 32.8325 23.3299 32.5928V32.3218C23.3455 31.7034 23.6995 31.1503 24.2379 30.9031C28.4399 29.1073 31.1889 24.8078 31.1889 20.0315C31.1889 15.2552 28.4399 10.9557 24.2379 9.15993C23.6887 8.91507 23.3272 8.35331 23.3147 7.72526V7.48615C23.3147 7.07237 23.6332 6.73694 24.026 6.73694H24.2531ZM15.793 6.70505C15.9885 6.63221 16.2056 6.66447 16.3744 6.79146C16.5431 6.91845 16.6425 7.12421 16.6405 7.34268V7.70932C16.6395 8.31169 16.2926 8.85353 15.7627 9.08022C11.5509 10.8709 8.79307 15.1757 8.79307 19.9598C8.79307 24.7438 11.5509 29.0487 15.7627 30.8393C16.2949 31.0717 16.6415 31.6193 16.6405 32.2262V32.5609C16.6405 32.9571 16.3356 33.2783 15.9595 33.2783H15.7476C10.3263 31.367 6.67055 26.0212 6.66699 19.9996C6.67055 13.9595 10.3485 8.6016 15.793 6.70505ZM20.0079 10.746C20.5972 10.746 21.0749 11.2492 21.0749 11.8699V12.9698C22.8034 13.1012 24.2562 14.3871 24.6768 16.1579C24.7527 16.5139 24.5441 16.8683 24.2077 16.955H23.4963C23.0292 16.9524 22.6052 16.667 22.4067 16.2217C21.9165 15.3291 20.974 14.8234 20.0003 14.9305C18.4869 14.9305 17.5788 15.9188 17.5788 16.8115C17.5788 17.7042 18.2901 18.2302 19.8036 18.6287L21.317 18.9794C23.9352 19.5692 25.04 20.7329 25.04 22.7574C25.0074 25.0206 23.2691 26.8444 21.1203 26.8701V28.2251C21.1203 28.8457 20.6426 29.3489 20.0533 29.3489C19.464 29.3489 18.9863 28.8457 18.9863 28.2251V26.886C17.1069 26.8559 15.4836 25.4933 15.0363 23.5704C15.0097 23.4244 15.0395 23.2734 15.1191 23.1507C15.1986 23.028 15.3213 22.9438 15.46 22.9168H16.353C16.7485 22.9199 17.1074 23.1616 17.2761 23.5385C17.8455 24.5317 18.9034 25.095 20.0003 24.9891C21.5138 24.9891 22.6791 24.0326 22.6791 23.0603C22.6791 22.0879 22.0132 21.514 20.3938 21.1155L18.729 20.701C16.353 20.175 15.233 18.9157 15.233 16.9868C15.3166 14.862 16.9244 13.1548 18.9409 13.0495V11.8699C18.9409 11.2492 19.4186 10.746 20.0079 10.746Z" fill="white"/>
</g>
</g>
<defs>
<linearGradient id="paint0_linear_417_673" x1="20.0003" y1="0" x2="20.0003" y2="40" gradientUnits="userSpaceOnUse">
<stop stop-color="#FCC538"/>
<stop offset="1" stop-color="#F7931A"/>
</linearGradient>
<linearGradient id="paint1_linear_417_673" x1="20.0003" y1="3.68586" x2="21.1366" y2="38.9249" gradientUnits="userSpaceOnUse">
<stop stop-color="#2D95FF"/>
<stop offset="1" stop-color="#2775C9"/>
</linearGradient>
<clipPath id="clip0_417_673">
<rect width="40" height="40" fill="white"/>
</clipPath>
<clipPath id="clip1_417_673">
<rect width="40" height="40" fill="white"/>
</clipPath>
</defs>
</svg>
