<svg width="31" height="31" viewBox="0 0 31 31" fill="none" xmlns="http://www.w3.org/2000/svg">
<path d="M7.03327 3.10904C9.45072 1.49375 12.2929 0.631592 15.2003 0.631592C19.0991 0.631592 22.8382 2.18037 25.595 4.93722C28.3519 7.69406 29.9007 11.4331 29.9007 15.3319C29.9007 18.2394 29.0385 21.0815 27.4232 23.499C25.8079 25.9164 23.512 27.8006 20.8259 28.9132C18.1398 30.0259 15.184 30.317 12.3324 29.7498C9.48086 29.1826 6.86151 27.7825 4.80563 25.7266C2.74975 23.6707 1.34968 21.0514 0.782469 18.1998C0.215254 15.3482 0.50637 12.3925 1.619 9.70635C2.73163 7.02021 4.61581 4.72434 7.03327 3.10904Z" fill="white" />
<path d="M17.1395 11.7802V9.17854H23.2654V5.13159H6.52925V9.1785H12.6547V11.7902C7.70671 12.0432 4 13.0801 4 14.3209C4 15.5617 7.70671 16.5986 12.6547 16.8516V24.9593C13.4123 25.1141 14.1966 25.1951 15 25.1951C15.731 25.1951 16.4462 25.1279 17.1395 24.9993V16.8616C22.1904 16.6272 26 15.5789 26 14.3209C26 13.063 22.1904 12.0147 17.1395 11.7802ZM15 15.9201C9.48069 15.9201 5.0064 15.0886 5.0064 14.0627C5.0064 13.1869 8.26707 12.4526 12.6547 12.2567V15.2315C13.3985 15.3387 14.1481 15.3926 14.8971 15.3926C15.6466 15.3926 16.3962 15.3387 17.1395 15.2315V12.2476C21.6306 12.4301 24.9932 13.173 24.9932 14.0626C24.9931 15.0885 20.5188 15.9201 15 15.9201Z" fill="#1BA27A"  stroke-width="0.5"/>
</svg>
