<svg width="31" height="31" viewBox="0 0 31 31" fill="none" xmlns="http://www.w3.org/2000/svg">
<path d="M7.03327 3.40885C9.45072 1.79356 12.2929 0.931396 15.2003 0.931396C19.0991 0.931396 22.8382 2.48018 25.595 5.23702C28.3519 7.99387 29.9007 11.733 29.9007 15.6317C29.9007 18.5392 29.0385 21.3813 27.4232 23.7988C25.8079 26.2162 23.512 28.1004 20.8259 29.2131C18.1398 30.3257 15.184 30.6168 12.3324 30.0496C9.48086 29.4824 6.86151 28.0823 4.80563 26.0264C2.74975 23.9705 1.34968 21.3512 0.782469 18.4996C0.215254 15.648 0.50637 12.6923 1.619 10.0062C2.73163 7.32002 4.61581 5.02414 7.03327 3.40885Z" fill="#626262" />
<path d="M10.5821 13.4482L10.5821 13.4482C11.1319 14.044 11.7992 14.5195 12.5418 14.8447C13.2844 15.1699 14.0864 15.3378 14.8971 15.3378C15.7078 15.3378 16.5097 15.1699 17.2523 14.8447C17.995 14.5195 18.6622 14.044 19.212 13.4482L19.212 13.4482L22.8647 9.48996L23.2039 9.12243L22.8363 8.78336L21.9589 7.97404L21.5915 7.63508L21.2525 8.00247L17.5998 11.9607C17.2554 12.3339 16.8375 12.6317 16.3723 12.8353C15.9072 13.039 15.4049 13.1442 14.8971 13.1442C14.3893 13.1442 13.887 13.039 13.4218 12.8353C12.9567 12.6317 12.5387 12.3339 12.1943 11.9607L12.1943 11.9607L8.54044 8.00241L8.20118 7.63489L7.83378 7.97427L6.95761 8.78359L6.5905 9.12268L6.92942 9.48996L10.5821 13.4482ZM17.5998 19.856L17.5998 19.856L21.2537 23.8142L21.593 24.1818L21.9604 23.8424L22.8365 23.0331L23.2036 22.694L22.8647 22.3267L19.212 18.3684L19.212 18.3684C18.6622 17.7726 17.995 17.2972 17.2523 16.972C16.5097 16.6468 15.7078 16.4789 14.8971 16.4789C14.0864 16.4789 13.2844 16.6468 12.5418 16.972C11.7992 17.2972 11.1319 17.7726 10.5821 18.3684L10.5821 18.3684L6.92942 22.3267L6.59027 22.6942L6.95786 23.0333L7.83522 23.8426L8.20267 24.1816L8.54169 23.8142L12.1943 19.856C12.1944 19.8559 12.1944 19.8559 12.1944 19.8559C12.5388 19.4828 12.9567 19.185 13.4218 18.9813C13.887 18.7776 14.3893 18.6725 14.8971 18.6725C15.4049 18.6725 15.9072 18.7776 16.3723 18.9813C16.8375 19.185 17.2554 19.4828 17.5998 19.856Z" fill="white" />
</svg>
