<svg width="52" height="52" viewBox="0 0 52 52" fill="none" xmlns="http://www.w3.org/2000/svg">
<rect width="52" height="52" rx="10" fill="#fff"/>
<g clip-path="url(#clip0)">
<path fill-rule="evenodd" clip-rule="evenodd" d="M22.8615 16.2154H16.2154L16.2154 22.7692L22.8615 22.7692V16.2154ZM16.2154 14C14.9919 14 14 14.9919 14 16.2154V22.7692C14 23.9928 14.9919 24.9846 16.2154 24.9846H22.8615C24.0851 24.9846 25.0769 23.9928 25.0769 22.7692V16.2154C25.0769 14.9919 24.0851 14 22.8615 14H16.2154ZM22.8615 29.1385H16.2154L16.2154 35.6923H22.8615V29.1385ZM16.2154 26.9231C14.9919 26.9231 14 27.9149 14 29.1385V35.6923C14 36.9158 14.9919 37.9077 16.2154 37.9077H22.8615C24.0851 37.9077 25.0769 36.9158 25.0769 35.6923V29.1385C25.0769 27.9149 24.0851 26.9231 22.8615 26.9231H16.2154ZM29.1385 16.2154H35.7846V22.7692L29.1385 22.7692V16.2154ZM26.9231 16.2154C26.9231 14.9919 27.9149 14 29.1385 14H35.7846C37.0081 14 38 14.9919 38 16.2154V22.7692C38 23.9928 37.0081 24.9846 35.7846 24.9846H29.1385C27.9149 24.9846 26.9231 23.9928 26.9231 22.7692V16.2154ZM17.6923 17.6923H21.3846V21.3846H17.6923V17.6923ZM21.3846 30.6154H17.6923V34.3077H21.3846V30.6154ZM30.6154 17.6923H34.3077V21.3846H30.6154V17.6923ZM26.9231 26.9231H30.6154V30.6154H26.9231V26.9231ZM38.0002 26.9233H34.3079V30.6156H30.6156V34.3079H26.9233V38.0002H30.6156V34.3079H34.3079V38.0002H38.0002V34.3079H34.3079V30.6156H38.0002V26.9233Z" fill="#191E29"/>
</g>
<defs>
<clipPath id="clip0">
<rect width="24" height="24" fill="white" transform="translate(14 14)"/>
</clipPath>
</defs>
</svg>
