<svg width="111" height="112" viewBox="0 0 111 112" fill="none" xmlns="http://www.w3.org/2000/svg">
<circle cx="55.5" cy="56.4961" r="54.5" fill="#F2F6FD" stroke="#323433" stroke-width="2"/>
<path d="M67.4867 44.6387H81.6571C82.4993 44.6387 83.1815 45.3209 83.1815 46.1619V78.5331C83.1815 79.3741 82.4993 80.0564 81.6571 80.0564H67.4867C66.6446 80.0564 65.9624 79.3741 65.9624 78.5331V46.1619C65.9624 45.3209 66.6446 44.6387 67.4867 44.6387Z" fill="#53599A" stroke="#323433"/>
<path d="M29.0243 44.6387H43.1947C44.0369 44.6387 44.7191 45.3209 44.7191 46.1619V78.5331C44.7191 79.3741 44.0369 80.0564 43.1947 80.0564H29.0243C28.1822 80.0564 27.5 79.3741 27.5 78.5331V46.1619C27.5 45.3209 28.1822 44.6387 29.0243 44.6387Z" fill="#53599A" stroke="#323433"/>
<path d="M35.097 71.9643H33.0727C32.6683 71.9643 32.2806 71.8038 31.9947 71.5181C31.7089 71.2324 31.5483 70.845 31.5483 70.4412C31.5483 70.0373 31.7089 69.6499 31.9947 69.3642C32.2806 69.0785 32.6683 68.918 33.0727 68.918H35.097C35.5014 68.918 35.8891 69.0785 36.175 69.3642C36.4608 69.6499 36.6214 70.0373 36.6214 70.4412C36.6214 70.845 36.4608 71.2324 36.175 71.5181C35.8891 71.8038 35.5014 71.9643 35.097 71.9643Z" fill="#666EC6" stroke="#323433"/>
<path d="M43.1948 32.5H67.4868C67.8912 32.5 68.279 32.6606 68.5648 32.9463C68.8507 33.2319 69.0112 33.6193 69.0112 34.0232V80.0569H41.6704V34.0232C41.6704 33.6193 41.8309 33.2319 42.1168 32.9463C42.4026 32.6606 42.7904 32.5 43.1948 32.5Z" fill="#E6ECFF" stroke="#323433"/>
<path d="M77.6087 63.8706H75.5844C75.18 63.8706 74.7923 63.71 74.5064 63.4243C74.2206 63.1386 74.0601 62.7513 74.0601 62.3474C74.0601 61.9435 74.2206 61.5562 74.5064 61.2705C74.7923 60.9848 75.18 60.8242 75.5844 60.8242H77.6087C78.0131 60.8242 78.4009 60.9848 78.6867 61.2705C78.9726 61.5562 79.1331 61.9435 79.1331 62.3474C79.1331 62.7513 78.9726 63.1386 78.6867 63.4243C78.4009 63.71 78.0131 63.8706 77.6087 63.8706Z" fill="#666EC6" stroke="#323433"/>
<path d="M77.6087 71.9643H75.5844C75.18 71.9643 74.7923 71.8038 74.5064 71.5181C74.2206 71.2324 74.0601 70.845 74.0601 70.4412C74.0601 70.0373 74.2206 69.6499 74.5064 69.3642C74.7923 69.0785 75.18 68.918 75.5844 68.918H77.6087C78.0131 68.918 78.4009 69.0785 78.6867 69.3642C78.9726 69.6499 79.1331 70.0373 79.1331 70.4412C79.1331 70.845 78.9726 71.2324 78.6867 71.5181C78.4009 71.8038 78.0131 71.9643 77.6087 71.9643Z" fill="#666EC6" stroke="#323433"/>
<path d="M77.6087 55.7789H75.5844C75.18 55.7789 74.7923 55.6183 74.5064 55.3326C74.2206 55.0469 74.0601 54.6595 74.0601 54.2556C74.0601 53.8518 74.2206 53.4644 74.5064 53.1787C74.7923 52.893 75.18 52.7324 75.5844 52.7324H77.6087C78.0131 52.7324 78.4009 52.893 78.6867 53.1787C78.9726 53.4644 79.1331 53.8518 79.1331 54.2556C79.1331 54.6595 78.9726 55.0469 78.6867 55.3326C78.4009 55.6183 78.0131 55.7789 77.6087 55.7789Z" fill="#666EC6" stroke="#323433"/>
<path d="M35.097 63.8706H33.0727C32.6683 63.8706 32.2806 63.71 31.9947 63.4243C31.7089 63.1386 31.5483 62.7513 31.5483 62.3474C31.5483 61.9435 31.7089 61.5562 31.9947 61.2705C32.2806 60.9848 32.6683 60.8242 33.0727 60.8242H35.097C35.5014 60.8242 35.8891 60.9848 36.175 61.2705C36.4608 61.5562 36.6214 61.9435 36.6214 62.3474C36.6214 62.7513 36.4608 63.1386 36.175 63.4243C35.8891 63.71 35.5014 63.8706 35.097 63.8706Z" fill="#666EC6" stroke="#323433"/>
<path d="M35.097 55.7789H33.0727C32.6683 55.7789 32.2806 55.6183 31.9947 55.3326C31.7089 55.0469 31.5483 54.6595 31.5483 54.2556C31.5483 53.8518 31.7089 53.4644 31.9947 53.1787C32.2806 52.893 32.6683 52.7324 33.0727 52.7324H35.097C35.5014 52.7324 35.8891 52.893 36.175 53.1787C36.4608 53.4644 36.6214 53.8518 36.6214 54.2556C36.6214 54.6595 36.4608 55.0469 36.175 55.3326C35.8891 55.6183 35.5014 55.7789 35.097 55.7789Z" fill="#666EC6" stroke="#323433"/>
<path d="M59.3898 59.8248H51.2924C50.8881 59.8248 50.5003 59.6642 50.2144 59.3785C49.9286 59.0928 49.7681 58.7054 49.7681 58.3015C49.7681 57.8977 49.9286 57.5103 50.2144 57.2246C50.5003 56.9389 50.8881 56.7783 51.2924 56.7783H59.3898C59.7941 56.7783 60.1819 56.9389 60.4677 57.2246C60.7536 57.5103 60.9141 57.8977 60.9141 58.3015C60.9141 58.7054 60.7536 59.0928 60.4677 59.3785C60.1819 59.6642 59.7941 59.8248 59.3898 59.8248Z" fill="#53599A" stroke="#323433"/>
<path d="M59.3898 51.732H51.2924C50.8881 51.732 50.5003 51.5714 50.2144 51.2857C49.9286 51 49.7681 50.6127 49.7681 50.2088C49.7681 49.8049 49.9286 49.4175 50.2144 49.1318C50.5003 48.8461 50.8881 48.6855 51.2924 48.6855H59.3898C59.7941 48.6855 60.1819 48.8461 60.4677 49.1318C60.7536 49.4175 60.9141 49.8049 60.9141 50.2088C60.9141 50.6127 60.7536 51 60.4677 51.2857C60.1819 51.5714 59.7941 51.732 59.3898 51.732Z" fill="#53599A" stroke="#323433"/>
<path d="M59.3898 43.6392H51.2924C50.8881 43.6392 50.5003 43.4787 50.2144 43.1929C49.9286 42.9073 49.7681 42.5199 49.7681 42.116C49.7681 41.7121 49.9286 41.3247 50.2144 41.039C50.5003 40.7533 50.8881 40.5928 51.2924 40.5928H59.3898C59.7941 40.5928 60.1819 40.7533 60.4677 41.039C60.7536 41.3247 60.9141 41.7121 60.9141 42.116C60.9141 42.5199 60.7536 42.9073 60.4677 43.1929C60.1819 43.4787 59.7941 43.6392 59.3898 43.6392Z" fill="#53599A" stroke="#323433"/>
<path d="M49.7676 70.6837H49.7677L49.7675 70.6746C49.7436 69.3568 50.1749 68.0709 50.9889 67.0337C51.8018 65.9978 52.9467 65.2732 54.2312 64.9816C55.0394 64.8175 55.874 64.8347 56.6748 65.0321C57.4773 65.2298 58.2258 65.6035 58.8659 66.126C59.506 66.6484 60.0219 67.3067 60.376 68.053C60.7302 68.7993 60.9138 69.6149 60.9137 70.4409V70.441V80.0569H49.7676V70.6837Z" fill="#53599A" stroke="#323433"/>
</svg>
