<svg width="111" height="112" viewBox="0 0 111 112" fill="none" xmlns="http://www.w3.org/2000/svg">
<circle cx="55.5" cy="56.4961" r="54.5" fill="#F2F6FD" stroke="#323433" stroke-width="2"/>
<path d="M47.2842 47.5992L47.2842 47.5992L47.2806 47.6026C47.0504 47.8188 46.7569 47.9555 46.4433 47.9927C46.1296 48.0299 45.8122 47.9656 45.5378 47.8092C45.2626 47.6524 45.0453 47.4115 44.9177 47.1219L44.4601 47.3235L44.9177 47.1219C44.7901 46.8324 44.759 46.5094 44.8291 46.2009L44.8296 46.1985L47.9331 32.2111L47.9332 32.2104C48.1022 31.4433 48.5279 30.7568 49.1401 30.2642C49.7522 29.7716 50.5141 29.5024 51.3 29.5011H59.9379V29.5012L59.9495 29.5009C60.7503 29.4823 61.5326 29.7423 62.1626 30.2366C62.7926 30.7309 63.2311 31.4286 63.403 32.2102L63.4033 32.2118L66.5266 46.1992L66.5269 46.2004C66.5763 46.4193 66.5752 46.6466 66.5235 46.865C66.4718 47.0834 66.3709 47.2872 66.2286 47.4608C66.0862 47.6344 65.9061 47.7733 65.7018 47.8668C65.4976 47.9604 65.2747 48.0062 65.0501 48.0006L65.0501 48.0005L65.0396 48.0005C64.6664 47.9992 64.3076 47.8568 64.0353 47.602L64.0323 47.5992C61.7501 45.4983 58.7609 44.332 55.6582 44.332C52.5556 44.332 49.5663 45.4983 47.2842 47.5992Z" fill="#666EC6" stroke="#323433"/>
<path d="M65.7789 65.5116L65.79 65.5179L65.8014 65.5236C66.0901 65.6692 66.323 65.9053 66.4643 66.1958C66.6049 66.4849 66.6472 66.8119 66.5849 67.1271L63.4629 81.109L63.4626 81.1105C63.2906 81.8922 62.8522 82.5899 62.2222 83.0842C61.5922 83.5784 60.8099 83.8385 60.0091 83.8198L60.0091 83.8197H59.9974L51.2998 83.8197L51.2977 83.8197C50.5234 83.823 49.7705 83.5661 49.1599 83.0904C48.5508 82.6159 48.1185 81.9511 47.932 81.2024L44.8299 67.221L44.8258 67.2029L44.8205 67.1851C44.7259 66.8712 44.7387 66.5348 44.8567 66.2289C44.9747 65.9231 45.1913 65.6651 45.4724 65.4959C45.7535 65.3267 46.083 65.2558 46.4089 65.2945C46.7348 65.3332 47.0385 65.4793 47.272 65.7097L47.2781 65.7157L47.2844 65.7216C49.5666 67.8225 52.5558 68.9888 55.6585 68.9888C58.7612 68.9888 61.7504 67.8225 64.0326 65.7216L64.0326 65.7216L64.0362 65.7182C64.2664 65.502 64.5598 65.3653 64.8735 65.3281C65.1872 65.2909 65.5045 65.3552 65.7789 65.5116Z" fill="#3B4185" stroke="#323433"/>
<path d="M70.9622 56.6595C70.9622 65.1119 64.1062 71.9645 55.6483 71.9645C47.1905 71.9645 40.3345 65.1119 40.3345 56.6595C40.3345 48.207 47.1905 41.3545 55.6483 41.3545C64.1062 41.3545 70.9622 48.207 70.9622 56.6595Z" fill="#E6ECFF" stroke="#323433"/>
<path d="M54.6184 57.7093L54.6184 57.7093L54.6148 57.7058C54.4753 57.5691 54.3643 57.4061 54.2883 57.2263C54.2124 57.0468 54.1728 56.8541 54.1719 56.6592V52.709C54.1719 52.3178 54.3274 51.9425 54.6043 51.6657C54.8812 51.3889 55.2569 51.2334 55.6486 51.2334C56.0403 51.2334 56.416 51.3889 56.6929 51.6657C56.9698 51.9425 57.1253 52.3178 57.1253 52.709V55.8503V56.0575L57.2719 56.2039L59.4712 58.402C59.7055 58.6823 59.8276 59.0396 59.8135 59.405C59.7991 59.7763 59.6451 60.1286 59.3822 60.3914C59.1192 60.6542 58.7666 60.8082 58.3949 60.8226C58.0291 60.8367 57.6714 60.7146 57.3909 60.4803L54.6184 57.7093Z" fill="#666EC6" stroke="#323433"/>
</svg>
