<svg width="111" height="112" viewBox="0 0 111 112" fill="none" xmlns="http://www.w3.org/2000/svg">
<path d="M111 56.4961C111 87.1479 86.1518 111.996 55.5 111.996C24.8482 111.996 0 87.1479 0 56.4961C0 25.8443 24.8482 0.996094 55.5 0.996094C86.1518 0.996094 111 25.8443 111 56.4961Z" fill="#F2F6FD"/>
<path fill-rule="evenodd" clip-rule="evenodd" d="M55.5 109.996C85.0472 109.996 109 86.0433 109 56.4961C109 26.9489 85.0472 2.99609 55.5 2.99609C25.9528 2.99609 2 26.9489 2 56.4961C2 86.0433 25.9528 109.996 55.5 109.996ZM55.5 111.996C86.1518 111.996 111 87.1479 111 56.4961C111 25.8443 86.1518 0.996094 55.5 0.996094C24.8482 0.996094 0 25.8443 0 56.4961C0 87.1479 24.8482 111.996 55.5 111.996Z" fill="#323433"/>
<path d="M58.7396 74.6406H50.2757C49.7145 74.6406 49.1763 74.8635 48.7794 75.2601C48.3826 75.6567 48.1597 76.1946 48.1597 76.7554V78.8703C48.1597 80.5529 48.8285 82.1666 50.0189 83.3564C51.2094 84.5463 52.8241 85.2147 54.5076 85.2147C56.1912 85.2147 57.8059 84.5463 58.9964 83.3564C60.1868 82.1666 60.8556 80.5529 60.8556 78.8703V76.7554C60.8556 76.1946 60.6327 75.6567 60.2359 75.2601C59.839 74.8635 59.3008 74.6406 58.7396 74.6406Z" fill="#3B4185"/>
<path fill-rule="evenodd" clip-rule="evenodd" d="M58.7396 75.6406H50.2757C49.9795 75.6406 49.6956 75.7582 49.4863 75.9674C49.2771 76.1765 49.1597 76.46 49.1597 76.7554V78.8703C49.1597 80.2875 49.723 81.6468 50.7259 82.6491C51.7288 83.6515 53.0891 84.2147 54.5076 84.2147C55.9262 84.2147 57.2865 83.6515 58.2894 82.6491C59.2923 81.6468 59.8556 80.2875 59.8556 78.8703V76.7554C59.8556 76.46 59.7382 76.1765 59.529 75.9674C59.3197 75.7582 59.0358 75.6406 58.7396 75.6406ZM50.2757 74.6406H58.7396C59.3008 74.6406 59.839 74.8635 60.2359 75.2601C60.6327 75.6567 60.8556 76.1946 60.8556 76.7554V78.8703C60.8556 80.5529 60.1868 82.1666 58.9964 83.3564C57.8059 84.5463 56.1912 85.2147 54.5076 85.2147C52.8241 85.2147 51.2094 84.5463 50.0189 83.3564C48.8285 82.1666 48.1597 80.5529 48.1597 78.8703V76.7554C48.1597 76.1946 48.3826 75.6567 48.7794 75.2601C49.1763 74.8635 49.7145 74.6406 50.2757 74.6406Z" fill="#323433"/>
<path d="M73.5519 53.4925C73.5507 56.6214 72.7778 59.7018 71.3014 62.4609C69.8251 65.2201 67.6909 67.573 65.0879 69.3113V76.7554C65.0879 77.3163 64.8649 77.8542 64.4681 78.2508C64.0713 78.6474 63.5331 78.8702 62.9719 78.8702H46.0439C45.4827 78.8702 44.9444 78.6474 44.5476 78.2508C44.1508 77.8542 43.9279 77.3163 43.9279 76.7554V69.3113C41.192 67.4843 38.9764 64.98 37.497 62.0425C36.0177 59.1051 35.3252 55.8347 35.4869 52.5501C35.6486 49.2655 36.659 46.0788 38.4198 43.3007C40.1805 40.5225 42.6314 38.2477 45.5335 36.698C48.4357 35.1483 51.6901 34.3765 54.9795 34.458C58.2689 34.5394 61.4811 35.4713 64.3029 37.1627C67.1247 38.8541 69.4599 41.2474 71.0808 44.1093C72.7017 46.9711 73.5531 50.2039 73.5519 53.4925Z" fill="#E6ECFF"/>
<path fill-rule="evenodd" clip-rule="evenodd" d="M64.0879 68.7766L64.5325 68.4797C66.9989 66.8327 69.021 64.6034 70.4197 61.9892C71.8185 59.375 72.5508 56.4565 72.5519 53.4921C72.553 50.3764 71.7464 47.3136 70.2107 44.6021C68.6749 41.8906 66.4624 39.623 63.7888 38.0204C61.1151 36.4178 58.0715 35.5348 54.9547 35.4577C51.838 35.3805 48.7544 36.1118 46.0046 37.5801C43.2548 39.0485 40.9326 41.2038 39.2644 43.836C37.5962 46.4681 36.6389 49.4873 36.4857 52.5993C36.3325 55.7112 36.9886 58.8097 38.3902 61.5928C39.7918 64.3759 41.891 66.7486 44.4832 68.4797L44.9279 68.7766V76.7554C44.9279 77.0509 45.0453 77.3344 45.2545 77.5435C45.4638 77.7527 45.7477 77.8702 46.0439 77.8702H62.9719C63.268 77.8702 63.5519 77.7527 63.7612 77.5435C63.9704 77.3344 64.0879 77.0509 64.0879 76.7554V68.7766ZM65.0879 69.3113C67.6909 67.573 69.8251 65.2201 71.3014 62.4609C72.7778 59.7018 73.5507 56.6214 73.5519 53.4925C73.5531 50.2039 72.7017 46.9711 71.0808 44.1093C69.4599 41.2474 67.1247 38.8541 64.3029 37.1627C61.4811 35.4713 58.2689 34.5394 54.9795 34.458C51.6901 34.3765 48.4357 35.1483 45.5335 36.698C42.6314 38.2477 40.1805 40.5225 38.4198 43.3007C36.659 46.0788 35.6486 49.2655 35.4869 52.5501C35.3252 55.8347 36.0177 59.1051 37.497 62.0425C38.9764 64.98 41.192 67.4843 43.9279 69.3113V76.7554C43.9279 77.3163 44.1508 77.8542 44.5476 78.2508C44.9444 78.6474 45.4827 78.8702 46.0439 78.8702H62.9719C63.5331 78.8702 64.0713 78.6474 64.4681 78.2508C64.8649 77.8542 65.0879 77.3163 65.0879 76.7554V69.3113Z" fill="#323433"/>
<path d="M65.0877 72.5264V76.756C65.0877 77.3169 64.8648 77.8548 64.468 78.2514C64.0711 78.648 63.5329 78.8708 62.9717 78.8708H46.0437C45.4825 78.8708 44.9443 78.648 44.5475 78.2514C44.1507 77.8548 43.9277 77.3169 43.9277 76.756V72.5264H65.0877Z" fill="#666EC6"/>
<path fill-rule="evenodd" clip-rule="evenodd" d="M64.0877 76.756V73.5264H44.9277V76.756C44.9277 77.0515 45.0452 77.3349 45.2544 77.5441C45.4637 77.7532 45.7476 77.8708 46.0437 77.8708H62.9717C63.2678 77.8708 63.5518 77.7532 63.761 77.5441C63.9703 77.3349 64.0877 77.0515 64.0877 76.756ZM65.0877 72.5264H43.9277V76.756C43.9277 77.3169 44.1507 77.8548 44.5475 78.2514C44.9443 78.648 45.4825 78.8708 46.0437 78.8708H62.9717C63.5329 78.8708 64.0711 78.648 64.468 78.2514C64.8648 77.8548 65.0877 77.3169 65.0877 76.756V72.5264Z" fill="#323433"/>
<path d="M54.5076 32.3445C53.9464 32.3445 53.4082 32.1217 53.0114 31.7251C52.6145 31.3285 52.3916 30.7906 52.3916 30.2297V28.1148C52.3916 27.554 52.6145 27.0161 53.0114 26.6195C53.4082 26.2228 53.9464 26 54.5076 26C55.0688 26 55.607 26.2228 56.0038 26.6195C56.4006 27.0161 56.6236 27.554 56.6236 28.1148V30.2297C56.6236 30.7906 56.4006 31.3285 56.0038 31.7251C55.607 32.1217 55.0688 32.3445 54.5076 32.3445Z" fill="#666EC6"/>
<path fill-rule="evenodd" clip-rule="evenodd" d="M53.7183 31.0178C53.9275 31.2269 54.2115 31.3445 54.5076 31.3445C54.8037 31.3445 55.0876 31.2269 55.2969 31.0178C55.5061 30.8086 55.6236 30.5252 55.6236 30.2297V28.1148C55.6236 27.8194 55.5061 27.5359 55.2969 27.3268C55.0876 27.1176 54.8037 27 54.5076 27C54.2115 27 53.9275 27.1176 53.7183 27.3268C53.509 27.5359 53.3916 27.8194 53.3916 28.1148V30.2297C53.3916 30.5252 53.509 30.8086 53.7183 31.0178ZM53.0114 31.7251C53.4082 32.1217 53.9464 32.3445 54.5076 32.3445C55.0688 32.3445 55.607 32.1217 56.0038 31.7251C56.4006 31.3285 56.6236 30.7906 56.6236 30.2297V28.1148C56.6236 27.554 56.4006 27.0161 56.0038 26.6195C55.607 26.2228 55.0688 26 54.5076 26C53.9464 26 53.4082 26.2228 53.0114 26.6195C52.6145 27.0161 52.3916 27.554 52.3916 28.1148V30.2297C52.3916 30.7906 52.6145 31.3285 53.0114 31.7251Z" fill="#323433"/>
<path d="M38.046 39.1543C37.4908 39.1519 36.9589 38.9317 36.5648 38.541L35.0624 37.0395C34.8409 36.8499 34.661 36.6166 34.534 36.3542C34.407 36.0918 34.3356 35.806 34.3243 35.5148C34.3131 35.2235 34.3622 34.9331 34.4686 34.6617C34.5749 34.3903 34.7363 34.1439 34.9425 33.9378C35.1488 33.7317 35.3953 33.5704 35.6669 33.4641C35.9384 33.3577 36.229 33.3087 36.5204 33.3199C36.8118 33.3312 37.0978 33.4025 37.3603 33.5294C37.6228 33.6564 37.8563 33.8362 38.046 34.0576L39.5483 35.538C39.8467 35.8338 40.0503 36.2116 40.1329 36.6235C40.2156 37.0354 40.1737 37.4625 40.0125 37.8505C39.8513 38.2384 39.5782 38.5696 39.228 38.8018C38.8777 39.034 38.4662 39.1567 38.046 39.1543Z" fill="#666EC6"/>
<path fill-rule="evenodd" clip-rule="evenodd" d="M38.0502 38.1543L38.0518 38.1543C38.2736 38.1556 38.4907 38.0908 38.6754 37.9684C38.8601 37.8459 39.0041 37.6713 39.089 37.4668C39.174 37.2624 39.196 37.0373 39.1525 36.8203C39.109 36.6038 39.0021 36.4049 38.8452 36.2491C38.8449 36.2488 38.8446 36.2485 38.8443 36.2482L37.314 34.7402L37.2866 34.7082C37.1866 34.5915 37.0635 34.4967 36.925 34.4297C36.7865 34.3628 36.6357 34.3251 36.4819 34.3192C36.328 34.3133 36.1747 34.3392 36.0315 34.3952C35.8883 34.4513 35.7582 34.5363 35.6495 34.6451C35.5407 34.7538 35.4556 34.8837 35.3996 35.0267C35.3435 35.1697 35.3177 35.3227 35.3236 35.4762C35.3295 35.6296 35.3671 35.7802 35.4341 35.9185C35.501 36.0568 35.5958 36.1798 35.7126 36.2797L35.742 36.3048L37.2699 37.8319C37.4777 38.0372 37.7578 38.1531 38.0502 38.1543ZM36.5648 38.541L35.0624 37.0395C34.8409 36.8499 34.661 36.6166 34.534 36.3542C34.407 36.0918 34.3356 35.806 34.3243 35.5148C34.3131 35.2235 34.3622 34.9331 34.4686 34.6617C34.5749 34.3903 34.7363 34.1439 34.9425 33.9378C35.1488 33.7317 35.3953 33.5704 35.6669 33.4641C35.9384 33.3577 36.229 33.3087 36.5204 33.3199C36.8118 33.3312 37.0978 33.4025 37.3603 33.5294C37.6228 33.6564 37.8563 33.8362 38.046 34.0576L39.5483 35.538C39.8467 35.8338 40.0503 36.2116 40.1329 36.6235C40.2156 37.0354 40.1737 37.4625 40.0125 37.8505C39.8513 38.2384 39.5782 38.5696 39.228 38.8018C38.8777 39.034 38.4662 39.1567 38.046 39.1543C37.4908 39.1519 36.9589 38.9317 36.5648 38.541Z" fill="#323433"/>
<path d="M31.232 55.6076H29.116C28.5548 55.6076 28.0166 55.3847 27.6198 54.9881C27.2229 54.5915 27 54.0536 27 53.4928C27 52.9319 27.2229 52.394 27.6198 51.9974C28.0166 51.6008 28.5548 51.3779 29.116 51.3779H31.232C31.7932 51.3779 32.3314 51.6008 32.7282 51.9974C33.125 52.394 33.348 52.9319 33.348 53.4928C33.348 54.0536 33.125 54.5915 32.7282 54.9881C32.3314 55.3847 31.7932 55.6076 31.232 55.6076Z" fill="#666EC6"/>
<path fill-rule="evenodd" clip-rule="evenodd" d="M29.116 54.6076H31.232C31.5281 54.6076 31.812 54.49 32.0213 54.2808C32.2305 54.0717 32.348 53.7882 32.348 53.4928C32.348 53.1973 32.2305 52.9138 32.0213 52.7047C31.812 52.4955 31.5281 52.3779 31.232 52.3779H29.116C28.8199 52.3779 28.5359 52.4955 28.3267 52.7047C28.1174 52.9138 28 53.1973 28 53.4928C28 53.7882 28.1174 54.0717 28.3267 54.2808C28.5359 54.49 28.8199 54.6076 29.116 54.6076ZM29.116 55.6076H31.232C31.7932 55.6076 32.3314 55.3847 32.7282 54.9881C33.125 54.5915 33.348 54.0536 33.348 53.4928C33.348 52.9319 33.125 52.394 32.7282 51.9974C32.3314 51.6008 31.7932 51.3779 31.232 51.3779H29.116C28.5548 51.3779 28.0166 51.6008 27.6198 51.9974C27.2229 52.394 27 52.9319 27 53.4928C27 54.0536 27.2229 54.5915 27.6198 54.9881C28.0166 55.3847 28.5548 55.6076 29.116 55.6076Z" fill="#323433"/>
<path d="M36.5639 73.5619C36.1436 73.5643 35.7321 73.4416 35.3818 73.2094C35.0316 72.9772 34.7585 72.646 34.5973 72.2581C34.4361 71.8701 34.3942 71.443 34.4769 71.0311C34.5596 70.6193 34.7631 70.2414 35.0615 69.9456L36.5639 68.4441C36.9603 68.0502 37.4966 67.8291 38.0556 67.8291C38.6147 67.8291 39.1509 68.0502 39.5474 68.4441C39.7457 68.6407 39.9032 68.8746 40.0106 69.1323C40.118 69.39 40.1733 69.6664 40.1733 69.9456C40.1733 70.2248 40.118 70.5012 40.0106 70.7589C39.9032 71.0166 39.7457 71.2505 39.5474 71.4471L38.045 72.9275C37.6544 73.3259 37.122 73.5539 36.5639 73.5619Z" fill="#666EC6"/>
<path fill-rule="evenodd" clip-rule="evenodd" d="M35.0615 69.9456C34.7631 70.2414 34.5596 70.6193 34.4769 71.0311C34.3942 71.443 34.4361 71.8701 34.5973 72.2581C34.7585 72.646 35.0316 72.9772 35.3818 73.2094C35.7321 73.4416 36.1436 73.5643 36.5639 73.5619C37.122 73.5539 37.6544 73.3259 38.045 72.9275L39.5474 71.4471C39.7457 71.2505 39.9032 71.0166 40.0106 70.7589C40.118 70.5012 40.1733 70.2248 40.1733 69.9456C40.1733 69.6664 40.118 69.39 40.0106 69.1323C39.9032 68.8746 39.7457 68.6407 39.5474 68.4441C39.1509 68.0502 38.6147 67.8291 38.0556 67.8291C37.4966 67.8291 36.9603 68.0502 36.5639 68.4441L35.0615 69.9456ZM37.2695 69.1526L35.7655 70.6558C35.6081 70.8118 35.5009 71.0109 35.4573 71.2279C35.4138 71.445 35.4359 71.67 35.5208 71.8744C35.6057 72.0789 35.7497 72.2535 35.9344 72.376C36.1179 72.4976 36.3335 72.5624 36.5538 72.5619C36.8469 72.5566 37.126 72.4364 37.331 72.2274L37.337 72.2212L38.8434 70.7369C38.8437 70.7366 38.844 70.7363 38.8443 70.736C38.9485 70.6325 39.0311 70.5095 39.0876 70.3741C39.1442 70.2383 39.1733 70.0927 39.1733 69.9456C39.1733 69.7985 39.1442 69.6528 39.0876 69.517C39.031 69.3813 38.948 69.258 38.8434 69.1543L38.8426 69.1535C38.6335 68.9458 38.3506 68.8291 38.0556 68.8291C37.7611 68.8291 37.4785 68.9455 37.2695 69.1526Z" fill="#323433"/>
<path d="M72.4728 73.563C72.1928 73.5618 71.9158 73.5052 71.6579 73.3963C71.4001 73.2874 71.1663 73.1284 70.9704 72.9286L69.468 71.4482C69.0696 71.0499 68.8457 70.5099 68.8457 69.9467C68.8457 69.3835 69.0696 68.8434 69.468 68.4452C69.8665 68.047 70.4069 67.8232 70.9704 67.8232C71.5339 67.8232 72.0743 68.047 72.4728 68.4452L73.9751 69.9467C74.3692 70.3429 74.5905 70.8789 74.5905 71.4376C74.5905 71.9963 74.3692 72.5323 73.9751 72.9286C73.7791 73.1284 73.5454 73.2874 73.2875 73.3963C73.0297 73.5052 72.7527 73.5618 72.4728 73.563Z" fill="#666EC6"/>
<path fill-rule="evenodd" clip-rule="evenodd" d="M70.9704 72.9286C71.1663 73.1284 71.4001 73.2874 71.6579 73.3963C71.9158 73.5052 72.1928 73.5618 72.4728 73.563C72.7527 73.5618 73.0297 73.5052 73.2875 73.3963C73.5454 73.2874 73.7791 73.1284 73.9751 72.9286C74.3692 72.5323 74.5905 71.9963 74.5905 71.4376C74.5905 70.8789 74.3692 70.3429 73.9751 69.9467L72.4728 68.4452C72.0743 68.047 71.5339 67.8232 70.9704 67.8232C70.4069 67.8232 69.8665 68.047 69.468 68.4452C69.0696 68.8434 68.8457 69.3835 68.8457 69.9467C68.8457 70.5099 69.0696 71.0499 69.468 71.4482L70.9704 72.9286ZM70.1728 70.7387L71.6783 72.2223L71.6843 72.2284C71.7877 72.3337 71.9109 72.4176 72.047 72.475C72.1817 72.5319 72.3263 72.5618 72.4728 72.563C72.6192 72.5618 72.7638 72.5319 72.8985 72.475C73.0346 72.4176 73.1578 72.3337 73.2612 72.2284L73.2661 72.2233C73.4739 72.0144 73.5905 71.7319 73.5905 71.4376C73.5905 71.1437 73.4742 70.8616 73.267 70.6527C73.2667 70.6525 73.2664 70.6522 73.2661 70.6519L71.7659 69.1525C71.555 68.9418 71.2688 68.8232 70.9704 68.8232C70.6719 68.8232 70.3858 68.9417 70.1749 69.1525C69.9641 69.3633 69.8457 69.6489 69.8457 69.9467C69.8457 70.2434 69.9633 70.5282 70.1728 70.7387Z" fill="#323433"/>
<path d="M79.9 55.6076H77.784C77.2228 55.6076 76.6846 55.3847 76.2877 54.9881C75.8909 54.5915 75.668 54.0536 75.668 53.4928C75.668 52.9319 75.8909 52.394 76.2877 51.9974C76.6846 51.6008 77.2228 51.3779 77.784 51.3779H79.9C80.4612 51.3779 80.9994 51.6008 81.3962 51.9974C81.793 52.394 82.0159 52.9319 82.0159 53.4928C82.0159 54.0536 81.793 54.5915 81.3962 54.9881C80.9994 55.3847 80.4612 55.6076 79.9 55.6076Z" fill="#666EC6"/>
<path fill-rule="evenodd" clip-rule="evenodd" d="M77.784 54.6076H79.9C80.1961 54.6076 80.48 54.49 80.6893 54.2808C80.8985 54.0717 81.0159 53.7882 81.0159 53.4928C81.0159 53.1973 80.8985 52.9138 80.6893 52.7047C80.48 52.4955 80.1961 52.3779 79.9 52.3779H77.784C77.4878 52.3779 77.2039 52.4955 76.9946 52.7047C76.7854 52.9138 76.668 53.1973 76.668 53.4928C76.668 53.7882 76.7854 54.0717 76.9946 54.2808C77.2039 54.49 77.4878 54.6076 77.784 54.6076ZM77.784 55.6076H79.9C80.4612 55.6076 80.9994 55.3847 81.3962 54.9881C81.793 54.5915 82.0159 54.0536 82.0159 53.4928C82.0159 52.9319 81.793 52.394 81.3962 51.9974C80.9994 51.6008 80.4612 51.3779 79.9 51.3779H77.784C77.2228 51.3779 76.6846 51.6008 76.2877 51.9974C75.8909 52.394 75.668 52.9319 75.668 53.4928C75.668 54.0536 75.8909 54.5915 76.2877 54.9881C76.6846 55.3847 77.2228 55.6076 77.784 55.6076Z" fill="#323433"/>
<path d="M70.9701 39.154C70.6916 39.1556 70.4155 39.1023 70.1577 38.997C69.8999 38.8918 69.6654 38.7367 69.4677 38.5407C69.2694 38.344 69.112 38.1102 69.0045 37.8525C68.8971 37.5948 68.8418 37.3183 68.8418 37.0391C68.8418 36.76 68.8971 36.4835 69.0045 36.2258C69.112 35.9681 69.2694 35.7342 69.4677 35.5376L70.9701 34.0572C71.1668 33.859 71.4008 33.7016 71.6587 33.5943C71.9165 33.4869 72.1931 33.4316 72.4724 33.4316C72.7518 33.4316 73.0283 33.4869 73.2862 33.5943C73.544 33.7016 73.7781 33.859 73.9748 34.0572C74.3689 34.4535 74.5901 34.9895 74.5901 35.5482C74.5901 36.1069 74.3689 36.6429 73.9748 37.0391L72.4724 38.5407C72.2747 38.7367 72.0402 38.8918 71.7824 38.997C71.5246 39.1023 71.2485 39.1556 70.9701 39.154Z" fill="#666EC6"/>
<path fill-rule="evenodd" clip-rule="evenodd" d="M70.9758 38.1539L70.9758 38.154C71.1229 38.1548 71.2685 38.1267 71.4045 38.0712C71.5399 38.0159 71.6631 37.9345 71.7672 37.8317L73.2658 36.3339C73.2661 36.3336 73.2664 36.3333 73.2667 36.333C73.4739 36.1242 73.5901 35.8421 73.5901 35.5482C73.5901 35.2539 73.4736 34.9713 73.2658 34.7624L73.265 34.7616C73.1612 34.6571 73.0378 34.5741 72.9018 34.5174C72.7658 34.4608 72.6198 34.4316 72.4724 34.4316C72.325 34.4316 72.1791 34.4608 72.0431 34.5174C71.9071 34.5741 71.7836 34.6571 71.6799 34.7616L71.672 34.7696L71.672 34.7695L70.1708 36.2487C70.0666 36.3523 69.984 36.4752 69.9275 36.6106C69.8709 36.7464 69.8418 36.892 69.8418 37.0391C69.8418 37.1863 69.8709 37.3319 69.9275 37.4677C69.9841 37.6034 70.0671 37.7267 70.1717 37.8305L70.1717 37.8305C70.2761 37.9339 70.3998 38.0157 70.5357 38.0712C70.6716 38.1267 70.8173 38.1548 70.9643 38.154L70.9758 38.1539ZM69.4677 35.5376C69.2694 35.7342 69.112 35.9681 69.0045 36.2258C68.8971 36.4835 68.8418 36.76 68.8418 37.0391C68.8418 37.3183 68.8971 37.5948 69.0045 37.8525C69.112 38.1102 69.2694 38.344 69.4677 38.5407C69.6654 38.7367 69.8999 38.8918 70.1577 38.997C70.4155 39.1023 70.6916 39.1556 70.9701 39.154C71.2485 39.1556 71.5246 39.1023 71.7824 38.997C72.0402 38.8918 72.2747 38.7367 72.4724 38.5407L73.9748 37.0391C74.3689 36.6429 74.5901 36.1069 74.5901 35.5482C74.5901 34.9895 74.3689 34.4535 73.9748 34.0572C73.7781 33.859 73.544 33.7016 73.2862 33.5943C73.0283 33.4869 72.7518 33.4316 72.4724 33.4316C72.1931 33.4316 71.9165 33.4869 71.6587 33.5943C71.4008 33.7016 71.1668 33.859 70.9701 34.0572L69.4677 35.5376Z" fill="#323433"/>
<path d="M60.9991 49.608C61 48.3709 60.4962 47.1841 59.5985 46.3085C58.7008 45.4328 57.4826 44.94 56.2118 44.9383H55.7236V43H52.5558V44.9446H49V48.0347H50.4837V57.4748H49V60.5554H52.5558V62.5H55.7236V60.5554H56.2118C56.8411 60.5566 57.4645 60.4368 58.0461 60.2028C58.6277 59.9689 59.1561 59.6254 59.6009 59.1921C60.0458 58.7587 60.3983 58.2441 60.6383 57.6778C60.8782 57.1115 61.0008 56.5046 60.9991 55.892C61.0218 54.7332 60.5801 53.6113 59.7675 52.7642C60.5805 51.9185 61.0223 50.7974 60.9991 49.6395V49.608ZM57.8345 49.6395C57.8347 50.0477 57.672 50.44 57.3807 50.7335C57.0894 51.0271 56.6922 51.199 56.2732 51.2128H53.6548V48.0347H56.2118C56.426 48.0325 56.6384 48.0727 56.8362 48.1528C57.034 48.2328 57.213 48.3511 57.3625 48.5004C57.5161 48.6462 57.6373 48.8211 57.7184 49.0143C57.7996 49.2076 57.8391 49.415 57.8345 49.6238V49.6395ZM53.6548 54.2809H56.2732C56.6848 54.2921 57.0756 54.4592 57.3625 54.7466C57.5166 54.892 57.638 55.0669 57.7193 55.2602C57.8005 55.4535 57.8397 55.6611 57.8345 55.87C57.8345 56.2872 57.6642 56.6874 57.3611 56.9825C57.058 57.2775 56.6469 57.4433 56.2182 57.4433H53.6548V54.2809Z" fill="white" stroke="#323433"/>
</svg>
