<svg width="111" height="112" viewBox="0 0 111 112" fill="none" xmlns="http://www.w3.org/2000/svg">
<circle cx="55.5" cy="56.4961" r="54.5" fill="#F2F6FD" stroke="#323433" stroke-width="2"/>
<path d="M59.707 36.7332L59.3895 37.1379L59.803 37.4438C60.788 38.1726 61.5891 39.1211 62.1427 40.2139C62.696 41.3064 62.9866 42.5128 62.9913 43.7373V45.8285C62.9913 46.2506 62.8236 46.6555 62.5248 46.9541C62.226 47.2527 61.8208 47.4205 61.3981 47.4205H48.8388C48.4162 47.4205 48.0109 47.2527 47.7121 46.9541C47.4134 46.6555 47.2456 46.2506 47.2456 45.8285V43.7374C47.2503 42.5129 47.5409 41.3064 48.0943 40.2139C48.6478 39.1211 49.449 38.1726 50.434 37.4438L50.8432 37.141L50.5332 36.7373C49.7696 35.7429 49.3504 34.5273 49.3388 33.2739C49.3394 31.7429 49.9482 30.2746 51.0315 29.1919C52.1154 28.1086 53.5855 27.5 55.1185 27.5C56.6514 27.5 58.1215 28.1086 59.2054 29.1919C60.2893 30.2752 60.8981 31.7443 60.8981 33.2762L60.8981 33.2769C60.9 34.5299 60.4806 35.7472 59.707 36.7332Z" fill="#666EC6" stroke="#323433"/>
<path d="M43.5594 74.4215C44.2713 73.4002 44.6545 72.1826 44.6526 70.9324C44.6526 69.2679 43.991 67.6715 42.8133 66.4945C41.6356 65.3175 40.0384 64.6562 38.3729 64.6562C36.7074 64.6562 35.1102 65.3175 33.9325 66.4945C32.7548 67.6715 32.0932 69.2679 32.0932 70.9324C32.1046 72.2202 32.5121 73.4715 33.2575 74.5176L43.5594 74.4215ZM43.5594 74.4215L43.3548 74.6981L43.7269 74.99C44.605 75.7199 45.3258 76.6228 45.8431 77.6442C46.4318 78.8064 46.7409 80.09 46.7458 81.3926L43.5594 74.4215ZM42.9614 74.3895L42.6439 74.7941L43.0574 75.1C44.0424 75.8288 44.8436 76.7774 45.3971 77.8701C45.9505 78.9626 46.2411 80.1691 46.2458 81.3935V83.4847C46.2458 83.9068 46.078 84.3117 45.7792 84.6103C45.4805 84.9089 45.0752 85.0767 44.6526 85.0767H32.0932C31.6706 85.0767 31.2653 84.9089 30.9665 84.6103C30.6678 84.3117 30.5 83.9068 30.5 83.4847V81.3936C30.5047 80.1691 30.7953 78.9626 31.3487 77.8701C31.9022 76.7774 32.7034 75.8288 33.6884 75.1L34.0976 74.7973L33.7876 74.3936C33.024 73.3992 32.6048 72.1835 32.5932 70.9302C32.5938 69.3991 33.2026 67.9309 34.2859 66.8481C35.3698 65.7649 36.8399 65.1562 38.3729 65.1562C39.9058 65.1562 41.376 65.7649 42.4598 66.8481C43.5437 67.9314 44.1526 69.4006 44.1526 70.9324L44.1526 70.9332C44.1545 72.1861 43.735 73.4034 42.9614 74.3895Z" fill="#666EC6" stroke="#323433"/>
<path d="M77.0506 74.4215C77.7625 73.4002 78.1456 72.1826 78.1437 70.9324C78.1437 69.2679 77.4821 67.6715 76.3045 66.4945C75.1268 65.3175 73.5295 64.6562 71.8641 64.6562C70.1986 64.6562 68.6014 65.3175 67.4237 66.4945C66.246 67.6715 65.5844 69.2679 65.5844 70.9324C65.5958 72.2202 66.0033 73.4715 66.7487 74.5176L77.0506 74.4215ZM77.0506 74.4215L76.846 74.6981L77.218 74.99C78.0962 75.7199 78.8169 76.6228 79.3343 77.6442C79.923 78.8064 80.2321 80.09 80.237 81.3926L77.0506 74.4215ZM76.4526 74.3895L76.1351 74.7941L76.5486 75.1C77.5336 75.8288 78.3347 76.7774 78.8883 77.8701C79.4416 78.9626 79.7322 80.1691 79.737 81.3935V83.4847C79.737 83.9068 79.5692 84.3117 79.2704 84.6103C78.9716 84.9089 78.5664 85.0767 78.1437 85.0767H65.5844C65.1618 85.0767 64.7565 84.9089 64.4578 84.6103C64.159 84.3117 63.9912 83.9068 63.9912 83.4847V81.3936C63.9959 80.1691 64.2865 78.9626 64.8399 77.8701C65.3934 76.7774 66.1946 75.8288 67.1796 75.1L67.5888 74.7973L67.2788 74.3936C66.5152 73.3992 66.096 72.1835 66.0844 70.9302C66.085 69.3991 66.6938 67.9309 67.7771 66.8481C68.861 65.7649 70.3311 65.1562 71.8641 65.1562C73.397 65.1562 74.8671 65.7649 75.951 66.8481C77.0349 67.9314 77.6437 69.4006 77.6437 70.9324L77.6437 70.9332C77.6457 72.1861 77.2262 73.4034 76.4526 74.3895Z" fill="#666EC6" stroke="#323433"/>
<path d="M56.7115 59.343V59.6104L56.9338 59.7588L62.2801 63.3279C62.5998 63.5724 62.8151 63.9289 62.8826 64.3257C62.9508 64.7269 62.8627 65.1389 62.6363 65.4772C62.41 65.8154 62.0626 66.0543 61.6654 66.1447C61.2723 66.2341 60.86 66.1712 60.5117 65.969L55.3951 62.5668L55.1177 62.3823L54.8406 62.5673L49.7331 65.9774L49.733 65.9775C49.5585 66.0941 49.3626 66.175 49.1566 66.2158C48.9507 66.2565 48.7387 66.2561 48.5328 66.2146C48.327 66.1732 48.1314 66.0915 47.9573 65.9743L47.6781 66.3891L47.9573 65.9743C47.7834 65.8572 47.6344 65.707 47.5187 65.5323C47.2885 65.1815 47.2062 64.754 47.2896 64.3428C47.3731 63.9314 47.6159 63.5695 47.9652 63.3361L47.9657 63.3357L53.3034 59.7583L53.525 59.6098V59.343V54.1965C53.525 53.7744 53.6928 53.3695 53.9916 53.0709C54.2903 52.7723 54.6956 52.6045 55.1182 52.6045C55.5409 52.6045 55.9461 52.7723 56.2449 53.0709C56.5437 53.3695 56.7115 53.7744 56.7115 54.1965V59.343Z" fill="#D0DBF7" stroke="#323433"/>
</svg>
