<svg width="111" height="112" viewBox="0 0 111 112" fill="none" xmlns="http://www.w3.org/2000/svg">
<circle cx="55.5" cy="56.4961" r="54.5" fill="#F2F6FD" stroke="#323433" stroke-width="2"/>
<path d="M35.3588 40.5H74.6569C77.3406 40.5 79.5157 42.6743 79.5157 45.3558V66.7791C79.5157 69.4606 77.3406 71.6349 74.6569 71.6349H35.3588C32.6751 71.6349 30.5 69.4606 30.5 66.7791V45.3558C30.5 42.6743 32.6751 40.5 35.3588 40.5Z" fill="#E6ECFF" stroke="#323433"/>
<path d="M61.6525 56.0678C61.6525 59.7353 58.6776 62.7089 55.0074 62.7089C51.3371 62.7089 48.3623 59.7353 48.3623 56.0678C48.3623 52.4003 51.3371 49.4268 55.0074 49.4268C58.6776 49.4268 61.6525 52.4003 61.6525 56.0678Z" fill="#666EC6" stroke="#323433"/>
<path d="M41.9935 40.5C41.8684 43.4999 40.6211 46.3512 38.4881 48.483C36.3551 50.6148 33.5019 51.8615 30.5 51.9865V45.3558C30.5 44.0681 31.0118 42.833 31.923 41.9223C32.8342 41.0117 34.0701 40.5 35.3588 40.5H41.9935Z" fill="#666EC6" stroke="#323433"/>
<path d="M79.5156 45.3558V51.9865C76.5137 51.8615 73.6605 50.6148 71.5275 48.483C69.3945 46.3512 68.1472 43.4999 68.0221 40.5H74.6568C75.9456 40.5 77.1814 41.0117 78.0926 41.9223C79.0038 42.833 79.5156 44.0681 79.5156 45.3558Z" fill="#666EC6" stroke="#323433"/>
<path d="M30.5 60.1481C33.5019 60.2731 36.3551 61.5198 38.4881 63.6516C40.6211 65.7834 41.8684 68.6347 41.9935 71.6346H35.3588C34.0701 71.6346 32.8342 71.1229 31.923 70.2123L31.5696 70.5659L31.923 70.2123C31.0118 69.3016 30.5 68.0665 30.5 66.7788V60.1481Z" fill="#666EC6" stroke="#323433"/>
<path d="M68.0221 71.6346C68.1472 68.6347 69.3945 65.7834 71.5275 63.6516C73.6605 61.5198 76.5137 60.2731 79.5156 60.1481V66.7788C79.5156 68.0665 79.0038 69.3016 78.0926 70.2123C77.1814 71.1229 75.9456 71.6346 74.6568 71.6346H68.0221Z" fill="#666EC6" stroke="#323433"/>
</svg>
