<svg width="16" height="22" viewBox="0 0 16 22" fill="none" xmlns="http://www.w3.org/2000/svg">
<path d="M12.9994 10.1958C14.2743 9.47718 14.9633 8.03861 14.7258 6.59551C14.4306 4.36752 11.7748 3.52641 9.67946 3.3494V0H7.61372V3.31991H6.22676V0H4.16103V3.31991H0V5.45943H1.5493C2.24282 5.45943 2.58217 5.66601 2.58217 6.22667V15.4192C2.58217 16.1864 2.19851 16.4225 1.78536 16.4225H0.206573V18.6063H4.22001V22H6.30049V18.6063H7.68745V22H9.70895V18.6063H10.1516C14.4011 18.6063 15.8176 16.5258 15.8176 13.6929C15.7836 12.0225 14.6254 10.5853 12.9994 10.1958ZM6.22669 5.59221H7.70219C8.73506 5.59221 10.7713 5.76929 10.7713 7.45136C10.8421 8.54916 10.0468 9.51121 8.95637 9.64987H6.22669V5.59221ZM8.51374 16.2159V16.2011H6.22669V11.7746H8.88265C9.50237 11.7746 11.8337 11.9811 11.8337 13.6337C11.8337 15.2863 10.7271 16.2159 8.51374 16.2159Z" fill="#FF9C41"/>
</svg>
