<svg width="200" height="205" viewBox="0 0 200 205" fill="none" xmlns="http://www.w3.org/2000/svg">
<path d="M99.8115 0.554565L104.48 9.89085L114.893 11.3272L107.352 18.5089L109.148 28.5634L99.8115 23.8953L90.8343 28.5634L92.6297 18.5089L85.0889 11.3272L95.5024 9.89085L99.8115 0.554565Z" fill="#F9BE3D"/>
<path d="M140.031 10.6168L144.699 19.594L154.754 21.3895L147.572 28.5712L149.008 38.6257L140.031 33.9575L130.695 38.6257L132.49 28.5712L125.309 21.3895L135.363 19.594L140.031 10.6168Z" fill="#F9BE3D"/>
<path d="M169.833 37.1884L174.501 46.1656L184.556 47.961L177.374 55.1427L179.169 65.1972L169.833 60.5291L160.856 65.1972L162.651 55.1427L155.11 47.961L165.165 46.1656L169.833 37.1884Z" fill="#F9BE3D"/>
<path d="M184.559 74.8878L189.227 84.2241L199.281 85.6604L191.74 92.8422L193.536 103.256L184.559 98.2285L175.222 103.256L177.018 92.8422L169.836 85.6604L179.89 84.2241L184.559 74.8878Z" fill="#F9BE3D"/>
<path d="M156.549 157.112L161.217 166.449L171.271 167.885L164.09 175.067L165.526 185.48L156.549 180.453L147.572 185.48L149.008 175.067L141.826 167.885L151.881 166.449L156.549 157.112Z" fill="#F9BE3D"/>
<path d="M120.997 176.15L125.665 185.486L135.72 186.922L128.179 194.104L129.974 204.158L120.997 199.49L111.661 204.158L113.456 194.104L106.274 186.922L116.329 185.486L120.997 176.15Z" fill="#F9BE3D"/>
<path d="M78.9823 176.15L83.6505 185.486L93.7049 186.922L86.164 194.104L87.9595 204.158L78.9823 199.49L69.6461 204.158L71.4415 194.104L64.2598 186.922L74.3142 185.486L78.9823 176.15Z" fill="#F9BE3D"/>
<path d="M43.4346 157.112L47.7437 166.449L58.1573 167.885L50.6164 175.067L52.4118 185.48L43.4346 180.453L34.0983 185.48L35.8938 175.067L28.353 167.885L38.7665 166.449L43.4346 157.112Z" fill="#F9BE3D"/>
<path d="M15.4257 74.8878L20.0938 84.2241L30.1484 85.6604L22.6075 92.8422L24.4029 103.256L15.4257 98.2285L6.08944 103.256L7.88488 92.8422L0.703125 85.6604L10.7575 84.2241L15.4257 74.8878Z" fill="#F9BE3D"/>
<path d="M29.788 37.1884L34.4561 46.1656L44.8697 47.961L37.3289 55.1427L39.1243 65.1972L29.788 60.5291L20.8109 65.1972L22.6063 55.1427L15.0654 47.961L25.4789 46.1656L29.788 37.1884Z" fill="#F9BE3D"/>
<path d="M59.9521 10.6168L64.2612 19.594L74.6747 21.3895L67.1339 28.5712L68.9293 38.6257L59.9521 33.9575L50.6158 38.6257L52.4112 28.5712L45.2295 21.3895L55.284 19.594L59.9521 10.6168Z" fill="#F9BE3D"/>
<path d="M99.8115 0.554565L104.48 9.89085L114.893 11.3272L107.352 18.5089L109.148 28.5634L99.8115 23.8953L90.8343 28.5634L92.6297 18.5089L85.0889 11.3272L95.5024 9.89085L99.8115 0.554565Z" fill="#F9BE3D"/>
<path d="M17.9424 145.988L12.5561 138.088C12.197 138.088 11.838 138.088 11.4789 138.088H5.37443V145.988H0.347168V119.056H11.4789C13.9925 119.056 15.788 119.415 17.5834 120.133C19.3789 120.852 20.8151 121.929 21.5333 123.365C22.6106 124.802 22.9698 126.597 22.9698 128.392C22.9698 130.547 22.6106 132.342 21.5333 133.779C20.4561 135.215 19.0198 136.292 17.2243 137.011L23.3288 145.988H17.9424ZM16.147 124.802C15.0697 123.724 13.2743 123.365 11.1198 123.365H5.37443V134.138H11.1198C13.2743 134.138 15.0697 133.779 16.147 132.701C17.2243 131.624 17.9424 130.547 17.9424 128.752C17.9424 126.956 17.2243 125.52 16.147 124.802Z" fill="black"/>
<path d="M47.3873 137.359H31.2284C31.5875 138.796 32.3057 140.232 33.3829 140.95C34.4602 141.668 35.8965 142.386 37.6919 142.386C39.8464 142.386 42.001 141.668 43.4373 140.232L45.951 143.105C44.8737 144.182 43.7965 144.9 42.3601 145.618C40.9238 146.336 39.4874 146.336 37.6919 146.336C35.5374 146.336 33.3829 145.977 31.5875 144.9C29.792 143.823 28.3557 142.746 27.6375 140.95C26.5602 139.514 26.2012 137.359 26.2012 135.564C26.2012 133.409 26.5602 131.614 27.6375 130.177C28.7148 128.741 29.792 127.305 31.5875 126.227C33.3829 125.15 35.1784 124.791 36.9738 124.791C39.1283 124.791 40.9238 125.15 42.3601 126.227C43.7965 126.946 45.2328 128.382 45.951 129.818C46.6692 131.255 47.3873 133.409 47.3873 135.564C47.3873 136.282 47.3873 136.641 47.3873 137.359ZM33.0238 130.537C31.9466 131.614 31.2284 132.691 31.2284 134.127H43.0782C42.7191 132.691 42.3601 131.255 41.2828 130.537C40.2055 129.459 38.7693 129.1 37.3329 129.1C35.5375 129.1 34.1011 129.459 33.0238 130.537Z" fill="black"/>
<path d="M72.5255 125.515V143.111C72.5255 150.293 68.9346 153.883 61.3937 153.883C59.2392 153.883 57.4437 153.524 55.6483 153.165C53.8529 152.806 52.4166 152.088 51.3393 151.011L53.4939 147.42C54.5711 148.138 55.6484 148.856 57.0847 149.215C58.5211 149.574 59.9574 149.933 61.3937 149.933C63.5483 149.933 65.3437 149.574 66.4209 148.497C67.4982 147.42 67.8574 145.983 67.8574 143.829V142.393C67.1392 143.47 66.0619 143.829 64.9846 144.547C63.9073 144.906 62.471 145.265 61.0346 145.265C59.2392 145.265 57.4437 144.906 55.6483 143.829C54.2119 143.111 52.7756 141.674 52.0574 140.238C50.9802 138.802 50.6211 137.006 50.6211 134.852C50.6211 133.056 50.9802 131.261 52.0574 129.825C53.1347 128.388 54.2119 127.311 55.6483 126.234C57.0847 125.515 58.8801 125.156 61.0346 125.156C62.471 125.156 63.9073 125.515 64.9846 125.875C66.0619 126.234 67.1391 126.952 68.2164 128.029V125.156H72.5255V125.515ZM66.0619 139.52C67.1392 138.443 67.8574 137.006 67.8574 135.211C67.8574 133.415 67.1392 131.979 66.0619 130.902C64.9847 129.825 63.5483 129.106 61.3937 129.106C59.5983 129.106 58.162 129.825 56.7256 130.902C55.6484 131.979 54.9302 133.415 54.9302 135.211C54.9302 137.006 55.6484 138.443 56.7256 139.52C57.8029 140.597 59.2392 141.315 61.3937 141.315C63.5483 140.956 64.9847 140.597 66.0619 139.52Z" fill="black"/>
<path d="M99.0962 125.515V145.983H94.4281V143.47C93.71 144.547 92.6326 145.265 91.5554 145.624C90.4781 145.983 89.0418 146.342 87.9645 146.342C85.0918 146.342 82.9373 145.624 81.501 144.188C80.0646 142.751 78.9873 140.238 78.9873 137.365V125.515H83.6555V136.647C83.6555 138.442 84.0146 139.879 84.7327 140.956C85.4509 142.033 86.8873 142.392 88.3236 142.392C90.119 142.392 91.5554 142.033 92.2736 140.956C93.3509 139.879 93.7099 138.442 93.7099 136.288V125.874L99.0962 125.515Z" fill="black"/>
<path d="M105.202 117.257H109.87V145.984H105.202V117.257Z" fill="black"/>
<path d="M131.413 127.316C132.849 128.752 133.927 130.907 133.927 133.779V145.988H129.258V143.475C128.54 144.552 127.822 144.911 126.745 145.629C125.667 145.988 124.231 146.347 122.795 146.347C121.358 146.347 119.922 145.988 118.845 145.629C117.768 145.27 116.69 144.193 116.331 143.475C115.613 142.397 115.254 141.32 115.254 140.243C115.254 138.448 115.972 137.011 117.408 135.934C118.845 134.857 120.999 134.138 123.872 134.138H129.258V133.779C129.258 132.343 128.899 131.266 127.822 130.548C127.104 129.829 125.667 129.47 123.872 129.47C122.795 129.47 121.717 129.829 120.281 130.188C119.204 130.548 118.127 130.907 117.408 131.625L115.613 128.034C116.69 127.316 118.127 126.598 119.563 126.239C120.999 125.879 122.795 125.52 124.231 125.52C127.463 125.161 129.977 125.879 131.413 127.316ZM127.104 142.038C128.181 141.32 128.54 140.602 129.258 139.525V137.011H124.231C121.358 137.011 119.922 138.088 119.922 139.884C119.922 140.602 120.281 141.32 120.999 142.038C121.718 142.397 122.795 142.757 123.872 142.757C124.949 142.757 126.027 142.757 127.104 142.038Z" fill="black"/>
<path d="M152.599 144.899C151.881 145.258 151.522 145.617 150.445 145.976C149.727 146.335 148.649 146.335 147.931 146.335C145.777 146.335 143.981 145.617 142.545 144.54C141.468 143.463 140.749 141.667 140.749 139.513V129.458H137.518V125.508H140.749V120.84H145.417V125.508H150.804V129.458H145.417V139.154C145.417 140.231 145.777 140.949 146.136 141.308C146.495 141.667 147.213 142.026 148.29 142.026C149.367 142.026 150.445 141.667 151.163 141.308L152.599 144.899Z" fill="black"/>
<path d="M175.222 137.359H159.063C159.422 138.796 160.141 140.232 161.218 140.95C162.295 141.668 163.731 142.386 165.527 142.386C167.681 142.386 169.836 141.668 171.272 140.232L173.786 143.105C172.709 144.182 171.631 144.9 170.195 145.618C168.759 146.336 167.322 146.336 165.527 146.336C163.372 146.336 161.218 145.977 159.422 144.9C157.627 143.823 156.191 142.746 155.472 140.95C154.395 139.514 154.036 137.359 154.036 135.564C154.036 133.409 154.395 131.614 155.472 130.177C156.55 128.741 157.627 127.305 159.422 126.227C161.218 125.15 163.013 124.791 164.809 124.791C166.963 124.791 168.759 125.15 170.195 126.227C171.631 126.946 173.068 128.382 173.786 129.818C174.504 131.255 175.222 133.409 175.222 135.564C175.222 136.282 175.222 136.641 175.222 137.359ZM160.859 130.537C159.782 131.614 159.063 132.691 159.063 134.127H170.913C170.554 132.691 170.195 131.255 169.118 130.537C168.04 129.459 166.604 129.1 165.168 129.1C163.013 129.1 161.936 129.459 160.859 130.537Z" fill="black"/>
<path d="M200 117.257V145.984H195.332V143.47C194.614 144.548 193.536 145.266 192.459 145.625C191.382 145.984 189.946 146.343 188.509 146.343C186.355 146.343 184.559 145.984 183.123 144.907C181.687 144.189 180.25 142.752 179.532 141.316C178.455 139.88 178.096 137.725 178.096 135.93C178.096 133.775 178.455 131.98 179.532 130.543C180.609 129.107 181.687 127.671 183.123 126.952C184.559 126.234 186.355 125.516 188.509 125.516C189.946 125.516 191.023 125.875 192.1 126.234C193.177 126.593 194.255 127.312 194.973 128.389V117.616L200 117.257ZM192.1 141.316C193.177 140.957 193.896 139.88 194.255 139.161C194.973 138.084 194.973 137.007 194.973 135.93C194.973 134.493 194.614 133.416 194.255 132.698C193.536 131.621 192.818 130.902 192.1 130.543C191.023 130.184 190.305 129.825 188.868 129.825C187.791 129.825 186.714 130.184 185.637 130.543C184.559 130.902 183.841 131.98 183.482 132.698C182.764 133.775 182.764 134.852 182.764 135.93C182.764 137.366 183.123 138.443 183.482 139.161C184.2 140.239 184.918 140.957 185.637 141.316C186.714 141.675 187.432 142.034 188.868 142.034C190.305 142.393 191.382 142.034 192.1 141.316Z" fill="black"/>
<path d="M95.5041 89.9548V94.2638H75.0361V66.9731H94.786V71.2822H80.0633V78.464H92.9905V82.773H80.0633V90.3138H95.5041V89.9548Z" fill="black"/>
<path d="M104.121 91.3925C101.967 89.2379 100.89 86.3652 100.89 82.4153V66.9745H105.917V82.0562C105.917 87.4425 108.071 89.9561 112.74 89.9561C117.408 89.9561 119.562 87.4425 119.562 82.0562V66.9745H124.589V82.4153C124.589 86.3652 123.512 89.2379 121.358 91.3925C119.203 93.547 116.33 94.6242 112.74 94.6242C109.149 94.6242 106.276 93.547 104.121 91.3925Z" fill="black"/>
</svg>
