<svg width="683" height="205" viewBox="0 0 683 205" fill="none" xmlns="http://www.w3.org/2000/svg">
<path fill-rule="evenodd" clip-rule="evenodd" d="M88.3594 0.862915L132.539 26.2901L176.719 51.7173V153.744L132.539 179.171L88.3594 204.598L44.1797 179.171L0 153.744V51.7173L44.1797 26.2901L88.3594 0.862915ZM88.3594 7.85539L6.03895 55.5313V150.248L88.3594 197.923L170.68 150.248V55.2135L88.3594 7.85539Z" fill="#E9761A"/>
<path fill-rule="evenodd" clip-rule="evenodd" d="M88.0415 28.8274L24.1558 65.6968V139.753L41.3191 149.606L88.0415 28.8274ZM52.4435 156.281L113.787 129.9L135.082 149.924L88.0415 176.941L52.4435 156.281ZM141.121 146.428L109.972 72.6893L87.4059 102.884L113.787 129.583L58.4824 132.125L107.43 67.286L88.9951 29.1452L152.563 66.0146V140.071L141.121 146.428Z" fill="#E9761A"/>
<path d="M277.474 120.561H245.372L238.38 135.499H229.48L257.132 74.7917H265.714L293.366 135.499H284.148L277.474 120.561ZM274.613 113.568L261.582 83.6913L248.55 113.568H274.613Z" fill="black"/>
<path d="M315.932 91.3284C318.793 90.057 322.289 89.1035 326.421 89.1035V97.0495C326.103 97.0495 325.467 97.0495 324.514 97.0495C320.064 97.0495 316.568 98.3209 314.025 101.181C311.482 103.724 310.211 107.856 310.211 112.624V135.508H301.947V89.7392H309.893V97.3673C311.165 94.8246 313.072 92.5997 315.932 91.3284Z" fill="black"/>
<path d="M373.463 92.2727C376.959 94.1798 379.819 97.0403 381.727 100.537C383.634 104.033 384.587 108.165 384.587 112.932C384.587 117.7 383.634 121.514 381.727 125.328C379.819 129.142 376.959 131.685 373.463 133.592C369.966 135.499 365.835 136.452 361.385 136.452C357.889 136.452 354.71 135.817 351.85 134.545C348.989 133.274 346.764 131.367 344.857 128.824V136.135H336.911V71.2953H345.175V96.7225C347.082 94.1797 349.307 92.5905 352.167 91.3192C355.028 90.0478 357.889 89.4121 361.385 89.4121C365.835 89.0943 369.966 90.0478 373.463 92.2727ZM368.695 126.917C370.92 125.646 372.827 123.739 374.098 121.196C375.37 118.653 376.005 115.793 376.005 112.614C376.005 109.436 375.37 106.575 374.098 104.033C372.827 101.49 370.92 99.583 368.695 98.3117C366.47 97.0403 363.61 96.4046 360.749 96.4046C357.889 96.4046 355.346 97.0403 352.803 98.3117C350.578 99.583 348.671 101.49 347.4 104.033C346.128 106.575 345.493 109.436 345.493 112.614C345.493 115.793 346.128 118.653 347.4 121.196C348.671 123.739 350.578 125.646 352.803 126.917C355.028 128.189 357.889 128.824 360.749 128.824C363.61 128.824 366.47 128.189 368.695 126.917Z" fill="black"/>
<path d="M396.981 79.2466C396.027 78.2931 395.392 77.0218 395.392 75.4326C395.392 73.8434 396.027 72.572 396.981 71.6185C397.934 70.665 399.524 70.0293 401.113 70.0293C402.702 70.0293 403.973 70.665 405.245 71.6185C406.198 72.572 406.834 73.8434 406.834 75.4326C406.834 77.0218 406.198 78.2931 405.245 79.2466C404.291 80.2002 402.702 80.8358 401.113 80.8358C399.206 80.8358 397.934 80.2002 396.981 79.2466ZM396.663 89.7354H404.927V135.822H396.663V89.7354Z" fill="black"/>
<path d="M425.585 134.228C421.453 132.956 417.957 131.049 415.414 128.825L418.592 122.15C420.817 124.375 423.996 125.964 427.492 127.235C430.988 128.507 434.802 129.142 438.616 129.142C443.702 129.142 447.516 128.189 450.059 126.6C452.601 125.01 453.873 122.468 453.873 119.925C453.873 117.7 453.237 116.111 451.966 114.84C450.694 113.568 448.787 112.615 446.88 111.979C444.973 111.343 442.113 110.39 438.299 109.754C433.849 108.801 430.035 107.529 427.174 106.576C424.314 105.622 422.089 103.715 419.864 101.49C417.957 99.2654 417.003 96.087 417.003 92.2729C417.003 89.0945 417.957 86.234 419.546 83.3734C421.135 80.8307 423.996 78.6058 427.174 77.0166C430.67 75.4274 434.802 74.7917 440.206 74.7917C443.702 74.7917 447.198 75.1096 450.694 76.0631C454.191 77.0166 457.051 78.288 459.594 80.195L456.733 87.1875C454.191 85.5983 451.33 84.3269 448.469 83.3734C445.609 82.4199 442.748 82.1021 439.888 82.1021C435.12 82.1021 431.306 83.0556 428.763 84.6448C426.221 86.5518 424.949 88.7767 424.949 91.6373C424.949 93.8621 425.585 95.4513 427.174 96.7227C428.763 97.994 430.353 98.9476 432.26 99.9011C434.167 100.537 437.027 101.49 440.523 102.126C444.973 103.079 448.787 104.351 451.648 105.304C454.508 106.258 456.733 108.165 458.958 110.39C460.865 112.615 461.819 115.793 461.819 119.607C461.819 122.786 460.865 125.646 459.276 128.189C457.687 130.732 454.826 132.956 451.33 134.546C447.834 136.135 443.384 136.77 438.299 136.77C434.484 136.453 430.035 135.499 425.585 134.228Z" fill="black"/>
<path d="M545.73 94.1792C549.226 97.6754 550.815 102.443 550.815 109.118V135.498H542.551V110.071C542.551 105.621 541.598 102.125 539.373 99.9003C537.466 97.6754 534.288 96.4041 530.473 96.4041C526.342 96.4041 522.845 97.6754 520.303 100.218C517.76 102.761 516.489 106.575 516.489 111.66V135.498H508.543V110.071C508.543 105.621 507.589 102.125 505.364 99.9003C503.457 97.6754 500.279 96.4041 496.465 96.4041C492.333 96.4041 488.836 97.6754 486.294 100.218C483.751 102.761 482.48 106.575 482.48 111.66V135.498H474.216V89.7294H482.162V96.7219C483.751 94.497 485.976 92.59 488.836 91.3186C491.697 90.0473 494.558 89.4116 498.054 89.4116C501.55 89.4116 504.728 90.0473 507.589 91.6365C510.45 93.2257 512.357 95.1327 513.946 97.9933C515.535 95.4506 518.078 93.2257 521.256 91.6365C524.435 90.0473 527.931 89.4116 531.745 89.4116C537.784 89.0938 542.234 91.0008 545.73 94.1792Z" fill="black"/>
<path d="M597.857 93.8671C601.353 97.0455 602.942 101.813 602.942 107.852V135.504H594.996V129.465C593.725 131.69 591.5 133.279 588.957 134.233C586.415 135.504 583.236 135.822 579.74 135.822C574.655 135.822 570.523 134.551 567.344 132.008C564.166 129.465 562.577 126.287 562.577 122.155C562.577 118.023 564.166 114.845 567.026 112.302C569.887 109.759 574.655 108.488 581.011 108.488H594.361V106.899C594.361 103.402 593.407 100.542 591.182 98.6347C588.957 96.7277 586.097 95.7741 581.965 95.7741C579.104 95.7741 576.562 96.092 574.019 97.0455C571.476 97.999 569.251 99.2704 567.344 100.542L563.848 94.1849C566.073 92.2779 568.933 90.6887 572.43 89.7352C575.608 88.7817 579.104 88.146 582.918 88.146C589.593 89.0995 594.678 90.6887 597.857 93.8671ZM589.593 127.558C591.818 126.287 593.725 124.062 594.678 121.519V115.162H581.965C574.972 115.162 571.476 117.387 571.476 122.155C571.476 124.38 572.43 126.287 574.019 127.558C575.926 128.829 578.151 129.465 581.647 129.465C584.508 129.783 587.368 129.147 589.593 127.558Z" fill="black"/>
<path d="M633.453 91.3284C636.314 90.057 639.81 89.1035 643.942 89.1035V97.0495C643.624 97.0495 642.988 97.0495 642.035 97.0495C637.585 97.0495 634.089 98.3209 631.546 101.181C629.003 103.724 627.732 107.856 627.732 112.624V135.508H619.468V89.7392H627.414V97.3673C628.368 94.8246 630.593 92.5997 633.453 91.3284Z" fill="black"/>
<path d="M682.082 132.961C680.81 133.915 679.221 134.869 677.632 135.504C675.725 136.14 674.136 136.458 672.229 136.458C667.461 136.458 663.965 135.186 661.422 132.644C658.88 130.101 657.608 126.605 657.608 121.837V96.4099H649.662V89.4175H657.608V79.2466H665.872V89.4175H679.221V96.4099H665.872V121.201C665.872 123.744 666.508 125.651 667.779 126.923C669.05 128.194 670.957 128.83 673.182 128.83C675.725 128.83 677.95 128.194 679.539 126.605L682.082 132.961Z" fill="black"/>
</svg>
