<svg width="111" height="112" viewBox="0 0 111 112" fill="none" xmlns="http://www.w3.org/2000/svg">
<circle cx="55.5" cy="56.4961" r="55.5" fill="#F2F6FD"/>
<path d="M63.776 55.5801C65.8585 54.9825 67.6906 53.7254 68.9969 51.9978C70.3033 50.2702 71.0132 48.1655 71.0201 46.0001V34C71.0201 33.4696 70.8092 32.9609 70.434 32.5858C70.0587 32.2107 69.5497 32 69.0189 32H41.0031C40.4724 32 39.9634 32.2107 39.5881 32.5858C39.2128 32.9609 39.002 33.4696 39.002 34V46.0001C39.0014 48.1749 39.7102 50.2907 41.0211 52.0266C42.3319 53.7626 44.1733 55.0242 46.2661 55.6201L47.7269 56.0401L46.2661 56.4601C44.1864 57.0522 42.3546 58.3018 41.045 60.0216C39.7355 61.7415 39.0187 63.839 39.002 66.0002V78.0002C39.002 78.5307 39.2128 79.0393 39.5881 79.4144C39.9634 79.7895 40.4724 80.0002 41.0031 80.0002H69.0189C69.5497 80.0002 70.0587 79.7895 70.434 79.4144C70.8092 79.0393 71.0201 78.5307 71.0201 78.0002V66.0002C71.0219 63.8279 70.3159 61.7141 69.009 59.9784C67.702 58.2428 65.865 56.9797 63.776 56.3801L62.2951 55.9601L63.776 55.5401V55.5801Z" fill="#E6ECFF"/>
<path d="M69.9194 79.7803C69.6406 79.923 69.3322 79.9984 69.0189 80.0002H41.0031C40.4724 80.0002 39.9634 79.7895 39.5881 79.4144C39.2128 79.0393 39.002 78.5307 39.002 78.0002V66.0002C39.0014 63.8253 39.7102 61.7096 41.0211 59.9736C42.3319 58.2376 44.1733 56.976 46.2661 56.3801L47.7269 55.9601L46.2661 55.5401C44.1864 54.948 42.3546 53.6985 41.045 51.9786C39.7355 50.2588 39.0187 48.1612 39.002 46.0001V34C39.002 33.4696 39.2128 32.9609 39.5881 32.5858C39.9634 32.2107 40.4724 32 41.0031 32H43.5245C45.1454 48.3001 50.8286 72.2202 69.9194 79.7803Z" fill="#B7C6E2"/>
<path d="M46.8272 53.66C45.1567 53.1872 43.6852 52.1843 42.6348 50.8026C41.5844 49.4209 41.012 47.7353 41.0039 46H69.0198C69.0214 47.7284 68.4516 49.4088 67.3989 50.7801C66.3494 52.172 64.8738 53.1832 63.1965 53.66L55.0118 56.0001L46.8272 53.66Z" fill="#666EC6"/>
<path d="M41.0039 78.0003V66.3603C42.4086 67.0021 43.9428 67.3101 45.4864 67.2603C47.3277 67.3123 49.1501 66.8777 50.7694 66.0003C52.3676 65.1244 54.1704 64.6895 55.9924 64.7403C57.8263 64.6975 59.6399 65.1317 61.2554 66.0003C62.8685 66.8751 64.6837 67.3097 66.5184 67.2603C67.3585 67.2748 68.1977 67.1943 69.0198 67.0204V78.0003H41.0039Z" fill="#666EC6"/>
<path d="M66.1782 78.0001H41.0039V66.3601C42.4086 67.0018 43.9428 67.3099 45.4864 67.2601C47.3277 67.312 49.1501 66.8774 50.7694 66.0001C51.5501 65.5863 52.3761 65.2642 53.2308 65.04C56.3412 70.4152 60.8048 74.8832 66.1782 78.0001Z" fill="#3B4185"/>
<path d="M48.148 54.0001L46.8072 53.6201C45.1469 53.1455 43.6847 52.1471 42.6388 50.7737C41.5929 49.4004 41.0194 47.7258 41.0039 46H45.8066C46.4468 48.7057 47.2283 51.3761 48.148 54.0001Z" fill="#3B4185"/>
<path d="M71.0204 28H39.0023C37.9408 28 36.9228 28.4214 36.1722 29.1716C35.4217 29.9217 35 30.9391 35 32C35 33.0609 35.4217 34.0783 36.1722 34.8285C36.9228 35.5786 37.9408 36 39.0023 36H71.0204C72.0818 36 73.0998 35.5786 73.8504 34.8285C74.601 34.0783 75.0226 33.0609 75.0226 32C75.0226 30.9391 74.601 29.9217 73.8504 29.1716C73.0998 28.4214 72.0818 28 71.0204 28Z" fill="#D0DBF7"/>
<path d="M71.0204 76.001H39.0023C37.9408 76.001 36.9228 76.4224 36.1722 77.1726C35.4217 77.9227 35 78.9401 35 80.001C35 81.0619 35.4217 82.0793 36.1722 82.8294C36.9228 83.5796 37.9408 84.001 39.0023 84.001H71.0204C72.0818 84.001 73.0998 83.5796 73.8504 82.8294C74.601 82.0793 75.0226 81.0619 75.0226 80.001C75.0226 78.9401 74.601 77.9227 73.8504 77.1726C73.0998 76.4224 72.0818 76.001 71.0204 76.001Z" fill="#D0DBF7"/>
<path d="M44.0051 36H39.0023C37.9408 36 36.9228 35.5786 36.1722 34.8285C35.4217 34.0783 35 33.0609 35 32C35 30.9391 35.4217 29.9217 36.1722 29.1716C36.9228 28.4214 37.9408 28 39.0023 28H43.2046C43.3647 30.44 43.6049 33.14 44.0051 36Z" fill="#8EA6CE"/>
<path d="M74.8025 81.281C74.5351 82.0723 74.0266 82.76 73.3483 83.2478C72.6701 83.7356 71.856 83.999 71.0204 84.001H39.0023C37.9408 84.001 36.9228 83.5796 36.1722 82.8294C35.4217 82.0793 35 81.0619 35 80.001C35 78.9401 35.4217 77.9227 36.1722 77.1726C36.9228 76.4224 37.9408 76.001 39.0023 76.001H63.0159C66.5359 78.5589 70.5498 80.357 74.8025 81.281Z" fill="#8EA6CE"/>
</svg>
