<svg width="111" height="112" viewBox="0 0 111 112" fill="none" xmlns="http://www.w3.org/2000/svg">
<circle cx="55.5" cy="56.4961" r="55.5" fill="#F2F6FD"/>
<path d="M34.4284 58.1284C33.9764 58.1265 33.5351 57.9907 33.1603 57.7381C32.7854 57.4855 32.494 57.1276 32.3227 56.7094C32.1515 56.2913 32.1081 55.8318 32.1981 55.3891C32.2881 54.9463 32.5075 54.5402 32.8285 54.2221L44.2569 42.8C44.6852 42.3746 45.2645 42.1357 45.8683 42.1357C46.4722 42.1357 47.0515 42.3746 47.4797 42.8C47.694 43.0124 47.864 43.2651 47.9801 43.5434C48.0961 43.8218 48.1558 44.1204 48.1558 44.422C48.1558 44.7235 48.0961 45.0221 47.9801 45.3005C47.864 45.5789 47.694 45.8315 47.4797 46.0439L36.0513 57.4659C35.8377 57.6776 35.5844 57.8451 35.3059 57.9588C35.0274 58.0725 34.7293 58.1301 34.4284 58.1284Z" fill="#D7DDF1"/>
<path d="M61.8572 69.5507C61.3995 69.5511 60.9521 69.4142 60.5731 69.1576C60.1941 68.901 59.9009 68.5366 59.7316 68.1115L50.5888 45.2674C50.3645 44.704 50.3734 44.0746 50.6134 43.5176C50.8535 42.9607 51.305 42.5219 51.8688 42.2977C52.4326 42.0735 53.0623 42.0824 53.6196 42.3223C54.1768 42.5622 54.6159 43.0135 54.8402 43.577L63.9829 66.421C64.0943 66.7 64.1495 66.9982 64.1454 67.2985C64.1413 67.5988 64.078 67.8953 63.9591 68.1712C63.8402 68.447 63.6681 68.6967 63.4525 68.906C63.237 69.1153 62.9823 69.28 62.703 69.3908C62.4347 69.5005 62.1471 69.5549 61.8572 69.5507Z" fill="#D7DDF1"/>
<path d="M66.4284 71.8356C65.9764 71.8337 65.5351 71.6979 65.1603 71.4454C64.7854 71.1928 64.494 70.8348 64.3227 70.4167C64.1515 69.9986 64.1081 69.5391 64.1981 69.0963C64.2881 68.6536 64.5075 68.2475 64.8285 67.9293L75.2969 57.4667C75.5094 57.2526 75.7622 57.0827 76.0407 56.9667C76.3192 56.8507 76.618 56.791 76.9197 56.791C77.2215 56.791 77.5202 56.8507 77.7988 56.9667C78.0773 57.0827 78.3301 57.2526 78.5426 57.4667C78.9683 57.8948 79.2072 58.4737 79.2072 59.0772C79.2072 59.6808 78.9683 60.2597 78.5426 60.6878L68.0513 71.1732C67.8377 71.3849 67.5844 71.5524 67.3059 71.6661C67.0274 71.7798 66.7293 71.8374 66.4284 71.8356Z" fill="#D7DDF1"/>
<path d="M29.8571 67.266C33.6441 67.266 36.7141 64.1977 36.7141 60.4128C36.7141 56.6279 33.6441 53.5596 29.8571 53.5596C26.07 53.5596 23 56.6279 23 60.4128C23 64.1977 26.07 67.266 29.8571 67.266Z" fill="#53599A"/>
<path d="M50.4284 46.7064C54.2154 46.7064 57.2854 43.6381 57.2854 39.8532C57.2854 36.0683 54.2154 33 50.4284 33C46.6413 33 43.5713 36.0683 43.5713 39.8532C43.5713 43.6381 46.6413 46.7064 50.4284 46.7064Z" fill="#53599A"/>
<path d="M61.8561 78.6879C65.6431 78.6879 68.7131 75.6196 68.7131 71.8347C68.7131 68.0497 65.6431 64.9814 61.8561 64.9814C58.069 64.9814 54.999 68.0497 54.999 71.8347C54.999 75.6196 58.069 78.6879 61.8561 78.6879Z" fill="#53599A"/>
<path d="M80.1432 62.6976C83.9303 62.6976 87.0003 59.6294 87.0003 55.8444C87.0003 52.0595 83.9303 48.9912 80.1432 48.9912C76.3561 48.9912 73.2861 52.0595 73.2861 55.8444C73.2861 59.6294 76.3561 62.6976 80.1432 62.6976Z" fill="#53599A"/>
</svg>
