<svg width="111" height="112" viewBox="0 0 111 112" fill="none" xmlns="http://www.w3.org/2000/svg">
<circle cx="55.5" cy="56.4961" r="55.5" fill="#F2F6FD"/>
<path d="M72.0801 43.4969C71.8719 43.247 71.6111 43.0461 71.3163 42.9084C71.0215 42.7707 70.7001 42.6995 70.3747 42.7001H69.2894V41.6154C69.2899 41.2902 69.2188 40.9688 69.0809 40.6742C68.9431 40.3796 68.7421 40.119 68.492 39.9109C63.2242 35.5674 56.4857 33.4172 49.6741 33.9062C42.8625 34.3952 36.5007 37.4858 31.908 42.5371C27.3154 47.5884 24.8444 54.2128 25.0076 61.0361C25.1708 67.8595 27.9557 74.3582 32.7846 79.1844C37.6135 84.0106 44.1159 86.7939 50.943 86.9571C57.7702 87.1202 64.3982 84.6506 69.4524 80.0605C74.5065 75.4704 77.5989 69.1121 78.0882 62.3043C78.5774 55.4966 76.426 48.7618 72.0801 43.4969Z" fill="#E6ECFF"/>
<path d="M78.1485 60.4086C78.143 66.5893 75.9812 72.5747 72.0353 77.3338C68.0894 82.0929 62.6065 85.3279 56.531 86.4815C50.4554 87.6351 44.1676 86.6351 38.7503 83.6538C33.3331 80.6725 29.1256 75.8966 26.8525 70.1485C50.6622 71.7865 65.989 61.449 75.5793 49.252C77.2369 52.74 78.1137 56.5473 78.1485 60.4086Z" fill="#B7C6E2"/>
<path d="M51.5704 78.118C61.3563 78.118 69.2893 70.1895 69.2893 60.4091C69.2893 50.6287 61.3563 42.7002 51.5704 42.7002C41.7846 42.7002 33.8516 50.6287 33.8516 60.4091C33.8516 70.1895 41.7846 78.118 51.5704 78.118Z" fill="#D0DBF7"/>
<path d="M69.2888 60.409C69.276 64.2093 68.0402 67.9046 65.7642 70.949C63.4882 73.9933 60.2927 76.2251 56.6498 77.3146C53.007 78.4041 49.1101 78.2935 45.535 76.9991C41.96 75.7047 38.8963 73.2953 36.7969 70.1268C48.7207 69.3647 60.0305 64.5716 68.868 56.5352C69.144 57.8081 69.285 59.1065 69.2888 60.409Z" fill="#8EA6CE"/>
<path d="M51.5703 69.2626C56.4633 69.2626 60.4298 65.2983 60.4298 60.4081C60.4298 55.518 56.4633 51.5537 51.5703 51.5537C46.6774 51.5537 42.7109 55.518 42.7109 60.4081C42.7109 65.2983 46.6774 69.2626 51.5703 69.2626Z" fill="#E6ECFF"/>
<path d="M86.8534 35.2177C86.6858 34.81 86.4003 34.4616 86.0333 34.2171C85.6663 33.9725 85.2346 33.8431 84.7936 33.8453H78.149V27.2045C78.1472 26.7693 78.0172 26.3444 77.7751 25.9827C77.5329 25.621 77.1895 25.3387 76.7878 25.171C76.386 25.0033 75.9437 24.9576 75.5161 25.0398C75.0886 25.1219 74.6947 25.3282 74.3838 25.6328L65.5244 34.4873C65.3151 34.6923 65.1486 34.9367 65.0345 35.2065C64.9205 35.4763 64.8611 35.766 64.8599 36.0589V44.0058L50.0204 58.837C49.8128 59.0428 49.648 59.2876 49.5356 59.5573C49.4232 59.8271 49.3652 60.1164 49.3652 60.4086C49.3652 60.7009 49.4232 60.9902 49.5356 61.2599C49.648 61.5297 49.8128 61.7745 50.0204 61.9803C50.4354 62.3926 50.9967 62.624 51.5819 62.624C52.167 62.624 52.7284 62.3926 53.1434 61.9803L68.005 47.127H75.9342C76.2257 47.1287 76.5146 47.0728 76.7845 46.9627C77.0543 46.8525 77.2998 46.6902 77.5068 46.485L86.3662 37.6306C86.6772 37.3217 86.8895 36.9276 86.9763 36.4981C87.063 36.0686 87.0203 35.623 86.8534 35.2177Z" fill="#666EC6"/>
<path d="M60.0309 63.043C59.6466 64.2743 58.9977 65.4069 58.1296 66.3614C57.2616 67.316 56.1954 68.0694 55.0056 68.5691C53.8157 69.0688 52.531 69.3026 51.2414 69.2543C49.9517 69.2059 48.6881 68.8766 47.5391 68.2892C51.912 67.0865 56.1109 65.3231 60.0309 63.043Z" fill="#B7C6E2"/>
</svg>
