<svg width="111" height="112" viewBox="0 0 111 112" fill="none" xmlns="http://www.w3.org/2000/svg">
<circle cx="55.5" cy="56.4961" r="55.5" fill="#F2F6FD"/>
<path d="M43.9288 47.1309C43.3479 47.1284 42.7912 46.898 42.3788 46.4891L32.1932 36.3314C31.9867 36.125 31.823 35.8801 31.7112 35.6105C31.5995 35.3409 31.542 35.052 31.542 34.7602C31.542 34.4683 31.5995 34.1794 31.7112 33.9098C31.823 33.6402 31.9867 33.3952 32.1932 33.1889C32.3996 32.9826 32.6447 32.8189 32.9145 32.7072C33.1842 32.5956 33.4734 32.5381 33.7653 32.5381C34.0573 32.5381 34.3464 32.5956 34.6161 32.7072C34.8859 32.8189 35.131 32.9826 35.3374 33.1889L45.5009 43.3466C45.7084 43.5524 45.8732 43.7971 45.9856 44.0668C46.098 44.3365 46.1559 44.6257 46.1559 44.9179C46.1559 45.21 46.098 45.4993 45.9856 45.769C45.8732 46.0386 45.7084 46.2834 45.5009 46.4891C45.294 46.6942 45.0486 46.8565 44.7788 46.9666C44.509 47.0767 44.2202 47.1326 43.9288 47.1309Z" fill="#D0DBF7"/>
<path d="M33.7652 79.4175C33.4738 79.4192 33.1849 79.3634 32.9151 79.2533C32.6453 79.1431 32.3999 78.9809 32.193 78.7758C31.9855 78.57 31.8208 78.3253 31.7084 78.0556C31.596 77.7859 31.5381 77.4967 31.5381 77.2045C31.5381 76.9124 31.596 76.6231 31.7084 76.3535C31.8208 76.0838 31.9855 75.839 32.193 75.6333L42.3787 65.4755C42.7935 65.0634 43.3547 64.832 43.9397 64.832C44.5247 64.832 45.0859 65.0634 45.5008 65.4755C45.7083 65.6813 45.873 65.926 45.9854 66.1957C46.0979 66.4654 46.1557 66.7547 46.1557 67.0468C46.1557 67.3389 46.0979 67.6282 45.9854 67.8979C45.873 68.1676 45.7083 68.4123 45.5008 68.6181L35.3373 78.7758C35.1304 78.9809 34.885 79.1431 34.6152 79.2533C34.3455 79.3634 34.0566 79.4192 33.7652 79.4175Z" fill="#8EA6CE"/>
<path d="M66.0712 47.1295C65.6333 47.1276 65.2057 46.9961 64.8426 46.7514C64.4795 46.5067 64.1972 46.1599 64.0313 45.7549C63.8654 45.3498 63.8234 44.9047 63.9106 44.4758C63.9978 44.0469 64.2103 43.6534 64.5212 43.3452L74.6847 33.1875C75.0995 32.7753 75.6607 32.5439 76.2457 32.5439C76.8307 32.5439 77.3919 32.7753 77.8068 33.1875C78.0143 33.3932 78.179 33.638 78.2914 33.9076C78.4039 34.1773 78.4617 34.4666 78.4617 34.7587C78.4617 35.0509 78.4039 35.3401 78.2914 35.6098C78.179 35.8794 78.0143 36.1242 77.8068 36.3299L67.6433 46.4877C67.4364 46.6928 67.191 46.8551 66.9212 46.9652C66.6515 47.0753 66.3626 47.1312 66.0712 47.1295Z" fill="#D0DBF7"/>
<path d="M76.2346 79.4175C75.6537 79.4151 75.0971 79.1846 74.6846 78.7758L64.5212 68.6181C64.3136 68.4123 64.1489 68.1676 64.0365 67.8979C63.9241 67.6282 63.8662 67.3389 63.8662 67.0468C63.8662 66.7547 63.9241 66.4654 64.0365 66.1957C64.1489 65.926 64.3136 65.6813 64.5212 65.4755C64.9361 65.0634 65.4973 64.832 66.0822 64.832C66.6672 64.832 67.2284 65.0634 67.6433 65.4755L77.8067 75.6333C78.119 75.9428 78.332 76.3383 78.4185 76.7693C78.505 77.2003 78.4611 77.6472 78.2925 78.0532C78.1238 78.4591 77.8381 78.8057 77.4715 79.0487C77.105 79.2917 76.6744 79.4201 76.2346 79.4175Z" fill="#D0DBF7"/>
<path d="M54.9992 73.6857C64.7825 73.6857 72.7133 65.7592 72.7133 55.9815C72.7133 46.2038 64.7825 38.2773 54.9992 38.2773C45.216 38.2773 37.2852 46.2038 37.2852 55.9815C37.2852 65.7592 45.216 73.6857 54.9992 73.6857Z" fill="#E6ECFF"/>
<path d="M30.6428 38.2781C34.3115 38.2781 37.2856 35.3057 37.2856 31.6391C37.2856 27.9724 34.3115 25 30.6428 25C26.9741 25 24 27.9724 24 31.6391C24 35.3057 26.9741 38.2781 30.6428 38.2781Z" fill="#666EC6"/>
<path d="M30.6428 86.9646C34.3115 86.9646 37.2856 83.9922 37.2856 80.3256C37.2856 76.6589 34.3115 73.6865 30.6428 73.6865C26.9741 73.6865 24 76.6589 24 80.3256C24 83.9922 26.9741 86.9646 30.6428 86.9646Z" fill="#3B4185"/>
<path d="M79.3567 38.2781C83.0254 38.2781 85.9994 35.3057 85.9994 31.6391C85.9994 27.9724 83.0254 25 79.3567 25C75.6879 25 72.7139 27.9724 72.7139 31.6391C72.7139 35.3057 75.6879 38.2781 79.3567 38.2781Z" fill="#666EC6"/>
<path d="M79.3567 86.9646C83.0254 86.9646 85.9994 83.9922 85.9994 80.3256C85.9994 76.6589 83.0254 73.6865 79.3567 73.6865C75.6879 73.6865 72.7139 76.6589 72.7139 80.3256C72.7139 83.9922 75.6879 86.9646 79.3567 86.9646Z" fill="#666EC6"/>
<path d="M64.4766 70.9416C61.0267 73.1047 56.9364 74.0137 52.8945 73.5155C48.8525 73.0172 45.1058 71.1423 42.2852 68.2063C39.4645 65.2703 37.7422 61.4526 37.4083 57.3961C37.0744 53.3395 38.1492 49.2918 40.4519 45.9346C44.1718 56.4464 51.2796 66.3164 64.4766 70.9416Z" fill="#B7C6E2"/>
<path d="M60.6249 57.288C61.2607 56.2839 61.6152 55.1277 61.6514 53.9399C61.6877 52.7522 61.4043 51.5766 60.8308 50.5356C60.2574 49.4947 59.415 48.6267 58.3914 48.0221C57.3678 47.4176 56.2007 47.0986 55.0117 47.0986C53.8228 47.0986 52.6557 47.4176 51.6321 48.0221C50.6085 48.6267 49.7661 49.4947 49.1927 50.5356C48.6192 51.5766 48.3358 52.7522 48.3721 53.9399C48.4083 55.1277 48.7628 56.2839 49.3986 57.288C47.3451 58.2413 45.5694 59.7034 44.2402 61.5354C42.9109 63.3674 42.0723 65.5086 41.8037 67.7556C43.4652 69.6101 45.4993 71.0936 47.7733 72.1093C50.0472 73.1249 52.51 73.6499 55.0007 73.6499C57.4914 73.6499 59.9541 73.1249 62.2281 72.1093C64.5021 71.0936 66.5362 69.6101 68.1977 67.7556C67.9313 65.5109 67.0959 63.3712 65.7707 61.5394C64.4455 59.7076 62.6743 58.2443 60.6249 57.288Z" fill="#666EC6"/>
<path d="M64.4765 70.943C60.9228 73.2035 56.6795 74.1244 52.5078 73.5404C48.3362 72.9564 44.5093 70.9057 41.7139 67.7563C41.9311 65.9356 42.5234 64.1796 43.4532 62.599C44.3831 61.0183 45.6304 59.6473 47.1167 58.5723C51.5486 64.3243 57.591 68.6301 64.4765 70.943Z" fill="#3B4185"/>
</svg>
