<svg width="111" height="112" viewBox="0 0 111 112" fill="none" xmlns="http://www.w3.org/2000/svg">
<circle cx="55.5" cy="56.4961" r="55.5" fill="#F2F6FD"/>
<path d="M60.0856 51.7091H50.5734C49.9427 51.7091 49.3378 51.4597 48.8918 51.0158C48.4459 50.5718 48.1953 49.9697 48.1953 49.3419V44.6075C48.1953 42.724 48.9469 40.9177 50.2849 39.5859C51.6228 38.2541 53.4374 37.5059 55.3295 37.5059C57.2216 37.5059 59.0362 38.2541 60.3741 39.5859C61.712 40.9177 62.4637 42.724 62.4637 44.6075V49.3419C62.4637 49.9697 62.2131 50.5718 61.7671 51.0158C61.3212 51.4597 60.7163 51.7091 60.0856 51.7091ZM52.9514 46.9747H57.7075V44.6075C57.7075 43.9797 57.457 43.3776 57.011 42.9336C56.5651 42.4897 55.9602 42.2403 55.3295 42.2403C54.6988 42.2403 54.0939 42.4897 53.6479 42.9336C53.202 43.3776 52.9514 43.9797 52.9514 44.6075V46.9747Z" fill="#3B4185"/>
<path d="M62.464 46.9756H48.1957C44.2556 46.9756 41.0615 50.1551 41.0615 54.0772V68.2805C41.0615 72.2026 44.2556 75.3821 48.1957 75.3821H62.464C66.4041 75.3821 69.5982 72.2026 69.5982 68.2805V54.0772C69.5982 50.1551 66.4041 46.9756 62.464 46.9756Z" fill="#666EC6"/>
<path d="M60.0854 58.8107C60.0904 57.9785 59.875 57.1596 59.4607 56.4367C59.0465 55.7137 58.4482 55.1122 57.726 54.6929C57.0038 54.2735 56.1833 54.051 55.3473 54.0479C54.5112 54.0447 53.6891 54.2611 52.9637 54.675C52.2384 55.089 51.6355 55.6859 51.2158 56.4057C50.7962 57.1256 50.5745 57.9428 50.5732 58.775C50.572 59.6073 50.7911 60.4252 51.2086 61.1463C51.6261 61.8674 52.2272 62.4662 52.9512 62.8823V65.9123C52.9512 66.5402 53.2018 67.1423 53.6477 67.5862C54.0937 68.0301 54.6986 68.2795 55.3293 68.2795C55.96 68.2795 56.5648 68.0301 57.0108 67.5862C57.4568 67.1423 57.7073 66.5402 57.7073 65.9123V62.8823C58.4262 62.4692 59.0239 61.876 59.4411 61.1617C59.8582 60.4475 60.0804 59.6369 60.0854 58.8107Z" fill="#3B4185"/>
<path d="M55.3292 35.1388C54.6985 35.1388 54.0937 34.8894 53.6477 34.4454C53.2017 34.0015 52.9512 33.3994 52.9512 32.7716V28.0371C52.9512 27.4093 53.2017 26.8072 53.6477 26.3633C54.0937 25.9193 54.6985 25.6699 55.3292 25.6699C55.9599 25.6699 56.5648 25.9193 57.0108 26.3633C57.4567 26.8072 57.7073 27.4093 57.7073 28.0371V32.7716C57.7073 33.3994 57.4567 34.0015 57.0108 34.4454C56.5648 34.8894 55.9599 35.1388 55.3292 35.1388Z" fill="#D7DDF1"/>
<path d="M67.22 46.9748C66.907 46.9766 66.5968 46.9169 66.307 46.7991C66.0173 46.6813 65.7538 46.5077 65.5316 46.2883C65.3087 46.0683 65.1317 45.8064 65.011 45.518C64.8903 45.2295 64.8281 44.9201 64.8281 44.6076C64.8281 44.2951 64.8903 43.9857 65.011 43.6972C65.1317 43.4087 65.3087 43.1469 65.5316 42.9268L74.3541 34.1682V30.4043C74.3541 29.7765 74.6047 29.1744 75.0507 28.7304C75.4966 28.2865 76.1015 28.0371 76.7322 28.0371C77.3629 28.0371 77.9678 28.2865 78.4137 28.7304C78.8597 29.1744 79.1103 29.7765 79.1103 30.4043V35.1387C79.1121 35.4503 79.0521 35.7591 78.9337 36.0475C78.8154 36.336 78.641 36.5983 78.4206 36.8195L68.9084 46.2883C68.6862 46.5077 68.4227 46.6813 68.1329 46.7991C67.8432 46.9169 67.5329 46.9766 67.22 46.9748Z" fill="#D7DDF1"/>
<path d="M43.4391 46.9748C43.1262 46.9766 42.8159 46.9169 42.5262 46.7991C42.2365 46.6813 41.9729 46.5077 41.7507 46.2883L32.2385 36.8195C32.0181 36.5983 31.8437 36.336 31.7254 36.0475C31.607 35.7591 31.5471 35.4503 31.5489 35.1387V30.4043C31.5489 29.7765 31.7994 29.1744 32.2454 28.7304C32.6914 28.2865 33.2962 28.0371 33.9269 28.0371C34.5576 28.0371 35.1625 28.2865 35.6085 28.7304C36.0544 29.1744 36.305 29.7765 36.305 30.4043V34.1682L45.1276 42.9268C45.3505 43.1469 45.5274 43.4087 45.6481 43.6972C45.7688 43.9857 45.831 44.2951 45.831 44.6076C45.831 44.9201 45.7688 45.2295 45.6481 45.518C45.5274 45.8064 45.3505 46.0683 45.1276 46.2883C44.9054 46.5077 44.6418 46.6813 44.3521 46.7991C44.0624 46.9169 43.7521 46.9766 43.4391 46.9748Z" fill="#D7DDF1"/>
<path d="M76.7318 84.8506C76.1011 84.8506 75.4962 84.6012 75.0502 84.1573C74.6043 83.7134 74.3537 83.1113 74.3537 82.4834V78.7196L70.2873 74.6953C69.8395 74.2496 69.5879 73.645 69.5879 73.0146C69.5879 72.3842 69.8395 71.7796 70.2873 71.3339C70.7351 70.8881 71.3424 70.6377 71.9757 70.6377C72.609 70.6377 73.2163 70.8881 73.6641 71.3339L78.4202 76.0683C78.6406 76.2895 78.815 76.5518 78.9333 76.8402C79.0517 77.1286 79.1117 77.4375 79.1098 77.749V82.4834C79.1098 83.1113 78.8593 83.7134 78.4133 84.1573C77.9674 84.6012 77.3625 84.8506 76.7318 84.8506Z" fill="#D7DDF1"/>
<path d="M33.9269 84.8506C33.2962 84.8506 32.6914 84.6012 32.2454 84.1573C31.7994 83.7134 31.5489 83.1113 31.5489 82.4834V77.749C31.5471 77.4375 31.607 77.1286 31.7254 76.8402C31.8437 76.5518 32.0181 76.2895 32.2385 76.0683L36.9946 71.3339C37.4424 70.8881 38.0498 70.6377 38.683 70.6377C39.3163 70.6377 39.9237 70.8881 40.3715 71.3339C40.8193 71.7796 41.0708 72.3842 41.0708 73.0146C41.0708 73.645 40.8193 74.2496 40.3715 74.6953L36.305 78.7196V82.4834C36.305 83.1113 36.0544 83.7134 35.6085 84.1573C35.1625 84.6012 34.5576 84.8506 33.9269 84.8506Z" fill="#D7DDF1"/>
<path d="M55.3292 87.2179C54.6985 87.2179 54.0937 86.9685 53.6477 86.5245C53.2017 86.0806 52.9512 85.4785 52.9512 84.8506V80.1162C52.9512 79.4884 53.2017 78.8863 53.6477 78.4424C54.0937 77.9984 54.6985 77.749 55.3292 77.749C55.9599 77.749 56.5648 77.9984 57.0108 78.4424C57.4567 78.8863 57.7073 79.4884 57.7073 80.1162V84.8506C57.7073 85.4785 57.4567 86.0806 57.0108 86.5245C56.5648 86.9685 55.9599 87.2179 55.3292 87.2179Z" fill="#D7DDF1"/>
<path d="M83.8659 58.8115H74.3536C73.7229 58.8115 73.1181 58.5621 72.6721 58.1182C72.2261 57.6743 71.9756 57.0722 71.9756 56.4443C71.9756 55.8165 72.2261 55.2144 72.6721 54.7705C73.1181 54.3265 73.7229 54.0771 74.3536 54.0771H83.8659C84.4966 54.0771 85.1014 54.3265 85.5474 54.7705C85.9934 55.2144 86.2439 55.8165 86.2439 56.4443C86.2439 57.0722 85.9934 57.6743 85.5474 58.1182C85.1014 58.5621 84.4966 58.8115 83.8659 58.8115Z" fill="#D7DDF1"/>
<path d="M36.3053 58.8115H26.7931C26.1624 58.8115 25.5575 58.5621 25.1116 58.1182C24.6656 57.6743 24.415 57.0722 24.415 56.4443C24.415 55.8165 24.6656 55.2144 25.1116 54.7705C25.5575 54.3265 26.1624 54.0771 26.7931 54.0771H36.3053C36.936 54.0771 37.5409 54.3265 37.9869 54.7705C38.4328 55.2144 38.6834 55.8165 38.6834 56.4443C38.6834 57.0722 38.4328 57.6743 37.9869 58.1182C37.5409 58.5621 36.936 58.8115 36.3053 58.8115Z" fill="#D7DDF1"/>
<path d="M76.7313 32.7716C75.6307 32.7762 74.5625 32.4007 73.7089 31.7091C72.8553 31.0175 72.2691 30.0526 72.0501 28.9789C71.8312 27.9052 71.9931 26.7892 72.5083 25.8211C73.0235 24.8529 73.86 24.0926 74.8753 23.6697C75.8906 23.2468 77.0218 23.1875 78.0761 23.5019C79.1304 23.8163 80.0426 24.485 80.657 25.3939C81.2715 26.3028 81.5503 27.3958 81.4459 28.4864C81.3414 29.5771 80.8602 30.5979 80.0843 31.3749C79.1965 32.264 77.9906 32.7663 76.7313 32.7716Z" fill="#D7DDF1"/>
<path d="M33.9266 32.7716C32.826 32.7762 31.7578 32.4007 30.9042 31.7091C30.0506 31.0175 29.4644 30.0526 29.2454 28.9789C29.0265 27.9052 29.1884 26.7892 29.7036 25.8211C30.2188 24.8529 31.0553 24.0926 32.0706 23.6697C33.0859 23.2468 34.2171 23.1875 35.2714 23.5019C36.3257 23.8163 37.2379 24.485 37.8523 25.3939C38.4668 26.3028 38.7456 27.3958 38.6412 28.4864C38.5367 29.5771 38.0555 30.5979 37.2796 31.3749C36.3918 32.264 35.1859 32.7663 33.9266 32.7716Z" fill="#D7DDF1"/>
<path d="M76.7313 89.585C75.6307 89.5896 74.5625 89.2141 73.7089 88.5225C72.8553 87.831 72.2691 86.8661 72.0501 85.7924C71.8312 84.7187 71.9931 83.6027 72.5083 82.6345C73.0235 81.6664 73.86 80.9061 74.8753 80.4831C75.8906 80.0602 77.0218 80.001 78.0761 80.3154C79.1304 80.6298 80.0426 81.2984 80.657 82.2074C81.2715 83.1163 81.5503 84.2092 81.4459 85.2999C81.3414 86.3905 80.8602 87.4113 80.0843 88.1884C79.1965 89.0774 77.9906 89.5797 76.7313 89.585Z" fill="#D7DDF1"/>
<path d="M33.9266 89.585C32.826 89.5896 31.7578 89.2141 30.9042 88.5225C30.0506 87.831 29.4644 86.8661 29.2454 85.7924C29.0265 84.7187 29.1884 83.6027 29.7036 82.6345C30.2188 81.6664 31.0553 80.9061 32.0706 80.4831C33.0859 80.0602 34.2171 80.001 35.2714 80.3154C36.3257 80.6298 37.2379 81.2984 37.8523 82.2074C38.4668 83.1163 38.7456 84.2092 38.6412 85.2999C38.5367 86.3905 38.0555 87.4113 37.2796 88.1884C36.3918 89.0774 35.1859 89.5797 33.9266 89.585Z" fill="#D7DDF1"/>
<path d="M86.2434 61.1788C88.8701 61.1788 90.9995 59.0591 90.9995 56.4444C90.9995 53.8296 88.8701 51.71 86.2434 51.71C83.6167 51.71 81.4873 53.8296 81.4873 56.4444C81.4873 59.0591 83.6167 61.1788 86.2434 61.1788Z" fill="#D7DDF1"/>
<path d="M24.4143 61.1788C27.041 61.1788 29.1704 59.0591 29.1704 56.4444C29.1704 53.8296 27.041 51.71 24.4143 51.71C21.7876 51.71 19.6582 53.8296 19.6582 56.4444C19.6582 59.0591 21.7876 61.1788 24.4143 61.1788Z" fill="#D7DDF1"/>
<path d="M55.3294 91.9523C54.3887 91.9523 53.4691 91.6746 52.687 91.1544C51.9049 90.6341 51.2953 89.8947 50.9353 89.0296C50.5753 88.1645 50.4811 87.2126 50.6646 86.2942C50.8481 85.3758 51.3011 84.5322 51.9663 83.8701C52.6314 83.2079 53.4789 82.7571 54.4015 82.5744C55.3241 82.3917 56.2804 82.4854 57.1494 82.8438C58.0185 83.2021 58.7613 83.8089 59.2839 84.5875C59.8065 85.3661 60.0855 86.2814 60.0855 87.2178C60.0855 88.4735 59.5844 89.6777 58.6924 90.5656C57.8005 91.4535 56.5908 91.9523 55.3294 91.9523Z" fill="#D7DDF1"/>
<path d="M55.3294 30.4044C54.3887 30.4044 53.4691 30.1267 52.687 29.6065C51.9049 29.0862 51.2953 28.3468 50.9353 27.4817C50.5753 26.6166 50.4811 25.6647 50.6646 24.7463C50.8481 23.8279 51.3011 22.9843 51.9663 22.3222C52.6314 21.6601 53.4789 21.2092 54.4015 21.0265C55.3241 20.8438 56.2804 20.9376 57.1494 21.2959C58.0185 21.6543 58.7613 22.2611 59.2839 23.0396C59.8065 23.8182 60.0855 24.7336 60.0855 25.67C60.0855 26.9256 59.5844 28.1298 58.6924 29.0177C57.8005 29.9056 56.5908 30.4044 55.3294 30.4044Z" fill="#D7DDF1"/>
</svg>
