<svg width="111" height="112" viewBox="0 0 111 112" fill="none" xmlns="http://www.w3.org/2000/svg">
<circle cx="55.5" cy="56.4961" r="55.5" fill="#F2F6FD"/>
<path d="M71 78L61 77.64L60 78.36V74H66L71 78Z" fill="#3B4185"/>
<path d="M39 78L49 77.64L50 78.36V74H44L39 78Z" fill="#3B4185"/>
<path d="M74 58H72V60H74V58Z" fill="#2486FC"/>
<path d="M73 46C72.7348 46 72.4804 45.8946 72.2929 45.7071C72.1054 45.5196 72 45.2652 72 45C72 40.4913 70.2089 36.1673 67.0208 32.9792C63.8327 29.7911 59.5087 28 55 28C50.4913 28 46.1673 29.7911 42.9792 32.9792C39.7911 36.1673 38 40.4913 38 45C38 45.2652 37.8946 45.5196 37.7071 45.7071C37.5196 45.8946 37.2652 46 37 46C36.7348 46 36.4804 45.8946 36.2929 45.7071C36.1054 45.5196 36 45.2652 36 45C36 39.9609 38.0018 35.1282 41.565 31.565C45.1282 28.0018 49.9609 26 55 26C60.0391 26 64.8718 28.0018 68.435 31.565C71.9982 35.1282 74 39.9609 74 45C74 45.2652 73.8946 45.5196 73.7071 45.7071C73.5196 45.8946 73.2652 46 73 46Z" fill="#53599A"/>
<path d="M60.57 69.2498C60.4357 69.1569 60.2808 69.0984 60.1187 69.0792C59.9566 69.06 59.7922 69.0808 59.64 69.1398C56.652 70.2815 53.348 70.2815 50.36 69.1398C50.2078 69.0808 50.0434 69.06 49.8813 69.0792C49.7192 69.0984 49.5643 69.1569 49.43 69.2498C49.2975 69.3417 49.1893 69.4642 49.1144 69.607C49.0395 69.7498 49.0003 69.9086 49 70.0698V80.3598C48.9996 80.5176 49.0365 80.6732 49.1078 80.814C49.1791 80.9548 49.2826 81.0767 49.41 81.1698L54.41 84.8098C54.5813 84.9349 54.7879 85.0024 55 85.0024C55.2121 85.0024 55.4187 84.9349 55.59 84.8098L60.59 81.1698C60.7174 81.0767 60.821 80.9548 60.8922 80.814C60.9635 80.6732 61.0004 80.5176 61 80.3598V70.0698C60.9997 69.9086 60.9605 69.7498 60.8856 69.607C60.8108 69.4642 60.7025 69.3417 60.57 69.2498Z" fill="#E5C3B7"/>
<path d="M75 44H69C68.7348 44 68.4805 44.1054 68.2929 44.2929C68.1054 44.4804 68 44.7348 68 45V57C68.0013 57.6223 67.9578 58.2439 67.87 58.86C67.85 59.0028 67.8611 59.1482 67.9025 59.2863C67.944 59.4243 68.0147 59.5518 68.1101 59.66C68.2038 59.7667 68.3191 59.8522 68.4484 59.9108C68.5777 59.9694 68.7181 59.9998 68.8601 60H75C75.7957 60 76.5588 59.6839 77.1214 59.1213C77.684 58.5587 78 57.7956 78 57V47C78 46.2044 77.684 45.4413 77.1214 44.8787C76.5588 44.3161 75.7957 44 75 44Z" fill="#666EC6"/>
<path d="M42 45C42 44.7348 41.8946 44.4804 41.7071 44.2929C41.5196 44.1054 41.2652 44 41 44H35C34.2044 44 33.4413 44.3161 32.8787 44.8787C32.3161 45.4413 32 46.2044 32 47V57C32 57.7956 32.3161 58.5587 32.8787 59.1213C33.4413 59.6839 34.2044 60 35 60H41.14C41.282 59.9998 41.4223 59.9694 41.5516 59.9108C41.6809 59.8522 41.7963 59.7667 41.89 59.66C41.9853 59.5518 42.0561 59.4243 42.0975 59.2863C42.1389 59.1482 42.15 59.0028 42.13 58.86C42.0422 58.2439 41.9988 57.6223 42 57V45Z" fill="#666EC6"/>
<path d="M60.35 40.9997C59.99 40.6297 59.78 40.3697 59.78 40.3697C59.6961 40.2678 59.5928 40.1835 59.476 40.1217C59.3593 40.0599 59.2315 40.0219 59.1 40.0097C58.8372 39.9838 58.5748 40.0629 58.37 40.2297C58.37 40.2297 57.96 40.5397 57.22 40.9997H44C42.9392 40.9997 41.9217 41.4211 41.1716 42.1713C40.4215 42.9214 40 43.9388 40 44.9997V56.5697C39.9552 60.4751 41.4066 64.2495 44.0564 67.1187C46.7062 69.9879 50.3535 71.7343 54.25 71.9997C56.282 72.1014 58.3135 71.7887 60.2209 71.0806C62.1282 70.3724 63.8716 69.2837 65.3449 67.8805C66.8182 66.4774 67.9906 64.7892 68.7909 62.9186C69.5912 61.0481 70.0026 59.0343 70 56.9997V44.9997C70 43.9388 69.5786 42.9214 68.8285 42.1713C68.0783 41.4211 67.0609 40.9997 66 40.9997H60.35Z" fill="#F2DBD1"/>
<path d="M81 81.74V85C81 85.2652 80.8946 85.5196 80.7071 85.7071C80.5196 85.8946 80.2652 86 80 86H30C29.7348 86 29.4804 85.8946 29.2929 85.7071C29.1054 85.5196 29 85.2652 29 85V81.74C29.0015 81.5266 29.0712 81.3193 29.199 81.1484C29.3267 80.9775 29.5058 80.8519 29.71 80.79L39 78L44 74L55 82L66 74L71 78L80.29 80.79C80.4942 80.8519 80.6733 80.9775 80.801 81.1484C80.9288 81.3193 80.9985 81.5266 81 81.74Z" fill="#666EC6"/>
<path d="M66 74L55 82L59.4 85.52C59.5749 85.6546 59.7893 85.7276 60.01 85.7276C60.2307 85.7276 60.4451 85.6546 60.62 85.52L71 78L66 74Z" fill="#53599A"/>
<path d="M69.9995 45V47C66.0342 46.8351 62.2431 45.3257 59.2495 42.72L58.8595 42.33C58.6295 42.49 58.3495 42.66 58.0195 42.86C55.4195 44.41 48.7395 47 40.0195 47V45C40.0195 41.0218 41.5999 37.2064 44.4129 34.3934C47.226 31.5804 51.0413 30 55.0195 30C58.9978 30 62.8131 31.5804 65.6261 34.3934C68.4392 37.2064 70.0195 41.0218 70.0195 45H69.9995Z" fill="#38383F"/>
<path d="M52 54C51.7348 54 51.4804 53.8946 51.2929 53.7071C51.1054 53.5196 51 53.2652 51 53C51 52.7348 50.8946 52.4804 50.7071 52.2929C50.5196 52.1054 50.2652 52 50 52C49.7348 52 49.4804 52.1054 49.2929 52.2929C49.1054 52.4804 49 52.7348 49 53C49 53.2652 48.8946 53.5196 48.7071 53.7071C48.5196 53.8946 48.2652 54 48 54C47.7348 54 47.4804 53.8946 47.2929 53.7071C47.1054 53.5196 47 53.2652 47 53C47 52.2044 47.3161 51.4413 47.8787 50.8787C48.4413 50.3161 49.2044 50 50 50C50.7956 50 51.5587 50.3161 52.1213 50.8787C52.6839 51.4413 53 52.2044 53 53C53 53.2652 52.8946 53.5196 52.7071 53.7071C52.5196 53.8946 52.2652 54 52 54Z" fill="#E5C3B7"/>
<path d="M62 54C61.7348 54 61.4804 53.8946 61.2929 53.7071C61.1054 53.5196 61 53.2652 61 53C61 52.7348 60.8946 52.4804 60.7071 52.2929C60.5196 52.1054 60.2652 52 60 52C59.7348 52 59.4804 52.1054 59.2929 52.2929C59.1054 52.4804 59 52.7348 59 53C59 53.2652 58.8946 53.5196 58.7071 53.7071C58.5196 53.8946 58.2652 54 58 54C57.7348 54 57.4804 53.8946 57.2929 53.7071C57.1054 53.5196 57 53.2652 57 53C57 52.2044 57.3161 51.4413 57.8787 50.8787C58.4413 50.3161 59.2044 50 60 50C60.7956 50 61.5587 50.3161 62.1213 50.8787C62.6839 51.4413 63 52.2044 63 53C63 53.2652 62.8946 53.5196 62.7071 53.7071C62.5196 53.8946 62.2652 54 62 54Z" fill="#E5C3B7"/>
<path d="M55.0002 62.0002C54.2345 62.0017 53.4761 61.8514 52.7689 61.5579C52.0617 61.2644 51.4197 60.8335 50.8802 60.2902L50.2902 59.7102C50.1019 59.5219 49.9961 59.2665 49.9961 59.0002C49.9961 58.7339 50.1019 58.4785 50.2902 58.2902C50.4785 58.1019 50.7339 57.9961 51.0002 57.9961C51.2665 57.9961 51.5219 58.1019 51.7102 58.2902L52.2902 58.8802C53.0098 59.5973 53.9843 60 55.0002 60.0002C56.0152 59.9957 56.9881 59.5936 57.7102 58.8802L58.2902 58.2902C58.4785 58.1019 58.7339 57.9961 59.0002 57.9961C59.2665 57.9961 59.5219 58.1019 59.7102 58.2902C59.8985 58.4785 60.0043 58.7339 60.0043 59.0002C60.0043 59.2665 59.8985 59.5219 59.7102 59.7102L59.1202 60.2902C58.0266 61.382 56.5455 61.9967 55.0002 62.0002Z" fill="#E5C3B7"/>
<path d="M74 60V64C74 64.7956 73.6839 65.5587 73.1213 66.1213C72.5587 66.6839 71.7956 67 71 67H57C56.7348 67 56.4804 66.8946 56.2929 66.7071C56.1054 66.5196 56 66.2652 56 66C56 65.7348 56.1054 65.4804 56.2929 65.2929C56.4804 65.1054 56.7348 65 57 65H71C71.2652 65 71.5196 64.8946 71.7071 64.7071C71.8946 64.5196 72 64.2652 72 64V60H74Z" fill="#53599A"/>
<path d="M44 74L55 82L50.6 85.52C50.4251 85.6546 50.2107 85.7276 49.99 85.7276C49.7693 85.7276 49.5549 85.6546 49.38 85.52L39 78L44 74Z" fill="#53599A"/>
<path d="M55 69C56.6569 69 58 67.6569 58 66C58 64.3431 56.6569 63 55 63C53.3431 63 52 64.3431 52 66C52 67.6569 53.3431 69 55 69Z" fill="#666EC6"/>
</svg>
